<svg width="24" height="24" viewBox="0 0 24 24" fill="none" xmlns="http://www.w3.org/2000/svg">
<path d="M3 20C2.44772 20 2 20.4477 2 21C2 21.5523 2.44772 22 3 22V20ZM21 22C21.5523 22 22 21.5523 22 21C22 20.4477 21.5523 20 21 20V22ZM3 22H21V20H3V22ZM9 5V15H11V5H9ZM7 15V5H5V15H7ZM8 16C7.44772 16 7 15.5523 7 15H5C5 16.6569 6.34315 18 8 18V16ZM9 15C9 15.5523 8.55228 16 8 16V18C9.65685 18 11 16.6569 11 15H9ZM8 4C8.55228 4 9 4.44772 9 5H11C11 3.34315 9.65685 2 8 2V4ZM8 2C6.34315 2 5 3.34315 5 5H7C7 4.44772 7.44772 4 8 4V2ZM17 11V15H19V11H17ZM15 15V11H13V15H15ZM16 16C15.4477 16 15 15.5523 15 15H13C13 16.6569 14.3431 18 16 18V16ZM17 15C17 15.5523 16.5523 16 16 16V18C17.6569 18 19 16.6569 19 15H17ZM16 10C16.5523 10 17 10.4477 17 11H19C19 9.34315 17.6569 8 16 8V10ZM16 8C14.3431 8 13 9.34315 13 11H15C15 10.4477 15.4477 10 16 10V8Z" fill="#0B0D12"/>
</svg>
