<svg width="24" height="24" viewBox="0 0 24 24" fill="none" xmlns="http://www.w3.org/2000/svg">
<path d="M3 2C2.44772 2 2 2.44772 2 3C2 3.55228 2.44772 4 3 4V2ZM21 4C21.5523 4 22 3.55228 22 3C22 2.44772 21.5523 2 21 2V4ZM3 4H21V2H3V4ZM11 19V9H9V19H11ZM5 9V19H7V9H5ZM8 6C6.34315 6 5 7.34315 5 9H7C7 8.44772 7.44772 8 8 8V6ZM11 9C11 7.34315 9.65685 6 8 6V8C8.55228 8 9 8.44772 9 9H11ZM8 22C9.65685 22 11 20.6569 11 19H9C9 19.5523 8.55228 20 8 20V22ZM8 20C7.44772 20 7 19.5523 7 19H5C5 20.6569 6.34315 22 8 22V20ZM19 13V9H17V13H19ZM13 9V13H15V9H13ZM16 6C14.3431 6 13 7.34315 13 9H15C15 8.44772 15.4477 8 16 8V6ZM19 9C19 7.34315 17.6569 6 16 6V8C16.5523 8 17 8.44772 17 9H19ZM16 16C17.6569 16 19 14.6569 19 13H17C17 13.5523 16.5523 14 16 14V16ZM16 14C15.4477 14 15 13.5523 15 13H13C13 14.6569 14.3431 16 16 16V14Z" fill="#0B0D12"/>
</svg>
