<svg width="24" height="24" viewBox="0 0 24 24" fill="none" xmlns="http://www.w3.org/2000/svg">
<path d="M22 3C22 2.44772 21.5523 2 21 2C20.4477 2 20 2.44772 20 3H22ZM20 21C20 21.5523 20.4477 22 21 22C21.5523 22 22 21.5523 22 21H20ZM15 6V7V6ZM15 10V11V10ZM5 10V9V10ZM5 6V5V6ZM15 14V13V14ZM15 18V17V18ZM11 18V19V18ZM11 14V15V14ZM20 3V21H22V3H20ZM5 11L15 11V9L5 9V11ZM15 5L5 5V7L15 7V5ZM18 8C18 6.34315 16.6569 5 15 5V7C15.5523 7 16 7.44771 16 8H18ZM15 11C16.6569 11 18 9.65685 18 8H16C16 8.55228 15.5523 9 15 9V11ZM2 8C2 9.65685 3.34315 11 5 11V9C4.44772 9 4 8.55228 4 8H2ZM4 8C4 7.44771 4.44772 7 5 7V5C3.34315 5 2 6.34314 2 8H4ZM11 19H15V17H11V19ZM15 13H11V15H15V13ZM18 16C18 14.3431 16.6569 13 15 13V15C15.5523 15 16 15.4477 16 16H18ZM15 19C16.6569 19 18 17.6569 18 16H16C16 16.5523 15.5523 17 15 17V19ZM8 16C8 17.6569 9.34315 19 11 19V17C10.4477 17 10 16.5523 10 16H8ZM10 16C10 15.4477 10.4477 15 11 15V13C9.34315 13 8 14.3431 8 16H10Z" fill="#0B0D12"/>
</svg>
