<svg width="24" height="24" viewBox="0 0 24 24" fill="none" xmlns="http://www.w3.org/2000/svg">
<path d="M13 3C13 2.44772 12.5523 2 12 2C11.4477 2 11 2.44772 11 3L13 3ZM11 21C11 21.5523 11.4477 22 12 22C12.5523 22 13 21.5523 13 21H11ZM7 6V7V6ZM7 10V11V10ZM17 10V9V10ZM17 6V5V6ZM10 14V13V14ZM10 18V17V18ZM14 18V19V18ZM14 14V15V14ZM11 3L11 21H13V3L11 3ZM17 9L7 9V11L17 11V9ZM7 7L17 7V5L7 5V7ZM6 8C6 7.44771 6.44772 7 7 7V5C5.34315 5 4 6.34315 4 8H6ZM7 9C6.44772 9 6 8.55228 6 8H4C4 9.65685 5.34315 11 7 11V9ZM18 8C18 8.55228 17.5523 9 17 9V11C18.6569 11 20 9.65685 20 8H18ZM20 8C20 6.34314 18.6569 5 17 5V7C17.5523 7 18 7.44771 18 8H20ZM14 17H10V19H14V17ZM10 15H14V13H10V15ZM9 16C9 15.4477 9.44772 15 10 15V13C8.34315 13 7 14.3431 7 16H9ZM10 17C9.44772 17 9 16.5523 9 16H7C7 17.6569 8.34315 19 10 19V17ZM15 16C15 16.5523 14.5523 17 14 17V19C15.6569 19 17 17.6569 17 16H15ZM17 16C17 14.3431 15.6569 13 14 13V15C14.5523 15 15 15.4477 15 16H17Z" fill="#0B0D12"/>
</svg>
