<svg width="24" height="24" viewBox="0 0 24 24" fill="none" xmlns="http://www.w3.org/2000/svg">
<path d="M3 11C2.44772 11 2 11.4477 2 12C2 12.5523 2.44772 13 3 13V11ZM21 13C21.5523 13 22 12.5523 22 12C22 11.4477 21.5523 11 21 11V13ZM3 13H21V11H3V13ZM15 17V7H13V17H15ZM17 7V17H19V7H17ZM16 6C16.5523 6 17 6.44772 17 7H19C19 5.34315 17.6569 4 16 4V6ZM15 7C15 6.44772 15.4477 6 16 6V4C14.3431 4 13 5.34315 13 7H15ZM16 18C15.4477 18 15 17.5523 15 17H13C13 18.6569 14.3431 20 16 20V18ZM16 20C17.6569 20 19 18.6569 19 17H17C17 17.5523 16.5523 18 16 18V20ZM7 14V10H5V14H7ZM9 10V14H11V10H9ZM8 9C8.55228 9 9 9.44772 9 10H11C11 8.34315 9.65685 7 8 7V9ZM7 10C7 9.44772 7.44772 9 8 9V7C6.34315 7 5 8.34315 5 10H7ZM8 15C7.44772 15 7 14.5523 7 14H5C5 15.6569 6.34315 17 8 17V15ZM8 17C9.65685 17 11 15.6569 11 14H9C9 14.5523 8.55228 15 8 15V17Z" fill="#0B0D12"/>
</svg>
