<svg width="24" height="24" viewBox="0 0 24 24" fill="none" xmlns="http://www.w3.org/2000/svg">
<path d="M4 3C4 2.44772 3.55228 2 3 2C2.44772 2 2 2.44772 2 3L4 3ZM2 21C2 21.5523 2.44772 22 3 22C3.55229 22 4 21.5523 4 21H2ZM9 6V7V6ZM9 10V11V10ZM19 10V9V10ZM19 6V5V6ZM9 14V13V14ZM9 18V17V18ZM13 18V19V18ZM13 14V15V14ZM2 3L2 21H4L4 3L2 3ZM19 9L9 9V11L19 11V9ZM9 7L19 7V5L9 5V7ZM8 8C8 7.44771 8.44772 7 9 7V5C7.34315 5 6 6.34315 6 8H8ZM9 9C8.44772 9 8 8.55228 8 8H6C6 9.65685 7.34315 11 9 11V9ZM20 8C20 8.55228 19.5523 9 19 9V11C20.6569 11 22 9.65685 22 8H20ZM22 8C22 6.34314 20.6569 5 19 5V7C19.5523 7 20 7.44771 20 8H22ZM13 17H9V19H13V17ZM9 15H13V13H9V15ZM8 16C8 15.4477 8.44772 15 9 15V13C7.34315 13 6 14.3431 6 16H8ZM9 17C8.44772 17 8 16.5523 8 16H6C6 17.6569 7.34315 19 9 19V17ZM14 16C14 16.5523 13.5523 17 13 17V19C14.6569 19 16 17.6569 16 16H14ZM16 16C16 14.3431 14.6569 13 13 13V15C13.5523 15 14 15.4477 14 16H16Z" fill="#0B0D12"/>
</svg>
