<svg width="24" height="24" viewBox="0 0 24 24" fill="none" xmlns="http://www.w3.org/2000/svg">
<path d="M21 22C21.5523 22 22 21.5523 22 21C22 20.4477 21.5523 20 21 20V22ZM4 3C4 2.44772 3.55228 2 3 2C2.44772 2 2 2.44772 2 3H4ZM6.90576 20.9989L6.8822 21.9986L6.88221 21.9986L6.90576 20.9989ZM3.00111 17.0942L2.00139 17.1178L3.00111 17.0942ZM8.20711 15.7929C7.81658 15.4024 7.18342 15.4024 6.79289 15.7929C6.40237 16.1834 6.40237 16.8166 6.79289 17.2071L8.20711 15.7929ZM6.80289 17.2171C7.19342 17.6076 7.82658 17.6076 8.21711 17.2171C8.60763 16.8266 8.60763 16.1934 8.21711 15.8029L6.80289 17.2171ZM3 9C2.44772 9 2 9.44772 2 10C2 10.5523 2.44772 11 3 11V9ZM13 21C13 21.5523 13.4477 22 14 22C14.5523 22 15 21.5523 15 21H13ZM21 20H7.12V22H21V20ZM4 16.88V3H2V16.88H4ZM7.12 20C7.00289 20 6.96168 19.9999 6.92932 19.9992L6.88221 21.9986C6.94406 22.0001 7.01428 22 7.12 22V20ZM2 16.88C2 16.9857 1.99993 17.0559 2.00139 17.1178L4.00083 17.0707C4.00007 17.0383 4 16.9971 4 16.88H2ZM6.92932 19.9992C5.32785 19.9614 4.03857 18.6721 4.00083 17.0707L2.00139 17.1178C2.06429 19.7869 4.21309 21.9357 6.8822 21.9986L6.92932 19.9992ZM6.79289 17.2071L6.80289 17.2171L8.21711 15.8029L8.20711 15.7929L6.79289 17.2071ZM3 11C8.52285 11 13 15.4772 13 21H15C15 14.3726 9.62742 9 3 9V11Z" fill="#0B0D12"/>
</svg>
