<svg width="24" height="24" viewBox="0 0 24 24" fill="none" xmlns="http://www.w3.org/2000/svg">
<path d="M9.80643 19.5326L10.559 18.8741L10.559 18.8741L9.80643 19.5326ZM9.63047 19.3315L8.87789 19.99L8.8779 19.99L9.63047 19.3315ZM14.1936 19.5326L13.441 18.8741L13.441 18.8741L14.1936 19.5326ZM14.3695 19.3315L13.617 18.673L13.617 18.673L14.3695 19.3315ZM16.5283 18.0581L16.4173 17.0642H16.4173L16.5283 18.0581ZM14.8368 18.8256L14.162 18.0877L14.1619 18.0877L14.8368 18.8256ZM7.47167 18.0581L7.58266 17.0642H7.58266L7.47167 18.0581ZM9.16321 18.8256L8.48837 19.5636L8.48837 19.5636L9.16321 18.8256ZM11.108 20.7924L11.554 19.8974H11.554L11.108 20.7924ZM12.892 20.7924L12.446 19.8974H12.446L12.892 20.7924ZM3.06285 15.6504L4.0419 15.4468L4.0419 15.4468L3.06285 15.6504ZM5.38912 17.9767L5.59275 16.9976H5.59275L5.38912 17.9767ZM20.9371 15.6504L21.9162 15.854L21.9162 15.854L20.9371 15.6504ZM18.6109 17.9767L18.4073 16.9976H18.4073L18.6109 17.9767ZM19.362 3.32698L18.908 4.21799L18.908 4.21799L19.362 3.32698ZM20.673 4.63803L21.564 4.18404V4.18404L20.673 4.63803ZM4.63803 3.32698L5.09202 4.21799L4.63803 3.32698ZM3.32698 4.63803L4.21799 5.09202L3.32698 4.63803ZM9 7.5C8.44772 7.5 8 7.94772 8 8.5C8 9.05228 8.44772 9.5 9 9.5V7.5ZM15 9.5C15.5523 9.5 16 9.05228 16 8.5C16 7.94772 15.5523 7.5 15 7.5V9.5ZM9 11.5C8.44772 11.5 8 11.9477 8 12.5C8 13.0523 8.44772 13.5 9 13.5V11.5ZM15 13.5C15.5523 13.5 16 13.0523 16 12.5C16 11.9477 15.5523 11.5 15 11.5V13.5ZM7.8 4H16.2V2H7.8V4ZM20 7.8V14.2562H22V7.8H20ZM4 14.2562V7.8H2V14.2562H4ZM10.559 18.8741L10.383 18.673L8.8779 19.99L9.05385 20.1911L10.559 18.8741ZM14.9461 20.1911L15.1221 19.99L13.617 18.673L13.441 18.8741L14.9461 20.1911ZM17.2167 17.0395C16.8909 17.0395 16.6516 17.0381 16.4173 17.0642L16.6393 19.0519C16.737 19.041 16.846 19.0395 17.2167 19.0395V17.0395ZM15.1221 19.99C15.3662 19.711 15.4391 19.6299 15.5116 19.5636L14.1619 18.0877C13.988 18.2467 13.8315 18.4278 13.617 18.673L15.1221 19.99ZM16.4173 17.0642C15.5762 17.1582 14.7865 17.5165 14.162 18.0877L15.5116 19.5636C15.8239 19.278 16.2188 19.0988 16.6393 19.0519L16.4173 17.0642ZM6.78327 19.0395C7.154 19.0395 7.26296 19.041 7.36068 19.0519L7.58266 17.0642C7.34844 17.0381 7.10911 17.0395 6.78327 17.0395V19.0395ZM10.3831 18.673C10.1685 18.4278 10.012 18.2467 9.83805 18.0877L8.48837 19.5636C8.56093 19.6299 8.6338 19.711 8.87789 19.99L10.3831 18.673ZM7.36068 19.0519C7.78125 19.0988 8.17608 19.278 8.48837 19.5636L9.83805 18.0877C9.21346 17.5165 8.4238 17.1582 7.58266 17.0642L7.36068 19.0519ZM9.05385 20.1911C9.3612 20.5423 9.62319 20.8425 9.85397 21.0738C10.0893 21.3096 10.3456 21.5298 10.662 21.6874L11.554 19.8974C11.5171 19.879 11.4388 19.8305 11.2697 19.6611C11.096 19.4871 10.8839 19.2453 10.559 18.8741L9.05385 20.1911ZM13.441 18.8741C13.1161 19.2453 12.904 19.4871 12.7303 19.6611C12.5612 19.8305 12.4829 19.879 12.446 19.8974L13.338 21.6874C13.6544 21.5298 13.9107 21.3096 14.146 21.0738C14.3768 20.8425 14.6388 20.5423 14.9461 20.1911L13.441 18.8741ZM10.662 21.6874C11.5046 22.1073 12.4954 22.1073 13.338 21.6874L12.446 19.8974C12.1651 20.0373 11.8349 20.0373 11.554 19.8974L10.662 21.6874ZM2 14.2562C2 14.9341 1.99472 15.4257 2.08381 15.854L4.0419 15.4468C4.00528 15.2707 4 15.0343 4 14.2562H2ZM6.78327 17.0395C6.00521 17.0395 5.76883 17.0342 5.59275 16.9976L5.1855 18.9557C5.61383 19.0448 6.10541 19.0395 6.78327 19.0395V17.0395ZM2.0838 15.854C2.40808 17.4132 3.62634 18.6314 5.1855 18.9557L5.59275 16.9976C4.81317 16.8355 4.20404 16.2263 4.0419 15.4468L2.0838 15.854ZM20 14.2562C20 15.0343 19.9947 15.2707 19.9581 15.4468L21.9162 15.854C22.0053 15.4257 22 14.9341 22 14.2562H20ZM17.2167 19.0395C17.8946 19.0395 18.3862 19.0448 18.8145 18.9557L18.4073 16.9976C18.2312 17.0342 17.9948 17.0395 17.2167 17.0395V19.0395ZM19.9581 15.4468C19.796 16.2263 19.1868 16.8355 18.4073 16.9976L18.8145 18.9557C20.3737 18.6314 21.5919 17.4132 21.9162 15.854L19.9581 15.4468ZM16.2 4C17.0566 4 17.6389 4.00078 18.089 4.03755C18.5274 4.07337 18.7516 4.1383 18.908 4.21799L19.816 2.43597C19.3306 2.18868 18.8139 2.09012 18.2518 2.04419C17.7014 1.99922 17.0236 2 16.2 2V4ZM22 7.8C22 6.97642 22.0008 6.2986 21.9558 5.74817C21.9099 5.18608 21.8113 4.66937 21.564 4.18404L19.782 5.09202C19.8617 5.24842 19.9266 5.47262 19.9624 5.91104C19.9992 6.36113 20 6.94342 20 7.8H22ZM18.908 4.21799C19.2843 4.40973 19.5903 4.71569 19.782 5.09202L21.564 4.18404C21.1805 3.43139 20.5686 2.81947 19.816 2.43597L18.908 4.21799ZM7.8 2C6.97642 2 6.2986 1.99922 5.74817 2.04419C5.18608 2.09012 4.66937 2.18868 4.18404 2.43597L5.09202 4.21799C5.24842 4.1383 5.47262 4.07337 5.91104 4.03755C6.36113 4.00078 6.94342 4 7.8 4V2ZM4 7.8C4 6.94342 4.00078 6.36113 4.03755 5.91104C4.07337 5.47262 4.1383 5.24842 4.21799 5.09202L2.43597 4.18404C2.18868 4.66937 2.09012 5.18608 2.04419 5.74817C1.99922 6.2986 2 6.97642 2 7.8H4ZM4.18404 2.43597C3.43139 2.81947 2.81947 3.43139 2.43597 4.18404L4.21799 5.09202C4.40973 4.71569 4.71569 4.40973 5.09202 4.21799L4.18404 2.43597ZM9 9.5H15V7.5H9V9.5ZM9 13.5H15V11.5H9V13.5Z" fill="#0B0D12"/>
</svg>
