<svg width="24" height="24" viewBox="0 0 24 24" fill="none" xmlns="http://www.w3.org/2000/svg">
<path d="M3 4.99998C3 3.89541 3.89543 2.99998 5 2.99998H8C9.10457 2.99998 10 3.89541 10 4.99998V7.99998C10 9.10455 9.10457 9.99998 8 9.99998H5C3.89543 9.99998 3 9.10455 3 7.99998V4.99998Z" stroke="#0B0D12" stroke-width="2" stroke-linecap="round" stroke-linejoin="round"/>
<path d="M3 16C3 14.8954 3.89543 14 5 14H8C9.10457 14 10 14.8954 10 16V19C10 20.1046 9.10457 21 8 21H5C3.89543 21 3 20.1046 3 19V16Z" stroke="#0B0D12" stroke-width="2" stroke-linecap="round" stroke-linejoin="round"/>
<path d="M14 16C14 14.8954 14.8954 14 16 14H19C20.1046 14 21 14.8954 21 16V19C21 20.1046 20.1046 21 19 21H16C14.8954 21 14 20.1046 14 19V16Z" stroke="#0B0D12" stroke-width="2" stroke-linecap="round" stroke-linejoin="round"/>
<path d="M13.9645 7.9142C13.1834 7.13315 13.1834 5.86682 13.9645 5.08577L16.0858 2.96445C16.8668 2.1834 18.1332 2.1834 18.9142 2.96445L21.0355 5.08577C21.8166 5.86682 21.8166 7.13315 21.0355 7.9142L18.9142 10.0355C18.1332 10.8166 16.8668 10.8166 16.0858 10.0355L13.9645 7.9142Z" stroke="#0B0D12" stroke-width="2" stroke-linecap="round" stroke-linejoin="round"/>
</svg>
