<svg width="24" height="24" viewBox="0 0 24 24" fill="none" xmlns="http://www.w3.org/2000/svg">
<path d="M5.22063 13.7507C5.08297 13.2159 4.53779 12.8939 4.00294 13.0316C3.46809 13.1692 3.1461 13.7144 3.28376 14.2493L5.22063 13.7507ZM18.7797 10.2493C18.9174 10.7841 19.4625 11.1061 19.9974 10.9684C20.5322 10.8308 20.8542 10.2856 20.7166 9.75074L18.7797 10.2493ZM19 16H20C20 15.4477 19.5523 15 19 15V16ZM18 21C18 21.5523 18.4477 22 19 22C19.5523 22 20 21.5523 20 21H18ZM5 8H4C4 8.55228 4.44771 9 5 9V8ZM6 3C6 2.44772 5.55228 2 5 2C4.44771 2 4 2.44772 4 3H6ZM14 15C13.4477 15 13 15.4477 13 16C13 16.5523 13.4477 17 14 17V15ZM10 9C10.5523 9 11 8.55228 11 8C11 7.44772 10.5523 7 10 7V9ZM3.28376 14.2493C4.2828 18.1308 7.80515 21 12.0002 21V19C8.73981 19 5.99776 16.7701 5.22063 13.7507L3.28376 14.2493ZM20.7166 9.75074C19.7175 5.8692 16.1952 3 12.0002 3V5C15.2605 5 18.0026 7.2299 18.7797 10.2493L20.7166 9.75074ZM18 16V21H20V16H18ZM6 8V3H4V8H6ZM19 15H18.9299V17H19V15ZM18.9299 15H14V17H18.9299V15ZM12.0002 21C15.3327 21 18.2409 19.1882 19.7955 16.5007L18.0643 15.4993C16.8525 17.5942 14.5899 19 12.0002 19V21ZM5 9H5.07042V7H5V9ZM5.07042 9H10V7H5.07042V9ZM12.0002 3C8.66763 3 5.75945 4.81178 4.20481 7.49927L5.93603 8.50073C7.14787 6.40581 9.41043 5 12.0002 5V3Z" fill="#0B0D12"/>
</svg>
