<svg width="24" height="24" viewBox="0 0 24 24" fill="none" xmlns="http://www.w3.org/2000/svg">
<path d="M20.7164 14.2493C20.8541 13.7144 20.5321 13.1692 19.9973 13.0316C19.4624 12.8939 18.9172 13.2159 18.7796 13.7507L20.7164 14.2493ZM3.28364 9.75074C3.14598 10.2856 3.46796 10.8308 4.00282 10.9684C4.53767 11.1061 5.08285 10.7841 5.22051 10.2493L3.28364 9.75074ZM5.0002 16V15C4.44792 15 4.0002 15.4477 4.0002 16H5.0002ZM4.0002 21C4.0002 21.5523 4.44792 22 5.0002 22C5.55249 22 6.0002 21.5523 6.0002 21H4.0002ZM19.0002 8V9C19.5525 9 20.0002 8.55228 20.0002 8H19.0002ZM20.0002 3C20.0002 2.44772 19.5525 2 19.0002 2C18.4479 2 18.0002 2.44772 18.0002 3H20.0002ZM10.0002 17C10.5525 17 11.0002 16.5523 11.0002 16C11.0002 15.4477 10.5525 15 10.0002 15V17ZM14.0002 7C13.4479 7 13.0002 7.44772 13.0002 8C13.0002 8.55228 13.4479 9 14.0002 9V7ZM18.7796 13.7507C18.0024 16.7701 15.2604 19 12 19V21C16.1951 21 19.7174 18.1308 20.7164 14.2493L18.7796 13.7507ZM5.22051 10.2493C5.99764 7.2299 8.73969 5 12 5V3C7.80503 3 4.28268 5.8692 3.28364 9.75074L5.22051 10.2493ZM4.0002 16V21H6.0002V16H4.0002ZM20.0002 8V3H18.0002V8H20.0002ZM5.0002 17H5.0703V15H5.0002V17ZM5.0703 17H10.0002V15H5.0703V17ZM12 19C9.41031 19 7.14775 17.5942 5.9359 15.4993L4.20469 16.5007C5.75932 19.1882 8.66751 21 12 21V19ZM19.0002 7H18.9298V9H19.0002V7ZM18.9298 7H14.0002V9H18.9298V7ZM12 5C14.5898 5 16.8523 6.40581 18.0642 8.50073L19.7954 7.49927C18.2408 4.81178 15.3326 3 12 3V5Z" fill="#0B0D12"/>
</svg>
