<svg width="24" height="24" viewBox="0 0 24 24" fill="none" xmlns="http://www.w3.org/2000/svg">
<path d="M20.7165 14.2493C20.8541 13.7144 20.5322 13.1692 19.9973 13.0316C19.4625 12.8939 18.9173 13.2159 18.7796 13.7507L20.7165 14.2493ZM3.28368 9.75074C3.14602 10.2856 3.46801 10.8308 4.00286 10.9684C4.53771 11.1061 5.08289 10.7841 5.22055 10.2493L3.28368 9.75074ZM8.52713 4.79111L8.9618 5.69171V5.69171L8.52713 4.79111ZM9.23851 4.48944L9.58371 5.42797L9.23851 4.48944ZM19.0002 8V9C19.5525 9 20.0002 8.55228 20.0002 8H19.0002ZM20.0002 3C20.0002 2.44772 19.5525 2 19.0002 2C18.448 2 18.0002 2.44772 18.0002 3H20.0002ZM8.87091 19.3649L9.26238 18.4447L9.26237 18.4447L8.87091 19.3649ZM8.28313 19.0859L8.74841 18.2008L8.7484 18.2008L8.28313 19.0859ZM5.93595 15.4993C5.6594 15.0212 5.04767 14.8579 4.56961 15.1344C4.09155 15.4109 3.92819 16.0227 4.20473 16.5007L5.93595 15.4993ZM14.0002 7C13.448 7 13.0002 7.44772 13.0002 8C13.0002 8.55228 13.448 9 14.0002 9V7ZM18.7796 13.7507C18.0025 16.7701 15.2604 19 12.0001 19V21C16.1951 21 19.7174 18.1308 20.7165 14.2493L18.7796 13.7507ZM5.22055 10.2493C5.73762 8.24031 7.12676 6.57737 8.9618 5.69171L8.09247 3.89052C5.7356 5.02805 3.94982 7.16261 3.28368 9.75074L5.22055 10.2493ZM8.9618 5.69171C9.16393 5.59415 9.37142 5.50605 9.58371 5.42797L8.89331 3.55091C8.61984 3.65149 8.35265 3.76495 8.09247 3.89052L8.9618 5.69171ZM9.58371 5.42797C10.3355 5.15144 11.149 5 12.0001 5V3C10.91 3 9.86298 3.19426 8.89331 3.55091L9.58371 5.42797ZM20.0002 8V3H18.0002V8H20.0002ZM12.0001 19C11.0266 19 10.102 18.8019 9.26238 18.4447L8.47945 20.2851C9.56215 20.7457 10.7527 21 12.0001 21V19ZM9.26237 18.4447C9.08732 18.3702 8.91588 18.2888 8.74841 18.2008L7.81785 19.9711C8.03334 20.0844 8.25402 20.1892 8.47945 20.2851L9.26237 18.4447ZM8.74841 18.2008C7.57549 17.5842 6.59813 16.644 5.93595 15.4993L4.20473 16.5007C5.05546 17.9714 6.31007 19.1785 7.81786 19.9711L8.74841 18.2008ZM19.0002 7H18.9298V9H19.0002V7ZM18.9298 7H14.0002V9H18.9298V7ZM12.0001 5C14.5898 5 16.8524 6.40581 18.0642 8.50073L19.7954 7.49927C18.2408 4.81178 15.3326 3 12.0001 3V5ZM8.7484 18.2008C6.51771 17.0282 5 14.6905 5 12H3C3 15.4625 4.95562 18.4666 7.81786 19.9711L8.7484 18.2008ZM5 12C5 9.22441 6.6154 6.82416 8.96179 5.69171L8.09247 3.89052C5.0811 5.34392 3 8.42795 3 12H5Z" fill="#0B0D12"/>
</svg>
