<svg width="24" height="24" viewBox="0 0 24 24" fill="none" xmlns="http://www.w3.org/2000/svg">
<path d="M19.0511 16.1118L18.0852 15.853L19.0511 16.1118ZM21 16C21.5523 16 22 15.5523 22 15C22 14.4477 21.5523 14 21 14V16ZM20.1118 15.0511L19.853 14.0852H19.853L20.1118 15.0511ZM16.1118 19.0511L15.853 18.0852L16.1118 19.0511ZM14 21C14 21.5523 14.4477 22 15 22C15.5523 22 16 21.5523 16 21H14ZM15.0511 20.1118L14.0852 19.853V19.853L15.0511 20.1118ZM4.94889 7.88823L3.98296 7.62941L4.94889 7.88823ZM3 8C2.44772 8 2 8.44772 2 9C2 9.55228 2.44772 10 3 10V8ZM3.88823 8.94889L4.14705 9.91481H4.14705L3.88823 8.94889ZM7.88823 4.94889L7.62941 3.98296L7.88823 4.94889ZM10 3C10 2.44772 9.55228 2 9 2C8.44772 2 8 2.44772 8 3H10ZM8.94889 3.88823L9.91481 4.14705V4.14705L8.94889 3.88823ZM16.1118 4.94889L15.853 5.91481L16.1118 4.94889ZM16 3C16 2.44772 15.5523 2 15 2C14.4477 2 14 2.44772 14 3H16ZM15.0511 3.88823L16.017 3.62941V3.62941L15.0511 3.88823ZM19.0511 7.88823L20.017 7.62941V7.62941L19.0511 7.88823ZM21 10C21.5523 10 22 9.55228 22 9C22 8.44772 21.5523 8 21 8V10ZM20.1118 8.94889L19.853 9.91481L19.853 9.91481L20.1118 8.94889ZM7.88823 19.0511L7.62941 20.017H7.62941L7.88823 19.0511ZM8 21C8 21.5523 8.44772 22 9 22C9.55228 22 10 21.5523 10 21H8ZM8.94889 20.1118L9.91481 19.853L9.91481 19.853L8.94889 20.1118ZM5.05111 17.8882L4.08519 18.147H4.08519L5.05111 17.8882ZM6.11177 18.9489L6.37059 17.983H6.37059L6.11177 18.9489ZM17.8882 18.9489L18.147 19.9148L17.8882 18.9489ZM18.9489 17.8882L19.9148 18.147L18.9489 17.8882ZM4.94889 16.1118L5.91481 15.853L4.94889 16.1118ZM3 14C2.44772 14 2 14.4477 2 15C2 15.5523 2.44772 16 3 16V14ZM3.88823 15.0511L3.62941 16.017H3.62941L3.88823 15.0511ZM18.9489 6.11177L17.983 6.37059V6.37059L18.9489 6.11177ZM17.8882 5.05111L18.147 4.08519V4.08519L17.8882 5.05111ZM6.11177 5.05111L5.85295 4.08519L5.85295 4.08519L6.11177 5.05111ZM5.05111 6.11177L4.08519 5.85295L4.08519 5.85295L5.05111 6.11177ZM19 11C18.4477 11 18 11.4477 18 12C18 12.5523 18.4477 13 19 13V11ZM21 13C21.5523 13 22 12.5523 22 12C22 11.4477 21.5523 11 21 11V13ZM13 19C13 18.4477 12.5523 18 12 18C11.4477 18 11 18.4477 11 19H13ZM11 21C11 21.5523 11.4477 22 12 22C12.5523 22 13 21.5523 13 21H11ZM3 11C2.44772 11 2 11.4477 2 12C2 12.5523 2.44772 13 3 13V11ZM5 13C5.55228 13 6 12.5523 6 12C6 11.4477 5.55228 11 5 11V13ZM13 3C13 2.44772 12.5523 2 12 2C11.4477 2 11 2.44772 11 3H13ZM11 5C11 5.55228 11.4477 6 12 6C12.5523 6 13 5.55228 13 5H11ZM12 8L12.8363 7.45174C12.6515 7.16983 12.3371 7 12 7C11.6629 7 11.3485 7.16983 11.1637 7.45174L12 8ZM13.5839 10.4161L12.7476 10.9643C12.8228 11.0791 12.9209 11.1772 13.0357 11.2524L13.5839 10.4161ZM16 12L16.5483 12.8363C16.8302 12.6515 17 12.3371 17 12C17 11.6629 16.8302 11.3485 16.5483 11.1637L16 12ZM13.5839 13.5839L13.0357 12.7476C12.9209 12.8228 12.8228 12.9209 12.7476 13.0357L13.5839 13.5839ZM12 16L11.1637 16.5483C11.3485 16.8302 11.6629 17 12 17C12.3371 17 12.6515 16.8302 12.8363 16.5483L12 16ZM10.4161 13.5839L11.2524 13.0357C11.1772 12.9209 11.0791 12.8228 10.9643 12.7476L10.4161 13.5839ZM8 12L7.45174 11.1637C7.16983 11.3485 7 11.6629 7 12C7 12.3371 7.16983 12.6515 7.45174 12.8363L8 12ZM10.4161 10.4161L10.9643 11.2524C11.0791 11.1772 11.1772 11.0791 11.2524 10.9643L10.4161 10.4161ZM20 17C20 16.7584 20.0002 16.6106 20.0054 16.4986C20.0102 16.392 20.018 16.3669 20.017 16.3706L18.0852 15.853C17.9914 16.2029 18 16.5994 18 17H20ZM21 14C20.5994 14 20.2029 13.9914 19.853 14.0852L20.3706 16.017C20.3669 16.018 20.392 16.0102 20.4986 16.0054C20.6106 16.0002 20.7584 16 21 16V14ZM20.017 16.3706C20.0633 16.198 20.198 16.0633 20.3706 16.017L19.853 14.0852C18.9902 14.3164 18.3164 14.9902 18.0852 15.853L20.017 16.3706ZM17 18C16.5994 18 16.2029 17.9914 15.853 18.0852L16.3706 20.017C16.3669 20.018 16.392 20.0102 16.4986 20.0054C16.6106 20.0002 16.7584 20 17 20V18ZM16 21C16 20.7584 16.0002 20.6106 16.0054 20.4986C16.0102 20.392 16.018 20.3669 16.017 20.3706L14.0852 19.853C13.9914 20.2029 14 20.5994 14 21H16ZM15.853 18.0852C14.9902 18.3164 14.3164 18.9902 14.0852 19.853L16.017 20.3706C16.0633 20.198 16.198 20.0633 16.3706 20.017L15.853 18.0852ZM4 7C4 7.24156 3.99976 7.38937 3.99465 7.50139C3.98979 7.60805 3.98196 7.63315 3.98296 7.62941L5.91481 8.14705C6.00859 7.79708 6 7.4006 6 7H4ZM3 10C3.4006 10 3.79708 10.0086 4.14705 9.91481L3.62941 7.98296C3.63315 7.98196 3.60805 7.98979 3.50139 7.99465C3.38937 7.99976 3.24156 8 3 8V10ZM3.98296 7.62941C3.93673 7.80196 3.80196 7.93673 3.62941 7.98296L4.14705 9.91481C5.00978 9.68365 5.68365 9.00978 5.91481 8.14705L3.98296 7.62941ZM7 6C7.4006 6 7.79708 6.00859 8.14705 5.91481L7.62941 3.98296C7.63315 3.98196 7.60805 3.98979 7.50139 3.99465C7.38937 3.99976 7.24156 4 7 4V6ZM8 3C8 3.24156 7.99976 3.38937 7.99465 3.50139C7.98979 3.60805 7.98196 3.63315 7.98296 3.62941L9.91481 4.14705C10.0086 3.79708 10 3.4006 10 3H8ZM8.14705 5.91481C9.00978 5.68365 9.68365 5.00978 9.91481 4.14705L7.98296 3.62941C7.93673 3.80196 7.80196 3.93673 7.62941 3.98296L8.14705 5.91481ZM17 4C16.7584 4 16.6106 3.99976 16.4986 3.99465C16.392 3.98979 16.3669 3.98196 16.3706 3.98296L15.853 5.91481C16.2029 6.00859 16.5994 6 17 6V4ZM14 3C14 3.4006 13.9914 3.79708 14.0852 4.14705L16.017 3.62941C16.018 3.63315 16.0102 3.60805 16.0054 3.50139C16.0002 3.38937 16 3.24156 16 3H14ZM16.3706 3.98296C16.198 3.93673 16.0633 3.80196 16.017 3.62941L14.0852 4.14705C14.3164 5.00978 14.9902 5.68365 15.853 5.91481L16.3706 3.98296ZM18 7C18 7.4006 17.9914 7.79708 18.0852 8.14705L20.017 7.62941C20.018 7.63315 20.0102 7.60805 20.0054 7.50139C20.0002 7.38937 20 7.24156 20 7H18ZM21 8C20.7584 8 20.6106 7.99976 20.4986 7.99465C20.392 7.98979 20.3669 7.98196 20.3706 7.98296L19.853 9.91481C20.2029 10.0086 20.5994 10 21 10V8ZM18.0852 8.14705C18.3164 9.00978 18.9902 9.68365 19.853 9.91481L20.3706 7.98296C20.198 7.93673 20.0633 7.80196 20.017 7.62941L18.0852 8.14705ZM7 20C7.24156 20 7.38937 20.0002 7.50139 20.0054C7.60805 20.0102 7.63315 20.018 7.62941 20.017L8.14705 18.0852C7.79708 17.9914 7.4006 18 7 18V20ZM10 21C10 20.5994 10.0086 20.2029 9.91481 19.853L7.98296 20.3706C7.98196 20.3669 7.98979 20.392 7.99465 20.4986C7.99976 20.6106 8 20.7584 8 21H10ZM7.62941 20.017C7.80196 20.0633 7.93673 20.198 7.98296 20.3706L9.91481 19.853C9.68365 18.9902 9.00978 18.3164 8.14705 18.0852L7.62941 20.017ZM4 17C4 17.4006 3.99141 17.7971 4.08519 18.147L6.01704 17.6294C6.01804 17.6331 6.01021 17.608 6.00535 17.5014C6.00024 17.3894 6 17.2416 6 17H4ZM7 18C6.75844 18 6.61063 17.9998 6.49861 17.9946C6.39195 17.9898 6.36685 17.982 6.37059 17.983L5.85295 19.9148C6.20292 20.0086 6.5994 20 7 20V18ZM4.08519 18.147C4.31635 19.0098 4.99022 19.6836 5.85295 19.9148L6.37059 17.983C6.19804 17.9367 6.06327 17.802 6.01704 17.6294L4.08519 18.147ZM17 20C17.4006 20 17.7971 20.0086 18.147 19.9148L17.6294 17.983C17.6331 17.982 17.608 17.9898 17.5014 17.9946C17.3894 17.9998 17.2416 18 17 18V20ZM18 17C18 17.2416 17.9998 17.3894 17.9946 17.5014C17.9898 17.608 17.982 17.6331 17.983 17.6294L19.9148 18.147C20.0086 17.7971 20 17.4006 20 17H18ZM18.147 19.9148C19.0098 19.6836 19.6836 19.0098 19.9148 18.147L17.983 17.6294C17.9367 17.802 17.802 17.9367 17.6294 17.983L18.147 19.9148ZM6 17C6 16.5994 6.00859 16.2029 5.91481 15.853L3.98296 16.3706C3.98196 16.3669 3.98979 16.392 3.99465 16.4986C3.99976 16.6106 4 16.7584 4 17H6ZM3 16C3.24156 16 3.38937 16.0002 3.50139 16.0054C3.60805 16.0102 3.63315 16.018 3.62941 16.017L4.14705 14.0852C3.79708 13.9914 3.4006 14 3 14V16ZM5.91481 15.853C5.68365 14.9902 5.00978 14.3164 4.14705 14.0852L3.62941 16.017C3.80196 16.0633 3.93673 16.198 3.98296 16.3706L5.91481 15.853ZM20 7C20 6.5994 20.0086 6.20292 19.9148 5.85295L17.983 6.37059C17.982 6.36685 17.9898 6.39195 17.9946 6.49861C17.9998 6.61063 18 6.75844 18 7H20ZM17 6C17.2416 6 17.3894 6.00024 17.5014 6.00535C17.608 6.01021 17.6331 6.01804 17.6294 6.01704L18.147 4.08519C17.7971 3.99141 17.4006 4 17 4V6ZM19.9148 5.85295C19.6836 4.99022 19.0098 4.31635 18.147 4.08519L17.6294 6.01704C17.802 6.06327 17.9367 6.19804 17.983 6.37059L19.9148 5.85295ZM7 4C6.5994 4 6.20292 3.99141 5.85295 4.08519L6.37059 6.01704C6.36685 6.01804 6.39195 6.01021 6.49861 6.00535C6.61063 6.00024 6.75844 6 7 6V4ZM6 7C6 6.75844 6.00024 6.61063 6.00535 6.49861C6.01021 6.39195 6.01804 6.36685 6.01704 6.37059L4.08519 5.85295C3.99141 6.20292 4 6.5994 4 7H6ZM5.85295 4.08519C4.99022 4.31635 4.31635 4.99022 4.08519 5.85295L6.01704 6.37059C6.06327 6.19804 6.19804 6.06327 6.37059 6.01704L5.85295 4.08519ZM19 13H21V11H19V13ZM11 19V21H13V19H11ZM3 13H5V11H3V13ZM11 3V5H13V3H11ZM11.1637 8.54826L12.7476 10.9643L14.4202 9.86782L12.8363 7.45174L11.1637 8.54826ZM13.0357 11.2524L15.4517 12.8363L16.5483 11.1637L14.1322 9.57977L13.0357 11.2524ZM15.4517 11.1637L13.0357 12.7476L14.1322 14.4202L16.5483 12.8363L15.4517 11.1637ZM12.7476 13.0357L11.1637 15.4517L12.8363 16.5483L14.4202 14.1322L12.7476 13.0357ZM12.8363 15.4517L11.2524 13.0357L9.57977 14.1322L11.1637 16.5483L12.8363 15.4517ZM10.9643 12.7476L8.54826 11.1637L7.45174 12.8363L9.86782 14.4202L10.9643 12.7476ZM8.54826 12.8363L10.9643 11.2524L9.86782 9.57977L7.45174 11.1637L8.54826 12.8363ZM11.2524 10.9643L12.8363 8.54826L11.1637 7.45174L9.57977 9.86782L11.2524 10.9643Z" fill="#0B0D12"/>
</svg>
