<svg width="24" height="24" viewBox="0 0 24 24" fill="none" xmlns="http://www.w3.org/2000/svg">
<path d="M22 12C22 11.4477 21.5523 11 21 11C20.4477 11 20 11.4477 20 12H22ZM12 4C12.5523 4 13 3.55228 13 3C13 2.44772 12.5523 2 12 2V4ZM5.18404 20.564L5.63803 19.673H5.63803L5.18404 20.564ZM3.43597 18.816L4.32698 18.362L4.32698 18.362L3.43597 18.816ZM18.816 20.564L18.362 19.673H18.362L18.816 20.564ZM20.564 18.816L19.673 18.362V18.362L20.564 18.816ZM3.43597 5.18404L2.54497 4.73005L2.54497 4.73005L3.43597 5.18404ZM5.18404 3.43597L4.73005 2.54497L4.73005 2.54497L5.18404 3.43597ZM16.3627 4.89836L15.9057 4.0089L16.3627 4.89836ZM16.676 4.70972L15.995 3.97745L16.676 4.70972ZM16.8984 4.36274L16.0089 3.90573L16.8984 4.36274ZM16.7097 4.67601L15.9774 3.99499L16.7097 4.67601ZM16.3627 7.10164L15.9057 7.9911L16.3627 7.10164ZM15.0054 6.08386L15.9972 5.95634L15.0054 6.08386ZM15.0054 5.91614L15.9972 6.04366L15.0054 5.91614ZM16.8984 7.63726L16.0089 8.09427L16.8984 7.63726ZM16.7097 7.32399L15.9774 8.00501L16.7097 7.32399ZM16.676 7.29028L15.995 8.02255L16.676 7.29028ZM19.1016 7.63726L18.2122 7.18025L19.1016 7.63726ZM18.0839 8.99463L17.9563 8.0028L18.0839 8.99463ZM17.9161 8.99463L17.7886 9.98647L17.9161 8.99463ZM19.6373 7.10164L20.0943 7.9911L19.6373 7.10164ZM19.324 7.29028L20.005 8.02255L19.324 7.29028ZM19.2903 7.32399L20.0226 8.00501L19.2903 7.32399ZM19.6373 4.89836L20.0943 4.0089L19.6373 4.89836ZM20.9946 5.91614L21.9865 5.78863L20.9946 5.91614ZM20.9946 6.08386L20.0028 5.95634L20.9946 6.08386ZM19.1016 4.36274L19.9911 3.90573V3.90573L19.1016 4.36274ZM19.2903 4.67601L20.0226 3.99499L19.2903 4.67601ZM19.324 4.70972L20.005 3.97745V3.97745L19.324 4.70972ZM18.0839 3.00537L17.9563 3.99721L18.0839 3.00537ZM17.9161 3.00537L18.0437 3.99721L17.9161 3.00537ZM6.50496 16.9005C6.45001 17.45 6.85095 17.9401 7.4005 17.995C7.95004 18.05 8.44008 17.649 8.49504 17.0995L6.50496 16.9005ZM8.35074 8.49256L7.35571 8.39305L8.35074 8.49256ZM11.6493 8.49256L12.6443 8.39305V8.39305L11.6493 8.49256ZM11.505 17.0995C11.5599 17.649 12.05 18.05 12.5995 17.995C13.149 17.9401 13.55 17.45 13.495 16.9005L11.505 17.0995ZM15.5 17C15.5 17.5523 15.9477 18 16.5 18C17.0523 18 17.5 17.5523 17.5 17H15.5ZM17.5 12C17.5 11.4477 17.0523 11 16.5 11C15.9477 11 15.5 11.4477 15.5 12H17.5ZM14.6 20H9.4V22H14.6V20ZM4 14.6V9.4H2V14.6H4ZM20 12V14.6H22V12H20ZM9.4 4H12V2H9.4V4ZM9.4 20C8.26339 20 7.47108 19.9992 6.85424 19.9488C6.24907 19.8994 5.90138 19.8072 5.63803 19.673L4.73005 21.455C5.32234 21.7568 5.96253 21.8826 6.69138 21.9422C7.40855 22.0008 8.2964 22 9.4 22V20ZM2 14.6C2 15.7036 1.99922 16.5914 2.05782 17.3086C2.11737 18.0375 2.24318 18.6777 2.54497 19.27L4.32698 18.362C4.19279 18.0986 4.10062 17.7509 4.05118 17.1458C4.00078 16.5289 4 15.7366 4 14.6H2ZM5.63803 19.673C5.07354 19.3854 4.6146 18.9265 4.32698 18.362L2.54497 19.27C3.02433 20.2108 3.78924 20.9757 4.73005 21.455L5.63803 19.673ZM14.6 22C15.7036 22 16.5914 22.0008 17.3086 21.9422C18.0375 21.8826 18.6777 21.7568 19.27 21.455L18.362 19.673C18.0986 19.8072 17.7509 19.8994 17.1458 19.9488C16.5289 19.9992 15.7366 20 14.6 20V22ZM20 14.6C20 15.7366 19.9992 16.5289 19.9488 17.1458C19.8994 17.7509 19.8072 18.0986 19.673 18.362L21.455 19.27C21.7568 18.6777 21.8826 18.0375 21.9422 17.3086C22.0008 16.5914 22 15.7036 22 14.6H20ZM19.27 21.455C20.2108 20.9757 20.9757 20.2108 21.455 19.27L19.673 18.362C19.3854 18.9265 18.9265 19.3854 18.362 19.673L19.27 21.455ZM4 9.4C4 8.26339 4.00078 7.47108 4.05118 6.85424C4.10062 6.24907 4.19279 5.90138 4.32698 5.63803L2.54497 4.73005C2.24318 5.32234 2.11737 5.96253 2.05782 6.69138C1.99922 7.40855 2 8.2964 2 9.4H4ZM9.4 2C8.2964 2 7.40855 1.99922 6.69138 2.05782C5.96253 2.11737 5.32234 2.24318 4.73005 2.54497L5.63803 4.32698C5.90138 4.19279 6.24907 4.10062 6.85424 4.05118C7.47108 4.00078 8.26339 4 9.4 4V2ZM4.32698 5.63803C4.6146 5.07354 5.07354 4.6146 5.63803 4.32698L4.73005 2.54497C3.78924 3.02433 3.02433 3.78924 2.54497 4.73005L4.32698 5.63803ZM16.8197 5.78782C16.9358 5.7282 17.1661 5.61958 17.357 5.44198L15.995 3.97745C16.013 3.96066 16.0296 3.94769 16.0421 3.93882C16.0534 3.93078 16.0584 3.92815 16.0519 3.93194C16.0449 3.93606 16.0312 3.94368 16.0053 3.95739C15.9791 3.97121 15.9482 3.98707 15.9057 4.0089L16.8197 5.78782ZM16.0089 3.90573C15.9871 3.94821 15.9712 3.97906 15.9574 4.00526C15.9437 4.03125 15.9361 4.04488 15.9319 4.05195C15.9281 4.05843 15.9308 4.05338 15.9388 4.04209C15.9477 4.02963 15.9607 4.01305 15.9774 3.99499L17.442 5.35702C17.6196 5.16606 17.7282 4.93578 17.7878 4.81975L16.0089 3.90573ZM17.357 5.44198C17.3864 5.4147 17.4147 5.38636 17.442 5.35702L15.9774 3.99499C15.9831 3.98894 15.9889 3.98309 15.995 3.97745L17.357 5.44198ZM16.8197 6.21218C16.3555 5.97363 16.0987 5.83936 15.9415 5.73048C15.7765 5.61627 15.9629 5.68985 15.9972 5.95634L14.0135 6.21137C14.0919 6.82088 14.5193 7.17844 14.8031 7.3749C15.0946 7.5767 15.4945 7.77981 15.9057 7.9911L16.8197 6.21218ZM15.9057 4.0089C15.4945 4.22019 15.0946 4.4233 14.8031 4.6251C14.5193 4.82156 14.0919 5.17912 14.0135 5.78863L15.9972 6.04366C15.9629 6.31015 15.7765 6.38373 15.9415 6.26952C16.0987 6.16064 16.3555 6.02637 16.8197 5.78782L15.9057 4.0089ZM15.9972 5.95634C16.0009 5.98533 16.0009 6.01467 15.9972 6.04366L14.0135 5.78863C13.9955 5.92897 13.9955 6.07103 14.0135 6.21137L15.9972 5.95634ZM17.7878 7.18025C17.7282 7.06422 17.6196 6.83394 17.442 6.64298L15.9774 8.00501C15.9607 7.98695 15.9477 7.97037 15.9388 7.95791C15.9308 7.94662 15.9281 7.94156 15.9319 7.94805C15.9361 7.95512 15.9437 7.96875 15.9574 7.99474C15.9712 8.02094 15.9871 8.05179 16.0089 8.09427L17.7878 7.18025ZM15.9057 7.9911C15.9482 8.01293 15.9791 8.02879 16.0053 8.04261C16.0312 8.05631 16.0449 8.06393 16.0519 8.06806C16.0584 8.07185 16.0534 8.06922 16.0421 8.06118C16.0296 8.05231 16.013 8.03934 15.995 8.02255L17.357 6.55802C17.1661 6.38042 16.9358 6.2718 16.8197 6.21218L15.9057 7.9911ZM17.442 6.64298C17.4147 6.61362 17.3863 6.58528 17.357 6.55802L15.995 8.02255C15.989 8.01694 15.9831 8.01109 15.9774 8.00501L17.442 6.64298ZM18.2122 7.18025C17.9736 7.64453 17.8394 7.90127 17.7305 8.05854C17.6163 8.22353 17.6899 8.03706 17.9563 8.0028L18.2114 9.98647C18.8209 9.90811 19.1784 9.48071 19.3749 9.19691C19.5767 8.9054 19.7798 8.5055 19.9911 8.09427L18.2122 7.18025ZM16.0089 8.09427C16.2202 8.5055 16.4233 8.9054 16.6251 9.19691C16.8216 9.48071 17.1791 9.90811 17.7886 9.98647L18.0437 8.0028C18.3101 8.03706 18.3837 8.22353 18.2695 8.05854C18.1606 7.90127 18.0264 7.64453 17.7878 7.18025L16.0089 8.09427ZM17.9563 8.0028C17.9853 7.99907 18.0147 7.99907 18.0437 8.0028L17.7886 9.98647C17.929 10.0045 18.071 10.0045 18.2114 9.98647L17.9563 8.0028ZM19.1803 6.21218C19.0642 6.2718 18.8339 6.38042 18.643 6.55802L20.005 8.02255C19.987 8.03934 19.9704 8.05231 19.9579 8.06118C19.9466 8.06922 19.9416 8.07185 19.9481 8.06806C19.9551 8.06394 19.9688 8.05631 19.9947 8.04261C20.0209 8.02879 20.0518 8.01293 20.0943 7.9911L19.1803 6.21218ZM19.9911 8.09427C20.0129 8.05179 20.0288 8.02094 20.0426 7.99474C20.0563 7.96875 20.0639 7.95512 20.0681 7.94805C20.0719 7.94156 20.0692 7.94662 20.0612 7.95791C20.0523 7.97037 20.0393 7.98695 20.0226 8.00501L18.558 6.64298C18.3804 6.83394 18.2718 7.06422 18.2122 7.18025L19.9911 8.09427ZM18.643 6.55802C18.6136 6.58532 18.5853 6.61366 18.558 6.64298L20.0226 8.00501C20.0169 8.01104 20.0111 8.0169 20.005 8.02255L18.643 6.55802ZM19.1803 5.78782C19.6445 6.02637 19.9013 6.16064 20.0585 6.26952C20.2235 6.38373 20.0371 6.31015 20.0028 6.04366L21.9865 5.78863C21.9081 5.17912 21.4807 4.82156 21.1969 4.6251C20.9054 4.4233 20.5055 4.22019 20.0943 4.0089L19.1803 5.78782ZM20.0943 7.9911C20.5055 7.77981 20.9054 7.5767 21.1969 7.3749C21.4807 7.17844 21.9081 6.82088 21.9865 6.21137L20.0028 5.95634C20.0371 5.68985 20.2235 5.61627 20.0585 5.73048C19.9013 5.83936 19.6445 5.97363 19.1803 6.21218L20.0943 7.9911ZM20.0028 6.04366C19.9991 6.01467 19.9991 5.98533 20.0028 5.95634L21.9865 6.21137C22.0045 6.07103 22.0045 5.92897 21.9865 5.78863L20.0028 6.04366ZM18.2122 4.81975C18.2718 4.93578 18.3804 5.16606 18.558 5.35702L20.0226 3.99499C20.0393 4.01305 20.0523 4.02963 20.0612 4.04209C20.0692 4.05337 20.0719 4.05843 20.0681 4.05195C20.0639 4.04488 20.0563 4.03125 20.0426 4.00526C20.0288 3.97906 20.0129 3.94821 19.9911 3.90573L18.2122 4.81975ZM20.0943 4.0089C20.0518 3.98707 20.0209 3.97121 19.9947 3.95739C19.9688 3.94368 19.9551 3.93606 19.948 3.93194C19.9416 3.92815 19.9466 3.93078 19.9579 3.93882C19.9704 3.94769 19.987 3.96066 20.005 3.97745L18.643 5.44198C18.8339 5.61958 19.0642 5.7282 19.1803 5.78782L20.0943 4.0089ZM18.558 5.35702C18.5853 5.38633 18.6136 5.41467 18.643 5.44198L20.005 3.97745C20.0111 3.98311 20.0169 3.98896 20.0226 3.99499L18.558 5.35702ZM19.9911 3.90573C19.7798 3.4945 19.5767 3.0946 19.3749 2.80309C19.1784 2.51929 18.8209 2.09189 18.2114 2.01353L17.9563 3.99721C17.6899 3.96294 17.6163 3.77647 17.7305 3.94146C17.8394 4.09873 17.9736 4.35547 18.2122 4.81975L19.9911 3.90573ZM17.7878 4.81975C18.0264 4.35547 18.1606 4.09873 18.2695 3.94146C18.3837 3.77647 18.3101 3.96294 18.0437 3.99721L17.7886 2.01353C17.1791 2.09189 16.8216 2.51929 16.6251 2.80309C16.4233 3.0946 16.2202 3.4945 16.0089 3.90573L17.7878 4.81975ZM18.2114 2.01353C18.071 1.99549 17.929 1.99549 17.7886 2.01353L18.0437 3.99721C18.0147 4.00093 17.9853 4.00093 17.9563 3.99721L18.2114 2.01353ZM8.49504 17.0995L8.79504 14.0995L6.80496 13.9005L6.50496 16.9005L8.49504 17.0995ZM8.79504 14.0995L9.34578 8.59206L7.35571 8.39305L6.80496 13.9005L8.79504 14.0995ZM10.6542 8.59206L11.205 14.0995L13.195 13.9005L12.6443 8.39305L10.6542 8.59206ZM11.205 14.0995L11.505 17.0995L13.495 16.9005L13.195 13.9005L11.205 14.0995ZM7.8 15H12.2V13H7.8V15ZM10 8C10.3378 8 10.6206 8.25595 10.6542 8.59206L12.6443 8.39305C12.5084 7.03454 11.3653 6 10 6V8ZM10 6C8.63472 6 7.49156 7.03454 7.35571 8.39305L9.34578 8.59206C9.37939 8.25595 9.66222 8 10 8V6ZM17.5 17V12H15.5V17H17.5Z" fill="#0B0D12"/>
</svg>
