<svg width="24" height="24" viewBox="0 0 24 24" fill="none" xmlns="http://www.w3.org/2000/svg">
<path d="M6.68404 19.064L7.13803 18.173H7.13803L6.68404 19.064ZM4.93597 17.316L4.04497 17.77H4.04497L4.93597 17.316ZM19.064 17.316L18.173 16.862V16.862L19.064 17.316ZM17.316 19.064L16.862 18.173H16.862L17.316 19.064ZM16 4.58103L15.8863 5.57454L16 4.58103ZM17.316 4.93597L17.77 4.04497V4.04497L17.316 4.93597ZM19.064 6.68404L18.173 7.13803V7.13803L19.064 6.68404ZM8 4.58103L8.11372 5.57454L8 4.58103ZM6.68404 4.93597L6.23005 4.04497L6.68404 4.93597ZM4.93597 6.68404L5.82698 7.13803V7.13803L4.93597 6.68404ZM11 21C11 21.5523 11.4477 22 12 22C12.5523 22 13 21.5523 13 21H11ZM3 11C2.44771 11 2 11.4477 2 12C2 12.5523 2.44772 13 3 13L3 11ZM13 3C13 2.44772 12.5523 2 12 2C11.4477 2 11 2.44772 11 3H13ZM21 13C21.5523 13 22 12.5523 22 12C22 11.4477 21.5523 11 21 11V13ZM17 19.419C17 18.8667 16.5523 18.419 16 18.419C15.4477 18.419 15 18.8667 15 19.419H17ZM15 21C15 21.5523 15.4477 22 16 22C16.5523 22 17 21.5523 17 21H15ZM3 15C2.44772 15 2 15.4477 2 16C2 16.5523 2.44772 17 3 17V15ZM17 3C17 2.44772 16.5523 2 16 2C15.4477 2 15 2.44772 15 3H17ZM19.419 15C18.8667 15 18.419 15.4477 18.419 16C18.419 16.5523 18.8667 17 19.419 17V15ZM21 17C21.5523 17 22 16.5523 22 16C22 15.4477 21.5523 15 21 15V17ZM9 19.419C9 18.8667 8.55228 18.419 8 18.419C7.44772 18.419 7 18.8667 7 19.419H9ZM7 21C7 21.5523 7.44772 22 8 22C8.55228 22 9 21.5523 9 21H7ZM3 7C2.44772 7 2 7.44772 2 8C2 8.55228 2.44772 9 3 9V7ZM9 3C9 2.44772 8.55228 2 8 2C7.44772 2 7 2.44772 7 3H9ZM19.419 7C18.8667 7 18.419 7.44772 18.419 8C18.419 8.55228 18.8667 9 19.419 9V7ZM21 9C21.5523 9 22 8.55228 22 8C22 7.44772 21.5523 7 21 7V9ZM12 8L12.8363 7.45174C12.6515 7.16983 12.3371 7 12 7C11.6629 7 11.3485 7.16983 11.1637 7.45174L12 8ZM13.5839 10.4161L12.7476 10.9643C12.8228 11.0791 12.9209 11.1772 13.0357 11.2524L13.5839 10.4161ZM16 12L16.5483 12.8363C16.8302 12.6515 17 12.3371 17 12C17 11.6629 16.8302 11.3485 16.5483 11.1637L16 12ZM13.5839 13.5839L13.0357 12.7476C12.9209 12.8228 12.8228 12.9209 12.7476 13.0357L13.5839 13.5839ZM12 16L11.1637 16.5483C11.3485 16.8302 11.6629 17 12 17C12.3371 17 12.6515 16.8302 12.8363 16.5483L12 16ZM10.4161 13.5839L11.2524 13.0357C11.1772 12.9209 11.0791 12.8228 10.9643 12.7476L10.4161 13.5839ZM8 12L7.45174 11.1637C7.16983 11.3485 7 11.6629 7 12C7 12.3371 7.16983 12.6515 7.45174 12.8363L8 12ZM10.4161 10.4161L10.9643 11.2524C11.0791 11.1772 11.1772 11.0791 11.2524 10.9643L10.4161 10.4161ZM10.9 5.5H12V3.5H10.9V5.5ZM12 5.5H13.1V3.5H12V5.5ZM18.5 10.9V12H20.5V10.9H18.5ZM18.5 12V13.1H20.5V12H18.5ZM13.1 18.5H12V20.5H13.1V18.5ZM12 18.5H10.9V20.5H12V18.5ZM5.5 13.1V12H3.5V13.1H5.5ZM5.5 12V10.9H3.5V12H5.5ZM10.9 18.5C9.76339 18.5 8.97108 18.4992 8.35424 18.4488C7.74907 18.3994 7.40138 18.3072 7.13803 18.173L6.23005 19.955C6.82234 20.2568 7.46253 20.3826 8.19138 20.4422C8.90855 20.5008 9.7964 20.5 10.9 20.5V18.5ZM3.5 13.1C3.5 14.3538 3.49844 15.3355 3.58752 16.1137L5.57454 15.8863C5.50156 15.2487 5.5 14.4031 5.5 13.1H3.5ZM3.58752 16.1137C3.65668 16.7179 3.78562 17.2609 4.04497 17.77L5.82698 16.862C5.71199 16.6363 5.6273 16.3472 5.57454 15.8863L3.58752 16.1137ZM7.13803 18.173C6.57354 17.8854 6.1146 17.4265 5.82698 16.862L4.04497 17.77C4.52433 18.7108 5.28924 19.4757 6.23005 19.955L7.13803 18.173ZM18.5 13.1C18.5 14.2366 18.4992 15.0289 18.4488 15.6458C18.3994 16.2509 18.3072 16.5986 18.173 16.862L19.955 17.77C20.2568 17.1777 20.3826 16.5375 20.4422 15.8086C20.5008 15.0914 20.5 14.2036 20.5 13.1H18.5ZM13.1 20.5C14.2036 20.5 15.0914 20.5008 15.8086 20.4422C16.5375 20.3826 17.1777 20.2568 17.77 19.955L16.862 18.173C16.5986 18.3072 16.2509 18.3994 15.6458 18.4488C15.0289 18.4992 14.2366 18.5 13.1 18.5V20.5ZM18.173 16.862C17.8854 17.4265 17.4265 17.8854 16.862 18.173L17.77 19.955C18.7108 19.4757 19.4757 18.7108 19.955 17.77L18.173 16.862ZM13.1 5.5C14.4031 5.5 15.2487 5.50156 15.8863 5.57454L16.1137 3.58752C15.3355 3.49844 14.3538 3.5 13.1 3.5V5.5ZM15.8863 5.57454C16.3472 5.6273 16.6363 5.71199 16.862 5.82698L17.77 4.04497C17.2609 3.78562 16.7179 3.65668 16.1137 3.58752L15.8863 5.57454ZM20.5 10.9C20.5 9.7964 20.5008 8.90855 20.4422 8.19138C20.3826 7.46253 20.2568 6.82234 19.955 6.23005L18.173 7.13803C18.3072 7.40138 18.3994 7.74907 18.4488 8.35424C18.4992 8.97108 18.5 9.76339 18.5 10.9H20.5ZM16.862 5.82698C17.4265 6.1146 17.8854 6.57354 18.173 7.13803L19.955 6.23005C19.4757 5.28924 18.7108 4.52433 17.77 4.04497L16.862 5.82698ZM10.9 3.5C9.64622 3.5 8.66448 3.49844 7.88628 3.58752L8.11372 5.57454C8.7513 5.50156 9.59687 5.5 10.9 5.5V3.5ZM7.88628 3.58752C7.2821 3.65668 6.73905 3.78562 6.23005 4.04497L7.13803 5.82698C7.36371 5.71199 7.65283 5.6273 8.11372 5.57454L7.88628 3.58752ZM5.5 10.9C5.5 9.59687 5.50156 8.7513 5.57454 8.11372L3.58752 7.88628C3.49844 8.66448 3.5 9.64622 3.5 10.9H5.5ZM5.57454 8.11372C5.6273 7.65283 5.71199 7.36371 5.82698 7.13803L4.04497 6.23005C3.78562 6.73905 3.65668 7.2821 3.58752 7.88628L5.57454 8.11372ZM6.23005 4.04497C5.28924 4.52433 4.52433 5.28924 4.04497 6.23005L5.82698 7.13803C6.1146 6.57354 6.57354 6.1146 7.13803 5.82698L6.23005 4.04497ZM11 19.5L11 21H13L13 19.5H11ZM4.5 11L3 11L3 13L4.5 13L4.5 11ZM13 4.5V3H11V4.5H13ZM19.5 13H21V11H19.5V13ZM15 19.419V21H17V19.419H15ZM4.58103 15H3V17H4.58103V15ZM17 4.58103V3H15V4.58103H17ZM19.419 17H21V15H19.419V17ZM7 19.419V21H9V19.419H7ZM4.58103 7H3V9H4.58103V7ZM9 4.58103V3H7V4.58103H9ZM19.419 9H21V7H19.419V9ZM11.1637 8.54826L12.7476 10.9643L14.4202 9.86782L12.8363 7.45174L11.1637 8.54826ZM13.0357 11.2524L15.4517 12.8363L16.5483 11.1637L14.1322 9.57977L13.0357 11.2524ZM15.4517 11.1637L13.0357 12.7476L14.1322 14.4202L16.5483 12.8363L15.4517 11.1637ZM12.7476 13.0357L11.1637 15.4517L12.8363 16.5483L14.4202 14.1322L12.7476 13.0357ZM12.8363 15.4517L11.2524 13.0357L9.57977 14.1322L11.1637 16.5483L12.8363 15.4517ZM10.9643 12.7476L8.54826 11.1637L7.45174 12.8363L9.86782 14.4202L10.9643 12.7476ZM8.54826 12.8363L10.9643 11.2524L9.86782 9.57977L7.45174 11.1637L8.54826 12.8363ZM11.2524 10.9643L12.8363 8.54826L11.1637 7.45174L9.57977 9.86782L11.2524 10.9643Z" fill="#0B0D12"/>
</svg>
