<svg width="24" height="24" viewBox="0 0 24 24" fill="none" xmlns="http://www.w3.org/2000/svg">
<path d="M7.50775 15.374C7.43818 15.9219 7.82592 16.4225 8.37381 16.492C8.9217 16.5616 9.42224 16.1739 9.49182 15.626L7.50775 15.374ZM9.2487 9.60226L8.25667 9.47629L9.2487 9.60226ZM11.7509 9.60226L10.7588 9.72823H10.7588L11.7509 9.60226ZM12.2331 13.4L13.2252 13.274L12.2331 13.4ZM11.5077 15.626C11.5773 16.1739 12.0779 16.5616 12.6258 16.492C13.1736 16.4225 13.5614 15.9219 13.4918 15.374L11.5077 15.626ZM14.4998 15.5C14.4998 16.0523 14.9475 16.5 15.4998 16.5C16.0521 16.5 16.4998 16.0523 16.4998 15.5H14.4998ZM16.4998 8.5C16.4998 7.94772 16.0521 7.5 15.4998 7.5C14.9475 7.5 14.4998 7.94772 14.4998 8.5H16.4998ZM6.68404 19.064L7.13803 18.173L6.68404 19.064ZM4.93597 17.316L5.82698 16.862L4.93597 17.316ZM19.064 17.316L18.173 16.862L19.064 17.316ZM17.316 19.064L16.862 18.173L17.316 19.064ZM17.316 4.93597L16.862 5.82698L17.316 4.93597ZM19.064 6.68404L18.173 7.13803L19.064 6.68404ZM6.68404 4.93597L7.13803 5.82698L6.68404 4.93597ZM4.93597 6.68404L5.82698 7.13803L4.93597 6.68404ZM13 19.5C13 18.9477 12.5523 18.5 12 18.5C11.4477 18.5 11 18.9477 11 19.5H13ZM11 21C11 21.5523 11.4477 22 12 22C12.5523 22 13 21.5523 13 21H11ZM4.5 13C5.05229 13 5.5 12.5523 5.5 12C5.5 11.4477 5.05228 11 4.5 11L4.5 13ZM3 11C2.44771 11 2 11.4477 2 12C2 12.5523 2.44772 13 3 13L3 11ZM11 4.5C11 5.05228 11.4477 5.5 12 5.5C12.5523 5.5 13 5.05228 13 4.5H11ZM13 3C13 2.44772 12.5523 2 12 2C11.4477 2 11 2.44772 11 3H13ZM19.5 11C18.9477 11 18.5 11.4477 18.5 12C18.5 12.5523 18.9477 13 19.5 13V11ZM21 13C21.5523 13 22 12.5523 22 12C22 11.4477 21.5523 11 21 11V13ZM17 19.419C17 18.8667 16.5523 18.419 16 18.419C15.4477 18.419 15 18.8667 15 19.419H17ZM15 21C15 21.5523 15.4477 22 16 22C16.5523 22 17 21.5523 17 21H15ZM4.58103 17C5.13332 17 5.58103 16.5523 5.58103 16C5.58103 15.4477 5.13332 15 4.58103 15V17ZM3 15C2.44772 15 2 15.4477 2 16C2 16.5523 2.44772 17 3 17V15ZM15 4.58103C15 5.13332 15.4477 5.58103 16 5.58103C16.5523 5.58103 17 5.13332 17 4.58103H15ZM17 3C17 2.44772 16.5523 2 16 2C15.4477 2 15 2.44772 15 3H17ZM19.419 15C18.8667 15 18.419 15.4477 18.419 16C18.419 16.5523 18.8667 17 19.419 17V15ZM21 17C21.5523 17 22 16.5523 22 16C22 15.4477 21.5523 15 21 15V17ZM9 19.419C9 18.8667 8.55228 18.419 8 18.419C7.44772 18.419 7 18.8667 7 19.419H9ZM7 21C7 21.5523 7.44772 22 8 22C8.55228 22 9 21.5523 9 21H7ZM4.58103 9C5.13332 9 5.58103 8.55228 5.58103 8C5.58103 7.44772 5.13332 7 4.58103 7V9ZM3 7C2.44772 7 2 7.44772 2 8C2 8.55228 2.44772 9 3 9V7ZM7 4.58103C7 5.13332 7.44772 5.58103 8 5.58103C8.55228 5.58103 9 5.13332 9 4.58103H7ZM9 3C9 2.44772 8.55228 2 8 2C7.44772 2 7 2.44772 7 3H9ZM19.419 7C18.8667 7 18.419 7.44772 18.419 8C18.419 8.55228 18.8667 9 19.419 9V7ZM21 9C21.5523 9 22 8.55228 22 8C22 7.44772 21.5523 7 21 7V9ZM9.49182 15.626L9.75848 13.526L7.77442 13.274L7.50775 15.374L9.49182 15.626ZM9.75848 13.526L10.2407 9.72823L8.25667 9.47629L7.77442 13.274L9.75848 13.526ZM10.7588 9.72823L11.2411 13.526L13.2252 13.274L12.7429 9.47629L10.7588 9.72823ZM11.2411 13.526L11.5077 15.626L13.4918 15.374L13.2252 13.274L11.2411 13.526ZM8.76645 14.4H12.2331V12.4H8.76645V14.4ZM10.4998 9.5C10.6313 9.5 10.7423 9.59778 10.7588 9.72823L12.7429 9.47629C12.5995 8.3467 11.6384 7.5 10.4998 7.5V9.5ZM10.4998 7.5C9.36113 7.5 8.40011 8.3467 8.25667 9.47629L10.2407 9.72823C10.2573 9.59778 10.3683 9.5 10.4998 9.5V7.5ZM16.4998 15.5V8.5H14.4998V15.5H16.4998ZM10.9 5.5H13.1V3.5H10.9V5.5ZM18.5 10.9V13.1H20.5V10.9H18.5ZM13.1 18.5H10.9V20.5H13.1V18.5ZM5.5 13.1V10.9H3.5V13.1H5.5ZM10.9 18.5C9.76339 18.5 8.97108 18.4992 8.35424 18.4488C7.74907 18.3994 7.40138 18.3072 7.13803 18.173L6.23005 19.955C6.82234 20.2568 7.46253 20.3826 8.19138 20.4422C8.90855 20.5008 9.7964 20.5 10.9 20.5V18.5ZM3.5 13.1C3.5 14.2036 3.49922 15.0914 3.55782 15.8086C3.61737 16.5375 3.74318 17.1777 4.04497 17.77L5.82698 16.862C5.69279 16.5986 5.60062 16.2509 5.55118 15.6458C5.50078 15.0289 5.5 14.2366 5.5 13.1H3.5ZM7.13803 18.173C6.57354 17.8854 6.1146 17.4265 5.82698 16.862L4.04497 17.77C4.52433 18.7108 5.28924 19.4757 6.23005 19.955L7.13803 18.173ZM18.5 13.1C18.5 14.2366 18.4992 15.0289 18.4488 15.6458C18.3994 16.2509 18.3072 16.5986 18.173 16.862L19.955 17.77C20.2568 17.1777 20.3826 16.5375 20.4422 15.8086C20.5008 15.0914 20.5 14.2036 20.5 13.1H18.5ZM13.1 20.5C14.2036 20.5 15.0914 20.5008 15.8086 20.4422C16.5375 20.3826 17.1777 20.2568 17.77 19.955L16.862 18.173C16.5986 18.3072 16.2509 18.3994 15.6458 18.4488C15.0289 18.4992 14.2366 18.5 13.1 18.5V20.5ZM18.173 16.862C17.8854 17.4265 17.4265 17.8854 16.862 18.173L17.77 19.955C18.7108 19.4757 19.4757 18.7108 19.955 17.77L18.173 16.862ZM13.1 5.5C14.2366 5.5 15.0289 5.50078 15.6458 5.55118C16.2509 5.60062 16.5986 5.69279 16.862 5.82698L17.77 4.04497C17.1777 3.74318 16.5375 3.61737 15.8086 3.55782C15.0914 3.49922 14.2036 3.5 13.1 3.5V5.5ZM20.5 10.9C20.5 9.7964 20.5008 8.90855 20.4422 8.19138C20.3826 7.46253 20.2568 6.82234 19.955 6.23005L18.173 7.13803C18.3072 7.40138 18.3994 7.74907 18.4488 8.35424C18.4992 8.97108 18.5 9.76339 18.5 10.9H20.5ZM16.862 5.82698C17.4265 6.1146 17.8854 6.57354 18.173 7.13803L19.955 6.23005C19.4757 5.28924 18.7108 4.52433 17.77 4.04497L16.862 5.82698ZM10.9 3.5C9.7964 3.5 8.90855 3.49922 8.19138 3.55782C7.46253 3.61737 6.82234 3.74318 6.23005 4.04497L7.13803 5.82698C7.40138 5.69279 7.74907 5.60062 8.35424 5.55118C8.97108 5.50078 9.76339 5.5 10.9 5.5V3.5ZM5.5 10.9C5.5 9.76339 5.50078 8.97108 5.55118 8.35424C5.60062 7.74907 5.69279 7.40138 5.82698 7.13803L4.04497 6.23005C3.74318 6.82234 3.61737 7.46253 3.55782 8.19138C3.49922 8.90855 3.5 9.7964 3.5 10.9H5.5ZM6.23005 4.04497C5.28924 4.52433 4.52433 5.28924 4.04497 6.23005L5.82698 7.13803C6.1146 6.57354 6.57354 6.1146 7.13803 5.82698L6.23005 4.04497ZM11 19.5L11 21H13L13 19.5H11ZM4.5 11L3 11L3 13L4.5 13L4.5 11ZM13 4.5V3H11V4.5H13ZM19.5 13H21V11H19.5V13ZM15 19.419V21H17V19.419H15ZM4.58103 15H3V17H4.58103V15ZM17 4.58103V3H15V4.58103H17ZM19.419 17H21V15H19.419V17ZM7 19.419V21H9V19.419H7ZM4.58103 7H3V9H4.58103V7ZM9 4.58103V3H7V4.58103H9ZM19.419 9H21V7H19.419V9Z" fill="#0B0D12"/>
</svg>
