<svg width="24" height="24" viewBox="0 0 24 24" fill="none" xmlns="http://www.w3.org/2000/svg">
<path d="M12.2501 13.2901C12.5054 13.5799 12.8763 13.9136 13.3929 14.3785L15.4094 16.1934C17.1013 17.7161 17.9473 18.4775 18.6666 18.5075C19.2915 18.5336 19.8926 18.2659 20.2912 17.784C20.7501 17.2292 20.7501 16.0911 20.7501 13.8148V10.1852C20.7501 7.90889 20.7501 6.77076 20.2912 6.21598C19.8926 5.73408 19.2915 5.46638 18.6666 5.49247C17.9473 5.5225 17.1013 6.28388 15.4094 7.80662L13.3929 9.62146C12.8763 10.0864 12.5054 10.4201 12.2501 10.7099M12.2501 13.2901V13.8148C12.2501 16.0911 12.2501 17.2292 11.7912 17.784C11.3926 18.2659 10.7915 18.5336 10.1666 18.5075C9.44727 18.4775 8.6013 17.7161 6.90936 16.1934L4.89288 14.3785C3.97764 13.5548 3.52002 13.143 3.35105 12.6579C3.20264 12.2319 3.20264 11.7681 3.35105 11.3421C3.52002 10.857 3.97764 10.4452 4.89287 9.62146L6.90936 7.80662C8.6013 6.28388 9.44727 5.5225 10.1666 5.49247C10.7915 5.46638 11.3926 5.73408 11.7912 6.21598C12.2501 6.77076 12.2501 7.90889 12.2501 10.1852V10.7099M12.2501 13.2901V10.7099" stroke="#0B0D12" stroke-width="2" stroke-linecap="round" stroke-linejoin="round"/>
</svg>
