<svg width="24" height="24" viewBox="0 0 24 24" fill="none" xmlns="http://www.w3.org/2000/svg">
<path d="M3.54601 20.891L4 20L3.54601 20.891ZM3.10899 20.454L4 20L3.10899 20.454ZM20.891 20.454L20 20L20.891 20.454ZM20.454 20.891L20 20L20.454 20.891ZM20.454 17.109L20 18L20.454 17.109ZM20.891 17.546L20 18L20.891 17.546ZM3.54601 17.109L4 18L3.54601 17.109ZM3.10899 17.546L4 18L3.10899 17.546ZM11.3502 3.28882L10.944 2.37501V2.37501L11.3502 3.28882ZM11.8335 3.10829L11.667 2.12225L11.8335 3.10829ZM12.6498 3.28882L13.056 2.37501L12.6498 3.28882ZM12.1665 3.10829L12.333 2.12225L12.1665 3.10829ZM3.54601 9.89102L4 9.00001L3.54601 9.89102ZM3.10899 9.454L4 9.00001L3.10899 9.454ZM20.891 9.454L20 9.00001L20.891 9.454ZM20.454 9.89102L20 9.00001L20.454 9.89102ZM20.9408 7.31096L21.8816 6.97204L20.9408 7.31096ZM20.0498 6.57771L19.6437 7.49152L20.0498 6.57771ZM20.6918 6.92781L20 7.64989L20.6918 6.92781ZM3.05919 7.31096L2.11837 6.97204L3.05919 7.31096ZM3.95018 6.57771L4.35632 7.49152L3.95018 6.57771ZM3.30819 6.92781L4 7.64989L3.30819 6.92781ZM9 17C9 17.5523 9.44772 18 10 18C10.5523 18 11 17.5523 11 17H9ZM11 10C11 9.44773 10.5523 9.00001 10 9.00001C9.44772 9.00001 9 9.44773 9 10H11ZM5 17C5 17.5523 5.44772 18 6 18C6.55228 18 7 17.5523 7 17H5ZM7 10C7 9.44773 6.55228 9.00001 6 9.00001C5.44772 9.00001 5 9.44773 5 10H7ZM13 17C13 17.5523 13.4477 18 14 18C14.5523 18 15 17.5523 15 17H13ZM15 10C15 9.44773 14.5523 9.00001 14 9.00001C13.4477 9.00001 13 9.44773 13 10H15ZM17 17C17 17.5523 17.4477 18 18 18C18.5523 18 19 17.5523 19 17H17ZM19 10C19 9.44773 18.5523 9.00001 18 9.00001C17.4477 9.00001 17 9.44773 17 10H19ZM4.6 18H19.4V16H4.6V18ZM20 18.6V19.4H22V18.6H20ZM19.4 20H4.6V22H19.4V20ZM4 19.4V18.6H2V19.4H4ZM4.6 20C4.30347 20 4.14122 19.9992 4.02463 19.9897C3.91972 19.9811 3.94249 19.9707 4 20L3.09202 21.782C3.36344 21.9203 3.63318 21.9644 3.86177 21.9831C4.07869 22.0008 4.33647 22 4.6 22V20ZM2 19.4C2 19.6635 1.99922 19.9213 2.01695 20.1382C2.03562 20.3668 2.07969 20.6366 2.21799 20.908L4 20C4.0293 20.0575 4.01887 20.0803 4.0103 19.9754C4.00078 19.8588 4 19.6965 4 19.4H2ZM4 20L2.21799 20.908C2.40973 21.2843 2.7157 21.5903 3.09202 21.782L4 20ZM20 19.4C20 19.6965 19.9992 19.8588 19.9897 19.9754C19.9811 20.0803 19.9707 20.0575 20 20L21.782 20.908C21.9203 20.6366 21.9644 20.3668 21.9831 20.1382C22.0008 19.9213 22 19.6635 22 19.4H20ZM19.4 22C19.6635 22 19.9213 22.0008 20.1382 21.9831C20.3668 21.9644 20.6366 21.9203 20.908 21.782L20 20C20.0575 19.9707 20.0803 19.9811 19.9754 19.9897C19.8588 19.9992 19.6965 20 19.4 20V22ZM20 20L20.908 21.782C21.2843 21.5903 21.5903 21.2843 21.782 20.908L20 20ZM19.4 18C19.6965 18 19.8588 18.0008 19.9754 18.0103C20.0803 18.0189 20.0575 18.0293 20 18L20.908 16.218C20.6366 16.0797 20.3668 16.0356 20.1382 16.017C19.9213 15.9992 19.6635 16 19.4 16V18ZM22 18.6C22 18.3365 22.0008 18.0787 21.9831 17.8618C21.9644 17.6332 21.9203 17.3635 21.782 17.092L20 18C19.9707 17.9425 19.9811 17.9197 19.9897 18.0246C19.9992 18.1412 20 18.3035 20 18.6H22ZM20 18L21.782 17.092C21.5903 16.7157 21.2843 16.4097 20.908 16.218L20 18ZM4.6 16C4.33647 16 4.07869 15.9992 3.86177 16.017C3.63318 16.0356 3.36344 16.0797 3.09202 16.218L4 18C3.94249 18.0293 3.91972 18.0189 4.02463 18.0103C4.14122 18.0008 4.30347 18 4.6 18V16ZM4 18.6C4 18.3035 4.00078 18.1412 4.0103 18.0246C4.01887 17.9197 4.0293 17.9425 4 18L2.21799 17.092C2.07969 17.3635 2.03562 17.6332 2.01695 17.8618C1.99922 18.0787 2 18.3365 2 18.6H4ZM3.09202 16.218C2.7157 16.4097 2.40973 16.7157 2.21799 17.092L4 18L3.09202 16.218ZM20 8.03981V8.40001H22V8.03981H20ZM19.4 9.00001H4.6V11H19.4V9.00001ZM4 8.40001V8.03981H2V8.40001H4ZM4.35632 7.49152L11.7563 4.20263L10.944 2.37501L3.54404 5.6639L4.35632 7.49152ZM12.2437 4.20263L19.6437 7.49152L20.456 5.6639L13.056 2.37501L12.2437 4.20263ZM11.7563 4.20263C11.8844 4.1457 11.9487 4.11741 11.9963 4.09896C12.0349 4.08401 12.0274 4.08971 12 4.09433L11.667 2.12225C11.3892 2.16916 11.1365 2.28946 10.944 2.37501L11.7563 4.20263ZM13.056 2.37501C12.8635 2.28946 12.6108 2.16916 12.333 2.12225L12 4.09433C11.9726 4.08971 11.9651 4.08401 12.0037 4.09896C12.0513 4.11741 12.1156 4.1457 12.2437 4.20263L13.056 2.37501ZM12 4.09433L12.333 2.12225C12.1126 2.08502 11.8874 2.08502 11.667 2.12225L12 4.09433ZM4.6 9.00001C4.30347 9.00001 4.14122 8.99923 4.02463 8.98971C3.91972 8.98114 3.94249 8.97071 4 9.00001L3.09202 10.782C3.36344 10.9203 3.63318 10.9644 3.86177 10.9831C4.07869 11.0008 4.33647 11 4.6 11V9.00001ZM2 8.40001C2 8.66354 1.99922 8.92132 2.01695 9.13824C2.03562 9.36684 2.07969 9.63657 2.21799 9.90799L4 9.00001C4.0293 9.05752 4.01887 9.08029 4.0103 8.97538C4.00078 8.85879 4 8.69654 4 8.40001H2ZM4 9.00001L2.21799 9.90799C2.40973 10.2843 2.71569 10.5903 3.09202 10.782L4 9.00001ZM20 8.40001C20 8.69654 19.9992 8.85879 19.9897 8.97538C19.9811 9.08029 19.9707 9.05752 20 9.00001L21.782 9.90799C21.9203 9.63657 21.9644 9.36684 21.9831 9.13824C22.0008 8.92132 22 8.66354 22 8.40001H20ZM19.4 11C19.6635 11 19.9213 11.0008 20.1382 10.9831C20.3668 10.9644 20.6366 10.9203 20.908 10.782L20 9.00001C20.0575 8.97071 20.0803 8.98114 19.9754 8.98971C19.8588 8.99923 19.6965 9.00001 19.4 9.00001V11ZM20 9.00001L20.908 10.782C21.2843 10.5903 21.5903 10.2843 21.782 9.90799L20 9.00001ZM22 8.03981C22 7.7399 22.0142 7.34002 21.8816 6.97204L20 7.64989C19.9861 7.61122 19.9906 7.59727 19.9947 7.66026C19.9995 7.7353 20 7.83906 20 8.03981H22ZM19.6437 7.49152C19.8271 7.57306 19.9217 7.61563 19.9884 7.65053C20.0443 7.67983 20.0297 7.67831 20 7.64989L21.3836 6.20573C21.1012 5.93514 20.73 5.7857 20.456 5.6639L19.6437 7.49152ZM21.8816 6.97204C21.777 6.68159 21.6065 6.41931 21.3836 6.20573L20 7.64989L21.8816 6.97204ZM4 8.03981C4 7.83906 4.00048 7.7353 4.00532 7.66026C4.00939 7.59727 4.01393 7.61122 4 7.64989L2.11837 6.97204C1.98581 7.34002 2 7.7399 2 8.03981H4ZM3.54404 5.6639C3.26998 5.7857 2.8988 5.93514 2.61638 6.20573L4 7.64989C3.97033 7.67831 3.95573 7.67983 4.01165 7.65053C4.07825 7.61563 4.17287 7.57306 4.35632 7.49152L3.54404 5.6639ZM4 7.64989L2.61638 6.20573C2.39346 6.41931 2.223 6.68159 2.11837 6.97204L4 7.64989ZM11 17V10H9V17H11ZM7 17V10H5V17H7ZM15 17V10H13V17H15ZM19 17V10H17V17H19Z" fill="#0B0D12"/>
</svg>
