<svg width="24" height="24" viewBox="0 0 24 24" fill="none" xmlns="http://www.w3.org/2000/svg">
<path d="M20.2 10H19V14H20.2C20.48 14 20.62 14 20.727 13.9455C20.8211 13.8976 20.8976 13.8211 20.9455 13.727C21 13.62 21 13.48 21 13.2V10.8C21 10.52 21 10.38 20.9455 10.273C20.8976 10.1789 20.8211 10.1024 20.727 10.0545C20.62 10 20.48 10 20.2 10Z" fill="#0B0D12"/>
<path d="M17 6.53588C17.7584 6.9737 18.3567 7.65135 18.6955 8.46927C19 9.20435 19 10.1362 19 12C19 13.8638 19 14.7957 18.6955 15.5307C18.2895 16.5108 17.5108 17.2895 16.5307 17.6955C15.9407 17.9399 15.2238 17.9881 14 17.9977M8 6.00234C6.77617 6.01185 6.05932 6.06008 5.46927 6.30448C4.48915 6.71046 3.71046 7.48915 3.30448 8.46927C3 9.20435 3 10.1362 3 12C3 13.8638 3 14.7957 3.30448 15.5307C3.65264 16.3713 4.27493 17.0637 5.06329 17.4999M12.8 6L9.0398 10.7003C8.70693 11.1164 8.5405 11.3244 8.54031 11.4995C8.54015 11.6518 8.60938 11.7958 8.72838 11.8908C8.86522 12 9.13165 12 9.66449 12H12.3355C12.8683 12 13.1348 12 13.2716 12.1093C13.3906 12.2043 13.4598 12.3483 13.4597 12.5006C13.4595 12.6757 13.2931 12.8837 12.9602 13.2998L9.2 18M19 10H20.2C20.48 10 20.62 10 20.727 10.0545C20.8211 10.1024 20.8976 10.1789 20.9455 10.273C21 10.38 21 10.52 21 10.8V13.2C21 13.48 21 13.62 20.9455 13.727C20.8976 13.8211 20.8211 13.8976 20.727 13.9455C20.62 14 20.48 14 20.2 14H19V10Z" stroke="#0B0D12" stroke-width="2" stroke-linecap="round" stroke-linejoin="round"/>
</svg>
