<svg width="24" height="24" viewBox="0 0 24 24" fill="none" xmlns="http://www.w3.org/2000/svg">
<path d="M11.5 18C11.5 18.2761 11.2761 18.5 11 18.5C10.7239 18.5 10.5 18.2761 10.5 18C10.5 17.7239 10.7239 17.5 11 17.5C11.2761 17.5 11.5 17.7239 11.5 18Z" fill="#0B0D12"/>
<path d="M7 6.02687C6.34549 6.06035 5.87709 6.13555 5.46927 6.30448C4.48915 6.71046 3.71046 7.48915 3.30448 8.46927C3 9.20435 3 10.1362 3 12C3 13.8638 3 14.7956 3.30448 15.5307C3.71046 16.5108 4.48915 17.2895 5.46927 17.6955C5.87709 17.8644 6.34549 17.9397 7 17.9731M15 17.9731C15.6545 17.9397 16.1229 17.8644 16.5307 17.6955C17.5108 17.2895 18.2895 16.5108 18.6955 15.5307C19 14.7956 19 13.8638 19 12C19 10.1362 19 9.20435 18.6955 8.46927C18.2895 7.48915 17.5108 6.71046 16.5307 6.30448C16.1229 6.13555 15.6545 6.06035 15 6.02687M11 14V6M19 10H20.2C20.48 10 20.62 10 20.727 10.0545C20.8211 10.1024 20.8976 10.1789 20.9455 10.273C21 10.38 21 10.52 21 10.8V13.2C21 13.48 21 13.62 20.9455 13.727C20.8976 13.8211 20.8211 13.8976 20.727 13.9455C20.62 14 20.48 14 20.2 14H19V10ZM11.5 18C11.5 18.2761 11.2761 18.5 11 18.5C10.7239 18.5 10.5 18.2761 10.5 18C10.5 17.7239 10.7239 17.5 11 17.5C11.2761 17.5 11.5 17.7239 11.5 18Z" stroke="#0B0D12" stroke-width="2" stroke-linecap="round" stroke-linejoin="round"/>
</svg>
