<svg width="24" height="24" viewBox="0 0 24 24" fill="none" xmlns="http://www.w3.org/2000/svg">
<path d="M8.1 9.5H13.9C14.4601 9.5 14.7401 9.5 14.954 9.60899C15.1422 9.70487 15.2951 9.85785 15.391 10.046C15.5 10.2599 15.5 10.5399 15.5 11.1V12.9C15.5 13.4601 15.5 13.7401 15.391 13.954C15.2951 14.1422 15.1422 14.2951 14.954 14.391C14.7401 14.5 14.4601 14.5 13.9 14.5H8.1C7.53995 14.5 7.25992 14.5 7.04601 14.391C6.85785 14.2951 6.70487 14.1422 6.60899 13.954C6.5 13.7401 6.5 13.4601 6.5 12.9V11.1C6.5 10.5399 6.5 10.2599 6.60899 10.046C6.70487 9.85785 6.85785 9.70487 7.04601 9.60899C7.25992 9.5 7.53995 9.5 8.1 9.5Z" fill="#0B0D12"/>
<path d="M19 13.2V10.8M18.9731 14C19 13.4748 19 12.8297 19 12C19 11.1703 19 10.5252 18.9731 10M18.9731 14C18.9397 14.6545 18.8644 15.1229 18.6955 15.5307C18.2895 16.5108 17.5108 17.2895 16.5307 17.6955C15.7956 18 14.8638 18 13 18H9C7.13623 18 6.20435 18 5.46927 17.6955C4.48915 17.2895 3.71046 16.5108 3.30448 15.5307C3 14.7956 3 13.8638 3 12C3 10.1362 3 9.20435 3.30448 8.46927C3.71046 7.48915 4.48915 6.71046 5.46927 6.30448C6.20435 6 7.13623 6 9 6H13C14.8638 6 15.7956 6 16.5307 6.30448C17.5108 6.71046 18.2895 7.48915 18.6955 8.46927C18.8644 8.87709 18.9397 9.34549 18.9731 10M18.9731 14H19.8H20.2C20.48 14 20.62 14 20.727 13.9455C20.8211 13.8976 20.8976 13.8211 20.9455 13.727C21 13.62 21 13.48 21 13.2V10.8C21 10.52 21 10.38 20.9455 10.273C20.8976 10.1789 20.8211 10.1024 20.727 10.0545C20.62 10 20.48 10 20.2 10H19.8H18.9731M8.1 14.5H13.9C14.4601 14.5 14.7401 14.5 14.954 14.391C15.1422 14.2951 15.2951 14.1422 15.391 13.954C15.5 13.7401 15.5 13.4601 15.5 12.9V11.1C15.5 10.5399 15.5 10.2599 15.391 10.046C15.2951 9.85785 15.1422 9.70487 14.954 9.60899C14.7401 9.5 14.4601 9.5 13.9 9.5H8.1C7.53995 9.5 7.25992 9.5 7.04601 9.60899C6.85785 9.70487 6.70487 9.85785 6.60899 10.046C6.5 10.2599 6.5 10.5399 6.5 11.1V12.9C6.5 13.4601 6.5 13.7401 6.60899 13.954C6.70487 14.1422 6.85785 14.2951 7.04601 14.391C7.25992 14.5 7.53995 14.5 8.1 14.5Z" stroke="#0B0D12" stroke-width="2" stroke-linecap="round" stroke-linejoin="round"/>
</svg>
