<svg width="24" height="24" viewBox="0 0 24 24" fill="none" xmlns="http://www.w3.org/2000/svg">
<path d="M18.9731 14H20.5C20.7761 14 21 13.7761 21 13.5V10.5C21 10.2239 20.7761 10 20.5 10H20L18.9977 11.0023C19 11.3025 19 11.6332 19 12C19 13.8638 19 14.7956 18.6955 15.5307C18.2895 16.5108 17.5108 17.2895 16.5307 17.6955C15.7956 18 14.8638 18 13 18H12M6.11902 17.881L3 21M6.11902 17.881C5.8787 17.8372 5.66687 17.7774 5.46927 17.6955C4.48915 17.2895 3.71046 16.5108 3.30448 15.5307C3 14.7956 3 13.8638 3 12C3 10.1362 3 9.20435 3.30448 8.46927C3.71046 7.48915 4.48915 6.71046 5.46927 6.30448C6.20435 6 7.13623 6 9 6H13C14.8638 6 15.7956 6 16.5307 6.30448C16.7979 6.41515 17.0501 6.55352 17.2839 6.71611M6.11902 17.881L17.2839 6.71611M21 3L17.2839 6.71611" stroke="#0B0D12" stroke-width="2" stroke-linecap="round" stroke-linejoin="round"/>
</svg>
