<svg width="24" height="24" viewBox="0 0 24 24" fill="none" xmlns="http://www.w3.org/2000/svg">
<path d="M6.5 10.5C6.5 9.94772 6.94772 9.5 7.5 9.5C8.05228 9.5 8.5 9.94772 8.5 10.5V13.5C8.5 14.0523 8.05228 14.5 7.5 14.5C6.94772 14.5 6.5 14.0523 6.5 13.5V10.5Z" fill="#0B0D12"/>
<path d="M20.2 10H19V14H20.2C20.48 14 20.62 14 20.727 13.9455C20.8211 13.8976 20.8976 13.8211 20.9455 13.727C21 13.62 21 13.48 21 13.2V10.8C21 10.52 21 10.38 20.9455 10.273C20.8976 10.1789 20.8211 10.1024 20.727 10.0545C20.62 10 20.48 10 20.2 10Z" fill="#0B0D12"/>
<path fill-rule="evenodd" clip-rule="evenodd" d="M7.5 9.5C8.05228 9.5 8.5 9.94772 8.5 10.5V13.5C8.5 14.0523 8.05228 14.5 7.5 14.5C6.94772 14.5 6.5 14.0523 6.5 13.5V10.5C6.5 9.94772 6.94772 9.5 7.5 9.5Z" fill="#0B0D12"/>
<path d="M6.5 10.5C6.5 9.94772 6.94772 9.5 7.5 9.5C8.05228 9.5 8.5 9.94772 8.5 10.5V13.5C8.5 14.0523 8.05228 14.5 7.5 14.5C6.94772 14.5 6.5 14.0523 6.5 13.5V10.5Z" stroke="#0B0D12" stroke-width="2" stroke-linecap="round" stroke-linejoin="round"/>
<path d="M20.2 10H19V14H20.2C20.48 14 20.62 14 20.727 13.9455C20.8211 13.8976 20.8976 13.8211 20.9455 13.727C21 13.62 21 13.48 21 13.2V10.8C21 10.52 21 10.38 20.9455 10.273C20.8976 10.1789 20.8211 10.1024 20.727 10.0545C20.62 10 20.48 10 20.2 10Z" stroke="#0B0D12" stroke-width="2" stroke-linecap="round" stroke-linejoin="round"/>
<path fill-rule="evenodd" clip-rule="evenodd" d="M7.5 9.5C8.05228 9.5 8.5 9.94772 8.5 10.5V13.5C8.5 14.0523 8.05228 14.5 7.5 14.5C6.94772 14.5 6.5 14.0523 6.5 13.5V10.5C6.5 9.94772 6.94772 9.5 7.5 9.5Z" stroke="#0B0D12" stroke-width="2" stroke-linecap="round" stroke-linejoin="round"/>
</svg>
