<svg width="24" height="24" viewBox="0 0 24 24" fill="none" xmlns="http://www.w3.org/2000/svg">
<path d="M6.5 11.1C6.5 10.5399 6.5 10.2599 6.60899 10.046C6.70487 9.85785 6.85785 9.70487 7.04601 9.60899C7.25992 9.5 7.53995 9.5 8.1 9.5H9.4C9.96005 9.5 10.2401 9.5 10.454 9.60899C10.6422 9.70487 10.7951 9.85785 10.891 10.046C11 10.2599 11 10.5399 11 11.1V12.9C11 13.4601 11 13.7401 10.891 13.954C10.7951 14.1422 10.6422 14.2951 10.454 14.391C10.2401 14.5 9.96005 14.5 9.4 14.5H8.1C7.53995 14.5 7.25992 14.5 7.04601 14.391C6.85785 14.2951 6.70487 14.1422 6.60899 13.954C6.5 13.7401 6.5 13.4601 6.5 12.9V11.1Z" fill="#0B0D12"/>
<path d="M20.2 10H19V14H20.2C20.48 14 20.62 14 20.727 13.9455C20.8211 13.8976 20.8976 13.8211 20.9455 13.727C21 13.62 21 13.48 21 13.2V10.8C21 10.52 21 10.38 20.9455 10.273C20.8976 10.1789 20.8211 10.1024 20.727 10.0545C20.62 10 20.48 10 20.2 10Z" fill="#0B0D12"/>
<path fill-rule="evenodd" clip-rule="evenodd" d="M8.1 9.5H9.4C9.96005 9.5 10.2401 9.5 10.454 9.60899C10.6422 9.70487 10.7951 9.85785 10.891 10.046C11 10.2599 11 10.5399 11 11.1V12.9C11 13.4601 11 13.7401 10.891 13.954C10.7951 14.1422 10.6422 14.2951 10.454 14.391C10.2401 14.5 9.96005 14.5 9.4 14.5H8.1C7.53995 14.5 7.25992 14.5 7.04601 14.391C6.85785 14.2951 6.70487 14.1422 6.60899 13.954C6.5 13.7401 6.5 13.4601 6.5 12.9V11.1C6.5 10.5399 6.5 10.2599 6.60899 10.046C6.70487 9.85785 6.85785 9.70487 7.04601 9.60899C7.25992 9.5 7.53995 9.5 8.1 9.5Z" fill="#0B0D12"/>
<path d="M6.5 11.1C6.5 10.5399 6.5 10.2599 6.60899 10.046C6.70487 9.85785 6.85785 9.70487 7.04601 9.60899C7.25992 9.5 7.53995 9.5 8.1 9.5H9.4C9.96005 9.5 10.2401 9.5 10.454 9.60899C10.6422 9.70487 10.7951 9.85785 10.891 10.046C11 10.2599 11 10.5399 11 11.1V12.9C11 13.4601 11 13.7401 10.891 13.954C10.7951 14.1422 10.6422 14.2951 10.454 14.391C10.2401 14.5 9.96005 14.5 9.4 14.5H8.1C7.53995 14.5 7.25992 14.5 7.04601 14.391C6.85785 14.2951 6.70487 14.1422 6.60899 13.954C6.5 13.7401 6.5 13.4601 6.5 12.9V11.1Z" stroke="#0B0D12" stroke-width="2" stroke-linecap="round" stroke-linejoin="round"/>
<path d="M20.2 10H19V14H20.2C20.48 14 20.62 14 20.727 13.9455C20.8211 13.8976 20.8976 13.8211 20.9455 13.727C21 13.62 21 13.48 21 13.2V10.8C21 10.52 21 10.38 20.9455 10.273C20.8976 10.1789 20.8211 10.1024 20.727 10.0545C20.62 10 20.48 10 20.2 10Z" stroke="#0B0D12" stroke-width="2" stroke-linecap="round" stroke-linejoin="round"/>
<path fill-rule="evenodd" clip-rule="evenodd" d="M8.1 9.5H9.4C9.96005 9.5 10.2401 9.5 10.454 9.60899C10.6422 9.70487 10.7951 9.85785 10.891 10.046C11 10.2599 11 10.5399 11 11.1V12.9C11 13.4601 11 13.7401 10.891 13.954C10.7951 14.1422 10.6422 14.2951 10.454 14.391C10.2401 14.5 9.96005 14.5 9.4 14.5H8.1C7.53995 14.5 7.25992 14.5 7.04601 14.391C6.85785 14.2951 6.70487 14.1422 6.60899 13.954C6.5 13.7401 6.5 13.4601 6.5 12.9V11.1C6.5 10.5399 6.5 10.2599 6.60899 10.046C6.70487 9.85785 6.85785 9.70487 7.04601 9.60899C7.25992 9.5 7.53995 9.5 8.1 9.5Z" stroke="#0B0D12" stroke-width="2" stroke-linecap="round" stroke-linejoin="round"/>
</svg>
