<svg width="24" height="24" viewBox="0 0 24 24" fill="none" xmlns="http://www.w3.org/2000/svg">
<path d="M17.5705 4.1499L16.5889 4.34076L16.5889 4.34076L17.5705 4.1499ZM17.8705 5.69298L18.8522 5.50212L17.8705 5.69298ZM6.12946 5.69298L5.14784 5.50212L5.14784 5.50212L6.12946 5.69298ZM6.42949 4.1499L7.4111 4.34076L6.42949 4.1499ZM16.0606 17.4715L17.0001 17.129L16.0606 17.4715ZM16.3618 18.2978L17.3013 17.9552L17.3013 17.9552L16.3618 18.2978ZM7.63821 18.2978L6.69869 17.9552H6.69869L7.63821 18.2978ZM7.93942 17.4715L6.99991 17.129L6.99991 17.129L7.93942 17.4715ZM7.7418 20.7964L7.18389 21.6263H7.18389L7.7418 20.7964ZM7.22072 20.0229L6.24357 20.2354L6.24357 20.2354L7.22072 20.0229ZM16.7793 20.0229L15.8021 19.8104L16.7793 20.0229ZM16.2582 20.7964L16.8161 21.6263H16.8161L16.2582 20.7964ZM6.70378 10.1043L7.60316 9.66715L6.70378 10.1043ZM16.8331 3.04337L16.5342 3.99765L16.5342 3.99765L16.8331 3.04337ZM17.4064 3.52675L16.52 3.98968L16.52 3.98969L17.4064 3.52675ZM7.16687 3.04337L7.46577 3.99765L7.46577 3.99765L7.16687 3.04337ZM6.59364 3.52675L5.70725 3.06382L6.59364 3.52675ZM6.65307 9L6.08746 8.17521L6.07607 8.18326L6.65307 9ZM8.42563 7.78446L8.99118 8.60918L8.42563 7.78446ZM12.6579 8.21554L12.0923 7.39082L12.0923 7.39082L12.6579 8.21554ZM12.9722 8L13.5377 8.82472L13.5377 8.82471L12.9722 8ZM15.6697 8.27476L16.3867 7.5777L16.3867 7.5777L15.6697 8.27476ZM16.3748 9L17.1426 8.35933L17.1182 8.33017L17.0918 8.30294L16.3748 9ZM10.5417 8L9.82473 8.69706V8.69706L10.5417 8ZM6.34567 9.21717L5.39488 9.52702L6.34567 9.21717ZM7.79311 4H16.2069V2H7.79311V4ZM16.5889 4.34076L16.8889 5.88384L18.8522 5.50212L18.5521 3.95904L16.5889 4.34076ZM7.11108 5.88384L7.4111 4.34076L5.44787 3.95904L5.14784 5.50212L7.11108 5.88384ZM7.11132 16.2375V16.4964H9.11132V16.2375H7.11132ZM14.8887 16.2375V16.4964H16.8887V16.2375H14.8887ZM15.1211 17.814L15.4223 18.6403L17.3013 17.9552L17.0001 17.129L15.1211 17.814ZM14.5413 20H9.45875V22H14.5413V20ZM8.57772 18.6403L8.87894 17.814L6.99991 17.129L6.69869 17.9552L8.57772 18.6403ZM9.45875 20C8.96785 20 8.66933 19.999 8.45303 19.9788C8.24157 19.9592 8.24569 19.9301 8.29971 19.9665L7.18389 21.6263C7.54085 21.8662 7.9321 21.939 8.26771 21.9702C8.59848 22.001 9.00697 22 9.45875 22V20ZM6.69869 17.9552C6.53955 18.3918 6.39667 18.781 6.30969 19.1061C6.22175 19.4348 6.15382 19.8228 6.24357 20.2354L8.19788 19.8104C8.20861 19.8597 8.18393 19.8391 8.24174 19.623C8.3005 19.4034 8.40587 19.1117 8.57772 18.6403L6.69869 17.9552ZM8.29971 19.9665C8.25325 19.9352 8.21328 19.8812 8.19788 19.8104L6.24357 20.2354C6.36641 20.8002 6.70034 21.3012 7.18389 21.6263L8.29971 19.9665ZM15.4223 18.6403C15.5941 19.1117 15.6995 19.4034 15.7583 19.623C15.8161 19.8391 15.7914 19.8597 15.8021 19.8104L17.7564 20.2354C17.8462 19.8228 17.7782 19.4348 17.6903 19.1061C17.6033 18.781 17.4604 18.3918 17.3013 17.9552L15.4223 18.6403ZM14.5413 22C14.993 22 15.4015 22.001 15.7323 21.9702C16.0679 21.939 16.4592 21.8662 16.8161 21.6263L15.7003 19.9665C15.7543 19.9301 15.7584 19.9592 15.547 19.9788C15.3307 19.999 15.0322 20 14.5413 20V22ZM15.8021 19.8104C15.7867 19.8812 15.7467 19.9352 15.7003 19.9665L16.8161 21.6263C17.2997 21.3012 17.6336 20.8002 17.7564 20.2354L15.8021 19.8104ZM14.8887 16.4964C14.8887 16.9458 14.9672 17.3921 15.1211 17.814L17.0001 17.129C16.9266 16.9273 16.8887 16.713 16.8887 16.4964H14.8887ZM7.11132 16.4964C7.11132 16.713 7.07343 16.9273 6.99991 17.129L8.87894 17.814C9.03276 17.3921 9.11132 16.9458 9.11132 16.4964H7.11132ZM16.3968 9.66715C15.4046 11.7084 14.8887 13.9578 14.8887 16.2375H16.8887C16.8887 14.259 17.3366 12.3088 18.1956 10.5415L16.3968 9.66715ZM5.8044 10.5415C6.66345 12.3088 7.11132 14.259 7.11132 16.2375H9.11132C9.11132 13.9578 8.59539 11.7084 7.60316 9.66715L5.8044 10.5415ZM16.8889 5.88384C17.1385 7.16737 16.9646 8.49914 16.3968 9.66715L18.1956 10.5415C18.9537 8.98179 19.184 7.20905 18.8522 5.50212L16.8889 5.88384ZM16.2069 4C16.3803 4 16.4703 4.00035 16.5351 4.00391C16.5913 4.007 16.5752 4.01049 16.5342 3.99765L17.132 2.08908C16.8118 1.98878 16.4617 2 16.2069 2V4ZM18.5521 3.95905C18.5013 3.69739 18.4453 3.35588 18.2927 3.06382L16.52 3.98969C16.503 3.95725 16.505 3.94657 16.5198 4.00618C16.5366 4.07347 16.5551 4.16671 16.5889 4.34076L18.5521 3.95905ZM16.5342 3.99765C16.521 3.99352 16.5186 3.98705 16.52 3.98968L18.2928 3.06382C18.0511 2.60111 17.6365 2.24709 17.132 2.08908L16.5342 3.99765ZM7.79311 2C7.5383 2 7.18819 1.98878 6.86797 2.08908L7.46577 3.99765C7.42477 4.01049 7.4087 4.007 7.46486 4.00391C7.52969 4.00035 7.61971 4 7.79311 4V2ZM7.4111 4.34076C7.44495 4.16671 7.4634 4.07346 7.48015 4.00618C7.495 3.94656 7.49698 3.95725 7.48004 3.98968L5.70725 3.06382C5.55472 3.35588 5.49874 3.69739 5.44787 3.95904L7.4111 4.34076ZM6.86797 2.08908C6.36349 2.24709 5.94891 2.60111 5.70725 3.06382L7.48004 3.98968C7.48141 3.98705 7.47897 3.99352 7.46577 3.99765L6.86797 2.08908ZM7.21862 9.82471L8.99118 8.60918L7.86008 6.95975L6.08752 8.17529L7.21862 9.82471ZM13.2234 9.04025L13.5377 8.82472L12.4066 7.17528L12.0923 7.39082L13.2234 9.04025ZM14.9527 8.97181L15.6577 9.69706L17.0918 8.30294L16.3867 7.5777L14.9527 8.97181ZM13.5377 8.82471C13.9807 8.52091 14.5687 8.57686 14.9527 8.97181L16.3867 7.5777C15.3295 6.49022 13.6594 6.31618 12.4066 7.17529L13.5377 8.82471ZM9.82473 8.69706C10.7266 9.62478 12.1534 9.77403 13.2234 9.04025L12.0923 7.39082C11.832 7.5693 11.4874 7.53814 11.2588 7.30294L9.82473 8.69706ZM8.99118 8.60918C9.25145 8.4307 9.59608 8.46186 9.82473 8.69706L11.2588 7.30294C10.3569 6.37522 8.93012 6.22597 7.86008 6.95975L8.99118 8.60918ZM5.14784 5.50212C4.886 6.84881 4.97415 8.23599 5.39488 9.52702L7.29645 8.90732C6.98073 7.93851 6.91429 6.89595 7.11108 5.88384L5.14784 5.50212ZM5.39488 9.52702C5.50759 9.87287 5.6442 10.2119 5.8044 10.5415L7.60316 9.66715C7.48329 9.42057 7.38096 9.16663 7.29645 8.90732L5.39488 9.52702ZM6.07607 8.18326L5.76867 8.40042L6.92267 10.0339L7.23007 9.81674L6.07607 8.18326ZM15.6069 9.64067L16.5284 10.745L18.064 9.46365L17.1426 8.35933L15.6069 9.64067Z" fill="#0B0D12"/>
</svg>
