<svg width="24" height="24" viewBox="0 0 24 24" fill="none" xmlns="http://www.w3.org/2000/svg">
<path d="M4.63803 20.673L5.09202 19.782H5.09202L4.63803 20.673ZM3.32698 19.362L2.43597 19.816H2.43597L3.32698 19.362ZM16.673 19.362L15.782 18.908V18.908L16.673 19.362ZM15.362 20.673L14.908 19.782H14.908L15.362 20.673ZM17 8C16.4477 8 16 8.44772 16 9C16 9.55228 16.4477 10 17 10V8ZM17 16C16.4477 16 16 16.4477 16 17C16 17.5523 16.4477 18 17 18V16ZM20.782 15.908L19.891 15.454V15.454L20.782 15.908ZM19.908 16.782L19.454 15.891L19.908 16.782ZM20.782 10.092L19.891 10.546L20.782 10.092ZM19.908 9.21799L19.454 10.109L19.908 9.21799ZM7.32296 4.27009L8.19317 4.76277L8.19317 4.76277L7.32296 4.27009ZM10.677 3.29383L11.1485 2.41195V2.41195L10.677 3.29383ZM16 8V16.2H18V8H16ZM12.2 20H7.8V22H12.2V20ZM4 16.2V8H2V16.2H4ZM7.8 20C6.94342 20 6.36113 19.9992 5.91104 19.9624C5.47262 19.9266 5.24842 19.8617 5.09202 19.782L4.18404 21.564C4.66937 21.8113 5.18608 21.9099 5.74817 21.9558C6.2986 22.0008 6.97642 22 7.8 22V20ZM2 16.2C2 17.0236 1.99922 17.7014 2.04419 18.2518C2.09012 18.8139 2.18868 19.3306 2.43597 19.816L4.21799 18.908C4.1383 18.7516 4.07337 18.5274 4.03755 18.089C4.00078 17.6389 4 17.0566 4 16.2H2ZM5.09202 19.782C4.71569 19.5903 4.40973 19.2843 4.21799 18.908L2.43597 19.816C2.81947 20.5686 3.43139 21.1805 4.18404 21.564L5.09202 19.782ZM16 16.2C16 17.0566 15.9992 17.6389 15.9624 18.089C15.9266 18.5274 15.8617 18.7516 15.782 18.908L17.564 19.816C17.8113 19.3306 17.9099 18.8139 17.9558 18.2518C18.0008 17.7014 18 17.0236 18 16.2H16ZM12.2 22C13.0236 22 13.7014 22.0008 14.2518 21.9558C14.8139 21.9099 15.3306 21.8113 15.816 21.564L14.908 19.782C14.7516 19.8617 14.5274 19.9266 14.089 19.9624C13.6389 19.9992 13.0566 20 12.2 20V22ZM15.782 18.908C15.5903 19.2843 15.2843 19.5903 14.908 19.782L15.816 21.564C16.5686 21.1805 17.1805 20.5686 17.564 19.816L15.782 18.908ZM18 8C18 6.89543 17.1046 6 16 6V8H18ZM4 8V8V6C2.89543 6 2 6.89543 2 8H4ZM20 12.2V13.8H22V12.2H20ZM17 10H17.8V8H17V10ZM17.8 16H17V18H17.8V16ZM20 13.8C20 14.3766 19.9992 14.7488 19.9761 15.0322C19.9539 15.3038 19.9162 15.4045 19.891 15.454L21.673 16.362C21.8658 15.9836 21.9371 15.5904 21.9694 15.195C22.0008 14.8114 22 14.3436 22 13.8H20ZM17.8 18C18.3436 18 18.8114 18.0008 19.195 17.9694C19.5904 17.9371 19.9836 17.8658 20.362 17.673L19.454 15.891C19.4045 15.9162 19.3038 15.9539 19.0322 15.9761C18.7488 15.9992 18.3766 16 17.8 16V18ZM19.891 15.454C19.7951 15.6422 19.6422 15.7951 19.454 15.891L20.362 17.673C20.9265 17.3854 21.3854 16.9265 21.673 16.362L19.891 15.454ZM22 12.2C22 11.6564 22.0008 11.1886 21.9694 10.805C21.9371 10.4096 21.8658 10.0164 21.673 9.63803L19.891 10.546C19.9162 10.5955 19.9539 10.6962 19.9761 10.9678C19.9992 11.2512 20 11.6234 20 12.2H22ZM17.8 10C18.3766 10 18.7488 10.0008 19.0322 10.0239C19.3038 10.0461 19.4045 10.0838 19.454 10.109L20.362 8.32698C19.9836 8.13419 19.5904 8.06287 19.195 8.03057C18.8114 7.99922 18.3436 8 17.8 8V10ZM21.673 9.63803C21.3854 9.07354 20.9265 8.6146 20.362 8.32698L19.454 10.109C19.6422 10.2049 19.7951 10.3578 19.891 10.546L21.673 9.63803ZM5 7C5 6.44772 5.44772 6 6 6V4C4.34315 4 3 5.34315 3 7H5ZM13.5 5C14.3284 5 15 5.67157 15 6.5H17C17 4.567 15.433 3 13.5 3V5ZM8.19317 4.76277C8.45224 4.30518 8.94112 4 9.5 4V2C8.19164 2 7.05234 2.71836 6.45275 3.77741L8.19317 4.76277ZM9.5 4C9.75707 4 9.99626 4.06384 10.2055 4.17572L11.1485 2.41195C10.6562 2.14879 10.094 2 9.5 2V4ZM5 9H5.5V7H5V9ZM6 9.5V10H8V9.5H6ZM13 9H14.5V7H13V9ZM12 10C12 9.44772 12.4477 9 13 9V7C11.3431 7 10 8.34315 10 10H12ZM9 13C10.6569 13 12 11.6569 12 10H10C10 10.5523 9.55228 11 9 11V13ZM6 10C6 11.6569 7.34315 13 9 13V11C8.44772 11 8 10.5523 8 10H6ZM5.5 9C5.77614 9 6 9.22386 6 9.5H8C8 8.11929 6.88071 7 5.5 7V9ZM3 7C3 8.10457 3.89543 9 5 9V7H3ZM13.5 3C12.7913 3 11.7722 2.7454 11.1485 2.41195L10.2055 4.17572C11.1206 4.66492 12.4638 5 13.5 5V3ZM6.45275 3.77741C6.44677 3.78797 6.39916 3.85149 6.2802 3.9157C6.1636 3.97863 6.05542 4 6 4V6C6.43693 6 6.86895 5.87064 7.2301 5.67572C7.58888 5.48209 7.95658 5.18066 8.19317 4.76277L6.45275 3.77741ZM15 6.5C15 6.56023 14.9898 6.61591 14.9718 6.66675L16.8575 7.33325C16.9501 7.07131 17 6.79041 17 6.5H15ZM14.9718 6.66675C14.9027 6.8623 14.7161 7 14.5 7V9C15.5901 9 16.5148 8.30289 16.8575 7.33325L14.9718 6.66675ZM16 6H15.9146V8H16V6Z" fill="#0B0D12"/>
</svg>
