<svg width="24" height="24" viewBox="0 0 24 24" fill="none" xmlns="http://www.w3.org/2000/svg">
<path d="M9.17151 18.8285C8.78098 18.438 8.14782 18.438 7.75729 18.8285C7.36677 19.2191 7.36677 19.8522 7.75729 20.2428L9.17151 18.8285ZM16.2426 20.2428C16.6331 19.8522 16.6331 19.2191 16.2426 18.8285C15.8521 18.438 15.2189 18.438 14.8284 18.8285L16.2426 20.2428ZM6.11091 9.61198L7.07243 9.8867L6.11091 9.61198ZM7.69718 15.4937L7.76191 14.4958L7.69718 15.4937ZM5.35603 10.8962L6.20114 11.4308L5.35603 10.8962ZM16.3029 15.4937L16.2382 14.4958L16.3029 15.4937ZM18.6441 10.8962L17.799 11.4308L18.6441 10.8962ZM6.90116 6.8461L7.86268 7.12082L6.90116 6.8461ZM11.9999 20.0001C10.8951 20.0001 9.89646 19.5535 9.17151 18.8285L7.75729 20.2428C8.84198 21.3274 10.3434 22.0001 11.9999 22.0001V20.0001ZM14.8284 18.8285C14.1034 19.5535 13.1048 20.0001 11.9999 20.0001V22.0001C13.6565 22.0001 15.1579 21.3274 16.2426 20.2428L14.8284 18.8285ZM7.07243 9.8867L7.86268 7.12082L5.93964 6.57138L5.14938 9.33726L7.07243 9.8867ZM7.76191 14.4958C6.24705 14.3976 5.3896 12.7137 6.20114 11.4308L4.51092 10.3616C2.88785 12.9274 4.60275 16.2951 7.63246 16.4916L7.76191 14.4958ZM16.3676 16.4916C19.3973 16.2951 21.1122 12.9274 19.4892 10.3616L17.799 11.4308C18.6105 12.7137 17.753 14.3976 16.2382 14.4958L16.3676 16.4916ZM12 2C9.18591 2 6.71274 3.86552 5.93964 6.57138L7.86268 7.12082C8.39047 5.27357 10.0789 4 12 4V2ZM16.5 8C15.1193 8 14 6.88071 14 5.5H12C12 7.98528 14.0148 10 16.5 10V8ZM16.5 3C17.8808 3 19 4.11929 19 5.5H21C21 3.01472 18.9853 1 16.5 1V3ZM19 5.5C19 6.58921 18.3029 7.51817 17.3275 7.86012L17.9891 9.74751C19.7412 9.13329 21 7.46494 21 5.5H19ZM17.3275 7.86012C17.0698 7.95045 16.7918 8 16.5 8V10C17.0202 10 17.5217 9.91135 17.9891 9.74751L17.3275 7.86012ZM14 5.5C14 4.90535 14.2064 4.36163 14.5523 3.93259L12.9952 2.67738C12.3731 3.44904 12 4.43231 12 5.5H14ZM14.5523 3.93259C15.0122 3.36211 15.7135 3 16.5 3V1C15.083 1 13.8184 1.65617 12.9952 2.67738L14.5523 3.93259ZM12 4C12.5018 4 12.9867 4.08668 13.4391 4.24733L14.1084 2.36264C13.4444 2.12685 12.7333 2 12 2V4ZM6.20114 11.4308C6.25309 11.3487 6.31126 11.2656 6.38226 11.1662C6.44867 11.0733 6.53332 10.9565 6.61256 10.8381C6.77595 10.594 6.95963 10.2815 7.07243 9.8867L5.14938 9.33726C5.11801 9.44705 5.06042 9.56143 4.9505 9.72565C4.89308 9.81144 4.83307 9.89419 4.75493 10.0036C4.68139 10.1065 4.59513 10.2285 4.51092 10.3616L6.20114 11.4308ZM16.2382 14.4958C13.4781 14.6748 10.522 14.6748 7.76191 14.4958L7.63246 16.4916C10.4788 16.6762 13.5213 16.6762 16.3676 16.4916L16.2382 14.4958ZM16.6968 9.07853C16.9618 10.006 17.325 10.6815 17.799 11.4308L19.4892 10.3616C19.0701 9.69916 18.8127 9.20427 18.6198 8.52909L16.6968 9.07853Z" fill="#0B0D12"/>
</svg>
