<svg width="24" height="24" viewBox="0 0 24 24" fill="none" xmlns="http://www.w3.org/2000/svg">
<path d="M9.23305 18.8341C8.84565 18.4405 8.21251 18.4354 7.81888 18.8228C7.42525 19.2102 7.4202 19.8434 7.8076 20.237L9.23305 18.8341ZM16.1922 20.237C16.5796 19.8434 16.5745 19.2102 16.1809 18.8228C15.7873 18.4354 15.1541 18.4405 14.7667 18.8341L16.1922 20.237ZM17.7959 9.61194L18.7586 9.34124L17.7959 9.61194ZM6.20409 9.61194L7.16676 9.88263L6.20409 9.61194ZM7.76525 15.4936L7.83101 14.4958L7.76525 15.4936ZM5.46116 10.8962L6.31009 11.4247L5.46116 10.8962ZM16.2347 15.4936L16.169 14.4958L16.2347 15.4936ZM18.5388 10.8962L17.6899 11.4247L18.5388 10.8962ZM17.0182 6.84607L16.0555 7.11677L17.0182 6.84607ZM6.98183 6.84607L6.01917 6.57538L6.98183 6.84607ZM11.9999 20C10.9222 20 9.94502 19.5575 9.23305 18.8341L7.8076 20.237C8.87663 21.3232 10.3599 22 11.9999 22V20ZM14.7667 18.8341C14.0548 19.5575 13.0776 20 11.9999 20V22C13.6399 22 15.1232 21.3232 16.1922 20.237L14.7667 18.8341ZM7.16676 9.88263L7.9445 7.11677L6.01917 6.57538L5.24142 9.34124L7.16676 9.88263ZM16.0555 7.11677L16.8332 9.88263L18.7586 9.34124L17.9808 6.57538L16.0555 7.11677ZM7.83101 14.4958C6.37296 14.3997 5.49824 12.7287 6.31009 11.4247L4.61223 10.3677C3.02801 12.9123 4.68492 16.2928 7.6995 16.4915L7.83101 14.4958ZM16.3005 16.4915C19.3151 16.2928 20.972 12.9123 19.3878 10.3677L17.6899 11.4247C18.5018 12.7287 17.627 14.3997 16.169 14.4958L16.3005 16.4915ZM12 4C13.8728 4 15.5341 5.26249 16.0555 7.11677L17.9808 6.57538C17.2219 3.87657 14.7875 2 12 2V4ZM12 2C9.21248 2 6.77805 3.87657 6.01917 6.57538L7.9445 7.11677C8.4659 5.2625 10.1272 4 12 4V2ZM6.31009 11.4247C6.36138 11.3423 6.41877 11.259 6.48871 11.1594C6.55416 11.0663 6.63744 10.9494 6.71538 10.831C6.87607 10.587 7.05636 10.2752 7.16676 9.88263L5.24142 9.34124C5.21038 9.45166 5.15328 9.56665 5.04491 9.73125C4.98833 9.8172 4.92915 9.90019 4.85227 10.0096C4.77986 10.1127 4.69503 10.2347 4.61223 10.3677L6.31009 11.4247ZM16.8332 9.88263C16.9436 10.2752 17.1239 10.587 17.2846 10.831C17.3626 10.9494 17.4458 11.0663 17.5113 11.1594C17.5812 11.259 17.6386 11.3423 17.6899 11.4247L19.3878 10.3677C19.305 10.2347 19.2201 10.1127 19.1477 10.0096C19.0708 9.90019 19.0117 9.8172 18.9551 9.73125C18.8467 9.56665 18.7896 9.45166 18.7586 9.34124L16.8332 9.88263ZM16.169 14.4958C13.456 14.6746 10.544 14.6746 7.83101 14.4958L7.6995 16.4915C10.5001 16.676 13.4999 16.676 16.3005 16.4915L16.169 14.4958Z" fill="#0B0D12"/>
</svg>
