<svg width="24" height="24" viewBox="0 0 24 24" fill="none" xmlns="http://www.w3.org/2000/svg">
<path d="M16.2425 20.2428C16.6331 19.8522 16.6331 19.2191 16.2425 18.8285C15.852 18.438 15.2188 18.438 14.8283 18.8285L16.2425 20.2428ZM6.11086 9.61198L7.07239 9.8867L6.11086 9.61198ZM7.69714 15.4937L7.76186 14.4958L7.69714 15.4937ZM5.35598 10.8962L6.20109 11.4308L5.35598 10.8962ZM16.3029 15.4937L16.2381 14.4958L16.3029 15.4937ZM17.0989 6.84609L16.1374 7.12082L16.1374 7.12082L17.0989 6.84609ZM6.90111 6.8461L5.93959 6.57138L6.90111 6.8461ZM2.29289 20.2929C1.90237 20.6834 1.90237 21.3166 2.29289 21.7071C2.68342 22.0976 3.31658 22.0976 3.70711 21.7071L2.29289 20.2929ZM21.7071 3.70711C22.0976 3.31658 22.0976 2.68342 21.7071 2.29289C21.3166 1.90237 20.6834 1.90237 20.2929 2.29289L21.7071 3.70711ZM10.0871 19.5142C9.60231 19.2496 8.99483 19.4281 8.73025 19.9129C8.46567 20.3977 8.64418 21.0052 9.12896 21.2698L10.0871 19.5142ZM14.5 14.5C13.9477 14.5 13.5 14.9477 13.5 15.5C13.5 16.0523 13.9477 16.5 14.5 16.5V14.5ZM19.707 10.7509C19.4639 10.255 18.8648 10.05 18.3689 10.293C17.873 10.5361 17.668 11.1352 17.911 11.6311L19.707 10.7509ZM17.1111 6.88889L17.8182 7.596L17.1111 6.88889ZM14.8283 18.8285C14.1034 19.5535 13.1047 20.0001 11.9999 20.0001V22.0001C13.6565 22.0001 15.1578 21.3274 16.2425 20.2428L14.8283 18.8285ZM7.07239 9.8867L7.86264 7.12082L5.93959 6.57138L5.14934 9.33726L7.07239 9.8867ZM7.76186 14.4958C6.24701 14.3976 5.38956 12.7137 6.20109 11.4308L4.51087 10.3616C2.8878 12.9274 4.6027 16.2951 7.63242 16.4916L7.76186 14.4958ZM12 4C13.9212 4 15.6096 5.27357 16.1374 7.12082L18.0604 6.57137C17.2873 3.86552 14.8141 2 12 2V4ZM12 2C9.18587 2 6.71269 3.86552 5.93959 6.57138L7.86264 7.12082C8.39042 5.27357 10.0788 4 12 4V2ZM11.9999 20.0001C11.305 20.0001 10.6543 19.8238 10.0871 19.5142L9.12896 21.2698C9.9827 21.7357 10.9619 22.0001 11.9999 22.0001V20.0001ZM16.3676 16.4916C19.2475 16.3048 20.9355 13.2576 19.707 10.7509L17.911 11.6311C18.5232 12.8801 17.6741 14.4027 16.2381 14.4958L16.3676 16.4916ZM17.8182 7.596L21.7071 3.70711L20.2929 2.29289L16.404 6.18178L17.8182 7.596ZM16.1374 7.12082L16.1496 7.16362L18.0726 6.61416L18.0604 6.57137L16.1374 7.12082ZM3.70711 21.7071L9.20711 16.2071L7.79289 14.7929L2.29289 20.2929L3.70711 21.7071ZM9.20711 16.2071L17.8182 7.596L16.404 6.18178L7.79289 14.7929L9.20711 16.2071ZM6.20109 11.4308C6.25305 11.3487 6.31122 11.2656 6.38221 11.1662C6.44862 11.0733 6.53328 10.9565 6.61251 10.8381C6.77591 10.594 6.95958 10.2815 7.07239 9.8867L5.14934 9.33726C5.11797 9.44705 5.06037 9.56143 4.95046 9.72565C4.89303 9.81144 4.83302 9.89419 4.75489 10.0036C4.68134 10.1065 4.59509 10.2285 4.51087 10.3616L6.20109 11.4308ZM8.5 14.5C8.1776 14.5 7.98571 14.5103 7.76186 14.4958L7.63242 16.4916C7.94168 16.5117 8.28821 16.5 8.5 16.5V14.5ZM14.5 16.5C15.0236 16.5 15.7296 16.533 16.3676 16.4916L16.2381 14.4958C15.6815 14.5319 15.1727 14.5 14.5 14.5V16.5Z" fill="#0B0D12"/>
</svg>
