<svg width="24" height="24" viewBox="0 0 24 24" fill="none" xmlns="http://www.w3.org/2000/svg">
<path d="M8.46436 19.5356C9.36918 20.4405 10.6192 21.0001 11.9999 21.0001C13.3806 21.0001 14.6306 20.4405 15.5354 19.5356M18.0001 2C19.0942 2.93087 19.9238 4.1423 20.3522 5.53838M6.0001 2C4.90592 2.93087 4.07634 4.1423 3.64795 5.53838M17.8891 9.61198L17.0989 6.8461C16.4484 4.56954 14.3677 3 12 3C9.63235 3 7.55156 4.56955 6.90112 6.8461L6.11087 9.61198C5.96669 10.1166 5.62832 10.4657 5.35599 10.8962C4.13868 12.8206 5.42485 15.3463 7.69714 15.4937C10.5004 15.6755 13.4997 15.6755 16.3029 15.4937C18.5751 15.3463 19.8613 12.8206 18.644 10.8962C18.3717 10.4657 18.0333 10.1166 17.8891 9.61198Z" stroke="#0B0D12" stroke-width="2" stroke-linecap="round" stroke-linejoin="round"/>
</svg>
