<svg width="24" height="24" viewBox="0 0 24 24" fill="none" xmlns="http://www.w3.org/2000/svg">
<path d="M4 5C3.44772 5 3 5.44772 3 6C3 6.55228 3.44772 7 4 7V5ZM20 7C20.5523 7 21 6.55228 21 6C21 5.44772 20.5523 5 20 5V7ZM4 16C4 16.5523 4.44772 17 5 17C5.55228 17 6 16.5523 6 16H4ZM18 16C18 16.5523 18.4477 17 19 17C19.5523 17 20 16.5523 20 16H18ZM3.54601 19.891L4 19L3.54601 19.891ZM3.10899 19.454L4 19L3.10899 19.454ZM6.89101 19.454L6 19L6.89101 19.454ZM6.45399 19.891L6 19L6.45399 19.891ZM6.45399 16.109L6 17L6.45399 16.109ZM6.89101 16.546L6 17L6.89101 16.546ZM3.54601 16.109L4 17L3.54601 16.109ZM3.10899 16.546L4 17L3.10899 16.546ZM17.546 19.891L18 19L17.546 19.891ZM17.109 19.454L18 19L17.109 19.454ZM20.891 19.454L20 19L20.891 19.454ZM20.454 19.891L20 19L20.454 19.891ZM20.454 16.109L20 17L20.454 16.109ZM20.891 16.546L20 17L20.891 16.546ZM17.546 16.109L18 17L17.546 16.109ZM17.109 16.546L18 17L17.109 16.546ZM10.546 7.89101L11 7L10.546 7.89101ZM10.109 7.45399L11 7L10.109 7.45399ZM13.891 7.45399L13 7L13.891 7.45399ZM13.454 7.89101L13 7L13.454 7.89101ZM13.454 4.10899L13 5L13.454 4.10899ZM13.891 4.54601L13 5L13.891 4.54601ZM10.546 4.10899L11 5L10.546 4.10899ZM10.109 4.54601L11 5L10.109 4.54601ZM10.0457 7.27646L11.0194 7.04858L10.0457 7.27646ZM4 14V16H6V14H4ZM18 14V16H20V14H18ZM4.6 17H5.4V15H4.6V17ZM6 17.6V18.4H8V17.6H6ZM5.4 19H4.6V21H5.4V19ZM4 18.4V17.6H2V18.4H4ZM4.6 19C4.30347 19 4.14122 18.9992 4.02463 18.9897C3.91972 18.9811 3.94249 18.9707 4 19L3.09202 20.782C3.36344 20.9203 3.63318 20.9644 3.86177 20.9831C4.07869 21.0008 4.33647 21 4.6 21V19ZM2 18.4C2 18.6635 1.99922 18.9213 2.01695 19.1382C2.03562 19.3668 2.07969 19.6366 2.21799 19.908L4 19C4.0293 19.0575 4.01887 19.0803 4.0103 18.9754C4.00078 18.8588 4 18.6965 4 18.4H2ZM4 19L2.21799 19.908C2.40973 20.2843 2.7157 20.5903 3.09202 20.782L4 19ZM6 18.4C6 18.6965 5.99922 18.8588 5.9897 18.9754C5.98113 19.0803 5.9707 19.0575 6 19L7.78201 19.908C7.92031 19.6366 7.96438 19.3668 7.98305 19.1382C8.00078 18.9213 8 18.6635 8 18.4H6ZM5.4 21C5.66353 21 5.92131 21.0008 6.13823 20.9831C6.36682 20.9644 6.63656 20.9203 6.90798 20.782L6 19C6.05751 18.9707 6.08028 18.9811 5.97537 18.9897C5.85878 18.9992 5.69653 19 5.4 19V21ZM6 19L6.90798 20.782C7.2843 20.5903 7.59027 20.2843 7.78201 19.908L6 19ZM5.4 17C5.69653 17 5.85878 17.0008 5.97537 17.0103C6.08028 17.0189 6.05751 17.0293 6 17L6.90798 15.218C6.63656 15.0797 6.36682 15.0356 6.13823 15.0169C5.92131 14.9992 5.66353 15 5.4 15V17ZM8 17.6C8 17.3365 8.00078 17.0787 7.98305 16.8618C7.96438 16.6332 7.92031 16.3634 7.78201 16.092L6 17C5.9707 16.9425 5.98113 16.9197 5.9897 17.0246C5.99922 17.1412 6 17.3035 6 17.6H8ZM6 17L7.78201 16.092C7.59027 15.7157 7.2843 15.4097 6.90798 15.218L6 17ZM4.6 15C4.33647 15 4.07869 14.9992 3.86177 15.0169C3.63318 15.0356 3.36344 15.0797 3.09202 15.218L4 17C3.94249 17.0293 3.91972 17.0189 4.02463 17.0103C4.14122 17.0008 4.30347 17 4.6 17V15ZM4 17.6C4 17.3035 4.00078 17.1412 4.0103 17.0246C4.01887 16.9197 4.0293 16.9425 4 17L2.21799 16.092C2.07969 16.3634 2.03562 16.6332 2.01695 16.8618C1.99922 17.0787 2 17.3365 2 17.6H4ZM3.09202 15.218C2.7157 15.4097 2.40973 15.7157 2.21799 16.092L4 17L3.09202 15.218ZM18.6 17H19.4V15H18.6V17ZM20 17.6V18.4H22V17.6H20ZM19.4 19H18.6V21H19.4V19ZM18 18.4V17.6H16V18.4H18ZM18.6 19C18.3035 19 18.1412 18.9992 18.0246 18.9897C17.9197 18.9811 17.9425 18.9707 18 19L17.092 20.782C17.3634 20.9203 17.6332 20.9644 17.8618 20.9831C18.0787 21.0008 18.3365 21 18.6 21V19ZM16 18.4C16 18.6635 15.9992 18.9213 16.0169 19.1382C16.0356 19.3668 16.0797 19.6366 16.218 19.908L18 19C18.0293 19.0575 18.0189 19.0803 18.0103 18.9754C18.0008 18.8588 18 18.6965 18 18.4H16ZM18 19L16.218 19.908C16.4097 20.2843 16.7157 20.5903 17.092 20.782L18 19ZM20 18.4C20 18.6965 19.9992 18.8588 19.9897 18.9754C19.9811 19.0803 19.9707 19.0575 20 19L21.782 19.908C21.9203 19.6366 21.9644 19.3668 21.9831 19.1382C22.0008 18.9213 22 18.6635 22 18.4H20ZM19.4 21C19.6635 21 19.9213 21.0008 20.1382 20.9831C20.3668 20.9644 20.6366 20.9203 20.908 20.782L20 19C20.0575 18.9707 20.0803 18.9811 19.9754 18.9897C19.8588 18.9992 19.6965 19 19.4 19V21ZM20 19L20.908 20.782C21.2843 20.5903 21.5903 20.2843 21.782 19.908L20 19ZM19.4 17C19.6965 17 19.8588 17.0008 19.9754 17.0103C20.0803 17.0189 20.0575 17.0293 20 17L20.908 15.218C20.6366 15.0797 20.3668 15.0356 20.1382 15.0169C19.9213 14.9992 19.6635 15 19.4 15V17ZM22 17.6C22 17.3365 22.0008 17.0787 21.9831 16.8618C21.9644 16.6332 21.9203 16.3634 21.782 16.092L20 17C19.9707 16.9425 19.9811 16.9197 19.9897 17.0246C19.9992 17.1412 20 17.3035 20 17.6H22ZM20 17L21.782 16.092C21.5903 15.7157 21.2843 15.4097 20.908 15.218L20 17ZM18.6 15C18.3365 15 18.0787 14.9992 17.8618 15.0169C17.6332 15.0356 17.3634 15.0797 17.092 15.218L18 17C17.9425 17.0293 17.9197 17.0189 18.0246 17.0103C18.1412 17.0008 18.3035 17 18.6 17V15ZM18 17.6C18 17.3035 18.0008 17.1412 18.0103 17.0246C18.0189 16.9197 18.0293 16.9425 18 17L16.218 16.092C16.0797 16.3634 16.0356 16.6332 16.0169 16.8618C15.9992 17.0787 16 17.3365 16 17.6H18ZM17.092 15.218C16.7157 15.4097 16.4097 15.7157 16.218 16.092L18 17L17.092 15.218ZM11.6 5H12.4V3H11.6V5ZM13 5.6V6.4H15V5.6H13ZM12.4 7H11.6V9H12.4V7ZM11 6.4V5.6H9V6.4H11ZM11.6 7C11.3035 7 11.1412 6.99922 11.0246 6.9897C10.9197 6.98113 10.9425 6.9707 11 7L10.092 8.78201C10.3634 8.92031 10.6332 8.96438 10.8618 8.98305C11.0787 9.00078 11.3365 9 11.6 9V7ZM11 7L9.21799 7.90798C9.40973 8.28431 9.71569 8.59027 10.092 8.78201L11 7ZM12.4 9C12.6635 9 12.9213 9.00078 13.1382 8.98305C13.3668 8.96438 13.6366 8.92031 13.908 8.78201L13 7C13.0575 6.9707 13.0803 6.98113 12.9754 6.9897C12.8588 6.99922 12.6965 7 12.4 7V9ZM13 7L13.908 8.78201C14.2843 8.59027 14.5903 8.2843 14.782 7.90798L13 7ZM12.4 5C12.6965 5 12.8588 5.00078 12.9754 5.0103C13.0803 5.01887 13.0575 5.0293 13 5L13.908 3.21799C13.6366 3.07969 13.3668 3.03562 13.1382 3.01695C12.9213 2.99922 12.6635 3 12.4 3V5ZM15 5.6C15 5.33647 15.0008 5.07869 14.9831 4.86177C14.9644 4.63318 14.9203 4.36344 14.782 4.09202L13 5C12.9707 4.94249 12.9811 4.91972 12.9897 5.02463C12.9992 5.14122 13 5.30347 13 5.6H15ZM13 5L14.782 4.09202C14.5903 3.7157 14.2843 3.40973 13.908 3.21799L13 5ZM11.6 3C11.3365 3 11.0787 2.99922 10.8618 3.01695C10.6332 3.03562 10.3634 3.07969 10.092 3.21799L11 5C10.9425 5.0293 10.9197 5.01887 11.0246 5.0103C11.1412 5.00078 11.3035 5 11.6 5V3ZM11 5.6C11 5.30347 11.0008 5.14122 11.0103 5.02463C11.0189 4.91972 11.0293 4.94249 11 5L9.21799 4.09202C9.07969 4.36344 9.03562 4.63318 9.01695 4.86177C8.99922 5.07869 9 5.33647 9 5.6H11ZM10.092 3.21799C9.71569 3.40973 9.40973 3.71569 9.21799 4.09202L11 5L10.092 3.21799ZM4 6V8C5.10457 8 6 7.10457 6 6H4ZM4 6H2C2 7.10457 2.89543 8 4 8V6ZM4 6V4C2.89543 4 2 4.89543 2 6H4ZM4 6H6C6 4.89543 5.10457 4 4 4V6ZM20 6V8C21.1046 8 22 7.10457 22 6H20ZM20 6H18C18 7.10457 18.8954 8 20 8V6ZM20 6V4C18.8954 4 18 4.89543 18 6H20ZM20 6H22C22 4.89543 21.1046 4 20 4V6ZM20 5H4V7H20V5ZM13 6.4C13 6.87531 12.9934 6.99421 12.9806 7.04858L14.928 7.50433C15.0066 7.16848 15 6.76282 15 6.4H13ZM12.9806 7.04858C12.9806 7.04875 12.9818 7.04348 12.9851 7.03427C12.9885 7.02484 12.9933 7.01306 13 7L14.782 7.90798C14.8511 7.77248 14.897 7.63681 14.928 7.50433L12.9806 7.04858ZM13.6757 8.23685C16.1748 8.96202 18 11.2692 18 14H20C20 10.3555 17.5637 7.28255 14.233 6.31607L13.6757 8.23685ZM9 6.4C9 6.76282 8.99337 7.16848 9.07197 7.50433L11.0194 7.04858C11.0066 6.99421 11 6.87531 11 6.4H9ZM9.07197 7.50433C9.10298 7.63681 9.14894 7.77248 9.21799 7.90798L11 7C11.0067 7.01306 11.0115 7.02484 11.0149 7.03427C11.0182 7.04348 11.0194 7.04875 11.0194 7.04858L9.07197 7.50433ZM6 14C6 11.2692 7.82521 8.96201 10.3243 8.23684L9.76699 6.31607C6.43626 7.28255 4 10.3555 4 14H6Z" fill="#0B0D12"/>
</svg>
