<svg width="24" height="24" viewBox="0 0 24 24" fill="none" xmlns="http://www.w3.org/2000/svg">
<path d="M21 8.5C21.5523 8.5 22 8.05228 22 7.5C22 6.94772 21.5523 6.5 21 6.5V8.5ZM3 6.5C2.44772 6.5 2 6.94772 2 7.5C2 8.05228 2.44772 8.5 3 8.5V6.5ZM7.5 5.25L6.52381 5.03307L7.5 5.25ZM16.5 5.25L17.4762 5.03307L16.5 5.25ZM17.6069 16.9033L16.6177 16.7568V16.7568L17.6069 16.9033ZM19.9892 7.64655C20.0701 7.10023 19.6929 6.59173 19.1465 6.5108C18.6002 6.42986 18.0917 6.80713 18.0108 7.35345L19.9892 7.64655ZM6.3931 16.9033L7.3823 16.7568V16.7568L6.3931 16.9033ZM5.9892 7.35345C5.90827 6.80713 5.39977 6.42986 4.85345 6.5108C4.30713 6.59173 3.92986 7.10023 4.0108 7.64655L5.9892 7.35345ZM15.6544 20.7304L15.2402 19.8202L15.2402 19.8202L15.6544 20.7304ZM16.9306 19.6294L16.091 19.0862L16.9306 19.6294ZM8.34556 20.7304L8.7598 19.8202L8.7598 19.8202L8.34556 20.7304ZM7.06941 19.6294L7.90904 19.0862L7.90904 19.0862L7.06941 19.6294ZM20 8.5C20.5523 8.5 21 8.05228 21 7.5C21 6.94772 20.5523 6.5 20 6.5V8.5ZM4 6.5C3.44772 6.5 3 6.94772 3 7.5C3 8.05228 3.44772 8.5 4 8.5V6.5ZM10.3049 4H13.6951V2H10.3049V4ZM19.3049 8.5H21V6.5H19.3049V8.5ZM4.69511 6.5H3V8.5H4.69511V6.5ZM6.52381 5.03307C6.33334 5.89018 5.57313 6.5 4.69511 6.5V8.5C6.51053 8.5 8.08237 7.23911 8.47619 5.46693L6.52381 5.03307ZM15.5238 5.46693C15.9176 7.23911 17.4895 8.5 19.3049 8.5V6.5C18.4269 6.5 17.6667 5.89018 17.4762 5.03307L15.5238 5.46693ZM13.6951 4C14.5731 4 15.3333 4.60982 15.5238 5.46693L17.4762 5.03307C17.0824 3.26089 15.5105 2 13.6951 2V4ZM10.3049 2C8.48947 2 6.91763 3.26089 6.52381 5.03307L8.47619 5.46693C8.66666 4.60982 9.42687 4 10.3049 4V2ZM11.1413 21.9999H12.8587V19.9999H11.1413V21.9999ZM18.5961 17.0499L19.9892 7.64655L18.0108 7.35345L16.6177 16.7568L18.5961 17.0499ZM7.3823 16.7568L5.9892 7.35345L4.0108 7.64655L5.40389 17.0499L7.3823 16.7568ZM12.8587 21.9999C13.578 21.9999 14.1734 22.0006 14.6615 21.9633C15.1622 21.9251 15.6236 21.8431 16.0687 21.6406L15.2402 19.8202C15.0931 19.8872 14.8912 19.94 14.5093 19.9691C14.1149 19.9992 13.6085 19.9999 12.8587 19.9999V21.9999ZM16.6177 16.7568C16.5078 17.4984 16.4329 17.9993 16.3454 18.385C16.2605 18.7586 16.1787 18.9506 16.091 19.0862L17.7702 20.1725C18.0358 19.7619 18.1845 19.3175 18.2957 18.8279C18.4041 18.3505 18.4907 17.7614 18.5961 17.0499L16.6177 16.7568ZM16.0687 21.6406C16.7645 21.3239 17.355 20.8144 17.7702 20.1725L16.091 19.0862C15.8833 19.4072 15.5881 19.6619 15.2402 19.8202L16.0687 21.6406ZM11.1413 19.9999C10.3915 19.9999 9.88512 19.9992 9.4907 19.9691C9.10877 19.94 8.90687 19.8872 8.7598 19.8202L7.93131 21.6406C8.37639 21.8431 8.83783 21.9251 9.33846 21.9633C9.82659 22.0006 10.422 21.9999 11.1413 21.9999V19.9999ZM5.40389 17.0499C5.50931 17.7614 5.59589 18.3505 5.70429 18.8279C5.81546 19.3175 5.96416 19.7619 6.22978 20.1725L7.90904 19.0862C7.82127 18.9506 7.73946 18.7586 7.65465 18.385C7.56706 17.9993 7.49217 17.4984 7.3823 16.7568L5.40389 17.0499ZM8.7598 19.8202C8.4119 19.6619 8.11666 19.4072 7.90904 19.0862L6.22978 20.1725C6.64501 20.8144 7.2355 21.3239 7.93131 21.6406L8.7598 19.8202ZM20 6.5H4V8.5H20V6.5Z" fill="#0B0D12"/>
</svg>
