<svg width="24" height="24" viewBox="0 0 24 24" fill="none" xmlns="http://www.w3.org/2000/svg">
<path d="M3 20C2.44772 20 2 20.4477 2 21C2 21.5523 2.44772 22 3 22V20ZM21 22C21.5523 22 22 21.5523 22 21C22 20.4477 21.5523 20 21 20V22ZM8.68287 15.2361L9.51156 14.6763C9.35534 14.445 9.10957 14.2896 8.83365 14.2475C8.55774 14.2054 8.27679 14.2805 8.05872 14.4548L8.68287 15.2361ZM15.3171 15.2361L15.9413 14.4548C15.7232 14.2805 15.4423 14.2054 15.1663 14.2475C14.8904 14.2896 14.6447 14.445 14.4884 14.6763L15.3171 15.2361ZM11 11C11 11.5523 11.4477 12 12 12C12.5523 12 13 11.5523 13 11H11ZM5 11C5 11.5523 5.44772 12 6 12C6.55228 12 7 11.5523 7 11H5ZM17 11C17 11.5523 17.4477 12 18 12C18.5523 12 19 11.5523 19 11H17ZM4 14.9495L4.71424 14.2496L4 14.9495ZM8.05872 14.4548C7.63106 14.7964 7.09068 15 6.5 15V17C7.56047 17 8.53772 16.6319 9.30703 16.0174L8.05872 14.4548ZM12 16C10.9653 16 10.0524 15.477 9.51156 14.6763L7.85419 15.7958C8.75099 17.1235 10.273 18 12 18V16ZM17.5 15C16.9093 15 16.3689 14.7964 15.9413 14.4548L14.693 16.0174C15.4623 16.6319 16.4395 17 17.5 17V15ZM14.4884 14.6763C13.9476 15.477 13.0347 16 12 16V18C13.727 18 15.249 17.1235 16.1458 15.7958L14.4884 14.6763ZM4.5 12H19.5V10H4.5V12ZM19.5 12C19.7761 12 20 12.2239 20 12.5H22C22 11.1193 20.8807 10 19.5 10V12ZM4 12.5C4 12.2239 4.22386 12 4.5 12V10C3.11929 10 2 11.1193 2 12.5H4ZM13 11V6H11V11H13ZM7 11V6H5L5 11H7ZM19 11V6H17V11H19ZM12 4.8C12 4.90962 11.9625 4.98005 11.9389 5.00834C11.928 5.02143 11.9251 5.01983 11.9366 5.01398C11.9499 5.00726 11.9727 5 12 5V7C13.2675 7 14 5.83657 14 4.8H12ZM12 5C12.0273 5 12.0501 5.00726 12.0634 5.01398C12.0749 5.01983 12.072 5.02143 12.0611 5.00834C12.0375 4.98005 12 4.90962 12 4.8H10C10 5.83657 10.7325 7 12 7V5ZM12 4.8C12 4.7372 12.0121 4.62638 12.048 4.48465C12.083 4.34645 12.1331 4.20878 12.1899 4.09357C12.2501 3.97132 12.2979 3.91472 12.3099 3.90308C12.3265 3.88685 12.2208 4 12 4V2C11.5031 2 11.1343 2.25531 10.9117 2.47303C10.6843 2.69533 10.5166 2.96446 10.3959 3.20937C10.1592 3.68968 10 4.29028 10 4.8H12ZM12 4C11.7792 4 11.6735 3.88685 11.6901 3.90308C11.7021 3.91472 11.7499 3.97132 11.8101 4.09357C11.8669 4.20878 11.917 4.34645 11.952 4.48465C11.9879 4.62638 12 4.7372 12 4.8H14C14 4.29028 13.8408 3.68968 13.6041 3.20937C13.4834 2.96446 13.3157 2.69533 13.0883 2.47303C12.8657 2.25531 12.4969 2 12 2V4ZM6 4.8C6 4.90962 5.96247 4.98005 5.93889 5.00834C5.92798 5.02143 5.92513 5.01983 5.93665 5.01398C5.94989 5.00726 5.97273 5 6 5V7C7.26754 7 8 5.83657 8 4.8H6ZM6 5C6.02727 5 6.05011 5.00726 6.06335 5.01398C6.07487 5.01983 6.07202 5.02143 6.06111 5.00834C6.03753 4.98005 6 4.90962 6 4.8H4C4 5.83657 4.73246 7 6 7V5ZM6 4.8C6 4.7372 6.01209 4.62638 6.04798 4.48465C6.08298 4.34645 6.13308 4.20878 6.18986 4.09357C6.25011 3.97132 6.29794 3.91472 6.30985 3.90308C6.32645 3.88685 6.22078 4 6 4V2C5.50307 2 5.13433 2.25531 4.91166 2.47303C4.68429 2.69533 4.51664 2.96446 4.39593 3.20937C4.15919 3.68968 4 4.29028 4 4.8H6ZM6 4C5.77922 4 5.67355 3.88685 5.69015 3.90308C5.70206 3.91472 5.74989 3.97132 5.81014 4.09357C5.86692 4.20878 5.91702 4.34645 5.95202 4.48465C5.98791 4.62638 6 4.7372 6 4.8H8C8 4.29028 7.84081 3.68968 7.60407 3.20937C7.48336 2.96446 7.31571 2.69533 7.08834 2.47303C6.86567 2.25531 6.49693 2 6 2V4ZM18 4.8C18 4.90962 17.9625 4.98005 17.9389 5.00834C17.928 5.02143 17.9251 5.01983 17.9366 5.01398C17.9499 5.00726 17.9727 5 18 5V7C19.2675 7 20 5.83657 20 4.8H18ZM18 5C18.0273 5 18.0501 5.00726 18.0634 5.01398C18.0749 5.01983 18.072 5.02143 18.0611 5.00834C18.0375 4.98005 18 4.90962 18 4.8H16C16 5.83657 16.7325 7 18 7V5ZM18 4.8C18 4.7372 18.0121 4.62638 18.048 4.48465C18.083 4.34645 18.1331 4.20878 18.1899 4.09357C18.2501 3.97132 18.2979 3.91472 18.3099 3.90308C18.3265 3.88685 18.2208 4 18 4V2C17.5031 2 17.1343 2.25531 16.9117 2.47303C16.6843 2.69533 16.5166 2.96446 16.3959 3.20937C16.1592 3.68968 16 4.29028 16 4.8H18ZM18 4C17.7792 4 17.6735 3.88685 17.6901 3.90308C17.7021 3.91472 17.7499 3.97132 17.8101 4.09357C17.8669 4.20878 17.917 4.34645 17.952 4.48465C17.9879 4.62638 18 4.7372 18 4.8H20C20 4.29028 19.8408 3.68968 19.6041 3.20937C19.4834 2.96446 19.3157 2.69533 19.0883 2.47303C18.8657 2.25531 18.4969 2 18 2V4ZM3 22H4V20H3V22ZM4 22H20V20H4V22ZM20 22H21V20H20V22ZM6.5 15C5.80026 15 5.16916 14.7138 4.71424 14.2496L3.28576 15.6494C4.10136 16.4817 5.24105 17 6.5 17V15ZM4.71424 14.2496C4.27139 13.7977 4 13.1815 4 12.5H2C2 13.7258 2.49143 14.8388 3.28576 15.6494L4.71424 14.2496ZM5 21V14.9495H3V21H5ZM20 12.5C20 13.1815 19.7286 13.7977 19.2858 14.2496L20.7142 15.6494C21.5086 14.8388 22 13.7258 22 12.5H20ZM19.2858 14.2496C18.8308 14.7138 18.1997 15 17.5 15V17C18.7589 17 19.8986 16.4817 20.7142 15.6494L19.2858 14.2496ZM19 14.9495V21H21V14.9495H19Z" fill="#0B0D12"/>
</svg>
