<svg width="24" height="24" viewBox="0 0 24 24" fill="none" xmlns="http://www.w3.org/2000/svg">
<path d="M3.88996 11.7378L9.7335 4.43401C10.4496 3.53896 10.8077 3.09143 11.1594 3.01988C11.4649 2.95776 11.7818 3.04304 12.0148 3.25008C12.2831 3.48851 12.3681 4.05528 12.5382 5.18883L12.9337 7.82559C12.9983 8.25637 13.0306 8.47175 13.1323 8.64063C13.222 8.78966 13.3494 8.91243 13.5016 8.9966C13.6741 9.09198 13.8906 9.11637 14.3235 9.16514L19.05 9.69766C19.9811 9.80256 20.4466 9.85501 20.6863 10.0793C20.8952 10.2747 21.0093 10.5509 20.9994 10.8368C20.988 11.1648 20.6953 11.5306 20.11 12.2622L14.2664 19.566C13.5503 20.461 13.1922 20.9086 12.8405 20.9801C12.535 21.0422 12.2182 20.957 11.9851 20.7499C11.7168 20.5115 11.6318 19.9447 11.4618 18.8112L11.0662 16.1744C11.0016 15.7436 10.9693 15.5282 10.8676 15.3594C10.7779 15.2103 10.6505 15.0876 10.4983 15.0034C10.3258 14.908 10.1094 14.8836 9.67645 14.8348L4.94998 14.3023C4.01892 14.1974 3.55339 14.145 3.31373 13.9207C3.10483 13.7253 2.99066 13.4491 3.0006 13.1632C3.012 12.8352 3.30465 12.4694 3.88996 11.7378Z" stroke="#0B0D12" stroke-width="2" stroke-linecap="round" stroke-linejoin="round"/>
</svg>
