<svg width="24" height="24" viewBox="0 0 24 24" fill="none" xmlns="http://www.w3.org/2000/svg">
<g clip-path="url(#clip0_6_818)">
<path d="M15 3C15.7957 3 16.5587 3.31607 17.1213 3.87868C17.6839 4.44129 18 5.20435 18 6C18.4934 5.99989 18.9791 6.12146 19.4142 6.35392C19.8494 6.58638 20.2205 6.92256 20.4947 7.33269C20.7689 7.74282 20.9377 8.21424 20.9861 8.70519C21.0346 9.19614 20.9613 9.69147 20.7726 10.1473C20.5839 10.6031 20.2858 11.0054 19.9045 11.3185C19.5232 11.6316 19.0706 11.8458 18.5868 11.9422C18.103 12.0386 17.6028 12.0142 17.1307 11.8711C16.6585 11.728 16.229 11.4707 15.88 11.122L11.122 15.88C11.4654 16.2237 11.7202 16.6456 11.8645 17.1095C12.0088 17.5734 12.0382 18.0654 11.9503 18.5433C11.8624 19.0211 11.6598 19.4704 11.3598 19.8526C11.0599 20.2347 10.6716 20.5384 10.2284 20.7373C9.78518 20.9363 9.30027 21.0246 8.81536 20.9948C8.33045 20.9649 7.86005 20.8177 7.4446 20.5658C7.02915 20.314 6.68108 19.965 6.43032 19.5489C6.17956 19.1328 6.03361 18.662 6.00502 18.177V18H5.82902C5.34385 17.9716 4.87286 17.8257 4.45656 17.5749C4.04025 17.3242 3.6911 16.976 3.43915 16.5604C3.1872 16.1448 3.03998 15.6743 3.01017 15.1892C2.98035 14.7041 3.06884 14.219 3.268 13.7757C3.46717 13.3324 3.77105 12.9441 4.15352 12.6442C4.53598 12.3444 4.98556 12.1419 5.4636 12.0543C5.94163 11.9667 6.43379 11.9965 6.89775 12.1412C7.3617 12.2859 7.78356 12.5412 8.12702 12.885L12.885 8.127C12.4653 7.70756 12.1794 7.17307 12.0635 6.59114C11.9475 6.0092 12.0068 5.40595 12.2337 4.85769C12.4606 4.30943 12.8451 3.84077 13.3384 3.51099C13.8316 3.18121 14.4116 3.00513 15.005 3.005L15 3Z" stroke="#0EA306" stroke-width="1.5" stroke-linecap="round" stroke-linejoin="round"/>
</g>
<defs>
<clipPath id="clip0_6_818">
<rect width="24" height="24" fill="white"/>
</clipPath>
</defs>
</svg>
