<svg width="24" height="24" viewBox="0 0 24 24" fill="none" xmlns="http://www.w3.org/2000/svg">
<path d="M9.6 3.00006V3.11C9.6 3.97329 9.28045 4.80602 8.70294 5.44769C7.76569 6.48909 7.76569 8.17753 8.70294 9.21893C9.6085 10.2251 11.0577 10.2591 12 9.32103C12.9423 10.2591 14.3915 10.2251 15.2971 9.21893C16.2343 8.17753 16.2343 6.48909 15.2971 5.44769C14.7195 4.80602 14.4 3.97329 14.4 3.11V3.00006M9.6 21V20.89C9.6 20.0267 9.28045 19.1939 8.70294 18.5523C7.76569 17.5109 7.76569 15.8224 8.70294 14.781C9.6085 13.7749 11.0577 13.7408 12 14.6789C12.9423 13.7408 14.3915 13.7749 15.2971 14.781C16.2343 15.8224 16.2343 17.5109 15.2971 18.5523C14.7195 19.1939 14.4 20.0267 14.4 20.89V21" stroke="#0B0D12" stroke-width="2" stroke-linecap="round" stroke-linejoin="round"/>
</svg>
