<svg width="24" height="24" viewBox="0 0 24 24" fill="none" xmlns="http://www.w3.org/2000/svg">
<path fill-rule="evenodd" clip-rule="evenodd" d="M20.9995 8.4994C20.9994 10.1562 19.6561 11.4993 17.9993 11.4992C17.1943 11.4992 16.4222 11.819 15.853 12.3882L12.3885 15.8533C11.8192 16.4226 11.4994 17.1948 11.4994 18C11.4994 19.6569 10.1562 21 8.49939 21C7.00041 21 5.75821 19.9006 5.53509 18.4642C4.09901 18.2408 3 16.9987 3 15.5C3 13.8431 4.34315 12.5 6 12.5C6.80459 12.5 7.57623 12.1803 8.14512 11.6114L11.6108 8.14516C12.1799 7.576 12.4996 6.80416 12.4998 5.99932C12.5002 4.34247 13.8436 2.9996 15.5004 2.99994C16.9989 3.00025 18.2406 4.09916 18.464 5.53496C19.9003 5.75824 20.9995 7.00047 20.9995 8.4994Z" stroke="#0B0D12" stroke-width="2" stroke-linecap="round" stroke-linejoin="round"/>
</svg>
