<svg width="24" height="24" viewBox="0 0 24 24" fill="none" xmlns="http://www.w3.org/2000/svg">
<path d="M3 17.228L4.15429 16.0735C4.66014 15.5676 4.94439 14.8816 4.94453 14.1661C4.94484 12.6934 6.13903 11.4997 7.61183 11.5C8.94386 11.5003 10.0476 12.4771 10.2462 13.7534C11.523 13.9518 12.5001 15.056 12.5 16.3884C12.4999 17.8612 11.3059 19.055 9.83309 19.0549C9.1175 19.0549 8.43122 19.3391 7.92526 19.8451L6.77051 21M21 6.77062L19.8456 7.92517C19.3395 8.43128 19.0552 9.11767 19.0552 9.83337C19.0552 11.3061 17.8613 12.5 16.3885 12.5C15.056 12.5 13.9518 11.5228 13.7535 10.246C12.4769 10.0474 11.5 8.94335 11.5 7.61115C11.5 6.1384 12.6939 4.9445 14.1667 4.9445C14.882 4.9445 15.5679 4.66036 16.0736 4.15461L17.2279 3.00012" stroke="#0B0D12" stroke-width="2" stroke-linecap="round" stroke-linejoin="round"/>
</svg>
