<svg width="24" height="24" viewBox="0 0 24 24" fill="none" xmlns="http://www.w3.org/2000/svg">
<path fill-rule="evenodd" clip-rule="evenodd" d="M12 3.76382C13.1779 2.70845 14.9894 2.74673 16.1213 3.87868C17.2929 5.05025 17.2929 6.94975 16.1213 8.12132C15.4034 8.83929 15 9.81306 15 10.8284V13.1716C15 14.1869 15.4034 15.1607 16.1213 15.8787C17.2929 17.0503 17.2929 18.9497 16.1213 20.1213C14.9894 21.2533 13.1779 21.2916 12 20.2362C10.8221 21.2916 9.01063 21.2533 7.87868 20.1213C6.70711 18.9497 6.70711 17.0503 7.87868 15.8787C8.59665 15.1607 9 14.1869 9 13.1716V10.8284C9 9.81306 8.59665 8.83929 7.87868 8.12132C6.70711 6.94975 6.70711 5.05025 7.87868 3.87868C9.01063 2.74673 10.8221 2.70845 12 3.76382Z" stroke="#0B0D12" stroke-width="2" stroke-linecap="round" stroke-linejoin="round"/>
</svg>
