<svg width="24" height="24" viewBox="0 0 24 24" fill="none" xmlns="http://www.w3.org/2000/svg">
<path d="M17.9993 11.4992L17.9993 10.4992H17.9993L17.9993 11.4992ZM20.9995 8.4994L21.9995 8.49946L20.9995 8.4994ZM15.5004 2.99994L15.5002 3.99994L15.5004 2.99994ZM12.4998 5.99932L13.4998 5.99953V5.99953L12.4998 5.99932ZM18.464 5.53496L17.4759 5.68871C17.5428 6.11882 17.8803 6.45623 18.3104 6.52309L18.464 5.53496ZM11.6108 8.14512L12.3179 8.8522L11.6108 8.14512ZM6.87809 12.8781L6.17096 12.1711C5.9465 12.3955 5.84196 12.7132 5.88925 13.0271C5.93654 13.341 6.13005 13.6138 6.41068 13.7622L6.87809 12.8781ZM11.1207 17.1208L10.6534 18.0049C11.0413 18.2099 11.5176 18.1382 11.8278 17.8279L11.1207 17.1208ZM15.853 12.3882L15.1459 11.6811L15.853 12.3882ZM9 14H10C10 13.6294 9.79504 13.2892 9.46741 13.116L9 14ZM9 16H8C8 16.3707 8.20503 16.711 8.53274 16.8842L9 16ZM3.29289 19.2929C2.90237 19.6834 2.90237 20.3166 3.29289 20.7071C3.68342 21.0976 4.31658 21.0976 4.70711 20.7071L3.29289 19.2929ZM6.70711 18.7071C7.09763 18.3166 7.09763 17.6834 6.70711 17.2929C6.31658 16.9024 5.68342 16.9024 5.29289 17.2929L6.70711 18.7071ZM10 19.5C10 18.9477 9.55228 18.5 9 18.5C8.44772 18.5 8 18.9477 8 19.5H10ZM8 21C8 21.5523 8.44772 22 9 22C9.55228 22 10 21.5523 10 21H8ZM4.5 16C5.05228 16 5.5 15.5523 5.5 15C5.5 14.4477 5.05228 14 4.5 14V16ZM3 14C2.44772 14 2 14.4477 2 15C2 15.5523 2.44772 16 3 16V14ZM17.9992 12.4992C20.2083 12.4993 21.9993 10.7086 21.9995 8.49946L19.9995 8.49933C19.9994 9.6039 19.1039 10.4993 17.9993 10.4992L17.9992 12.4992ZM15.5006 1.99994C13.2915 1.99948 11.5003 3.78998 11.4998 5.99911L13.4998 5.99953C13.5 4.89496 14.3957 3.99971 15.5002 3.99994L15.5006 1.99994ZM19.4521 5.3812C19.1541 3.46596 17.4996 2.00035 15.5006 1.99994L15.5002 3.99994C16.4983 4.00014 17.3271 4.73237 17.4759 5.68871L19.4521 5.3812ZM21.9995 8.49946C21.9996 6.49997 20.5336 4.84466 18.6176 4.54682L18.3104 6.52309C19.2671 6.67181 19.9995 7.50098 19.9995 8.49933L21.9995 8.49946ZM10.9036 7.43804L6.17096 12.1711L7.58522 13.5852L12.3179 8.8522L10.9036 7.43804ZM11.8278 17.8279L16.5601 13.0953L15.1459 11.6811L10.4136 16.4137L11.8278 17.8279ZM6.41068 13.7622L8.53259 14.8841L9.46741 13.116L7.3455 11.9941L6.41068 13.7622ZM8 14V16H10V14H8ZM8.53274 16.8842L10.6534 18.0049L11.5879 16.2367L9.46726 15.1159L8.53274 16.8842ZM11.4998 5.99911C11.4997 6.53882 11.2853 7.05639 10.9036 7.43804L12.3179 8.8522C13.0745 8.09559 13.4996 7.0695 13.4998 5.99953L11.4998 5.99911ZM17.9993 10.4992C16.9291 10.4991 15.9026 10.9243 15.1459 11.6811L16.5601 13.0953C16.9418 12.7136 17.4594 12.4992 17.9992 12.4992L17.9993 10.4992ZM4.70711 20.7071L6.70711 18.7071L5.29289 17.2929L3.29289 19.2929L4.70711 20.7071ZM8 19.5V21H10V19.5H8ZM4.5 14H3V16H4.5V14Z" fill="#0B0D12"/>
</svg>
