<svg width="24" height="24" viewBox="0 0 24 24" fill="none" xmlns="http://www.w3.org/2000/svg">
<path d="M20 17C20.5523 17 21 16.5523 21 16C21 15.4477 20.5523 15 20 15V17ZM18.362 3.32698L18.816 2.43597V2.43597L18.362 3.32698ZM19.673 4.63803L18.782 5.09202V5.09202L19.673 4.63803ZM5.63803 3.32698L6.09202 4.21799L5.63803 3.32698ZM4.32698 4.63803L5.21799 5.09202L4.32698 4.63803ZM7 16C7 16.5523 7.44772 17 8 17C8.55228 17 9 16.5523 9 16H7ZM9 3C9 2.44772 8.55228 2 8 2C7.44772 2 7 2.44772 7 3H9ZM12.3627 8.39836L11.9057 7.5089L12.3627 8.39836ZM12.676 8.20972L11.995 7.47745L12.676 8.20972ZM12.8984 7.86274L12.0089 7.40573L12.8984 7.86274ZM12.7097 8.17601L11.9774 7.49499L12.7097 8.17601ZM12.3627 10.6016L11.9057 11.4911L12.3627 10.6016ZM11.0054 9.58386L11.9972 9.45634L11.0054 9.58386ZM11.0054 9.41614L11.9972 9.54366L11.0054 9.41614ZM12.8984 11.1373L12.0089 11.5943L12.8984 11.1373ZM12.7097 10.824L11.9774 11.505L12.7097 10.824ZM12.676 10.7903L11.995 11.5226L12.676 10.7903ZM15.1016 11.1373L14.2122 10.6803L15.1016 11.1373ZM14.0839 12.4946L13.9563 11.5028L14.0839 12.4946ZM13.9161 12.4946L13.7886 13.4865L13.9161 12.4946ZM15.6373 10.6016L16.0943 11.4911L15.6373 10.6016ZM15.324 10.7903L16.005 11.5226L15.324 10.7903ZM15.2903 10.824L16.0226 11.505L15.2903 10.824ZM15.6373 8.39836L16.0943 7.5089L15.6373 8.39836ZM16.9946 9.41614L17.9865 9.28863L16.9946 9.41614ZM16.9946 9.58386L16.0028 9.45634L16.9946 9.58386ZM15.1016 7.86274L15.9911 7.40573L15.1016 7.86274ZM15.2903 8.17601L16.0226 7.49499L15.2903 8.17601ZM15.324 8.20972L16.005 7.47745L15.324 8.20972ZM14.0839 6.50537L13.9563 7.49721L14.0839 6.50537ZM13.9161 6.50537L14.0437 7.49721L13.9161 6.50537ZM17.5 20H6.5V22H17.5V20ZM6.5 17H20V15H6.5V17ZM6.5 20C5.67157 20 5 19.3284 5 18.5H3C3 20.433 4.567 22 6.5 22V20ZM17.5 22C19.433 22 21 20.433 21 18.5H19C19 19.3284 18.3284 20 17.5 20V22ZM5 18.5C5 17.6716 5.67157 17 6.5 17V15C4.567 15 3 16.567 3 18.5H5ZM8.8 4H15.2V2H8.8V4ZM19 7.8V18.5H21V7.8H19ZM5 18.5V7.8H3V18.5H5ZM15.2 4C16.0566 4 16.6389 4.00078 17.089 4.03755C17.5274 4.07337 17.7516 4.1383 17.908 4.21799L18.816 2.43597C18.3306 2.18868 17.8139 2.09012 17.2518 2.04419C16.7014 1.99922 16.0236 2 15.2 2V4ZM21 7.8C21 6.97642 21.0008 6.2986 20.9558 5.74817C20.9099 5.18608 20.8113 4.66937 20.564 4.18404L18.782 5.09202C18.8617 5.24842 18.9266 5.47262 18.9624 5.91104C18.9992 6.36113 19 6.94342 19 7.8H21ZM17.908 4.21799C18.2843 4.40973 18.5903 4.7157 18.782 5.09202L20.564 4.18404C20.1805 3.43139 19.5686 2.81947 18.816 2.43597L17.908 4.21799ZM8.8 2C7.97642 2 7.2986 1.99922 6.74817 2.04419C6.18608 2.09012 5.66937 2.18868 5.18404 2.43597L6.09202 4.21799C6.24842 4.1383 6.47262 4.07337 6.91104 4.03755C7.36113 4.00078 7.94342 4 8.8 4V2ZM5 7.8C5 6.94342 5.00078 6.36113 5.03755 5.91104C5.07337 5.47262 5.1383 5.24842 5.21799 5.09202L3.43597 4.18404C3.18868 4.66937 3.09012 5.18608 3.04419 5.74817C2.99922 6.2986 3 6.97642 3 7.8H5ZM5.18404 2.43597C4.43139 2.81947 3.81947 3.43139 3.43597 4.18404L5.21799 5.09202C5.40973 4.71569 5.71569 4.40973 6.09202 4.21799L5.18404 2.43597ZM9 16V3H7V16H9ZM12.8197 9.28782C12.9358 9.2282 13.1661 9.11958 13.357 8.94199L11.995 7.47745C12.013 7.46066 12.0296 7.44769 12.0421 7.43882C12.0534 7.43078 12.0584 7.42815 12.052 7.43194C12.0449 7.43606 12.0312 7.44369 12.0053 7.45739C11.9791 7.47121 11.9482 7.48707 11.9057 7.5089L12.8197 9.28782ZM12.0089 7.40573C11.9871 7.44821 11.9712 7.47906 11.9574 7.50526C11.9437 7.53125 11.9361 7.54488 11.9319 7.55195C11.9281 7.55844 11.9308 7.55338 11.9388 7.54209C11.9477 7.52963 11.9607 7.51305 11.9774 7.49499L13.442 8.85703C13.6196 8.66606 13.7282 8.43578 13.7878 8.31975L12.0089 7.40573ZM13.357 8.94199C13.3864 8.91469 13.4147 8.88635 13.442 8.85703L11.9774 7.49499C11.9831 7.48895 11.9889 7.48309 11.995 7.47745L13.357 8.94199ZM12.8197 9.71218C12.3555 9.47363 12.0987 9.33936 11.9415 9.23048C11.7765 9.11627 11.9629 9.18985 11.9972 9.45634L10.0135 9.71137C10.0919 10.3209 10.5193 10.6784 10.8031 10.8749C11.0946 11.0767 11.4945 11.2798 11.9057 11.4911L12.8197 9.71218ZM11.9057 7.5089C11.4945 7.72019 11.0946 7.9233 10.8031 8.1251C10.5193 8.32156 10.0919 8.67912 10.0135 9.28863L11.9972 9.54366C11.9629 9.81015 11.7765 9.88373 11.9415 9.76952C12.0987 9.66064 12.3555 9.52637 12.8197 9.28782L11.9057 7.5089ZM11.9972 9.45634C12.0009 9.48533 12.0009 9.51467 11.9972 9.54366L10.0135 9.28863C9.99549 9.42897 9.99549 9.57103 10.0135 9.71137L11.9972 9.45634ZM13.7878 10.6803C13.7282 10.5642 13.6196 10.3339 13.442 10.143L11.9774 11.505C11.9607 11.487 11.9477 11.4704 11.9388 11.4579C11.9308 11.4466 11.9281 11.4416 11.9319 11.4481C11.9361 11.4551 11.9437 11.4688 11.9574 11.4947C11.9712 11.5209 11.9871 11.5518 12.0089 11.5943L13.7878 10.6803ZM11.9057 11.4911C11.9482 11.5129 11.9791 11.5288 12.0053 11.5426C12.0312 11.5563 12.0449 11.5639 12.0519 11.5681C12.0584 11.5718 12.0534 11.5692 12.0421 11.5612C12.0296 11.5523 12.013 11.5393 11.995 11.5226L13.357 10.058C13.1661 9.88042 12.9358 9.7718 12.8197 9.71218L11.9057 11.4911ZM13.442 10.143C13.4147 10.1136 13.3863 10.0853 13.357 10.058L11.995 11.5226C11.989 11.5169 11.9831 11.5111 11.9774 11.505L13.442 10.143ZM14.2122 10.6803C13.9736 11.1445 13.8394 11.4013 13.7305 11.5585C13.6163 11.7235 13.6899 11.5371 13.9563 11.5028L14.2114 13.4865C14.8209 13.4081 15.1784 12.9807 15.3749 12.6969C15.5767 12.4054 15.7798 12.0055 15.9911 11.5943L14.2122 10.6803ZM12.0089 11.5943C12.2202 12.0055 12.4233 12.4054 12.6251 12.6969C12.8216 12.9807 13.1791 13.4081 13.7886 13.4865L14.0437 11.5028C14.3101 11.5371 14.3837 11.7235 14.2695 11.5585C14.1606 11.4013 14.0264 11.1445 13.7878 10.6803L12.0089 11.5943ZM13.9563 11.5028C13.9853 11.4991 14.0147 11.4991 14.0437 11.5028L13.7886 13.4865C13.929 13.5045 14.071 13.5045 14.2114 13.4865L13.9563 11.5028ZM15.1803 9.71218C15.0642 9.7718 14.8339 9.88042 14.643 10.058L16.005 11.5226C15.987 11.5393 15.9704 11.5523 15.9579 11.5612C15.9466 11.5692 15.9416 11.5718 15.9481 11.5681C15.9551 11.5639 15.9688 11.5563 15.9947 11.5426C16.0209 11.5288 16.0518 11.5129 16.0943 11.4911L15.1803 9.71218ZM15.9911 11.5943C16.0129 11.5518 16.0288 11.5209 16.0426 11.4947C16.0563 11.4688 16.0639 11.4551 16.0681 11.4481C16.0719 11.4416 16.0692 11.4466 16.0612 11.4579C16.0523 11.4704 16.0393 11.487 16.0226 11.505L14.558 10.143C14.3804 10.3339 14.2718 10.5642 14.2122 10.6803L15.9911 11.5943ZM14.643 10.058C14.6137 10.0853 14.5853 10.1136 14.558 10.143L16.0226 11.505C16.0169 11.5111 16.011 11.5169 16.005 11.5226L14.643 10.058ZM15.1803 9.28782C15.6445 9.52637 15.9013 9.66064 16.0585 9.76952C16.2235 9.88373 16.0371 9.81015 16.0028 9.54366L17.9865 9.28863C17.9081 8.67912 17.4807 8.32156 17.1969 8.1251C16.9054 7.9233 16.5055 7.72019 16.0943 7.5089L15.1803 9.28782ZM16.0943 11.4911C16.5055 11.2798 16.9054 11.0767 17.1969 10.8749C17.4807 10.6784 17.9081 10.3209 17.9865 9.71137L16.0028 9.45634C16.0371 9.18985 16.2235 9.11627 16.0585 9.23048C15.9013 9.33936 15.6445 9.47363 15.1803 9.71218L16.0943 11.4911ZM16.0028 9.54366C15.9991 9.51467 15.9991 9.48533 16.0028 9.45634L17.9865 9.71137C18.0045 9.57103 18.0045 9.42897 17.9865 9.28863L16.0028 9.54366ZM14.2122 8.31975C14.2718 8.43578 14.3804 8.66606 14.558 8.85703L16.0226 7.49499C16.0393 7.51305 16.0523 7.52963 16.0612 7.54209C16.0692 7.55338 16.0719 7.55844 16.0681 7.55195C16.0639 7.54488 16.0563 7.53125 16.0426 7.50526C16.0288 7.47906 16.0129 7.44821 15.9911 7.40573L14.2122 8.31975ZM16.0943 7.5089C16.0518 7.48707 16.0209 7.47121 15.9947 7.45739C15.9688 7.44369 15.9551 7.43607 15.9481 7.43194C15.9416 7.42815 15.9466 7.43078 15.9579 7.43882C15.9704 7.44769 15.987 7.46066 16.005 7.47745L14.643 8.94199C14.8339 9.11958 15.0642 9.2282 15.1803 9.28782L16.0943 7.5089ZM14.558 8.85703C14.5853 8.88637 14.6136 8.91471 14.643 8.94199L16.005 7.47745C16.0111 7.48307 16.0169 7.48892 16.0226 7.49499L14.558 8.85703ZM15.9911 7.40573C15.7798 6.9945 15.5767 6.5946 15.3749 6.30309C15.1784 6.01929 14.8209 5.59189 14.2114 5.51353L13.9563 7.49721C13.6899 7.46294 13.6163 7.27647 13.7305 7.44146C13.8394 7.59873 13.9736 7.85547 14.2122 8.31975L15.9911 7.40573ZM13.7878 8.31975C14.0264 7.85547 14.1606 7.59873 14.2695 7.44146C14.3837 7.27647 14.3101 7.46294 14.0437 7.49721L13.7886 5.51353C13.1791 5.59189 12.8216 6.01929 12.6251 6.30309C12.4233 6.5946 12.2202 6.9945 12.0089 7.40573L13.7878 8.31975ZM14.2114 5.51353C14.071 5.49549 13.929 5.49549 13.7886 5.51353L14.0437 7.49721C14.0147 7.50093 13.9853 7.50093 13.9563 7.49721L14.2114 5.51353Z" fill="#0B0D12"/>
</svg>
