<svg width="24" height="24" viewBox="0 0 24 24" fill="none" xmlns="http://www.w3.org/2000/svg">
<path d="M20 17C20.5523 17 21 16.5523 21 16C21 15.4477 20.5523 15 20 15V17ZM18.362 3.32698L18.816 2.43597V2.43597L18.362 3.32698ZM19.673 4.63803L18.782 5.09202V5.09202L19.673 4.63803ZM5.63803 3.32698L6.09202 4.21799L5.63803 3.32698ZM4.32698 4.63803L5.21799 5.09202L4.32698 4.63803ZM7 16C7 16.5523 7.44772 17 8 17C8.55228 17 9 16.5523 9 16H7ZM9 3C9 2.44772 8.55228 2 8 2C7.44772 2 7 2.44772 7 3H9ZM17.5 20H6.5V22H17.5V20ZM6.5 17H20V15H6.5V17ZM6.5 20C5.67157 20 5 19.3284 5 18.5H3C3 20.433 4.567 22 6.5 22V20ZM17.5 22C19.433 22 21 20.433 21 18.5H19C19 19.3284 18.3284 20 17.5 20V22ZM5 18.5C5 17.6716 5.67157 17 6.5 17V15C4.567 15 3 16.567 3 18.5H5ZM8.8 4H15.2V2H8.8V4ZM19 7.8V18.5H21V7.8H19ZM5 18.5V7.8H3V18.5H5ZM15.2 4C16.0566 4 16.6389 4.00078 17.089 4.03755C17.5274 4.07337 17.7516 4.1383 17.908 4.21799L18.816 2.43597C18.3306 2.18868 17.8139 2.09012 17.2518 2.04419C16.7014 1.99922 16.0236 2 15.2 2V4ZM21 7.8C21 6.97642 21.0008 6.2986 20.9558 5.74817C20.9099 5.18608 20.8113 4.66937 20.564 4.18404L18.782 5.09202C18.8617 5.24842 18.9266 5.47262 18.9624 5.91104C18.9992 6.36113 19 6.94342 19 7.8H21ZM17.908 4.21799C18.2843 4.40973 18.5903 4.7157 18.782 5.09202L20.564 4.18404C20.1805 3.43139 19.5686 2.81947 18.816 2.43597L17.908 4.21799ZM8.8 2C7.97642 2 7.2986 1.99922 6.74817 2.04419C6.18608 2.09012 5.66937 2.18868 5.18404 2.43597L6.09202 4.21799C6.24842 4.1383 6.47262 4.07337 6.91104 4.03755C7.36113 4.00078 7.94342 4 8.8 4V2ZM5 7.8C5 6.94342 5.00078 6.36113 5.03755 5.91104C5.07337 5.47262 5.1383 5.24842 5.21799 5.09202L3.43597 4.18404C3.18868 4.66937 3.09012 5.18608 3.04419 5.74817C2.99922 6.2986 3 6.97642 3 7.8H5ZM5.18404 2.43597C4.43139 2.81947 3.81947 3.43139 3.43597 4.18404L5.21799 5.09202C5.40973 4.71569 5.71569 4.40973 6.09202 4.21799L5.18404 2.43597ZM9 16V3H7V16H9Z" fill="#0B0D12"/>
</svg>
