<svg width="24" height="24" viewBox="0 0 24 24" fill="none" xmlns="http://www.w3.org/2000/svg">
<path d="M8.50004 20.9987C6.84297 20.991 5.91661 20.9373 5.18408 20.564C4.43143 20.1805 3.81951 19.5686 3.43602 18.816C3.06278 18.0834 3.00907 17.1571 3.00134 15.5M15.5001 20.9987C17.1571 20.991 18.0835 20.9373 18.816 20.564C19.5687 20.1805 20.1806 19.5686 20.5641 18.816C20.9373 18.0834 20.991 17.1571 20.9987 15.5M15.5 3.00131C17.1571 3.00904 18.0835 3.06275 18.816 3.43599C19.5687 3.81948 20.1806 4.4314 20.5641 5.18405C20.9373 5.91658 20.991 6.84293 20.9987 8.49999M8.50004 3.00131C6.84297 3.00904 5.91661 3.06275 5.18408 3.43599C4.43143 3.81948 3.81951 4.4314 3.43602 5.18405C3.06278 5.91658 3.00907 6.84293 3.00134 8.49999" stroke="#0B0D12" stroke-width="2" stroke-linecap="round" stroke-linejoin="round"/>
</svg>
