<svg width="24" height="24" viewBox="0 0 24 24" fill="none" xmlns="http://www.w3.org/2000/svg">
<path d="M12 10.364C12.5523 10.364 13 9.91625 13 9.36396C13 8.81168 12.5523 8.36396 12 8.36396C11.4477 8.36396 11 8.81168 11 9.36396C11 9.91625 11.4477 10.364 12 10.364ZM12 10.364V21M15.5355 5.82843C16.4404 6.73325 17 7.98325 17 9.36396C17 10.7447 16.4404 11.9947 15.5355 12.8995M18.364 3C19.9926 4.62868 21 6.87868 21 9.36396C21 11.8492 19.9926 14.0992 18.364 15.7279M8.46447 12.8995C7.55964 11.9947 7 10.7447 7 9.36396C7 7.98325 7.55964 6.73325 8.46447 5.82843M5.63604 15.7279C4.00736 14.0992 3 11.8492 3 9.36396C3 6.87868 4.00736 4.62868 5.63604 3" stroke="#0B0D12" stroke-width="2" stroke-linecap="round" stroke-linejoin="round"/>
</svg>
