<svg width="24" height="24" viewBox="0 0 24 24" fill="none" xmlns="http://www.w3.org/2000/svg">
<path d="M20.173 8.15917L19.4096 7.51323L20.173 8.15917ZM15.8408 3.82699L16.4868 4.59037V4.59037L15.8408 3.82699ZM3.97644 20.9997L3.95288 21.9994L3.95288 21.9994L3.97644 20.9997ZM3.00028 20.0235L4 20L3.00028 20.0235ZM11 6.99999C10.4477 6.99999 10 7.4477 10 7.99999C10 8.55227 10.4477 8.99999 11 8.99999V6.99999ZM15 13C15 13.5523 15.4477 14 16 14C16.5523 14 17 13.5523 17 13H15ZM6.08495 12.082L6.21389 13.0736L6.08495 12.082ZM11.6592 18.2209L10.7353 17.8382L11.6592 18.2209ZM19.2929 4.70709C20.0556 5.4698 20.1063 6.68982 19.4096 7.51323L20.9364 8.80511C22.305 7.18764 22.2053 4.7911 20.7071 3.29288L19.2929 4.70709ZM20.7071 3.29288C19.2089 1.79466 16.8123 1.69498 15.1949 3.0636L16.4868 4.59037C17.3102 3.89364 18.5302 3.94439 19.2929 4.70709L20.7071 3.29288ZM7.5 13C9.433 13 11 14.567 11 16.5H13C13 13.4624 10.5376 11 7.5 11V13ZM4.03 22H7.5V20H4.03V22ZM2 16.5V19.97H4V16.5H2ZM4.03 20C4.01524 20 4.00719 20 4.00128 20C3.9958 19.9999 3.99663 19.9999 4 20L3.95288 21.9994C3.97942 22.0001 4.0079 22 4.03 22V20ZM2 19.97C2 19.9921 1.99993 20.0206 2.00056 20.0471L4 20C4.00008 20.0033 4.00005 20.0041 4.00003 19.9987C4 19.9928 4 19.9847 4 19.97H2ZM4 20L4 20L2.00056 20.0471C2.02572 21.1147 2.88524 21.9743 3.95288 21.9994L4 20ZM11 8.99999C13.2091 8.99999 15 10.7908 15 13H17C17 9.68628 14.3137 6.99999 11 6.99999V8.99999ZM4 16.5C4 15.3299 4.02145 14.5902 4.28215 14.0626C4.47151 13.6793 4.87816 13.2473 6.21389 13.0736L5.95602 11.0903C4.2068 11.3177 3.07096 11.999 2.48909 13.1766C1.97855 14.2099 2 15.4787 2 16.5H4ZM6.21389 13.0736C6.57696 13.0264 7.00221 13 7.5 13V11C6.93353 11 6.42039 11.0299 5.95602 11.0903L6.21389 13.0736ZM15.1949 3.0636L5.43901 11.3186L6.7309 12.8453L16.4868 4.59037L15.1949 3.0636ZM11 16.5C11 16.9759 10.9056 17.4273 10.7353 17.8382L12.5831 18.6036C12.8521 17.9543 13 17.2431 13 16.5H11ZM10.7353 17.8382C10.2089 19.109 8.95733 20 7.5 20V22C9.79413 22 11.7579 20.5957 12.5831 18.6036L10.7353 17.8382ZM19.4096 7.51323L10.8958 17.575L12.4226 18.8669L20.9364 8.80511L19.4096 7.51323Z" fill="#0B0D12"/>
</svg>
