<svg width="24" height="24" viewBox="0 0 24 24" fill="none" xmlns="http://www.w3.org/2000/svg">
<path d="M8.2111 3.97407L8.7658 3.14202V3.14202L8.2111 3.97407ZM9.7889 3.97407L10.3436 4.80612V4.80612L9.7889 3.97407ZM14.2111 3.97407L14.7658 3.14202L14.2111 3.97407ZM15.7889 3.97407L15.2342 3.14202V3.14202L15.7889 3.97407ZM13.5 3.5L12.9453 4.33205L13.5 3.5ZM10.5 3.5L9.9453 2.66795L9.9453 2.66795L10.5 3.5ZM7.95601 14.8125L7.60802 15.75L7.95601 14.8125ZM6.18751 13.044L5.25002 13.392L6.18751 13.044ZM17.8125 13.044L18.75 13.392L17.8125 13.044ZM16.044 14.8125L16.392 15.75L16.044 14.8125ZM6 10C5.44772 10 5 10.4477 5 11C5 11.5523 5.44772 12 6 12V10ZM18 12C18.5523 12 19 11.5523 19 11C19 10.4477 18.5523 10 18 10V12ZM17 5.15742V10.6423H19V5.15742H17ZM7 10.6423V5.15742H5V10.6423H7ZM12.9453 4.33205L13.6564 4.80612L14.7658 3.14202L14.0547 2.66795L12.9453 4.33205ZM10.3436 4.80612L11.0547 4.33205L9.9453 2.66795L9.2342 3.14202L10.3436 4.80612ZM7.6564 4.80612C8.47002 5.34853 9.52998 5.34853 10.3436 4.80612L9.2342 3.14202C9.09238 3.23656 8.90762 3.23656 8.7658 3.14202L7.6564 4.80612ZM13.6564 4.80612C14.47 5.34853 15.53 5.34853 16.3436 4.80612L15.2342 3.14202C15.0924 3.23656 14.9076 3.23656 14.7658 3.14202L13.6564 4.80612ZM14.0547 2.66795C12.8105 1.83847 11.1895 1.83847 9.9453 2.66795L11.0547 4.33205C11.6271 3.95043 12.3729 3.95043 12.9453 4.33205L14.0547 2.66795ZM10 14C8.68778 14 8.60803 13.9878 8.30401 13.875L7.60802 15.75C8.3143 16.0122 8.78357 16 10 16V14ZM5 10.6423C5 11.2622 4.99956 11.7723 5.02534 12.1895C5.05162 12.6146 5.10779 13.0088 5.25002 13.392L7.12501 12.696C7.07972 12.574 7.04214 12.3995 7.02153 12.0662C7.00044 11.7249 7 11.2869 7 10.6423H5ZM8.30401 13.875C7.75812 13.6724 7.32764 13.2419 7.12501 12.696L5.25002 13.392C5.65528 14.4838 6.51624 15.3447 7.60802 15.75L8.30401 13.875ZM17 10.6423C17 11.2869 16.9996 11.7249 16.9785 12.0662C16.9579 12.3995 16.9203 12.574 16.875 12.696L18.75 13.392C18.8922 13.0088 18.9484 12.6146 18.9747 12.1895C19.0004 11.7723 19 11.2622 19 10.6423H17ZM14 16C15.2164 16 15.6857 16.0122 16.392 15.75L15.696 13.875C15.392 13.9878 15.3122 14 14 14V16ZM16.875 12.696C16.6724 13.2419 16.2419 13.6724 15.696 13.875L16.392 15.75C17.4838 15.3447 18.3447 14.4838 18.75 13.392L16.875 12.696ZM19 5.15742C19 3.22281 16.8439 2.06889 15.2342 3.14202L16.3436 4.80612C16.6242 4.61907 17 4.8202 17 5.15742H19ZM7 5.15742C7 4.8202 7.37582 4.61907 7.6564 4.80612L8.7658 3.14202C7.15611 2.06889 5 3.22281 5 5.15742H7ZM6 12H18V10H6V12ZM13 15V19H15V15H13ZM11 19V15H9V19H11ZM12 20C11.4477 20 11 19.5523 11 19H9C9 20.6569 10.3431 22 12 22V20ZM13 19C13 19.5523 12.5523 20 12 20V22C13.6569 22 15 20.6569 15 19H13ZM10 16H14V14H10V16Z" fill="#0B0D12"/>
</svg>
