<svg width="24" height="24" viewBox="0 0 24 24" fill="none" xmlns="http://www.w3.org/2000/svg">
<path d="M9 7.00415C8.44772 7.00415 8 7.45187 8 8.00415C8 8.55644 8.44772 9.00415 9 9.00415V7.00415ZM10 9.00415C10.5523 9.00415 11 8.55644 11 8.00415C11 7.45187 10.5523 7.00415 10 7.00415V9.00415ZM9 11.0042C8.44772 11.0042 8 11.4519 8 12.0042C8 12.5564 8.44772 13.0042 9 13.0042V11.0042ZM10 13.0042C10.5523 13.0042 11 12.5564 11 12.0042C11 11.4519 10.5523 11.0042 10 11.0042V13.0042ZM9 15.0042C8.44772 15.0042 8 15.4519 8 16.0042C8 16.5564 8.44772 17.0042 9 17.0042V15.0042ZM10 17.0042C10.5523 17.0042 11 16.5564 11 16.0042C11 15.4519 10.5523 15.0042 10 15.0042V17.0042ZM3 20.0042C2.44772 20.0042 2 20.4519 2 21.0042C2 21.5564 2.44772 22.0042 3 22.0042V20.0042ZM21 22.0042C21.5523 22.0042 22 21.5564 22 21.0042C22 20.4519 21.5523 20.0042 21 20.0042V22.0042ZM6.25291 4.46136L6.03598 3.48517L6.25291 4.46136ZM12.0529 3.17247L12.2698 4.14865L12.0529 3.17247ZM5 21.0042H4C4 21.5564 4.44772 22.0042 5 22.0042V21.0042ZM13.3128 3.03659L13.6257 2.08678L13.6257 2.08678L13.3128 3.03659ZM13.8593 3.47497L14.7187 2.96355V2.96355L13.8593 3.47497ZM5.41546 4.73058L4.83093 3.91922V3.91922L5.41546 4.73058ZM5.08115 5.14735L6 5.54195H6L5.08115 5.14735ZM19 21.0042V22.0042C19.5523 22.0042 20 21.5564 20 21.0042H19ZM14.2169 11.9169C13.6778 11.797 13.1436 12.137 13.0238 12.6761C12.904 13.2152 13.2439 13.7494 13.7831 13.8692L14.2169 11.9169ZM17.7471 13.7257L17.5302 14.7019L17.7471 13.7257ZM18.9189 14.4117L19.8377 14.0171L18.9189 14.4117ZM18.5845 13.995L18 14.8063H18L18.5845 13.995ZM9 9.00415H10V7.00415H9V9.00415ZM9 13.0042H10V11.0042H9V13.0042ZM9 17.0042H10V15.0042H9V17.0042ZM3 22.0042H21V20.0042H3V22.0042ZM6.46984 5.43754L12.2698 4.14865L11.836 2.19628L6.03598 3.48517L6.46984 5.43754ZM14 20.0042H5V22.0042H14V20.0042ZM6 21.0042V6.02325H4V21.0042H6ZM13 4.73437V21.0042H15V4.73437H13ZM12.2698 4.14865C12.6205 4.07074 12.8199 4.02736 12.9652 4.00821C13.1024 3.99013 13.0771 4.0118 13 3.9864L13.6257 2.08678C13.2873 1.97533 12.9649 1.99096 12.7039 2.02535C12.4511 2.05866 12.1511 2.12625 11.836 2.19628L12.2698 4.14865ZM15 4.73437C15 4.41153 15.0009 4.10407 14.9786 3.84999C14.9555 3.58778 14.9009 3.2697 14.7187 2.96355L13 3.9864C12.9585 3.91661 12.9741 3.88722 12.9863 4.02511C12.9991 4.17113 13 4.37518 13 4.73437H15ZM13 3.9864V3.9864L14.7187 2.96355C14.472 2.54905 14.0838 2.23767 13.6257 2.08678L13 3.9864ZM6.03598 3.48517C5.82664 3.53169 5.61716 3.5776 5.44126 3.63047C5.25328 3.68697 5.03934 3.76907 4.83093 3.91922L6 5.54195C5.95844 5.57189 5.9397 5.56904 6.01696 5.54582C6.10631 5.51897 6.23212 5.49037 6.46984 5.43754L6.03598 3.48517ZM6 6.02325C6 5.77974 6.00062 5.65071 6.00746 5.55767C6.01337 5.47721 6.02021 5.49489 6 5.54195L4.1623 4.75274C4.06094 4.98876 4.02721 5.21541 4.01283 5.41117C3.99938 5.59435 4 5.8088 4 6.02325H6ZM4.83093 3.91922C4.53658 4.13127 4.30545 4.4194 4.1623 4.75274L6 5.54195V5.54195L4.83093 3.91922ZM18 15.2876V21.0042H20V15.2876H18ZM13.7831 13.8692L17.5302 14.7019L17.964 12.7495L14.2169 11.9169L13.7831 13.8692ZM19 20.0042H14V22.0042H19V20.0042ZM20 15.2876C20 15.0732 20.0006 14.8587 19.9872 14.6755C19.9728 14.4798 19.9391 14.2531 19.8377 14.0171L18 14.8063C17.9798 14.7593 17.9866 14.7416 17.9925 14.822C17.9994 14.9151 18 15.0441 18 15.2876H20ZM17.5302 14.7019C17.7679 14.7547 17.8937 14.7833 17.983 14.8102C18.0603 14.8334 18.0416 14.8363 18 14.8063L19.1691 13.1836C18.9607 13.0334 18.7467 12.9513 18.5587 12.8948C18.3828 12.842 18.1734 12.7961 17.964 12.7495L17.5302 14.7019ZM19.8377 14.0171C19.6945 13.6838 19.4634 13.3956 19.1691 13.1836L18 14.8063L19.8377 14.0171Z" fill="#0B0D12"/>
</svg>
