<svg width="24" height="24" viewBox="0 0 24 24" fill="none" xmlns="http://www.w3.org/2000/svg">
<path d="M3 20C2.44772 20 2 20.4477 2 21C2 21.5523 2.44772 22 3 22V20ZM21 22C21.5523 22 22 21.5523 22 21C22 20.4477 21.5523 20 21 20V22ZM15.181 3.16349L15.635 2.27248V2.27248L15.181 3.16349ZM15.8365 3.81901L14.9455 4.273V4.273L15.8365 3.81901ZM8.81901 3.16349L9.273 4.0545L8.81901 3.16349ZM8.16349 3.81901L9.0545 4.273L8.16349 3.81901ZM11.5 5.5C10.9477 5.5 10.5 5.94772 10.5 6.5C10.5 7.05228 10.9477 7.5 11.5 7.5V5.5ZM12.5 7.5C13.0523 7.5 13.5 7.05228 13.5 6.5C13.5 5.94772 13.0523 5.5 12.5 5.5V7.5ZM11.5 9C10.9477 9 10.5 9.44772 10.5 10C10.5 10.5523 10.9477 11 11.5 11V9ZM12.5 11C13.0523 11 13.5 10.5523 13.5 10C13.5 9.44772 13.0523 9 12.5 9V11ZM11.5 12.5C10.9477 12.5 10.5 12.9477 10.5 13.5C10.5 14.0523 10.9477 14.5 11.5 14.5V12.5ZM12.5 14.5C13.0523 14.5 13.5 14.0523 13.5 13.5C13.5 12.9477 13.0523 12.5 12.5 12.5V14.5ZM11.5 16C10.9477 16 10.5 16.4477 10.5 17C10.5 17.5523 10.9477 18 11.5 18V16ZM12.5 18C13.0523 18 13.5 17.5523 13.5 17C13.5 16.4477 13.0523 16 12.5 16V18ZM20 14H21C21 13.6212 20.786 13.275 20.4472 13.1056L20 14ZM20 21V22C20.5523 22 21 21.5523 21 21H20ZM16 12L16.4472 11.1056C16.1372 10.9506 15.7691 10.9671 15.4743 11.1493C15.1795 11.3316 15 11.6534 15 12H16ZM4 14L3.55279 13.1056C3.214 13.275 3 13.6212 3 14H4ZM4 21H3C3 21.5523 3.44772 22 4 22V21ZM8 12H9C9 11.6534 8.82055 11.3316 8.52573 11.1493C8.23091 10.9671 7.86277 10.9506 7.55279 11.1056L8 12ZM3 22H21V20H3V22ZM10.4 4H13.6V2H10.4V4ZM16 20H8V22H16V20ZM9 21V5.4H7V21H9ZM15 5.4V21H17V5.4H15ZM13.6 4C14.0365 4 14.3038 4.00078 14.5038 4.01712C14.5969 4.02473 14.6533 4.03429 14.6875 4.04235C14.7038 4.04618 14.7138 4.04939 14.7192 4.05133C14.7244 4.05318 14.7266 4.05429 14.727 4.0545L15.635 2.27248C15.3101 2.10694 14.9786 2.04925 14.6666 2.02376C14.3663 1.99922 14.0035 2 13.6 2V4ZM17 5.4C17 4.99646 17.0008 4.63367 16.9762 4.33337C16.9508 4.0214 16.8931 3.68993 16.7275 3.36502L14.9455 4.273C14.9457 4.27341 14.9468 4.27559 14.9487 4.28079C14.9506 4.2862 14.9538 4.29622 14.9577 4.3125C14.9657 4.34673 14.9753 4.40308 14.9829 4.49623C14.9992 4.6962 15 4.96346 15 5.4H17ZM14.727 4.0545C14.8211 4.10243 14.8976 4.17892 14.9455 4.273L16.7275 3.36502C16.4878 2.89462 16.1054 2.51217 15.635 2.27248L14.727 4.0545ZM10.4 2C9.99646 2 9.63367 1.99922 9.33337 2.02376C9.0214 2.04925 8.68993 2.10694 8.36502 2.27248L9.273 4.0545C9.27341 4.05429 9.27559 4.05318 9.28079 4.05133C9.2862 4.04939 9.29622 4.04618 9.3125 4.04235C9.34673 4.03429 9.40308 4.02473 9.49623 4.01712C9.6962 4.00078 9.96346 4 10.4 4V2ZM9 5.4C9 4.96346 9.00078 4.6962 9.01712 4.49623C9.02473 4.40308 9.03429 4.34673 9.04235 4.3125C9.04618 4.29622 9.04939 4.2862 9.05133 4.28079C9.05318 4.27559 9.05429 4.27341 9.0545 4.273L7.27248 3.36502C7.10694 3.68993 7.04925 4.0214 7.02376 4.33337C6.99922 4.63367 7 4.99646 7 5.4H9ZM8.36502 2.27248C7.89462 2.51217 7.51217 2.89462 7.27248 3.36502L9.0545 4.273C9.10243 4.17892 9.17892 4.10243 9.273 4.0545L8.36502 2.27248ZM11.5 7.5H12.5V5.5H11.5V7.5ZM11.5 11H12.5V9H11.5V11ZM11.5 14.5H12.5V12.5H11.5V14.5ZM11.5 18H12.5V16H11.5V18ZM19 14V21H21V14H19ZM20 20H16V22H20V20ZM17 21V12H15V21H17ZM15.5528 12.8944L19.5528 14.8944L20.4472 13.1056L16.4472 11.1056L15.5528 12.8944ZM3 14V21H5V14H3ZM4 22H8V20H4V22ZM9 21V12H7V21H9ZM7.55279 11.1056L3.55279 13.1056L4.44721 14.8944L8.44721 12.8944L7.55279 11.1056Z" fill="#0B0D12"/>
</svg>
