<svg width="24" height="24" viewBox="0 0 24 24" fill="none" xmlns="http://www.w3.org/2000/svg">
<path d="M3 20.0001C2.44772 20.0001 2 20.4478 2 21.0001C2 21.5524 2.44772 22.0001 3 22.0001V20.0001ZM21 22.0001C21.5523 22.0001 22 21.5524 22 21.0001C22 20.4478 21.5523 20.0001 21 20.0001V22.0001ZM6.25291 4.46154L6.03598 3.48535L6.25291 4.46154ZM12.0529 3.17265L12.2698 4.14884L12.0529 3.17265ZM14 22.0001C14.5523 22.0001 15 21.5524 15 21.0001C15 20.4478 14.5523 20.0001 14 20.0001V22.0001ZM5 21.0001H4C4 21.5524 4.44772 22.0001 5 22.0001V21.0001ZM13 8.00007C13 8.55236 13.4477 9.00007 14 9.00007C14.5523 9.00007 15 8.55236 15 8.00007H13ZM13.3128 3.03677L13.6257 2.08696L13.6257 2.08696L13.3128 3.03677ZM13.8593 3.47516L14.7187 2.96373V2.96373L13.8593 3.47516ZM5.41546 4.73077L4.83093 3.9194V3.9194L5.41546 4.73077ZM5.08115 5.14753L6 5.54213H6L5.08115 5.14753ZM14 11.0001C13.4477 11.0001 13 11.4478 13 12.0001C13 12.5524 13.4477 13.0001 14 13.0001V11.0001ZM15 13.0001C15.5523 13.0001 16 12.5524 16 12.0001C16 11.4478 15.5523 11.0001 15 11.0001V13.0001ZM14 15.0001C13.4477 15.0001 13 15.4478 13 16.0001C13 16.5524 13.4477 17.0001 14 17.0001V15.0001ZM15 17.0001C15.5523 17.0001 16 16.5524 16 16.0001C16 15.4478 15.5523 15.0001 15 15.0001V17.0001ZM19 21.0001V22.0001C19.5523 22.0001 20 21.5524 20 21.0001H19ZM10 21.0001H9C9 21.5524 9.44772 22.0001 10 22.0001V21.0001ZM18.454 8.10906L18.908 7.21806L18.908 7.21806L18.454 8.10906ZM18.891 8.54608L18 9.00007L18 9.00007L18.891 8.54608ZM10.546 8.10906L10.092 7.21806L10.546 8.10906ZM10.109 8.54608L9.21799 8.09209L10.109 8.54608ZM3 22.0001H21V20.0001H3V22.0001ZM6.46984 5.43773L12.2698 4.14884L11.836 2.19646L6.03598 3.48535L6.46984 5.43773ZM14 20.0001H5V22.0001H14V20.0001ZM6 21.0001V6.02344H4V21.0001H6ZM13 4.73455V8.00007H15V4.73455H13ZM12.2698 4.14884C12.6205 4.07092 12.8199 4.02754 12.9652 4.00839C13.1024 3.99031 13.0771 4.01198 13 3.98658L13.6257 2.08696C13.2873 1.97551 12.9649 1.99115 12.7039 2.02553C12.4511 2.05884 12.1511 2.12643 11.836 2.19646L12.2698 4.14884ZM15 4.73455C15 4.41172 15.0009 4.10425 14.9786 3.85017C14.9555 3.58796 14.9009 3.26988 14.7187 2.96373L13 3.98658C12.9585 3.91679 12.9741 3.8874 12.9863 4.02529C12.9991 4.17131 13 4.37536 13 4.73455H15ZM13 3.98658V3.98658L14.7187 2.96373C14.472 2.54924 14.0838 2.23785 13.6257 2.08696L13 3.98658ZM6.03598 3.48535C5.82664 3.53187 5.61716 3.57778 5.44126 3.63065C5.25328 3.68716 5.03934 3.76925 4.83093 3.9194L6 5.54213C5.95844 5.57207 5.9397 5.56923 6.01696 5.546C6.10631 5.51915 6.23212 5.49055 6.46984 5.43773L6.03598 3.48535ZM6 6.02344C6 5.77992 6.00062 5.6509 6.00746 5.55785C6.01337 5.47739 6.02021 5.49507 6 5.54213L4.1623 4.75292C4.06094 4.98894 4.02721 5.2156 4.01283 5.41136C3.99938 5.59454 4 5.80899 4 6.02344H6ZM4.83093 3.9194C4.53658 4.13146 4.30545 4.41958 4.1623 4.75292L6 5.54213V5.54213L4.83093 3.9194ZM14 13.0001H15V11.0001H14V13.0001ZM14 17.0001H15V15.0001H14V17.0001ZM11.6 9.00007H17.4V7.00007H11.6V9.00007ZM19 20.0001H10V22.0001H19V20.0001ZM11 21.0001V9.60007H9V21.0001H11ZM18 9.60007V21.0001H20V9.60007H18ZM17.4 9.00007C17.6965 9.00007 17.8588 9.00085 17.9754 9.01037C18.0803 9.01895 18.0575 9.02938 18 9.00007L18.908 7.21806C18.6366 7.07976 18.3668 7.03569 18.1382 7.01702C17.9213 6.99929 17.6635 7.00007 17.4 7.00007V9.00007ZM20 9.60007C20 9.33655 20.0008 9.07876 19.9831 8.86184C19.9644 8.63325 19.9203 8.36351 19.782 8.09209L18 9.00007C17.9707 8.94256 17.9811 8.91979 17.9897 9.0247C17.9992 9.14129 18 9.30354 18 9.60007H20ZM18 9.00007L18 9.00007L19.782 8.09209C19.5903 7.71577 19.2843 7.4098 18.908 7.21806L18 9.00007ZM11.6 7.00007C11.3365 7.00007 11.0787 6.99929 10.8618 7.01702C10.6332 7.03569 10.3634 7.07976 10.092 7.21806L11 9.00007C10.9425 9.02938 10.9197 9.01895 11.0246 9.01037C11.1412 9.00085 11.3035 9.00007 11.6 9.00007V7.00007ZM11 9.60007C11 9.30354 11.0008 9.14129 11.0103 9.0247C11.0189 8.91979 11.0293 8.94256 11 9.00007L9.21799 8.09209C9.07969 8.36351 9.03562 8.63325 9.01695 8.86184C8.99922 9.07876 9 9.33655 9 9.60007H11ZM10.092 7.21806C9.71569 7.4098 9.40973 7.71577 9.21799 8.09209L11 9.00007L10.092 7.21806Z" fill="#0B0D12"/>
</svg>
