<svg width="24" height="24" viewBox="0 0 24 24" fill="none" xmlns="http://www.w3.org/2000/svg">
<path d="M5 13H19M5 13C3.89543 13 3 13.8954 3 15C3 15.7403 3.4022 16.3866 4 16.7324M5 13C3.89543 13 3 12.1046 3 11C3 10.2597 3.4022 9.61337 4 9.26756M19 13C20.1046 13 21 13.8954 21 15C21 15.7403 20.5978 16.3866 20 16.7324M19 13C20.1046 13 21 12.1046 21 11C21 10.2597 20.5978 9.61337 20 9.26756M20 16.7324C19.7058 16.9026 19.3643 17 19 17H14.1326C14.0628 17 14.0279 17 13.9935 17.0006C13.3441 17.0117 12.7071 17.1809 12.1377 17.4934C12.1075 17.51 12.0772 17.5273 12.0167 17.5619L11.3335 17.9523C10.2269 18.5847 8.84629 18.477 7.85105 17.6808L7.81113 17.6489C7.28606 17.2288 6.63367 17 5.96125 17H5C4.63571 17 4.29417 16.9026 4 16.7324M20 16.7324V17.8C20 18.9201 20 19.4802 19.782 19.908C19.5903 20.2843 19.2843 20.5903 18.908 20.782C18.4802 21 17.9201 21 16.8 21H7.2C6.0799 21 5.51984 21 5.09202 20.782C4.71569 20.5903 4.40973 20.2843 4.21799 19.908C4 19.4802 4 18.9201 4 17.8V16.7324M20 9.26756C19.7058 9.09739 19.3643 9 19 9H5C4.63571 9 4.29417 9.09739 4 9.26756M20 9.26756V9C20 7.13623 20 6.20435 19.6955 5.46927C19.2895 4.48915 18.5108 3.71046 17.5307 3.30448C16.7956 3 15.8638 3 14 3H10C8.13623 3 7.20435 3 6.46927 3.30448C5.48915 3.71046 4.71046 4.48915 4.30448 5.46927C4 6.20435 4 7.13623 4 9V9.26756" stroke="#0B0D12" stroke-width="2" stroke-linecap="square"/>
</svg>
