<svg width="24" height="24" viewBox="0 0 24 24" fill="none" xmlns="http://www.w3.org/2000/svg">
<path d="M5.82541 12.0143L6.50497 12.7479H6.50497L5.82541 12.0143ZM4.02541 13.6817L4.70497 14.4153H4.70497L4.02541 13.6817ZM10.1746 12.0143L9.49503 12.7479L10.1746 12.0143ZM11.9746 13.6817L11.295 14.4153H11.295L11.9746 13.6817ZM12.9393 15.0159L11.9696 15.2605V15.2605L12.9393 15.0159ZM12.6767 14.4148L13.5151 13.8697L13.5151 13.8697L12.6767 14.4148ZM3.06074 15.0159L2.09112 14.7713L3.06074 15.0159ZM3.3233 14.4148L4.16165 14.96H4.16165L3.3233 14.4148ZM7.41113 10.8148L7.70556 11.7705H7.70556L7.41113 10.8148ZM8.58887 10.8148L8.88331 9.85913L8.58887 10.8148ZM4.09202 20.782L4.54601 19.8909H4.54601L4.09202 20.782ZM3.21799 19.9079L4.10899 19.4539H4.10899L3.21799 19.9079ZM11.908 20.782L11.454 19.8909H11.454L11.908 20.782ZM12.782 19.9079L11.891 19.4539V19.4539L12.782 19.9079ZM15.299 3.53824L14.5064 4.14795L15.299 3.53824ZM19.5003 8.99994V9.99994C19.8813 9.99994 20.2292 9.78347 20.3975 9.44169C20.5658 9.09991 20.5252 8.69219 20.293 8.39023L19.5003 8.99994ZM16.5003 8.99994V7.99994C16.1315 7.99994 15.7927 8.20292 15.6187 8.52808C15.4446 8.85324 15.4637 9.24778 15.6683 9.55464L16.5003 8.99994ZM20.5003 14.9999V15.9999C20.8691 15.9999 21.208 15.797 21.382 15.4718C21.556 15.1466 21.5369 14.7521 21.3324 14.4452L20.5003 14.9999ZM17.5003 14.9999V13.9999C17.1315 13.9999 16.7927 14.2029 16.6187 14.5281C16.4446 14.8532 16.4637 15.2478 16.6683 15.5546L17.5003 14.9999ZM20.9821 20.2226L20.15 20.7773L20.9821 20.2226ZM15.9997 19.9999C15.4474 19.9999 14.9997 20.4477 14.9997 20.9999C14.9997 21.5522 15.4474 21.9999 15.9997 21.9999V19.9999ZM13.7093 3.54409L12.9122 2.94023V2.94023L13.7093 3.54409ZM9.53657 7.39608C9.20307 7.8363 9.28958 8.46353 9.7298 8.79703C10.17 9.13053 10.7973 9.04402 11.1308 8.6038L9.53657 7.39608ZM3 16.4999C2.44772 16.4999 2 16.9477 2 17.4999C2 18.0522 2.44772 18.4999 3 18.4999V16.4999ZM13 18.4999C13.5523 18.4999 14 18.0522 14 17.4999C14 16.9477 13.5523 16.4999 13 16.4999V18.4999ZM3.68591 12.9999C3.13362 12.9999 2.68591 13.4477 2.68591 13.9999C2.68591 14.5522 3.13362 14.9999 3.68591 14.9999V12.9999ZM12.3141 14.9999C12.8664 14.9999 13.3141 14.5522 13.3141 13.9999C13.3141 13.4477 12.8664 12.9999 12.3141 12.9999V14.9999ZM9.8 19.9999H6.2V21.9999H9.8V19.9999ZM4 17.7999V16.0292H2V17.7999H4ZM5.14585 11.2807L3.34585 12.948L4.70497 14.4153L6.50497 12.7479L5.14585 11.2807ZM12 16.0292V17.7999H14V16.0292H12ZM9.49503 12.7479L11.295 14.4153L12.6542 12.948L10.8542 11.2807L9.49503 12.7479ZM14 16.0292C14 15.5645 14.0071 15.1606 13.9089 14.7713L11.9696 15.2605C11.9929 15.3528 12 15.4639 12 16.0292H14ZM11.295 14.4153C11.7098 14.7994 11.7864 14.8801 11.8384 14.96L13.5151 13.8697C13.2962 13.5331 12.9951 13.2638 12.6542 12.948L11.295 14.4153ZM13.9089 14.7713C13.8281 14.4512 13.6951 14.1465 13.5151 13.8697L11.8384 14.96C11.8984 15.0522 11.9427 15.1538 11.9696 15.2605L13.9089 14.7713ZM4 16.0292C4 15.4639 4.00708 15.3528 4.03037 15.2605L2.09112 14.7713C1.99292 15.1606 2 15.5645 2 16.0292H4ZM3.34585 12.948C3.00494 13.2638 2.70381 13.5331 2.48494 13.8697L4.16165 14.96C4.21355 14.8801 4.29024 14.7994 4.70497 14.4153L3.34585 12.948ZM4.03037 15.2605C4.05729 15.1538 4.10165 15.0522 4.16165 14.96L2.48494 13.8697C2.30494 14.1465 2.17188 14.4512 2.09112 14.7713L4.03037 15.2605ZM6.50497 12.7479C6.89991 12.3821 7.15407 12.1476 7.36201 11.9835C7.56033 11.8269 7.65355 11.7865 7.70556 11.7705L7.11669 9.85913C6.73295 9.97736 6.41664 10.1816 6.1227 10.4137C5.83838 10.6382 5.51755 10.9364 5.14585 11.2807L6.50497 12.7479ZM10.8542 11.2807C10.4824 10.9364 10.1616 10.6382 9.8773 10.4137C9.58336 10.1816 9.26705 9.97736 8.88331 9.85913L8.29444 11.7705C8.34645 11.7865 8.43967 11.8269 8.63799 11.9835C8.84593 12.1476 9.10009 12.3821 9.49503 12.7479L10.8542 11.2807ZM7.70556 11.7705C7.89741 11.7114 8.10259 11.7114 8.29444 11.7705L8.88331 9.85913C8.30778 9.68182 7.69222 9.68182 7.11669 9.85913L7.70556 11.7705ZM6.2 19.9999C5.62345 19.9999 5.25117 19.9992 4.96784 19.976C4.69617 19.9538 4.59545 19.9161 4.54601 19.8909L3.63803 21.673C4.01641 21.8658 4.40963 21.9371 4.80497 21.9694C5.18864 22.0007 5.65645 21.9999 6.2 21.9999V19.9999ZM2 17.7999C2 18.3435 1.99922 18.8113 2.03057 19.195C2.06287 19.5903 2.13419 19.9835 2.32698 20.3619L4.10899 19.4539C4.0838 19.4045 4.04612 19.3038 4.02393 19.0321C4.00078 18.7488 4 18.3765 4 17.7999H2ZM4.54601 19.8909C4.35785 19.7951 4.20487 19.6421 4.10899 19.4539L2.32698 20.3619C2.6146 20.9264 3.07354 21.3853 3.63803 21.673L4.54601 19.8909ZM9.8 21.9999C10.3436 21.9999 10.8114 22.0007 11.195 21.9694C11.5904 21.9371 11.9836 21.8658 12.362 21.673L11.454 19.8909C11.4045 19.9161 11.3038 19.9538 11.0322 19.976C10.7488 19.9992 10.3766 19.9999 9.8 19.9999V21.9999ZM12 17.7999C12 18.3765 11.9992 18.7488 11.9761 19.0321C11.9539 19.3038 11.9162 19.4045 11.891 19.4539L13.673 20.3619C13.8658 19.9835 13.9371 19.5903 13.9694 19.195C14.0008 18.8113 14 18.3435 14 17.7999H12ZM12.362 21.673C12.9265 21.3853 13.3854 20.9264 13.673 20.3619L11.891 19.4539C11.7951 19.6421 11.6422 19.7951 11.454 19.8909L12.362 21.673ZM14.5064 4.14795L18.7077 9.60965L20.293 8.39023L16.0916 2.92853L14.5064 4.14795ZM19.5003 7.99994H16.5003V9.99994H19.5003V7.99994ZM15.6683 9.55464L19.6683 15.5546L21.3324 14.4452L17.3324 8.44524L15.6683 9.55464ZM20.5003 13.9999H17.5003V15.9999H20.5003V13.9999ZM16.6683 15.5546L20.15 20.7773L21.8141 19.6679L18.3324 14.4452L16.6683 15.5546ZM20.5661 19.9999H15.9997V21.9999H20.5661V19.9999ZM12.9122 2.94023L9.53657 7.39608L11.1308 8.6038L14.5064 4.14795L12.9122 2.94023ZM20.15 20.7773C19.9285 20.445 20.1667 19.9999 20.5661 19.9999V21.9999C21.7641 21.9999 22.4787 20.6647 21.8141 19.6679L20.15 20.7773ZM16.0916 2.92853C15.2873 1.88292 13.7088 1.88873 12.9122 2.94023L14.5064 4.14795V4.14795L16.0916 2.92853ZM3 18.4999H13V16.4999H3V18.4999ZM3.68591 14.9999H12.3141V12.9999H3.68591V14.9999Z" fill="#0B0D12"/>
</svg>
