<svg width="24" height="24" viewBox="0 0 24 24" fill="none" xmlns="http://www.w3.org/2000/svg">
<path d="M5.18404 20.564L5.63803 19.673L5.18404 20.564ZM3.43597 18.816L4.32698 18.362L3.43597 18.816ZM20.564 18.816L19.673 18.362L20.564 18.816ZM18.816 20.564L18.362 19.673L18.816 20.564ZM18.816 5.43597L18.362 6.32698L18.816 5.43597ZM20.564 7.18404L19.673 7.63803L20.564 7.18404ZM5.18404 5.43597L5.63803 6.32698L5.18404 5.43597ZM3.43597 7.18404L4.32698 7.63803L3.43597 7.18404ZM9 3C9 2.44772 8.55228 2 8 2C7.44772 2 7 2.44772 7 3H9ZM7 7C7 7.55228 7.44772 8 8 8C8.55228 8 9 7.55228 9 7H7ZM17 3C17 2.44772 16.5523 2 16 2C15.4477 2 15 2.44772 15 3H17ZM15 7C15 7.55228 15.4477 8 16 8C16.5523 8 17 7.55228 17 7H15ZM3 10C2.44772 10 2 10.4477 2 11C2 11.5523 2.44772 12 3 12V10ZM21 12C21.5523 12 22 11.5523 22 11C22 10.4477 21.5523 10 21 10V12ZM9.4 6H14.6V4H9.4V6ZM20 11.4V14.6H22V11.4H20ZM14.6 20H9.4V22H14.6V20ZM4 14.6V11.4H2V14.6H4ZM9.4 20C8.26339 20 7.47108 19.9992 6.85424 19.9488C6.24907 19.8994 5.90138 19.8072 5.63803 19.673L4.73005 21.455C5.32234 21.7568 5.96253 21.8826 6.69138 21.9422C7.40855 22.0008 8.2964 22 9.4 22V20ZM2 14.6C2 15.7036 1.99922 16.5914 2.05782 17.3086C2.11737 18.0375 2.24318 18.6777 2.54497 19.27L4.32698 18.362C4.19279 18.0986 4.10062 17.7509 4.05118 17.1458C4.00078 16.5289 4 15.7366 4 14.6H2ZM5.63803 19.673C5.07354 19.3854 4.6146 18.9265 4.32698 18.362L2.54497 19.27C3.02433 20.2108 3.78924 20.9757 4.73005 21.455L5.63803 19.673ZM20 14.6C20 15.7366 19.9992 16.5289 19.9488 17.1458C19.8994 17.7509 19.8072 18.0986 19.673 18.362L21.455 19.27C21.7568 18.6777 21.8826 18.0375 21.9422 17.3086C22.0008 16.5914 22 15.7036 22 14.6H20ZM14.6 22C15.7036 22 16.5914 22.0008 17.3086 21.9422C18.0375 21.8826 18.6777 21.7568 19.27 21.455L18.362 19.673C18.0986 19.8072 17.7509 19.8994 17.1458 19.9488C16.5289 19.9992 15.7366 20 14.6 20V22ZM19.673 18.362C19.3854 18.9265 18.9265 19.3854 18.362 19.673L19.27 21.455C20.2108 20.9757 20.9757 20.2108 21.455 19.27L19.673 18.362ZM14.6 6C15.7366 6 16.5289 6.00078 17.1458 6.05118C17.7509 6.10062 18.0986 6.19279 18.362 6.32698L19.27 4.54497C18.6777 4.24318 18.0375 4.11737 17.3086 4.05782C16.5914 3.99922 15.7036 4 14.6 4V6ZM22 11.4C22 10.2964 22.0008 9.40855 21.9422 8.69138C21.8826 7.96253 21.7568 7.32234 21.455 6.73005L19.673 7.63803C19.8072 7.90138 19.8994 8.24907 19.9488 8.85424C19.9992 9.47108 20 10.2634 20 11.4H22ZM18.362 6.32698C18.9265 6.6146 19.3854 7.07354 19.673 7.63803L21.455 6.73005C20.9757 5.78924 20.2108 5.02433 19.27 4.54497L18.362 6.32698ZM9.4 4C8.2964 4 7.40855 3.99922 6.69138 4.05782C5.96253 4.11737 5.32234 4.24318 4.73005 4.54497L5.63803 6.32698C5.90138 6.19279 6.24907 6.10062 6.85424 6.05118C7.47108 6.00078 8.26339 6 9.4 6V4ZM4 11.4C4 10.2634 4.00078 9.47108 4.05118 8.85424C4.10062 8.24907 4.19279 7.90138 4.32698 7.63803L2.54497 6.73005C2.24318 7.32234 2.11737 7.96253 2.05782 8.69138C1.99922 9.40855 2 10.2964 2 11.4H4ZM4.73005 4.54497C3.78924 5.02433 3.02433 5.78924 2.54497 6.73005L4.32698 7.63803C4.6146 7.07354 5.07354 6.6146 5.63803 6.32698L4.73005 4.54497ZM7 3V7H9V3H7ZM15 3V7H17V3H15ZM3 12H21V10H3V12Z" fill="#0B0D12"/>
</svg>
