<svg width="24" height="24" viewBox="0 0 24 24" fill="none" xmlns="http://www.w3.org/2000/svg">
<path d="M22.7071 16.7071C23.0976 16.3166 23.0976 15.6834 22.7071 15.2929C22.3166 14.9024 21.6834 14.9024 21.2929 15.2929L22.7071 16.7071ZM18.4142 19.5858L19.1213 20.2929L18.4142 19.5858ZM15.5858 19.5858L16.2929 18.8787L15.5858 19.5858ZM14.7071 17.2929C14.3166 16.9024 13.6834 16.9024 13.2929 17.2929C12.9024 17.6834 12.9024 18.3166 13.2929 18.7071L14.7071 17.2929ZM9.4 22C9.95228 22 10.4 21.5523 10.4 21C10.4 20.4477 9.95228 20 9.4 20V22ZM5.18404 20.564L5.63803 19.673H5.63803L5.18404 20.564ZM3.43597 18.816L2.54497 19.27H2.54497L3.43597 18.816ZM18.816 5.43597L19.27 4.54497V4.54497L18.816 5.43597ZM21 11V12C21.5523 12 22 11.5523 22 11H21ZM20.564 7.18404L19.673 7.63803L20.564 7.18404ZM5.18404 5.43597L4.73005 4.54497L5.18404 5.43597ZM3.43597 7.18404L2.54497 6.73005H2.54497L3.43597 7.18404ZM9 3C9 2.44772 8.55228 2 8 2C7.44772 2 7 2.44772 7 3H9ZM7 7C7 7.55228 7.44772 8 8 8C8.55228 8 9 7.55228 9 7H7ZM17 3C17 2.44772 16.5523 2 16 2C15.4477 2 15 2.44772 15 3H17ZM15 7C15 7.55228 15.4477 8 16 8C16.5523 8 17 7.55228 17 7H15ZM21.2929 15.2929L17.7071 18.8787L19.1213 20.2929L22.7071 16.7071L21.2929 15.2929ZM16.2929 18.8787L14.7071 17.2929L13.2929 18.7071L14.8787 20.2929L16.2929 18.8787ZM17.7071 18.8787C17.3538 19.232 17.1584 19.4244 17.0059 19.5408C16.8764 19.6396 16.9005 19.5858 17 19.5858V21.5858C17.5137 21.5858 17.9116 21.3653 18.219 21.1308C18.5033 20.9139 18.808 20.6062 19.1213 20.2929L17.7071 18.8787ZM14.8787 20.2929C15.192 20.6062 15.4967 20.9139 15.781 21.1308C16.0884 21.3653 16.4863 21.5858 17 21.5858V19.5858C17.0995 19.5858 17.1236 19.6396 16.9941 19.5408C16.8416 19.4244 16.6462 19.232 16.2929 18.8787L14.8787 20.2929ZM9.4 6H14.6V4H9.4V6ZM4 14.6V11.4H2V14.6H4ZM9.4 20C8.26339 20 7.47108 19.9992 6.85424 19.9488C6.24907 19.8994 5.90138 19.8072 5.63803 19.673L4.73005 21.455C5.32234 21.7568 5.96253 21.8826 6.69138 21.9422C7.40855 22.0008 8.2964 22 9.4 22V20ZM2 14.6C2 15.7036 1.99922 16.5914 2.05782 17.3086C2.11737 18.0375 2.24318 18.6777 2.54497 19.27L4.32698 18.362C4.19279 18.0986 4.10062 17.7509 4.05118 17.1458C4.00078 16.5289 4 15.7366 4 14.6H2ZM5.63803 19.673C5.07354 19.3854 4.6146 18.9265 4.32698 18.362L2.54497 19.27C3.02433 20.2108 3.78924 20.9757 4.73005 21.455L5.63803 19.673ZM14.6 6C15.1263 6 15.582 6.00002 15.9864 6.0055L16.0136 4.00568C15.5928 3.99998 15.1225 4 14.6 4V6ZM15.9864 6.0055C17.3554 6.02405 17.9409 6.11241 18.362 6.32698L19.27 4.54497C18.3803 4.09169 17.3448 4.02372 16.0136 4.00568L15.9864 6.0055ZM22 11C22 8.84878 22.0241 7.8469 21.455 6.73005L19.673 7.63803C19.9759 8.23247 20 8.6708 20 11H22ZM18.362 6.32698C18.9265 6.6146 19.3854 7.07354 19.673 7.63803L21.455 6.73005C20.9757 5.78924 20.2108 5.02433 19.27 4.54497L18.362 6.32698ZM9.4 4C8.87754 4 8.40721 3.99998 7.98645 4.00568L8.01355 6.0055C8.41801 6.00002 8.8737 6 9.4 6V4ZM7.98645 4.00568C6.65517 4.02372 5.61965 4.09169 4.73005 4.54497L5.63803 6.32698C6.05915 6.11241 6.64463 6.02405 8.01355 6.0055L7.98645 4.00568ZM4 11.4C4 11.2624 4 11.1296 4.0001 11.0008L2.0001 10.9992C2 11.1289 2 11.2626 2 11.4H4ZM4.0001 11.0008C4.00088 10.0023 4.00831 9.29769 4.06068 8.74651C4.11195 8.20685 4.2012 7.88488 4.32698 7.63803L2.54497 6.73005C2.26153 7.28633 2.13362 7.88399 2.06964 8.55735C2.00676 9.21919 2.00086 10.021 2.0001 10.9992L4.0001 11.0008ZM4.73005 4.54497C3.78924 5.02433 3.02433 5.78924 2.54497 6.73005L4.32698 7.63803C4.6146 7.07354 5.07354 6.6146 5.63803 6.32698L4.73005 4.54497ZM7 3V5.00559H9V3H7ZM7 5.00559V7H9V5.00559H7ZM15 3V5.00559H17V3H15ZM15 5.00559V7H17V5.00559H15ZM3.0001 12H21V10H3.0001V12Z" fill="#0B0D12"/>
</svg>
