<svg width="24" height="24" viewBox="0 0 24 24" fill="none" xmlns="http://www.w3.org/2000/svg">
<path d="M3.43597 17.816L4.32698 17.362H4.32698L3.43597 17.816ZM18.816 19.564L18.362 18.673H18.362L18.816 19.564ZM20.564 17.816L19.673 17.362V17.362L20.564 17.816ZM5.32992 7.35928L5.59507 8.32349H5.59507L5.32992 7.35928ZM5.16733 7.40399L4.90217 6.43979L4.90217 6.43979L5.16733 7.40399ZM7.09946 5.72658L8.03926 6.06832L8.03926 6.06832L7.09946 5.72658ZM16.9006 5.72659L15.9608 6.06832V6.06832L16.9006 5.72659ZM21.7071 3.70711C22.0976 3.31658 22.0976 2.68342 21.7071 2.29289C21.3166 1.90237 20.6834 1.90237 20.2929 2.29289L21.7071 3.70711ZM2.29289 20.2929C1.90237 20.6834 1.90237 21.3166 2.29289 21.7071C2.68342 22.0976 3.31658 22.0976 3.70711 21.7071L2.29289 20.2929ZM4.71611 19.2839L5.42322 19.991H5.42322L4.71611 19.2839ZM10 19C9.44772 19 9 19.4477 9 20C9 20.5523 9.44772 21 10 21V19ZM21.7396 8.83691C21.5423 8.3211 20.9641 8.06297 20.4483 8.26035C19.9325 8.45774 19.6744 9.0359 19.8717 9.5517L21.7396 8.83691ZM9.43813 14.5619L10.1452 15.269H10.1452L9.43813 14.5619ZM2 13.6C2 14.7036 1.99922 15.5914 2.05782 16.3086C2.11737 17.0375 2.24318 17.6777 2.54497 18.27L4.32698 17.362C4.19279 17.0986 4.10062 16.7509 4.05118 16.1458C4.00078 15.5289 4 14.7366 4 13.6H2ZM14.6 21C15.7036 21 16.5914 21.0008 17.3086 20.9422C18.0375 20.8826 18.6777 20.7568 19.27 20.455L18.362 18.673C18.0986 18.8072 17.7509 18.8994 17.1458 18.9488C16.5289 18.9992 15.7366 19 14.6 19V21ZM20 13.6C20 14.7366 19.9992 15.5289 19.9488 16.1458C19.8994 16.7509 19.8072 17.0986 19.673 17.362L21.455 18.27C21.7568 17.6777 21.8826 17.0375 21.9422 16.3086C22.0008 15.5914 22 14.7036 22 13.6H20ZM19.27 20.455C20.2108 19.9757 20.9757 19.2108 21.455 18.27L19.673 17.362C19.3854 17.9265 18.9265 18.3854 18.362 18.673L19.27 20.455ZM9.56448 5H14.4356V3H9.56448V5ZM5.06477 6.39507L4.90217 6.43979L5.43248 8.3682L5.59507 8.32349L5.06477 6.39507ZM6.15967 5.38485C5.97994 5.8791 5.57186 6.25563 5.06477 6.39507L5.59507 8.32349C6.72708 8.01219 7.63805 7.17166 8.03926 6.06832L6.15967 5.38485ZM14.4356 5C15.1181 5 15.7276 5.42695 15.9608 6.06832L17.8404 5.38485C17.3198 3.95309 15.9591 3 14.4356 3V5ZM9.56448 3C8.04101 3 6.68029 3.95309 6.15967 5.38485L8.03926 6.06832C8.27248 5.42695 8.88203 5 9.56448 5V3ZM4.90217 6.43979C3.18794 6.9112 2 8.46991 2 10.2478H4C4 9.37025 4.58635 8.60088 5.43248 8.3682L4.90217 6.43979ZM10 13C10 11.8954 10.8954 11 12 11V9C9.79086 9 8 10.7909 8 13H10ZM4 13.6V10.2478H2V13.6H4ZM20 10.2477V13.6H22V10.2477H20ZM4.00901 18.5768L2.29289 20.2929L3.70711 21.7071L5.42322 19.991L4.00901 18.5768ZM5.28709 18.4629C4.88294 18.1818 4.55236 17.8043 4.32698 17.362L2.54497 18.27C2.92061 19.0072 3.47159 19.6364 4.14514 20.1049L5.28709 18.4629ZM20.2929 2.29289L16.7085 5.8773L18.1227 7.29151L21.7071 3.70711L20.2929 2.29289ZM15.9608 6.06832C16.1219 6.51132 16.3653 6.91215 16.6722 7.25323L18.159 5.91558C18.0216 5.76281 17.9126 5.58343 17.8404 5.38485L15.9608 6.06832ZM16.7085 5.8773L12.8548 9.73103L14.269 11.1452L18.1227 7.29151L16.7085 5.8773ZM12 11C12.383 11 12.7381 11.1067 13.0405 11.2915L14.0832 9.5848C13.4758 9.21366 12.7613 9 12 9V11ZM14.6 19H10V21H14.6V19ZM19.8717 9.5517C19.9548 9.76881 20 10.0036 20 10.2477H22C22 9.7552 21.9086 9.27842 21.7396 8.83691L19.8717 9.5517ZM12.8548 9.73103L8.73103 13.8548L10.1452 15.269L14.269 11.1452L12.8548 9.73103ZM10.2915 14.0405C10.1067 13.7381 10 13.383 10 13H8C8 13.7613 8.21366 14.4758 8.5848 15.0832L10.2915 14.0405ZM8.73103 13.8548L4.00901 18.5768L5.42322 19.991L10.1452 15.269L8.73103 13.8548Z" fill="#0B0D12"/>
</svg>
