<svg width="24" height="24" viewBox="0 0 24 24" fill="none" xmlns="http://www.w3.org/2000/svg">
<path d="M5.18404 19.564L5.63803 18.673H5.63803L5.18404 19.564ZM3.43597 17.816L4.32698 17.362H4.32698L3.43597 17.816ZM18.816 19.564L18.362 18.673H18.362L18.816 19.564ZM20.564 17.816L19.673 17.362V17.362L20.564 17.816ZM5.32992 7.35928L5.59507 8.32349H5.59507L5.32992 7.35928ZM5.16733 7.40399L4.90217 6.43979L4.90217 6.43979L5.16733 7.40399ZM18.6702 7.35929L18.405 8.32349H18.405L18.6702 7.35929ZM18.8327 7.40399L19.0979 6.43979V6.43979L18.8327 7.40399ZM7.09946 5.72658L8.03926 6.06832L8.03926 6.06832L7.09946 5.72658ZM16.9006 5.72659L15.9608 6.06832V6.06832L16.9006 5.72659ZM14.6 19H9.4V21H14.6V19ZM9.4 19C8.26339 19 7.47108 18.9992 6.85424 18.9488C6.24907 18.8994 5.90138 18.8072 5.63803 18.673L4.73005 20.455C5.32234 20.7568 5.96253 20.8826 6.69138 20.9422C7.40855 21.0008 8.2964 21 9.4 21V19ZM2 13.6C2 14.7036 1.99922 15.5914 2.05782 16.3086C2.11737 17.0375 2.24318 17.6777 2.54497 18.27L4.32698 17.362C4.19279 17.0986 4.10062 16.7509 4.05118 16.1458C4.00078 15.5289 4 14.7366 4 13.6H2ZM5.63803 18.673C5.07354 18.3854 4.6146 17.9265 4.32698 17.362L2.54497 18.27C3.02433 19.2108 3.78924 19.9757 4.73005 20.455L5.63803 18.673ZM14.6 21C15.7036 21 16.5914 21.0008 17.3086 20.9422C18.0375 20.8826 18.6777 20.7568 19.27 20.455L18.362 18.673C18.0986 18.8072 17.7509 18.8994 17.1458 18.9488C16.5289 18.9992 15.7366 19 14.6 19V21ZM20 13.6C20 14.7366 19.9992 15.5289 19.9488 16.1458C19.8994 16.7509 19.8072 17.0986 19.673 17.362L21.455 18.27C21.7568 17.6777 21.8826 17.0375 21.9422 16.3086C22.0008 15.5914 22 14.7036 22 13.6H20ZM19.27 20.455C20.2108 19.9757 20.9757 19.2108 21.455 18.27L19.673 17.362C19.3854 17.9265 18.9265 18.3854 18.362 18.673L19.27 20.455ZM9.56448 5H14.4356V3H9.56448V5ZM5.06477 6.39507L4.90217 6.43979L5.43248 8.3682L5.59507 8.32349L5.06477 6.39507ZM18.405 8.32349L18.5676 8.3682L19.0979 6.43979L18.9353 6.39508L18.405 8.32349ZM6.15967 5.38485C5.97994 5.8791 5.57186 6.25563 5.06477 6.39507L5.59507 8.32349C6.72708 8.01219 7.63805 7.17166 8.03926 6.06832L6.15967 5.38485ZM15.9608 6.06832C16.362 7.17166 17.273 8.01219 18.405 8.32349L18.9353 6.39508C18.4282 6.25563 18.0202 5.87911 17.8404 5.38485L15.9608 6.06832ZM14.4356 5C15.1181 5 15.7276 5.42695 15.9608 6.06832L17.8404 5.38485C17.3198 3.95309 15.9591 3 14.4356 3V5ZM9.56448 3C8.04101 3 6.68029 3.95309 6.15967 5.38485L8.03926 6.06832C8.27248 5.42695 8.88203 5 9.56448 5V3ZM18.5676 8.3682C19.4137 8.60088 20 9.37022 20 10.2477H22C22 8.46989 20.8121 6.9112 19.0979 6.43979L18.5676 8.3682ZM4.90217 6.43979C3.18794 6.9112 2 8.46991 2 10.2478H4C4 9.37025 4.58635 8.60088 5.43248 8.3682L4.90217 6.43979ZM14 13C14 14.1046 13.1046 15 12 15V17C14.2091 17 16 15.2091 16 13H14ZM12 15C10.8954 15 10 14.1046 10 13H8C8 15.2091 9.79086 17 12 17V15ZM10 13C10 11.8954 10.8954 11 12 11V9C9.79086 9 8 10.7909 8 13H10ZM12 11C13.1046 11 14 11.8954 14 13H16C16 10.7909 14.2091 9 12 9V11ZM4 13.6V10.2478H2V13.6H4ZM20 10.2477V13.6H22V10.2477H20Z" fill="#0B0D12"/>
</svg>
