<svg width="24" height="24" viewBox="0 0 24 24" fill="none" xmlns="http://www.w3.org/2000/svg">
<path d="M13 7C13 6.44772 12.5523 6 12 6C11.4477 6 11 6.44772 11 7H13ZM11 17C11 17.5523 11.4477 18 12 18C12.5523 18 13 17.5523 13 17H11ZM15 10C15 10.5523 15.4477 11 16 11C16.5523 11 17 10.5523 17 10H15ZM17 14C17 13.4477 16.5523 13 16 13C15.4477 13 15 13.4477 15 14H17ZM7 10C7 10.5523 7.44772 11 8 11C8.55228 11 9 10.5523 9 10H7ZM9 14C9 13.4477 8.55228 13 8 13C7.44772 13 7 13.4477 7 14H9ZM11 7L11 17H13L13 7H11ZM15 7V10H17V7H15ZM15 14V17H17V14H15ZM9 10V7H7V10H9ZM9 17V14H7V17H9ZM12 20C10.3431 20 9 18.6569 9 17H7C7 19.7614 9.23858 22 12 22V20ZM12 22C14.7614 22 17 19.7614 17 17H15C15 18.6569 13.6569 20 12 20V22ZM12 4C13.6569 4 15 5.34315 15 7H17C17 4.23858 14.7614 2 12 2V4ZM12 2C9.23858 2 7 4.23858 7 7H9C9 5.34315 10.3431 4 12 4V2Z" fill="#0B0D12"/>
</svg>
