<svg width="24" height="24" viewBox="0 0 24 24" fill="none" xmlns="http://www.w3.org/2000/svg">
<path d="M16 14C16.3519 14.0001 16.538 14.0021 16.717 14.0372C16.8857 14.0701 17.0494 14.1247 17.2041 14.1995C17.3784 14.2838 17.5367 14.4025 17.8533 14.64L18.6 15.2C19.2848 15.7136 19.6273 15.9704 19.9102 15.996C20.2874 16.03 20.6515 15.8479 20.8507 15.5257C21 15.2841 21 14.8561 21 14V6.2C21 5.07989 21 4.51984 20.782 4.09202C20.5903 3.71569 20.2843 3.40973 19.908 3.21799C19.4802 3 18.9201 3 17.8 3H11.2C10.0799 3 9.51984 3 9.09202 3.21799C8.71569 3.40973 8.40973 3.71569 8.21799 4.09202C8 4.51984 8 5.0799 8 6.2V8M16 14V11.2C16 10.0799 16 9.51984 15.782 9.09202C15.5903 8.71569 15.2843 8.40973 14.908 8.21799C14.4802 8 13.9201 8 12.8 8H8M16 14V15.8C16 16.9201 16 17.4802 15.782 17.908C15.5903 18.2843 15.2843 18.5903 14.908 18.782C14.4802 19 13.9201 19 12.8 19H8.06667C7.6709 19 7.47301 19 7.28296 19.0372C7.11431 19.0701 6.95062 19.1247 6.79592 19.1995C6.62159 19.2838 6.46328 19.4025 6.14667 19.64L5.4 20.2C4.71516 20.7136 4.37274 20.9704 4.08981 20.996C3.71256 21.03 3.34848 20.8479 3.14935 20.5257C3 20.2841 3 19.8561 3 19V11.2C3 10.0799 3 9.51984 3.21799 9.09202C3.40973 8.71569 3.71569 8.40973 4.09202 8.21799C4.51984 8 5.0799 8 6.2 8H8" stroke="#0B0D12" stroke-width="2" stroke-linecap="round" stroke-linejoin="round"/>
</svg>
