<svg width="24" height="24" viewBox="0 0 24 24" fill="none" xmlns="http://www.w3.org/2000/svg">
<path d="M15.8261 16H17.8C18.9201 16 19.4802 16 19.908 15.782C20.2843 15.5903 20.5903 15.2843 20.782 14.908C21 14.4802 21 13.9201 21 12.8V9.5C21 5.91015 18.0899 3 14.5 3C11.3759 3 8.7665 5.20406 8.14206 8.14206M15.8261 16C15.9398 15.5185 16 15.0163 16 14.5C16 10.9101 13.0899 8 9.5 8C9.03429 8 8.58002 8.04898 8.14206 8.14206M15.8261 16C15.1489 18.8667 12.5736 21 9.5 21H6.2C5.0799 21 4.51984 21 4.09202 20.782C3.71569 20.5903 3.40973 20.2843 3.21799 19.908C3 19.4802 3 18.9201 3 17.8V14.5C3 11.3759 5.20406 8.7665 8.14206 8.14206" stroke="#0B0D12" stroke-width="2" stroke-linecap="round" stroke-linejoin="round"/>
</svg>
