<svg width="24" height="24" viewBox="0 0 24 24" fill="none" xmlns="http://www.w3.org/2000/svg">
<path d="M8.13887 8.14587C8.75683 5.20668 11.3642 3 14.4869 3C18.0695 3 20.9737 5.90453 20.9737 9.48746C20.9737 10.1488 20.8748 10.7871 20.6909 11.3882C20.5705 11.7816 20.5244 12.1982 20.6135 12.5998L20.9634 14.1776C21.2007 15.2473 20.2464 16.2011 19.1769 15.9632L17.6046 15.6135C17.2022 15.5239 16.7847 15.5702 16.3906 15.6911C16.2171 15.7442 16.0405 15.7904 15.8611 15.829M8.13887 8.14587C5.21635 8.77632 3.02627 11.3761 3.02627 14.4875C3.02627 15.1488 3.12522 15.7871 3.30914 16.3882C3.42948 16.7816 3.47562 17.1982 3.38654 17.5998L3.03657 19.1776C2.79932 20.2473 3.75363 21.2011 4.82306 20.9632L6.39537 20.6135C6.79776 20.5239 7.21529 20.5702 7.60941 20.6911C8.21141 20.8756 8.85068 20.9749 9.51313 20.9749C12.6358 20.9749 15.2432 18.7682 15.8611 15.829M8.13887 8.14587C8.58183 8.05032 9.0416 8 9.51313 8C13.0957 8 16 10.9045 16 14.4875C16 14.9474 15.9521 15.3962 15.8611 15.829" stroke="#0B0D12" stroke-width="2" stroke-linecap="round" stroke-linejoin="round"/>
</svg>
