<svg width="24" height="24" viewBox="0 0 24 24" fill="none" xmlns="http://www.w3.org/2000/svg">
<path d="M15 5V4.6C15 4.03995 15 3.75992 14.891 3.54601C14.7951 3.35785 14.6422 3.20487 14.454 3.10899C14.2401 3 13.9601 3 13.4 3H10.6C10.0399 3 9.75992 3 9.54601 3.10899C9.35785 3.20487 9.20487 3.35785 9.10899 3.54601C9 3.75992 9 4.03995 9 4.6V5M15 5V5.4C15 5.96005 15 6.24008 14.891 6.45399C14.7951 6.64215 14.6422 6.79513 14.454 6.89101C14.2401 7 13.9601 7 13.4 7H10.6C10.0399 7 9.75992 7 9.54601 6.89101C9.35785 6.79513 9.20487 6.64215 9.10899 6.45399C9 6.24008 9 5.96005 9 5.4V5M15 5H16C17.6569 5 19 6.34315 19 8V16.2C19 17.8802 19 18.7202 18.673 19.362C18.3854 19.9265 17.9265 20.3854 17.362 20.673C16.7202 21 15.8802 21 14.2 21H9.8C8.11984 21 7.27976 21 6.63803 20.673C6.07354 20.3854 5.6146 19.9265 5.32698 19.362C5 18.7202 5 17.8802 5 16.2V8C5 6.34315 6.34315 5 8 5H9" stroke="#0B0D12" stroke-width="2" stroke-linecap="round" stroke-linejoin="round"/>
</svg>
