<svg width="24" height="24" viewBox="0 0 24 24" fill="none" xmlns="http://www.w3.org/2000/svg">
<path d="M7.34619 13.6154L7.66242 12.6667L7.66241 12.6667L7.34619 13.6154ZM7.64877 13.7163L7.33254 14.6649H7.33254L7.64877 13.7163ZM10 20C9.44772 20 9 20.4477 9 21C9 21.5523 9.44772 22 10 22V20ZM14 22C14.5523 22 15 21.5523 15 21C15 20.4477 14.5523 20 14 20V22ZM8.90127 14.8025L9.7957 14.3553L9.7957 14.3553L8.90127 14.8025ZM15.0987 14.8025L14.2043 14.3553L15.0987 14.8025ZM4.10899 5.54601L3.21799 5.09202L3.21799 5.09202L4.10899 5.54601ZM4.54601 5.10899L5 6L5 6L4.54601 5.10899ZM19.891 5.54601L19 6L19 6L19.891 5.54601ZM19.454 5.10899L19 6L19 6L19.454 5.10899ZM17.7681 3.64035C18.1217 3.21615 18.0646 2.58558 17.6404 2.23192C17.2162 1.87826 16.5856 1.93545 16.2319 2.35965L17.7681 3.64035ZM12.0539 8.93267L11.3513 9.64422L12.0539 8.93267ZM19.5 10L20.0547 9.16795L19.5 10ZM4.5 10L3.9453 9.16795L3.9453 9.16795L4.5 10ZM16.5 10L17.0547 10.8321L16.5 10ZM13.5 10L12.9453 10.8321L13.5 10ZM7.5 10L6.9453 10.8321L7.5 10ZM4.16256 10.225L3.19583 10.4808L4.16256 10.225ZM19.8374 10.225L20.8042 10.4808L19.8374 10.225ZM12.441 9.58197L11.4804 9.86016L12.441 9.58197ZM9.55311 10.3971L10.5176 10.133L9.55311 10.3971ZM21 8.97281V6.6H19V8.97281H21ZM3 6.6V8.97281H5V6.6H3ZM7.02996 14.5641L7.33254 14.6649L7.965 12.7676L7.66242 12.6667L7.02996 14.5641ZM16.6675 14.6649L16.97 14.5641L16.3376 12.6667L16.035 12.7676L16.6675 14.6649ZM13.1612 15H12V17H13.1612V15ZM12 15H10.8388V17H12V15ZM11 16V21H13V16H11ZM12 20H10V22H12V20ZM12 22H14V20H12V22ZM5.6 6H18.4V4H5.6V6ZM8.00685 15.2498C8.54318 16.3224 9.63952 17 10.8388 17V15C10.3971 15 9.99325 14.7504 9.7957 14.3553L8.00685 15.2498ZM14.2043 14.3553C14.0068 14.7504 13.6029 15 13.1612 15V17C14.3605 17 15.4568 16.3224 15.9932 15.2498L14.2043 14.3553ZM16.035 12.7676C15.2384 13.0331 14.5798 13.6043 14.2043 14.3553L15.9932 15.2498C16.1315 14.9731 16.374 14.7627 16.6675 14.6649L16.035 12.7676ZM7.33254 14.6649C7.62597 14.7627 7.86852 14.9731 8.00685 15.2498L9.7957 14.3553C9.42016 13.6043 8.76164 13.0331 7.965 12.7676L7.33254 14.6649ZM5 6.6C5 6.30347 5.00078 6.14122 5.0103 6.02463C5.01887 5.91972 5.0293 5.94249 5 6L3.21799 5.09202C3.07969 5.36344 3.03562 5.63318 3.01695 5.86177C2.99922 6.07869 3 6.33647 3 6.6H5ZM5.6 4C5.33647 4 5.07869 3.99922 4.86177 4.01695C4.63318 4.03562 4.36344 4.07969 4.09202 4.21799L5 6C4.94249 6.0293 4.91972 6.01887 5.02463 6.0103C5.14122 6.00078 5.30347 6 5.6 6V4ZM5 6L5 6L4.09202 4.21799C3.71569 4.40973 3.40973 4.7157 3.21799 5.09202L5 6ZM21 6.6C21 6.33647 21.0008 6.07869 20.9831 5.86177C20.9644 5.63318 20.9203 5.36344 20.782 5.09202L19 6C18.9707 5.94249 18.9811 5.91972 18.9897 6.02463C18.9992 6.14122 19 6.30347 19 6.6H21ZM18.4 6C18.6965 6 18.8588 6.00078 18.9754 6.0103C19.0803 6.01887 19.0575 6.0293 19 6L19.908 4.21799C19.6366 4.07969 19.3668 4.03562 19.1382 4.01695C18.9213 3.99922 18.6635 4 18.4 4V6ZM20.782 5.09202C20.5903 4.71569 20.2843 4.40973 19.908 4.21799L19 6L19 6L20.782 5.09202ZM11.5 10C11.5 10.2762 11.2761 10.5 11 10.5V12.5C12.3807 12.5 13.5 11.3808 13.5 10H11.5ZM10.5 10C10.5 9.7239 10.7239 9.50004 11 9.50004V7.50004C9.61929 7.50004 8.5 8.61933 8.5 10H10.5ZM12.822 9.57302L17.7681 3.64035L16.2319 2.35965L11.2858 8.29231L12.822 9.57302ZM11 9.50004C11.1372 9.50004 11.2599 9.55402 11.3513 9.64422L12.7565 8.22111C12.3061 7.77632 11.6843 7.50004 11 7.50004V9.50004ZM17.0547 10.8321C17.6271 10.4504 18.3729 10.4504 18.9453 10.8321L20.0547 9.16795C18.8105 8.33847 17.1895 8.33847 15.9453 9.16795L17.0547 10.8321ZM12.9453 10.8321C14.1895 11.6615 15.8105 11.6615 17.0547 10.8321L15.9453 9.16795C15.3729 9.54957 14.6271 9.54957 14.0547 9.16795L12.9453 10.8321ZM8.0547 9.16795C6.81047 8.33847 5.18953 8.33847 3.9453 9.16795L5.0547 10.8321C5.62713 10.4504 6.37287 10.4504 6.9453 10.8321L8.0547 9.16795ZM4.71726 11.057L5.0547 10.832L3.9453 9.16795L3.60786 9.39291L4.71726 11.057ZM3 8.97281C3 9.49008 3.06759 9.99617 3.19583 10.4808L5.12928 9.96914C5.04474 9.64965 5 9.31549 5 8.97281H3ZM3.19583 10.4808C3.69533 12.3683 5.11415 13.9255 7.02996 14.5641L7.66241 12.6667C6.39743 12.245 5.45942 11.2167 5.12928 9.96914L3.19583 10.4808ZM18.9453 10.8321L19.2827 11.057L20.3921 9.39291L20.0547 9.16795L18.9453 10.8321ZM19 8.97281C19 9.31549 18.9553 9.64965 18.8707 9.96914L20.8042 10.4808C20.9324 9.99617 21 9.49008 21 8.97281H19ZM18.8707 9.96914C18.5406 11.2167 17.6026 12.245 16.3376 12.6667L16.97 14.5641C18.8859 13.9255 20.3047 12.3683 20.8042 10.4808L18.8707 9.96914ZM12.2781 10.5686C12.512 10.6072 12.7395 10.6949 12.9453 10.8321L14.0547 9.16795C13.6084 8.87039 13.1129 8.67934 12.6038 8.59532L12.2781 10.5686ZM11.3513 9.64422C11.4122 9.70441 11.4569 9.77873 11.4804 9.86016L13.4015 9.30378C13.2807 8.88665 13.055 8.51588 12.7565 8.22111L11.3513 9.64422ZM11.4804 9.86016C11.493 9.90337 11.5 9.95003 11.5 10H13.5C13.5 9.75987 13.4658 9.52597 13.4015 9.30378L11.4804 9.86016ZM6.9453 10.8321C7.78821 11.394 8.80387 11.575 9.75743 11.376L9.34878 9.41818C8.90914 9.50994 8.44215 9.42625 8.0547 9.16795L6.9453 10.8321ZM11 10.5C10.7711 10.5 10.5757 10.3454 10.5176 10.133L8.5886 10.6611C8.87858 11.7203 9.84695 12.5 11 12.5V10.5ZM10.5176 10.133C10.5063 10.0918 10.5 10.0475 10.5 10H8.5C8.5 10.2275 8.53064 10.4494 8.5886 10.6611L10.5176 10.133Z" fill="#0B0D12"/>
</svg>
