<svg width="24" height="24" viewBox="0 0 24 24" fill="none" xmlns="http://www.w3.org/2000/svg">
<path d="M12 15V21M12 15L16.1644 10.3729M12 15L7.83562 10.3729M12 21H10M12 21H14M12.0539 8.93267L17 3M16.1644 10.3729C15.0006 9.51023 13.5599 9 12 9C10.4401 9 8.99938 9.51023 7.83562 10.3729M16.1644 10.3729L19.7983 6.33517C20.179 5.91219 20.3694 5.7007 20.3769 5.52086C20.3834 5.36465 20.3165 5.21437 20.196 5.11472C20.0573 5 19.7728 5 19.2037 5H4.79629C4.22722 5 3.94269 5 3.804 5.11472C3.68352 5.21437 3.61659 5.36465 3.62312 5.52086C3.63063 5.7007 3.82097 5.91219 4.20166 6.33517L7.83562 10.3729" stroke="#0B0D12" stroke-width="2" stroke-linecap="round" stroke-linejoin="round"/>
</svg>
