<svg width="24" height="24" viewBox="0 0 24 24" fill="none" xmlns="http://www.w3.org/2000/svg">
<path d="M9.65062 4.70231C9.69686 4.58777 9.71999 4.5305 9.73447 4.49737C10.6073 2.50087 13.3927 2.50088 14.2655 4.49737C14.28 4.5305 14.3031 4.58777 14.3494 4.70231C14.3662 4.74399 14.3746 4.76483 14.3825 4.78337C14.8159 5.80993 15.8616 6.42408 16.9522 6.2927C16.9719 6.29033 16.9939 6.28732 17.0377 6.28131C17.1584 6.26478 17.2187 6.25652 17.2541 6.25272C19.3902 6.02345 20.7829 8.47742 19.5197 10.2447C19.4987 10.274 19.4615 10.323 19.3871 10.421C19.3601 10.4567 19.3465 10.4745 19.3347 10.4907C18.6775 11.3858 18.6775 12.6142 19.3347 13.5093C19.3465 13.5255 19.3601 13.5433 19.3871 13.579C19.4615 13.677 19.4987 13.726 19.5197 13.7553C20.7829 15.5226 19.3902 17.9765 17.2541 17.7473C17.2187 17.7435 17.1584 17.7352 17.0377 17.7187C16.9939 17.7127 16.9719 17.7097 16.9522 17.7073C15.8616 17.5759 14.8159 18.1901 14.3825 19.2166C14.3746 19.2352 14.3662 19.256 14.3494 19.2977C14.3031 19.4122 14.28 19.4695 14.2655 19.5026C13.3927 21.4991 10.6073 21.4991 9.73447 19.5026C9.71999 19.4695 9.69686 19.4122 9.65062 19.2977C9.63379 19.256 9.62538 19.2352 9.61754 19.2166C9.18407 18.1901 8.13843 17.5759 7.04779 17.7073C7.02809 17.7097 7.00614 17.7127 6.96225 17.7187C6.84162 17.7352 6.7813 17.7435 6.74586 17.7473C4.60984 17.9765 3.21715 15.5226 4.48033 13.7553C4.50129 13.726 4.53848 13.677 4.61287 13.579C4.63993 13.5433 4.65347 13.5255 4.66534 13.5093C5.3225 12.6142 5.3225 11.3858 4.66534 10.4907C4.65347 10.4745 4.63993 10.4567 4.61287 10.421C4.53848 10.323 4.50129 10.274 4.48033 10.2447C3.21715 8.47742 4.60984 6.02345 6.74586 6.25272C6.78131 6.25652 6.84162 6.26478 6.96225 6.28131C7.00614 6.28732 7.02809 6.29033 7.04779 6.2927C8.13843 6.42408 9.18407 5.80993 9.61754 4.78338C9.62538 4.76483 9.63379 4.74399 9.65062 4.70231Z" stroke="#0B0D12" stroke-width="2"/>
<path d="M15 12C15 13.6569 13.6569 15 12 15C10.3431 15 9 13.6569 9 12C9 10.3431 10.3431 9 12 9C13.6569 9 15 10.3431 15 12Z" stroke="#0B0D12" stroke-width="2"/>
</svg>
