<svg width="24" height="24" viewBox="0 0 24 24" fill="none" xmlns="http://www.w3.org/2000/svg">
<path d="M12 13C14.7614 13 17 10.7614 17 8C17 5.23858 14.7614 3 12 3C9.23858 3 7 5.23858 7 8C7 10.7614 9.23858 13 12 13ZM12 13C12.6279 13.8357 13 14.8742 13 16C13 17.1258 12.6279 18.1647 12 19.0005M8 11C5.23858 11 3 13.2386 3 16C3 18.7614 5.23858 21 8 21C9.6356 21 11.0878 20.2147 12 19.0005M16 11C18.7614 11 21 13.2386 21 16C21 18.7614 18.7614 21 16 21C14.3644 21 12.9122 20.2147 12 19.0005" stroke="#0B0D12" stroke-width="2" stroke-linecap="round" stroke-linejoin="round"/>
</svg>
