<svg width="24" height="24" viewBox="0 0 24 24" fill="none" xmlns="http://www.w3.org/2000/svg">
<path d="M2.29289 20.2929C1.90237 20.6834 1.90237 21.3166 2.29289 21.7071C2.68342 22.0976 3.31658 22.0976 3.70711 21.7071L2.29289 20.2929ZM18.7071 10.7071C19.0976 10.3166 19.0976 9.68341 18.7071 9.29289C18.3166 8.90236 17.6834 8.90236 17.2929 9.29289L18.7071 10.7071ZM5 15L5.70711 15.7071H5.70711L5 15ZM14.7071 6.7071C15.0976 6.31658 15.0976 5.68341 14.7071 5.29289C14.3166 4.90236 13.6834 4.90236 13.2929 5.29289L14.7071 6.7071ZM12 3.99999V2.99999C11.5955 2.99999 11.2309 3.24364 11.0761 3.61731C10.9213 3.99099 11.0069 4.4211 11.2929 4.7071L12 3.99999ZM20 12L19.2929 12.7071C19.5789 12.9931 20.009 13.0787 20.3827 12.9239C20.7564 12.7691 21 12.4045 21 12H20ZM16.6546 3.60721L17.1691 4.4647L17.1692 4.46469L16.6546 3.60721ZM16.681 3.5914L16.1665 2.73391L16.1665 2.73392L16.681 3.5914ZM20.4086 7.31901L21.2661 7.83353L21.2661 7.83351L20.4086 7.31901ZM20.3928 7.34535L19.5353 6.83083L19.5353 6.83085L20.3928 7.34535ZM12.2071 2.79289C11.8166 2.40236 11.1834 2.40236 10.7929 2.79289C10.4024 3.18341 10.4024 3.81658 10.7929 4.2071L12.2071 2.79289ZM19.7929 13.2071C20.1834 13.5976 20.8166 13.5976 21.2071 13.2071C21.5976 12.8166 21.5976 12.1834 21.2071 11.7929L19.7929 13.2071ZM3.70711 21.7071L5.70711 19.7071L4.29289 18.2929L2.29289 20.2929L3.70711 21.7071ZM9.70711 19.7071L18.7071 10.7071L17.2929 9.29289L8.29289 18.2929L9.70711 19.7071ZM5.70711 15.7071L14.7071 6.7071L13.2929 5.29289L4.29289 14.2929L5.70711 15.7071ZM4.29289 19.7071C5.78799 21.2022 8.21201 21.2022 9.70711 19.7071L8.29289 18.2929C7.57885 19.0069 6.42115 19.0069 5.70711 18.2929L4.29289 19.7071ZM5.70711 18.2929C4.99306 17.5788 4.99306 16.4211 5.70711 15.7071L4.29289 14.2929C2.7978 15.788 2.7978 18.212 4.29289 19.7071L5.70711 18.2929ZM11.2929 4.7071L19.2929 12.7071L20.7071 11.2929L12.7071 3.29289L11.2929 4.7071ZM17.1692 4.46469L17.1955 4.44889L16.1665 2.73392L16.1401 2.74972L17.1692 4.46469ZM19.5511 6.80449L19.5353 6.83083L21.2503 7.85987L21.2661 7.83353L19.5511 6.80449ZM19.2929 4.7071C19.85 5.26419 19.9564 6.12894 19.5511 6.80452L21.2661 7.83351C22.1436 6.37098 21.9131 4.49892 20.7071 3.29289L19.2929 4.7071ZM20.7071 3.29289C19.5011 2.08686 17.629 1.8564 16.1665 2.73391L17.1955 4.4489C17.8711 4.04355 18.7358 4.15001 19.2929 4.7071L20.7071 3.29289ZM15.2366 4.99999C15.9174 4.99999 16.5854 4.81497 17.1691 4.4647L16.1402 2.74971C15.8672 2.91348 15.5549 2.99999 15.2366 2.99999V4.99999ZM21 8.76344C21 8.44512 21.0865 8.13279 21.2503 7.85984L19.5353 6.83085C19.185 7.41463 19 8.08264 19 8.76344H21ZM10.7929 4.2071L19.7929 13.2071L21.2071 11.7929L12.2071 2.79289L10.7929 4.2071ZM21 12V8.76344H19V12H21ZM12 4.99999H15.2366V2.99999H12V4.99999Z" fill="#0B0D12"/>
</svg>
