<svg width="24" height="24" viewBox="0 0 24 24" fill="none" xmlns="http://www.w3.org/2000/svg">
<path d="M21 12C21 14.4853 19.9926 16.7353 18.364 18.364M21 12C21 9.51472 19.9926 7.26472 18.364 5.63604M21 12H18.5M3 12C3 9.51472 4.00736 7.26472 5.63604 5.63604M3 12C3 14.4853 4.00736 16.7353 5.63604 18.364M3 12H5.5M12 3C14.4853 3 16.7353 4.00736 18.364 5.63604M12 3C9.51472 3 7.26472 4.00736 5.63604 5.63604M12 3V5.5M18.364 18.364C16.7353 19.9926 14.4853 21 12 21C9.51472 21 7.26472 19.9926 5.63604 18.364M18.364 18.364L17 17M18.364 5.63604L17 7M5.63604 5.63604L7 7M5.63604 18.364L7 17M12 20.8573V18.5M12 9L13.3576 10.6424L15 12L13.3576 13.3576L12 15L10.6424 13.3576L9 12L10.6424 10.6424L12 9Z" stroke="#0B0D12" stroke-width="2" stroke-linecap="round" stroke-linejoin="round"/>
</svg>
