<svg width="24" height="24" viewBox="0 0 24 24" fill="none" xmlns="http://www.w3.org/2000/svg">
<path d="M9 15H6.2C5.0799 15 4.51984 15 4.09202 14.782C3.71569 14.5903 3.40973 14.2843 3.21799 13.908C3 13.4802 3 12.9201 3 11.8V6.2C3 5.0799 3 4.51984 3.21799 4.09202C3.40973 3.71569 3.71569 3.40973 4.09202 3.21799C4.51984 3 5.0799 3 6.2 3H11.8C12.9201 3 13.4802 3 13.908 3.21799C14.2843 3.40973 14.5903 3.71569 14.782 4.09202C15 4.51984 15 5.0799 15 6.2V9M12.2 21H17.8C18.9201 21 19.4802 21 19.908 20.782C20.2843 20.5903 20.5903 20.2843 20.782 19.908C21 19.4802 21 18.9201 21 17.8V12.2C21 11.0799 21 10.5198 20.782 10.092C20.5903 9.71569 20.2843 9.40973 19.908 9.21799C19.4802 9 18.9201 9 17.8 9H12.2C11.0799 9 10.5198 9 10.092 9.21799C9.71569 9.40973 9.40973 9.71569 9.21799 10.092C9 10.5198 9 11.0799 9 12.2V17.8C9 18.9201 9 19.4802 9.21799 19.908C9.40973 20.2843 9.71569 20.5903 10.092 20.782C10.5198 21 11.0799 21 12.2 21Z" stroke="#0B0D12" stroke-width="2" stroke-linecap="round" stroke-linejoin="round"/>
</svg>
