<svg width="24" height="24" viewBox="0 0 24 24" fill="none" xmlns="http://www.w3.org/2000/svg">
<path d="M4.41421 18.1716L5.12132 17.4645C4.93378 17.2769 4.67943 17.1716 4.41421 17.1716V18.1716ZM5.82843 19.5858H6.82843C6.82843 19.3206 6.72307 19.0662 6.53553 18.8787L5.82843 19.5858ZM5.82843 21L5.12132 21.7071C5.40732 21.9931 5.83744 22.0787 6.21111 21.9239C6.58478 21.7691 6.82843 21.4045 6.82843 21H5.82843ZM3 18.1716V17.1716C2.59554 17.1716 2.2309 17.4152 2.07612 17.7889C1.92134 18.1626 2.0069 18.5927 2.29289 18.8787L3 18.1716ZM4.41434 18.1717C4.02381 18.5622 4.02381 19.1954 4.41434 19.5859C4.80486 19.9764 5.43802 19.9764 5.82855 19.5859L4.41434 18.1717ZM16.1859 4.98511C16.5765 4.59458 16.5765 3.96142 16.1859 3.5709C15.7954 3.18037 15.1623 3.18037 14.7717 3.57089L16.1859 4.98511ZM20.4285 9.22781C20.819 8.83729 20.819 8.20412 20.4285 7.8136C20.038 7.42307 19.4048 7.42307 19.0143 7.8136L20.4285 9.22781ZM16.4034 11.8387L17.1105 12.5458L16.4034 11.8387ZM12.609 8.46057L13.4751 7.9607L12.609 8.46057ZM15.5389 11.3904L16.0388 10.5243L15.5389 11.3904ZM8.96113 12.8109L7.98054 13.007L7.98061 13.0073L8.96113 12.8109ZM8.80582 11.5943L7.81057 11.4971L8.80582 11.5943ZM9.83624 9.92059L9.12914 9.21349V9.21349L9.83624 9.92059ZM9.0322 10.8467L9.91427 11.3178L9.0322 10.8467ZM11.1886 15.0384L10.9925 16.0189H10.9925L11.1886 15.0384ZM12.4051 15.1937L12.5024 16.1889L12.4051 15.1937ZM13.1528 14.9673L12.6817 14.0852L13.1528 14.9673ZM15.5302 2.55279C15.2832 2.05881 14.6825 1.85858 14.1885 2.10557C13.6945 2.35256 13.4943 2.95324 13.7413 3.44721L15.5302 2.55279ZM20.5525 10.2584C21.0465 10.5054 21.6471 10.3052 21.8941 9.81117C22.1411 9.3172 21.9409 8.71652 21.4469 8.46953L20.5525 10.2584ZM3.70711 18.8787L5.12132 20.2929L6.53553 18.8787L5.12132 17.4645L3.70711 18.8787ZM4.82843 19.5858V21H6.82843V19.5858H4.82843ZM6.53553 20.2929L3.70711 17.4645L2.29289 18.8787L5.12132 21.7071L6.53553 20.2929ZM3 19.1716H4.41421V17.1716H3V19.1716ZM5.82855 19.5859L10.0401 15.3743L8.6259 13.9601L4.41434 18.1717L5.82855 19.5859ZM11.3847 14.0578L9.52913 13.6867L9.13689 15.6478L10.9925 16.0189L11.3847 14.0578ZM10.3135 14.4708L9.94164 12.6145L7.98061 13.0073L8.35249 14.8637L10.3135 14.4708ZM10.5433 10.6277L12.8679 8.30315L11.4537 6.88894L9.12914 9.21349L10.5433 10.6277ZM12.8679 8.30315L16.1859 4.98511L14.7717 3.57089L11.4537 6.88894L12.8679 8.30315ZM19.0143 7.8136L15.6963 11.1316L17.1105 12.5458L20.4285 9.22781L19.0143 7.8136ZM15.6963 11.1316L13.3718 13.4561L14.786 14.8703L17.1105 12.5458L15.6963 11.1316ZM11.2664 8.04326C11.4803 8.47103 11.6049 8.72133 11.7429 8.96043L13.4751 7.9607C13.3739 7.78535 13.2795 7.59745 13.0552 7.14883L11.2664 8.04326ZM16.8506 10.9443C16.402 10.7199 16.2141 10.6255 16.0388 10.5243L15.039 12.2565C15.2781 12.3945 15.5285 12.5192 15.9562 12.7331L16.8506 10.9443ZM11.7429 8.96043C12.5331 10.3295 13.6699 11.4664 15.039 12.2565L16.0388 10.5243C14.9739 9.90976 14.0897 9.02555 13.4751 7.9607L11.7429 8.96043ZM9.94171 12.6148C9.8067 11.9398 9.79004 11.8045 9.80108 11.6916L7.81057 11.4971C7.76382 11.9753 7.86996 12.4541 7.98054 13.007L9.94171 12.6148ZM9.12914 9.21349C8.73041 9.61221 8.37652 9.95169 8.15013 10.3756L9.91427 11.3178C9.96771 11.2177 10.0566 11.1145 10.5433 10.6277L9.12914 9.21349ZM9.80108 11.6916C9.81387 11.5608 9.85233 11.4338 9.91427 11.3178L8.15013 10.3756C7.96433 10.7234 7.84894 11.1045 7.81057 11.4971L9.80108 11.6916ZM10.9925 16.0189C11.5454 16.1295 12.0241 16.2357 12.5024 16.1889L12.3078 14.1984C12.1949 14.2094 12.0597 14.1928 11.3847 14.0578L10.9925 16.0189ZM13.3718 13.4561C12.885 13.9429 12.7817 14.0318 12.6817 14.0852L13.6239 15.8493C14.0478 15.623 14.3873 15.2691 14.786 14.8703L13.3718 13.4561ZM12.5024 16.1889C12.8949 16.1505 13.276 16.0352 13.6239 15.8493L12.6817 14.0852C12.5657 14.1471 12.4387 14.1856 12.3078 14.1984L12.5024 16.1889ZM14.6357 3C13.7413 3.44721 13.7414 3.44748 13.7416 3.44775C13.7416 3.44785 13.7418 3.44813 13.7419 3.44833C13.7421 3.44872 13.7423 3.44913 13.7425 3.44957C13.7429 3.45044 13.7434 3.4514 13.7439 3.45244C13.745 3.45453 13.7462 3.45696 13.7477 3.45973C13.7505 3.46527 13.7541 3.47217 13.7584 3.48041C13.767 3.49689 13.7786 3.51872 13.7935 3.54574C13.8231 3.59978 13.8654 3.67454 13.9219 3.76861C14.0348 3.95678 14.204 4.22214 14.4407 4.55351C14.9142 5.21643 15.6569 6.1425 16.7571 7.24264L18.1713 5.82843C17.1501 4.80725 16.4786 3.96555 16.0682 3.39103C15.8629 3.10369 15.7228 2.88291 15.6369 2.73962C15.5939 2.66797 15.5644 2.61567 15.5471 2.58408C15.5384 2.56828 15.5328 2.55766 15.53 2.55239C15.5287 2.54976 15.528 2.54846 15.528 2.54852C15.528 2.54855 15.5282 2.54891 15.5286 2.54963C15.5288 2.54998 15.529 2.55042 15.5292 2.55095C15.5294 2.55121 15.5295 2.5515 15.5297 2.5518C15.5298 2.55196 15.5299 2.5522 15.5299 2.55228C15.53 2.55253 15.5302 2.55279 14.6357 3ZM16.7571 7.24264C17.8572 8.34278 18.7833 9.08546 19.4462 9.55898C19.7776 9.79567 20.0429 9.96492 20.2311 10.0778C20.3252 10.1343 20.3999 10.1766 20.454 10.2062C20.481 10.2211 20.5028 10.2327 20.5193 10.2413C20.5275 10.2456 20.5344 10.2492 20.54 10.252C20.5427 10.2535 20.5452 10.2547 20.5473 10.2558C20.5483 10.2563 20.5493 10.2568 20.5501 10.2572C20.5506 10.2574 20.551 10.2576 20.5514 10.2578C20.5516 10.2579 20.5518 10.2581 20.5519 10.2581C20.5522 10.2583 20.5525 10.2584 20.9997 9.36396C21.4469 8.46953 21.4472 8.46966 21.4474 8.46979C21.4475 8.46983 21.4477 8.46995 21.4479 8.47003C21.4482 8.47018 21.4485 8.47032 21.4488 8.47046C21.4493 8.47072 21.4497 8.47094 21.4501 8.47112C21.4508 8.47148 21.4512 8.47167 21.4512 8.47169C21.4512 8.47172 21.4499 8.47105 21.4473 8.46967C21.442 8.46691 21.4314 8.46128 21.4156 8.45262C21.384 8.4353 21.3317 8.40583 21.2601 8.36284C21.1168 8.27686 20.896 8.13675 20.6087 7.93151C20.0342 7.52114 19.1925 6.8496 18.1713 5.82843L16.7571 7.24264Z" fill="#0B0D12"/>
</svg>
