<svg width="24" height="24" viewBox="0 0 24 24" fill="none" xmlns="http://www.w3.org/2000/svg">
<path d="M11 20V19C10.7348 19 10.4804 19.1054 10.2929 19.2929L11 20ZM13 20L13.7071 19.2929C13.5196 19.1054 13.2652 19 13 19V20ZM14 21V22C14.4045 22 14.7691 21.7564 14.9239 21.3827C15.0787 21.009 14.9931 20.5789 14.7071 20.2929L14 21ZM10 21L9.29289 20.2929C9.0069 20.5789 8.92134 21.009 9.07612 21.3827C9.2309 21.7564 9.59554 22 10 22V21ZM11 20C11 20.5523 11.4477 21 12 21C12.5523 21 13 20.5523 13 20H11ZM10 3.30755C10 2.75527 9.55228 2.30755 9 2.30755C8.44772 2.30755 8 2.75527 8 3.30755H10ZM16 3.30755C16 2.75527 15.5523 2.30755 15 2.30755C14.4477 2.30755 14 2.75527 14 3.30755H16ZM9.92827 8.29435L9.6693 9.26024L9.92827 8.29435ZM14.0717 8.29435L14.3307 9.26024L14.0717 8.29435ZM10.425 13.95L9.87026 14.782L10.425 13.95ZM9.45491 13.1996L10.2275 12.5646L9.45491 13.1996ZM9.0863 12.5108L10.0432 12.2202L9.0863 12.5108ZM13.575 13.95L14.1297 14.782H14.1297L13.575 13.95ZM14.5451 13.1996L13.7725 12.5646L14.5451 13.1996ZM14.9137 12.5108L13.9568 12.2202L14.9137 12.5108ZM7.81623 2.05132C7.29228 1.87667 6.72596 2.15983 6.55132 2.68377C6.37667 3.20772 6.65983 3.77404 7.18377 3.94868L7.81623 2.05132ZM16.8162 3.94868C17.3402 3.77404 17.6233 3.20772 17.4487 2.68377C17.274 2.15983 16.7077 1.87667 16.1838 2.05132L16.8162 3.94868ZM11 21H13V19H11V21ZM12.2929 20.7071L13.2929 21.7071L14.7071 20.2929L13.7071 19.2929L12.2929 20.7071ZM14 20H10V22H14V20ZM10.7071 21.7071L11.7071 20.7071L10.2929 19.2929L9.29289 20.2929L10.7071 21.7071ZM13 20V15H11V20H13ZM13.0203 13.1179L11.4453 14.1679L12.5547 15.8321L14.1297 14.782L13.0203 13.1179ZM12.5547 14.1679L10.9797 13.1179L9.87026 14.782L11.4453 15.8321L12.5547 14.1679ZM10 11.2874V8H8V11.2874H10ZM10 8V3.30755H8V8H10ZM14 3.30755V8H16V3.30755H14ZM14 8V11.2874H16V8H14ZM8.68377 8.94868C9.13749 9.09992 9.40265 9.18874 9.6693 9.26024L10.1872 7.32846C9.99168 7.27603 9.79206 7.20993 9.31623 7.05132L8.68377 8.94868ZM14.6838 7.05132C14.2079 7.20993 14.0083 7.27603 13.8128 7.32846L14.3307 9.26024C14.5974 9.18874 14.8625 9.09992 15.3162 8.94868L14.6838 7.05132ZM9.6693 9.26024C11.1961 9.6696 12.8039 9.6696 14.3307 9.26024L13.8128 7.32846C12.6252 7.64686 11.3748 7.64686 10.1872 7.32846L9.6693 9.26024ZM10.9797 13.1179C10.4069 12.7361 10.2995 12.6522 10.2275 12.5646L8.68236 13.8345C8.98749 14.2058 9.40108 14.4692 9.87026 14.782L10.9797 13.1179ZM8 11.2874C8 11.8513 7.98981 12.3416 8.12945 12.8014L10.0432 12.2202C10.0102 12.1117 10 11.9758 10 11.2874H8ZM10.2275 12.5646C10.144 12.463 10.0814 12.346 10.0432 12.2202L8.12945 12.8014C8.24406 13.1788 8.43194 13.5298 8.68236 13.8345L10.2275 12.5646ZM14.1297 14.782C14.5989 14.4692 15.0125 14.2058 15.3176 13.8345L13.7725 12.5646C13.7005 12.6522 13.5931 12.7361 13.0203 13.1179L14.1297 14.782ZM14 11.2874C14 11.9758 13.9898 12.1117 13.9568 12.2202L15.8705 12.8014C16.0102 12.3416 16 11.8513 16 11.2874H14ZM15.3176 13.8345C15.5681 13.5298 15.7559 13.1788 15.8705 12.8014L13.9568 12.2202C13.9186 12.346 13.856 12.463 13.7725 12.5646L15.3176 13.8345ZM7.5 3C7.18377 3.94868 7.18406 3.94878 7.18435 3.94887C7.18445 3.94891 7.18474 3.94901 7.18495 3.94908C7.18537 3.94921 7.18581 3.94936 7.18627 3.94951C7.1872 3.94982 7.18822 3.95016 7.18933 3.95052C7.19155 3.95125 7.19414 3.95209 7.1971 3.95305C7.20302 3.95496 7.21042 3.95732 7.2193 3.9601C7.23706 3.96564 7.26073 3.97286 7.29031 3.98148C7.34948 3.99874 7.43228 4.02166 7.53871 4.04827C7.7516 4.10149 8.05891 4.16945 8.4606 4.23639C9.26418 4.37032 10.4442 4.5 12 4.5V2.5C10.5558 2.5 9.48582 2.37968 8.7894 2.26361C8.44109 2.20555 8.1859 2.14851 8.02379 2.10798C7.94272 2.08772 7.8849 2.07157 7.85031 2.06148C7.83302 2.05644 7.82153 2.05291 7.81585 2.05114C7.81301 2.05025 7.81162 2.0498 7.81169 2.04982C7.81172 2.04983 7.81211 2.04996 7.81287 2.0502C7.81325 2.05033 7.81372 2.05048 7.81428 2.05067C7.81456 2.05076 7.81486 2.05086 7.81518 2.05097C7.81535 2.05102 7.81561 2.05111 7.81569 2.05114C7.81596 2.05123 7.81623 2.05132 7.5 3ZM12 4.5C13.5558 4.5 14.7358 4.37032 15.5394 4.23639C15.9411 4.16945 16.2484 4.10149 16.4613 4.04827C16.5677 4.02166 16.6505 3.99874 16.7097 3.98148C16.7393 3.97286 16.7629 3.96564 16.7807 3.9601C16.7896 3.95732 16.797 3.95496 16.8029 3.95305C16.8059 3.95209 16.8084 3.95125 16.8107 3.95052C16.8118 3.95016 16.8128 3.94982 16.8137 3.94951C16.8142 3.94936 16.8146 3.94921 16.815 3.94908C16.8153 3.94901 16.8156 3.94891 16.8157 3.94887C16.8159 3.94878 16.8162 3.94868 16.5 3C16.1838 2.05132 16.184 2.05123 16.1843 2.05114C16.1844 2.05111 16.1847 2.05102 16.1848 2.05097C16.1851 2.05086 16.1854 2.05076 16.1857 2.05067C16.1863 2.05048 16.1868 2.05033 16.1871 2.0502C16.1879 2.04996 16.1883 2.04983 16.1883 2.04982C16.1884 2.0498 16.187 2.05025 16.1841 2.05114C16.1785 2.05291 16.167 2.05644 16.1497 2.06148C16.1151 2.07157 16.0573 2.08772 15.9762 2.10798C15.8141 2.14851 15.5589 2.20555 15.2106 2.26361C14.5142 2.37968 13.4442 2.5 12 2.5V4.5Z" fill="#0B0D12"/>
</svg>
