<svg width="24" height="24" viewBox="0 0 24 24" fill="none" xmlns="http://www.w3.org/2000/svg">
<path d="M11.2845 20.6422L10.8372 21.5367L10.8373 21.5367L11.2845 20.6422ZM4.88446 17.4422L4.43724 18.3367L4.43724 18.3367L4.88446 17.4422ZM4.88446 6.55778L4.43724 5.66335L4.43724 5.66335L4.88446 6.55778ZM11.2845 3.35778L10.8372 2.46335L11.2845 3.35778ZM12.7155 3.35778L13.1628 2.46335V2.46335L12.7155 3.35778ZM19.1155 6.55778L18.6683 7.45221V7.45221L19.1155 6.55778ZM12.7155 20.6422L13.1628 21.5367L13.1628 21.5367L12.7155 20.6422ZM19.9453 16.708L19 16.382V16.382L19.9453 16.708ZM19.7144 17.0817L20.4288 17.7814L20.4288 17.7814L19.7144 17.0817ZM19.7144 6.91832L20.4288 6.21861L20.4288 6.2186L19.7144 6.91832ZM19.9453 7.29197L19 7.61804V7.61804L19.9453 7.29197ZM11.8156 3.13519L11.6312 2.15234L11.8156 3.13519ZM12.1844 3.13519L12.3688 2.15234L12.1844 3.13519ZM4.05465 7.29197L3.10931 6.9659L3.10931 6.9659L4.05465 7.29197ZM4.28558 6.91832L3.57116 6.2186L3.57116 6.2186L4.28558 6.91832ZM4.28558 17.0817L5 16.382L5 16.382L4.28558 17.0817ZM4.05465 16.708L3.10931 17.0341H3.10931L4.05465 16.708ZM11.8156 20.8648L11.6312 21.8477L11.6312 21.8477L11.8156 20.8648ZM12.1844 20.8648L12.3688 21.8477L12.3688 21.8477L12.1844 20.8648ZM19.8422 7.0789L20.6844 6.53976L19.8422 7.0789ZM12 20.882V21.882V20.882ZM11.7317 19.7478L5.33167 16.5478L4.43724 18.3367L10.8372 21.5367L11.7317 19.7478ZM5 16.0112V7.98886H3V16.0112H5ZM5.33167 7.45221L11.7317 4.25221L10.8372 2.46335L4.43724 5.66335L5.33167 7.45221ZM12.2683 4.25221L18.6683 7.45221L19.5628 5.66335L13.1628 2.46335L12.2683 4.25221ZM19 7.98886V16.0112H21V7.98886H19ZM18.6683 16.5478L12.2683 19.7478L13.1628 21.5367L19.5628 18.3367L18.6683 16.5478ZM19 16.0112C19 16.2027 18.9996 16.3013 18.9951 16.3725C18.9914 16.432 18.9873 16.4188 19 16.382L20.8907 17.0341C21.013 16.6794 21 16.2976 21 16.0112H19ZM19.5628 18.3367C19.819 18.2086 20.1663 18.0495 20.4288 17.7814L19 16.382C19.0273 16.3541 19.0409 16.3519 18.9894 16.3818C18.9276 16.4177 18.8397 16.4621 18.6683 16.5478L19.5628 18.3367ZM19 16.382L19 16.382L20.4288 17.7814C20.6363 17.5696 20.794 17.3144 20.8907 17.0341L19 16.382ZM18.6683 7.45221C18.8397 7.53789 18.9276 7.58234 18.9894 7.6182C19.0409 7.64813 19.0273 7.6459 19 7.61804L20.4288 6.2186C20.1663 5.95052 19.819 5.79146 19.5628 5.66335L18.6683 7.45221ZM21 7.98886C21 7.7024 21.013 7.32064 20.8907 6.9659L19 7.61804C18.9873 7.58118 18.9914 7.56798 18.9951 7.62747C18.9996 7.69876 19 7.79728 19 7.98886H21ZM11.7317 4.25221C11.872 4.18204 11.943 4.1469 11.9958 4.12393C12.0389 4.10516 12.0308 4.11227 12 4.11804L11.6312 2.15234C11.3237 2.21004 11.0478 2.35809 10.8372 2.46335L11.7317 4.25221ZM13.1628 2.46335C12.9522 2.35809 12.6763 2.21004 12.3688 2.15234L12 4.11804C11.9692 4.11227 11.9611 4.10516 12.0042 4.12393C12.057 4.1469 12.128 4.18204 12.2683 4.25221L13.1628 2.46335ZM12 4.11804L12 4.11804L12.3688 2.15234C12.1251 2.10661 11.8749 2.10661 11.6312 2.15234L12 4.11804ZM5 7.98886C5 7.79728 5.00045 7.69876 5.00489 7.62747C5.0086 7.56798 5.01272 7.58118 5 7.61804L3.10931 6.9659C2.98695 7.32064 3 7.7024 3 7.98886H5ZM4.43724 5.66335C4.18102 5.79146 3.83373 5.95052 3.57116 6.2186L5 7.61804C4.97271 7.6459 4.95907 7.64813 5.01062 7.6182C5.0724 7.58234 5.16031 7.53789 5.33167 7.45221L4.43724 5.66335ZM5.33168 16.5478C5.16032 16.4621 5.0724 16.4177 5.01062 16.3818C4.95906 16.3519 4.97271 16.3541 5 16.382L3.57116 17.7814C3.83373 18.0495 4.18104 18.2086 4.43724 18.3367L5.33168 16.5478ZM3 16.0112C3 16.2976 2.98695 16.6794 3.10931 17.0341L5 16.382C5.01272 16.4188 5.0086 16.432 5.00489 16.3725C5.00045 16.3013 5 16.2027 5 16.0112H3ZM5 16.382L5 16.382L3.10931 17.0341C3.20597 17.3144 3.36373 17.5696 3.57116 17.7814L5 16.382ZM10.8373 21.5367C11.0477 21.6419 11.3237 21.79 11.6312 21.8477L12 19.882C12.0308 19.8878 12.0389 19.8949 11.9958 19.8761C11.943 19.8531 11.872 19.818 11.7317 19.7478L10.8373 21.5367ZM12.2683 19.7478C12.128 19.818 12.057 19.8531 12.0042 19.8761C11.9611 19.8949 11.9692 19.8878 12 19.882L12.3688 21.8477C12.6763 21.79 12.9522 21.6419 13.1628 21.5367L12.2683 19.7478ZM12.4472 11.8944L20.2894 7.97333L19.395 6.18447L11.5528 10.1056L12.4472 11.8944ZM19 7.61804L19 7.61804L20.6844 6.53976C20.6107 6.42458 20.5251 6.31691 20.4288 6.21861L19 7.61804ZM19 7.61804L19 7.61804L20.8907 6.9659C20.8389 6.81573 20.7696 6.67273 20.6844 6.53976L19 7.61804ZM12.4472 10.1056L4.605 6.18447L3.71057 7.97333L11.5528 11.8944L12.4472 10.1056ZM5 7.61804L5 7.61804L3.31557 6.53976C3.23045 6.67273 3.16111 6.81573 3.10931 6.9659L5 7.61804ZM5 7.61804H5L3.57116 6.2186C3.47488 6.31691 3.3893 6.42458 3.31557 6.53976L5 7.61804ZM11.6312 21.8477C11.7531 21.8705 11.8765 21.882 12 21.882V19.882H12L11.6312 21.8477ZM12 21.882C12.1235 21.882 12.2469 21.8705 12.3688 21.8477L12 19.882H12V21.882ZM13 20.882V11H11V20.882H13Z" fill="#0B0D12"/>
</svg>
