<svg width="24" height="24" viewBox="0 0 24 24" fill="none" xmlns="http://www.w3.org/2000/svg">
<path d="M19.4164 14.1642L18.5222 14.6119L19.4164 14.1642ZM16.2303 7.8005L15.3361 8.24819L16.2303 7.8005ZM7.76962 7.80052L6.87543 7.35284L7.76962 7.80052ZM4.58362 14.1642L5.47781 14.6119L4.58362 14.1642ZM13.2667 3.28479L12.8386 4.18854L13.2667 3.28479ZM10.7332 3.2848L11.1613 4.18854L10.7332 3.2848ZM19.75 20.467L20.3227 21.2868L20.3227 21.2868L19.75 20.467ZM20.9801 18.4793L19.9909 18.333L20.9801 18.4793ZM4.24997 20.467L3.67734 21.2868H3.67734L4.24997 20.467ZM3.0199 18.4793L4.00913 18.333L3.0199 18.4793ZM12 15.8889C11.4477 15.8889 11 16.3366 11 16.8889C11 17.4412 11.4477 17.8889 12 17.8889V15.8889ZM12.01 17.8889C12.5623 17.8889 13.01 17.4412 13.01 16.8889C13.01 16.3366 12.5623 15.8889 12.01 15.8889V17.8889ZM11 13C11 13.5523 11.4477 14 12 14C12.5523 14 13 13.5523 13 13H11ZM13 8C13 7.44772 12.5523 7 12 7C11.4477 7 11 7.44772 11 8H13ZM8.81397 22H15.186V20H8.81397V22ZM20.3106 13.7165L17.1245 7.35282L15.3361 8.24819L18.5222 14.6119L20.3106 13.7165ZM6.87543 7.35284L3.68942 13.7165L5.47781 14.6119L8.66381 8.2482L6.87543 7.35284ZM17.1245 7.35282C16.4527 6.01087 15.9186 4.94183 15.4332 4.15933C14.9558 3.38968 14.4282 2.72844 13.6948 2.38104L12.8386 4.18854C13.0264 4.27749 13.2999 4.51433 13.7336 5.21355C14.1593 5.89992 14.6464 6.87057 15.3361 8.24819L17.1245 7.35282ZM8.66381 8.2482C9.35352 6.87058 9.8406 5.89993 10.2663 5.21355C10.7 4.51433 10.9735 4.2775 11.1613 4.18854L10.3052 2.38105C9.5717 2.72845 9.04413 3.38969 8.56674 4.15935C8.08138 4.94185 7.54728 6.01088 6.87543 7.35284L8.66381 8.2482ZM13.6948 2.38104C12.6221 1.87298 11.3778 1.87299 10.3052 2.38105L11.1613 4.18854C11.692 3.93715 12.3079 3.93715 12.8386 4.18854L13.6948 2.38104ZM15.186 22C16.4335 22 17.438 22.001 18.2231 21.9292C19.0068 21.8576 19.7255 21.7039 20.3227 21.2868L19.1774 19.6472C19.0115 19.7631 18.7152 19.8759 18.0411 19.9375C17.3685 19.999 16.4725 20 15.186 20V22ZM18.5222 14.6119C19.0975 15.7611 19.4973 16.5617 19.7429 17.1898C19.9891 17.8193 20.0203 18.1338 19.9909 18.333L21.9693 18.6257C22.076 17.9049 21.8919 17.1936 21.6055 16.4613C21.3186 15.7277 20.8684 14.8308 20.3106 13.7165L18.5222 14.6119ZM20.3227 21.2868C21.2144 20.664 21.8102 19.7015 21.9693 18.6257L19.9909 18.333C19.9123 18.8638 19.6183 19.3392 19.1774 19.6472L20.3227 21.2868ZM8.81397 20C7.5275 20 6.63148 19.999 5.95891 19.9375C5.28483 19.8759 4.98849 19.7631 4.8226 19.6472L3.67734 21.2868C4.2745 21.7039 4.99318 21.8576 5.77685 21.9292C6.56202 22.001 7.56647 22 8.81397 22V20ZM3.68942 13.7165C3.13156 14.8308 2.68138 15.7277 2.39446 16.4613C2.10807 17.1936 1.92403 17.905 2.03066 18.6257L4.00913 18.333C3.97966 18.1338 4.01087 17.8193 4.25707 17.1898C4.50272 16.5617 4.90246 15.7611 5.47781 14.6119L3.68942 13.7165ZM4.8226 19.6472C4.3817 19.3392 4.08766 18.8638 4.00913 18.333L2.03066 18.6257C2.18983 19.7015 2.78563 20.664 3.67734 21.2868L4.8226 19.6472ZM12 17.8889H12.01V15.8889H12V17.8889ZM13 13V8H11V13H13Z" fill="#0B0D12"/>
</svg>
