<svg width="24" height="24" viewBox="0 0 24 24" fill="none" xmlns="http://www.w3.org/2000/svg">
<path d="M17.0059 4.40589L16.2988 5.11299L16.2988 5.11299L17.0059 4.40589ZM19.5941 6.99411L18.887 7.70122V7.70122L19.5941 6.99411ZM19.5941 17.0059L18.887 16.2988V16.2988L19.5941 17.0059ZM17.0059 19.5941L16.2988 18.887L16.2988 18.887L17.0059 19.5941ZM6.99411 19.5941L6.28701 20.3012L6.28701 20.3012L6.99411 19.5941ZM4.40589 17.0059L5.11299 16.2988L4.40589 17.0059ZM4.40589 6.99411L3.69878 6.28701H3.69878L4.40589 6.99411ZM6.99411 4.40589L6.287 3.69878H6.28701L6.99411 4.40589ZM3.08289 8.9423L2.11052 8.70886L3.08289 8.9423ZM3.44208 8.07515L4.29472 8.59764L4.29472 8.59764L3.44208 8.07515ZM3.44208 15.9249L2.58944 16.4474L2.58944 16.4474L3.44208 15.9249ZM3.08289 15.0577L4.05526 14.8242V14.8243L3.08289 15.0577ZM8.9423 20.9171L9.17575 19.9447H9.17575L8.9423 20.9171ZM8.07514 20.5579L7.55265 21.4106L7.55265 21.4106L8.07514 20.5579ZM15.9249 20.5579L15.4024 19.7053L15.4024 19.7053L15.9249 20.5579ZM15.0577 20.9171L15.2911 21.8895L15.0577 20.9171ZM20.9171 15.0577L19.9447 14.8243L19.9447 14.8242L20.9171 15.0577ZM20.5579 15.9249L21.4106 16.4474V16.4474L20.5579 15.9249ZM20.5579 8.07515L19.7053 8.59764L19.7053 8.59764L20.5579 8.07515ZM20.9171 8.9423L19.9447 9.17575L19.9447 9.17575L20.9171 8.9423ZM15.0577 3.08289L14.8243 4.05526L14.8242 4.05526L15.0577 3.08289ZM15.9249 3.44208L16.4474 2.58944H16.4474L15.9249 3.44208ZM8.9423 3.08289L9.17575 4.05526L9.17575 4.05526L8.9423 3.08289ZM8.07514 3.44208L7.55264 2.58944H7.55265L8.07514 3.44208ZM12 17.4443C11.4477 17.4443 11 16.9966 11 16.4443C11 15.8921 11.4477 15.4443 12 15.4443V17.4443ZM12.01 15.4443C12.5623 15.4443 13.01 15.8921 13.01 16.4443C13.01 16.9966 12.5623 17.4443 12.01 17.4443V15.4443ZM13 12.5554C13 13.1077 12.5523 13.5554 12 13.5554C11.4477 13.5554 11 13.1077 11 12.5554H13ZM11 7.55545C11 7.00316 11.4477 6.55545 12 6.55545C12.5523 6.55545 13 7.00316 13 7.55545H11ZM10.3882 2H13.6118V4H10.3882V2ZM17.713 3.69878L20.3012 6.28701L18.887 7.70122L16.2988 5.11299L17.713 3.69878ZM22 10.3882V13.6118H20V10.3882H22ZM20.3012 17.713L17.713 20.3012L16.2988 18.887L18.887 16.2988L20.3012 17.713ZM13.6118 22H10.3882V20H13.6118V22ZM6.28701 20.3012L3.69878 17.713L5.11299 16.2988L7.70122 18.887L6.28701 20.3012ZM2 13.6118V10.3882H4V13.6118H2ZM3.69878 6.28701L6.287 3.69878L7.70122 5.11299L5.11299 7.70122L3.69878 6.28701ZM2 10.3882C2 9.70205 1.99357 9.19598 2.11052 8.70886L4.05526 9.17575C4.00643 9.37916 4 9.60686 4 10.3882H2ZM5.11299 7.70122C4.56049 8.25373 4.40402 8.41928 4.29472 8.59764L2.58944 7.55265C2.85119 7.12551 3.21359 6.7722 3.69878 6.28701L5.11299 7.70122ZM2.11052 8.70886C2.20851 8.30071 2.37012 7.91054 2.58944 7.55265L4.29472 8.59764C4.18506 8.77659 4.10425 8.97168 4.05526 9.17575L2.11052 8.70886ZM3.69878 17.713C3.21358 17.2278 2.85119 16.8745 2.58944 16.4474L4.29472 15.4024C4.40402 15.5807 4.56048 15.7463 5.11299 16.2988L3.69878 17.713ZM4 13.6118C4 14.3931 4.00643 14.6208 4.05526 14.8242L2.11052 15.2911C1.99357 14.804 2 14.2979 2 13.6118H4ZM2.58944 16.4474C2.37012 16.0895 2.20851 15.6993 2.11052 15.2911L4.05526 14.8243C4.10425 15.0283 4.18506 15.2234 4.29472 15.4024L2.58944 16.4474ZM10.3882 22C9.70205 22 9.19598 22.0064 8.70886 21.8895L9.17575 19.9447C9.37916 19.9936 9.60685 20 10.3882 20V22ZM7.70122 18.887C8.25373 19.4395 8.41928 19.596 8.59764 19.7053L7.55265 21.4106C7.12551 21.1488 6.7722 20.7864 6.28701 20.3012L7.70122 18.887ZM8.70886 21.8895C8.30071 21.7915 7.91054 21.6299 7.55265 21.4106L8.59764 19.7053C8.77659 19.8149 8.97168 19.8957 9.17575 19.9447L8.70886 21.8895ZM17.713 20.3012C17.2278 20.7864 16.8745 21.1488 16.4474 21.4106L15.4024 19.7053C15.5807 19.596 15.7463 19.4395 16.2988 18.887L17.713 20.3012ZM13.6118 20C14.3931 20 14.6208 19.9936 14.8243 19.9447L15.2911 21.8895C14.804 22.0064 14.2979 22 13.6118 22V20ZM16.4474 21.4106C16.0895 21.6299 15.6993 21.7915 15.2911 21.8895L14.8243 19.9447C15.0283 19.8957 15.2234 19.8149 15.4024 19.7053L16.4474 21.4106ZM22 13.6118C22 14.2979 22.0064 14.804 21.8895 15.2911L19.9447 14.8242C19.9936 14.6208 20 14.3931 20 13.6118H22ZM18.887 16.2988C19.4395 15.7463 19.596 15.5807 19.7053 15.4024L21.4106 16.4474C21.1488 16.8745 20.7864 17.2278 20.3012 17.713L18.887 16.2988ZM21.8895 15.2911C21.7915 15.6993 21.6299 16.0895 21.4106 16.4474L19.7053 15.4024C19.8149 15.2234 19.8957 15.0283 19.9447 14.8243L21.8895 15.2911ZM20.3012 6.287C20.7864 6.77219 21.1488 7.12551 21.4106 7.55265L19.7053 8.59764C19.596 8.41929 19.4395 8.25371 18.887 7.70122L20.3012 6.287ZM20 10.3882C20 9.60685 19.9936 9.37916 19.9447 9.17575L21.8895 8.70886C22.0064 9.19598 22 9.70205 22 10.3882H20ZM21.4106 7.55265C21.6299 7.91054 21.7915 8.30072 21.8895 8.70886L19.9447 9.17575C19.8957 8.97168 19.8149 8.77659 19.7053 8.59764L21.4106 7.55265ZM13.6118 2C14.2979 2 14.804 1.99357 15.2911 2.11052L14.8242 4.05526C14.6208 4.00643 14.3931 4 13.6118 4V2ZM16.2988 5.11299C15.7463 4.5605 15.5807 4.40402 15.4024 4.29472L16.4474 2.58944C16.8745 2.85119 17.2278 3.21359 17.713 3.69878L16.2988 5.11299ZM15.2911 2.11052C15.6993 2.20851 16.0895 2.37012 16.4474 2.58944L15.4024 4.29472C15.2234 4.18506 15.0283 4.10426 14.8243 4.05526L15.2911 2.11052ZM10.3882 4C9.60685 4 9.37916 4.00643 9.17575 4.05526L8.70886 2.11052C9.19598 1.99357 9.70205 2 10.3882 2V4ZM6.28701 3.69878C6.7722 3.21358 7.12551 2.85119 7.55264 2.58944L8.59764 4.29472C8.41928 4.40402 8.25373 4.56048 7.70122 5.113L6.28701 3.69878ZM9.17575 4.05526C8.97168 4.10426 8.77659 4.18506 8.59764 4.29472L7.55265 2.58944C7.91054 2.37012 8.30072 2.20851 8.70886 2.11052L9.17575 4.05526ZM12 15.4443H12.01V17.4443H12V15.4443ZM11 12.5554V7.55545H13V12.5554H11Z" fill="#0B0D12"/>
</svg>
