<svg width="24" height="24" viewBox="0 0 24 24" fill="none" xmlns="http://www.w3.org/2000/svg">
<path d="M5.18404 3.43597L5.63803 4.32698L5.18404 3.43597ZM3.43597 5.18404L4.32698 5.63803L3.43597 5.18404ZM20.564 5.18404L19.673 5.63803L20.564 5.18404ZM18.816 3.43597L18.362 4.32698L18.816 3.43597ZM18.816 20.564L18.362 19.673L18.816 20.564ZM20.564 18.816L19.673 18.362L20.564 18.816ZM5.18404 20.564L5.63803 19.673L5.18404 20.564ZM3.43597 18.816L4.32698 18.362L3.43597 18.816ZM12 17.4443C11.4477 17.4443 11 16.9966 11 16.4443C11 15.8921 11.4477 15.4443 12 15.4443V17.4443ZM12.01 15.4443C12.5623 15.4443 13.01 15.8921 13.01 16.4443C13.01 16.9966 12.5623 17.4443 12.01 17.4443V15.4443ZM13 12.5554C13 13.1077 12.5523 13.5554 12 13.5554C11.4477 13.5554 11 13.1077 11 12.5554H13ZM11 7.55545C11 7.00316 11.4477 6.55545 12 6.55545C12.5523 6.55545 13 7.00316 13 7.55545H11ZM9.4 20H14.6V22H9.4V20ZM20 14.6V9.4H22V14.6H20ZM14.6 4H9.4V2H14.6V4ZM4 9.4V14.6H2V9.4H4ZM9.4 4C8.26339 4 7.47108 4.00078 6.85424 4.05118C6.24907 4.10062 5.90138 4.19279 5.63803 4.32698L4.73005 2.54497C5.32234 2.24318 5.96253 2.11737 6.69138 2.05782C7.40855 1.99922 8.2964 2 9.4 2V4ZM2 9.4C2 8.2964 1.99922 7.40855 2.05782 6.69138C2.11737 5.96253 2.24318 5.32234 2.54497 4.73005L4.32698 5.63803C4.19279 5.90138 4.10062 6.24907 4.05118 6.85424C4.00078 7.47108 4 8.26339 4 9.4H2ZM5.63803 4.32698C5.07354 4.6146 4.6146 5.07354 4.32698 5.63803L2.54497 4.73005C3.02433 3.78924 3.78924 3.02433 4.73005 2.54497L5.63803 4.32698ZM20 9.4C20 8.26339 19.9992 7.47108 19.9488 6.85424C19.8994 6.24907 19.8072 5.90138 19.673 5.63803L21.455 4.73005C21.7568 5.32234 21.8826 5.96253 21.9422 6.69138C22.0008 7.40855 22 8.2964 22 9.4H20ZM14.6 2C15.7036 2 16.5914 1.99922 17.3086 2.05782C18.0375 2.11737 18.6777 2.24318 19.27 2.54497L18.362 4.32698C18.0986 4.19279 17.7509 4.10062 17.1458 4.05118C16.5289 4.00078 15.7366 4 14.6 4V2ZM19.673 5.63803C19.3854 5.07354 18.9265 4.6146 18.362 4.32698L19.27 2.54497C20.2108 3.02433 20.9757 3.78924 21.455 4.73005L19.673 5.63803ZM14.6 20C15.7366 20 16.5289 19.9992 17.1458 19.9488C17.7509 19.8994 18.0986 19.8072 18.362 19.673L19.27 21.455C18.6777 21.7568 18.0375 21.8826 17.3086 21.9422C16.5914 22.0008 15.7036 22 14.6 22V20ZM22 14.6C22 15.7036 22.0008 16.5914 21.9422 17.3086C21.8826 18.0375 21.7568 18.6777 21.455 19.27L19.673 18.362C19.8072 18.0986 19.8994 17.7509 19.9488 17.1458C19.9992 16.5289 20 15.7366 20 14.6H22ZM18.362 19.673C18.9265 19.3854 19.3854 18.9265 19.673 18.362L21.455 19.27C20.9757 20.2108 20.2108 20.9757 19.27 21.455L18.362 19.673ZM9.4 22C8.2964 22 7.40855 22.0008 6.69138 21.9422C5.96253 21.8826 5.32234 21.7568 4.73005 21.455L5.63803 19.673C5.90138 19.8072 6.24907 19.8994 6.85424 19.9488C7.47108 19.9992 8.26339 20 9.4 20V22ZM4 14.6C4 15.7366 4.00078 16.5289 4.05118 17.1458C4.10062 17.7509 4.19279 18.0986 4.32698 18.362L2.54497 19.27C2.24318 18.6777 2.11737 18.0375 2.05782 17.3086C1.99922 16.5914 2 15.7036 2 14.6H4ZM4.73005 21.455C3.78924 20.9757 3.02433 20.2108 2.54497 19.27L4.32698 18.362C4.6146 18.9265 5.07354 19.3854 5.63803 19.673L4.73005 21.455ZM12 15.4443H12.01V17.4443H12V15.4443ZM11 12.5554V7.55545H13V12.5554H11Z" fill="#0B0D12"/>
</svg>
