<svg width="24" height="24" viewBox="0 0 24 24" fill="none" xmlns="http://www.w3.org/2000/svg">
<path d="M8.63828 19.9249L9.16355 19.0739L8.63828 19.9249ZM5.27871 17.8511L4.75344 18.702L5.27871 17.8511ZM5.27871 6.14897L5.80398 6.9999H5.80398L5.27871 6.14897ZM8.63828 4.07516L8.11301 3.22422H8.11301L8.63828 4.07516ZM15.3617 4.07516L14.8365 4.9261V4.92609L15.3617 4.07516ZM18.7213 6.14897L18.196 6.9999H18.196L18.7213 6.14897ZM18.7213 17.8511L18.196 17.0001L18.196 17.0001L18.7213 17.8511ZM15.3617 19.9249L15.887 20.7758V20.7758L15.3617 19.9249ZM20.8612 15.6726L21.815 15.9732L21.815 15.9732L20.8612 15.6726ZM20.2703 16.7318L21.0271 17.3855V17.3855L20.2703 16.7318ZM20.2703 7.26822L21.0271 6.61454L21.0271 6.61454L20.2703 7.26822ZM20.8612 8.32743L21.815 8.02682L21.815 8.02683L20.8612 8.32743ZM11.1223 2.7982L11.3418 3.77383H11.3418L11.1223 2.7982ZM12.8777 2.7982L12.6582 3.77383H12.6582L12.8777 2.7982ZM3.13876 8.32743L4.0925 8.62804L3.13876 8.32743ZM3.72968 7.26822L2.97291 6.61454H2.97291L3.72968 7.26822ZM3.72968 16.7318L2.97291 17.3855L2.97291 17.3855L3.72968 16.7318ZM3.13876 15.6726L2.18501 15.9732H2.18501L3.13876 15.6726ZM11.1223 21.2018L11.3418 20.2262L11.1223 21.2018ZM12.8777 21.2018L12.6582 20.2262L12.8777 21.2018ZM12 17.4444C11.4477 17.4444 11 16.9966 11 16.4444C11 15.8921 11.4477 15.4444 12 15.4444V17.4444ZM12.01 15.4444C12.5623 15.4444 13.01 15.8921 13.01 16.4444C13.01 16.9966 12.5623 17.4444 12.01 17.4444V15.4444ZM13 12.5555C13 13.1078 12.5523 13.5555 12 13.5555C11.4477 13.5555 11 13.1078 11 12.5555H13ZM11 7.55547C11 7.00318 11.4477 6.55547 12 6.55547C12.5523 6.55547 13 7.00318 13 7.55547H11ZM8.11301 20.7758L4.75344 18.702L5.80397 17.0001L9.16355 19.0739L8.11301 20.7758ZM2 13.7666V10.2335H4V13.7666H2ZM4.75344 5.29803L8.11301 3.22422L9.16355 4.92609L5.80398 6.9999L4.75344 5.29803ZM15.887 3.22422L19.2466 5.29803L18.196 6.9999L14.8365 4.9261L15.887 3.22422ZM22 10.2335V13.7666H20V10.2335H22ZM19.2466 18.702L15.887 20.7758L14.8365 19.0739L18.196 17.0001L19.2466 18.702ZM22 13.7666C22 14.6787 22.011 15.3515 21.815 15.9732L19.9075 15.372C19.989 15.1133 20 14.8088 20 13.7666H22ZM18.196 17.0001C19.0829 16.4527 19.3362 16.2835 19.5135 16.0781L21.0271 17.3855C20.601 17.8788 20.0227 18.2229 19.2466 18.702L18.196 17.0001ZM21.815 15.9732C21.6513 16.4927 21.3831 16.9733 21.0271 17.3855L19.5135 16.0781C19.6916 15.872 19.8256 15.6318 19.9075 15.372L21.815 15.9732ZM19.2466 5.29803C20.0227 5.77715 20.601 6.12121 21.0271 6.61454L19.5135 7.9219C19.3362 7.71659 19.0829 7.54737 18.196 6.9999L19.2466 5.29803ZM20 10.2335C20 9.19121 19.989 8.88678 19.9075 8.62804L21.815 8.02683C22.011 8.64855 22 9.32132 22 10.2335H20ZM21.0271 6.61454C21.3831 7.02675 21.6513 7.50733 21.815 8.02682L19.9075 8.62804C19.8256 8.36829 19.6916 8.128 19.5135 7.9219L21.0271 6.61454ZM8.11301 3.22422C9.2718 2.50892 10.0471 2.01504 10.9029 1.82257L11.3418 3.77383C10.8907 3.87528 10.4456 4.13473 9.16355 4.92609L8.11301 3.22422ZM14.8365 4.92609C13.5544 4.13473 13.1093 3.87528 12.6582 3.77383L13.0971 1.82257C13.9529 2.01504 14.7282 2.50892 15.887 3.22422L14.8365 4.92609ZM10.9029 1.82257C11.6253 1.66011 12.3747 1.66011 13.0971 1.82257L12.6582 3.77383C12.2248 3.67636 11.7752 3.67636 11.3418 3.77383L10.9029 1.82257ZM2 10.2335C2 9.32132 1.98905 8.64855 2.18501 8.02682L4.0925 8.62804C4.01095 8.88678 4 9.19121 4 10.2335H2ZM5.80398 6.9999C4.91709 7.54737 4.66379 7.71659 4.48646 7.9219L2.97291 6.61454C3.39903 6.12121 3.97727 5.77715 4.75344 5.29803L5.80398 6.9999ZM2.18501 8.02682C2.34875 7.50733 2.61686 7.02675 2.97291 6.61454L4.48646 7.9219C4.30843 8.128 4.17437 8.36829 4.0925 8.62804L2.18501 8.02682ZM4.75344 18.702C3.97727 18.2229 3.39903 17.8788 2.97291 17.3855L4.48646 16.0781C4.66379 16.2835 4.91709 16.4527 5.80397 17.0001L4.75344 18.702ZM4 13.7666C4 14.8088 4.01095 15.1133 4.0925 15.372L2.18501 15.9732C1.98905 15.3515 2 14.6787 2 13.7666H4ZM2.97291 17.3855C2.61686 16.9733 2.34875 16.4927 2.18501 15.9732L4.0925 15.372C4.17437 15.6318 4.30843 15.872 4.48646 16.0781L2.97291 17.3855ZM9.16355 19.0739C10.4456 19.8653 10.8907 20.1248 11.3418 20.2262L10.9029 22.1775C10.0471 21.985 9.2718 21.4911 8.11301 20.7758L9.16355 19.0739ZM15.887 20.7758C14.7282 21.4911 13.9529 21.985 13.0971 22.1775L12.6582 20.2262C13.1093 20.1248 13.5544 19.8653 14.8365 19.0739L15.887 20.7758ZM11.3418 20.2262C11.7752 20.3237 12.2248 20.3237 12.6582 20.2262L13.0971 22.1775C12.3747 22.3399 11.6253 22.3399 10.9029 22.1775L11.3418 20.2262ZM12 15.4444H12.01V17.4444H12V15.4444ZM11 12.5555V7.55547H13V12.5555H11Z" fill="#0B0D12"/>
</svg>
