<svg width="24" height="24" viewBox="0 0 24 24" fill="none" xmlns="http://www.w3.org/2000/svg">
<path d="M19.5 9.5L18.7929 8.79289V8.79289L19.5 9.5ZM14.5 4.5L15.2071 5.20711L14.5 4.5ZM3.93723 15.0627L3.23012 14.3556L3.23012 14.3556L3.93723 15.0627ZM19.5 4.5L20.2071 3.79289V3.79289L19.5 4.5ZM7.63843 20.9447L7.87188 21.9171H7.87188L7.63843 20.9447ZM8.21654 20.7053L8.73904 21.5579H8.73904L8.21654 20.7053ZM3.16346 20.181L2.27245 20.635L2.27246 20.635L3.16346 20.181ZM3.81899 20.8365L3.36499 21.7275H3.36499L3.81899 20.8365ZM3.05523 16.3615L2.08286 16.1281L2.08286 16.1281L3.05523 16.3615ZM3.29469 15.7834L4.14733 16.3059L4.14733 16.3059L3.29469 15.7834ZM13.7071 5.29289C13.3166 4.90237 12.6834 4.90237 12.2929 5.29289C11.9023 5.68342 11.9023 6.31658 12.2929 6.70711L13.7071 5.29289ZM17.2929 11.7071C17.6834 12.0976 18.3166 12.0976 18.7071 11.7071C19.0976 11.3166 19.0976 10.6834 18.7071 10.2929L17.2929 11.7071ZM5.70708 13.2929C5.31655 12.9024 4.68339 12.9024 4.29286 13.2929C3.90234 13.6834 3.90234 14.3166 4.29286 14.7071L5.70708 13.2929ZM9.29286 19.7071C9.68339 20.0976 10.3166 20.0976 10.7071 19.7071C11.0976 19.3166 11.0976 18.6834 10.7071 18.2929L9.29286 19.7071ZM6.79286 15.7929C6.40234 16.1834 6.40234 16.8166 6.79286 17.2071C7.18339 17.5976 7.81655 17.5976 8.20708 17.2071L6.79286 15.7929ZM16.2071 9.20711C16.5976 8.81658 16.5976 8.18342 16.2071 7.79289C15.8166 7.40237 15.1834 7.40237 14.7929 7.79289L16.2071 9.20711ZM3.63134 5.36863L2.92424 4.66152L2.92424 4.66152L3.63134 5.36863ZM5.3686 3.63137L4.66149 2.92426L4.66149 2.92426L5.3686 3.63137ZM20.3686 18.6314L19.6615 17.9243L19.6615 17.9243L20.3686 18.6314ZM18.6313 20.3686L19.3384 21.0757L19.3384 21.0757L18.6313 20.3686ZM19 15L19.7071 14.2929L19 15ZM20.3686 16.3686L19.6615 17.0757L19.6615 17.0757L20.3686 16.3686ZM16.7929 15.7929C16.4023 16.1834 16.4023 16.8166 16.7929 17.2071C17.1834 17.5976 17.8166 17.5976 18.2071 17.2071L16.7929 15.7929ZM7.63134 3.63137L8.33845 2.92427V2.92427L7.63134 3.63137ZM6.79286 5.79289C6.40234 6.18342 6.40234 6.81658 6.79286 7.20711C7.18339 7.59763 7.81655 7.59763 8.20708 7.20711L6.79286 5.79289ZM6.3686 10.3686L7.07571 9.66152L7.07571 9.66152L6.3686 10.3686ZM3.63134 7.63137L2.92423 8.33848H2.92423L3.63134 7.63137ZM10.3686 8.63137L11.0757 9.33848H11.0757L10.3686 8.63137ZM12.9631 16.809L12.0121 17.118L12.0121 17.118L12.9631 16.809ZM12.9631 16.191L12.0121 15.882L12.0121 15.882L12.9631 16.191ZM7.19095 11.0368L6.88193 11.9879L6.88194 11.9879L7.19095 11.0368ZM7.80899 11.0368L8.118 11.9879L8.11801 11.9879L7.80899 11.0368ZM11.0368 7.19098L11.9879 6.88197L11.9879 6.88196L11.0368 7.19098ZM11.0368 7.80902L11.9879 8.11804L11.9879 8.11804L11.0368 7.80902ZM17.809 21.0368L17.5 20.0858L17.809 21.0368ZM17.191 21.0368L17.5 20.0858L17.191 21.0368ZM21.0368 17.809L20.0858 17.5L21.0368 17.809ZM21.0368 17.191L20.0858 17.5L21.0368 17.191ZM6.19095 2.96316L5.88194 2.0121H5.88194L6.19095 2.96316ZM6.80899 2.96316L7.11801 2.0121L7.118 2.0121L6.80899 2.96316ZM16.809 12.9632L17.118 12.0121L17.118 12.0121L16.809 12.9632ZM16.191 12.9632L15.8819 12.0121L15.8819 12.0121L16.191 12.9632ZM2.96313 6.19098L2.01207 5.88197V5.88197L2.96313 6.19098ZM2.96313 6.80902L2.01207 7.11803L2.01207 7.11804L2.96313 6.80902ZM1.99997 17.3255V18.6H3.99997V17.3255H1.99997ZM5.39997 22H6.67449V20H5.39997V22ZM9.64434 20.7699L20.2071 10.2071L18.7929 8.79289L8.23012 19.3556L9.64434 20.7699ZM13.7929 3.7929L3.23012 14.3556L4.64433 15.7699L15.2071 5.20711L13.7929 3.7929ZM20.2071 3.79289C18.4358 2.02166 15.5641 2.02166 13.7929 3.7929L15.2071 5.20711C16.1973 4.21692 17.8027 4.21692 18.7929 5.20711L20.2071 3.79289ZM20.2071 10.2071C21.9783 8.43587 21.9783 5.56413 20.2071 3.79289L18.7929 5.20711C19.7831 6.1973 19.7831 7.80271 18.7929 8.79289L20.2071 10.2071ZM6.67449 22C7.11607 22 7.49985 22.0064 7.87188 21.9171L7.40499 19.9724C7.31667 19.9936 7.21127 20 6.67449 20V22ZM8.23012 19.3556C7.85056 19.7352 7.77149 19.8052 7.69404 19.8526L8.73904 21.5579C9.06526 21.358 9.33209 21.0821 9.64434 20.7699L8.23012 19.3556ZM7.87188 21.9171C8.17799 21.8436 8.47062 21.7224 8.73904 21.5579L7.69404 19.8526C7.60457 19.9075 7.50702 19.9479 7.40499 19.9724L7.87188 21.9171ZM1.99997 18.6C1.99997 19.0035 1.99919 19.3663 2.02373 19.6666C2.04922 19.9786 2.10691 20.3101 2.27245 20.635L4.05447 19.727C4.05426 19.7266 4.05315 19.7244 4.0513 19.7192C4.04936 19.7138 4.04615 19.7038 4.04232 19.6875C4.03426 19.6533 4.0247 19.5969 4.01709 19.5038C4.00075 19.3038 3.99997 19.0365 3.99997 18.6H1.99997ZM5.39997 20C4.96343 20 4.69617 19.9992 4.49621 19.9829C4.40305 19.9753 4.3467 19.9657 4.31247 19.9577C4.29619 19.9538 4.28617 19.9506 4.28076 19.9487C4.27556 19.9468 4.27338 19.9457 4.27298 19.9455L3.36499 21.7275C3.6899 21.8931 4.02137 21.9508 4.33334 21.9762C4.63364 22.0008 4.99643 22 5.39997 22V20ZM2.27246 20.635C2.51214 21.1054 2.89459 21.4878 3.36499 21.7275L4.27298 19.9455C4.17889 19.8976 4.1024 19.8211 4.05447 19.727L2.27246 20.635ZM3.99997 17.3255C3.99997 16.7887 4.0064 16.6833 4.0276 16.595L2.08286 16.1281C1.99354 16.5001 1.99997 16.8839 1.99997 17.3255H3.99997ZM3.23012 14.3556C2.91788 14.6679 2.64196 14.9347 2.44205 15.2609L4.14733 16.3059C4.19479 16.2285 4.26478 16.1494 4.64434 15.7699L3.23012 14.3556ZM4.0276 16.595C4.0521 16.4929 4.0925 16.3954 4.14733 16.3059L2.44205 15.2609C2.27756 15.5294 2.15635 15.822 2.08286 16.1281L4.0276 16.595ZM12.2929 6.70711L17.2929 11.7071L18.7071 10.2929L13.7071 5.29289L12.2929 6.70711ZM4.29286 14.7071L9.29286 19.7071L10.7071 18.2929L5.70708 13.2929L4.29286 14.7071ZM8.20708 17.2071L16.2071 9.20711L14.7929 7.79289L6.79286 15.7929L8.20708 17.2071ZM4.33845 6.07574L6.07571 4.33848L4.66149 2.92426L2.92424 4.66152L4.33845 6.07574ZM19.6615 17.9243L17.9242 19.6615L19.3384 21.0757L21.0757 19.3385L19.6615 17.9243ZM18.2929 15.7071L19.6615 17.0757L21.0757 15.6615L19.7071 14.2929L18.2929 15.7071ZM18.2929 14.2929L16.7929 15.7929L18.2071 17.2071L19.7071 15.7071L18.2929 14.2929ZM6.92424 4.33848L8.29286 5.70711L9.70708 4.29289L8.33845 2.92427L6.92424 4.33848ZM8.29286 4.29289L6.79286 5.79289L8.20708 7.20711L9.70708 5.70711L8.29286 4.29289ZM8.29286 5.70711L9.66149 7.07574L11.0757 5.66153L9.70708 4.29289L8.29286 5.70711ZM7.07571 9.66152L4.33845 6.92426L2.92423 8.33848L5.66149 11.0757L7.07571 9.66152ZM9.66149 7.92427L7.92423 9.66153L9.33845 11.0757L11.0757 9.33848L9.66149 7.92427ZM17.0757 19.6615L14.3384 16.9243L12.9242 18.3385L15.6615 21.0757L17.0757 19.6615ZM16.9242 14.3385L18.2929 15.7071L19.7071 14.2929L18.3384 12.9243L16.9242 14.3385ZM14.3384 16.0757L16.0757 14.3385L14.6615 12.9243L12.9242 14.6615L14.3384 16.0757ZM14.3384 16.9243C14.1288 16.7146 14.0146 16.5993 13.9389 16.5101C13.8708 16.4299 13.8942 16.4386 13.9142 16.5L12.0121 17.118C12.1062 17.4078 12.2658 17.6296 12.4142 17.8045C12.5551 17.9704 12.7379 18.1521 12.9242 18.3385L14.3384 16.9243ZM12.9242 14.6615C12.7379 14.8479 12.5551 15.0296 12.4142 15.1955C12.2658 15.3704 12.1062 15.5922 12.0121 15.882L13.9142 16.5C13.8942 16.5614 13.8708 16.5701 13.9389 16.4899C14.0146 16.4007 14.1288 16.2854 14.3384 16.0757L12.9242 14.6615ZM13.9142 16.5V16.5L12.0121 15.882C11.8816 16.2837 11.8816 16.7163 12.0121 17.118L13.9142 16.5ZM5.66149 11.0757C5.84783 11.2621 6.02957 11.4449 6.19548 11.5858C6.37033 11.7342 6.59222 11.8938 6.88193 11.9879L7.49997 10.0858C7.56136 10.1057 7.57008 10.1292 7.48984 10.0611C7.40066 9.98538 7.28538 9.8712 7.07571 9.66152L5.66149 11.0757ZM7.92423 9.66153C7.71456 9.8712 7.59928 9.98538 7.5101 10.0611C7.42986 10.1292 7.43858 10.1057 7.49997 10.0858L8.11801 11.9879C8.40772 11.8938 8.62961 11.7342 8.80446 11.5858C8.97038 11.4449 9.15211 11.2621 9.33845 11.0757L7.92423 9.66153ZM6.88194 11.9879C7.28362 12.1184 7.71632 12.1184 8.118 11.9879L7.49997 10.0858H7.49997L6.88194 11.9879ZM9.66149 7.07574C9.87117 7.28541 9.98535 7.40069 10.0611 7.48987C10.1292 7.57011 10.1057 7.56139 10.0858 7.5L11.9879 6.88196C11.8937 6.59225 11.7342 6.37036 11.5857 6.19551C11.4449 6.0296 11.262 5.84787 11.0757 5.66153L9.66149 7.07574ZM11.0757 9.33848C11.262 9.15214 11.4449 8.97041 11.5857 8.80449C11.7342 8.62964 11.8937 8.40775 11.9879 8.11804L10.0858 7.5C10.1057 7.43861 10.1292 7.42989 10.0611 7.51013C9.98535 7.59931 9.87117 7.71459 9.66149 7.92427L11.0757 9.33848ZM10.0858 7.5V7.5L11.9879 8.11804C12.1184 7.71635 12.1184 7.28365 11.9879 6.88197L10.0858 7.5ZM17.9242 19.6615C17.7146 19.8712 17.5993 19.9854 17.5101 20.0611C17.4299 20.1292 17.4386 20.1057 17.5 20.0858L18.118 21.9879C18.4077 21.8938 18.6296 21.7342 18.8045 21.5858C18.9704 21.4449 19.1521 21.2621 19.3384 21.0757L17.9242 19.6615ZM15.6615 21.0757C15.8478 21.2621 16.0296 21.4449 16.1955 21.5858C16.3703 21.7342 16.5922 21.8938 16.8819 21.9879L17.5 20.0858C17.5614 20.1057 17.5701 20.1292 17.4898 20.0611C17.4007 19.9854 17.2854 19.8712 17.0757 19.6615L15.6615 21.0757ZM17.5 20.0858H17.5L16.8819 21.9879C17.2836 22.1184 17.7163 22.1184 18.118 21.9879L17.5 20.0858ZM21.0757 19.3385C21.262 19.1521 21.4449 18.9704 21.5857 18.8045C21.7342 18.6296 21.8937 18.4078 21.9879 18.118L20.0858 17.5C20.1057 17.4386 20.1292 17.4299 20.0611 17.5101C19.9854 17.5993 19.8712 17.7146 19.6615 17.9243L21.0757 19.3385ZM19.6615 17.0757C19.8712 17.2854 19.9854 17.4007 20.0611 17.4899C20.1292 17.5701 20.1057 17.5614 20.0858 17.5L21.9879 16.882C21.8937 16.5923 21.7342 16.3704 21.5857 16.1955C21.4449 16.0296 21.262 15.8479 21.0757 15.6615L19.6615 17.0757ZM21.9879 18.118C22.1184 17.7163 22.1184 17.2837 21.9879 16.882L20.0858 17.5V17.5L21.9879 18.118ZM6.07571 4.33848C6.28538 4.1288 6.40066 4.01462 6.48984 3.93892C6.57008 3.8708 6.56136 3.89427 6.49997 3.91422L5.88194 2.0121C5.59222 2.10624 5.37033 2.26581 5.19548 2.41424C5.02957 2.55509 4.84783 2.73792 4.66149 2.92426L6.07571 4.33848ZM8.33845 2.92427C8.15211 2.73792 7.97038 2.55509 7.80446 2.41424C7.62961 2.26581 7.40772 2.10624 7.11801 2.0121L6.49997 3.91421C6.43858 3.89427 6.42986 3.8708 6.5101 3.93892C6.59928 4.01462 6.71456 4.1288 6.92424 4.33848L8.33845 2.92427ZM6.49997 3.91422L6.49997 3.91422L7.118 2.0121C6.71632 1.88159 6.28362 1.88159 5.88194 2.0121L6.49997 3.91422ZM18.3384 12.9243C18.1521 12.7379 17.9704 12.5551 17.8045 12.4142C17.6296 12.2658 17.4077 12.1062 17.118 12.0121L16.5 13.9142C16.4386 13.8943 16.4299 13.8708 16.5101 13.9389C16.5993 14.0146 16.7146 14.1288 16.9242 14.3385L18.3384 12.9243ZM16.0757 14.3385C16.2854 14.1288 16.4007 14.0146 16.4898 13.9389C16.5701 13.8708 16.5614 13.8943 16.5 13.9142L15.8819 12.0121C15.5922 12.1062 15.3703 12.2658 15.1955 12.4142C15.0296 12.5551 14.8478 12.7379 14.6615 12.9243L16.0757 14.3385ZM17.118 12.0121C16.7163 11.8816 16.2836 11.8816 15.8819 12.0121L16.5 13.9142H16.5L17.118 12.0121ZM2.92424 4.66152C2.73789 4.84786 2.55506 5.0296 2.41421 5.19551C2.26578 5.37036 2.10621 5.59225 2.01207 5.88197L3.91418 6.5C3.89424 6.56139 3.87077 6.57011 3.93889 6.48987C4.01459 6.40069 4.12877 6.28541 4.33845 6.07574L2.92424 4.66152ZM4.33845 6.92426C4.12877 6.71459 4.01459 6.59931 3.93889 6.51013C3.87077 6.42989 3.89424 6.43861 3.91418 6.5L2.01207 7.11804C2.10621 7.40775 2.26578 7.62964 2.41421 7.80449C2.55506 7.97041 2.73789 8.15214 2.92423 8.33848L4.33845 6.92426ZM2.01207 5.88197C1.88156 6.28365 1.88156 6.71635 2.01207 7.11803L3.91418 6.5L3.91418 6.5L2.01207 5.88197Z" fill="#0B0D12"/>
</svg>
