<svg width="24" height="24" viewBox="0 0 24 24" fill="none" xmlns="http://www.w3.org/2000/svg">
<path d="M9.15817 17.263L11.4521 14.9691C11.6439 14.7773 11.7398 14.6814 11.8504 14.6455C11.9476 14.6139 12.0524 14.6139 12.1496 14.6455C12.2602 14.6814 12.3561 14.7773 12.5479 14.9691L14.8418 17.263C15.0336 17.4548 15.1295 17.5507 15.1654 17.6613C15.197 17.7585 15.197 17.8633 15.1654 17.9605C15.1295 18.0711 15.0336 18.167 14.8418 18.3587L12.5479 20.6527C12.3561 20.8445 12.2602 20.9404 12.1496 20.9763C12.0524 21.0079 11.9476 21.0079 11.8504 20.9763C11.7398 20.9404 11.6439 20.8445 11.4521 20.6527L9.15817 18.3587C8.9664 18.167 8.87052 18.0711 8.83459 17.9605C8.80299 17.8633 8.80299 17.7585 8.83459 17.6613C8.87052 17.5507 8.9664 17.4548 9.15817 17.263Z" stroke="#0B0D12" stroke-width="2" stroke-linecap="round" stroke-linejoin="round"/>
<path d="M6.73696 9.15817L9.03094 11.4521C9.22271 11.6439 9.31859 11.7398 9.35452 11.8504C9.38612 11.9476 9.38612 12.0524 9.35452 12.1496C9.31859 12.2602 9.22271 12.3561 9.03094 12.5479L6.73696 14.8418C6.5452 15.0336 6.44931 15.1295 6.33875 15.1654C6.24149 15.197 6.13673 15.197 6.03947 15.1654C5.9289 15.1295 5.83302 15.0336 5.64125 14.8418L3.34728 12.5479C3.15551 12.3561 3.05963 12.2602 3.0237 12.1496C2.9921 12.0524 2.9921 11.9476 3.0237 11.8504C3.05963 11.7398 3.15551 11.6439 3.34728 11.4521L5.64125 9.15817C5.83302 8.9664 5.9289 8.87052 6.03947 8.83459C6.13673 8.80299 6.24149 8.80299 6.33875 8.83459C6.44931 8.87052 6.5452 8.9664 6.73696 9.15817Z" stroke="#0B0D12" stroke-width="2" stroke-linecap="round" stroke-linejoin="round"/>
<path d="M9.15817 5.64125L11.4521 3.34728C11.6439 3.15551 11.7398 3.05963 11.8504 3.0237C11.9476 2.9921 12.0524 2.9921 12.1496 3.0237C12.2602 3.05963 12.3561 3.15551 12.5479 3.34728L14.8418 5.64125C15.0336 5.83302 15.1295 5.9289 15.1654 6.03947C15.197 6.13673 15.197 6.24149 15.1654 6.33875C15.1295 6.44931 15.0336 6.5452 14.8418 6.73696L12.5479 9.03094C12.3561 9.22271 12.2602 9.31859 12.1496 9.35452C12.0524 9.38612 11.9476 9.38612 11.8504 9.35452C11.7398 9.31859 11.6439 9.22271 11.4521 9.03094L9.15817 6.73696C8.9664 6.5452 8.87052 6.44931 8.83459 6.33875C8.80299 6.24149 8.80299 6.13673 8.83459 6.03947C8.87052 5.9289 8.9664 5.83302 9.15817 5.64125Z" stroke="#0B0D12" stroke-width="2" stroke-linecap="round" stroke-linejoin="round"/>
<path d="M18.3587 9.15817L20.6527 11.4521C20.8445 11.6439 20.9404 11.7398 20.9763 11.8504C21.0079 11.9476 21.0079 12.0524 20.9763 12.1496C20.9404 12.2602 20.8445 12.3561 20.6527 12.5479L18.3587 14.8418C18.167 15.0336 18.0711 15.1295 17.9605 15.1654C17.8633 15.197 17.7585 15.197 17.6613 15.1654C17.5507 15.1295 17.4548 15.0336 17.263 14.8418L14.9691 12.5479C14.7773 12.3561 14.6814 12.2602 14.6455 12.1496C14.6139 12.0524 14.6139 11.9476 14.6455 11.8504C14.6814 11.7398 14.7773 11.6439 14.9691 11.4521L17.263 9.15817C17.4548 8.9664 17.5507 8.87052 17.6613 8.83459C17.7585 8.80299 17.8633 8.80299 17.9605 8.83459C18.0711 8.87052 18.167 8.9664 18.3587 9.15817Z" stroke="#0B0D12" stroke-width="2" stroke-linecap="round" stroke-linejoin="round"/>
</svg>
