<svg width="24" height="24" viewBox="0 0 24 24" fill="none" xmlns="http://www.w3.org/2000/svg">
<path d="M5.09166 8.70025L8.70025 5.09166C9.85527 3.93664 10.4328 3.35913 11.0987 3.14275C11.6845 2.95242 12.3155 2.95242 12.9013 3.14275C13.5672 3.35913 14.1447 3.93664 15.2998 5.09166L18.9083 8.70025C20.0634 9.85527 20.6409 10.4328 20.8573 11.0987C21.0476 11.6845 21.0476 12.3155 20.8573 12.9013C20.6409 13.5672 20.0634 14.1447 18.9083 15.2998L15.2998 18.9083C14.1447 20.0634 13.5672 20.6409 12.9013 20.8573C12.3155 21.0476 11.6845 21.0476 11.0987 20.8573C10.4328 20.6409 9.85527 20.0634 8.70025 18.9083L5.09166 15.2998C3.93664 14.1447 3.35913 13.5672 3.14275 12.9013C2.95242 12.3155 2.95242 11.6845 3.14275 11.0987C3.35913 10.4328 3.93664 9.85527 5.09166 8.70025Z" stroke="#0B0D12" stroke-width="2" stroke-linecap="round" stroke-linejoin="round"/>
</svg>
