<svg width="24" height="24" viewBox="0 0 24 24" fill="none" xmlns="http://www.w3.org/2000/svg">
<path d="M13 3C13 2.44772 12.5523 2 12 2C11.4477 2 11 2.44772 11 3L13 3ZM11 21C11 21.5523 11.4477 22 12 22C12.5523 22 13 21.5523 13 21H11ZM18 3C18 2.44772 17.5523 2 17 2C16.4477 2 16 2.44772 16 3L18 3ZM16 21C16 21.5523 16.4477 22 17 22C17.5523 22 18 21.5523 18 21H16ZM6.72608 19.379L6.56168 18.3926L6.72608 19.379ZM4.30363 19.5139L4.65181 18.5765L4.30363 19.5139ZM3.26514 18.6342L2.39771 19.1318L3.26514 18.6342ZM20.8248 16.1244L21.7372 16.5337L20.8248 16.1244ZM18.3261 17.4457L18.4905 18.432L18.3261 17.4457ZM20.1075 16.9711L19.5537 16.1384L20.1075 16.9711ZM18.3261 6.55435L18.1617 7.54074L18.3261 6.55435ZM20.1075 7.02887L19.5537 7.86156L20.1075 7.02887ZM20.8248 7.87564L21.7372 7.46633L20.8248 7.87564ZM6.72608 4.62101L6.89048 3.63462L6.72608 4.62101ZM4.30363 4.48607L4.65181 5.4235L4.30363 4.48607ZM3.26514 5.3658L2.39771 4.86824L3.26514 5.3658ZM11 3L11 21H13L13 3L11 3ZM16 3L16 21H18L18 3L16 3ZM6.56168 5.60741L18.1617 7.54074L18.4905 5.56795L6.89048 3.63462L6.56168 5.60741ZM20 9.71081V14.2892H22V9.71081H20ZM18.1617 16.4593L6.56168 18.3926L6.89048 20.3654L18.4905 18.432L18.1617 16.4593ZM4 16.2225V7.77747H2V16.2225H4ZM6.56168 18.3926C5.90315 18.5023 5.47245 18.5732 5.14277 18.5993C4.82243 18.6245 4.70475 18.5962 4.65181 18.5765L3.95544 20.4514C4.40205 20.6172 4.85462 20.6282 5.30013 20.5931C5.73631 20.5586 6.26706 20.4693 6.89048 20.3654L6.56168 18.3926ZM2 16.2225C2 16.8545 1.99912 17.3928 2.03687 17.8287C2.07543 18.2739 2.16067 18.7185 2.39771 19.1318L4.13257 18.1366C4.10447 18.0877 4.05714 17.9762 4.02941 17.6561C4.00088 17.3266 4 16.8901 4 16.2225H2ZM4.65181 18.5765C4.43263 18.4951 4.24891 18.3395 4.13257 18.1366L2.39771 19.1318C2.74672 19.7402 3.2979 20.2071 3.95544 20.4514L4.65181 18.5765ZM20 14.2892C20 14.7858 19.9993 15.1029 19.9809 15.3461C19.9635 15.5767 19.934 15.6669 19.9124 15.7151L21.7372 16.5337C21.8908 16.1913 21.9489 15.8454 21.9753 15.4969C22.0007 15.1609 22 14.7557 22 14.2892H20ZM18.4905 18.432C18.9506 18.3554 19.3504 18.2894 19.6777 18.2091C20.0171 18.1258 20.3487 18.0116 20.6612 17.8038L19.5537 16.1384C19.5098 16.1677 19.4257 16.2116 19.201 16.2667C18.9642 16.3248 18.6515 16.3776 18.1617 16.4593L18.4905 18.432ZM19.9124 15.7151C19.8352 15.8872 19.7108 16.034 19.5537 16.1384L20.6612 17.8038C21.1325 17.4904 21.5055 17.0501 21.7372 16.5337L19.9124 15.7151ZM18.1617 7.54074C18.6515 7.62238 18.9642 7.67516 19.201 7.73328C19.4257 7.7884 19.5098 7.83233 19.5537 7.86156L20.6612 6.19618C20.3487 5.98837 20.0171 5.87421 19.6777 5.79091C19.3504 5.7106 18.9506 5.64464 18.4905 5.56795L18.1617 7.54074ZM22 9.71081C22 9.24431 22.0007 8.83912 21.9753 8.50312C21.9489 8.15458 21.8908 7.80873 21.7372 7.46633L19.9124 8.28495C19.934 8.3331 19.9635 8.4233 19.9809 8.65394C19.9993 8.89712 20 9.21424 20 9.71081H22ZM19.5537 7.86156C19.7108 7.96603 19.8352 8.11281 19.9124 8.28495L21.7372 7.46633C21.5055 6.94992 21.1325 6.50958 20.6612 6.19618L19.5537 7.86156ZM6.89048 3.63462C6.26706 3.53072 5.73631 3.44137 5.30013 3.40694C4.85462 3.37178 4.40204 3.38276 3.95544 3.54864L4.65181 5.4235C4.70475 5.40383 4.82243 5.37546 5.14277 5.40074C5.47245 5.42676 5.90315 5.49765 6.56168 5.60741L6.89048 3.63462ZM4 7.77747C4 7.10986 4.00088 6.67337 4.02941 6.3439C4.05714 6.02376 4.10447 5.91234 4.13257 5.86336L2.39771 4.86824C2.16067 5.2815 2.07543 5.7261 2.03687 6.17134C1.99912 6.60724 2 7.14546 2 7.77747H4ZM3.95544 3.54864C3.2979 3.79287 2.74672 4.25979 2.39771 4.86824L4.13257 5.86336C4.24891 5.66054 4.43263 5.50491 4.65181 5.4235L3.95544 3.54864Z" fill="#0B0D12"/>
</svg>
