<svg width="24" height="24" viewBox="0 0 24 24" fill="none" xmlns="http://www.w3.org/2000/svg">
<path d="M22 3C22 2.44772 21.5523 2 21 2C20.4477 2 20 2.44772 20 3H22ZM20 21C20 21.5523 20.4477 22 21 22C21.5523 22 22 21.5523 22 21H20ZM4 3C4 2.44772 3.55229 2 3 2C2.44772 2 2 2.44772 2 3L4 3ZM2 21C2 21.5523 2.44772 22 3 22C3.55228 22 4 21.5523 4 21H2ZM15 15H14H15ZM9 15H10H9ZM9 9H8H9ZM15 9H16H15ZM20 3V21H22V3H20ZM2 3L2 21H4L4 3L2 3ZM8 9L8 15H10L10 9H8ZM16 15L16 9H14L14 15H16ZM12 19C14.2091 19 16 17.2091 16 15H14C14 16.1046 13.1046 17 12 17V19ZM8 15C8 17.2091 9.79086 19 12 19V17C10.8954 17 10 16.1046 10 15H8ZM12 5C9.79086 5 8 6.79086 8 9H10C10 7.89543 10.8954 7 12 7V5ZM12 7C13.1046 7 14 7.89543 14 9H16C16 6.79086 14.2091 5 12 5V7Z" fill="#0B0D12"/>
</svg>
