<svg width="24" height="24" viewBox="0 0 24 24" fill="none" xmlns="http://www.w3.org/2000/svg">
<path d="M3 2C2.44772 2 2 2.44772 2 3C2 3.55228 2.44772 4 3 4V2ZM21 4C21.5523 4 22 3.55228 22 3C22 2.44772 21.5523 2 21 2V4ZM3 20C2.44772 20 2 20.4477 2 21C2 21.5523 2.44772 22 3 22V20ZM21 22C21.5523 22 22 21.5523 22 21C22 20.4477 21.5523 20 21 20V22ZM15 9V10V9ZM15 15V14V15ZM9 15V16V15ZM9 9V8V9ZM3 4H21V2H3V4ZM3 22H21V20H3V22ZM9 16H15V14H9V16ZM15 8L9 8V10L15 10V8ZM19 12C19 9.79086 17.2091 8 15 8V10C16.1046 10 17 10.8954 17 12H19ZM15 16C17.2091 16 19 14.2091 19 12H17C17 13.1046 16.1046 14 15 14V16ZM5 12C5 14.2091 6.79086 16 9 16V14C7.89543 14 7 13.1046 7 12H5ZM7 12C7 10.8954 7.89543 10 9 10V8C6.79086 8 5 9.79086 5 12H7Z" fill="#0B0D12"/>
</svg>
