<svg width="24" height="24" viewBox="0 0 24 24" fill="none" xmlns="http://www.w3.org/2000/svg">
<path d="M17.5941 6.59411L16.887 7.30122V7.30122L17.5941 6.59411ZM15.4059 4.40589L14.6988 5.11299V5.11299L15.4059 4.40589ZM13.4577 3.08289L13.2242 4.05526L13.4577 3.08289ZM14.3249 3.44208L13.8024 4.29472V4.29472L14.3249 3.44208ZM18.9171 8.5423L19.8895 8.30886V8.30886L18.9171 8.5423ZM18.5579 7.67515L17.7053 8.19764L17.7053 8.19764L18.5579 7.67515ZM9.8 22C10.3523 22 10.8 21.5523 10.8 21C10.8 20.4477 10.3523 20 9.8 20V22ZM6.63803 20.673L6.18404 21.564H6.18404L6.63803 20.673ZM5.32698 19.362L6.21799 18.908L6.21799 18.908L5.32698 19.362ZM5.32698 4.63803L6.21799 5.09202L5.32698 4.63803ZM6.63803 3.32698L7.09202 4.21799L6.63803 3.32698ZM14 3C14 2.44772 13.5523 2 13 2C12.4477 2 12 2.44772 12 3H14ZM19 10C19.5523 10 20 9.55228 20 9C20 8.44772 19.5523 8 19 8V10ZM13.109 8.45399L12.218 8.90798L12.218 8.90798L13.109 8.45399ZM13.546 8.89101L13.092 9.78201H13.092L13.546 8.89101ZM10 10C10.5523 10 11 9.55228 11 9C11 8.44772 10.5523 8 10 8V10ZM9 8C8.44772 8 8 8.44772 8 9C8 9.55228 8.44772 10 9 10V8ZM9 12C8.44772 12 8 12.4477 8 13C8 13.5523 8.44772 14 9 14V12ZM15 14C15.5523 14 16 13.5523 16 13C16 12.4477 15.5523 12 15 12V14ZM18 10C18 10.5523 18.4477 11 19 11C19.5523 11 20 10.5523 20 10H18ZM9 16C8.44772 16 8 16.4477 8 17C8 17.5523 8.44772 18 9 18V16ZM12 18C12.5523 18 13 17.5523 13 17C13 16.4477 12.5523 16 12 16V18ZM16.8598 21.6347L16.1527 20.9276L16.1527 20.9276L16.8598 21.6347ZM14.3653 19.1402L13.6582 18.4331H13.6582L14.3653 19.1402ZM18.9889 14.5166L19.696 15.2237L18.9889 14.5166ZM20.1527 18.3418C20.5432 18.7323 21.1763 18.7323 21.5669 18.3418C21.9574 17.9513 21.9574 17.3181 21.5669 16.9276L20.1527 18.3418ZM19.0724 14.4331C18.6819 14.0426 18.0487 14.0426 17.6582 14.4331C17.2677 14.8237 17.2677 15.4568 17.6582 15.8473L19.0724 14.4331ZM6 16.2V7.8H4V16.2H6ZM9.8 4H12.0118V2H9.8V4ZM18.3012 5.88701L16.113 3.69878L14.6988 5.11299L16.887 7.30122L18.3012 5.88701ZM12.0118 4C12.4596 4 12.7249 4.00055 12.9313 4.01477L13.0687 2.01951C12.7777 1.99945 12.4317 2 12.0118 2V4ZM12.9313 4.01477C13.0629 4.02385 13.1504 4.03752 13.2242 4.05526L13.6911 2.11052C13.4828 2.06051 13.2809 2.03412 13.0687 2.01951L12.9313 4.01477ZM16.113 3.69878C15.6278 3.21358 15.2745 2.85119 14.8474 2.58944L13.8024 4.29472C13.9807 4.40402 14.1463 4.56048 14.6988 5.11299L16.113 3.69878ZM13.2242 4.05526C13.4283 4.10425 13.6234 4.18506 13.8024 4.29472L14.8474 2.58944C14.4895 2.37012 14.0993 2.20851 13.6911 2.11052L13.2242 4.05526ZM20 9.98823C20 9.56828 20.0006 9.22235 19.9805 8.93125L17.9852 9.06875C17.9994 9.27508 18 9.54036 18 9.98823H20ZM19.9805 8.93125C19.9659 8.71915 19.9395 8.51716 19.8895 8.30886L17.9447 8.77575C17.9625 8.84965 17.9762 8.93708 17.9852 9.06875L19.9805 8.93125ZM16.887 7.30122C17.4395 7.85373 17.596 8.01928 17.7053 8.19764L19.4106 7.15265C19.1488 6.72551 18.7864 6.3722 18.3012 5.887L16.887 7.30122ZM19.8895 8.30886C19.7915 7.90071 19.6299 7.51054 19.4106 7.15265L17.7053 8.19764C17.8149 8.37659 17.8957 8.57168 17.9447 8.77575L19.8895 8.30886ZM9.8 20C8.94342 20 8.36113 19.9992 7.91104 19.9624C7.47262 19.9266 7.24842 19.8617 7.09202 19.782L6.18404 21.564C6.66937 21.8113 7.18608 21.9099 7.74817 21.9558C8.2986 22.0008 8.97642 22 9.8 22V20ZM4 16.2C4 17.0236 3.99922 17.7014 4.04419 18.2518C4.09012 18.8139 4.18868 19.3306 4.43597 19.816L6.21799 18.908C6.1383 18.7516 6.07337 18.5274 6.03755 18.089C6.00078 17.6389 6 17.0566 6 16.2H4ZM7.09202 19.782C6.71569 19.5903 6.40973 19.2843 6.21799 18.908L4.43597 19.816C4.81947 20.5686 5.43139 21.1805 6.18404 21.564L7.09202 19.782ZM6 7.8C6 6.94342 6.00078 6.36113 6.03755 5.91104C6.07337 5.47262 6.1383 5.24842 6.21799 5.09202L4.43597 4.18404C4.18868 4.66937 4.09012 5.18608 4.04419 5.74817C3.99922 6.2986 4 6.97642 4 7.8H6ZM9.8 2C8.97642 2 8.2986 1.99922 7.74817 2.04419C7.18608 2.09012 6.66937 2.18868 6.18404 2.43597L7.09202 4.21799C7.24842 4.1383 7.47262 4.07337 7.91104 4.03755C8.36113 4.00078 8.94342 4 9.8 4V2ZM6.21799 5.09202C6.40973 4.71569 6.71569 4.40973 7.09202 4.21799L6.18404 2.43597C5.43139 2.81947 4.81947 3.43139 4.43597 4.18404L6.21799 5.09202ZM12 3V3.01714H14V3H12ZM12 3.01714V7.4H14V3.01714H12ZM14.6 10H18.9829V8H14.6V10ZM18.9829 10H19V8H18.9829V10ZM12 7.4C12 7.66353 11.9992 7.92131 12.0169 8.13823C12.0356 8.36682 12.0797 8.63656 12.218 8.90798L14 8C14.0293 8.05751 14.0189 8.08028 14.0103 7.97537C14.0008 7.85878 14 7.69653 14 7.4H12ZM14.6 8C14.3035 8 14.1412 7.99922 14.0246 7.9897C13.9197 7.98113 13.9425 7.9707 14 8L13.092 9.78201C13.3634 9.92031 13.6332 9.96438 13.8618 9.98305C14.0787 10.0008 14.3365 10 14.6 10V8ZM12.218 8.90798C12.4097 9.2843 12.7157 9.59027 13.092 9.78201L14 8L14 8L12.218 8.90798ZM10 8H9V10H10V8ZM9 14H15V12H9V14ZM18 9.98823V10H20V9.98823H18ZM9 18H12V16H9V18ZM15 21.0646V20.0222H13V21.0646H15ZM14.9354 23H15.9778V21H14.9354V23ZM17.5669 22.3418L22.1905 17.7182L20.7763 16.304L16.1527 20.9276L17.5669 22.3418ZM15.0724 19.8473L19.696 15.2237L18.2818 13.8095L13.6582 18.4331L15.0724 19.8473ZM19.696 15.2237C19.9943 14.9254 20.478 14.9254 20.7763 15.2237L22.1905 13.8095C21.1111 12.7302 19.3612 12.7302 18.2818 13.8095L19.696 15.2237ZM22.1905 17.7182C23.2698 16.6388 23.2698 14.8889 22.1905 13.8095L20.7763 15.2237C21.0746 15.522 21.0746 16.0057 20.7763 16.304L22.1905 17.7182ZM15.9778 23C16.5738 23 17.1454 22.7632 17.5669 22.3418L16.1527 20.9276C16.1063 20.974 16.0434 21 15.9778 21V23ZM15 20.0222C15 19.9566 15.026 19.8937 15.0724 19.8473L13.6582 18.4331C13.2368 18.8546 13 19.4262 13 20.0222H15ZM13 21.0646C13 22.1335 13.8665 23 14.9354 23V21C14.9711 21 15 21.0289 15 21.0646H13ZM21.5669 16.9276L19.0724 14.4331L17.6582 15.8473L20.1527 18.3418L21.5669 16.9276Z" fill="#0B0D12"/>
</svg>
