<svg width="24" height="24" viewBox="0 0 24 24" fill="none" xmlns="http://www.w3.org/2000/svg">
<path d="M13 3V7.4C13 7.96005 13 8.24008 13.109 8.45399C13.2049 8.64215 13.3578 8.79513 13.546 8.89101C13.7599 9 14.0399 9 14.6 9H19M10 9H9M9 13H15M9 17H15M14.2 21H9.8C8.11984 21 7.27976 21 6.63803 20.673C6.07354 20.3854 5.6146 19.9265 5.32698 19.362C5 18.7202 5 17.8802 5 16.2V7.8C5 6.11984 5 5.27976 5.32698 4.63803C5.6146 4.07354 6.07354 3.6146 6.63803 3.32698C7.27976 3 8.11984 3 9.8 3H12.0118C12.7455 3 13.1124 3 13.4577 3.08289C13.7638 3.15638 14.0564 3.27759 14.3249 3.44208C14.6276 3.6276 14.887 3.88703 15.4059 4.40589L17.5941 6.59411C18.113 7.11296 18.3724 7.3724 18.5579 7.67515C18.7224 7.94356 18.8436 8.2362 18.9171 8.5423C19 8.88757 19 9.25445 19 9.98823V16.2C19 17.8802 19 18.7202 18.673 19.362C18.3854 19.9265 17.9265 20.3854 17.362 20.673C16.7202 21 15.8802 21 14.2 21Z" stroke="#0B0D12" stroke-width="2" stroke-linecap="round" stroke-linejoin="round"/>
</svg>
