<svg width="24" height="24" viewBox="0 0 24 24" fill="none" xmlns="http://www.w3.org/2000/svg">
<path d="M6.21964 19.9231L6.41473 18.9424H6.41473L6.21964 19.9231ZM4 15C4 14.4477 3.55228 14 3 14C2.44772 14 2 14.4477 2 15H4ZM3.07686 16.7804L2.09607 16.9755H2.09607L3.07686 16.7804ZM22 15C22 14.4477 21.5523 14 21 14C20.4477 14 20 14.4477 20 15H22ZM20.9231 16.7804L21.9039 16.9755V16.9755L20.9231 16.7804ZM17.7804 19.9231L17.5853 18.9424L17.7804 19.9231ZM12 14.5L11.2929 15.2071C11.6834 15.5976 12.3166 15.5976 12.7071 15.2071L12 14.5ZM13 4C13 3.44772 12.5523 3 12 3C11.4477 3 11 3.44772 11 4H13ZM16.2071 11.7071C16.5976 11.3166 16.5976 10.6834 16.2071 10.2929C15.8166 9.90237 15.1834 9.90237 14.7929 10.2929L16.2071 11.7071ZM9.20711 10.2929C8.81658 9.90237 8.18342 9.90237 7.79289 10.2929C7.40237 10.6834 7.40237 11.3166 7.79289 11.7071L9.20711 10.2929ZM16 19H8V21H16V19ZM8 19C7.02276 19 6.68018 18.9952 6.41473 18.9424L6.02455 20.9039C6.53189 21.0048 7.11862 21 8 21V19ZM2 15C2 15.8814 1.99516 16.4681 2.09607 16.9755L4.05764 16.5853C4.00484 16.3198 4 15.9772 4 15H2ZM6.41473 18.9424C5.22466 18.7056 4.29436 17.7753 4.05764 16.5853L2.09607 16.9755C2.49061 18.9589 4.0411 20.5094 6.02455 20.9039L6.41473 18.9424ZM20 15C20 15.9772 19.9952 16.3198 19.9424 16.5853L21.9039 16.9755C22.0048 16.4681 22 15.8814 22 15H20ZM16 21C16.8814 21 17.4681 21.0048 17.9755 20.9039L17.5853 18.9424C17.3198 18.9952 16.9772 19 16 19V21ZM19.9424 16.5853C19.7056 17.7753 18.7753 18.7056 17.5853 18.9424L17.9755 20.9039C19.9589 20.5094 21.5094 18.9589 21.9039 16.9755L19.9424 16.5853ZM13 14.5V4H11V14.5H13ZM12.7071 15.2071L16.2071 11.7071L14.7929 10.2929L11.2929 13.7929L12.7071 15.2071ZM12.7071 13.7929L9.20711 10.2929L7.79289 11.7071L11.2929 15.2071L12.7071 13.7929Z" fill="#0B0D12"/>
</svg>
