<svg width="24" height="24" viewBox="0 0 24 24" fill="none" xmlns="http://www.w3.org/2000/svg">
<path d="M16.115 4.1228L16.8221 3.41569V3.41569L16.115 4.1228ZM19.8772 7.88505L19.1701 8.59215L19.8772 7.88505ZM18.1136 12.1176L17.4065 12.8247L17.4065 12.8247L18.1136 12.1176ZM11.8824 5.88635L12.5895 5.17924L11.8824 5.88635ZM11.8824 4.1228L12.5895 4.82991V4.82991L11.8824 4.1228ZM11.584 4.44796L12.4145 5.00494L11.584 4.44796ZM11.584 5.5612L10.7534 6.11818V6.11818L11.584 5.5612ZM19.552 12.416L20.109 13.2466H20.109L19.552 12.416ZM18.4388 12.416L17.8818 13.2466L18.4388 12.416ZM20.5935 8.66542L21.424 8.10844V8.10844L20.5935 8.66542ZM20.5935 11.3372L21.424 11.8942V11.8942L20.5935 11.3372ZM15.3346 3.40648L14.7776 4.237L15.3346 3.40648ZM12.6628 3.40648L13.2198 4.237L13.2198 4.237L12.6628 3.40648ZM7.88505 19.8772L7.17794 20.5843H7.17794L7.88505 19.8772ZM4.1228 16.115L4.8299 15.4078L4.1228 16.115ZM5.88635 11.8824L6.59346 11.1753L6.59345 11.1753L5.88635 11.8824ZM12.1176 18.1136L11.4105 18.8208L12.1176 18.1136ZM12.1176 19.8772L11.4105 19.1701V19.1701L12.1176 19.8772ZM12.416 19.552L11.5855 18.9951L12.416 19.552ZM12.416 18.4388L13.2466 17.8818L12.416 18.4388ZM4.44796 11.584L3.89097 10.7534H3.89097L4.44796 11.584ZM5.56119 11.584L6.11818 10.7534H6.11818L5.56119 11.584ZM3.40648 15.3346L2.57595 15.8916L2.57595 15.8916L3.40648 15.3346ZM3.40648 12.6628L2.57595 12.1058L2.57595 12.1058L3.40648 12.6628ZM8.66542 20.5935L9.2224 19.763L8.66542 20.5935ZM11.3372 20.5935L10.7802 19.763L11.3372 20.5935ZM20.7019 4.71234C21.0924 4.32181 21.0924 3.68865 20.7019 3.29812C20.3114 2.9076 19.6782 2.9076 19.2877 3.29812L20.7019 4.71234ZM17.289 5.29682C16.8984 5.68734 16.8984 6.3205 17.289 6.71103C17.6795 7.10155 18.3127 7.10155 18.7032 6.71103L17.289 5.29682ZM15.7051 9.70907C16.0957 9.31854 16.0957 8.68538 15.7051 8.29485C15.3146 7.90433 14.6815 7.90433 14.2909 8.29485L15.7051 9.70907ZM8.29485 14.2909C7.90433 14.6815 7.90433 15.3146 8.29485 15.7051C8.68538 16.0957 9.31854 16.0957 9.70907 15.7051L8.29485 14.2909ZM6.71103 18.7032C7.10155 18.3127 7.10155 17.6795 6.71103 17.289C6.3205 16.8984 5.68734 16.8984 5.29682 17.289L6.71103 18.7032ZM3.29812 19.2877C2.9076 19.6782 2.9076 20.3114 3.29812 20.7019C3.68865 21.0924 4.32181 21.0924 4.71234 20.7019L3.29812 19.2877ZM15.4078 4.82991L19.1701 8.59215L20.5843 7.17794L16.8221 3.41569L15.4078 4.82991ZM18.8208 11.4105L12.5895 5.17924L11.1753 6.59346L17.4065 12.8247L18.8208 11.4105ZM11.1753 3.41569C11.0462 3.54485 10.8759 3.70841 10.7534 3.89097L12.4145 5.00494C12.3992 5.02779 12.3926 5.03148 12.4232 4.99874C12.4564 4.9632 12.5034 4.91603 12.5895 4.82991L11.1753 3.41569ZM12.5895 5.17924C12.5034 5.09312 12.4564 5.04596 12.4232 5.01042C12.3926 4.97768 12.3992 4.98136 12.4145 5.00421L10.7534 6.11818C10.8759 6.30074 11.0462 6.4643 11.1753 6.59346L12.5895 5.17924ZM10.7534 3.89097C10.3016 4.56464 10.3016 5.44451 10.7534 6.11818L12.4145 5.00421V5.00494L10.7534 3.89097ZM19.1701 11.4105C19.084 11.4966 19.0368 11.5436 19.0013 11.5768C18.9685 11.6074 18.9722 11.6008 18.9951 11.5855L20.109 13.2466C20.2916 13.1241 20.4551 12.9538 20.5843 12.8247L19.1701 11.4105ZM17.4065 12.8247C17.5357 12.9538 17.6993 13.1241 17.8818 13.2466L18.9958 11.5855C19.0186 11.6008 19.0223 11.6074 18.9896 11.5768C18.954 11.5436 18.9069 11.4966 18.8208 11.4105L17.4065 12.8247ZM18.9951 11.5855H18.9958L17.8818 13.2466C18.5555 13.6984 19.4354 13.6984 20.109 13.2466L18.9951 11.5855ZM19.1701 8.59215C19.5943 9.01634 19.7007 9.12945 19.763 9.22241L21.424 8.10844C21.2255 7.81243 20.9413 7.53494 20.5843 7.17794L19.1701 8.59215ZM20.5843 12.8247C20.9413 12.4677 21.2255 12.1902 21.424 11.8942L19.763 10.7802C19.7007 10.8732 19.5943 10.9863 19.1701 11.4105L20.5843 12.8247ZM19.763 9.2224C20.079 9.6936 20.079 10.309 19.763 10.7802L21.424 11.8942C22.192 10.7491 22.192 9.25352 21.424 8.10844L19.763 9.2224ZM16.8221 3.41569C16.4651 3.05869 16.1876 2.77447 15.8916 2.57595L14.7776 4.237C14.8705 4.29934 14.9837 4.40572 15.4078 4.82991L16.8221 3.41569ZM12.5895 4.82991C13.0137 4.40572 13.1268 4.29934 13.2198 4.237L12.1058 2.57595C11.8098 2.77447 11.5323 3.05869 11.1753 3.41569L12.5895 4.82991ZM15.8916 2.57595C14.7465 1.80802 13.2509 1.80802 12.1058 2.57595L13.2198 4.237C13.691 3.921 14.3064 3.921 14.7776 4.237L15.8916 2.57595ZM8.59215 19.1701L4.8299 15.4078L3.41569 16.8221L7.17794 20.5843L8.59215 19.1701ZM5.17925 12.5895L11.4105 18.8208L12.8247 17.4065L6.59346 11.1753L5.17925 12.5895ZM12.8247 20.5843C12.9538 20.4551 13.1241 20.2916 13.2466 20.109L11.5855 18.9951C11.6008 18.9722 11.6074 18.9685 11.5768 19.0013C11.5436 19.0368 11.4966 19.084 11.4105 19.1701L12.8247 20.5843ZM11.4105 18.8208C11.4966 18.9069 11.5436 18.954 11.5768 18.9896C11.6074 19.0223 11.6008 19.0186 11.5855 18.9958L13.2466 17.8818C13.1241 17.6993 12.9538 17.5357 12.8247 17.4065L11.4105 18.8208ZM13.2466 20.109C13.6984 19.4354 13.6984 18.5555 13.2466 17.8818L11.5855 18.9958V18.9951L13.2466 20.109ZM4.82991 12.5895C4.91603 12.5034 4.9632 12.4564 4.99874 12.4232C5.03147 12.3926 5.02779 12.3992 5.00494 12.4145L3.89097 10.7534C3.70841 10.8759 3.54485 11.0462 3.41569 11.1753L4.82991 12.5895ZM6.59345 11.1753C6.46431 11.0462 6.30074 10.8759 6.11818 10.7534L5.00421 12.4145C4.98136 12.3992 4.97767 12.3926 5.01041 12.4232C5.04596 12.4564 5.09312 12.5034 5.17925 12.5895L6.59345 11.1753ZM5.00494 12.4145H5.00421L6.11818 10.7534C5.44451 10.3016 4.56464 10.3016 3.89097 10.7534L5.00494 12.4145ZM4.8299 15.4078C4.40572 14.9837 4.29934 14.8705 4.237 14.7776L2.57595 15.8916C2.77447 16.1876 3.05869 16.4651 3.41569 16.8221L4.8299 15.4078ZM3.41569 11.1753C3.05869 11.5323 2.77447 11.8098 2.57595 12.1058L4.237 13.2198C4.29934 13.1268 4.40572 13.0137 4.82991 12.5895L3.41569 11.1753ZM4.237 14.7776C3.921 14.3064 3.921 13.691 4.237 13.2198L2.57595 12.1058C1.80802 13.2509 1.80802 14.7465 2.57595 15.8916L4.237 14.7776ZM7.17794 20.5843C7.53494 20.9413 7.81243 21.2255 8.10844 21.424L9.2224 19.763C9.12945 19.7007 9.01634 19.5943 8.59215 19.1701L7.17794 20.5843ZM11.4105 19.1701C10.9863 19.5943 10.8732 19.7007 10.7802 19.763L11.8942 21.424C12.1902 21.2255 12.4677 20.9413 12.8247 20.5843L11.4105 19.1701ZM8.10844 21.424C9.25352 22.192 10.7491 22.192 11.8942 21.424L10.7802 19.763C10.309 20.079 9.6936 20.079 9.2224 19.763L8.10844 21.424ZM19.2877 3.29812L17.289 5.29682L18.7032 6.71103L20.7019 4.71234L19.2877 3.29812ZM14.2909 8.29485L8.29485 14.2909L9.70907 15.7051L15.7051 9.70907L14.2909 8.29485ZM5.29682 17.289L3.29812 19.2877L4.71234 20.7019L6.71103 18.7032L5.29682 17.289Z" fill="#0B0D12"/>
</svg>
