<svg width="24" height="24" viewBox="0 0 24 24" fill="none" xmlns="http://www.w3.org/2000/svg">
<path d="M7 9L10.971 11.3826C11.6044 11.7626 12.3956 11.7626 13.029 11.3826L17 9M9.4 20H14.6C16.8402 20 17.9603 20 18.816 19.564C19.5686 19.1805 20.1805 18.5686 20.564 17.816C21 16.9603 21 15.8402 21 13.6V10.4C21 8.15979 21 7.03968 20.564 6.18404C20.1805 5.43139 19.5686 4.81947 18.816 4.43597C17.9603 4 16.8402 4 14.6 4H9.4C7.15979 4 6.03968 4 5.18404 4.43597C4.43139 4.81947 3.81947 5.43139 3.43597 6.18404C3 7.03968 3 8.15979 3 10.4V13.6C3 15.8402 3 16.9603 3.43597 17.816C3.81947 18.5686 4.43139 19.1805 5.18404 19.564C6.03968 20 7.15979 20 9.4 20Z" stroke="#0B0D12" stroke-width="2" stroke-linecap="round" stroke-linejoin="round"/>
</svg>
