<svg width="24" height="24" viewBox="0 0 24 24" fill="none" xmlns="http://www.w3.org/2000/svg">
<path d="M5.18404 19.564L5.63803 18.673L5.18404 19.564ZM3.43597 17.816L2.54497 18.27L3.43597 17.816ZM20.564 17.816L19.673 17.362L20.564 17.816ZM18.816 19.564L18.362 18.673L18.816 19.564ZM18.816 4.43597L18.362 5.32698L18.816 4.43597ZM20.564 6.18404L19.673 6.63803L20.564 6.18404ZM5.18404 4.43597L5.63803 5.32698L5.18404 4.43597ZM3.43597 6.18404L4.32698 6.63803L3.43597 6.18404ZM11.3861 13.5225L12 12.7331L12 12.7331L11.3861 13.5225ZM12.6139 13.5225L12 12.7331L12 12.7331L12.6139 13.5225ZM20.8616 7.10763L21.8453 6.92788L20.8616 7.10763ZM9.4 5H14.6V3H9.4V5ZM20 10.4V13.6H22V10.4H20ZM14.6 19H9.4V21H14.6V19ZM4 13.6V10.4H2V13.6H4ZM9.4 19C8.26339 19 7.47108 18.9992 6.85424 18.9488C6.24907 18.8994 5.90138 18.8072 5.63803 18.673L4.73005 20.455C5.32234 20.7568 5.96253 20.8826 6.69138 20.9422C7.40855 21.0008 8.2964 21 9.4 21V19ZM5.63803 18.673C5.07354 18.3854 4.6146 17.9265 4.32698 17.362L2.54497 18.27C3.02433 19.2108 3.78924 19.9757 4.73005 20.455L5.63803 18.673ZM14.6 21C15.7036 21 16.5914 21.0008 17.3086 20.9422C18.0375 20.8826 18.6777 20.7568 19.27 20.455L18.362 18.673C18.0986 18.8072 17.7509 18.8994 17.1458 18.9488C16.5289 18.9992 15.7366 19 14.6 19V21ZM19.673 17.362C19.3854 17.9265 18.9265 18.3854 18.362 18.673L19.27 20.455C20.2108 19.9757 20.9757 19.2108 21.455 18.27L19.673 17.362ZM14.6 5C15.7366 5 16.5289 5.00078 17.1458 5.05118C17.7509 5.10062 18.0986 5.19279 18.362 5.32698L19.27 3.54497C18.6777 3.24318 18.0375 3.11737 17.3086 3.05782C16.5914 2.99922 15.7036 3 14.6 3V5ZM18.362 5.32698C18.9265 5.6146 19.3854 6.07354 19.673 6.63803L21.455 5.73005C20.9757 4.78924 20.2108 4.02433 19.27 3.54497L18.362 5.32698ZM9.4 3C8.2964 3 7.40855 2.99922 6.69138 3.05782C5.96253 3.11737 5.32234 3.24318 4.73005 3.54497L5.63803 5.32698C5.90138 5.19279 6.24907 5.10062 6.85424 5.05118C7.47108 5.00078 8.26339 5 9.4 5V3ZM4.73005 3.54497C3.78924 4.02433 3.02433 4.78924 2.54497 5.73005L4.32698 6.63803C4.6146 6.07354 5.07354 5.6146 5.63803 5.32698L4.73005 3.54497ZM10.7721 14.3118C11.4943 14.8736 12.5057 14.8736 13.2279 14.3118L12 12.7331H12L10.7721 14.3118ZM20 13.6C20 15.1518 19.9962 16.0455 19.8817 16.6918L21.851 17.0408C22.0038 16.1784 22 15.0695 22 13.6H20ZM19.8817 16.6918C19.8302 16.982 19.7606 17.1901 19.673 17.362L21.455 18.27C21.6514 17.8845 21.7733 17.4793 21.851 17.0408L19.8817 16.6918ZM2 13.6C2 15.0695 1.99619 16.1784 2.14903 17.0408L4.11834 16.6918C4.00381 16.0455 4 15.1518 4 13.6H2ZM2.14903 17.0408C2.22674 17.4793 2.34859 17.8845 2.54497 18.27L4.32698 17.362C4.2394 17.1901 4.16977 16.982 4.11834 16.6918L2.14903 17.0408ZM13.2279 14.3118L15.9889 12.1644L14.7611 10.5856L12 12.7331L13.2279 14.3118ZM21.5734 16.1592L16.0821 10.6679L14.6679 12.0821L20.1592 17.5734L21.5734 16.1592ZM12 12.7331L9.23894 10.5856L8.01106 12.1644L10.7721 14.3118L12 12.7331ZM7.91789 10.6679L2.42658 16.1592L3.84079 17.5734L9.33211 12.0821L7.91789 10.6679ZM15.9889 12.1644L21.4756 7.89698L20.2477 6.31828L14.7611 10.5856L15.9889 12.1644ZM22 10.4C22 8.91446 22.004 7.7965 21.8453 6.92788L19.8779 7.28737C19.996 7.9334 20 8.8293 20 10.4H22ZM21.8453 6.92788C21.7674 6.50125 21.6467 6.10613 21.455 5.73005L19.673 6.63803C19.7586 6.80591 19.8269 7.0082 19.8779 7.28737L21.8453 6.92788ZM9.23894 10.5856L3.75232 6.31828L2.52444 7.89698L8.01106 12.1644L9.23894 10.5856ZM4 10.4C4 8.8293 4.00405 7.9334 4.12209 7.28737L2.15466 6.92788C1.99595 7.7965 2 8.91446 2 10.4H4ZM4.12209 7.28737C4.1731 7.0082 4.24144 6.80591 4.32698 6.63803L2.54497 5.73005C2.35334 6.10613 2.23262 6.50125 2.15466 6.92788L4.12209 7.28737Z" fill="#0B0D12"/>
</svg>
