<svg width="24" height="24" viewBox="0 0 24 24" fill="none" xmlns="http://www.w3.org/2000/svg">
<path d="M19.1716 7.17156L19.8787 6.46446L19.8787 6.46445L19.1716 7.17156ZM17.8284 5.82841L17.1213 6.53552V6.53552L17.8284 5.82841ZM4.82842 18.8284L4.12131 19.5355L4.82842 18.8284ZM6.99999 21L6.29288 21.7071C6.48042 21.8946 6.73477 22 6.99999 22L6.99999 21ZM10.2929 20.2929C9.90236 20.6834 9.90236 21.3166 10.2929 21.7071C10.6834 22.0976 11.3166 22.0976 11.7071 21.7071L10.2929 20.2929ZM16.5 15.5L17.2071 16.2071L16.5 15.5ZM19.1716 12.8284L18.4645 12.1213L18.4645 12.1213L19.1716 12.8284ZM12.1716 5.82842L11.4645 5.12131V5.12131L12.1716 5.82842ZM4.82842 13.1716L4.12131 12.4645H4.12131L4.82842 13.1716ZM15.7725 4.15788L15.4635 5.10894V5.10894L15.7725 4.15788ZM14.2274 4.15788L14.5365 5.10894V5.10894L14.2274 4.15788ZM20.8421 9.22745L21.7932 8.91843L20.8421 9.22745ZM20.8421 10.7725L19.891 10.4635L19.891 10.4635L20.8421 10.7725ZM3.15788 16.7725L4.10894 16.4635H4.10894L3.15788 16.7725ZM3.15788 15.2274L4.10894 15.5365L4.10894 15.5365L3.15788 15.2274ZM21 22C21.5523 22 22 21.5523 22 21C22 20.4477 21.5523 20 21 20V22ZM19.8787 6.46445L18.5355 5.12131L17.1213 6.53552L18.4645 7.87867L19.8787 6.46445ZM4.12131 19.5355L6.29288 21.7071L7.7071 20.2929L5.53552 18.1213L4.12131 19.5355ZM11.7071 21.7071L17.2071 16.2071L15.7929 14.7929L10.2929 20.2929L11.7071 21.7071ZM17.2071 16.2071L19.8787 13.5355L18.4645 12.1213L15.7929 14.7929L17.2071 16.2071ZM11.4645 5.12131L8.79288 7.79288L10.2071 9.2071L12.8787 6.53552L11.4645 5.12131ZM8.79288 7.79288L4.12131 12.4645L5.53552 13.8787L10.2071 9.2071L8.79288 7.79288ZM17.2071 14.7929L10.2071 7.79288L8.79288 9.2071L15.7929 16.2071L17.2071 14.7929ZM18.5355 5.12131C18.0522 4.63796 17.6477 4.23236 17.2904 3.92909C16.9243 3.61824 16.5425 3.3566 16.0815 3.20682L15.4635 5.10894C15.5734 5.14463 15.7245 5.22323 15.9961 5.45377C16.2766 5.69189 16.6146 6.02883 17.1213 6.53552L18.5355 5.12131ZM12.8787 6.53552C13.3854 6.02883 13.7234 5.69189 14.0039 5.45377C14.2755 5.22323 14.4266 5.14463 14.5365 5.10894L13.9184 3.20682C13.4575 3.3566 13.0757 3.61824 12.7095 3.92909C12.3523 4.23236 11.9478 4.63796 11.4645 5.12131L12.8787 6.53552ZM16.0815 3.20682C15.3786 2.97842 14.6214 2.97842 13.9184 3.20682L14.5365 5.10894C14.8377 5.01105 15.1622 5.01105 15.4635 5.10894L16.0815 3.20682ZM18.4645 7.87867C18.9711 8.38535 19.3081 8.72339 19.5462 9.00389C19.7767 9.27545 19.8553 9.42661 19.891 9.53646L21.7932 8.91843C21.6434 8.45747 21.3817 8.0757 21.0709 7.70953C20.7676 7.3523 20.362 6.94781 19.8787 6.46446L18.4645 7.87867ZM19.8787 13.5355C20.362 13.0522 20.7676 12.6477 21.0709 12.2904C21.3817 11.9243 21.6434 11.5425 21.7932 11.0815L19.891 10.4635C19.8553 10.5734 19.7767 10.7245 19.5462 10.9961C19.3081 11.2766 18.9711 11.6146 18.4645 12.1213L19.8787 13.5355ZM19.891 9.53646C19.9889 9.83773 19.9889 10.1622 19.891 10.4635L21.7932 11.0815C22.0216 10.3786 22.0216 9.62138 21.7932 8.91843L19.891 9.53646ZM5.53552 18.1213C5.02883 17.6146 4.69189 17.2766 4.45377 16.9961C4.22323 16.7245 4.14463 16.5734 4.10894 16.4635L2.20682 17.0815C2.3566 17.5425 2.61824 17.9243 2.92909 18.2904C3.23236 18.6477 3.63796 19.0522 4.12131 19.5355L5.53552 18.1213ZM4.12131 12.4645C3.63796 12.9478 3.23237 13.3523 2.9291 13.7095C2.61825 14.0757 2.3566 14.4575 2.20682 14.9184L4.10894 15.5365C4.14463 15.4266 4.22323 15.2755 4.45378 15.0039C4.6919 14.7234 5.02884 14.3854 5.53552 13.8787L4.12131 12.4645ZM4.10894 16.4635C4.01105 16.1622 4.01105 15.8377 4.10894 15.5365L2.20682 14.9184C1.97842 15.6214 1.97842 16.3786 2.20682 17.0815L4.10894 16.4635ZM6.99999 22L21 22V20L6.99999 20L6.99999 22Z" fill="#0B0D12"/>
</svg>
