<svg width="24" height="24" viewBox="0 0 24 24" fill="none" xmlns="http://www.w3.org/2000/svg">
<path d="M3 13.8C3 12.1198 3 11.2798 3.32698 10.638C3.6146 10.0735 4.07354 9.6146 4.63803 9.32698C5.27976 9 6.11984 9 7.8 9H10.2C11.8802 9 12.7202 9 13.362 9.32698C13.9265 9.6146 14.3854 10.0735 14.673 10.638C15 11.2798 15 12.1198 15 13.8V16.2C15 17.8802 15 18.7202 14.673 19.362C14.3854 19.9265 13.9265 20.3854 13.362 20.673C12.7202 21 11.8802 21 10.2 21H7.8C6.11984 21 5.27976 21 4.63803 20.673C4.07354 20.3854 3.6146 19.9265 3.32698 19.362C3 18.7202 3 17.8802 3 16.2V13.8Z" stroke="#0B0D12" stroke-width="2" stroke-linecap="round" stroke-linejoin="round"/>
<path d="M9 7.8C9 6.11984 9 5.27976 9.32698 4.63803C9.6146 4.07354 10.0735 3.6146 10.638 3.32698C11.2798 3 12.1198 3 13.8 3H16.2C17.8802 3 18.7202 3 19.362 3.32698C19.9265 3.6146 20.3854 4.07354 20.673 4.63803C21 5.27976 21 6.11984 21 7.8V10.2C21 11.8802 21 12.7202 20.673 13.362C20.3854 13.9265 19.9265 14.3854 19.362 14.673C18.7202 15 17.8802 15 16.2 15H13.8C12.1198 15 11.2798 15 10.638 14.673C10.0735 14.3854 9.6146 13.9265 9.32698 13.362C9 12.7202 9 11.8802 9 10.2V7.8Z" stroke="#0B0D12" stroke-width="2" stroke-linecap="round" stroke-linejoin="round"/>
</svg>
