<svg width="24" height="24" viewBox="0 0 24 24" fill="none" xmlns="http://www.w3.org/2000/svg">
<path d="M21.7071 3.70711C22.0976 3.31658 22.0976 2.68342 21.7071 2.29289C21.3166 1.90237 20.6834 1.90237 20.2929 2.29289L21.7071 3.70711ZM17.3572 6.64282L18.0643 7.34993L17.3572 6.64282ZM6.64282 17.3572L7.34993 18.0643L6.64282 17.3572ZM2.29289 20.2929C1.90237 20.6834 1.90237 21.3166 2.29289 21.7071C2.68342 22.0976 3.31658 22.0976 3.70711 21.7071L2.29289 20.2929ZM21.1077 9.26367C20.8334 8.7843 20.2225 8.61804 19.7431 8.89231C19.2637 9.16658 19.0975 9.77753 19.3717 10.2569L21.1077 9.26367ZM11.1396 17.9596C10.5898 17.9073 10.1017 18.3106 10.0494 18.8604C9.99705 19.4102 10.4003 19.8983 10.9501 19.9506L11.1396 17.9596ZM10 12C10 10.8954 10.8954 10 12 10V8C9.79086 8 8 9.79086 8 12H10ZM20 12C20 12.2444 19.8844 12.7527 19.5416 13.4285C19.2108 14.0804 18.7066 14.812 18.0288 15.4957C16.6796 16.8567 14.6747 18 12 18V20C15.2959 20 17.791 18.5763 19.4491 16.9038C20.275 16.0707 20.9013 15.1689 21.3252 14.3334C21.7369 13.5218 22 12.6886 22 12H20ZM4 12C4 11.7556 4.11556 11.2473 4.45844 10.5715C4.78915 9.91958 5.2934 9.18799 5.9712 8.50429C7.32041 7.14335 9.3253 6 12 6V4C8.70414 4 6.20902 5.42365 4.55088 7.09621C3.725 7.92927 3.09873 8.83105 2.67484 9.66661C2.26312 10.4782 2 11.3114 2 12H4ZM20.2929 2.29289L16.6501 5.93571L18.0643 7.34993L21.7071 3.70711L20.2929 2.29289ZM12 6C13.9583 6 15.55 6.61156 16.7896 7.46612L17.9248 5.81951C16.382 4.75588 14.3994 4 12 4V6ZM16.6501 5.93571L13.4142 9.17157L14.8284 10.5858L18.0643 7.34993L16.6501 5.93571ZM12 10C12.5526 10 13.0512 10.2228 13.4142 10.5858L14.8284 9.17157C14.1057 8.44881 13.1043 8 12 8V10ZM13.4142 9.17157L9.17157 13.4142L10.5858 14.8284L14.8284 10.5858L13.4142 9.17157ZM10.5858 13.4142C10.2228 13.0512 10 12.5526 10 12H8C8 13.1043 8.44881 14.1057 9.17157 14.8284L10.5858 13.4142ZM9.17157 13.4142L5.93571 16.6501L7.34993 18.0643L10.5858 14.8284L9.17157 13.4142ZM5.93571 16.6501L2.29289 20.2929L3.70711 21.7071L7.34993 18.0643L5.93571 16.6501ZM7.21042 16.5339C6.1248 15.7854 5.3067 14.8479 4.76386 13.9708C4.20048 13.0605 4 12.3264 4 12H2C2 12.8586 2.41042 13.9686 3.06321 15.0233C3.73652 16.1113 4.73983 17.2599 6.07522 18.1805L7.21042 16.5339ZM19.3717 10.2569C19.8378 11.0714 20 11.708 20 12H22C22 11.2111 21.6539 10.2184 21.1077 9.26367L19.3717 10.2569ZM12 18C11.7042 18 11.4175 17.9861 11.1396 17.9596L10.9501 19.9506C11.2913 19.9831 11.6413 20 12 20V18Z" fill="#0B0D12"/>
</svg>
