<svg width="24" height="24" viewBox="0 0 24 24" fill="none" xmlns="http://www.w3.org/2000/svg">
<path d="M8 7.5V9.51246M16 7.5V9.51246M8 15.5498C10.5181 16.8167 13.4819 16.8167 16 15.5498M12 8.50623V10.6913C12 11.2251 11.7893 11.7369 11.4142 12.1144L11.25 12.2796M3 17C3 17.93 3 18.395 3.10222 18.7765C3.37962 19.8117 4.18827 20.6204 5.22354 20.8978C5.60504 21 6.07003 21 7 21M17 21C17.93 21 18.395 21 18.7765 20.8978C19.8117 20.6204 20.6204 19.8117 20.8978 18.7765C21 18.395 21 17.93 21 17M21 7C21 6.07003 21 5.60504 20.8978 5.22354C20.6204 4.18827 19.8117 3.37962 18.7765 3.10222C18.395 3 17.93 3 17 3M7 3C6.07003 3 5.60504 3 5.22354 3.10222C4.18827 3.37962 3.37962 4.18827 3.10222 5.22354C3 5.60504 3 6.07003 3 7" stroke="#0B0D12" stroke-width="2" stroke-linecap="round"/>
</svg>
