<svg width="24" height="24" viewBox="0 0 24 24" fill="none" xmlns="http://www.w3.org/2000/svg">
<path d="M16.5 7V8V7ZM7.5 7V8V7ZM16.5 17V16V17ZM3 9.4H2H3ZM3.43597 5.18404L4.32698 5.63803L3.43597 5.18404ZM9.4 3V4V3ZM5.18404 3.43597L4.73005 2.54497L5.18404 3.43597ZM9.4 21V22V21ZM5.18404 20.564L5.63803 19.673L5.18404 20.564ZM3 14.6H4H3ZM3.43597 18.816L2.54497 19.27L3.43597 18.816ZM21 14.6H22H21ZM20.564 18.816L19.673 18.362L20.564 18.816ZM14.6 21V20V21ZM18.816 20.564L19.27 21.455L18.816 20.564ZM21 9.4H20H21ZM20.564 5.18404L21.455 4.73005L20.564 5.18404ZM14.6 3V2V3ZM18.816 3.43597L18.362 4.32698L18.816 3.43597ZM11 3L11 7L13 7L13 3L11 3ZM11 7V17H13V7H11ZM11 17V21H13V17H11ZM21 6H16.5V8H21V6ZM16.5 6L12 6V8L16.5 8V6ZM17.5 7L17.5 3L15.5 3L15.5 7H17.5ZM12 6H7.5V8H12V6ZM7.5 6L3 6L3 8L7.5 8V6ZM6.5 3V7H8.5V3H6.5ZM12 16H7.5V18H12V16ZM7.5 16H3V18H7.5V16ZM6.5 17V21H8.5V17H6.5ZM21 16L16.5 16V18L21 18V16ZM16.5 16H12V18H16.5V16ZM15.5 17V21H17.5V17H15.5ZM20 9.4V14.6H22V9.4H20ZM14.6 20H9.4V22H14.6V20ZM4 14.6L4 9.4H2L2 14.6H4ZM9.4 4L14.6 4V2L9.4 2V4ZM4 9.4C4 8.26339 4.00078 7.47108 4.05118 6.85424C4.10062 6.24907 4.19279 5.90138 4.32698 5.63803L2.54497 4.73005C2.24318 5.32234 2.11737 5.96253 2.05782 6.69138C1.99922 7.40855 2 8.2964 2 9.4H4ZM9.4 2C8.2964 2 7.40855 1.99922 6.69138 2.05782C5.96253 2.11737 5.32234 2.24318 4.73005 2.54497L5.63803 4.32698C5.90138 4.19279 6.24907 4.10062 6.85424 4.05118C7.47108 4.00078 8.26339 4 9.4 4V2ZM4.32698 5.63803C4.6146 5.07354 5.07354 4.6146 5.63803 4.32698L4.73005 2.54497C3.78924 3.02433 3.02433 3.78924 2.54497 4.73005L4.32698 5.63803ZM9.4 20C8.26339 20 7.47108 19.9992 6.85424 19.9488C6.24907 19.8994 5.90138 19.8072 5.63803 19.673L4.73005 21.455C5.32234 21.7568 5.96253 21.8826 6.69138 21.9422C7.40855 22.0008 8.2964 22 9.4 22V20ZM2 14.6C2 15.7036 1.99922 16.5914 2.05782 17.3086C2.11737 18.0375 2.24318 18.6777 2.54497 19.27L4.32698 18.362C4.19279 18.0986 4.10062 17.7509 4.05118 17.1458C4.00078 16.5289 4 15.7366 4 14.6H2ZM5.63803 19.673C5.07354 19.3854 4.6146 18.9265 4.32698 18.362L2.54497 19.27C3.02433 20.2108 3.78924 20.9757 4.73005 21.455L5.63803 19.673ZM20 14.6C20 15.7366 19.9992 16.5289 19.9488 17.1458C19.8994 17.7509 19.8072 18.0986 19.673 18.362L21.455 19.27C21.7568 18.6777 21.8826 18.0375 21.9422 17.3086C22.0008 16.5914 22 15.7036 22 14.6H20ZM14.6 22C15.7036 22 16.5914 22.0008 17.3086 21.9422C18.0375 21.8826 18.6777 21.7568 19.27 21.455L18.362 19.673C18.0986 19.8072 17.7509 19.8994 17.1458 19.9488C16.5289 19.9992 15.7366 20 14.6 20V22ZM19.673 18.362C19.3854 18.9265 18.9265 19.3854 18.362 19.673L19.27 21.455C20.2108 20.9757 20.9757 20.2108 21.455 19.27L19.673 18.362ZM22 9.4C22 8.2964 22.0008 7.40855 21.9422 6.69138C21.8826 5.96253 21.7568 5.32234 21.455 4.73005L19.673 5.63803C19.8072 5.90138 19.8994 6.24907 19.9488 6.85424C19.9992 7.47108 20 8.26339 20 9.4H22ZM14.6 4C15.7366 4 16.5289 4.00078 17.1458 4.05118C17.7509 4.10062 18.0986 4.19279 18.362 4.32698L19.27 2.54497C18.6777 2.24318 18.0375 2.11737 17.3086 2.05782C16.5914 1.99922 15.7036 2 14.6 2V4ZM21.455 4.73005C20.9757 3.78924 20.2108 3.02434 19.27 2.54497L18.362 4.32698C18.9265 4.6146 19.3854 5.07354 19.673 5.63803L21.455 4.73005Z" fill="#0B0D12"/>
</svg>
