<svg width="24" height="24" viewBox="0 0 24 24" fill="none" xmlns="http://www.w3.org/2000/svg">
<path d="M16.6785 3H7.32152C5.30999 3 4.30423 3 3.7674 3.42547C3.3001 3.79582 3.01893 4.35983 3.00055 4.96369C2.97943 5.6574 3.57099 6.48824 4.75411 8.14993L8.41664 13.2939C8.64204 13.6105 8.75473 13.7688 8.83471 13.9422C8.90568 14.0961 8.95739 14.2586 8.98863 14.4257C9.02382 14.614 9.02382 14.8097 9.02382 15.2012V17.3345C9.02382 18.7788 9.02382 19.501 9.27497 19.9611C9.60983 20.5746 10.2318 20.9672 10.9188 20.9988C11.434 21.0225 12.0663 20.6995 13.331 20.0536C13.8614 19.7827 14.1266 19.6473 14.3306 19.4569C14.6026 19.203 14.8 18.8767 14.9007 18.5146C14.9762 18.2431 14.9762 17.9403 14.9762 17.3345V15.2012C14.9762 14.8097 14.9762 14.614 15.0114 14.4257C15.0426 14.2586 15.0943 14.0961 15.1653 13.9422C15.2453 13.7688 15.358 13.6105 15.5834 13.2939L19.2459 8.14993C20.429 6.48824 21.0206 5.6574 20.9995 4.96369C20.9811 4.35983 20.6999 3.79582 20.2326 3.42547C19.6958 3 18.69 3 16.6785 3Z" stroke="#0B0D12" stroke-width="2" stroke-linecap="round"/>
</svg>
