<svg width="24" height="24" viewBox="0 0 24 24" fill="none" xmlns="http://www.w3.org/2000/svg">
<path d="M5.18404 20.564L5.63803 19.673L5.18404 20.564ZM3.43597 18.816L4.32698 18.362L3.43597 18.816ZM20.564 18.816L19.673 18.362L20.564 18.816ZM18.816 20.564L18.362 19.673L18.816 20.564ZM18.816 7.43597L18.362 8.32698L18.816 7.43597ZM20.564 9.18404L19.673 9.63803L20.564 9.18404ZM5.18404 7.43597L5.63803 8.32698L5.18404 7.43597ZM3.43597 9.18404L4.32698 9.63803L3.43597 9.18404ZM15.5003 5L14.5301 5.24254V5.24254L15.5003 5ZM15.6365 5.54479L16.6066 5.30225V5.30225L15.6365 5.54479ZM8.36391 5.5447L9.33405 5.78724V5.78724L8.36391 5.5447ZM8.50009 5L7.52994 4.75746L8.50009 5ZM6.4296 6.08351C5.87869 6.12239 5.4636 6.60051 5.50248 7.15143C5.54136 7.70234 6.01948 8.11743 6.5704 8.07855L6.4296 6.08351ZM17.4319 8.07869C17.9829 8.11648 18.4602 7.70045 18.4979 7.14946C18.5357 6.59847 18.1197 6.12117 17.5687 6.08337L17.4319 8.07869ZM15.0001 15.0001C15.5524 15.0001 16.0001 14.5524 16.0001 14.0001C16.0001 13.4478 15.5524 13.0001 15.0001 13.0001V15.0001ZM8.99988 13.0001C8.4476 13.0001 7.99988 13.4478 7.99988 14.0001C7.99988 14.5524 8.4476 15.0001 8.99988 15.0001V13.0001ZM12.9999 10.9999C12.9999 10.4476 12.5522 9.99988 11.9999 9.99988C11.4476 9.99988 10.9999 10.4476 10.9999 10.9999H12.9999ZM10.9999 17.0001C10.9999 17.5524 11.4476 18.0001 11.9999 18.0001C12.5522 18.0001 12.9999 17.5524 12.9999 17.0001H10.9999ZM9.4 8H14.6V6H9.4V8ZM20 13.4V14.6H22V13.4H20ZM14.6 20H9.4V22H14.6V20ZM4 14.6V13.4H2V14.6H4ZM9.4 20C8.26339 20 7.47108 19.9992 6.85424 19.9488C6.24907 19.8994 5.90138 19.8072 5.63803 19.673L4.73005 21.455C5.32234 21.7568 5.96253 21.8826 6.69138 21.9422C7.40855 22.0008 8.2964 22 9.4 22V20ZM2 14.6C2 15.7036 1.99922 16.5914 2.05782 17.3086C2.11737 18.0375 2.24318 18.6777 2.54497 19.27L4.32698 18.362C4.19279 18.0986 4.10062 17.7509 4.05118 17.1458C4.00078 16.5289 4 15.7366 4 14.6H2ZM5.63803 19.673C5.07354 19.3854 4.6146 18.9265 4.32698 18.362L2.54497 19.27C3.02433 20.2108 3.78924 20.9757 4.73005 21.455L5.63803 19.673ZM20 14.6C20 15.7366 19.9992 16.5289 19.9488 17.1458C19.8994 17.7509 19.8072 18.0986 19.673 18.362L21.455 19.27C21.7568 18.6777 21.8826 18.0375 21.9422 17.3086C22.0008 16.5914 22 15.7036 22 14.6H20ZM14.6 22C15.7036 22 16.5914 22.0008 17.3086 21.9422C18.0375 21.8826 18.6777 21.7568 19.27 21.455L18.362 19.673C18.0986 19.8072 17.7509 19.8994 17.1458 19.9488C16.5289 19.9992 15.7366 20 14.6 20V22ZM19.673 18.362C19.3854 18.9265 18.9265 19.3854 18.362 19.673L19.27 21.455C20.2108 20.9757 20.9757 20.2108 21.455 19.27L19.673 18.362ZM14.6 8C15.7366 8 16.5289 8.00078 17.1458 8.05118C17.7509 8.10062 18.0986 8.19279 18.362 8.32698L19.27 6.54497C18.6777 6.24318 18.0375 6.11737 17.3086 6.05782C16.5914 5.99922 15.7036 6 14.6 6V8ZM22 13.4C22 12.2964 22.0008 11.4086 21.9422 10.6914C21.8826 9.96253 21.7568 9.32234 21.455 8.73005L19.673 9.63803C19.8072 9.90138 19.8994 10.2491 19.9488 10.8542C19.9992 11.4711 20 12.2634 20 13.4H22ZM18.362 8.32698C18.9265 8.6146 19.3854 9.07354 19.673 9.63803L21.455 8.73005C20.9757 7.78924 20.2108 7.02433 19.27 6.54497L18.362 8.32698ZM9.4 6C8.2964 6 7.40855 5.99922 6.69138 6.05782C5.96253 6.11737 5.32234 6.24318 4.73005 6.54497L5.63803 8.32698C5.90138 8.19279 6.24907 8.10062 6.85424 8.05118C7.47108 8.00078 8.26339 8 9.4 8V6ZM4 13.4C4 12.2634 4.00078 11.4711 4.05118 10.8542C4.10062 10.2491 4.19279 9.90138 4.32698 9.63803L2.54497 8.73005C2.24318 9.32234 2.11737 9.96253 2.05782 10.6914C1.99922 11.4086 2 12.2964 2 13.4H4ZM4.73005 6.54497C3.78924 7.02433 3.02433 7.78924 2.54497 8.73005L4.32698 9.63803C4.6146 9.07354 5.07354 8.6146 5.63803 8.32698L4.73005 6.54497ZM11.0616 4H12.9387V2H11.0616V4ZM14.5301 5.24254L14.6663 5.78732L16.6066 5.30225L16.4704 4.75746L14.5301 5.24254ZM9.33405 5.78724L9.47023 5.24253L7.52994 4.75746L7.39377 5.30217L9.33405 5.78724ZM7.39377 5.30217C7.29053 5.71511 6.89056 6.05098 6.4296 6.08351L6.5704 8.07855C7.84751 7.98842 9.00964 7.08487 9.33405 5.78724L7.39377 5.30217ZM14.6663 5.78732C14.9887 7.07671 16.1194 7.98867 17.4319 8.07869L17.5687 6.08337C17.0929 6.05074 16.7119 5.72335 16.6066 5.30225L14.6663 5.78732ZM12.9387 4C13.6915 4 14.3476 4.51229 14.5301 5.24254L16.4704 4.75746C16.0653 3.13688 14.6092 2 12.9387 2V4ZM11.0616 2C9.39118 2 7.93509 3.13688 7.52994 4.75746L9.47023 5.24253C9.65279 4.51229 10.3089 4 11.0616 4V2ZM15.0001 13.0001H8.99988V15.0001H15.0001V13.0001ZM10.9999 10.9999V17.0001H12.9999V10.9999H10.9999Z" fill="#0B0D12"/>
</svg>
