<svg width="24" height="24" viewBox="0 0 24 24" fill="none" xmlns="http://www.w3.org/2000/svg">
<path d="M21.7735 16.4511L22.6388 16.9524L21.7735 16.4511ZM19.4233 20.5076L20.2886 21.0089L19.4233 20.5076ZM19.2883 14.7462L20.1536 15.2475V15.2475L19.2883 14.7462ZM16.0729 18.3014C15.7961 18.7793 15.959 19.3911 16.4369 19.668C16.9148 19.9448 17.5266 19.7819 17.8035 19.304L16.0729 18.3014ZM14.453 17.0977L15.3183 17.599L14.453 17.0977ZM16.8851 14.8947C17.1619 14.4168 16.999 13.805 16.5211 13.5281C16.0432 13.2513 15.4314 13.4142 15.1545 13.8921L16.8851 14.8947ZM21.3143 14.2465L20.7486 15.0711L21.3143 14.2465ZM15.3714 21.507L14.8057 22.3316L15.3714 21.507ZM20 11C20 11.5523 20.4477 12 21 12C21.5523 12 22 11.5523 22 11H20ZM11 22C11.5523 22 12 21.5523 12 21C12 20.4477 11.5523 20 11 20V22ZM18.2896 7.01401L18.1931 8.00934H18.1931L18.2896 7.01401ZM20.986 9.71039L21.9813 9.61386V9.61385L20.986 9.71039ZM14.5 5L15.4701 4.75746L14.5 5ZM3.32698 19.362L4.21799 18.908L4.21799 18.908L3.32698 19.362ZM4.63803 20.673L4.18404 21.564H4.18404L4.63803 20.673ZM3.32698 4.63803L4.21799 5.09202L3.32698 4.63803ZM4.63803 3.32698L5.09202 4.21799L4.63803 3.32698ZM8 15C7.44772 15 7 15.4477 7 16C7 16.5523 7.44772 17 8 17V15ZM11 17C11.5523 17 12 16.5523 12 16C12 15.4477 11.5523 15 11 15V17ZM20.9082 15.9498L18.5581 20.0063L20.2886 21.0089L22.6388 16.9524L20.9082 15.9498ZM18.4231 14.2449L16.0729 18.3014L17.8035 19.304L20.1536 15.2475L18.4231 14.2449ZM15.3183 17.599L16.8851 14.8947L15.1545 13.8921L13.5878 16.5964L15.3183 17.599ZM21.88 13.4219C20.6821 12.6001 19.1281 13.0279 18.4231 14.2449L20.1536 15.2475C20.2371 15.1034 20.3492 15.0345 20.4457 15.0107C20.5401 14.9874 20.6447 14.9998 20.7486 15.0711L21.88 13.4219ZM15.9371 20.6824C15.0207 20.0537 14.6996 18.667 15.3183 17.599L13.5878 16.5964C12.4759 18.5156 12.9771 21.0771 14.8057 22.3316L15.9371 20.6824ZM18.5581 20.0063C17.9652 21.0296 16.7981 21.273 15.9371 20.6824L14.8057 22.3316C16.6898 23.6242 19.1509 22.9727 20.2886 21.0089L18.5581 20.0063ZM22.6388 16.9524C23.318 15.7801 23.0223 14.2056 21.88 13.4219L20.7486 15.0711C20.9787 15.229 21.0943 15.6286 20.9082 15.9498L22.6388 16.9524ZM4 16.2V7.8H2V16.2H4ZM7.8 4H11.9384V2H7.8V4ZM17.0616 8H17.6307V6H17.0616V8ZM20 10.3693V11H22V10.3693H20ZM11 20H7.8V22H11V20ZM17.6307 8C17.9971 8 18.1089 8.00118 18.1931 8.00934L18.3861 6.01868C18.1814 5.99882 17.9502 6 17.6307 6V8ZM22 10.3693C22 10.0498 22.0012 9.81861 21.9813 9.61386L19.9907 9.80693C19.9988 9.8911 20 10.0029 20 10.3693H22ZM18.1931 8.00934C19.145 8.10167 19.8983 8.85501 19.9907 9.80693L21.9813 9.61385C21.7967 7.71001 20.29 6.20333 18.3861 6.01868L18.1931 8.00934ZM13.5299 5.24254C13.935 6.86312 15.3911 8 17.0616 8V6C16.3088 6 15.6527 5.48771 15.4701 4.75746L13.5299 5.24254ZM11.9384 4C12.6912 4 13.3473 4.51229 13.5299 5.24254L15.4701 4.75746C15.065 3.13688 13.6089 2 11.9384 2V4ZM2 16.2C2 17.0236 1.99922 17.7014 2.04419 18.2518C2.09012 18.8139 2.18868 19.3306 2.43597 19.816L4.21799 18.908C4.1383 18.7516 4.07337 18.5274 4.03755 18.089C4.00078 17.6389 4 17.0566 4 16.2H2ZM7.8 20C6.94342 20 6.36113 19.9992 5.91104 19.9624C5.47262 19.9266 5.24842 19.8617 5.09202 19.782L4.18404 21.564C4.66937 21.8113 5.18608 21.9099 5.74817 21.9558C6.2986 22.0008 6.97642 22 7.8 22V20ZM2.43597 19.816C2.81947 20.5686 3.43139 21.1805 4.18404 21.564L5.09202 19.782C4.71569 19.5903 4.40973 19.2843 4.21799 18.908L2.43597 19.816ZM4 7.8C4 6.94342 4.00078 6.36113 4.03755 5.91104C4.07337 5.47262 4.1383 5.24842 4.21799 5.09202L2.43597 4.18404C2.18868 4.66937 2.09012 5.18608 2.04419 5.74817C1.99922 6.2986 2 6.97642 2 7.8H4ZM7.8 2C6.97642 2 6.2986 1.99922 5.74817 2.04419C5.18608 2.09012 4.66937 2.18868 4.18404 2.43597L5.09202 4.21799C5.24842 4.1383 5.47262 4.07337 5.91104 4.03755C6.36113 4.00078 6.94342 4 7.8 4V2ZM4.21799 5.09202C4.40973 4.71569 4.71569 4.40973 5.09202 4.21799L4.18404 2.43597C3.43139 2.81947 2.81947 3.43139 2.43597 4.18404L4.21799 5.09202ZM8 17H11V15H8V17Z" fill="#0B0D12"/>
</svg>
