<svg width="24" height="24" viewBox="0 0 24 24" fill="none" xmlns="http://www.w3.org/2000/svg">
<path d="M7 12H12C12.93 12 13.395 12 13.7765 11.8978C14.8117 11.6204 15.6204 10.8117 15.8978 9.77646C16 9.39496 16 8.92997 16 8C16 7.07003 16 6.60504 15.8978 6.22354C15.6204 5.18827 14.8117 4.37962 13.7765 4.10222C13.395 4 12.93 4 12 4H8.6C8.03995 4 7.75992 4 7.54601 4.10899C7.35785 4.20487 7.20487 4.35785 7.10899 4.54601C7 4.75992 7 5.03995 7 5.6V12ZM7 12H13C13.93 12 14.395 12 14.7765 12.1022C15.8117 12.3796 16.6204 13.1883 16.8978 14.2235C17 14.605 17 15.07 17 16C17 16.93 17 17.395 16.8978 17.7765C16.6204 18.8117 15.8117 19.6204 14.7765 19.8978C14.395 20 13.93 20 13 20H8.6C8.03995 20 7.75992 20 7.54601 19.891C7.35785 19.7951 7.20487 19.6422 7.10899 19.454C7 19.2401 7 18.9601 7 18.4V12Z" stroke="#0B0D12" stroke-width="2" stroke-linecap="round" stroke-linejoin="round"/>
</svg>
