<svg width="24" height="24" viewBox="0 0 24 24" fill="none" xmlns="http://www.w3.org/2000/svg">
<path d="M5.18404 20.564L5.63803 19.673L5.18404 20.564ZM3.43597 18.816L4.32698 18.362L3.43597 18.816ZM20.564 18.816L19.673 18.362L20.564 18.816ZM18.816 20.564L18.362 19.673L18.816 20.564ZM18.816 7.43597L18.362 8.32698L18.816 7.43597ZM20.564 9.18404L19.673 9.63803L20.564 9.18404ZM5.18404 7.43597L5.63803 8.32698L5.18404 7.43597ZM3.43597 9.18404L4.32698 9.63803L3.43597 9.18404ZM12.5 7C12.5 7.55228 12.9477 8 13.5 8C14.0523 8 14.5 7.55228 14.5 7H12.5ZM11.5 3C11.5 2.44772 11.0523 2 10.5 2C9.94772 2 9.5 2.44772 9.5 3H11.5ZM10 12C10 11.4477 9.55228 11 9 11C8.44772 11 8 11.4477 8 12H10ZM8 16C8 16.5523 8.44772 17 9 17C9.55228 17 10 16.5523 10 16H8ZM11 15C11.5523 15 12 14.5523 12 14C12 13.4477 11.5523 13 11 13V15ZM7 13C6.44772 13 6 13.4477 6 14C6 14.5523 6.44772 15 7 15V13ZM9.4 8H14.6V6H9.4V8ZM20 13.4V14.6H22V13.4H20ZM14.6 20H9.4V22H14.6V20ZM4 14.6V13.4H2V14.6H4ZM9.4 20C8.26339 20 7.47108 19.9992 6.85424 19.9488C6.24907 19.8994 5.90138 19.8072 5.63803 19.673L4.73005 21.455C5.32234 21.7568 5.96253 21.8826 6.69138 21.9422C7.40855 22.0008 8.2964 22 9.4 22V20ZM2 14.6C2 15.7036 1.99922 16.5914 2.05782 17.3086C2.11737 18.0375 2.24318 18.6777 2.54497 19.27L4.32698 18.362C4.19279 18.0986 4.10062 17.7509 4.05118 17.1458C4.00078 16.5289 4 15.7366 4 14.6H2ZM5.63803 19.673C5.07354 19.3854 4.6146 18.9265 4.32698 18.362L2.54497 19.27C3.02433 20.2108 3.78924 20.9757 4.73005 21.455L5.63803 19.673ZM20 14.6C20 15.7366 19.9992 16.5289 19.9488 17.1458C19.8994 17.7509 19.8072 18.0986 19.673 18.362L21.455 19.27C21.7568 18.6777 21.8826 18.0375 21.9422 17.3086C22.0008 16.5914 22 15.7036 22 14.6H20ZM14.6 22C15.7036 22 16.5914 22.0008 17.3086 21.9422C18.0375 21.8826 18.6777 21.7568 19.27 21.455L18.362 19.673C18.0986 19.8072 17.7509 19.8994 17.1458 19.9488C16.5289 19.9992 15.7366 20 14.6 20V22ZM19.673 18.362C19.3854 18.9265 18.9265 19.3854 18.362 19.673L19.27 21.455C20.2108 20.9757 20.9757 20.2108 21.455 19.27L19.673 18.362ZM14.6 8C15.7366 8 16.5289 8.00078 17.1458 8.05118C17.7509 8.10062 18.0986 8.19279 18.362 8.32698L19.27 6.54497C18.6777 6.24318 18.0375 6.11737 17.3086 6.05782C16.5914 5.99922 15.7036 6 14.6 6V8ZM22 13.4C22 12.2964 22.0008 11.4086 21.9422 10.6914C21.8826 9.96253 21.7568 9.32234 21.455 8.73005L19.673 9.63803C19.8072 9.90138 19.8994 10.2491 19.9488 10.8542C19.9992 11.4711 20 12.2634 20 13.4H22ZM18.362 8.32698C18.9265 8.6146 19.3854 9.07354 19.673 9.63803L21.455 8.73005C20.9757 7.78924 20.2108 7.02433 19.27 6.54497L18.362 8.32698ZM9.4 6C8.2964 6 7.40855 5.99922 6.69138 6.05782C5.96253 6.11737 5.32234 6.24318 4.73005 6.54497L5.63803 8.32698C5.90138 8.19279 6.24907 8.10062 6.85424 8.05118C7.47108 8.00078 8.26339 8 9.4 8V6ZM4 13.4C4 12.2634 4.00078 11.4711 4.05118 10.8542C4.10062 10.2491 4.19279 9.90138 4.32698 9.63803L2.54497 8.73005C2.24318 9.32234 2.11737 9.96253 2.05782 10.6914C1.99922 11.4086 2 12.2964 2 13.4H4ZM4.73005 6.54497C3.78924 7.02433 3.02433 7.78924 2.54497 8.73005L4.32698 9.63803C4.6146 9.07354 5.07354 8.6146 5.63803 8.32698L4.73005 6.54497ZM12.5 6V7H14.5V6H12.5ZM12 5.5C12.2761 5.5 12.5 5.72386 12.5 6H14.5C14.5 4.61929 13.3807 3.5 12 3.5V5.5ZM9.5 3C9.5 4.38071 10.6193 5.5 12 5.5V3.5C11.7239 3.5 11.5 3.27614 11.5 3H9.5ZM8 12V16H10V12H8ZM11 13H7V15H11V13ZM16 14V16C17.1046 16 18 15.1046 18 14H16ZM16 14H14C14 15.1046 14.8954 16 16 16V14ZM16 14V12C14.8954 12 14 12.8954 14 14H16ZM16 14H18C18 12.8954 17.1046 12 16 12V14Z" fill="#0B0D12"/>
</svg>
