<svg width="24" height="24" viewBox="0 0 24 24" fill="none" xmlns="http://www.w3.org/2000/svg">
<path d="M21 8.5C21 8.7933 20.9393 9.0866 20.8178 9.35746C20.5385 9.98039 19.6546 10.4356 17.8868 11.3462L13.6074 13.5502C13.1377 13.7922 12.9029 13.9131 12.6571 13.9635C12.4393 14.0081 12.216 14.0119 11.997 13.9747C11.7498 13.9327 11.5115 13.8198 11.035 13.594L6.37891 11.3877C4.45145 10.4744 3.48772 10.0178 3.19238 9.37983C2.93587 8.8258 2.93587 8.1742 3.19238 7.62017C3.48772 6.98224 4.45145 6.52558 6.37891 5.61226L11.035 3.40598C11.5115 3.18017 11.7498 3.06726 11.997 3.02531C12.216 2.98814 12.4393 2.99194 12.6571 3.03654C12.9029 3.08688 13.1377 3.20784 13.6074 3.44975L17.8868 5.65384C19.6546 6.56436 20.5385 7.01961 20.8178 7.64254C20.9393 7.9134 21 8.2067 21 8.5ZM21 8.5V16M18 11.2878V15C18 16.8638 18 17.7956 17.6955 18.5307C17.2895 19.5108 16.5108 20.2895 15.5307 20.6955C14.7956 21 13.8638 21 12 21C10.1362 21 9.20435 21 8.46927 20.6955C7.48915 20.2895 6.71046 19.5108 6.30448 18.5307C6 17.7956 6 16.8638 6 15V11.208" stroke="#0B0D12" stroke-width="2" stroke-linecap="round" stroke-linejoin="round"/>
</svg>
