<svg width="24" height="24" viewBox="0 0 24 24" fill="none" xmlns="http://www.w3.org/2000/svg">
<path d="M5.99997 8L9.99997 12L18.5 20.5C19.0523 21.0523 19.9477 21.0523 20.5 20.5C21.0523 19.9477 21.0523 19.0523 20.5 18.5L12 10M3.20708 10.7929L9.73289 4.26708C10.5442 3.45578 11.6445 3 12.7919 3H14.7322C15.7085 3 16.5 3.79146 16.5 4.76777C16.5 5.23661 16.3137 5.68625 15.9822 6.01777L7.20708 14.7929C6.81655 15.1834 6.18339 15.1834 5.79286 14.7929L3.20708 12.2071C2.81655 11.8166 2.81655 11.1834 3.20708 10.7929Z" stroke="#0B0D12" stroke-width="2" stroke-linecap="round" stroke-linejoin="round"/>
</svg>
