<svg width="24" height="24" viewBox="0 0 24 24" fill="none" xmlns="http://www.w3.org/2000/svg">
<path d="M12 19.5L12 21M4.5 12L3 12M12 4.5V3M19.5 12H21M16 19.419L16 21M4.58103 16H3M16 4.58103V3M19.419 16H21M8 19.419L8 21M4.58103 8H3M8 4.58103V3M19.419 8H21M10.9 19.5H13.1C15.3402 19.5 16.4603 19.5 17.316 19.064C18.0686 18.6805 18.6805 18.0686 19.064 17.316C19.5 16.4603 19.5 15.3402 19.5 13.1V10.9C19.5 8.65979 19.5 7.53968 19.064 6.68404C18.6805 5.93139 18.0686 5.31947 17.316 4.93597C16.4603 4.5 15.3402 4.5 13.1 4.5H10.9C8.65979 4.5 7.53968 4.5 6.68404 4.93597C5.93139 5.31947 5.31947 5.93139 4.93597 6.68404C4.5 7.53968 4.5 8.65979 4.5 10.9V13.1C4.5 15.3402 4.5 16.4603 4.93597 17.316C5.31947 18.0686 5.93139 18.6805 6.68404 19.064C7.53968 19.5 8.65979 19.5 10.9 19.5ZM9.6 16H14.4C14.9601 16 15.2401 16 15.454 15.891C15.6422 15.7951 15.7951 15.6422 15.891 15.454C16 15.2401 16 14.9601 16 14.4V9.6C16 9.03995 16 8.75992 15.891 8.54601C15.7951 8.35785 15.6422 8.20487 15.454 8.10899C15.2401 8 14.9601 8 14.4 8H9.6C9.03995 8 8.75992 8 8.54601 8.10899C8.35785 8.20487 8.20487 8.35785 8.10899 8.54601C8 8.75992 8 9.03995 8 9.6V14.4C8 14.9601 8 15.2401 8.10899 15.454C8.20487 15.6422 8.35785 15.7951 8.54601 15.891C8.75992 16 9.03995 16 9.6 16Z" stroke="#0B0D12" stroke-width="2" stroke-linecap="round" stroke-linejoin="round"/>
</svg>
