<svg width="24" height="24" viewBox="0 0 24 24" fill="none" xmlns="http://www.w3.org/2000/svg">
<path d="M5.27871 6.14893L8.63828 4.07512C9.85868 3.32178 10.4689 2.94512 11.1223 2.79816C11.7002 2.66819 12.2998 2.66819 12.8777 2.79816C13.5311 2.94512 14.1413 3.32178 15.3617 4.07511L18.7213 6.14892C19.5528 6.66221 19.9686 6.91886 20.2703 7.26817C20.5374 7.57733 20.7384 7.93777 20.8612 8.32739C21 8.76763 21 9.25622 21 10.2334V13.7665C21 14.7437 21 15.2323 20.8612 15.6726C20.7384 16.0622 20.5374 16.4226 20.2703 16.7318C19.9686 17.0811 19.5528 17.3377 18.7213 17.851L15.3617 19.9248C14.1413 20.6782 13.5311 21.0548 12.8777 21.2018C12.2998 21.3318 11.7002 21.3318 11.1223 21.2018C10.4689 21.0548 9.85868 20.6782 8.63828 19.9248L5.27871 17.851C4.44718 17.3377 4.03141 17.0811 3.72968 16.7318C3.46264 16.4226 3.26156 16.0622 3.13876 15.6726C3 15.2323 3 14.7437 3 13.7665V10.2334C3 9.25622 3 8.76763 3.13876 8.32739C3.26156 7.93777 3.46264 7.57733 3.72968 7.26817C4.03141 6.91886 4.44718 6.66221 5.27871 6.14893Z" stroke="#0B0D12" stroke-width="2" stroke-linecap="round" stroke-linejoin="round"/>
</svg>
