<svg width="24" height="24" viewBox="0 0 24 24" fill="none" xmlns="http://www.w3.org/2000/svg">
<path d="M13 12.5C13 11.9477 12.5523 11.5 12 11.5C11.4477 11.5 11 11.9477 11 12.5H13ZM11 13C11 13.5523 11.4477 14 12 14C12.5523 14 13 13.5523 13 13H11ZM11 21C11 21.5523 11.4477 22 12 22C12.5523 22 13 21.5523 13 21H11ZM4.93487 14.0867L4.14187 13.4775C4.13748 13.4832 4.13315 13.489 4.12889 13.4948L4.93487 14.0867ZM19.0651 14.0867L19.8711 13.4948C19.8668 13.489 19.8625 13.4832 19.8581 13.4775L19.0651 14.0867ZM2.05427 21.0988C2.10883 21.6484 2.59859 22.0497 3.14818 21.9951C3.69776 21.9405 4.09905 21.4508 4.04448 20.9012L2.05427 21.0988ZM19.9555 20.9012C19.901 21.4508 20.3022 21.9405 20.8518 21.9951C21.4014 22.0497 21.8912 21.6484 21.9457 21.0988L19.9555 20.9012ZM19.2034 3.50073C19.48 3.02266 19.3166 2.41094 18.8385 2.13439C18.3605 1.85785 17.7488 2.02121 17.4722 2.49927L19.2034 3.50073ZM6.52778 2.49927C6.25124 2.02121 5.63951 1.85785 5.16145 2.13439C4.68339 2.41094 4.52003 3.02267 4.79657 3.50073L6.52778 2.49927ZM10.3958 16.6792C9.88856 16.4607 9.30022 16.6946 9.08165 17.2018C8.86307 17.709 9.09705 18.2974 9.60424 18.516L10.3958 16.6792ZM14.3958 18.516C14.903 18.2974 15.1369 17.709 14.9184 17.2018C14.6998 16.6946 14.1114 16.4607 13.6042 16.6792L14.3958 18.516ZM11 12.5V13H13V12.5H11ZM13 21V18H11V21H13ZM6 8C6 10.0624 5.30753 11.9602 4.14187 13.4775L5.72788 14.6959C7.15257 12.8414 8 10.5182 8 8H6ZM4 20C4 18.0076 4.64625 16.169 5.74086 14.6786L4.12889 13.4948C2.79073 15.3168 2 17.5675 2 20H4ZM19.8581 13.4775C18.6925 11.9602 18 10.0624 18 8H16C16 10.5182 16.8474 12.8414 18.2721 14.6959L19.8581 13.4775ZM18.2591 14.6786C19.3537 16.169 20 18.0076 20 20H22C22 17.5675 21.2093 15.3168 19.8711 13.4948L18.2591 14.6786ZM4.04448 20.9012C4.01508 20.6051 4 20.3045 4 20H2C2 20.3705 2.01836 20.7371 2.05427 21.0988L4.04448 20.9012ZM20 20C20 20.3045 19.9849 20.6051 19.9555 20.9012L21.9457 21.0988C21.9816 20.7371 22 20.3705 22 20H20ZM18 8C18 6.35905 18.4383 4.82349 19.2034 3.50073L17.4722 2.49927C16.5357 4.11825 16 5.99808 16 8H18ZM4.79657 3.50073C5.56175 4.82349 6 6.35905 6 8H8C8 5.99808 7.46431 4.11825 6.52778 2.49927L4.79657 3.50073ZM12 17C11.4104 17 10.8644 16.8812 10.3958 16.6792L9.60424 18.516C10.3274 18.8276 11.1432 19 12 19V17ZM13.6042 16.6792C13.1356 16.8812 12.5896 17 12 17V19C12.8568 19 13.6726 18.8276 14.3958 18.516L13.6042 16.6792Z" fill="#0B0D12"/>
</svg>
