<svg width="24" height="24" viewBox="0 0 24 24" fill="none" xmlns="http://www.w3.org/2000/svg">
<path d="M3.00062 11.0963L2.0007 11.1089L3.00062 11.0963ZM8.93143 3.27458L9.19025 4.2405L8.93143 3.27458ZM17.9785 7.08302L18.8508 6.5939V6.5939L17.9785 7.08302ZM5.20643 12.5549L5.46525 13.5208L5.20643 12.5549ZM16.7975 9.44907L16.5387 8.48315L16.7975 9.44907ZM3.40623 12.6374L4.01001 11.8402H4.01001L3.40623 12.6374ZM18.3978 8.62037L19.3193 9.00883V9.00883L18.3978 8.62037ZM11.9678 10.7433C11.8249 10.2098 11.2765 9.89325 10.7431 10.0362C10.2096 10.1791 9.89301 10.7275 10.036 11.2609L11.9678 10.7433ZM7.13873 12.0374C7.28167 12.5709 7.83001 12.8875 8.36348 12.7445C8.89694 12.6016 9.21352 12.0532 9.07058 11.5198L7.13873 12.0374ZM12.9343 10.4845C13.0772 11.018 13.6256 11.3345 14.159 11.1916C14.6925 11.0487 15.0091 10.5003 14.8661 9.96686L12.9343 10.4845ZM3 21H2C2 21.5523 2.44772 22 3 22V21ZM21 21V22C21.5523 22 22 21.5523 22 21H21ZM12.6114 17.0091L12.5816 18.0086L12.6114 17.0091ZM4.00054 11.0838C3.96144 7.95917 6.03483 5.086 9.19025 4.2405L8.67261 2.30865C4.61264 3.39652 1.95042 7.09187 2.0007 11.1089L4.00054 11.0838ZM9.19025 4.2405C12.3457 3.39501 15.5779 4.84656 17.1063 7.57214L18.8508 6.5939C16.8858 3.08994 12.7326 1.22079 8.67261 2.30865L9.19025 4.2405ZM5.46525 13.5208L17.0564 10.415L16.5387 8.48315L4.94761 11.589L5.46525 13.5208ZM2.0007 11.1089C2.0054 11.4847 2.00634 11.9107 2.08241 12.273C2.17455 12.7117 2.38377 13.1174 2.80244 13.4345L4.01001 11.8402C4.00621 11.8373 4.02331 11.8507 4.03957 11.8781C4.05348 11.9015 4.04886 11.9055 4.03972 11.862C4.0295 11.8133 4.01918 11.7332 4.01228 11.5958C4.00537 11.4581 4.00321 11.2969 4.00054 11.0838L2.0007 11.1089ZM4.94761 11.589C4.44287 11.7242 4.18724 11.7892 4.00862 11.8056C3.93606 11.8122 3.92263 11.8051 3.94129 11.8093C3.96876 11.8156 3.99618 11.8297 4.01001 11.8402L2.80244 13.4345C3.25456 13.7769 3.74319 13.8383 4.19145 13.7972C4.58039 13.7615 5.02986 13.6375 5.46525 13.5208L4.94761 11.589ZM17.1063 7.57214C17.2106 7.75801 17.2893 7.89871 17.3522 8.0214C17.4149 8.14387 17.446 8.21837 17.4615 8.26561C17.4753 8.30788 17.4693 8.30673 17.4697 8.2795C17.4701 8.24766 17.4782 8.22752 17.4763 8.23192L19.3193 9.00883C19.5233 8.52487 19.5016 8.06895 19.3621 7.64292C19.2468 7.29115 19.0346 6.92174 18.8508 6.5939L17.1063 7.57214ZM17.0564 10.415C17.4918 10.2983 17.943 10.181 18.2977 10.0174C18.7065 9.82893 19.0989 9.53146 19.3193 9.00883L17.4763 8.23191C17.4831 8.21592 17.4997 8.18997 17.5204 8.17083C17.5344 8.15783 17.5264 8.1707 17.4602 8.20122C17.2973 8.27633 17.0435 8.3479 16.5387 8.48315L17.0564 10.415ZM9.07058 11.5198C8.52163 9.47104 8.34911 7.57538 8.48438 6.18374C8.5524 5.484 8.69307 4.96671 8.86077 4.63116C9.02917 4.29422 9.16563 4.2471 9.19025 4.2405L8.67261 2.30865C7.89704 2.51647 7.38711 3.10609 7.07177 3.73703C6.75574 4.36935 6.57533 5.15106 6.49376 5.99025C6.32986 7.67648 6.54415 9.81842 7.13873 12.0374L9.07058 11.5198ZM9.19025 4.2405C9.21491 4.2339 9.35672 4.20649 9.67112 4.4141C9.98421 4.62085 10.3648 4.9985 10.7736 5.57046C11.5868 6.70796 12.3853 8.43583 12.9343 10.4845L14.8661 9.96686C14.2715 7.7478 13.3859 5.78571 12.4007 4.40739C11.9103 3.72143 11.3631 3.1347 10.7732 2.74515C10.1846 2.35647 9.44816 2.10085 8.67261 2.30865L9.19025 4.2405ZM4 21C4 20.7731 4.0993 20.4816 4.43166 20.1324C4.76892 19.778 5.30422 19.4134 6.04218 19.0854C7.51558 18.4305 9.62114 18 12 18V16C9.40829 16 7.01386 16.4649 5.2299 17.2578C4.33918 17.6536 3.55645 18.1509 2.98287 18.7536C2.40438 19.3615 2 20.1223 2 21H4ZM21 20H3V22H21V20ZM12 18C12.1956 18 12.3895 18.0029 12.5816 18.0086L12.6412 16.0095C12.4292 16.0032 12.2154 16 12 16V18ZM12.5816 18.0086C14.8229 18.0755 16.7772 18.5239 18.1349 19.1666C19.5768 19.8492 20 20.5625 20 21H22C22 19.3197 20.5716 18.1074 18.9906 17.3589C17.3253 16.5706 15.0854 16.0824 12.6412 16.0095L12.5816 18.0086ZM10.036 11.2609L11.6455 17.2679L13.5774 16.7503L11.9678 10.7433L10.036 11.2609Z" fill="#0B0D12"/>
</svg>
