<svg width="24" height="24" viewBox="0 0 24 24" fill="none" xmlns="http://www.w3.org/2000/svg">
<path d="M3 12.1487V16.4965C3 17.8954 3 18.5949 3.22836 19.1466C3.53284 19.8823 4.11687 20.4667 4.85195 20.7715C5.40326 21 6.10218 21 7.5 21C7.96594 21 8.19891 21 8.38268 20.9238C8.62771 20.8222 8.82239 20.6274 8.92388 20.3822C9 20.1983 9 19.9651 9 19.4988V17.9977C9 17.0651 9 16.5988 9.15224 16.231C9.35523 15.7406 9.74458 15.3509 10.2346 15.1478C10.6022 14.9954 11.0681 14.9954 12 14.9954C12.9319 14.9954 13.3978 14.9954 13.7654 15.1478C14.2554 15.3509 14.6448 15.7406 14.8478 16.231C15 16.5988 15 17.0651 15 17.9977V19.4988C15 19.9651 15 20.1983 15.0761 20.3822C15.1776 20.6274 15.3723 20.8222 15.6173 20.9238C15.8011 21 16.0341 21 16.5 21C17.8978 21 18.5967 21 19.1481 20.7715C19.8831 20.4667 20.4672 19.8823 20.7716 19.1466C21 18.5949 21 17.8954 21 16.4965V12.1487C21 11.3546 21 10.9575 20.9043 10.5875C20.8195 10.2596 20.6799 9.94838 20.4913 9.66709C20.2785 9.34969 19.982 9.08591 19.3889 8.55834L15.1889 4.82214C14.0606 3.81839 13.4964 3.31652 12.8597 3.12593C12.2989 2.95802 11.7011 2.95802 11.1403 3.12593C10.5036 3.31652 9.93942 3.81839 8.81107 4.82214L4.61107 8.55834C4.018 9.08591 3.72147 9.34969 3.5087 9.66709C3.32013 9.94838 3.18049 10.2596 3.09569 10.5875C3 10.9575 3 11.3546 3 12.1487Z" stroke="#0B0D12" stroke-width="2" stroke-linecap="round" stroke-linejoin="round"/>
</svg>
