<svg width="24" height="24" viewBox="0 0 24 24" fill="none" xmlns="http://www.w3.org/2000/svg">
<path d="M9.4 21H14.6C16.8402 21 17.9603 21 18.816 20.564C19.5686 20.1805 20.1805 19.5686 20.564 18.816C21 17.9603 21 16.8402 21 14.6V12.1555C21 11.362 21 10.9653 20.9043 10.5956C20.8195 10.2679 20.6799 9.95693 20.4913 9.67586C20.2785 9.3587 19.982 9.09512 19.3889 8.56796L15.1889 4.83465C14.0606 3.83168 13.4964 3.33019 12.8597 3.13975C12.2989 2.97197 11.7011 2.97197 11.1403 3.13975C10.5036 3.33019 9.93942 3.83168 8.81107 4.83465L4.61107 8.56796C4.018 9.09512 3.72147 9.3587 3.5087 9.67586C3.32013 9.95693 3.18049 10.2679 3.09569 10.5956C3 10.9653 3 11.362 3 12.1555V14.6C3 16.8402 3 17.9603 3.43597 18.816C3.81947 19.5686 4.43139 20.1805 5.18404 20.564C6.03969 21 7.15979 21 9.4 21Z" stroke="#0B0D12" stroke-width="2" stroke-linecap="round" stroke-linejoin="round"/>
<path d="M14.6438 11.64C13.9255 10.8487 12.7806 10.7912 12.0003 11.4676C11.22 10.7912 10.0752 10.8487 9.35685 11.64C8.95251 12.0854 8.73558 12.5723 8.68091 13.0734C8.62661 13.5712 8.7347 14.0607 8.94376 14.5136C9.35861 15.4124 10.1871 16.2049 11.0768 16.7299L11.0793 16.7313C11.2655 16.8412 11.3934 16.9166 11.6588 16.9727C11.7571 16.9935 11.8898 17 12.0003 17C12.1109 17 12.2436 16.9935 12.3419 16.9727C12.6073 16.9166 12.7352 16.8412 12.9214 16.7313L12.9238 16.7299C13.8135 16.2049 14.6421 15.4124 15.0569 14.5136C15.266 14.0607 15.3741 13.5712 15.3198 13.0734C15.2651 12.5723 15.0482 12.0854 14.6438 11.64Z" stroke="#0B0D12" stroke-width="2" stroke-linecap="round" stroke-linejoin="round"/>
</svg>
