<svg width="24" height="24" viewBox="0 0 24 24" fill="none" xmlns="http://www.w3.org/2000/svg">
<path d="M8.81107 4.83465L8.14671 4.08724L8.81107 4.83465ZM4.61107 8.56796L5.27543 9.31537L4.61107 8.56796ZM15.1889 4.83465L14.5246 5.58206V5.58206L15.1889 4.83465ZM19.3889 8.56796L20.0533 7.82055L20.0533 7.82054L19.3889 8.56796ZM20.9043 10.5956L21.8724 10.345V10.345L20.9043 10.5956ZM20.4913 9.67586L19.6609 10.233L19.6609 10.233L20.4913 9.67586ZM3.09569 10.5956L4.06379 10.8461L3.09569 10.5956ZM3.5087 9.67586L4.33913 10.233L4.33913 10.233L3.5087 9.67586ZM11.1403 3.13975L11.4268 4.0978L11.1403 3.13975ZM12.8597 3.13975L13.1463 2.18169L12.8597 3.13975ZM5.18404 20.564L5.63803 19.673H5.63803L5.18404 20.564ZM3.43597 18.816L4.32698 18.362L4.32698 18.362L3.43597 18.816ZM18.816 20.564L18.362 19.673H18.362L18.816 20.564ZM20.564 18.816L19.673 18.362V18.362L20.564 18.816ZM18 8.22224C18 8.77452 18.4477 9.22224 19 9.22224C19.5523 9.22224 20 8.77452 20 8.22224H18ZM20 4.00001C20 3.44772 19.5523 3.00001 19 3.00001C18.4477 3.00001 18 3.44772 18 4.00001H20ZM14.8478 14.7654L13.9239 14.3827L14.8478 14.7654ZM14.8478 11.2346L13.9239 11.6173L14.8478 11.2346ZM14.6 20H9.4V22H14.6V20ZM4 14.6V12.1555H2V14.6H4ZM8.14671 4.08724L3.9467 7.82054L5.27543 9.31537L9.47543 5.58206L8.14671 4.08724ZM20 12.1555V14.6H22V12.1555H20ZM14.5246 5.58206L18.7246 9.31537L20.0533 7.82054L15.8533 4.08724L14.5246 5.58206ZM22 12.1555C22 11.4138 22.0074 10.8668 21.8724 10.345L19.9362 10.8461C19.9926 11.0638 20 11.3103 20 12.1555H22ZM18.7246 9.31537C19.3563 9.87694 19.5356 10.0462 19.6609 10.233L21.3217 9.11874C21.0215 8.67118 20.6077 8.3133 20.0533 7.82055L18.7246 9.31537ZM21.8724 10.345C21.7593 9.90812 21.5732 9.4935 21.3217 9.11874L19.6609 10.233C19.7866 10.4204 19.8797 10.6277 19.9362 10.8461L21.8724 10.345ZM4 12.1555C4 11.3103 4.00745 11.0638 4.06379 10.8461L2.12758 10.345C1.99255 10.8668 2 11.4138 2 12.1555H4ZM3.9467 7.82054C3.39235 8.3133 2.97852 8.67118 2.67826 9.11874L4.33913 10.233C4.46442 10.0462 4.64366 9.87694 5.27543 9.31537L3.9467 7.82054ZM4.06379 10.8461C4.12033 10.6277 4.21342 10.4204 4.33913 10.233L2.67827 9.11874C2.42684 9.49351 2.24065 9.90812 2.12758 10.345L4.06379 10.8461ZM9.47543 5.58206C10.0512 5.0703 10.441 4.72471 10.7647 4.479C11.0784 4.24082 11.2693 4.14494 11.4268 4.0978L10.8537 2.18169C10.3746 2.325 9.96499 2.57508 9.55541 2.886C9.15575 3.18939 8.69932 3.59603 8.14671 4.08724L9.47543 5.58206ZM15.8533 4.08724C15.3007 3.59603 14.8443 3.18939 14.4446 2.886C14.035 2.57508 13.6254 2.325 13.1463 2.18169L12.5732 4.0978C12.7307 4.14494 12.9216 4.24082 13.2353 4.479C13.559 4.72471 13.9488 5.0703 14.5246 5.58206L15.8533 4.08724ZM11.4268 4.0978C11.8008 3.98595 12.1992 3.98595 12.5732 4.0978L13.1463 2.18169C12.3985 1.95799 11.6015 1.95799 10.8537 2.18169L11.4268 4.0978ZM9.4 20C8.26339 20 7.47108 19.9992 6.85424 19.9488C6.24907 19.8994 5.90138 19.8072 5.63803 19.673L4.73005 21.455C5.32234 21.7568 5.96253 21.8826 6.69138 21.9422C7.40855 22.0008 8.2964 22 9.4 22V20ZM2 14.6C2 15.7036 1.99922 16.5915 2.05782 17.3086C2.11737 18.0375 2.24318 18.6777 2.54497 19.27L4.32698 18.362C4.19279 18.0986 4.10062 17.7509 4.05118 17.1458C4.00078 16.5289 4 15.7366 4 14.6H2ZM5.63803 19.673C5.07354 19.3854 4.6146 18.9265 4.32698 18.362L2.54497 19.27C3.02433 20.2108 3.78924 20.9757 4.73005 21.455L5.63803 19.673ZM14.6 22C15.7036 22 16.5914 22.0008 17.3086 21.9422C18.0375 21.8826 18.6777 21.7568 19.27 21.455L18.362 19.673C18.0986 19.8072 17.7509 19.8994 17.1458 19.9488C16.5289 19.9992 15.7366 20 14.6 20V22ZM20 14.6C20 15.7366 19.9992 16.5289 19.9488 17.1458C19.8994 17.7509 19.8072 18.0986 19.673 18.362L21.455 19.27C21.7568 18.6777 21.8826 18.0375 21.9422 17.3086C22.0008 16.5915 22 15.7036 22 14.6H20ZM19.27 21.455C20.2108 20.9757 20.9757 20.2108 21.455 19.27L19.673 18.362C19.3854 18.9265 18.9265 19.3854 18.362 19.673L19.27 21.455ZM20 8.22224V4.00001H18V8.22224H20ZM12 15C11.5204 15 11.2107 14.9995 10.9738 14.9833C10.7458 14.9677 10.6589 14.9411 10.6173 14.9239L9.85195 16.7716C10.1779 16.9066 10.5078 16.9562 10.8376 16.9787C11.1585 17.0005 11.5477 17 12 17V15ZM8 13C8 13.4523 7.99946 13.8415 8.02135 14.1624C8.04385 14.4922 8.09336 14.8221 8.22836 15.1481L10.0761 14.3827C10.0589 14.3411 10.0323 14.2542 10.0167 14.0262C10.0005 13.7893 10 13.4796 10 13H8ZM10.6173 14.9239C10.3723 14.8224 10.1776 14.6277 10.0761 14.3827L8.22836 15.1481C8.53284 15.8831 9.11687 16.4672 9.85195 16.7716L10.6173 14.9239ZM14 13C14 13.4796 13.9995 13.7893 13.9833 14.0262C13.9677 14.2542 13.9411 14.3411 13.9239 14.3827L15.7716 15.1481C15.9066 14.8221 15.9561 14.4922 15.9787 14.1624C16.0005 13.8415 16 13.4523 16 13H14ZM12 17C12.4523 17 12.8415 17.0005 13.1624 16.9787C13.4922 16.9562 13.8221 16.9066 14.1481 16.7716L13.3827 14.9239C13.3411 14.9411 13.2542 14.9677 13.0262 14.9833C12.7893 14.9995 12.4796 15 12 15V17ZM13.9239 14.3827C13.8224 14.6277 13.6277 14.8224 13.3827 14.9239L14.1481 16.7716C14.8831 16.4672 15.4672 15.8831 15.7716 15.1481L13.9239 14.3827ZM12 11C12.4796 11 12.7893 11.0005 13.0262 11.0167C13.2542 11.0323 13.3411 11.0589 13.3827 11.0761L14.1481 9.22837C13.8221 9.09336 13.4922 9.04386 13.1624 9.02135C12.8415 8.99946 12.4523 9.00001 12 9.00001V11ZM16 13C16 12.5477 16.0005 12.1585 15.9787 11.8376C15.9561 11.5078 15.9066 11.1779 15.7716 10.852L13.9239 11.6173C13.9411 11.6589 13.9677 11.7458 13.9833 11.9738C13.9995 12.2107 14 12.5204 14 13H16ZM13.3827 11.0761C13.6277 11.1776 13.8224 11.3723 13.9239 11.6173L15.7716 10.852C15.4672 10.1169 14.8831 9.53285 14.1481 9.22837L13.3827 11.0761ZM12 9.00001C11.5477 9.00001 11.1585 8.99946 10.8376 9.02135C10.5078 9.04386 10.1779 9.09336 9.85195 9.22837L10.6173 11.0761C10.6589 11.0589 10.7458 11.0323 10.9738 11.0167C11.2107 11.0005 11.5204 11 12 11V9.00001ZM10 13C10 12.5204 10.0005 12.2107 10.0167 11.9738C10.0323 11.7458 10.0589 11.6589 10.0761 11.6173L8.22836 10.852C8.09336 11.1779 8.04385 11.5078 8.02135 11.8376C7.99946 12.1585 8 12.5477 8 13H10ZM9.85195 9.22837C9.11687 9.53285 8.53284 10.1169 8.22836 10.852L10.0761 11.6173C10.1776 11.3723 10.3723 11.1776 10.6173 11.0761L9.85195 9.22837Z" fill="#0B0D12"/>
</svg>
