<svg width="24" height="24" viewBox="0 0 24 24" fill="none" xmlns="http://www.w3.org/2000/svg">
<path d="M8.81107 4.83465L8.14671 4.08724L8.81107 4.83465ZM4.61107 8.56796L5.27543 9.31537L4.61107 8.56796ZM15.1889 4.83465L14.5246 5.58206V5.58206L15.1889 4.83465ZM19.3889 8.56796L20.0533 7.82055L20.0533 7.82054L19.3889 8.56796ZM15.6173 20.9239L15.2346 21.8478H15.2346L15.6173 20.9239ZM15.0761 20.3827L16 20L16 20L15.0761 20.3827ZM13.7654 15.1523L14.148 14.2284L13.7654 15.1523ZM14.8478 16.2347L15.7716 15.852L14.8478 16.2347ZM9.15224 16.2347L8.22836 15.852L8.22836 15.852L9.15224 16.2347ZM10.2346 15.1523L9.85195 14.2284H9.85195L10.2346 15.1523ZM8.38268 20.9239L8.76537 21.8478H8.76537L8.38268 20.9239ZM8.92388 20.3827L8 20L8 20L8.92388 20.3827ZM20.9043 10.5956L21.8724 10.345V10.345L20.9043 10.5956ZM20.4913 9.67586L19.6609 10.233L19.6609 10.233L20.4913 9.67586ZM3.09569 10.5956L4.06379 10.8461L3.09569 10.5956ZM3.5087 9.67586L4.33913 10.233L4.33913 10.233L3.5087 9.67586ZM11.1403 3.13975L11.4268 4.0978L11.1403 3.13975ZM12.8597 3.13975L13.1463 2.18169L12.8597 3.13975ZM3.22836 19.1481L2.30448 19.5307L3.22836 19.1481ZM4.85195 20.7716L4.46927 21.6955L4.85195 20.7716ZM18 8.22224C18 8.77452 18.4477 9.22224 19 9.22224C19.5523 9.22224 20 8.77452 20 8.22224H18ZM20 4.00001C20 3.44772 19.5523 3.00001 19 3.00001C18.4477 3.00001 18 3.44772 18 4.00001H20ZM4 16.5V12.1555H2V16.5H4ZM8.14671 4.08724L3.9467 7.82054L5.27543 9.31537L9.47543 5.58206L8.14671 4.08724ZM20 12.1555V16.5H22V12.1555H20ZM14.5246 5.58206L18.7246 9.31537L20.0533 7.82054L15.8533 4.08724L14.5246 5.58206ZM10 19.5V18.0001H8V19.5H10ZM14 18.0001V19.5H16V18.0001H14ZM16.5 20C16.2533 20 16.1184 19.9995 16.0209 19.9928C15.9324 19.9868 15.9497 19.9792 16 20L15.2346 21.8478C15.4687 21.9447 15.6944 21.9752 15.8848 21.9882C16.0662 22.0005 16.2807 22 16.5 22V20ZM14 19.5C14 19.7193 13.9995 19.9338 14.0118 20.1152C14.0248 20.3056 14.0553 20.5313 14.1522 20.7654L16 20C16.0208 20.0503 16.0132 20.0676 16.0072 19.9791C16.0005 19.8816 16 19.7467 16 19.5H14ZM16 20L16 20L14.1522 20.7654C14.3552 21.2554 14.7446 21.6448 15.2346 21.8478L16 20ZM12 16.0001C12.4796 16.0001 12.7893 16.0006 13.0262 16.0168C13.2542 16.0323 13.3411 16.0589 13.3827 16.0762L14.148 14.2284C13.8221 14.0934 13.4922 14.0439 13.1624 14.0214C12.8415 13.9995 12.4523 14.0001 12 14.0001V16.0001ZM16 18.0001C16 17.5478 16.0005 17.1585 15.9787 16.8377C15.9561 16.5079 15.9066 16.1779 15.7716 15.852L13.9239 16.6174C13.9411 16.659 13.9677 16.7458 13.9833 16.9738C13.9995 17.2108 14 17.5204 14 18.0001H16ZM13.3827 16.0762C13.6277 16.1777 13.8224 16.3724 13.9239 16.6174L15.7716 15.852C15.4672 15.1169 14.8831 14.5329 14.148 14.2284L13.3827 16.0762ZM10 18.0001C10 17.5204 10.0005 17.2108 10.0167 16.9738C10.0323 16.7458 10.0589 16.659 10.0761 16.6174L8.22836 15.852C8.09336 16.1779 8.04385 16.5079 8.02135 16.8377C7.99946 17.1585 8 17.5478 8 18.0001H10ZM12 14.0001C11.5477 14.0001 11.1585 13.9995 10.8376 14.0214C10.5078 14.0439 10.1779 14.0934 9.85195 14.2284L10.6173 16.0762C10.6589 16.0589 10.7458 16.0323 10.9738 16.0168C11.2107 16.0006 11.5204 16.0001 12 16.0001V14.0001ZM10.0761 16.6174C10.1776 16.3724 10.3723 16.1777 10.6173 16.0762L9.85195 14.2284C9.11686 14.5329 8.53284 15.1169 8.22836 15.852L10.0761 16.6174ZM7.5 22C7.71929 22 7.93384 22.0005 8.11523 21.9882C8.3056 21.9752 8.53132 21.9447 8.76537 21.8478L8 20C8.05027 19.9792 8.06763 19.9868 7.97908 19.9928C7.88156 19.9995 7.74665 20 7.5 20V22ZM8 19.5C8 19.7467 7.99946 19.8816 7.9928 19.9791C7.98676 20.0676 7.97918 20.0503 8 20L9.84776 20.7654C9.9447 20.5313 9.97518 20.3056 9.98817 20.1152C10.0005 19.9338 10 19.7193 10 19.5H8ZM8.76537 21.8478C9.25542 21.6448 9.64477 21.2554 9.84776 20.7654L8 20L8 20L8.76537 21.8478ZM22 12.1555C22 11.4138 22.0074 10.8668 21.8724 10.345L19.9362 10.8461C19.9926 11.0638 20 11.3103 20 12.1555H22ZM18.7246 9.31537C19.3563 9.87694 19.5356 10.0462 19.6609 10.233L21.3217 9.11874C21.0215 8.67118 20.6077 8.3133 20.0533 7.82055L18.7246 9.31537ZM21.8724 10.345C21.7593 9.90812 21.5732 9.4935 21.3217 9.11874L19.6609 10.233C19.7866 10.4204 19.8797 10.6277 19.9362 10.8461L21.8724 10.345ZM4 12.1555C4 11.3103 4.00745 11.0638 4.06379 10.8461L2.12758 10.345C1.99255 10.8668 2 11.4138 2 12.1555H4ZM3.9467 7.82054C3.39235 8.3133 2.97852 8.67118 2.67826 9.11874L4.33913 10.233C4.46442 10.0462 4.64366 9.87694 5.27543 9.31537L3.9467 7.82054ZM4.06379 10.8461C4.12033 10.6277 4.21342 10.4204 4.33913 10.233L2.67827 9.11874C2.42684 9.49351 2.24065 9.90812 2.12758 10.345L4.06379 10.8461ZM9.47543 5.58206C10.0512 5.0703 10.441 4.72471 10.7647 4.479C11.0784 4.24082 11.2693 4.14494 11.4268 4.0978L10.8537 2.18169C10.3746 2.325 9.96499 2.57508 9.55541 2.886C9.15575 3.18939 8.69932 3.59603 8.14671 4.08724L9.47543 5.58206ZM15.8533 4.08724C15.3007 3.59603 14.8443 3.18939 14.4446 2.886C14.035 2.57508 13.6254 2.325 13.1463 2.18169L12.5732 4.0978C12.7307 4.14494 12.9216 4.24082 13.2353 4.479C13.559 4.72471 13.9488 5.0703 14.5246 5.58206L15.8533 4.08724ZM11.4268 4.0978C11.8008 3.98595 12.1992 3.98595 12.5732 4.0978L13.1463 2.18169C12.3985 1.95799 11.6015 1.95799 10.8537 2.18169L11.4268 4.0978ZM2 16.5C2 17.1852 1.99946 17.7492 2.03086 18.2095C2.06288 18.6788 2.13142 19.1129 2.30448 19.5307L4.15224 18.7654C4.09694 18.6319 4.0513 18.4409 4.02623 18.0734C4.00054 17.697 4 17.2126 4 16.5H2ZM7.5 20C6.78741 20 6.30304 19.9995 5.9266 19.9738C5.55915 19.9487 5.36813 19.9031 5.23463 19.8478L4.46927 21.6955C4.88708 21.8686 5.32118 21.9371 5.79046 21.9691C6.25077 22.0005 6.81477 22 7.5 22V20ZM2.30448 19.5307C2.71046 20.5109 3.48915 21.2896 4.46927 21.6955L5.23463 19.8478C4.74458 19.6448 4.35523 19.2554 4.15224 18.7654L2.30448 19.5307ZM20 16.5C20 17.2126 19.9995 17.697 19.9738 18.0734C19.9487 18.4409 19.9031 18.6319 19.8478 18.7654L21.6955 19.5307C21.8686 19.1129 21.9371 18.6788 21.9691 18.2095C22.0005 17.7492 22 17.1852 22 16.5H20ZM16.5 22C17.1852 22 17.7492 22.0005 18.2095 21.9691C18.6788 21.9371 19.1129 21.8686 19.5307 21.6955L18.7654 19.8478C18.6319 19.9031 18.4409 19.9487 18.0734 19.9738C17.697 19.9995 17.2126 20 16.5 20V22ZM19.8478 18.7654C19.6448 19.2554 19.2554 19.6448 18.7654 19.8478L19.5307 21.6955C20.5108 21.2896 21.2895 20.5109 21.6955 19.5307L19.8478 18.7654ZM20 8.22224V4.00001H18V8.22224H20Z" fill="#0B0D12"/>
</svg>
