<svg width="24" height="24" viewBox="0 0 24 24" fill="none" xmlns="http://www.w3.org/2000/svg">
<path d="M8.81107 4.83465L8.14671 4.08724L8.81107 4.83465ZM4.61107 8.56796L5.27543 9.31537L4.61107 8.56796ZM15.1889 4.83465L14.5246 5.58206V5.58206L15.1889 4.83465ZM19.3889 8.56796L20.0533 7.82055L20.0533 7.82054L19.3889 8.56796ZM20.9043 10.5956L21.8724 10.345V10.345L20.9043 10.5956ZM20.4913 9.67586L19.6609 10.233L19.6609 10.233L20.4913 9.67586ZM3.09569 10.5956L4.06379 10.8461L3.09569 10.5956ZM3.5087 9.67586L4.33913 10.233L4.33913 10.233L3.5087 9.67586ZM11.1403 3.13975L11.4268 4.0978L11.1403 3.13975ZM12.8597 3.13975L13.1463 2.18169L12.8597 3.13975ZM5.18404 20.564L5.63803 19.673H5.63803L5.18404 20.564ZM3.43597 18.816L4.32698 18.362L4.32698 18.362L3.43597 18.816ZM18.816 20.564L18.362 19.673H18.362L18.816 20.564ZM20.564 18.816L19.673 18.362V18.362L20.564 18.816ZM18 8.22224C18 8.77452 18.4477 9.22224 19 9.22224C19.5523 9.22224 20 8.77452 20 8.22224H18ZM20 4.00001C20 3.44772 19.5523 3.00001 19 3.00001C18.4477 3.00001 18 3.44772 18 4.00001H20ZM12.0003 11.4676L11.3453 12.2232C11.7212 12.549 12.2795 12.549 12.6553 12.2232L12.0003 11.4676ZM14.6438 11.64L13.9034 12.3121L14.6438 11.64ZM9.35685 11.64L10.0973 12.3121H10.0973L9.35685 11.64ZM8.68091 13.0734L7.68681 12.9649L8.68091 13.0734ZM8.94376 14.5136L8.03581 14.9327L8.94376 14.5136ZM11.0768 16.7299L11.5851 15.8686L11.585 15.8686L11.0768 16.7299ZM11.0793 16.7313L10.571 17.5925L10.5711 17.5925L11.0793 16.7313ZM11.6588 16.9727L11.8656 15.9943H11.8656L11.6588 16.9727ZM12.3419 16.9727L12.1351 15.9943H12.1351L12.3419 16.9727ZM12.9214 16.7313L12.4134 15.8699L12.4132 15.87L12.9214 16.7313ZM12.9238 16.7299L13.4318 17.5912L13.432 17.5911L12.9238 16.7299ZM15.0569 14.5136L15.9649 14.9327L15.0569 14.5136ZM15.3198 13.0734L14.3257 13.1818V13.1818L15.3198 13.0734ZM14.6 20H9.4V22H14.6V20ZM4 14.6V12.1555H2V14.6H4ZM8.14671 4.08724L3.9467 7.82054L5.27543 9.31537L9.47543 5.58206L8.14671 4.08724ZM20 12.1555V14.6H22V12.1555H20ZM14.5246 5.58206L18.7246 9.31537L20.0533 7.82054L15.8533 4.08724L14.5246 5.58206ZM22 12.1555C22 11.4138 22.0074 10.8668 21.8724 10.345L19.9362 10.8461C19.9926 11.0638 20 11.3103 20 12.1555H22ZM18.7246 9.31537C19.3563 9.87694 19.5356 10.0462 19.6609 10.233L21.3217 9.11874C21.0215 8.67118 20.6077 8.3133 20.0533 7.82055L18.7246 9.31537ZM21.8724 10.345C21.7593 9.90812 21.5732 9.4935 21.3217 9.11874L19.6609 10.233C19.7866 10.4204 19.8797 10.6277 19.9362 10.8461L21.8724 10.345ZM4 12.1555C4 11.3103 4.00745 11.0638 4.06379 10.8461L2.12758 10.345C1.99255 10.8668 2 11.4138 2 12.1555H4ZM3.9467 7.82054C3.39235 8.3133 2.97852 8.67118 2.67826 9.11874L4.33913 10.233C4.46442 10.0462 4.64366 9.87694 5.27543 9.31537L3.9467 7.82054ZM4.06379 10.8461C4.12033 10.6277 4.21342 10.4204 4.33913 10.233L2.67827 9.11874C2.42684 9.49351 2.24065 9.90812 2.12758 10.345L4.06379 10.8461ZM9.47543 5.58206C10.0512 5.0703 10.441 4.72471 10.7647 4.479C11.0784 4.24082 11.2693 4.14494 11.4268 4.0978L10.8537 2.18169C10.3746 2.325 9.96499 2.57508 9.55541 2.886C9.15575 3.18939 8.69932 3.59603 8.14671 4.08724L9.47543 5.58206ZM15.8533 4.08724C15.3007 3.59603 14.8443 3.18939 14.4446 2.886C14.035 2.57508 13.6254 2.325 13.1463 2.18169L12.5732 4.0978C12.7307 4.14494 12.9216 4.24082 13.2353 4.479C13.559 4.72471 13.9488 5.0703 14.5246 5.58206L15.8533 4.08724ZM11.4268 4.0978C11.8008 3.98595 12.1992 3.98595 12.5732 4.0978L13.1463 2.18169C12.3985 1.95799 11.6015 1.95799 10.8537 2.18169L11.4268 4.0978ZM9.4 20C8.26339 20 7.47108 19.9992 6.85424 19.9488C6.24907 19.8994 5.90138 19.8072 5.63803 19.673L4.73005 21.455C5.32234 21.7568 5.96253 21.8826 6.69138 21.9422C7.40855 22.0008 8.2964 22 9.4 22V20ZM2 14.6C2 15.7036 1.99922 16.5915 2.05782 17.3086C2.11737 18.0375 2.24318 18.6777 2.54497 19.27L4.32698 18.362C4.19279 18.0986 4.10062 17.7509 4.05118 17.1458C4.00078 16.5289 4 15.7366 4 14.6H2ZM5.63803 19.673C5.07354 19.3854 4.6146 18.9265 4.32698 18.362L2.54497 19.27C3.02433 20.2108 3.78924 20.9757 4.73005 21.455L5.63803 19.673ZM14.6 22C15.7036 22 16.5914 22.0008 17.3086 21.9422C18.0375 21.8826 18.6777 21.7568 19.27 21.455L18.362 19.673C18.0986 19.8072 17.7509 19.8994 17.1458 19.9488C16.5289 19.9992 15.7366 20 14.6 20V22ZM20 14.6C20 15.7366 19.9992 16.5289 19.9488 17.1458C19.8994 17.7509 19.8072 18.0986 19.673 18.362L21.455 19.27C21.7568 18.6777 21.8826 18.0375 21.9422 17.3086C22.0008 16.5915 22 15.7036 22 14.6H20ZM19.27 21.455C20.2108 20.9757 20.9757 20.2108 21.455 19.27L19.673 18.362C19.3854 18.9265 18.9265 19.3854 18.362 19.673L19.27 21.455ZM20 8.22224V4.00001H18V8.22224H20ZM12.6553 12.2232C13.0239 11.9037 13.5492 11.9219 13.9034 12.3121L15.3843 10.9679C14.3018 9.77537 12.5374 9.6786 11.3453 10.7119L12.6553 12.2232ZM10.0973 12.3121C10.4515 11.9219 10.9768 11.9037 11.3453 12.2232L12.6553 10.7119C11.4633 9.6786 9.69892 9.77537 8.61642 10.9679L10.0973 12.3121ZM9.67502 13.1818C9.70493 12.9076 9.82303 12.6143 10.0973 12.3121L8.61642 10.9679C8.082 11.5566 7.76623 12.2369 7.68681 12.9649L9.67502 13.1818ZM9.8517 14.0946C9.70164 13.7695 9.64438 13.4626 9.67502 13.1818L7.68681 12.9649C7.60884 13.6797 7.76775 14.352 8.03581 14.9327L9.8517 14.0946ZM11.585 15.8686C10.8159 15.4148 10.1582 14.7586 9.8517 14.0946L8.03581 14.9327C8.55902 16.0662 9.55834 16.995 10.5687 17.5911L11.585 15.8686ZM11.5875 15.8701L11.5851 15.8686L10.5686 17.5911L10.571 17.5925L11.5875 15.8701ZM11.8656 15.9943C11.7948 15.9794 11.7651 15.9671 11.7481 15.9596C11.7194 15.9467 11.6887 15.9298 11.5874 15.87L10.5711 17.5925C10.783 17.7176 11.024 17.8607 11.4521 17.9511L11.8656 15.9943ZM12.0003 16C11.9633 16 11.9268 15.9989 11.8961 15.9967C11.8811 15.9956 11.8702 15.9945 11.8633 15.9936C11.8558 15.9927 11.8572 15.9926 11.8656 15.9943L11.4521 17.9511C11.6547 17.9939 11.8714 18 12.0003 18V16ZM12.1351 15.9943C12.1435 15.9926 12.1448 15.9927 12.1374 15.9936C12.1305 15.9945 12.1196 15.9956 12.1046 15.9967C12.0739 15.9989 12.0374 16 12.0003 16V18C12.1292 18 12.346 17.9939 12.5486 17.9511L12.1351 15.9943ZM12.4132 15.87C12.312 15.9298 12.2813 15.9467 12.2525 15.9596C12.2356 15.9671 12.2058 15.9794 12.1351 15.9943L12.5486 17.9511C12.9766 17.8607 13.2176 17.7176 13.4296 17.5925L12.4132 15.87ZM12.4158 15.8685L12.4134 15.8699L13.4294 17.5926L13.4318 17.5912L12.4158 15.8685ZM14.149 14.0946C13.8425 14.7586 13.1848 15.4148 12.4157 15.8686L13.432 17.5911C14.4423 16.995 15.4417 16.0662 15.9649 14.9327L14.149 14.0946ZM14.3257 13.1818C14.3563 13.4626 14.299 13.7695 14.149 14.0946L15.9649 14.9327C16.2329 14.352 16.3918 13.6797 16.3139 12.9649L14.3257 13.1818ZM13.9034 12.3121C14.1777 12.6143 14.2957 12.9076 14.3257 13.1818L16.3139 12.9649C16.2344 12.2369 15.9187 11.5566 15.3843 10.9679L13.9034 12.3121Z" fill="#0B0D12"/>
</svg>
