<svg width="24" height="24" viewBox="0 0 24 24" fill="none" xmlns="http://www.w3.org/2000/svg">
<path d="M9.4 21H14.6C16.8402 21 17.9603 21 18.816 20.5637C19.5686 20.1799 20.1805 19.5675 20.564 18.8143C21 17.958 21 16.837 21 14.595V12.1487C21 11.3546 21 10.9575 20.9043 10.5875C20.8195 10.2596 20.6799 9.94838 20.4913 9.66709C20.2785 9.34969 19.982 9.08591 19.3889 8.55834L15.1889 4.82214C14.0606 3.81839 13.4964 3.31652 12.8597 3.12593C12.2989 2.95802 11.7011 2.95802 11.1403 3.12593C10.5036 3.31652 9.93942 3.81839 8.81107 4.82214L4.61107 8.55834C4.018 9.08591 3.72147 9.34969 3.5087 9.66709C3.32013 9.94838 3.18049 10.2596 3.09569 10.5875C3 10.9575 3 11.3546 3 12.1487V14.595C3 16.837 3 17.958 3.43597 18.8143C3.81947 19.5675 4.43139 20.1799 5.18404 20.5637C6.03969 21 7.15979 21 9.4 21Z" stroke="#0B0D12" stroke-width="2" stroke-linecap="round" stroke-linejoin="round"/>
</svg>
