<svg width="24" height="24" viewBox="0 0 24 24" fill="none" xmlns="http://www.w3.org/2000/svg">
<path d="M9.4 21H14.6C16.8402 21 17.9603 21 18.816 20.564C19.5686 20.1805 20.1805 19.5686 20.564 18.816C21 17.9603 21 16.8402 21 14.6V12.1555C21 11.362 21 10.9653 20.9043 10.5956C20.8195 10.2679 20.6799 9.95693 20.4913 9.67586C20.2785 9.3587 19.982 9.09512 19.3889 8.56796L15.1889 4.83465C14.0606 3.83168 13.4964 3.33019 12.8597 3.13975C12.2989 2.97197 11.7011 2.97197 11.1403 3.13975C10.5036 3.33019 9.93942 3.83168 8.81107 4.83465L4.61107 8.56796C4.018 9.09512 3.72147 9.3587 3.5087 9.67586C3.32013 9.95693 3.18049 10.2679 3.09569 10.5956C3 10.9653 3 11.362 3 12.1555V14.6C3 16.8402 3 17.9603 3.43597 18.816C3.81947 19.5686 4.43139 20.1805 5.18404 20.564C6.03969 21 7.15979 21 9.4 21Z" stroke="#0B0D12" stroke-width="2" stroke-linecap="round" stroke-linejoin="round"/>
<path d="M9.6 14.6H10.4V15.4C10.4 16.2837 11.1163 17 12 17C12.8837 17 13.6 16.2837 13.6 15.4V14.6H14.4C15.2837 14.6 16 13.8837 16 13C16 12.1163 15.2837 11.4 14.4 11.4H13.6V10.6C13.6 9.71635 12.8837 9.00001 12 9.00001C11.1163 9.00001 10.4 9.71635 10.4 10.6V11.4H9.6C8.71634 11.4 8 12.1163 8 13C8 13.8837 8.71634 14.6 9.6 14.6Z" stroke="#0B0D12" stroke-width="2" stroke-linecap="round" stroke-linejoin="round"/>
</svg>
