<svg width="24" height="24" viewBox="0 0 24 24" fill="none" xmlns="http://www.w3.org/2000/svg">
<path d="M3.1 18.69C3.55 17.86 4.27 16.72 5.21 15.94C6.86 14.57 8.73 16.7 10.8 16.7C12.87 16.7 14.1 12 16.25 12C17.88 12 19.74 13.3 21 14.39V16.2C21 17.88 21 18.72 20.67 19.36C20.38 19.92 19.92 20.38 19.36 20.67C18.72 21 17.88 21 16.2 21H7.8C6.12 21 5.28 21 4.64 20.67C4.08 20.38 3.62 19.92 3.33 19.36C3.23 19.16 3.16 18.95 3.11 18.69C3 18.12 3 17.36 3 16.2V7.8C3 6.12 3 5.28 3.33 4.64C3.62 4.08 4.08 3.62 4.64 3.33C5.28 3 6.12 3 7.8 3H16.19C17.87 3 18.71 3 19.35 3.33C19.91 3.62 20.37 4.08 20.66 4.64C20.99 5.28 20.99 6.12 20.99 7.8V14.39M11 9C11 10.1 10.1 11 9 11C7.9 11 7 10.1 7 9C7 7.9 7.9 7 9 7C10.1 7 11 7.9 11 9Z" stroke="#0B0D12" stroke-width="2" stroke-linecap="round" stroke-linejoin="round"/>
</svg>
