<svg width="24" height="24" viewBox="0 0 24 24" fill="none" xmlns="http://www.w3.org/2000/svg">
<path d="M4.63803 20.673L4.18404 21.564H4.18404L4.63803 20.673ZM3.32698 19.362L2.43597 19.816H2.43597L3.32698 19.362ZM19.362 20.673L18.908 19.782H18.908L19.362 20.673ZM20.673 19.362L21.564 19.816L20.673 19.362ZM14.8947 14.7908L15.8595 15.0538V15.0538L14.8947 14.7908ZM9.10533 14.7908L8.14053 15.0538V15.0538L9.10533 14.7908ZM8.90358 14.1944L8.11206 14.8056L8.11206 14.8056L8.90358 14.1944ZM8.69857 14.0378L8.31707 14.9622L8.31708 14.9622L8.69857 14.0378ZM15.0964 14.1944L14.3049 13.5833L14.3049 13.5833L15.0964 14.1944ZM15.3014 14.0378L15.6829 14.9622L15.6829 14.9622L15.3014 14.0378ZM20.7537 11.261L19.805 11.5773V11.5773L20.7537 11.261ZM19.094 6.2821L18.1454 6.59833V6.59833L19.094 6.2821ZM4.90596 6.28211L5.85465 6.59833L4.90596 6.28211ZM3.24632 11.261L2.29764 10.9448V10.9448L3.24632 11.261ZM3.07577 11.8169L2.10102 11.5935L2.10102 11.5935L3.07577 11.8169ZM3.01396 12.1977L4.00931 12.2941L3.01396 12.1977ZM7.06426 3.20816L6.69825 2.27755L6.69825 2.27755L7.06426 3.20816ZM5.86093 4.07547L5.09382 3.43396L5.09382 3.43396L5.86093 4.07547ZM18.1391 4.07547L17.372 4.71698L17.372 4.71698L18.1391 4.07547ZM16.9357 3.20816L16.5697 4.13877L16.5697 4.13878L16.9357 3.20816ZM20.986 12.1977L19.9907 12.2941L19.9907 12.2941L20.986 12.1977ZM20.9242 11.8169L19.9495 12.0402L19.9495 12.0402L20.9242 11.8169ZM10 6C9.44772 6 9 6.44772 9 7C9 7.55228 9.44772 8 10 8V6ZM14 8C14.5523 8 15 7.55228 15 7C15 6.44772 14.5523 6 14 6V8ZM8 9.5C7.44772 9.5 7 9.94772 7 10.5C7 11.0523 7.44772 11.5 8 11.5V9.5ZM16 11.5C16.5523 11.5 17 11.0523 17 10.5C17 9.94772 16.5523 9.5 16 9.5V11.5ZM16.2 20H7.8V22H16.2V20ZM20 14V16.2H22V14H20ZM4 16.2V14H2V16.2H4ZM7.8 20C6.94342 20 6.36113 19.9992 5.91104 19.9624C5.47262 19.9266 5.24842 19.8617 5.09202 19.782L4.18404 21.564C4.66937 21.8113 5.18608 21.9099 5.74817 21.9558C6.2986 22.0008 6.97642 22 7.8 22V20ZM2 16.2C2 17.0236 1.99922 17.7014 2.04419 18.2518C2.09012 18.8139 2.18868 19.3306 2.43597 19.816L4.21799 18.908C4.1383 18.7516 4.07337 18.5274 4.03755 18.089C4.00078 17.6389 4 17.0566 4 16.2H2ZM5.09202 19.782C4.7157 19.5903 4.40973 19.2843 4.21799 18.908L2.43597 19.816C2.81947 20.5686 3.43139 21.1805 4.18404 21.564L5.09202 19.782ZM16.2 22C17.0236 22 17.7014 22.0008 18.2518 21.9558C18.8139 21.9099 19.3306 21.8113 19.816 21.564L18.908 19.782C18.7516 19.8617 18.5274 19.9266 18.089 19.9624C17.6389 19.9992 17.0566 20 16.2 20V22ZM20 16.2C20 17.0566 19.9992 17.6389 19.9624 18.089C19.9266 18.5274 19.8617 18.7516 19.782 18.908L21.564 19.816C21.8113 19.3306 21.9099 18.8139 21.9558 18.2518C22.0008 17.7014 22 17.0236 22 16.2H20ZM19.816 21.564C20.5686 21.1805 21.1805 20.5686 21.564 19.816L19.782 18.908C19.5903 19.2843 19.2843 19.5903 18.908 19.782L19.816 21.564ZM13.9299 14.5279C13.6984 15.377 12.9207 16 12 16V18C13.8456 18 15.3969 16.7509 15.8595 15.0538L13.9299 14.5279ZM12 16C11.0793 16 10.3016 15.377 10.0701 14.5279L8.14053 15.0538C8.60311 16.7509 10.1544 18 12 18V16ZM15.8 15H21V13H15.8V15ZM8.2 13H3V15H8.2V13ZM10.0701 14.5279C10.0258 14.3652 9.98338 14.2086 9.94332 14.0847C9.91142 13.9861 9.84167 13.7731 9.69509 13.5833L8.11206 14.8056C8.06035 14.7386 8.0367 14.6853 8.03264 14.6761C8.02763 14.6648 8.03015 14.6686 8.04043 14.7004C8.05021 14.7306 8.06283 14.7729 8.08012 14.8343C8.0973 14.8952 8.11666 14.9662 8.14053 15.0538L10.0701 14.5279ZM8.2 15C8.26948 15 8.32268 15 8.36817 15.0005C8.41386 15.001 8.44084 15.002 8.45714 15.003C8.47388 15.004 8.46628 15.0043 8.44473 15.0004C8.42142 14.9963 8.37513 14.9861 8.31707 14.9622L9.08006 13.1134C8.87939 13.0306 8.69013 13.0133 8.57618 13.0065C8.46011 12.9996 8.3232 13 8.2 13V15ZM9.6951 13.5833C9.63736 13.5085 9.54936 13.4036 9.42053 13.3052C9.29169 13.2068 9.16738 13.1495 9.08006 13.1134L8.31708 14.9622C8.32736 14.9664 8.27328 14.9456 8.20642 14.8945C8.13956 14.8435 8.10526 14.7968 8.11206 14.8056L9.6951 13.5833ZM15.8595 15.0538C15.8833 14.9662 15.9027 14.8952 15.9199 14.8343C15.9372 14.7729 15.9498 14.7306 15.9596 14.7004C15.9699 14.6686 15.9724 14.6648 15.9674 14.6761C15.9633 14.6853 15.9396 14.7386 15.8879 14.8056L14.3049 13.5833C14.1583 13.7731 14.0886 13.9861 14.0567 14.0847C14.0166 14.2086 13.9742 14.3652 13.9299 14.5279L15.8595 15.0538ZM15.8 13C15.6768 13 15.5399 12.9996 15.4238 13.0065C15.3099 13.0133 15.1206 13.0306 14.9199 13.1134L15.6829 14.9622C15.6249 14.9861 15.5786 14.9963 15.5553 15.0004C15.5337 15.0043 15.5261 15.004 15.5429 15.003C15.5592 15.002 15.5861 15.001 15.6318 15.0005C15.6773 15 15.7305 15 15.8 15V13ZM15.8879 14.8056C15.8947 14.7968 15.8604 14.8435 15.7936 14.8945C15.7267 14.9456 15.6726 14.9664 15.6829 14.9622L14.9199 13.1134C14.8326 13.1495 14.7083 13.2068 14.5795 13.3052C14.4506 13.4036 14.3626 13.5085 14.3049 13.5833L15.8879 14.8056ZM22 14V12.7789H20V14H22ZM21.7024 10.9448L20.0427 5.96588L18.1454 6.59833L19.805 11.5773L21.7024 10.9448ZM14.5404 2H9.45964V4H14.5404V2ZM3.95728 5.96588L2.29764 10.9448L4.195 11.5773L5.85465 6.59833L3.95728 5.96588ZM2 12.7789V14H4V12.7789H2ZM2.29764 10.9448C2.21128 11.2039 2.14663 11.3945 2.10102 11.5935L4.05051 12.0402C4.06963 11.9567 4.0971 11.871 4.195 11.5773L2.29764 10.9448ZM4 12.7789C4 12.4693 4.00106 12.3793 4.00931 12.2941L2.01862 12.1013C1.99894 12.3046 2 12.5059 2 12.7789H4ZM2.10102 11.5935C2.06269 11.7609 2.03516 11.9305 2.01862 12.1013L4.00931 12.2941C4.01758 12.2087 4.03134 12.1238 4.05051 12.0402L2.10102 11.5935ZM9.45964 2C8.30089 2 7.44669 1.98319 6.69825 2.27755L7.43026 4.13878C7.74039 4.01681 8.13025 4 9.45964 4V2ZM5.85465 6.59833C6.27504 5.33716 6.41427 4.97262 6.62805 4.71698L5.09382 3.43396C4.57789 4.05091 4.32371 4.86659 3.95728 5.96588L5.85465 6.59833ZM6.69825 2.27755C6.07507 2.52264 5.5234 2.92027 5.09382 3.43396L6.62805 4.71698C6.84284 4.46013 7.11868 4.26132 7.43027 4.13878L6.69825 2.27755ZM20.0427 5.96588C19.6763 4.86659 19.4221 4.05091 18.9062 3.43396L17.372 4.71698C17.5857 4.97262 17.725 5.33716 18.1454 6.59833L20.0427 5.96588ZM14.5404 4C15.8698 4 16.2596 4.01681 16.5697 4.13877L17.3017 2.27755C16.5533 1.98319 15.6991 2 14.5404 2V4ZM18.9062 3.43396C18.4766 2.92027 17.9249 2.52264 17.3017 2.27755L16.5697 4.13878C16.8813 4.26132 17.1572 4.46013 17.372 4.71698L18.9062 3.43396ZM22 12.7789C22 12.5059 22.0011 12.3046 21.9814 12.1013L19.9907 12.2941C19.9989 12.3793 20 12.4693 20 12.7789H22ZM19.805 11.5773C19.9029 11.871 19.9304 11.9567 19.9495 12.0402L21.899 11.5935C21.8534 11.3945 21.7887 11.2039 21.7024 10.9448L19.805 11.5773ZM21.9814 12.1013C21.9648 11.9305 21.9373 11.7609 21.899 11.5935L19.9495 12.0402C19.9687 12.1238 19.9824 12.2086 19.9907 12.2941L21.9814 12.1013ZM10 8H14V6H10V8ZM8 11.5H16V9.5H8V11.5Z" fill="#0B0D12"/>
</svg>
