<svg width="24" height="24" viewBox="0 0 24 24" fill="none" xmlns="http://www.w3.org/2000/svg">
<path d="M21 14V16.2C21 17.8802 21 18.7202 20.673 19.362C20.3854 19.9265 19.9265 20.3854 19.362 20.673C18.7202 21 17.8802 21 16.2 21H7.8C6.11984 21 5.27976 21 4.63803 20.673C4.07354 20.3854 3.6146 19.9265 3.32698 19.362C3 18.7202 3 17.8802 3 16.2V14M21 14H15.8C15.5287 14 15.3931 14 15.3014 14.0378C15.2038 14.0781 15.161 14.1109 15.0964 14.1944C15.0358 14.2729 14.9888 14.4455 14.8947 14.7908C14.5477 16.064 13.3831 17 12 17C10.6169 17 9.45235 16.064 9.10533 14.7908C9.01122 14.4455 8.96416 14.2729 8.90358 14.1944C8.83905 14.1109 8.79617 14.0781 8.69857 14.0378C8.60694 14 8.47129 14 8.2 14H3M21 14V12.7789C21 12.4876 21 12.3419 20.986 12.1977C20.9736 12.0696 20.953 11.9423 20.9242 11.8169C20.8919 11.6756 20.8458 11.5374 20.7537 11.261L19.094 6.2821C18.7006 5.10188 18.5039 4.51176 18.1391 4.07547C17.8169 3.6902 17.4031 3.39198 16.9357 3.20816C16.4065 3 15.7844 3 14.5404 3H9.45964C8.21557 3 7.59354 3 7.06426 3.20816C6.59688 3.39198 6.18312 3.6902 5.86093 4.07547C5.49608 4.51176 5.29937 5.10188 4.90596 6.28211L3.24632 11.261C3.15419 11.5374 3.10813 11.6756 3.07577 11.8169C3.04702 11.9423 3.02637 12.0696 3.01396 12.1977C3 12.3419 3 12.4876 3 12.7789V14" stroke="#0B0D12" stroke-width="2" stroke-linecap="round" stroke-linejoin="round"/>
</svg>
