<svg width="24" height="24" viewBox="0 0 24 24" fill="none" xmlns="http://www.w3.org/2000/svg">
<path d="M8 17C7.44772 17 7 17.4477 7 18C7 18.5523 7.44772 19 8 19V17ZM14 19C14.5523 19 15 18.5523 15 18C15 17.4477 14.5523 17 14 17V19ZM8 9C7.44772 9 7 9.44772 7 10C7 10.5523 7.44772 11 8 11V9ZM14 11C14.5523 11 15 10.5523 15 10C15 9.44772 14.5523 9 14 9V11ZM4 13C3.44772 13 3 13.4477 3 14C3 14.5523 3.44772 15 4 15V13ZM14 15C14.5523 15 15 14.5523 15 14C15 13.4477 14.5523 13 14 13V15ZM4 5C3.44772 5 3 5.44772 3 6C3 6.55228 3.44772 7 4 7V5ZM14 7C14.5523 7 15 6.55228 15 6C15 5.44772 14.5523 5 14 5V7ZM18.7071 6.29289C18.3166 5.90237 17.6834 5.90237 17.2929 6.29289C16.9024 6.68342 16.9024 7.31658 17.2929 7.70711L18.7071 6.29289ZM21 10L21.7071 10.7071C22.0976 10.3166 22.0976 9.68342 21.7071 9.29289L21 10ZM17.2929 12.2929C16.9024 12.6834 16.9024 13.3166 17.2929 13.7071C17.6834 14.0976 18.3166 14.0976 18.7071 13.7071L17.2929 12.2929ZM8 19H14V17H8V19ZM8 11H14V9H8V11ZM4 15H14V13H4V15ZM4 7H14V5H4V7ZM17.2929 7.70711L20.2929 10.7071L21.7071 9.29289L18.7071 6.29289L17.2929 7.70711ZM20.2929 9.29289L17.2929 12.2929L18.7071 13.7071L21.7071 10.7071L20.2929 9.29289Z" fill="#0B0D12"/>
</svg>
