<svg width="24" height="24" viewBox="0 0 24 24" fill="none" xmlns="http://www.w3.org/2000/svg">
<path d="M17 19C17.5523 19 18 18.5523 18 18C18 17.4477 17.5523 17 17 17V19ZM11 17C10.4477 17 10 17.4477 10 18C10 18.5523 10.4477 19 11 19V17ZM17 11C17.5523 11 18 10.5523 18 10C18 9.44772 17.5523 9 17 9V11ZM11 9C10.4477 9 10 9.44772 10 10C10 10.5523 10.4477 11 11 11V9ZM21 15C21.5523 15 22 14.5523 22 14C22 13.4477 21.5523 13 21 13V15ZM11 13C10.4477 13 10 13.4477 10 14C10 14.5523 10.4477 15 11 15V13ZM21 7C21.5523 7 22 6.55228 22 6C22 5.44772 21.5523 5 21 5V7ZM11 5C10.4477 5 10 5.44772 10 6C10 6.55228 10.4477 7 11 7V5ZM7.70711 7.70711C8.09763 7.31658 8.09763 6.68342 7.70711 6.29289C7.31658 5.90237 6.68342 5.90237 6.29289 6.29289L7.70711 7.70711ZM4 10L3.29289 9.29289C2.90237 9.68342 2.90237 10.3166 3.29289 10.7071L4 10ZM6.29289 13.7071C6.68342 14.0976 7.31658 14.0976 7.70711 13.7071C8.09763 13.3166 8.09763 12.6834 7.70711 12.2929L6.29289 13.7071ZM17 17H11V19H17V17ZM17 9H11V11H17V9ZM21 13H11V15H21V13ZM21 5H11V7H21V5ZM6.29289 6.29289L3.29289 9.29289L4.70711 10.7071L7.70711 7.70711L6.29289 6.29289ZM3.29289 10.7071L6.29289 13.7071L7.70711 12.2929L4.70711 9.29289L3.29289 10.7071Z" fill="#0B0D12"/>
</svg>
