<svg width="24" height="24" viewBox="0 0 24 24" fill="none" xmlns="http://www.w3.org/2000/svg">
<path d="M15 7C16.1046 7 17 7.89543 17 9M21 9C21 12.3137 18.3137 15 15 15C14.3938 15 13.8087 14.9101 13.2571 14.7429L11 17H9V19H7V21H3.8C3.51997 21 3.37996 21 3.273 20.9455C3.17892 20.8976 3.10243 20.8211 3.0545 20.727C3 20.62 3 20.48 3 20.2V17.3314C3 17.2091 3 17.1479 3.01382 17.0904C3.02606 17.0394 3.04627 16.9906 3.07368 16.9459C3.1046 16.8954 3.14784 16.8522 3.23431 16.7657L9.25707 10.7429C9.08989 10.1913 9 9.60617 9 9C9 5.68629 11.6863 3 15 3C18.3137 3 21 5.68629 21 9Z" stroke="#0B0D12" stroke-width="2" stroke-linecap="round" stroke-linejoin="round"/>
</svg>
