<svg width="24" height="24" viewBox="0 0 24 24" fill="none" xmlns="http://www.w3.org/2000/svg">
<path d="M20 16V8.8C20 7.11984 20 6.27976 19.673 5.63803C19.3854 5.07354 18.9265 4.6146 18.362 4.32698C17.7202 4 16.8802 4 15.2 4H8.8C7.11984 4 6.27976 4 5.63803 4.32698C5.07354 4.6146 4.6146 5.07354 4.32698 5.63803C4 6.27976 4 7.11984 4 8.8V16M17.8 20H6.2C5.0799 20 4.51984 20 4.09202 19.782C3.71569 19.5903 3.40973 19.2843 3.21799 18.908C3 18.4802 3 17.9201 3 16.8C3 16.52 3 16.38 3.0545 16.273C3.10243 16.1789 3.17892 16.1024 3.273 16.0545C3.37996 16 3.51997 16 3.8 16H8.66863C8.79092 16 8.85207 16 8.90962 16.0138C8.96063 16.0261 9.00941 16.0463 9.05414 16.0737C9.1046 16.1046 9.14784 16.1478 9.23431 16.2343L9.76569 16.7657C9.85216 16.8522 9.8954 16.8954 9.94586 16.9263C9.99059 16.9537 10.0394 16.9739 10.0904 16.9862C10.1479 17 10.2091 17 10.3314 17H13.6686C13.7909 17 13.8521 17 13.9096 16.9862C13.9606 16.9739 14.0094 16.9537 14.0541 16.9263C14.1046 16.8954 14.1478 16.8522 14.2343 16.7657L14.7657 16.2343C14.8522 16.1478 14.8954 16.1046 14.9459 16.0737C14.9906 16.0463 15.0394 16.0261 15.0904 16.0138C15.1479 16 15.2091 16 15.3314 16H20.2C20.48 16 20.62 16 20.727 16.0545C20.8211 16.1024 20.8976 16.1789 20.9455 16.273C21 16.38 21 16.52 21 16.8C21 17.9201 21 18.4802 20.782 18.908C20.5903 19.2843 20.2843 19.5903 19.908 19.782C19.4802 20 18.9201 20 17.8 20Z" stroke="#0B0D12" stroke-width="2" stroke-linecap="round" stroke-linejoin="round"/>
</svg>
