<svg width="24" height="24" viewBox="0 0 24 24" fill="none" xmlns="http://www.w3.org/2000/svg">
<path d="M19.0005 13.3752V6.2C19.0005 5.0799 19.0005 4.51984 18.7825 4.09202C18.5907 3.71569 18.2848 3.40973 17.9084 3.21799C17.4806 3 16.9206 3 15.8005 3H8.20046C7.08036 3 6.5203 3 6.09248 3.21799C5.71616 3.40973 5.41019 3.71569 5.21845 4.09202C5.00046 4.51984 5.00046 5.0799 5.00046 6.2V13.3752M10.0005 17.5H14.0005M6.2497 13H17.7512C18.1979 13 18.4212 13 18.607 13.0781C18.771 13.1469 18.9136 13.2583 19.0202 13.4006C19.1409 13.5619 19.1951 13.7786 19.3034 14.2119L20.5034 19.0119C20.6729 19.6896 20.7576 20.0284 20.6751 20.2953C20.6028 20.5292 20.4472 20.7284 20.2379 20.8553C19.999 21 19.6497 21 18.9512 21H5.0497C4.35119 21 4.00193 21 3.76305 20.8553C3.55368 20.7284 3.39811 20.5292 3.32583 20.2953C3.24335 20.0284 3.32806 19.6896 3.49747 19.0119L4.69747 14.2119C4.80581 13.7786 4.85997 13.5619 4.98077 13.4006C5.08735 13.2583 5.22996 13.1469 5.3939 13.0781C5.5797 13 5.80303 13 6.2497 13Z" stroke="#0B0D12" stroke-width="2" stroke-linecap="round" stroke-linejoin="round"/>
</svg>
