<svg width="24" height="24" viewBox="0 0 24 24" fill="none" xmlns="http://www.w3.org/2000/svg">
<path d="M2.99999 12.5L10.8115 15.6246C11.2506 15.8002 11.4701 15.888 11.6968 15.9228C11.8977 15.9536 12.1022 15.9536 12.3032 15.9228C12.5299 15.888 12.7494 15.8002 13.1884 15.6246L21 12.5M2.99999 16.6001L10.8115 19.7247C11.2506 19.9003 11.4701 19.9881 11.6968 20.0229C11.8977 20.0537 12.1022 20.0537 12.3032 20.0229C12.5299 19.9881 12.7494 19.9003 13.1884 19.7247L21 16.6001M10.8115 4.47537L4.04264 7.18293C3.40496 7.438 3.08613 7.56553 2.99208 7.74791C2.91052 7.90606 2.91052 8.09391 2.99208 8.25207C3.08613 8.43444 3.40496 8.56198 4.04264 8.81705L10.8115 11.5246C11.2506 11.7002 11.4701 11.788 11.6968 11.8228C11.8977 11.8536 12.1022 11.8536 12.3032 11.8228C12.5299 11.788 12.7494 11.7002 13.1884 11.5246L19.9573 8.81705C20.595 8.56198 20.9139 8.43444 21.0079 8.25207C21.0895 8.09391 21.0895 7.90606 21.0079 7.74791C20.9139 7.56553 20.595 7.438 19.9573 7.18293L13.1884 4.47537C12.7494 4.29975 12.5299 4.21194 12.3032 4.17717C12.1022 4.14635 11.8977 4.14635 11.6968 4.17717C11.4701 4.21194 11.2506 4.29975 10.8115 4.47537Z" stroke="#0B0D12" stroke-width="2" stroke-linecap="round" stroke-linejoin="round"/>
</svg>
