<svg width="24" height="24" viewBox="0 0 24 24" fill="none" xmlns="http://www.w3.org/2000/svg">
<path d="M14.8284 9.17157L18.364 5.63604M18.364 5.63604C16.7353 4.00736 14.4853 3 12 3C9.51472 3 7.26472 4.00736 5.63604 5.63604M18.364 5.63604C19.9926 7.26472 21 9.51472 21 12C21 14.4853 19.9926 16.7353 18.364 18.364M14.8284 14.8284L18.364 18.364M18.364 18.364C16.7353 19.9926 14.4853 21 12 21C7.02944 21 3 16.9706 3 12C3 9.51472 4.00736 7.26472 5.63604 5.63604M5.63604 18.364L9.17157 14.8284M9.17157 14.8284C9.89543 15.5523 10.8954 16 12 16C14.2091 16 16 14.2091 16 12C16 9.79086 14.2091 8 12 8C9.79086 8 8 9.79086 8 12C8 13.1046 8.44772 14.1046 9.17157 14.8284ZM9.17157 9.17157L5.63604 5.63604" stroke="#0B0D12" stroke-width="2" stroke-linecap="round" stroke-linejoin="round"/>
</svg>
