<svg width="24" height="24" viewBox="0 0 24 24" fill="none" xmlns="http://www.w3.org/2000/svg">
<path d="M20.6955 18.5307L19.7716 18.1481L20.6955 18.5307ZM20.6955 11.4693L19.7716 11.8519L20.6955 11.4693ZM7 9C7 9.55228 7.44772 10 8 10C8.55228 10 9 9.55228 9 9H7ZM11 17C11 17.5523 11.4477 18 12 18C12.5523 18 13 17.5523 13 17H11ZM14.1213 4.87868C14.5118 5.2692 15.145 5.2692 15.5355 4.87868C15.9261 4.48816 15.9261 3.85499 15.5355 3.46447L14.1213 4.87868ZM9 10H15V8H9V10ZM15 20H9V22H15V20ZM9 20C8.05443 20 7.39534 19.9995 6.87945 19.9643C6.37254 19.9297 6.07733 19.865 5.85195 19.7716L5.08658 21.6194C5.59628 21.8305 6.13456 21.9181 6.74331 21.9596C7.34307 22.0005 8.0818 22 9 22V20ZM2 15C2 15.9182 1.99946 16.6569 2.04038 17.2567C2.08191 17.8654 2.16948 18.4037 2.3806 18.9134L4.22836 18.1481C4.135 17.9227 4.07033 17.6275 4.03574 17.1206C4.00054 16.6047 4 15.9456 4 15H2ZM5.85195 19.7716C5.11687 19.4672 4.53284 18.8831 4.22836 18.1481L2.3806 18.9134C2.88807 20.1386 3.86144 21.1119 5.08658 21.6194L5.85195 19.7716ZM20 15C20 15.9456 19.9995 16.6047 19.9643 17.1206C19.9297 17.6275 19.865 17.9227 19.7716 18.1481L21.6194 18.9134C21.8305 18.4037 21.9181 17.8654 21.9596 17.2567C22.0005 16.6569 22 15.9182 22 15H20ZM15 22C15.9182 22 16.6569 22.0005 17.2567 21.9596C17.8654 21.9181 18.4037 21.8305 18.9134 21.6194L18.1481 19.7716C17.9227 19.865 17.6275 19.9297 17.1206 19.9643C16.6047 19.9995 15.9456 20 15 20V22ZM19.7716 18.1481C19.4672 18.8831 18.8831 19.4672 18.1481 19.7716L18.9134 21.6194C20.1386 21.1119 21.1119 20.1386 21.6194 18.9134L19.7716 18.1481ZM15 10C15.9456 10 16.6047 10.0005 17.1206 10.0357C17.6275 10.0703 17.9227 10.135 18.1481 10.2284L18.9134 8.3806C18.4037 8.16948 17.8654 8.08191 17.2567 8.04038C16.6569 7.99946 15.9182 8 15 8V10ZM22 15C22 14.0818 22.0005 13.3431 21.9596 12.7433C21.9181 12.1346 21.8305 11.5963 21.6194 11.0866L19.7716 11.8519C19.865 12.0773 19.9297 12.3725 19.9643 12.8794C19.9995 13.3953 20 14.0544 20 15H22ZM18.1481 10.2284C18.8831 10.5328 19.4672 11.1169 19.7716 11.8519L21.6194 11.0866C21.1119 9.86144 20.1386 8.88807 18.9134 8.3806L18.1481 10.2284ZM9 8C8.0818 8 7.34307 7.99946 6.74331 8.04038C6.13456 8.08191 5.59628 8.16948 5.08658 8.3806L5.85195 10.2284C6.07733 10.135 6.37254 10.0703 6.87945 10.0357C7.39534 10.0005 8.05443 10 9 10V8ZM4 15C4 14.0544 4.00054 13.3953 4.03574 12.8794C4.07033 12.3725 4.135 12.0773 4.22836 11.8519L2.3806 11.0866C2.16948 11.5963 2.08191 12.1346 2.04038 12.7433C1.99946 13.3431 2 14.0818 2 15H4ZM5.08658 8.3806C3.86144 8.88807 2.88807 9.86144 2.3806 11.0866L4.22836 11.8519C4.53284 11.1169 5.11687 10.5328 5.85195 10.2284L5.08658 8.3806ZM9 7C9 5.34315 10.3431 4 12 4V2C9.23858 2 7 4.23858 7 7H9ZM7 7V9H9V7H7ZM12 14V16C13.1046 16 14 15.1046 14 14H12ZM12 14H10C10 15.1046 10.8954 16 12 16V14ZM12 14V12C10.8954 12 10 12.8954 10 14H12ZM12 14H14C14 12.8954 13.1046 12 12 12V14ZM11 15V17H13V15H11ZM12 4C12.8287 4 13.5773 4.33469 14.1213 4.87868L15.5355 3.46447C14.6318 2.56074 13.3804 2 12 2V4Z" fill="#0B0D12"/>
</svg>
