<svg width="24" height="24" viewBox="0 0 24 24" fill="none" xmlns="http://www.w3.org/2000/svg">
<path d="M11.2361 3V2V3ZM13.6 3V4V3ZM20 9.4H21H20ZM20 14.6H19H20ZM13.6 21V22V21ZM11.2361 21V20V21ZM19.564 18.816L18.673 18.362L19.564 18.816ZM17.816 20.564L17.362 19.673L17.816 20.564ZM17.816 3.43597L17.362 4.32698H17.362L17.816 3.43597ZM19.564 5.18404L18.673 5.63803V5.63803L19.564 5.18404ZM10.5127 3.01949L10.6265 4.01299H10.6265L10.5127 3.01949ZM7.10557 4.55279C6.85858 5.04676 7.05881 5.64744 7.55279 5.89443C8.04676 6.14142 8.64744 5.94119 8.89443 5.44721L7.10557 4.55279ZM8.34092 4.36173L9.17865 4.90782L9.17865 4.90782L8.34092 4.36173ZM10.5127 20.9805L10.6265 19.987H10.6265L10.5127 20.9805ZM8.89443 18.5528C8.64744 18.0588 8.04676 17.8586 7.55279 18.1056C7.05881 18.3526 6.85858 18.9532 7.10557 19.4472L8.89443 18.5528ZM8.34092 19.6383L7.5032 20.1844H7.5032L8.34092 19.6383ZM14.5 12L15.2071 12.7071C15.5976 12.3166 15.5976 11.6834 15.2071 11.2929L14.5 12ZM4 11C3.44772 11 3 11.4477 3 12C3 12.5523 3.44772 13 4 13V11ZM12.2071 8.29289C11.8166 7.90237 11.1834 7.90237 10.7929 8.29289C10.4024 8.68342 10.4024 9.31658 10.7929 9.70711L12.2071 8.29289ZM10.7929 14.2929C10.4024 14.6834 10.4024 15.3166 10.7929 15.7071C11.1834 16.0976 11.8166 16.0976 12.2071 15.7071L10.7929 14.2929ZM11.2361 4L13.6 4V2L11.2361 2V4ZM19 9.4V14.6H21V9.4H19ZM13.6 20H11.2361V22H13.6V20ZM19 14.6C19 15.7366 18.9992 16.5289 18.9488 17.1458C18.8994 17.7509 18.8072 18.0986 18.673 18.362L20.455 19.27C20.7568 18.6777 20.8826 18.0375 20.9422 17.3086C21.0008 16.5914 21 15.7036 21 14.6H19ZM13.6 22C14.7036 22 15.5914 22.0008 16.3086 21.9422C17.0375 21.8826 17.6777 21.7568 18.27 21.455L17.362 19.673C17.0986 19.8072 16.7509 19.8994 16.1458 19.9488C15.5289 19.9992 14.7366 20 13.6 20V22ZM18.673 18.362C18.3854 18.9265 17.9265 19.3854 17.362 19.673L18.27 21.455C19.2108 20.9757 19.9757 20.2108 20.455 19.27L18.673 18.362ZM13.6 4C14.7366 4 15.5289 4.00078 16.1458 4.05118C16.7509 4.10062 17.0986 4.19279 17.362 4.32698L18.27 2.54497C17.6777 2.24318 17.0375 2.11737 16.3086 2.05782C15.5914 1.99922 14.7036 2 13.6 2V4ZM21 9.4C21 8.2964 21.0008 7.40855 20.9422 6.69138C20.8826 5.96253 20.7568 5.32234 20.455 4.73005L18.673 5.63803C18.8072 5.90138 18.8994 6.24907 18.9488 6.85424C18.9992 7.47108 19 8.26339 19 9.4H21ZM17.362 4.32698C17.9265 4.6146 18.3854 5.07354 18.673 5.63803L20.455 4.73005C19.9757 3.78924 19.2108 3.02433 18.27 2.54497L17.362 4.32698ZM11.2361 2C10.8915 2 10.6393 1.99845 10.3989 2.02598L10.6265 4.01299C10.7264 4.00155 10.843 4 11.2361 4V2ZM8.89443 5.44721C9.0702 5.09567 9.12375 4.99204 9.17865 4.90782L7.5032 3.81563C7.37107 4.01833 7.25966 4.24461 7.10557 4.55279L8.89443 5.44721ZM10.3989 2.02598C9.21533 2.16155 8.15377 2.81763 7.5032 3.81564L9.17865 4.90782C9.50394 4.40882 10.0347 4.08078 10.6265 4.01299L10.3989 2.02598ZM11.2361 20C10.843 20 10.7264 19.9984 10.6265 19.987L10.3989 21.974C10.6393 22.0016 10.8915 22 11.2361 22V20ZM7.10557 19.4472C7.25967 19.7554 7.37106 19.9817 7.5032 20.1844L9.17865 19.0922C9.12375 19.008 9.0702 18.9043 8.89443 18.5528L7.10557 19.4472ZM10.6265 19.987C10.0347 19.9192 9.50394 19.5912 9.17865 19.0922L7.5032 20.1844C8.15377 21.1824 9.21533 21.8384 10.3989 21.974L10.6265 19.987ZM14.5 11H4V13H14.5V11ZM15.2071 11.2929L12.2071 8.29289L10.7929 9.70711L13.7929 12.7071L15.2071 11.2929ZM13.7929 11.2929L10.7929 14.2929L12.2071 15.7071L15.2071 12.7071L13.7929 11.2929Z" fill="#0B0D12"/>
</svg>
