<svg width="24" height="24" viewBox="0 0 24 24" fill="none" xmlns="http://www.w3.org/2000/svg">
<path d="M12.7639 3V2V3ZM10.4 3V4V3ZM4 9.4H3H4ZM4 14.6H5H4ZM10.4 21V22V21ZM12.7639 21V20V21ZM4.43597 18.816L5.32698 18.362L4.43597 18.816ZM6.18404 20.564L6.63803 19.673L6.18404 20.564ZM6.18404 3.43597L6.63803 4.32698H6.63803L6.18404 3.43597ZM4.43597 5.18404L5.32698 5.63803L5.32698 5.63803L4.43597 5.18404ZM13.4873 3.01949L13.3735 4.01299L13.4873 3.01949ZM15.1056 5.44721C15.3526 5.94119 15.9532 6.14142 16.4472 5.89443C16.9412 5.64744 17.1414 5.04676 16.8944 4.55279L15.1056 5.44721ZM15.6591 4.36173L14.8214 4.90782L14.8214 4.90782L15.6591 4.36173ZM13.4873 20.9805L13.3735 19.987H13.3735L13.4873 20.9805ZM16.8944 19.4472C17.1414 18.9532 16.9412 18.3526 16.4472 18.1056C15.9532 17.8586 15.3526 18.0588 15.1056 18.5528L16.8944 19.4472ZM15.6591 19.6383L16.4968 20.1844L15.6591 19.6383ZM20 12L20.7071 12.7071C21.0976 12.3166 21.0976 11.6834 20.7071 11.2929L20 12ZM9.5 11C8.94771 11 8.5 11.4477 8.5 12C8.5 12.5523 8.94771 13 9.5 13V11ZM17.7071 8.29289C17.3166 7.90237 16.6834 7.90237 16.2929 8.29289C15.9024 8.68342 15.9024 9.31658 16.2929 9.70711L17.7071 8.29289ZM16.2929 14.2929C15.9024 14.6834 15.9024 15.3166 16.2929 15.7071C16.6834 16.0976 17.3166 16.0976 17.7071 15.7071L16.2929 14.2929ZM12.7639 2L10.4 2V4L12.7639 4V2ZM3 9.4L3 14.6H5L5 9.4H3ZM10.4 22H12.7639V20H10.4V22ZM3 14.6C3 15.7036 2.99922 16.5914 3.05782 17.3086C3.11737 18.0375 3.24318 18.6777 3.54497 19.27L5.32698 18.362C5.19279 18.0986 5.10062 17.7509 5.05118 17.1458C5.00078 16.5289 5 15.7366 5 14.6H3ZM10.4 20C9.26339 20 8.47108 19.9992 7.85424 19.9488C7.24907 19.8994 6.90138 19.8072 6.63803 19.673L5.73005 21.455C6.32234 21.7568 6.96253 21.8826 7.69138 21.9422C8.40855 22.0008 9.2964 22 10.4 22V20ZM3.54497 19.27C4.02433 20.2108 4.78924 20.9757 5.73005 21.455L6.63803 19.673C6.07354 19.3854 5.6146 18.9265 5.32698 18.362L3.54497 19.27ZM10.4 2C9.2964 2 8.40855 1.99922 7.69138 2.05782C6.96253 2.11737 6.32234 2.24318 5.73005 2.54497L6.63803 4.32698C6.90138 4.19279 7.24907 4.10062 7.85424 4.05118C8.47108 4.00078 9.26339 4 10.4 4V2ZM5 9.4C5 8.26339 5.00078 7.47108 5.05118 6.85424C5.10062 6.24907 5.19279 5.90138 5.32698 5.63803L3.54497 4.73005C3.24318 5.32234 3.11737 5.96253 3.05782 6.69138C2.99922 7.40855 3 8.2964 3 9.4H5ZM5.73005 2.54497C4.78924 3.02433 4.02433 3.78924 3.54497 4.73005L5.32698 5.63803C5.6146 5.07354 6.07354 4.6146 6.63803 4.32698L5.73005 2.54497ZM12.7639 4C13.157 4 13.2736 4.00155 13.3735 4.01299L13.6011 2.02598C13.3607 1.99845 13.1085 2 12.7639 2V4ZM16.8944 4.55279C16.7403 4.24461 16.6289 4.01833 16.4968 3.81563L14.8214 4.90782C14.8763 4.99204 14.9298 5.09567 15.1056 5.44721L16.8944 4.55279ZM13.3735 4.01299C13.9653 4.08078 14.4961 4.40882 14.8214 4.90782L16.4968 3.81564C15.8462 2.81763 14.7847 2.16155 13.6011 2.02598L13.3735 4.01299ZM12.7639 22C13.1085 22 13.3607 22.0016 13.6011 21.974L13.3735 19.987C13.2736 19.9984 13.157 20 12.7639 20V22ZM15.1056 18.5528C14.9298 18.9043 14.8763 19.008 14.8214 19.0922L16.4968 20.1844C16.6289 19.9817 16.7403 19.7554 16.8944 19.4472L15.1056 18.5528ZM13.6011 21.974C14.7847 21.8384 15.8462 21.1824 16.4968 20.1844L14.8214 19.0922C14.4961 19.5912 13.9653 19.9192 13.3735 19.987L13.6011 21.974ZM20 11H9.5V13H20V11ZM20.7071 11.2929L17.7071 8.29289L16.2929 9.70711L19.2929 12.7071L20.7071 11.2929ZM19.2929 11.2929L16.2929 14.2929L17.7071 15.7071L20.7071 12.7071L19.2929 11.2929Z" fill="#0B0D12"/>
</svg>
