<svg width="24" height="24" viewBox="0 0 24 24" fill="none" xmlns="http://www.w3.org/2000/svg">
<path d="M8 21V6.2C8 5.0799 8 4.51984 8.21799 4.09202C8.40973 3.71569 8.71569 3.40973 9.09202 3.21799C9.51984 3 10.0799 3 11.2 3H12.8C13.9201 3 14.4802 3 14.908 3.21799C15.2843 3.40973 15.5903 3.71569 15.782 4.09202C16 4.51984 16 5.0799 16 6.2V13M16 17V21M9.4 21H14.6C16.8402 21 17.9603 21 18.816 20.564C19.5686 20.1805 20.1805 19.5686 20.564 18.816C21 17.9603 21 16.8402 21 14.6V13.4C21 11.1598 21 10.0397 20.564 9.18404C20.1805 8.43139 19.5686 7.81947 18.816 7.43597C17.9603 7 16.8402 7 14.6 7H9.4C7.15979 7 6.03968 7 5.18404 7.43597C4.43139 7.81947 3.81947 8.43139 3.43597 9.18404C3 10.0397 3 11.1598 3 13.4V14.6C3 16.8402 3 17.9603 3.43597 18.816C3.81947 19.5686 4.43139 20.1805 5.18404 20.564C6.03968 21 7.15979 21 9.4 21ZM13.6 17H16.4C16.9601 17 17.2401 17 17.454 16.891C17.6422 16.7951 17.7951 16.6422 17.891 16.454C18 16.2401 18 15.9601 18 15.4V14.6C18 14.0399 18 13.7599 17.891 13.546C17.7951 13.3578 17.6422 13.2049 17.454 13.109C17.2401 13 16.9601 13 16.4 13H13.6C13.0399 13 12.7599 13 12.546 13.109C12.3578 13.2049 12.2049 13.3578 12.109 13.546C12 13.7599 12 14.0399 12 14.6V15.4C12 15.9601 12 16.2401 12.109 16.454C12.2049 16.6422 12.3578 16.7951 12.546 16.891C12.7599 17 13.0399 17 13.6 17Z" stroke="#0B0D12" stroke-width="2" stroke-linecap="round" stroke-linejoin="round"/>
</svg>
