<svg width="24" height="24" viewBox="0 0 24 24" fill="none" xmlns="http://www.w3.org/2000/svg">
<path d="M4.09202 17.782L4.54601 16.891L4.09202 17.782ZM3.21799 16.908L4.10899 16.454L3.21799 16.908ZM20.782 16.908L19.891 16.454L20.782 16.908ZM19.908 17.782L19.454 16.891L19.908 17.782ZM21.455 7.73005C21.2043 7.23796 20.6021 7.0423 20.11 7.29303C19.6179 7.54376 19.4223 8.14594 19.673 8.63803L21.455 7.73005ZM5.18404 6.43597L5.63803 7.32698L5.18404 6.43597ZM3.43597 8.18404L4.32698 8.63803L3.43597 8.18404ZM13 18V19C13.5523 19 14 18.5523 14 18H13ZM9.78036 6.07686L9.97545 5.09607L9.78036 6.07686ZM12.9231 9.21964L13.9039 9.02455L12.9231 9.21964ZM6.21964 6.07686L6.02455 5.09607L6.21964 6.07686ZM3.07686 9.21964L2.09607 9.02455L3.07686 9.21964ZM7 13C6.44772 13 6 13.4477 6 14C6 14.5523 6.44772 15 7 15V13ZM9 15C9.55228 15 10 14.5523 10 14C10 13.4477 9.55228 13 9 13V15ZM18.6874 4C19.2397 4 19.6874 3.55228 19.6874 3C19.6874 2.44772 19.2397 2 18.6874 2V4ZM15 9C15 9.55228 15.4477 10 16 10C16.5523 10 17 9.55228 17 9H15ZM11 18C11 17.4477 10.5523 17 10 17C9.44772 17 9 17.4477 9 18H11ZM9 21C9 21.5523 9.44772 22 10 22C10.5523 22 11 21.5523 11 21H9ZM16 18C16 17.4477 15.5523 17 15 17C14.4477 17 14 17.4477 14 18H16ZM14 21C14 21.5523 14.4477 22 15 22C15.5523 22 16 21.5523 16 21H14ZM20 12.4V14.8H22V12.4H20ZM17.8 17H6.2V19H17.8V17ZM4 14.8V12.4H2V14.8H4ZM6.2 17C5.62345 17 5.25117 16.9992 4.96784 16.9761C4.69617 16.9539 4.59545 16.9162 4.54601 16.891L3.63803 18.673C4.01641 18.8658 4.40963 18.9371 4.80497 18.9694C5.18864 19.0008 5.65645 19 6.2 19V17ZM2 14.8C2 15.3436 1.99922 15.8114 2.03057 16.195C2.06287 16.5904 2.13419 16.9836 2.32698 17.362L4.10899 16.454C4.0838 16.4045 4.04612 16.3038 4.02393 16.0322C4.00078 15.7488 4 15.3766 4 14.8H2ZM4.54601 16.891C4.35785 16.7951 4.20487 16.6422 4.10899 16.454L2.32698 17.362C2.6146 17.9265 3.07354 18.3854 3.63803 18.673L4.54601 16.891ZM20 14.8C20 15.3766 19.9992 15.7488 19.9761 16.0322C19.9539 16.3038 19.9162 16.4045 19.891 16.454L21.673 17.362C21.8658 16.9836 21.9371 16.5904 21.9694 16.195C22.0008 15.8114 22 15.3436 22 14.8H20ZM17.8 19C18.3436 19 18.8114 19.0008 19.195 18.9694C19.5904 18.9371 19.9836 18.8658 20.362 18.673L19.454 16.891C19.4045 16.9162 19.3038 16.9539 19.0322 16.9761C18.7488 16.9992 18.3766 17 17.8 17V19ZM19.891 16.454C19.7951 16.6422 19.6422 16.7951 19.454 16.891L20.362 18.673C20.9265 18.3854 21.3854 17.9265 21.673 17.362L19.891 16.454ZM22 12.4C22 11.2964 22.0008 10.4086 21.9422 9.69138C21.8826 8.96253 21.7568 8.32234 21.455 7.73005L19.673 8.63803C19.8072 8.90138 19.8994 9.24907 19.9488 9.85424C19.9992 10.4711 20 11.2634 20 12.4H22ZM9.4 5C8.2964 5 7.40855 4.99922 6.69138 5.05782C5.96253 5.11737 5.32234 5.24318 4.73005 5.54497L5.63803 7.32698C5.90138 7.19279 6.24907 7.10062 6.85424 7.05118C7.47108 7.00078 8.26339 7 9.4 7V5ZM4 12.4C4 11.2634 4.00078 10.4711 4.05118 9.85424C4.10062 9.24907 4.19279 8.90138 4.32698 8.63803L2.54497 7.73005C2.24318 8.32234 2.11737 8.96253 2.05782 9.69138C1.99922 10.4086 2 11.2964 2 12.4H4ZM4.73005 5.54497C3.78924 6.02433 3.02433 6.78924 2.54497 7.73005L4.32698 8.63803C4.6146 8.07354 5.07354 7.6146 5.63803 7.32698L4.73005 5.54497ZM12 11V18H14V11H12ZM13 17H6.2V19H13V17ZM4 14.8V11H2V14.8H4ZM8 7C8.97724 7 9.31982 7.00484 9.58527 7.05764L9.97545 5.09607C9.46811 4.99516 8.88138 5 8 5V7ZM14 11C14 10.1186 14.0048 9.53189 13.9039 9.02455L11.9424 9.41473C11.9952 9.68018 12 10.0228 12 11H14ZM9.58527 7.05764C10.7753 7.29436 11.7056 8.22466 11.9424 9.41473L13.9039 9.02455C13.5094 7.0411 11.9589 5.49061 9.97545 5.09607L9.58527 7.05764ZM8 5C7.11862 5 6.53189 4.99516 6.02455 5.09607L6.41473 7.05764C6.68018 7.00484 7.02276 7 8 7V5ZM4 11C4 10.0228 4.00484 9.68018 4.05764 9.41473L2.09607 9.02455C1.99516 9.53189 2 10.1186 2 11H4ZM6.02455 5.09607C4.0411 5.49061 2.49061 7.0411 2.09607 9.02455L4.05764 9.41473C4.29436 8.22466 5.22466 7.29436 6.41473 7.05764L6.02455 5.09607ZM7 15H9V13H7V15ZM18.6874 2H18V4H18.6874V2ZM18 2C16.3431 2 15 3.34315 15 5H17C17 4.44772 17.4477 4 18 4V2ZM9 18V21H11V18H9ZM14 18V21H16V18H14ZM15 5V6H17V5H15ZM15 6V9H17V6H15ZM9.4 7H16V5H9.4V7Z" fill="#0B0D12"/>
</svg>
