<svg width="24" height="24" viewBox="0 0 24 24" fill="none" xmlns="http://www.w3.org/2000/svg">
<path d="M3 15V20.2C3 20.48 3 20.62 3.0545 20.727C3.10243 20.8211 3.17892 20.8976 3.273 20.9455C3.37996 21 3.51997 21 3.8 21H9M21 15V20.2C21 20.48 21 20.62 20.9455 20.727C20.8976 20.8211 20.8211 20.8976 20.727 20.9455C20.62 21 20.48 21 20.2 21H15M3 9V3.8C3 3.51997 3 3.37996 3.0545 3.273C3.10243 3.17892 3.17892 3.10243 3.273 3.0545C3.37996 3 3.51997 3 3.8 3H9M21 9V3.8C21 3.51997 21 3.37996 20.9455 3.273C20.8976 3.17892 20.8211 3.10243 20.727 3.0545C20.62 3 20.48 3 20.2 3H15M9 15L3.5 20.5M15 15L20.5 20.5M9 9L3.5 3.5M15 9L20.5 3.5" stroke="#0B0D12" stroke-width="2" stroke-linecap="round" stroke-linejoin="round"/>
</svg>
