<svg width="24" height="24" viewBox="0 0 24 24" fill="none" xmlns="http://www.w3.org/2000/svg">
<path d="M18 6.03546C18.1633 6.0121 18.3302 6.00001 18.5 6.00001C20.433 6.00001 22 7.56701 22 9.50001C22 11.433 20.433 13 18.5 13C18.3302 13 18.1633 12.9879 18 12.9646M5.66667 19L5.22619 16.3571C5.09567 15.574 4.41809 15 3.62414 15C2.72715 15 2 14.2729 2 13.3759V10.5C2 9.10219 2 8.40327 2.22836 7.85196C2.53284 7.11688 3.11687 6.53285 3.85195 6.22837C4.40326 6.00001 5.10218 6.00001 6.5 6.00001H8.8612C9.33386 6.00001 9.79082 5.99642 10.2432 5.84516C10.444 5.778 10.6355 5.68224 11.0186 5.49072L15.2273 3.38638C16.5012 2.74943 18 3.67577 18 5.10003V13.9C18 15.3243 16.5012 16.2506 15.2273 15.6136L12.9284 14.4642C12.566 14.283 12.3848 14.1924 12.2537 14.1544C11.3283 13.8861 10.3935 14.5475 10.3385 15.5094C10.2893 16.3707 10.5387 17.31 10.6452 18.1614C10.7782 19.2256 10.8447 19.7576 10.6482 20.1592C10.5296 20.4016 10.3479 20.6075 10.1221 20.7552C9.54208 21.1347 7.37816 21.1896 6.66091 20.8705C5.88896 20.527 5.79158 19.7495 5.66667 19Z" stroke="#0B0D12" stroke-width="2" stroke-linecap="round" stroke-linejoin="round"/>
</svg>
