<svg width="24" height="24" viewBox="0 0 24 24" fill="none" xmlns="http://www.w3.org/2000/svg">
<path d="M22 12C22 11.4477 21.5523 11 21 11C20.4477 11 20 11.4477 20 12H22ZM12 4C12.5523 4 13 3.55228 13 3C13 2.44772 12.5523 2 12 2V4ZM3.43597 18.816L4.32698 18.362L4.32698 18.362L3.43597 18.816ZM5.18404 20.564L5.63803 19.673H5.63803L5.18404 20.564ZM9 9C8.44772 9 8 9.44772 8 10C8 10.5523 8.44772 11 9 11V9ZM13 11C13.5523 11 14 10.5523 14 10C14 9.44772 13.5523 9 13 9V11ZM9 13C8.44772 13 8 13.4477 8 14C8 14.5523 8.44772 15 9 15V13ZM15 15C15.5523 15 16 14.5523 16 14C16 13.4477 15.5523 13 15 13V15ZM20 12C20 16.4183 16.4183 20 12 20V22C17.5228 22 22 17.5228 22 12H20ZM4 12C4 7.58172 7.58172 4 12 4V2C6.47715 2 2 6.47715 2 12H4ZM4 14.6V12H2V14.6H4ZM9.4 22H12V20H9.4V22ZM2 14.6C2 15.7036 1.99922 16.5914 2.05782 17.3086C2.11737 18.0375 2.24318 18.6777 2.54497 19.27L4.32698 18.362C4.19279 18.0986 4.10062 17.7509 4.05118 17.1458C4.00078 16.5289 4 15.7366 4 14.6H2ZM9.4 20C8.26339 20 7.47108 19.9992 6.85424 19.9488C6.24907 19.8994 5.90138 19.8072 5.63803 19.673L4.73005 21.455C5.32234 21.7568 5.96253 21.8826 6.69138 21.9422C7.40855 22.0008 8.2964 22 9.4 22V20ZM2.54497 19.27C3.02433 20.2108 3.78924 20.9757 4.73005 21.455L5.63803 19.673C5.07354 19.3854 4.6146 18.9265 4.32698 18.362L2.54497 19.27ZM9 11H13V9H9V11ZM9 15H15V13H9V15ZM20 5.5C20 6.32843 19.3284 7 18.5 7V9C20.433 9 22 7.433 22 5.5H20ZM18.5 7C17.6716 7 17 6.32843 17 5.5H15C15 7.433 16.567 9 18.5 9V7ZM17 5.5C17 4.67157 17.6716 4 18.5 4V2C16.567 2 15 3.567 15 5.5H17ZM18.5 4C19.3284 4 20 4.67157 20 5.5H22C22 3.567 20.433 2 18.5 2V4Z" fill="#0B0D12"/>
</svg>
