<svg width="24" height="24" viewBox="0 0 24 24" fill="none" xmlns="http://www.w3.org/2000/svg">
<path d="M9 7.5C8.44772 7.5 8 7.94772 8 8.5C8 9.05228 8.44772 9.5 9 9.5V7.5ZM13 9.5C13.5523 9.5 14 9.05228 14 8.5C14 7.94772 13.5523 7.5 13 7.5V9.5ZM9 11.5C8.44772 11.5 8 11.9477 8 12.5C8 13.0523 8.44772 13.5 9 13.5V11.5ZM15 13.5C15.5523 13.5 16 13.0523 16 12.5C16 11.9477 15.5523 11.5 15 11.5V13.5ZM7.7915 19.1493L8.46817 19.8856L8.46817 19.8856L7.7915 19.1493ZM8.12332 18.8444L7.44665 18.1081L7.44665 18.1081L8.12332 18.8444ZM5.48526 20.9399L5.24204 19.9699H5.24204L5.48526 20.9399ZM3.24184 19.9505L4.12143 19.4747H4.12143L3.24184 19.9505ZM18.816 17.6016L18.361 16.711L18.361 16.711L18.816 17.6016ZM20.564 15.849L19.6725 15.3959L19.6725 15.3959L20.564 15.849ZM9.38822 18.0771L9.19286 17.0964H9.19286L9.38822 18.0771ZM8.73973 18.33L9.25983 19.1841L9.25983 19.1841L8.73973 18.33ZM5.18404 3.4371L4.72912 2.54656L4.72912 2.54657L5.18404 3.4371ZM3.43597 5.18967L2.5445 4.73661H2.5445L3.43597 5.18967ZM21.9999 12.0007C22.0003 11.4484 21.5529 11.0004 21.0006 11C20.4483 10.9996 20.0003 11.447 19.9999 11.9993L21.9999 12.0007ZM12 4C12.5523 4 13 3.55228 13 3C13 2.44772 12.5523 2 12 2V4ZM9 9.5H13V7.5H9V9.5ZM9 13.5H15V11.5H9V13.5ZM20 5.5C20 6.32843 19.3284 7 18.5 7V9C20.433 9 22 7.433 22 5.5H20ZM18.5 7C17.6716 7 17 6.32843 17 5.5H15C15 7.433 16.567 9 18.5 9V7ZM17 5.5C17 4.67157 17.6716 4 18.5 4V2C16.567 2 15 3.567 15 5.5H17ZM18.5 4C19.3284 4 20 4.67157 20 5.5H22C22 3.567 20.433 2 18.5 2V4ZM4 17.0361V9.4165H2V17.0361H4ZM14.6 17.0387H10.1893V19.0387H14.6V17.0387ZM8.46817 19.8856L8.8 19.5806L7.44665 18.1081L7.11483 18.413L8.46817 19.8856ZM7.11483 18.413C6.49974 18.9783 6.07442 19.3685 5.74189 19.6365C5.57881 19.768 5.45905 19.8527 5.36895 19.9067C5.27936 19.9604 5.2416 19.97 5.24204 19.9699L5.72848 21.9099C6.19996 21.7916 6.61802 21.4992 6.997 21.1937C7.39221 20.8751 7.87392 20.4317 8.46817 19.8856L7.11483 18.413ZM2 17.0361C2 17.8444 1.9995 18.4998 2.03232 19.007C2.0638 19.4935 2.13121 19.999 2.36225 20.4262L4.12143 19.4747C4.12175 19.4753 4.11697 19.4666 4.10939 19.4442C4.1017 19.4214 4.0919 19.3868 4.0816 19.3367C4.06037 19.2333 4.0417 19.0873 4.02814 18.8778C4.0005 18.4508 4 17.8726 4 17.0361H2ZM5.24204 19.9699C4.80106 20.0805 4.33966 19.8782 4.12143 19.4747L2.36225 20.4262C3.01411 21.6314 4.39869 22.2433 5.72848 21.9099L5.24204 19.9699ZM14.6 19.0387C15.7036 19.0387 16.5915 19.0395 17.3088 18.9807C18.0379 18.921 18.6784 18.7948 19.2709 18.4921L18.361 16.711C18.0979 16.8455 17.7505 16.9378 17.1456 16.9874C16.5288 17.0379 15.7366 17.0387 14.6 17.0387V19.0387ZM19.6725 15.3959C19.3846 15.9626 18.9253 16.4228 18.361 16.711L19.2709 18.4921C20.2119 18.0114 20.9765 17.2446 21.4555 16.3021L19.6725 15.3959ZM10.1893 17.0387C9.82317 17.0387 9.50501 17.0342 9.19286 17.0964L9.58358 19.0578C9.65739 19.0431 9.74465 19.0387 10.1893 19.0387V17.0387ZM8.79999 19.5806C9.1277 19.2795 9.19525 19.2234 9.25983 19.1841L8.21964 17.4759C7.94787 17.6414 7.7166 17.86 7.44665 18.1081L8.79999 19.5806ZM9.19286 17.0964C8.84873 17.1649 8.51934 17.2934 8.21964 17.4759L9.25983 19.1841C9.35965 19.1233 9.46923 19.0806 9.58358 19.0578L9.19286 17.0964ZM9.4 2C8.29644 2 7.40847 1.99922 6.69117 2.05798C5.96211 2.11769 5.32164 2.24388 4.72912 2.54656L5.63896 4.32763C5.90209 4.19321 6.24948 4.10085 6.85445 4.0513C7.47116 4.00078 8.26335 4 9.4 4V2ZM4 9.4165C4 8.27705 4.00077 7.48245 4.05119 6.86376C4.10067 6.25667 4.19293 5.90742 4.32745 5.64273L2.5445 4.73661C2.24304 5.32977 2.11732 5.97094 2.0578 6.70131C1.99923 7.42008 2 8.30997 2 9.4165H4ZM4.72912 2.54657C3.7881 3.02727 3.02351 3.79406 2.5445 4.73661L4.32745 5.64273C4.61542 5.0761 5.07468 4.61589 5.63896 4.32763L4.72912 2.54657ZM19.9999 11.9993C19.9992 13.0083 19.9922 13.72 19.9399 14.2767C19.8887 14.8219 19.7991 15.1469 19.6725 15.3959L21.4555 16.3021C21.7397 15.7428 21.8674 15.1417 21.9311 14.4637C21.9937 13.7972 21.9992 12.9886 21.9999 12.0007L19.9999 11.9993ZM9.4 4H12V2H9.4V4Z" fill="#0B0D12"/>
</svg>
