<svg width="24" height="24" viewBox="0 0 24 24" fill="none" xmlns="http://www.w3.org/2000/svg">
<path d="M7.7915 19.1493L8.46817 19.8856L8.46817 19.8856L7.7915 19.1493ZM8.12332 18.8444L7.44665 18.1081L7.44665 18.1081L8.12332 18.8444ZM5.48526 20.9399L5.24204 19.9699L5.24204 19.9699L5.48526 20.9399ZM3.24184 19.9505L4.12143 19.4747H4.12143L3.24184 19.9505ZM20.564 15.849L19.6725 15.3959H19.6725L20.564 15.849ZM18.816 17.6016L18.361 16.711V16.711L18.816 17.6016ZM18.816 3.4371L18.361 4.32763V4.32763L18.816 3.4371ZM20.564 5.18967L19.6725 5.64273L20.564 5.18967ZM9.38822 18.0771L9.19286 17.0964H9.19286L9.38822 18.0771ZM8.73973 18.33L9.25983 19.1841L9.25983 19.1841L8.73973 18.33ZM5.18404 3.4371L4.72912 2.54656L4.72912 2.54657L5.18404 3.4371ZM3.43597 5.18967L2.5445 4.73661H2.5445L3.43597 5.18967ZM9 7.5C8.44772 7.5 8 7.94772 8 8.5C8 9.05228 8.44772 9.5 9 9.5V7.5ZM15 9.5C15.5523 9.5 16 9.05228 16 8.5C16 7.94772 15.5523 7.5 15 7.5V9.5ZM9 11.5C8.44772 11.5 8 11.9477 8 12.5C8 13.0523 8.44772 13.5 9 13.5V11.5ZM15 13.5C15.5523 13.5 16 13.0523 16 12.5C16 11.9477 15.5523 11.5 15 11.5V13.5ZM9.4 4H14.6V2H9.4V4ZM20 9.4165V11.6222H22V9.4165H20ZM4 17.0361V9.4165H2V17.0361H4ZM14.6 17.0387H10.1893V19.0387H14.6V17.0387ZM8.46817 19.8856L8.8 19.5806L7.44665 18.1081L7.11483 18.413L8.46817 19.8856ZM7.11483 18.413C6.49973 18.9783 6.07441 19.3685 5.74189 19.6365C5.57881 19.768 5.45905 19.8527 5.36895 19.9067C5.27936 19.9604 5.2416 19.97 5.24204 19.9699L5.72848 21.9099C6.19996 21.7916 6.61802 21.4992 6.997 21.1937C7.39221 20.8751 7.87391 20.4317 8.46817 19.8856L7.11483 18.413ZM2 17.0361C2 17.8444 1.9995 18.4998 2.03232 19.007C2.0638 19.4935 2.13121 19.999 2.36225 20.4262L4.12143 19.4747C4.12175 19.4753 4.11697 19.4666 4.10939 19.4442C4.1017 19.4214 4.0919 19.3868 4.0816 19.3367C4.06037 19.2333 4.0417 19.0873 4.02814 18.8778C4.0005 18.4508 4 17.8726 4 17.0361H2ZM5.24204 19.9699C4.80106 20.0805 4.33966 19.8782 4.12143 19.4747L2.36225 20.4262C3.01411 21.6314 4.39869 22.2433 5.72848 21.9099L5.24204 19.9699ZM20 11.6222C20 12.7616 19.9992 13.5562 19.9488 14.1749C19.8993 14.782 19.8071 15.1313 19.6725 15.3959L21.4555 16.3021C21.757 15.7089 21.8827 15.0677 21.9422 14.3374C22.0008 13.6186 22 12.7287 22 11.6222H20ZM14.6 19.0387C15.7036 19.0387 16.5915 19.0395 17.3088 18.9807C18.0379 18.921 18.6784 18.7948 19.2709 18.4921L18.361 16.711C18.0979 16.8455 17.7505 16.9378 17.1456 16.9874C16.5288 17.0379 15.7366 17.0387 14.6 17.0387V19.0387ZM19.6725 15.3959C19.3846 15.9626 18.9253 16.4228 18.361 16.711L19.2709 18.4921C20.2119 18.0114 20.9765 17.2446 21.4555 16.3021L19.6725 15.3959ZM14.6 4C15.7366 4 16.5288 4.00078 17.1456 4.0513C17.7505 4.10085 18.0979 4.19321 18.361 4.32763L19.2709 2.54656C18.6784 2.24388 18.0379 2.11769 17.3088 2.05798C16.5915 1.99922 15.7036 2 14.6 2V4ZM22 9.4165C22 8.30997 22.0008 7.42008 21.9422 6.70131C21.8827 5.97094 21.757 5.32977 21.4555 4.73661L19.6725 5.64273C19.8071 5.90742 19.8993 6.25667 19.9488 6.86376C19.9992 7.48245 20 8.27705 20 9.4165H22ZM18.361 4.32763C18.9253 4.61589 19.3846 5.0761 19.6725 5.64273L21.4555 4.73661C20.9765 3.79406 20.2119 3.02727 19.2709 2.54656L18.361 4.32763ZM10.1893 17.0387C9.82315 17.0387 9.50501 17.0342 9.19286 17.0964L9.58357 19.0578C9.6574 19.0431 9.74464 19.0387 10.1893 19.0387V17.0387ZM8.79999 19.5806C9.1277 19.2795 9.19525 19.2234 9.25983 19.1841L8.21964 17.4759C7.94787 17.6414 7.7166 17.86 7.44665 18.1081L8.79999 19.5806ZM9.19286 17.0964C8.84873 17.1649 8.51934 17.2934 8.21964 17.4759L9.25983 19.1841C9.35965 19.1233 9.46923 19.0806 9.58358 19.0578L9.19286 17.0964ZM9.4 2C8.29644 2 7.40847 1.99922 6.69117 2.05798C5.96211 2.11769 5.32164 2.24388 4.72912 2.54656L5.63896 4.32763C5.90209 4.19321 6.24948 4.10085 6.85445 4.0513C7.47116 4.00078 8.26335 4 9.4 4V2ZM4 9.4165C4 8.27705 4.00077 7.48245 4.05119 6.86376C4.10067 6.25667 4.19293 5.90742 4.32745 5.64273L2.5445 4.73661C2.24304 5.32977 2.11732 5.97094 2.0578 6.70131C1.99923 7.42008 2 8.30997 2 9.4165H4ZM4.72912 2.54657C3.7881 3.02727 3.02351 3.79406 2.5445 4.73661L4.32745 5.64273C4.61542 5.0761 5.07468 4.61589 5.63896 4.32763L4.72912 2.54657ZM9 9.5H15V7.5H9V9.5ZM9 13.5H15V11.5H9V13.5Z" fill="#0B0D12"/>
</svg>
