<svg width="24" height="24" viewBox="0 0 24 24" fill="none" xmlns="http://www.w3.org/2000/svg">
<path d="M3.38332 14.6069L2.42606 14.8961H2.42606L3.38332 14.6069ZM9.39315 20.6167L9.10392 21.5739L9.10393 21.5739L9.39315 20.6167ZM8.63427 20.3912L8.39254 21.3615L8.39255 21.3615L8.63427 20.3912ZM6.59503 20.5909L6.24416 19.6545L6.24416 19.6545L6.59503 20.5909ZM6.99606 20.4445L6.69172 19.492L6.69171 19.492L6.99606 20.4445ZM3.6088 15.3657L2.63846 15.6075H2.63846L3.6088 15.3657ZM3.40909 17.405L2.47266 17.0541L2.47266 17.0541L3.40909 17.405ZM3.55546 17.0039L4.50803 17.3083L4.50803 17.3083L3.55546 17.0039ZM3.0587 18.4314L2.07588 18.2468H2.07588L3.0587 18.4314ZM5.56859 20.9413L5.75316 21.9241H5.75316L5.56859 20.9413ZM9 9C8.44772 9 8 9.44772 8 10C8 10.5523 8.44772 11 9 11V9ZM15 11C15.5523 11 16 10.5523 16 10C16 9.44772 15.5523 9 15 9V11ZM9 13C8.44772 13 8 13.4477 8 14C8 14.5523 8.44772 15 9 15V13ZM15 15C15.5523 15 16 14.5523 16 14C16 13.4477 15.5523 13 15 13V15ZM20 12C20 16.4183 16.4183 20 12 20V22C17.5228 22 22 17.5228 22 12H20ZM4 12C4 7.58172 7.58172 4 12 4V2C6.47715 2 2 6.47715 2 12H4ZM12 4C16.4183 4 20 7.58172 20 12H22C22 6.47715 17.5228 2 12 2V4ZM4.34059 14.3176C4.11931 13.5852 4 12.8075 4 12H2C2 13.0055 2.14873 13.9781 2.42606 14.8961L4.34059 14.3176ZM12 20C11.1925 20 10.4148 19.8807 9.68236 19.6594L9.10393 21.5739C10.0219 21.8513 10.9945 22 12 22V20ZM9.68237 19.6594C9.24702 19.5279 8.97926 19.4466 8.876 19.4209L8.39255 21.3615C8.3913 21.3612 8.40389 21.3645 8.44165 21.3754C8.47601 21.3853 8.52229 21.3989 8.58298 21.417C8.70436 21.4532 8.87408 21.5045 9.10392 21.5739L9.68237 19.6594ZM6.9459 21.5273C7.18152 21.4391 7.26014 21.41 7.30042 21.3971L6.69171 19.492C6.59118 19.5241 6.44939 19.5776 6.24416 19.6545L6.9459 21.5273ZM8.876 19.4209C8.50645 19.3288 8.15772 19.2621 7.77794 19.2745C7.39815 19.2868 7.05451 19.3761 6.69172 19.492L7.3004 21.3971C7.60721 21.2991 7.74162 21.2767 7.84302 21.2734C7.94442 21.2701 8.08 21.2837 8.39254 21.3615L8.876 19.4209ZM2.42606 14.8961C2.49551 15.1259 2.54678 15.2956 2.58299 15.417C2.60109 15.4777 2.61473 15.524 2.62464 15.5584C2.63552 15.5961 2.63877 15.6087 2.63846 15.6075L4.57914 15.124C4.55342 15.0207 4.47212 14.753 4.34059 14.3176L2.42606 14.8961ZM4.34551 17.7558C4.4224 17.5506 4.47591 17.4088 4.50803 17.3083L2.6029 16.6996C2.59004 16.7399 2.56095 16.8185 2.47266 17.0541L4.34551 17.7558ZM2.63846 15.6075C2.71632 15.92 2.72991 16.0556 2.72661 16.157C2.72331 16.2584 2.70092 16.3928 2.6029 16.6996L4.50803 17.3083C4.62393 16.9455 4.71318 16.6018 4.72555 16.2221C4.73791 15.8423 4.67121 15.4936 4.57914 15.124L2.63846 15.6075ZM2.47266 17.0541C2.28232 17.5621 2.13083 17.9543 2.07588 18.2468L4.04152 18.616C4.05535 18.5424 4.11452 18.3723 4.34551 17.7558L2.47266 17.0541ZM6.24416 19.6545C5.6277 19.8855 5.45765 19.9447 5.38402 19.9585L5.75316 21.9241C6.04573 21.8692 6.4379 21.7177 6.94591 21.5273L6.24416 19.6545ZM2.07588 18.2468C1.66686 20.4249 3.57513 22.3331 5.75316 21.9241L5.38402 19.9585C4.58887 20.1078 3.8922 19.4111 4.04152 18.616L2.07588 18.2468ZM9 11H15V9H9V11ZM9 15H15V13H9V15Z" fill="#0B0D12"/>
</svg>
