<svg width="24" height="24" viewBox="0 0 24 24" fill="none" xmlns="http://www.w3.org/2000/svg">
<path d="M19 16C17.2085 17.8357 14.7337 18.9711 12 18.9711M12 18.9711V21M12 18.9711C11.6873 18.9711 11.378 18.9563 11.0728 18.9272M9.71587 14.2841C8.6787 13.5614 8 12.36 8 11V7C8 4.79086 9.79086 3 12 3C14.2091 3 16 4.79086 16 7V8M9.71587 14.2841L16 8M9.71587 14.2841L6.64179 17.3582M21 3L16 8M6.64179 17.3582L3 21M6.64179 17.3582C6.04787 16.9657 5.49757 16.5099 5 16" stroke="#0B0D12" stroke-width="2" stroke-linecap="round" stroke-linejoin="round"/>
</svg>
