<svg width="24" height="24" viewBox="0 0 24 24" fill="none" xmlns="http://www.w3.org/2000/svg">
<path d="M9 21V15.8C9 15.52 9 15.38 8.9455 15.273C8.89757 15.1789 8.82108 15.1024 8.727 15.0545C8.62004 15 8.48003 15 8.2 15H3M15 21V15.8C15 15.52 15 15.38 15.0545 15.273C15.1024 15.1789 15.1789 15.1024 15.273 15.0545C15.38 15 15.52 15 15.8 15H21M9 3V8.2C9 8.48003 9 8.62004 8.9455 8.727C8.89757 8.82108 8.82108 8.89757 8.727 8.9455C8.62004 9 8.48003 9 8.2 9H3M15 3V8.2C15 8.48003 15 8.62004 15.0545 8.727C15.1024 8.82108 15.1789 8.89757 15.273 8.9455C15.38 9 15.52 9 15.8 9H21M8.5 15.5L3 21M15.5 15.5L21 21M8.5 8.5L3 3M15.5 8.5L21 3" stroke="#0B0D12" stroke-width="2" stroke-linecap="round" stroke-linejoin="round"/>
</svg>
