<svg width="24" height="24" viewBox="0 0 24 24" fill="none" xmlns="http://www.w3.org/2000/svg">
<path d="M5.99977 8.9998L3.56537 11.4342C3.36736 11.6322 3.26835 11.7312 3.23126 11.8454C3.19863 11.9458 3.19863 12.054 3.23126 12.1544C3.26835 12.2686 3.36736 12.3676 3.56537 12.5656L5.99977 15M15 18.0001L12.5656 20.4345C12.3676 20.6325 12.2686 20.7315 12.1545 20.7686C12.054 20.8012 11.9459 20.8012 11.8454 20.7686C11.7313 20.7315 11.6323 20.6325 11.4343 20.4345L8.99986 18.0001M8.99986 5.99971L11.4343 3.5653C11.6323 3.3673 11.7313 3.26829 11.8454 3.2312C11.9459 3.19857 12.054 3.19857 12.1545 3.2312C12.2686 3.26829 12.3676 3.3673 12.5656 3.5653L15 5.99971M18.0001 15L20.4345 12.5656C20.6325 12.3676 20.7315 12.2686 20.7686 12.1544C20.8013 12.054 20.8013 11.9458 20.7686 11.8454C20.7315 11.7312 20.6325 11.6322 20.4345 11.4342L18.0001 8.9998M3.4997 12L12 12M12 20.5003V12M12 12V3.49975M12 12L20.5002 12" stroke="#0B0D12" stroke-width="2" stroke-linecap="round" stroke-linejoin="round"/>
</svg>
