<svg width="24" height="24" viewBox="0 0 24 24" fill="none" xmlns="http://www.w3.org/2000/svg">
<path d="M9 18.5C9 19.8807 7.88071 21 6.5 21C5.11929 21 4 19.8807 4 18.5C4 17.1193 5.11929 16 6.5 16C7.88071 16 9 17.1193 9 18.5ZM9 18.5V9.99997M20 16.5V7.99997M20 16.5C20 17.8807 18.8807 19 17.5 19C16.1193 19 15 17.8807 15 16.5C15 15.1193 16.1193 14 17.5 14C18.8807 14 20 15.1193 20 16.5ZM20 7.99997V6.83425C20 5.51728 20 4.85879 19.7305 4.39364C19.494 3.98554 19.1209 3.67415 18.677 3.51448C18.1712 3.33249 17.5233 3.45028 16.2276 3.68587L11.6276 4.52223C10.6929 4.69217 10.2256 4.77713 9.87545 5.01523C9.56672 5.22514 9.32291 5.51728 9.17161 5.85857C9 6.24568 9 6.72066 9 7.67062V9.99997M20 7.99997L9 9.99997" stroke="#0B0D12" stroke-width="2" stroke-linecap="round" stroke-linejoin="round"/>
</svg>
