<svg width="24" height="24" viewBox="0 0 24 24" fill="none" xmlns="http://www.w3.org/2000/svg">
<path d="M11 18C11 19.6568 9.65685 21 8 21C6.34315 21 5 19.6568 5 18C5 16.3431 6.34315 15 8 15C9.65685 15 11 16.3431 11 18ZM11 18V7.99999M11 7.99999V6.62489C11 5.37214 11 4.74576 11.2531 4.29174C11.4753 3.89308 11.8272 3.58242 12.2504 3.41135C12.7323 3.21653 13.3538 3.29422 14.5969 3.44961L16.827 3.72837C17.223 3.77787 17.421 3.80261 17.5876 3.85381C18.3059 4.07459 18.8399 4.67945 18.9699 5.41966C19 5.59129 19 5.79083 19 6.1899C19 6.6892 19 6.93885 18.9586 7.13904C18.7787 8.01007 18.0452 8.65762 17.1585 8.72813C16.9548 8.74434 16.707 8.71337 16.2116 8.65144L11 7.99999Z" stroke="#0B0D12" stroke-width="2" stroke-linecap="round" stroke-linejoin="round"/>
</svg>
