<svg width="24" height="24" viewBox="0 0 24 24" fill="none" xmlns="http://www.w3.org/2000/svg">
<path d="M9.01547 5.48763L17.2035 9.03729C19.3679 9.97561 20.4502 10.4448 20.7831 11.0985C21.0723 11.6664 21.0723 12.3336 20.7831 12.9015C20.4502 13.5552 19.368 14.0244 17.2035 14.9627L9.01546 18.5124C6.4424 19.6278 5.15587 20.1856 4.39754 19.9446C3.74081 19.736 3.23334 19.2226 3.04352 18.5748C2.82434 17.8268 3.4427 16.5931 4.6794 14.1257L5.0311 13.424C5.29302 12.9014 5.42399 12.6401 5.47557 12.3665C5.52126 12.1242 5.52126 11.8758 5.47557 11.6335C5.42399 11.3599 5.29302 11.0986 5.0311 10.576L4.6794 9.87433C3.4427 7.40689 2.82434 6.17318 3.04352 5.42519C3.23334 4.77742 3.74081 4.26403 4.39754 4.05537C5.15587 3.81443 6.4424 4.37216 9.01547 5.48763Z" stroke="#0B0D12" stroke-width="2" stroke-linecap="round" stroke-linejoin="round"/>
</svg>
