<svg width="24" height="24" viewBox="0 0 24 24" fill="none" xmlns="http://www.w3.org/2000/svg">
<path d="M5.48763 14.9845L9.03729 6.7965C9.97561 4.63205 10.4448 3.54982 11.0985 3.21689C11.6664 2.9277 12.3336 2.9277 12.9015 3.21689C13.5552 3.54982 14.0244 4.63205 14.9627 6.7965L18.5124 14.9845C19.6278 17.5576 20.1856 18.8441 19.9446 19.6025C19.736 20.2592 19.2226 20.7667 18.5748 20.9565C17.8268 21.1757 16.5931 20.5573 14.1257 19.3206L13.424 18.9689C12.9014 18.707 12.6401 18.576 12.3665 18.5244C12.1242 18.4787 11.8758 18.4787 11.6335 18.5244C11.3599 18.576 11.0986 18.707 10.576 18.9689L9.87433 19.3206C7.40689 20.5573 6.17318 21.1757 5.42519 20.9565C4.77742 20.7667 4.26403 20.2592 4.05537 19.6025C3.81443 18.8441 4.37216 17.5576 5.48763 14.9845Z" stroke="#0B0D12" stroke-width="2" stroke-linecap="round" stroke-linejoin="round"/>
</svg>
