<svg width="24" height="24" viewBox="0 0 24 24" fill="none" xmlns="http://www.w3.org/2000/svg">
<path d="M8.28164 7.58674L14.8971 5.04233C16.9869 4.23856 18.0318 3.83668 18.7024 4.06215C19.2848 4.258 19.742 4.7152 19.9378 5.29765C20.1633 5.9682 19.7614 7.0131 18.9577 9.10289L16.4133 15.7184C15.4577 18.2027 14.98 19.4448 14.308 19.7866C13.726 20.0826 13.035 20.07 12.4642 19.753C11.8051 19.3869 11.373 18.1281 10.5088 15.6106L10.4659 15.4857C10.2829 14.9525 10.1914 14.6859 10.0384 14.464C9.90287 14.2674 9.73263 14.0971 9.53602 13.9616C9.31408 13.8086 9.04748 13.7171 8.51428 13.5341L8.38939 13.4912C5.87186 12.627 4.6131 12.1949 4.24703 11.5358C3.93001 10.965 3.9174 10.274 4.21338 9.69201C4.55516 9.02 5.79732 8.54225 8.28164 7.58674Z" stroke="#0B0D12" stroke-width="2" stroke-linecap="round" stroke-linejoin="round"/>
</svg>
