<svg width="24" height="24" viewBox="0 0 24 24" fill="none" xmlns="http://www.w3.org/2000/svg">
<path d="M19 6.00004L19 18M5 10.5402V13.4599C5 16.1842 5 17.5463 5.55553 18.2338C6.03848 18.8314 6.76941 19.1737 7.53769 19.1622C8.42146 19.1488 9.46788 18.2768 11.5607 16.5328L13.3125 15.0729C14.5789 14.0176 15.212 13.49 15.4429 12.8583C15.6455 12.3041 15.6455 11.696 15.4429 11.1418C15.212 10.5101 14.5789 9.98244 13.3125 8.92716L11.5607 7.46732C9.46788 5.72328 8.42146 4.85126 7.53769 4.83793C6.76941 4.82635 6.03848 5.1687 5.55553 5.76632C5 6.45378 5 7.81592 5 10.5402Z" stroke="#0B0D12" stroke-width="2" stroke-linecap="round" stroke-linejoin="round"/>
</svg>
