<svg width="24" height="24" viewBox="0 0 24 24" fill="none" xmlns="http://www.w3.org/2000/svg">
<path d="M4.60982 7.96157L4.41473 8.94236L4.60982 7.96157ZM3.03843 6.39018L2.05764 6.58527L3.03843 6.39018ZM17.4616 6.39018L18.4424 6.58527L17.4616 6.39018ZM15.8902 7.96157L16.0853 8.94236L15.8902 7.96157ZM15.8902 3.03843L16.0853 2.05764L15.8902 3.03843ZM17.4616 4.60982L18.4424 4.41473L17.4616 4.60982ZM4.60982 3.03843L4.41473 2.05764L4.60982 3.03843ZM3.03843 4.60982L2.05764 4.41473L3.03843 4.60982ZM13 17V19H15V17H13ZM11 19V17H9V19H11ZM12 20C11.4477 20 11 19.5523 11 19H9C9 20.6569 10.3431 22 12 22V20ZM13 19C13 19.5523 12.5523 20 12 20V22C13.6569 22 15 20.6569 15 19H13ZM12 16C12.5523 16 13 16.4477 13 17H15C15 15.3431 13.6569 14 12 14V16ZM12 14C10.3431 14 9 15.3431 9 17H11C11 16.4477 11.4477 16 12 16V14ZM5.5 4H15V2H5.5V4ZM15 7H5.5V9H15V7ZM5.5 7C4.98741 7 4.87716 6.99516 4.80491 6.98079L4.41473 8.94236C4.72888 9.00484 5.08328 9 5.5 9V7ZM2 5.5C2 5.91672 1.99516 6.27112 2.05764 6.58527L4.01921 6.19509C4.00484 6.12284 4 6.01259 4 5.5H2ZM4.80491 6.98079C4.40822 6.90188 4.09812 6.59178 4.01921 6.19509L2.05764 6.58527C2.29436 7.77534 3.22466 8.70564 4.41473 8.94236L4.80491 6.98079ZM16.5 5.5C16.5 6.01259 16.4952 6.12284 16.4808 6.19509L18.4424 6.58527C18.5048 6.27112 18.5 5.91672 18.5 5.5H16.5ZM15 9C15.4167 9 15.7711 9.00484 16.0853 8.94236L15.6951 6.98079C15.6228 6.99516 15.5126 7 15 7V9ZM16.4808 6.19509C16.4019 6.59178 16.0918 6.90188 15.6951 6.98079L16.0853 8.94236C17.2753 8.70564 18.2056 7.77534 18.4424 6.58527L16.4808 6.19509ZM15 4C15.5126 4 15.6228 4.00484 15.6951 4.01921L16.0853 2.05764C15.7711 1.99516 15.4167 2 15 2V4ZM18.5 5.5C18.5 5.08328 18.5048 4.72888 18.4424 4.41473L16.4808 4.80491C16.4952 4.87716 16.5 4.98741 16.5 5.5H18.5ZM15.6951 4.01921C16.0918 4.09812 16.4019 4.40822 16.4808 4.80491L18.4424 4.41473C18.2056 3.22466 17.2753 2.29436 16.0853 2.05764L15.6951 4.01921ZM5.5 2C5.08328 2 4.72888 1.99516 4.41473 2.05764L4.80491 4.01921C4.87716 4.00484 4.98741 4 5.5 4V2ZM4 5.5C4 4.98741 4.00484 4.87716 4.01921 4.80491L2.05764 4.41473C1.99516 4.72888 2 5.08328 2 5.5H4ZM4.41473 2.05764C3.22466 2.29436 2.29436 3.22466 2.05764 4.41473L4.01921 4.80491C4.09812 4.40822 4.40822 4.09812 4.80491 4.01921L4.41473 2.05764ZM17.5 6.5H18V4.5H17.5V6.5ZM18 10.5H14V12.5H18V10.5ZM11 13.5V15H13V13.5H11ZM14 10.5C12.3431 10.5 11 11.8431 11 13.5H13C13 12.9477 13.4477 12.5 14 12.5V10.5ZM20 8.5C20 9.60457 19.1046 10.5 18 10.5V12.5C20.2091 12.5 22 10.7091 22 8.5H20ZM18 6.5C19.1046 6.5 20 7.39543 20 8.5H22C22 6.29086 20.2091 4.5 18 4.5V6.5Z" fill="#0B0D12"/>
</svg>
