<svg width="24" height="24" viewBox="0 0 24 24" fill="none" xmlns="http://www.w3.org/2000/svg">
<path d="M9 15L8.46447 15.5355M7 12H7.5M9 9L8.46447 8.46447M12 7.5V7M15 9L15.5355 8.46447M16.5 12H17M12 17V16.5M12 21C7.02944 21 3 16.9706 3 12C3 7.02944 7.02944 3 12 3C16.9706 3 21 7.02944 21 12C21 12.6468 20.9318 13.2777 20.8021 13.8859C20.6373 14.6586 19.7901 15 19 15C16.7909 15 15 16.7909 15 19C15 19.7901 14.6586 20.6373 13.8859 20.8021C13.2777 20.9318 12.6468 21 12 21Z" stroke="#0B0D12" stroke-width="2" stroke-linecap="round" stroke-linejoin="round"/>
</svg>
