<svg width="24" height="24" viewBox="0 0 24 24" fill="none" xmlns="http://www.w3.org/2000/svg">
<path d="M15.8067 4.10986L16.1759 5.03922L15.8067 4.10986ZM7.1155 7.56212L6.74634 6.63275L7.1155 7.56212ZM7.13017 13.4581L7.48209 12.5221H7.48209L7.13017 13.4581ZM8.28166 13.8911L7.92973 14.8271L8.28166 13.8911ZM10.1089 15.7183L11.0449 15.3664L10.1089 15.7183ZM10.5418 16.8698L9.60582 17.2218L10.5418 16.8698ZM16.4379 16.8845L15.5085 16.5153L16.4379 16.8845ZM19.8901 8.1933L20.8195 8.56246L19.8901 8.1933ZM12.5364 20.7738L13.0025 19.8891L13.0025 19.8891L12.5364 20.7738ZM14.3634 20.7783L14.8222 21.6669H14.8222L14.3634 20.7783ZM9.21993 14.3116L9.79686 13.4948L9.79685 13.4948L9.21993 14.3116ZM9.68841 14.7801L10.5052 14.2031L10.5052 14.2031L9.68841 14.7801ZM3.22167 9.63656L2.33313 9.17776L2.33313 9.17776L3.22167 9.63656ZM3.22621 11.4636L4.11092 10.9975L4.11092 10.9975L3.22621 11.4636ZM19.6948 3.05907L20.0075 2.10922V2.10922L19.6948 3.05907ZM20.9409 4.30519L21.8908 3.9925V3.9925L20.9409 4.30519ZM13.2071 12.2071C13.5976 11.8166 13.5976 11.1834 13.2071 10.7929C12.8166 10.4024 12.1834 10.4024 11.7929 10.7929L13.2071 12.2071ZM9.47418 14.5258L8.76708 15.2329L9.47418 14.5258ZM15.4375 3.18049L6.74634 6.63275L7.48465 8.49149L16.1759 5.03922L15.4375 3.18049ZM6.77824 14.3942L7.92973 14.8271L8.63358 12.9551L7.48209 12.5221L6.77824 14.3942ZM9.17289 16.0703L9.60582 17.2218L11.4779 16.5179L11.0449 15.3664L9.17289 16.0703ZM17.3672 17.2537L20.8195 8.56246L18.9608 7.82414L15.5085 16.5153L17.3672 17.2537ZM9.60582 17.2218C10.0448 18.3892 10.3969 19.3285 10.7255 20.0138C11.0362 20.6618 11.4288 21.3205 12.0702 21.6585L13.0025 19.8891C13.0079 19.8919 12.9626 19.8704 12.8722 19.7502C12.78 19.6277 12.6676 19.4385 12.5289 19.1491C12.2474 18.562 11.9307 17.7223 11.4779 16.5179L9.60582 17.2218ZM15.5085 16.5153C15.0311 17.7171 14.6969 18.556 14.403 19.1426C14.0909 19.7654 13.9272 19.8782 13.9046 19.8898L14.8222 21.6669C15.4636 21.3357 15.867 20.6853 16.191 20.0387C16.5332 19.3558 16.9043 18.4192 17.3672 17.2537L15.5085 16.5153ZM12.0702 21.6585C12.931 22.112 13.9586 22.1128 14.8222 21.6669L13.9046 19.8898C13.6174 20.0381 13.2805 20.0356 13.0025 19.8891L12.0702 21.6585ZM7.92973 14.8271C8.46754 15.0293 8.56731 15.0749 8.64301 15.1284L9.79685 13.4948C9.46245 13.2586 9.07341 13.1204 8.63358 12.9551L7.92973 14.8271ZM11.0449 15.3664C10.8796 14.9266 10.7414 14.5375 10.5052 14.2031L8.87161 15.357C8.92508 15.4327 8.97069 15.5325 9.17289 16.0703L11.0449 15.3664ZM6.74634 6.63275C5.58078 7.09573 4.64418 7.46677 3.96135 7.80898C3.31475 8.13302 2.66432 8.53635 2.33313 9.17776L4.11021 10.0954C4.12184 10.0728 4.23465 9.90911 4.85743 9.59701C5.44397 9.30306 6.28287 8.96885 7.48465 8.49149L6.74634 6.63275ZM7.48209 12.5221C6.27766 12.0693 5.43797 11.7526 4.85086 11.4711C4.56152 11.3324 4.37234 11.22 4.24977 11.1278C4.12961 11.0374 4.10809 10.9921 4.11092 10.9975L2.34151 11.9298C2.67946 12.5712 3.33817 12.9638 3.98618 13.2745C4.67154 13.6031 5.61077 13.9552 6.77824 14.3942L7.48209 12.5221ZM2.33313 9.17776C1.88716 10.0414 1.88798 11.069 2.34151 11.9298L4.11092 10.9975C3.96444 10.7195 3.96186 10.3826 4.11021 10.0954L2.33313 9.17776ZM16.1759 5.03922C17.2638 4.60709 18.0166 4.30909 18.5833 4.1404C19.1777 3.9635 19.3549 3.99998 19.3821 4.00893L20.0075 2.10922C19.3551 1.89446 18.6579 2.03151 18.0128 2.22351C17.3401 2.42373 16.4887 2.76297 15.4375 3.18049L16.1759 5.03922ZM20.8195 8.56246C21.237 7.51133 21.5763 6.65988 21.7765 5.98721C21.9685 5.34213 22.1055 4.64487 21.8908 3.9925L19.9911 4.61787C20 4.64506 20.0365 4.82234 19.8596 5.41666C19.6909 5.9834 19.3929 6.73623 18.9608 7.82414L20.8195 8.56246ZM19.3821 4.00893C19.6707 4.10394 19.8961 4.32927 19.9911 4.61787L21.8908 3.9925C21.5973 3.10096 20.899 2.4027 20.0075 2.10922L19.3821 4.00893ZM8.643 15.1284C8.68736 15.1597 8.72885 15.1947 8.76708 15.2329L10.1813 13.8187C10.0628 13.7002 9.93422 13.5918 9.79686 13.4948L8.643 15.1284ZM8.76708 15.2329C8.8053 15.2711 8.84028 15.3126 8.87161 15.357L10.5052 14.2031C10.4082 14.0658 10.2998 13.9372 10.1813 13.8187L8.76708 15.2329ZM10.1813 15.2329L13.2071 12.2071L11.7929 10.7929L8.76708 13.8187L10.1813 15.2329Z" fill="#0B0D12"/>
</svg>
