<svg width="24" height="24" viewBox="0 0 24 24" fill="none" xmlns="http://www.w3.org/2000/svg">
<path d="M9.08788 6.73391L10.0061 7.13003V7.13003L9.08788 6.73391ZM5.3517 15.3941L4.43351 14.9979L5.3517 15.3941ZM9.56695 19.5884L9.15392 18.6777L9.56695 19.5884ZM10.6969 19.0759L10.2839 18.1652H10.2839L10.6969 19.0759ZM13.3031 19.0759L13.7161 18.1652H13.7161L13.3031 19.0759ZM14.4331 19.5884L14.02 20.4991L14.02 20.4991L14.4331 19.5884ZM18.6483 15.3941L17.7301 15.7902L18.6483 15.3941ZM14.9121 6.73391L13.9939 7.13003L14.9121 6.73391ZM18.6396 20.9501L18.3436 19.9949H18.3436L18.6396 20.9501ZM19.9458 19.6504L20.8985 19.9542V19.9542L19.9458 19.6504ZM11.6659 18.7067L11.4963 17.7212L11.4963 17.7212L11.6659 18.7067ZM12.3341 18.7067L12.5037 17.7212L12.5037 17.7212L12.3341 18.7067ZM4.05419 19.6504L3.10148 19.9542H3.10148L4.05419 19.6504ZM5.36041 20.9501L5.65637 19.9949H5.65637L5.36041 20.9501ZM11.1113 3.21171L10.6608 2.31896V2.31896L11.1113 3.21171ZM12.8887 3.21171L13.3392 2.31896L13.3392 2.31896L12.8887 3.21171ZM13 14C13 13.4477 12.5523 13 12 13C11.4477 13 11 13.4477 11 14H13ZM8.16968 6.33778L4.43351 14.9979L6.2699 15.7902L10.0061 7.13003L8.16968 6.33778ZM9.97997 20.4991L11.1099 19.9867L10.2839 18.1652L9.15392 18.6777L9.97997 20.4991ZM12.8901 19.9867L14.02 20.4991L14.8461 18.6777L13.7161 18.1652L12.8901 19.9867ZM19.5665 14.9979L15.8303 6.33778L13.9939 7.13003L17.7301 15.7902L19.5665 14.9979ZM14.02 20.4991C15.1658 21.0187 16.0863 21.4372 16.809 21.6915C17.4926 21.932 18.24 22.1208 18.9356 21.9053L18.3436 19.9949C18.3479 19.9936 18.2989 20.0105 18.1479 19.9891C17.994 19.9674 17.7783 19.9124 17.4728 19.8049C16.8529 19.5868 16.0278 19.2136 14.8461 18.6777L14.02 20.4991ZM17.7301 15.7902C18.2467 16.9875 18.6068 17.8246 18.8156 18.4529C19.0372 19.1197 19.0018 19.3193 18.9931 19.3465L20.8985 19.9542C21.1188 19.2635 20.9435 18.5143 20.7135 17.8222C20.4708 17.0916 20.0676 16.1595 19.5665 14.9979L17.7301 15.7902ZM18.9355 21.9053C19.8701 21.6157 20.6015 20.8856 20.8985 19.9542L18.9931 19.3465C18.8932 19.6598 18.649 19.9003 18.3436 19.9949L18.9355 21.9053ZM11.1099 19.9867C11.6372 19.7475 11.7421 19.7083 11.8355 19.6922L11.4963 17.7212C11.0907 17.791 10.7159 17.9693 10.2839 18.1652L11.1099 19.9867ZM13.7161 18.1652C13.2841 17.9693 12.9093 17.791 12.5037 17.7212L12.1645 19.6922C12.2579 19.7083 12.3628 19.7475 12.8901 19.9867L13.7161 18.1652ZM4.43351 14.9979C3.93239 16.1595 3.52925 17.0916 3.28647 17.8222C3.05648 18.5143 2.88116 19.2635 3.10148 19.9542L5.00691 19.3465C4.99823 19.3193 4.96283 19.1197 5.18442 18.4529C5.39323 17.8246 5.75334 16.9875 6.2699 15.7902L4.43351 14.9979ZM9.15392 18.6777C7.97219 19.2136 7.1471 19.5868 6.5272 19.8049C6.22166 19.9124 6.00602 19.9674 5.85207 19.9891C5.70112 20.0105 5.6521 19.9936 5.65637 19.9949L5.06445 21.9053C5.75999 22.1208 6.50739 21.932 7.19099 21.6915C7.91366 21.4372 8.83419 21.0187 9.97997 20.4991L9.15392 18.6777ZM3.10148 19.9542C3.39854 20.8856 4.12987 21.6157 5.06445 21.9053L5.65637 19.9949C5.35096 19.9003 5.10684 19.6598 5.00691 19.3465L3.10148 19.9542ZM10.0061 7.13003C10.4737 6.04616 10.7982 5.29634 11.0823 4.77145C11.3801 4.22125 11.5336 4.11874 11.5619 4.10447L10.6608 2.31896C10.0449 2.62978 9.64643 3.22267 9.32342 3.81944C8.98672 4.44152 8.62161 5.29025 8.16968 6.33778L10.0061 7.13003ZM15.8303 6.33778C15.3784 5.29025 15.0133 4.44152 14.6766 3.81944C14.3536 3.22267 13.9551 2.62978 13.3392 2.31896L12.4381 4.10447C12.4664 4.11874 12.6199 4.22125 12.9177 4.77145C13.2018 5.29634 13.5263 6.04616 13.9939 7.13003L15.8303 6.33778ZM11.5619 4.10447C11.8379 3.96518 12.1621 3.96518 12.4381 4.10447L13.3392 2.31896C12.4965 1.89368 11.5035 1.89368 10.6608 2.31896L11.5619 4.10447ZM11.8355 19.6922C11.89 19.6828 11.945 19.6782 12 19.6782V17.6782C11.8315 17.6782 11.663 17.6925 11.4963 17.7212L11.8355 19.6922ZM12 19.6782C12.055 19.6782 12.11 19.6828 12.1645 19.6922L12.5037 17.7212C12.337 17.6925 12.1685 17.6782 12 17.6782V19.6782ZM13 18.6782V14H11V18.6782H13Z" fill="#0B0D12"/>
</svg>
