<svg width="24" height="24" viewBox="0 0 24 24" fill="none" xmlns="http://www.w3.org/2000/svg">
<path d="M17.2661 9.08788L16.87 10.0061L17.2661 9.08788ZM8.60593 5.3517L9.00205 4.43351V4.43351L8.60593 5.3517ZM4.41161 9.56695L5.32233 9.15392L5.32233 9.15392L4.41161 9.56695ZM4.92405 10.6969L5.83477 10.2839V10.2839L4.92405 10.6969ZM4.92405 13.3031L5.83477 13.7161V13.7161L4.92405 13.3031ZM4.41161 14.4331L3.50089 14.02L3.50089 14.02L4.41161 14.4331ZM8.60592 18.6483L8.2098 17.7301V17.7301L8.60592 18.6483ZM17.2661 14.9121L17.6622 15.8303V15.8303L17.2661 14.9121ZM3.0499 18.6396L4.0051 18.3436L4.0051 18.3436L3.0499 18.6396ZM4.34963 19.9458L4.04575 20.8985H4.04575L4.34963 19.9458ZM5.2933 11.6659L6.27881 11.4963L6.27881 11.4963L5.2933 11.6659ZM5.2933 12.3341L6.27881 12.5037L6.27881 12.5037L5.2933 12.3341ZM4.34963 4.05419L4.04575 3.10148L4.04575 3.10148L4.34963 4.05419ZM3.0499 5.36041L4.0051 5.65637L4.0051 5.65637L3.0499 5.36041ZM20.7883 11.1113L21.681 10.6608L20.7883 11.1113ZM20.7883 12.8887L21.681 13.3392V13.3392L20.7883 12.8887ZM10 13C10.5523 13 11 12.5523 11 12C11 11.4477 10.5523 11 10 11V13ZM17.6622 8.16968L9.00205 4.43351L8.2098 6.2699L16.87 10.0061L17.6622 8.16968ZM3.50089 9.97997L4.01333 11.1099L5.83477 10.2839L5.32233 9.15392L3.50089 9.97997ZM4.01333 12.8901L3.50089 14.02L5.32233 14.8461L5.83477 13.7161L4.01333 12.8901ZM9.00205 19.5665L17.6622 15.8303L16.87 13.9939L8.2098 17.7301L9.00205 19.5665ZM3.50089 14.02C2.98126 15.1658 2.56276 16.0863 2.3085 16.809C2.06798 17.4926 1.87919 18.24 2.0947 18.9355L4.0051 18.3436C4.00642 18.3479 3.98952 18.2989 4.01087 18.1479C4.03265 17.994 4.08763 17.7783 4.19513 17.4728C4.41323 16.8529 4.7864 16.0278 5.32233 14.8461L3.50089 14.02ZM8.2098 17.7301C7.01246 18.2467 6.17545 18.6068 5.54708 18.8156C4.88026 19.0372 4.6807 19.0018 4.6535 18.9931L4.04575 20.8985C4.73653 21.1188 5.48567 20.9435 6.17778 20.7135C6.90835 20.4708 7.84051 20.0676 9.00205 19.5665L8.2098 17.7301ZM2.0947 18.9355C2.38427 19.8701 3.11442 20.6015 4.04575 20.8985L4.6535 18.9931C4.34018 18.8932 4.09973 18.649 4.0051 18.3436L2.0947 18.9355ZM4.01333 11.1099C4.25248 11.6372 4.29171 11.7421 4.30779 11.8355L6.27881 11.4963C6.209 11.0907 6.03069 10.7159 5.83477 10.2839L4.01333 11.1099ZM5.83477 13.7161C6.03069 13.2841 6.209 12.9093 6.27881 12.5037L4.30779 12.1645C4.29171 12.2579 4.25248 12.3628 4.01333 12.8901L5.83477 13.7161ZM9.00205 4.43351C7.84051 3.93239 6.90836 3.52925 6.17779 3.28647C5.48567 3.05648 4.73653 2.88116 4.04575 3.10148L4.6535 5.00691C4.6807 4.99823 4.88026 4.96283 5.54708 5.18442C6.17545 5.39323 7.01246 5.75334 8.2098 6.2699L9.00205 4.43351ZM5.32233 9.15392C4.7864 7.97219 4.41323 7.1471 4.19513 6.52719C4.08763 6.22166 4.03265 6.00602 4.01087 5.85207C3.98952 5.70112 4.00642 5.6521 4.0051 5.65637L2.0947 5.06445C1.87919 5.75999 2.06798 6.50739 2.3085 7.19099C2.56276 7.91366 2.98126 8.83419 3.50089 9.97997L5.32233 9.15392ZM4.04575 3.10148C3.11442 3.39854 2.38427 4.12987 2.0947 5.06445L4.0051 5.65637C4.09973 5.35096 4.34019 5.10684 4.6535 5.00691L4.04575 3.10148ZM16.87 10.0061C17.9538 10.4737 18.7037 10.7982 19.2286 11.0823C19.7788 11.3801 19.8813 11.5336 19.8955 11.5619L21.681 10.6608C21.3702 10.0449 20.7773 9.64643 20.1806 9.32342C19.5585 8.98672 18.7098 8.62161 17.6622 8.16968L16.87 10.0061ZM17.6622 15.8303C18.7098 15.3784 19.5585 15.0133 20.1806 14.6766C20.7773 14.3536 21.3702 13.9551 21.681 13.3392L19.8955 12.4381C19.8813 12.4664 19.7788 12.6199 19.2286 12.9177C18.7037 13.2018 17.9538 13.5263 16.87 13.9939L17.6622 15.8303ZM19.8955 11.5619C20.0348 11.8379 20.0348 12.1621 19.8955 12.4381L21.681 13.3392C22.1063 12.4965 22.1063 11.5035 21.681 10.6608L19.8955 11.5619ZM4.30779 11.8355C4.31716 11.89 4.32184 11.945 4.32184 12L6.32184 12C6.32184 11.8315 6.3075 11.663 6.27881 11.4963L4.30779 11.8355ZM4.32184 12C4.32184 12.055 4.31716 12.11 4.30779 12.1645L6.27881 12.5037C6.30749 12.337 6.32184 12.1685 6.32184 12L4.32184 12ZM5.32184 13H10V11H5.32184V13Z" fill="#0B0D12"/>
</svg>
