<svg width="24" height="24" viewBox="0 0 24 24" fill="none" xmlns="http://www.w3.org/2000/svg">
<path d="M19.1971 4.19707L18.4899 4.90418L18.4899 4.90418L19.1971 4.19707ZM19.8029 4.80296L20.5101 4.09586L20.51 4.09586L19.8029 4.80296ZM19.8029 8.19707L20.5101 8.90418V8.90418L19.8029 8.19707ZM15.8029 4.19707L15.0958 3.48997V3.48997L15.8029 4.19707ZM15.3139 15.601L14.3947 15.2071L15.3139 15.601ZM12.5613 18.2143L12.2156 17.2759L12.5613 18.2143ZM5 21L4.29289 21.7071C4.5687 21.9829 4.9797 22.0732 5.34571 21.9384L5 21ZM8.39899 8.68616L8.00507 7.76702L8.00507 7.76702L8.39899 8.68616ZM5.78576 11.4387L6.7241 11.7844H6.7241L5.78576 11.4387ZM3 19L2.06166 18.6543C1.92681 19.0203 2.01709 19.4313 2.29289 19.7071L3 19ZM10.7071 14.7071C11.0976 14.3166 11.0976 13.6834 10.7071 13.2929C10.3166 12.9024 9.68342 12.9024 9.29289 13.2929L10.7071 14.7071ZM14.6417 16.944L13.8449 16.3398L13.8449 16.3398L14.6417 16.944ZM13.9374 17.6127L14.4994 18.4398L14.4994 18.4398L13.9374 17.6127ZM20.8053 6.03649L19.8542 6.34551V6.34551L20.8053 6.03649ZM20.8053 6.96354L19.8542 6.65453L19.8542 6.65453L20.8053 6.96354ZM7.05602 9.3583L7.66022 10.1551H7.66022L7.05602 9.3583ZM6.38732 10.0626L7.21442 10.6247L7.21442 10.6247L6.38732 10.0626ZM17.9635 3.19475L18.2725 2.2437L18.2725 2.2437L17.9635 3.19475ZM17.0365 3.19475L16.7275 2.2437L16.7275 2.2437L17.0365 3.19475ZM18.4899 4.90418L19.0958 5.51007L20.51 4.09586L19.9042 3.48997L18.4899 4.90418ZM19.0958 7.48997L16.7929 9.79291L18.2071 11.2071L20.5101 8.90418L19.0958 7.48997ZM15.0958 3.48997L12.7929 5.79291L14.2071 7.20712L16.51 4.90418L15.0958 3.48997ZM12.7929 7.20712L16.7929 11.2071L18.2071 9.79291L14.2071 5.79291L12.7929 7.20712ZM16.5809 10.1061L14.3947 15.2071L16.233 15.9949L18.4191 10.8939L16.5809 10.1061ZM12.2156 17.2759L4.65429 20.0617L5.34571 21.9384L12.907 19.1526L12.2156 17.2759ZM8.79291 9.60531L13.8939 7.41916L13.1061 5.58087L8.00507 7.76702L8.79291 9.60531ZM4.84741 11.093L2.06166 18.6543L3.93834 19.3457L6.7241 11.7844L4.84741 11.093ZM2.29289 19.7071L3.29289 20.7071L4.70711 19.2929L3.70711 18.2929L2.29289 19.7071ZM3.29289 20.7071L4.29289 21.7071L5.70711 20.2929L4.70711 19.2929L3.29289 20.7071ZM4.70711 20.7071L10.7071 14.7071L9.29289 13.2929L3.29289 19.2929L4.70711 20.7071ZM14.3947 15.2071C14.0752 15.9527 13.9757 16.1673 13.8449 16.3398L15.4385 17.5482C15.752 17.1349 15.9525 16.6494 16.233 15.9949L14.3947 15.2071ZM12.907 19.1526C13.5752 18.9064 14.0704 18.7314 14.4994 18.4398L13.3753 16.7856C13.1962 16.9073 12.9768 16.9955 12.2156 17.2759L12.907 19.1526ZM13.8449 16.3398C13.7136 16.5129 13.555 16.6635 13.3753 16.7856L14.4994 18.4398C14.8588 18.1956 15.176 17.8944 15.4385 17.5482L13.8449 16.3398ZM19.0958 5.51007C19.4045 5.81875 19.593 6.00828 19.7228 6.16123C19.7833 6.23248 19.8164 6.27909 19.8349 6.30899C19.8437 6.32321 19.8485 6.33257 19.8509 6.33776C19.8533 6.34275 19.8541 6.34508 19.8542 6.34551L21.7563 5.72748C21.6436 5.38068 21.45 5.10549 21.2475 4.86687C21.0525 4.63718 20.7954 4.3812 20.5101 4.09586L19.0958 5.51007ZM20.5101 8.90418C20.7954 8.61884 21.0525 8.36285 21.2475 8.13316C21.45 7.89454 21.6436 7.61936 21.7563 7.27256L19.8542 6.65453C19.8541 6.65496 19.8533 6.65728 19.8509 6.66227C19.8485 6.66747 19.8437 6.67682 19.8349 6.69105C19.8164 6.72095 19.7833 6.76756 19.7228 6.83881C19.593 6.99175 19.4045 7.18129 19.0958 7.48997L20.5101 8.90418ZM19.8542 6.34551C19.8868 6.44593 19.8868 6.5541 19.8542 6.65453L21.7563 7.27256C21.9195 6.77045 21.9195 6.22958 21.7563 5.72747L19.8542 6.34551ZM8.00507 7.76702C7.3506 8.04751 6.86516 8.24805 6.45181 8.56147L7.66022 10.1551C7.83276 10.0243 8.04736 9.92483 8.79291 9.60531L8.00507 7.76702ZM6.7241 11.7844C7.00452 11.0232 7.09272 10.8038 7.21442 10.6247L5.56022 9.50059C5.26866 9.92963 5.09358 10.4248 4.84741 11.093L6.7241 11.7844ZM6.45181 8.56147C6.10558 8.82401 5.80444 9.1412 5.56022 9.50059L7.21442 10.6247C7.33653 10.445 7.4871 10.2864 7.66022 10.1551L6.45181 8.56147ZM19.9042 3.48997C19.6188 3.20462 19.3628 2.94754 19.1331 2.75255C18.8945 2.54997 18.6193 2.35638 18.2725 2.2437L17.6545 4.14581C17.6549 4.14595 17.6573 4.14671 17.6623 4.14907C17.6674 4.15153 17.6768 4.15634 17.691 4.16514C17.7209 4.18365 17.7675 4.21674 17.8388 4.27722C17.9917 4.40707 18.1813 4.5955 18.4899 4.90418L19.9042 3.48997ZM16.51 4.90418C16.8187 4.5955 17.0083 4.40707 17.1612 4.27722C17.2325 4.21674 17.2791 4.18365 17.309 4.16514C17.3232 4.15634 17.3326 4.15153 17.3377 4.14907C17.3427 4.14671 17.3451 4.14595 17.3455 4.14581L16.7275 2.2437C16.3807 2.35638 16.1055 2.54997 15.8669 2.75255C15.6372 2.94754 15.3812 3.20462 15.0958 3.48997L16.51 4.90418ZM18.2725 2.2437C17.7704 2.08055 17.2296 2.08055 16.7275 2.2437L17.3455 4.14581C17.4459 4.11318 17.5541 4.11318 17.6545 4.14581L18.2725 2.2437ZM10 14V16C11.1046 16 12 15.1046 12 14H10ZM10 14H8C8 15.1046 8.89543 16 10 16V14ZM10 14V12C8.89543 12 8 12.8954 8 14H10ZM10 14H12C12 12.8954 11.1046 12 10 12V14Z" fill="#0B0D12"/>
</svg>
