<svg width="24" height="24" viewBox="0 0 24 24" fill="none" xmlns="http://www.w3.org/2000/svg">
<path d="M19.5 9.50001L18.7929 8.7929V8.7929L19.5 9.50001ZM3.93726 15.0628L3.23015 14.3556L3.23015 14.3556L3.93726 15.0628ZM19.5 4.50001L20.2071 3.7929V3.7929L19.5 4.50001ZM7.63846 20.9448L7.87191 21.9171H7.87191L7.63846 20.9448ZM8.21657 20.7053L8.73907 21.5579H8.73907L8.21657 20.7053ZM3.16349 20.181L2.27248 20.635L2.27248 20.635L3.16349 20.181ZM3.81901 20.8365L3.36502 21.7275H3.36502L3.81901 20.8365ZM3.05526 16.3615L2.08289 16.1281L2.08289 16.1281L3.05526 16.3615ZM3.29472 15.7834L4.14736 16.3059L4.14736 16.3059L3.29472 15.7834ZM13.7071 5.2929C13.3166 4.90238 12.6834 4.90238 12.2929 5.2929C11.9024 5.68343 11.9024 6.31659 12.2929 6.70712L13.7071 5.2929ZM17.2929 11.7071C17.6834 12.0976 18.3166 12.0976 18.7071 11.7071C19.0976 11.3166 19.0976 10.6834 18.7071 10.2929L17.2929 11.7071ZM2 17.3255V18.6H4V17.3255H2ZM5.4 22H6.67452V20H5.4V22ZM9.64436 20.7699L20.2071 10.2071L18.7929 8.7929L8.23015 19.3556L9.64436 20.7699ZM13.7929 3.79291L3.23015 14.3556L4.64436 15.7699L15.2071 5.20712L13.7929 3.79291ZM20.2071 3.7929C18.4359 2.02167 15.5641 2.02167 13.7929 3.79291L15.2071 5.20712C16.1973 4.21693 17.8027 4.21693 18.7929 5.20712L20.2071 3.7929ZM20.2071 10.2071C21.9783 8.43588 21.9783 5.56414 20.2071 3.7929L18.7929 5.20712C19.7831 6.19731 19.7831 7.80272 18.7929 8.7929L20.2071 10.2071ZM6.67452 22C7.1161 22 7.49988 22.0064 7.87191 21.9171L7.40502 19.9724C7.3167 19.9936 7.2113 20 6.67452 20V22ZM8.23015 19.3556C7.85059 19.7352 7.77152 19.8052 7.69407 19.8527L8.73907 21.5579C9.06529 21.358 9.33212 21.0821 9.64436 20.7699L8.23015 19.3556ZM7.87191 21.9171C8.17802 21.8436 8.47065 21.7224 8.73907 21.5579L7.69407 19.8527C7.6046 19.9075 7.50705 19.9479 7.40502 19.9724L7.87191 21.9171ZM2 18.6C2 19.0036 1.99922 19.3663 2.02376 19.6666C2.04925 19.9786 2.10694 20.3101 2.27248 20.635L4.0545 19.727C4.05429 19.7266 4.05318 19.7244 4.05133 19.7192C4.04939 19.7138 4.04618 19.7038 4.04235 19.6875C4.03429 19.6533 4.02473 19.5969 4.01712 19.5038C4.00078 19.3038 4 19.0366 4 18.6H2ZM5.4 20C4.96346 20 4.6962 19.9992 4.49623 19.9829C4.40308 19.9753 4.34673 19.9657 4.3125 19.9577C4.29622 19.9538 4.2862 19.9506 4.28079 19.9487C4.27559 19.9468 4.27341 19.9457 4.273 19.9455L3.36502 21.7275C3.68993 21.8931 4.0214 21.9508 4.33337 21.9763C4.63367 22.0008 4.99646 22 5.4 22V20ZM2.27248 20.635C2.51217 21.1054 2.89462 21.4878 3.36502 21.7275L4.27301 19.9455C4.17892 19.8976 4.10243 19.8211 4.0545 19.727L2.27248 20.635ZM4 17.3255C4 16.7887 4.00643 16.6833 4.02763 16.595L2.08289 16.1281C1.99357 16.5001 2 16.8839 2 17.3255H4ZM3.23015 14.3556C2.91791 14.6679 2.64199 14.9347 2.44208 15.2609L4.14736 16.3059C4.19482 16.2285 4.26481 16.1494 4.64436 15.7699L3.23015 14.3556ZM4.02763 16.595C4.05213 16.493 4.09253 16.3954 4.14736 16.3059L2.44208 15.2609C2.27759 15.5294 2.15638 15.822 2.08289 16.1281L4.02763 16.595ZM12.2929 6.70712L17.2929 11.7071L18.7071 10.2929L13.7071 5.2929L12.2929 6.70712Z" fill="#0B0D12"/>
</svg>
