<svg xmlns="http://www.w3.org/2000/svg" fill="#0EA306" viewBox="0 0 600 600">
  <g style="stroke-width:1.05103">
    <path d="M248.073-12.794c-72.133 0-131.34 59.251-131.34 131.392 0 38.922 17.255 74.072 44.455 98.21C58.5 254.847-14.606 358.213-14.606 477.845a35.038 35.038 0 0 0 35.035 35.035h168.529c6.888-25.462 17.92-49.15 32.459-70.068H58.236c15.495-98.421 95.15-171.553 189.837-171.553 13.123 0 25.94 1.451 38.355 4.133 4.263-42.808 34.596-78.309 74.73-90.323 11.58-19.541 18.254-42.276 18.254-66.472 0-72.14-59.207-131.392-131.34-131.392zm0 70.07c34.243 0 61.27 27.028 61.27 61.322 0 34.295-27.027 61.328-61.27 61.328S186.8 152.893 186.8 118.598c0-34.294 27.029-61.323 61.272-61.323z" style="color:#0ea306;fill:#0ea306;stroke-width:1.05103;stroke-linecap:round;stroke-linejoin:round;-inkscape-stroke:none;paint-order:stroke fill markers" transform="matrix(.95173 0 0 .95116 13.901 12.169)"/>
    <path d="M405.68 197.476c-57.706 0-105.071 47.402-105.071 105.115 0 31.137 13.803 59.257 35.563 78.566-82.15 30.433-140.635 113.126-140.635 208.832a28.03 28.03 0 0 0 28.027 28.027h364.231a28.03 28.03 0 0 0 28.028-28.027c0-95.706-58.483-178.398-140.633-208.832 21.76-19.31 35.562-47.43 35.562-78.566 0-57.713-47.366-105.115-105.072-105.115zm0 56.056c27.395 0 49.016 21.623 49.016 49.059 0 27.436-21.621 49.062-49.016 49.062-27.394 0-49.017-21.626-49.017-49.062 0-27.436 21.623-49.059 49.017-49.059zm0 171.187c75.75 0 139.474 58.505 151.87 137.242H253.81c12.397-78.737 76.12-137.242 151.87-137.242Z" style="color:#0ea306;fill:#0ea306;stroke-width:1.05103;stroke-linecap:round;stroke-linejoin:round;-inkscape-stroke:none;paint-order:stroke fill markers" transform="matrix(.95173 0 0 .95116 13.901 12.169)"/>
  </g>
</svg>