<svg width="24" height="24" viewBox="0 0 24 24" fill="none" xmlns="http://www.w3.org/2000/svg">
<path d="M16 3H16.5C18.9853 3 21 5.01472 21 7.5V8M15 7C16.1046 7 17 7.89543 17 9M16.2045 20.941C9.34227 20.0978 3.9022 14.6577 3.05904 7.79555C3.00731 7.37452 2.98144 7.164 3.01523 6.82792C3.05574 6.42489 3.25062 5.85886 3.46679 5.51631C3.64706 5.23065 3.85318 5.02453 4.26543 4.61228C4.96304 3.91467 5.31185 3.56587 5.71147 3.35355C6.26605 3.05891 6.8986 2.94421 7.52132 3.02536C7.97005 3.08384 8.41912 3.28796 9.31726 3.69621L9.41898 3.74245C10.169 4.08335 10.544 4.2538 10.7965 4.5003C11.2147 4.90833 11.4352 5.47764 11.4012 6.06086C11.3806 6.4132 11.2184 6.7918 10.8938 7.54902L10.6467 8.12577C10.5558 8.33787 10.5368 8.5739 10.5928 8.79777C11.1602 11.0675 12.9325 12.8398 15.2022 13.4072C15.4261 13.4632 15.6621 13.4442 15.8742 13.3534L16.451 13.1062C17.2082 12.7816 17.5868 12.6194 17.9391 12.5988C18.5224 12.5648 19.0917 12.7853 19.4997 13.2035C19.7462 13.456 19.9167 13.831 20.2576 14.581L20.3038 14.6827C20.712 15.5809 20.9162 16.03 20.9746 16.4787C21.0558 17.1014 20.9411 17.7339 20.6464 18.2885C20.4341 18.6882 20.0853 19.037 19.3877 19.7346C18.9755 20.1468 18.7693 20.3529 18.4837 20.5332C18.1411 20.7494 17.5751 20.9443 17.1721 20.9848C16.836 21.0186 16.6255 20.9927 16.2045 20.941Z" stroke="#0B0D12" stroke-width="2" stroke-linecap="round" stroke-linejoin="round"/>
</svg>
