<svg width="24" height="24" viewBox="0 0 24 24" fill="none" xmlns="http://www.w3.org/2000/svg">
<path d="M18.2426 14.2426C17.8521 14.6332 17.8521 15.2663 18.2426 15.6569C18.6332 16.0474 19.2663 16.0474 19.6569 15.6569L18.2426 14.2426ZM8.34315 4.34315C7.95262 4.73367 7.95262 5.36683 8.34315 5.75736C8.73367 6.14788 9.36684 6.14788 9.75736 5.75736L8.34315 4.34315ZM14 10H13C13 10.2652 13.1054 10.5196 13.2929 10.7071L14 10ZM15.2929 12.7071C15.6834 13.0976 16.3166 13.0976 16.7071 12.7071C17.0976 12.3166 17.0976 11.6834 16.7071 11.2929L15.2929 12.7071ZM15 7C15 6.44772 14.5523 6 14 6C13.4477 6 13 6.44772 13 7H15ZM11.803 20.9606L11.9249 19.9681H11.9249L11.803 20.9606ZM3.03936 12.197L4.0319 12.0751L3.03936 12.197ZM7.21151 9.46414L7.62531 8.55377H7.62531L7.21151 9.46414ZM7.27932 9.49496L7.69312 8.5846L7.27932 9.49496ZM8.26255 12.0327L7.34341 11.6388L8.26255 12.0327ZM8.09777 12.4172L9.01691 12.8111L9.01691 12.8111L8.09777 12.4172ZM11.5828 15.9022L11.9767 16.8214L11.9767 16.8214L11.5828 15.9022ZM11.9673 15.7374L12.3612 16.6566L11.9673 15.7374ZM14.505 16.7207L15.4154 16.3069L15.4154 16.3069L14.505 16.7207ZM14.5359 16.7885L13.6255 17.2023L13.6255 17.2023L14.5359 16.7885ZM14.9831 17.9858L15.9747 17.8566L15.9747 17.8566L14.9831 17.9858ZM13.9251 20.1564L14.6323 20.8635H14.6323L13.9251 20.1564ZM14.7643 19.1924L13.8812 18.7232L13.8812 18.7232L14.7643 19.1924ZM12.9594 15.3992L12.9011 14.4009L12.9594 15.3992ZM13.9998 15.8023L13.2841 16.5007L13.9998 15.8023ZM11.1348 15.9381L10.8923 16.9083H10.8923L11.1348 15.9381ZM8.06187 12.8652L9.03201 12.6226V12.6226L8.06187 12.8652ZM8.1977 10.0002L7.49927 10.7159L7.49927 10.7159L8.1977 10.0002ZM8.60079 11.0406L9.59909 11.0989L8.60079 11.0406ZM3.84362 10.0749L4.55073 10.782L4.55073 10.782L3.84362 10.0749ZM4.80765 9.2357L5.27683 10.1188L4.80765 9.2357ZM6.01422 9.01691L5.88499 10.0085H5.88499L6.01422 9.01691ZM3.01015 11.5519L2.01517 11.4519H2.01517L3.01015 11.5519ZM3.31119 10.6775L2.46551 10.1439L2.46551 10.1439L3.31119 10.6775ZM12.4481 20.9898L12.5481 21.9848H12.5481L12.4481 20.9898ZM13.3225 20.6888L13.8561 21.5345L13.8562 21.5345L13.3225 20.6888ZM14 4C17.3137 4 20 6.68629 20 10H22C22 5.58172 18.4183 2 14 2V4ZM20 10C20 11.6571 19.3295 13.1558 18.2426 14.2426L19.6569 15.6569C21.1035 14.2102 22 12.2089 22 10H20ZM9.75736 5.75736C10.8442 4.67048 12.3429 4 14 4V2C11.7911 2 9.78977 2.89653 8.34315 4.34315L9.75736 5.75736ZM13.2929 10.7071L15.2929 12.7071L16.7071 11.2929L14.7071 9.29289L13.2929 10.7071ZM15 10V7H13V10H15ZM11.9249 19.9681C7.80574 19.462 4.53802 16.1943 4.0319 12.0751L2.04683 12.319C2.66491 17.3494 6.65061 21.3351 11.681 21.9532L11.9249 19.9681ZM6.7977 10.3745L6.86552 10.4053L7.69312 8.5846L7.62531 8.55377L6.7977 10.3745ZM7.34341 11.6388L7.17862 12.0233L9.01691 12.8111L9.1817 12.4266L7.34341 11.6388ZM11.9767 16.8214L12.3612 16.6566L11.5734 14.8183L11.1889 14.9831L11.9767 16.8214ZM13.5947 17.1345L13.6255 17.2023L15.4462 16.3747L15.4154 16.3069L13.5947 17.1345ZM13.6255 17.2023C13.925 17.8612 13.9765 18 13.9915 18.115L15.9747 17.8566C15.9117 17.3732 15.691 16.9133 15.4462 16.3747L13.6255 17.2023ZM14.6323 20.8635C15.0506 20.4451 15.4187 20.092 15.6474 19.6615L13.8812 18.7232C13.8268 18.8256 13.7298 18.9375 13.218 19.4493L14.6323 20.8635ZM13.9915 18.115C14.0187 18.3243 13.9802 18.5368 13.8812 18.7232L15.6474 19.6615C15.9412 19.1084 16.0556 18.4776 15.9747 17.8566L13.9915 18.115ZM12.3612 16.6566C12.6247 16.5437 12.7818 16.4768 12.9022 16.4336C13.0152 16.3931 13.0354 16.3965 13.0177 16.3975L12.9011 14.4009C12.4476 14.4274 11.9994 14.6357 11.5734 14.8183L12.3612 16.6566ZM15.4154 16.3069C15.2236 15.8849 15.0328 15.429 14.7155 15.1039L13.2841 16.5007C13.2718 16.4881 13.2889 16.4991 13.3451 16.6052C13.405 16.7183 13.476 16.8735 13.5947 17.1345L15.4154 16.3069ZM13.0177 16.3975C13.1173 16.3917 13.2145 16.4294 13.2841 16.5007L14.7155 15.1039C14.2411 14.6178 13.5792 14.3613 12.9011 14.4009L13.0177 16.3975ZM10.8923 16.9083C11.2536 16.9986 11.6345 16.9681 11.9767 16.8214L11.1889 14.9831C11.2484 14.9576 11.3146 14.9523 11.3774 14.968L10.8923 16.9083ZM7.09173 13.1077C7.55959 14.9792 9.02083 16.4404 10.8923 16.9083L11.3774 14.968C10.2225 14.6793 9.32073 13.7775 9.03201 12.6226L7.09173 13.1077ZM7.17862 12.0233C7.03193 12.3655 7.00141 12.7464 7.09173 13.1077L9.03201 12.6226C9.04771 12.6854 9.0424 12.7516 9.01691 12.8111L7.17862 12.0233ZM6.86552 10.4053C7.12651 10.524 7.2817 10.595 7.39478 10.6549C7.50086 10.7111 7.51195 10.7282 7.49927 10.7159L8.89612 9.28451C8.57098 8.96721 8.1151 8.7764 7.69312 8.5846L6.86552 10.4053ZM9.1817 12.4266C9.36429 12.0006 9.57261 11.5524 9.59909 11.0989L7.60249 10.9823C7.60352 10.9646 7.60691 10.9848 7.56638 11.0978C7.52317 11.2182 7.45634 11.3753 7.34341 11.6388L9.1817 12.4266ZM7.49927 10.7159C7.57065 10.7855 7.6083 10.8827 7.60249 10.9823L9.59909 11.0989C9.63868 10.4208 9.38223 9.7589 8.89612 9.28451L7.49927 10.7159ZM4.55073 10.782C5.06253 10.2702 5.17442 10.1732 5.27683 10.1188L4.33847 8.3526C3.90804 8.58128 3.55486 8.9494 3.13652 9.36775L4.55073 10.782ZM7.62531 8.55377C7.08671 8.30895 6.62676 8.08828 6.14344 8.02529L5.88499 10.0085C5.99998 10.0235 6.13879 10.075 6.7977 10.3745L7.62531 8.55377ZM5.27683 10.1188C5.46318 10.0198 5.67574 9.98125 5.88499 10.0085L6.14344 8.02529C5.5224 7.94436 4.89155 8.05875 4.33847 8.3526L5.27683 10.1188ZM4.0319 12.0751C3.99691 11.7904 3.9951 11.7519 4.00514 11.652L2.01517 11.4519C1.98016 11.8001 2.01283 12.0423 2.04683 12.319L4.0319 12.0751ZM3.13652 9.36775C2.88347 9.6208 2.65717 9.84015 2.46551 10.1439L4.15688 11.2112C4.20558 11.1341 4.25411 11.0786 4.55073 10.782L3.13652 9.36775ZM4.00514 11.652C4.01665 11.5375 4.09546 11.3086 4.15688 11.2112L2.46551 10.1439C2.2387 10.5033 2.05767 11.0291 2.01517 11.4519L4.00514 11.652ZM11.681 21.9532C11.9577 21.9872 12.1999 22.0198 12.5481 21.9848L12.348 19.9949C12.2481 20.0049 12.2096 20.0031 11.9249 19.9681L11.681 21.9532ZM13.218 19.4493C12.9214 19.7459 12.8659 19.7944 12.7888 19.8431L13.8562 21.5345C14.1598 21.3428 14.3792 21.1165 14.6323 20.8635L13.218 19.4493ZM12.5481 21.9848C12.9709 21.9423 13.4967 21.7613 13.8561 21.5345L12.7888 19.8431C12.6914 19.9045 12.4625 19.9834 12.348 19.9949L12.5481 21.9848Z" fill="#0B0D12"/>
</svg>
