<svg width="24" height="24" viewBox="0 0 24 24" fill="none" xmlns="http://www.w3.org/2000/svg">
<path d="M3.05904 7.79555C3.9022 14.6577 9.34227 20.0978 16.2045 20.941C16.6255 20.9927 16.836 21.0186 17.1721 20.9848C17.5751 20.9443 18.1411 20.7494 18.4837 20.5332C18.7693 20.3529 18.9755 20.1468 19.3877 19.7346C20.0853 19.037 20.4341 18.6882 20.6464 18.2885C20.9411 17.7339 21.0558 17.1014 20.9746 16.4787C20.9162 16.0299 20.712 15.5809 20.3038 14.6827L20.2576 14.581C19.9167 13.831 19.7462 13.456 19.4997 13.2035C19.0917 12.7853 18.5224 12.5648 17.9391 12.5988C17.5868 12.6194 17.2082 12.7816 16.451 13.1062L15.8742 13.3534C15.6621 13.4442 15.4261 13.4632 15.2022 13.4072C12.9325 12.8398 11.1602 11.0675 10.5928 8.79777C10.5368 8.5739 10.5558 8.33787 10.6467 8.12577L10.8938 7.54902C11.2184 6.7918 11.3806 6.4132 11.4012 6.06086C11.4352 5.47764 11.2147 4.90833 10.7965 4.5003C10.544 4.2538 10.169 4.08335 9.41898 3.74245L9.31726 3.69621C8.41912 3.28796 7.97005 3.08384 7.52132 3.02536C6.8986 2.94421 6.26605 3.05891 5.71147 3.35355C5.31185 3.56587 4.96304 3.91467 4.26543 4.61228C3.85318 5.02453 3.64706 5.23065 3.46679 5.51631C3.25062 5.85886 3.05574 6.4249 3.01523 6.82792C2.98144 7.164 3.00731 7.37452 3.05904 7.79555Z" stroke="#0B0D12" stroke-width="2" stroke-linecap="round" stroke-linejoin="round"/>
</svg>
