<svg width="24" height="24" viewBox="0 0 24 24" fill="none" xmlns="http://www.w3.org/2000/svg">
<path d="M16.2045 20.941L16.3264 19.9484H16.3264L16.2045 20.941ZM3.05904 7.79555L4.05158 7.67359L3.05904 7.79555ZM9.31726 3.69621L9.73106 2.78584L9.73106 2.78584L9.31726 3.69621ZM9.41898 3.74245L9.00518 4.65281L9.00518 4.65281L9.41898 3.74245ZM10.8938 7.54902L9.97468 7.1551V7.1551L10.8938 7.54902ZM10.6467 8.12577L11.5658 8.51969V8.51969L10.6467 8.12577ZM15.8742 13.3534L16.2681 14.2725L16.2681 14.2725L15.8742 13.3534ZM16.451 13.1062L16.0571 12.187H16.0571L16.451 13.1062ZM20.2576 14.581L19.3472 14.9948V14.9948L20.2576 14.581ZM20.3038 14.6827L21.2142 14.2689V14.2689L20.3038 14.6827ZM20.9746 16.4787L21.9663 16.3495V16.3494L20.9746 16.4787ZM19.3877 19.7346L20.0948 20.4417H20.0948L19.3877 19.7346ZM20.6464 18.2885L19.7633 17.8193L19.7633 17.8194L20.6464 18.2885ZM17.9391 12.5988L17.8808 11.6005L17.9391 12.5988ZM19.4997 13.2035L18.784 13.9019L19.4997 13.2035ZM15.2022 13.4072L14.9597 14.3773H14.9597L15.2022 13.4072ZM10.5928 8.79777L11.5629 8.55523V8.55523L10.5928 8.79777ZM10.7965 4.5003L10.0981 5.21598L10.0981 5.21598L10.7965 4.5003ZM11.4012 6.06086L12.3995 6.11916V6.11916L11.4012 6.06086ZM4.26543 4.61228L4.97254 5.31939L4.97254 5.31939L4.26543 4.61228ZM5.71147 3.35355L6.18065 4.23666L5.71147 3.35355ZM7.52132 3.02536L7.3921 4.01698L7.52132 3.02536ZM3.01523 6.82792L2.02024 6.7279L3.01523 6.82792ZM3.46679 5.51631L2.62111 4.98262L2.62111 4.98262L3.46679 5.51631ZM17.1721 20.9848L17.2721 21.9798H17.2721L17.1721 20.9848ZM18.4837 20.5332L19.0174 21.3789L19.0174 21.3789L18.4837 20.5332ZM16 4.5C15.4477 4.5 15 4.94772 15 5.5C15 6.05228 15.4477 6.5 16 6.5V4.5ZM21 6.5C21.5523 6.5 22 6.05228 22 5.5C22 4.94772 21.5523 4.5 21 4.5V6.5ZM17.5 8C17.5 8.55228 17.9477 9 18.5 9C19.0523 9 19.5 8.55228 19.5 8H17.5ZM19.5 3C19.5 2.44772 19.0523 2 18.5 2C17.9477 2 17.5 2.44772 17.5 3H19.5ZM16.3264 19.9484C9.91983 19.1613 4.83875 14.0802 4.05158 7.67359L2.06651 7.9175C2.96564 15.2353 8.7647 21.0344 16.0825 21.9335L16.3264 19.9484ZM8.90346 4.60658L9.00518 4.65281L9.83279 2.83208L9.73106 2.78584L8.90346 4.60658ZM9.97468 7.1551L9.72751 7.73185L11.5658 8.51969L11.813 7.94294L9.97468 7.1551ZM16.2681 14.2725L16.8449 14.0253L16.0571 12.187L15.4803 12.4342L16.2681 14.2725ZM19.3472 14.9948L19.3934 15.0965L21.2142 14.2689L21.1679 14.1672L19.3472 14.9948ZM19.3934 15.0965C19.829 16.0548 19.9485 16.3433 19.983 16.6079L21.9663 16.3494C21.8838 15.7166 21.5951 15.1069 21.2142 14.2689L19.3934 15.0965ZM20.0948 20.4417C20.7457 19.7908 21.2301 19.3213 21.5296 18.7577L19.7633 17.8194C19.6382 18.055 19.4249 18.2831 18.6806 19.0275L20.0948 20.4417ZM19.983 16.6079C20.0373 17.0247 19.9606 17.4481 19.7633 17.8193L21.5295 18.7577C21.9216 18.0198 22.0742 17.1781 21.9663 16.3495L19.983 16.6079ZM16.8449 14.0253C17.6809 13.667 17.8638 13.6049 17.9974 13.5971L17.8808 11.6005C17.3099 11.6339 16.7355 11.8963 16.0571 12.187L16.8449 14.0253ZM21.1679 14.1672C20.8625 13.4952 20.6149 12.9144 20.2154 12.505L18.784 13.9019C18.8775 13.9977 18.9708 14.1668 19.3472 14.9948L21.1679 14.1672ZM17.9974 13.5971C18.2914 13.58 18.5784 13.6911 18.784 13.9019L20.2154 12.505C19.605 11.8796 18.7533 11.5496 17.8808 11.6005L17.9974 13.5971ZM14.9597 14.3773C15.3956 14.4863 15.8552 14.4495 16.2681 14.2725L15.4803 12.4342C15.4691 12.439 15.4566 12.44 15.4448 12.4371L14.9597 14.3773ZM9.62266 9.0403C10.2797 11.6683 12.3317 13.7203 14.9597 14.3773L15.4448 12.4371C13.5333 11.9592 12.0408 10.4667 11.5629 8.55523L9.62266 9.0403ZM9.72751 7.73185C9.55052 8.14483 9.51369 8.60441 9.62266 9.0403L11.5629 8.55523C11.56 8.54339 11.561 8.53091 11.5658 8.51969L9.72751 7.73185ZM9.00518 4.65281C9.83318 5.02918 10.0023 5.12246 10.0981 5.21598L11.495 3.78461C11.0856 3.38514 10.5048 3.13752 9.83279 2.83208L9.00518 4.65281ZM11.813 7.94294C12.1037 7.26449 12.3661 6.69015 12.3995 6.11916L10.4029 6.00257C10.3951 6.13625 10.333 6.31912 9.97468 7.1551L11.813 7.94294ZM10.0981 5.21598C10.3089 5.42164 10.42 5.7086 10.4029 6.00257L12.3995 6.11916C12.4504 5.24668 12.1204 4.39501 11.495 3.78461L10.0981 5.21598ZM4.97254 5.31939C5.71688 4.57505 5.94504 4.36183 6.18065 4.23666L5.24229 2.47045C4.67866 2.7699 4.20921 3.25429 3.55833 3.90517L4.97254 5.31939ZM9.73106 2.78584C8.89308 2.40494 8.28344 2.11623 7.65055 2.03375L7.3921 4.01698C7.65666 4.05146 7.94516 4.17099 8.90346 4.60658L9.73106 2.78584ZM6.18065 4.23666C6.55187 4.03943 6.97527 3.96266 7.3921 4.01698L7.65055 2.03375C6.82193 1.92576 5.98024 2.07839 5.24229 2.47045L6.18065 4.23666ZM4.05158 7.67359C3.99935 7.24854 3.98891 7.13986 4.01021 6.92794L2.02024 6.7279C1.97398 7.18815 2.01527 7.5005 2.06651 7.9175L4.05158 7.67359ZM3.55833 3.90517C3.16786 4.29564 2.87285 4.5837 2.62111 4.98262L4.31247 6.05C4.42126 5.8776 4.53851 5.75342 4.97254 5.31939L3.55833 3.90517ZM4.01021 6.92794C4.03523 6.67909 4.17899 6.26151 4.31247 6.05L2.62111 4.98262C2.32224 5.4562 2.07625 6.1707 2.02024 6.7279L4.01021 6.92794ZM16.0825 21.9335C16.4995 21.9847 16.8119 22.026 17.2721 21.9798L17.0721 19.9898C16.8601 20.0111 16.7515 20.0007 16.3264 19.9484L16.0825 21.9335ZM18.6806 19.0275C18.2466 19.4615 18.1224 19.5787 17.95 19.6875L19.0174 21.3789C19.4163 21.1271 19.7044 20.8321 20.0948 20.4417L18.6806 19.0275ZM17.2721 21.9798C17.8293 21.9237 18.5438 21.6778 19.0174 21.3789L17.95 19.6875C17.7385 19.821 17.3209 19.9648 17.0721 19.9898L17.2721 21.9798ZM16 6.5H18.5V4.5H16V6.5ZM18.5 6.5H21V4.5H18.5V6.5ZM19.5 8V5.5H17.5V8H19.5ZM19.5 5.5V3H17.5V5.5H19.5Z" fill="#0B0D12"/>
</svg>
