<svg width="24" height="24" viewBox="0 0 24 24" fill="none" xmlns="http://www.w3.org/2000/svg">
<path d="M19.8235 14.64L19.2146 15.4333L19.2146 15.4333L19.8235 14.64ZM4.17653 14.64L4.78543 15.4333L4.17653 14.64ZM3 17.2072H2H3ZM3 17.7018H2H3ZM4.99007 20.5237L4.64431 21.462H4.64431L4.99007 20.5237ZM5.54944 20.7298L5.89521 19.7915H5.89521L5.54944 20.7298ZM8.69267 19.3662L9.61888 19.7432L9.61888 19.7432L8.69267 19.3662ZM8.88882 18.8843L7.96261 18.5073L7.96261 18.5073L8.88882 18.8843ZM15.1112 18.8843L16.0374 18.5073L16.0374 18.5073L15.1112 18.8843ZM15.3073 19.3662L14.3811 19.7432L14.3811 19.7432L15.3073 19.3662ZM18.4506 20.7298L18.7963 21.6681L18.7963 21.6681L18.4506 20.7298ZM19.0099 20.5237L18.6642 19.5854L18.6642 19.5854L19.0099 20.5237ZM20.2244 19.9757L20.8362 20.7667L20.8362 20.7667L20.2244 19.9757ZM20.9043 19.0116L19.9529 18.7035L19.9529 18.7035L20.9043 19.0116ZM15.6068 20.0321L16.4596 19.5098L16.4596 19.5098L15.6068 20.0321ZM17.748 20.961L17.941 21.9422H17.941L17.748 20.961ZM14.7433 18.4598L15.2512 17.5984L15.2512 17.5984L14.7433 18.4598ZM9.25671 18.4598L8.74882 17.5984L9.25671 18.4598ZM6.25197 20.961L6.05896 21.9422H6.05896L6.25197 20.961ZM8.39321 20.0321L7.54041 19.5098H7.54041L8.39321 20.0321ZM3.09574 19.0116L4.0471 18.7035H4.0471L3.09574 19.0116ZM3.77562 19.9757L3.16378 20.7667H3.16378L3.77562 19.9757ZM3.26353 15.534L2.39687 15.0351H2.39687L3.26353 15.534ZM3.15489 15.7529L4.07631 16.1414L4.07631 16.1414L3.15489 15.7529ZM20.7365 15.534L19.8698 16.0329L19.8698 16.0329L20.7365 15.534ZM20.8451 15.7529L21.7665 15.3643L21.7665 15.3643L20.8451 15.7529ZM6.5 3V2C5.94772 2 5.5 2.44772 5.5 3H6.5ZM18.2071 3.70711C18.5976 3.31658 18.5976 2.68342 18.2071 2.29289C17.8166 1.90237 17.1834 1.90237 16.7929 2.29289L18.2071 3.70711ZM10 4C10.5523 4 11 3.55228 11 3C11 2.44772 10.5523 2 10 2V4ZM5.5 6.5C5.5 7.05228 5.94772 7.5 6.5 7.5C7.05228 7.5 7.5 7.05228 7.5 6.5H5.5ZM20.4324 13.8468C15.4874 10.0511 8.51259 10.0511 3.56764 13.8468L4.78543 15.4333C9.01212 12.1889 14.9879 12.1889 19.2146 15.4333L20.4324 13.8468ZM2 17.2072V17.7018H4V17.2072H2ZM4.64431 21.462L5.20368 21.6681L5.89521 19.7915L5.33584 19.5854L4.64431 21.462ZM9.61888 19.7432L9.81502 19.2613L7.96261 18.5073L7.76647 18.9891L9.61888 19.7432ZM14.185 19.2613L14.3811 19.7432L16.2335 18.9891L16.0374 18.5073L14.185 19.2613ZM18.7963 21.6681L19.3557 21.462L18.6642 19.5854L18.1048 19.7915L18.7963 21.6681ZM22 17.7018V17.2072H20V17.7018H22ZM19.3557 21.462C19.9357 21.2483 20.437 21.0755 20.8362 20.7667L19.6125 19.1847C19.5156 19.2597 19.3726 19.3243 18.6642 19.5854L19.3557 21.462ZM20 17.7018C20 18.4477 19.9883 18.5943 19.9529 18.7035L21.8556 19.3197C22.0117 18.8377 22 18.3082 22 17.7018H20ZM20.8362 20.7667C21.3135 20.3975 21.6696 19.894 21.8556 19.3197L19.9529 18.7035C19.8921 18.8911 19.7746 19.0593 19.6125 19.1847L20.8362 20.7667ZM14.3811 19.7432C14.5095 20.0586 14.616 20.329 14.754 20.5543L16.4596 19.5098C16.4282 19.4586 16.3915 19.3772 16.2335 18.9891L14.3811 19.7432ZM18.1048 19.7915C17.7079 19.9377 17.6184 19.9674 17.555 19.9798L17.941 21.9422C18.1998 21.8913 18.4712 21.7879 18.7963 21.6681L18.1048 19.7915ZM14.754 20.5543C15.4185 21.6395 16.6958 22.1872 17.941 21.9422L17.555 19.9798C17.1168 20.066 16.6803 19.8702 16.4596 19.5098L14.754 20.5543ZM14.2354 19.3212C14.2154 19.3094 14.1964 19.2894 14.185 19.2613L16.0374 18.5073C15.8817 18.1249 15.6043 17.8066 15.2512 17.5984L14.2354 19.3212ZM9.76459 19.3213C11.1398 18.5105 12.8602 18.5105 14.2354 19.3213L15.2512 17.5984C13.2492 16.4181 10.7508 16.4181 8.74882 17.5984L9.76459 19.3213ZM9.81502 19.2613C9.80361 19.2894 9.78464 19.3094 9.76459 19.3213L8.74882 17.5984C8.39569 17.8066 8.11829 18.1249 7.96261 18.5073L9.81502 19.2613ZM5.20368 21.6681C5.52875 21.7879 5.80023 21.8913 6.05896 21.9422L6.44498 19.9798C6.38163 19.9674 6.29212 19.9377 5.89521 19.7915L5.20368 21.6681ZM7.76647 18.9891C7.60849 19.3772 7.57176 19.4586 7.54041 19.5098L9.24601 20.5543C9.38402 20.3289 9.49049 20.0586 9.61888 19.7432L7.76647 18.9891ZM6.05896 21.9422C7.30424 22.1872 8.58147 21.6395 9.24602 20.5543L7.54041 19.5098C7.31973 19.8702 6.8832 20.066 6.44498 19.9798L6.05896 21.9422ZM2 17.7018C2 18.3082 1.98827 18.8377 2.14439 19.3197L4.0471 18.7035C4.01173 18.5943 4 18.4477 4 17.7018H2ZM5.33584 19.5854C4.62736 19.3243 4.4844 19.2597 4.38746 19.1847L3.16378 20.7667C3.56301 21.0755 4.0643 21.2483 4.64431 21.462L5.33584 19.5854ZM2.14439 19.3197C2.33038 19.894 2.68651 20.3975 3.16378 20.7667L4.38746 19.1847C4.22539 19.0593 4.10785 18.8911 4.0471 18.7035L2.14439 19.3197ZM3.56764 13.8468C3.12123 14.1895 2.71236 14.4871 2.39687 15.0351L4.13018 16.0329C4.21312 15.8888 4.28011 15.8212 4.78543 15.4333L3.56764 13.8468ZM4 17.2072C4 16.4165 4.01655 16.2831 4.07631 16.1414L2.23347 15.3643C1.98345 15.9572 2 16.5485 2 17.2072H4ZM2.39687 15.0351C2.34118 15.1318 2.27686 15.2614 2.23347 15.3643L4.07631 16.1414C4.0877 16.1144 4.11543 16.0585 4.13018 16.0329L2.39687 15.0351ZM19.2146 15.4333C19.7199 15.8212 19.7869 15.8888 19.8698 16.0329L21.6031 15.0351C21.2876 14.4871 20.8788 14.1895 20.4324 13.8468L19.2146 15.4333ZM22 17.2072C22 16.5485 22.0166 15.9572 21.7665 15.3643L19.9237 16.1414C19.9834 16.2831 20 16.4165 20 17.2072H22ZM19.8698 16.0329C19.8846 16.0585 19.9123 16.1144 19.9237 16.1414L21.7665 15.3643C21.7231 15.2614 21.6588 15.1318 21.6031 15.0351L19.8698 16.0329ZM12 7.08579L7.20711 2.29289L5.79289 3.70711L10.5858 8.5L12 7.08579ZM13.4142 8.5L18.2071 3.70711L16.7929 2.29289L12 7.08579L13.4142 8.5ZM6.5 4H10V2H6.5V4ZM5.5 3V6.5H7.5V3H5.5ZM10.5858 8.5C11.3668 9.28105 12.6332 9.28105 13.4142 8.5L12 7.08579L10.5858 8.5Z" fill="#0B0D12"/>
</svg>
