<svg width="24" height="24" viewBox="0 0 24 24" fill="none" xmlns="http://www.w3.org/2000/svg">
<path d="M20.96 16.4451C21.2058 15.9505 21.0041 15.3503 20.5095 15.1045C20.0149 14.8587 19.4147 15.0604 19.169 15.555L20.96 16.4451ZM8.44503 4.83106C8.93961 4.58527 9.1413 3.98509 8.89551 3.49051C8.64973 2.99593 8.04955 2.79425 7.55497 3.04003L8.44503 4.83106ZM13.5924 3.14045L13.7681 2.15602L13.5924 3.14045ZM20.8596 10.4077L19.8751 10.5834V10.5834L20.8596 10.4077ZM12.109 11.454L11.218 11.908V11.908L12.109 11.454ZM12.546 11.891L13 11L13 11L12.546 11.891ZM12.6594 3.11031L13 4.05051L12.6594 3.11031ZM12.1343 3.54996L11.2686 3.0494V3.0494L12.1343 3.54996ZM20.8897 11.3406L19.9495 11L19.9495 11L20.8897 11.3406ZM20.4501 11.8657L20.9506 12.7314L20.9506 12.7314L20.4501 11.8657ZM12 20C7.58172 20 4 16.4183 4 12H2C2 17.5229 6.47715 22 12 22V20ZM19.169 15.555C17.8587 18.1916 15.1396 20 12 20V22C15.9278 22 19.3249 19.7353 20.96 16.4451L19.169 15.555ZM4 12C4 8.8604 5.80844 6.14133 8.44503 4.83106L7.55497 3.04003C4.26468 4.67516 2 8.0722 2 12H4ZM13.4166 4.12489C16.6985 4.71081 19.2892 7.30154 19.8751 10.5834L21.844 10.2319C21.1109 6.12541 17.8746 2.88916 13.7681 2.15602L13.4166 4.12489ZM11 4.60003V10.4H13V4.60003H11ZM13.6 13H19.4V11H13.6V13ZM11 10.4C11 10.6636 10.9992 10.9213 11.0169 11.1383C11.0356 11.3668 11.0797 11.6366 11.218 11.908L13 11C13.0293 11.0575 13.0189 11.0803 13.0103 10.9754C13.0008 10.8588 13 10.6966 13 10.4H11ZM13.6 11C13.3035 11 13.1412 10.9992 13.0246 10.9897C12.9197 10.9812 12.9425 10.9707 13 11L12.092 12.782C12.3634 12.9203 12.6332 12.9644 12.8618 12.9831C13.0787 13.0008 13.3365 13 13.6 13V11ZM11.218 11.908C11.4097 12.2843 11.7157 12.5903 12.092 12.782L13 11L13 11L11.218 11.908ZM13.7681 2.15602C13.3935 2.08914 12.8738 1.96903 12.3188 2.1701L13 4.05051C12.9928 4.0531 12.9807 4.05627 12.9689 4.05771C12.9592 4.05889 12.9628 4.05726 12.9895 4.05888C13.0185 4.06065 13.0634 4.06547 13.1378 4.07697C13.213 4.0886 13.2999 4.10405 13.4166 4.12489L13.7681 2.15602ZM13 4.60003C13 4.3076 13.0012 4.16197 13.0117 4.05865C13.0197 3.97972 13.0267 4.00425 13 4.05051L11.2686 3.0494C11.1075 3.32792 11.0475 3.60489 11.0219 3.85662C10.9988 4.08397 11 4.34725 11 4.60003H13ZM12.3188 2.1701C11.8989 2.32221 11.4921 2.6628 11.2686 3.0494L13 4.05051C12.9939 4.06106 12.9893 4.06766 12.9871 4.0706C12.9849 4.07363 12.9842 4.07431 12.9854 4.07299C12.9865 4.07171 12.9888 4.06924 12.9922 4.06591C12.9956 4.06259 12.9996 4.05897 13.004 4.05528C13.0084 4.05159 13.0127 4.0483 13.0165 4.04553C13.0204 4.04275 13.0232 4.04095 13.0247 4.04008C13.0262 4.03917 13.0254 4.03974 13.022 4.04138C13.0188 4.04298 13.0115 4.04636 13 4.05051L12.3188 2.1701ZM19.8751 10.5834C19.896 10.7001 19.9114 10.787 19.9231 10.8622C19.9346 10.9366 19.9394 10.9815 19.9411 11.0105C19.9428 11.0372 19.9411 11.0408 19.9423 11.0312C19.9438 11.0193 19.9469 11.0072 19.9495 11L21.8299 11.6813C22.031 11.1262 21.9109 10.6065 21.844 10.2319L19.8751 10.5834ZM19.4 13C19.6528 13 19.9161 13.0012 20.1434 12.9781C20.3951 12.9526 20.6721 12.8925 20.9506 12.7314L19.9495 11C19.9958 10.9733 20.0203 10.9803 19.9414 10.9884C19.8381 10.9988 19.6924 11 19.4 11V13ZM19.9495 11C19.9537 10.9886 19.957 10.9813 19.9586 10.978C19.9603 10.9746 19.9609 10.9738 19.9599 10.9753C19.9591 10.9768 19.9573 10.9796 19.9545 10.9835C19.9517 10.9874 19.9484 10.9916 19.9447 10.996C19.9411 11.0004 19.9374 11.0044 19.9341 11.0078C19.9308 11.0113 19.9283 11.0135 19.927 11.0146C19.9257 11.0158 19.9264 11.0151 19.9294 11.0129C19.9324 11.0107 19.939 11.0061 19.9495 11L20.9506 12.7314C21.3372 12.5079 21.6778 12.1011 21.8299 11.6813L19.9495 11Z" fill="#0B0D12"/>
</svg>
