<svg width="24" height="24" viewBox="0 0 24 24" fill="none" xmlns="http://www.w3.org/2000/svg">
<path d="M4.12888 15.9396L5.04731 16.3351V16.3351L4.12888 15.9396ZM3.87046 16.5396L4.78889 16.9351L3.87046 16.5396ZM20.1294 16.5394L19.211 16.935V16.9351L20.1294 16.5394ZM19.8709 15.9394L20.7894 15.5438L20.7894 15.5438L19.8709 15.9394ZM19.1744 14.6299L19.9012 13.943L19.9012 13.943L19.1744 14.6299ZM18.3989 14.1211L18.0577 15.0611L18.0577 15.0611L18.3989 14.1211ZM20.1252 20.6589L20.6819 21.4896H20.6819L20.1252 20.6589ZM20.9771 19.3734L19.9949 19.1858V19.1858L20.9771 19.3734ZM3.0229 19.3735L4.00514 19.1858L3.0229 19.3735ZM3.87482 20.6589L4.43148 19.8281H4.43148L3.87482 20.6589ZM4.82535 14.63L5.55214 15.3168V15.3168L4.82535 14.63ZM5.60092 14.1211L5.25976 13.1811H5.25976L5.60092 14.1211ZM15.9871 14L15.1385 13.471L15.9871 14ZM8.01305 14L8.86167 13.471L8.01305 14ZM3.21044 15.544L2.95202 16.144L4.78889 16.9351L5.04731 16.3351L3.21044 15.544ZM6.82669 22H17.1732V20H6.82669V22ZM21.0478 16.1438L20.7894 15.5438L18.9525 16.335L19.211 16.935L21.0478 16.1438ZM20.7894 15.5438C20.5179 14.9137 20.2953 14.36 19.9012 13.943L18.4477 15.3168C18.5402 15.4147 18.6197 15.5624 18.9525 16.335L20.7894 15.5438ZM16.9148 15C17.7591 15 17.9291 15.0144 18.0577 15.0611L18.74 13.1811C18.2014 12.9856 17.6044 13 16.9148 13V15ZM19.9012 13.943C19.5789 13.602 19.1811 13.3412 18.74 13.1811L18.0577 15.0611C18.2064 15.1151 18.3399 15.2028 18.4477 15.3168L19.9012 13.943ZM17.1732 22C17.9684 22 18.6327 22.001 19.1592 21.9533C19.6872 21.9055 20.2188 21.7999 20.6819 21.4896L19.5685 19.8281C19.5225 19.859 19.3924 19.924 18.9788 19.9614C18.5638 19.999 18.0067 20 17.1732 20V22ZM19.211 16.9351C19.5394 17.6975 19.7577 18.2067 19.8862 18.6003C20.0142 18.9925 20.0047 19.1344 19.9949 19.1858L21.9593 19.561C22.0641 19.0124 21.9515 18.4821 21.7874 17.9796C21.6238 17.4785 21.3609 16.8707 21.0478 16.1438L19.211 16.9351ZM20.6819 21.4896C21.3482 21.0431 21.8088 20.3491 21.9593 19.561L19.9949 19.1858C19.945 19.4466 19.7922 19.6782 19.5685 19.8281L20.6819 21.4896ZM2.95202 16.144C2.63895 16.8709 2.3761 17.4787 2.21253 17.9797C2.04848 18.4822 1.93586 19.0125 2.04066 19.5611L4.00514 19.1858C3.99532 19.1345 3.98576 18.9925 4.11378 18.6004C4.24228 18.2068 4.46052 17.6976 4.78889 16.9351L2.95202 16.144ZM6.82669 20C5.99327 20 5.43619 19.999 5.02118 19.9614C4.60757 19.924 4.4775 19.859 4.43148 19.8281L3.31817 21.4896C3.78123 21.7999 4.31284 21.9055 4.84076 21.9533C5.36728 22.001 6.03159 22 6.82669 22V20ZM2.04066 19.5611C2.19122 20.3492 2.65186 21.0432 3.31817 21.4896L4.43148 19.8281C4.20778 19.6782 4.05496 19.4466 4.00514 19.1858L2.04066 19.5611ZM5.04731 16.3351C5.38013 15.5624 5.45961 15.4147 5.55214 15.3168L4.09857 13.9431C3.70447 14.3601 3.48185 14.9139 3.21044 15.544L5.04731 16.3351ZM7.08511 13C6.39543 13 5.79845 12.9856 5.25976 13.1811L5.94209 15.0611C6.07075 15.0144 6.24078 15 7.08511 15V13ZM5.55214 15.3168C5.6599 15.2028 5.79337 15.1151 5.94209 15.0611L5.25976 13.1811C4.81865 13.3412 4.4209 13.602 4.09857 13.9431L5.55214 15.3168ZM7.47217 8.83333C7.47217 6.1126 9.54938 4 12.0001 4V2C8.34482 2 5.47217 5.11074 5.47217 8.83333H7.47217ZM12.0001 4C14.4508 4 16.528 6.1126 16.528 8.83333H18.528C18.528 5.11074 15.6553 2 12.0001 2V4ZM13.0102 8.5C13.0102 9.04752 12.5627 9.5 12.0001 9.5V11.5C13.6578 11.5 15.0102 10.1616 15.0102 8.5H13.0102ZM12.0001 9.5C11.4374 9.5 10.9899 9.04752 10.9899 8.5H8.98993C8.98993 10.1616 10.3424 11.5 12.0001 11.5V9.5ZM10.9899 8.5C10.9899 7.95248 11.4374 7.5 12.0001 7.5V5.5C10.3424 5.5 8.98993 6.83838 8.98993 8.5H10.9899ZM12.0001 7.5C12.5627 7.5 13.0102 7.95248 13.0102 8.5H15.0102C15.0102 6.83838 13.6578 5.5 12.0001 5.5V7.5ZM16.528 8.83333C16.528 10.5983 15.941 12.1836 15.1385 13.471L16.8357 14.529C17.7916 12.9957 18.528 11.0484 18.528 8.83333H16.528ZM15.1385 13.471C14.5196 14.4638 13.7858 15.2572 13.1358 15.7929C12.8104 16.0612 12.5207 16.2527 12.292 16.3719C12.035 16.506 11.9483 16.5 12.0001 16.5V18.5C12.4333 18.5 12.8664 18.3281 13.2169 18.1452C13.5958 17.9476 14.0012 17.6715 14.4079 17.3362C15.2222 16.665 16.1005 15.7085 16.8357 14.529L15.1385 13.471ZM16.9148 13H15.9871V15H16.9148V13ZM8.01305 13H7.08511V15H8.01305V13ZM12.0001 16.5C12.0519 16.5 11.9651 16.506 11.7081 16.3719C11.4795 16.2527 11.1898 16.0612 10.8643 15.7929C10.2143 15.2572 9.48054 14.4638 8.86167 13.471L7.16444 14.529C7.89968 15.7085 8.77794 16.665 9.59223 17.3362C9.99892 17.6715 10.4044 17.9476 10.7833 18.1452C11.1338 18.3281 11.5668 18.5 12.0001 18.5V16.5ZM8.86167 13.471C8.05916 12.1836 7.47217 10.5983 7.47217 8.83333H5.47217C5.47217 11.0484 6.20859 12.9957 7.16444 14.529L8.86167 13.471Z" fill="#0B0D12"/>
</svg>
