<svg width="24" height="24" viewBox="0 0 24 24" fill="none" xmlns="http://www.w3.org/2000/svg">
<path d="M17.023 16.7473V19.1463C17.023 20.1254 16.3134 20.9812 15.3346 20.9983C8.68415 21.1141 2.87739 15.3697 3.00197 8.66609C3.02016 7.68721 3.87597 6.97758 4.85496 6.97758H7.25386M17.023 16.7473L18.2227 12.9481M17.023 16.7473C15.8689 17.0444 14.7279 17.0593 13.6525 16.8479M7.25386 6.97758L9.51566 6.26317M7.25386 6.97758C6.08588 11.5158 9.34264 16.0004 13.6525 16.8479M9.51566 6.26317C9.50973 6.33348 9.50671 6.40462 9.50671 6.47647C9.50671 7.86026 10.6284 8.98204 12.0121 8.98204C13.3959 8.98204 14.5176 7.86026 14.5176 6.47647C14.5176 5.86413 14.2979 5.30309 13.9331 4.86786M9.51566 6.26317L13.9331 4.86786M13.9331 4.86786L17.024 3.89156M17.024 3.89156L19.6945 3.04807C20.4681 2.80372 21.1963 3.53192 20.9519 4.30558L20.1085 6.97657M17.024 3.89156C17.0234 3.91792 17.023 3.94437 17.023 3.97089C17.023 5.63144 18.3691 6.97758 20.0295 6.97758C20.0559 6.97758 20.0822 6.97724 20.1085 6.97657M20.1085 6.97657L18.2227 12.9481M18.2227 12.9481C17.6738 12.3579 16.8904 11.9887 16.0208 11.9887C14.3604 11.9887 13.0143 13.3349 13.0143 14.9954C13.0143 15.6942 13.2527 16.3373 13.6525 16.8479" stroke="#0B0D12" stroke-width="2" stroke-linecap="round" stroke-linejoin="round"/>
</svg>
