<svg width="24" height="24" viewBox="0 0 24 24" fill="none" xmlns="http://www.w3.org/2000/svg">
<path d="M21 12C21 16.9706 16.9706 21 12 21C7.02944 21 3 16.9706 3 12C3 7.02944 7.02944 3 12 3C16.9706 3 21 7.02944 21 12Z" stroke="#0B0D12" stroke-width="2" stroke-linecap="round" stroke-linejoin="round"/>
<path d="M10 12.7299V11.2701C10 9.4228 10 8.49916 10.5758 8.22945C11.1517 7.95974 11.8612 8.55104 13.2804 9.73364L14.1563 10.4636C15.0107 11.1756 15.438 11.5316 15.438 12C15.438 12.4684 15.0107 12.8244 14.1563 13.5364L13.2804 14.2664C11.8612 15.449 11.1517 16.0403 10.5758 15.7705C10 15.5008 10 14.5772 10 12.7299Z" stroke="#0B0D12" stroke-width="2" stroke-linecap="round" stroke-linejoin="round"/>
</svg>
