<svg width="24" height="24" viewBox="0 0 24 24" fill="none" xmlns="http://www.w3.org/2000/svg">
<path d="M5 8V7C4.44772 7 4 7.44772 4 8H5ZM19 8H20C20 7.44772 19.5523 7 19 7V8ZM10.2168 17.9487L10.3474 16.9572L10.2168 17.9487ZM5.05133 12.7832L6.04278 12.6526L5.05133 12.7832ZM18.9487 12.7832L17.9572 12.6526L18.9487 12.7832ZM13.7832 17.9487L13.6526 16.9572L13.7832 17.9487ZM11 21C11 21.5523 11.4477 22 12 22C12.5523 22 13 21.5523 13 21H11ZM3 7C2.44772 7 2 7.44772 2 8C2 8.55228 2.44772 9 3 9V7ZM21 9C21.5523 9 22 8.55228 22 8C22 7.44772 21.5523 7 21 7V9ZM10 3C10 2.44772 9.55228 2 9 2C8.44772 2 8 2.44772 8 3H10ZM8 8C8 8.55228 8.44772 9 9 9C9.55228 9 10 8.55228 10 8H8ZM16 3C16 2.44772 15.5523 2 15 2C14.4477 2 14 2.44772 14 3H16ZM14 8C14 8.55228 14.4477 9 15 9C15.5523 9 16 8.55228 16 8H14ZM5 9H19V7H5V9ZM18 8V11H20V8H18ZM6 11V8H4V11H6ZM12 17C11.0394 17 10.6559 16.9978 10.3474 16.9572L10.0863 18.9401C10.5576 19.0022 11.1029 19 12 19V17ZM4 11C4 11.8971 3.99784 12.4424 4.05989 12.9137L6.04278 12.6526C6.00216 12.3441 6 11.9606 6 11H4ZM10.3474 16.9572C8.1037 16.6618 6.33816 14.8963 6.04278 12.6526L4.05989 12.9137C4.47342 16.0548 6.94518 18.5266 10.0863 18.9401L10.3474 16.9572ZM18 11C18 11.9606 17.9978 12.3441 17.9572 12.6526L19.9401 12.9137C20.0022 12.4424 20 11.8971 20 11H18ZM12 19C12.8971 19 13.4424 19.0022 13.9137 18.9401L13.6526 16.9572C13.3441 16.9978 12.9606 17 12 17V19ZM17.9572 12.6526C17.6618 14.8963 15.8963 16.6618 13.6526 16.9572L13.9137 18.9401C17.0548 18.5266 19.5266 16.0548 19.9401 12.9137L17.9572 12.6526ZM11 18V21H13V18H11ZM3 9H21V7H3V9ZM8 3V8H10V3H8ZM14 3V8H16V3H14Z" fill="#0B0D12"/>
</svg>
