<svg width="24" height="24" viewBox="0 0 24 24" fill="none" xmlns="http://www.w3.org/2000/svg">
<path d="M15 13C15.5523 13 16 12.5523 16 12C16 11.4477 15.5523 11 15 11V13ZM9.00002 11C8.44774 11 8.00002 11.4477 8.00002 12C8.00002 12.5523 8.44774 13 9.00002 13V11ZM13 9.00002C13 8.44774 12.5523 8.00002 12 8.00002C11.4477 8.00002 11 8.44774 11 9.00002H13ZM11 15C11 15.5523 11.4477 16 12 16C12.5523 16 13 15.5523 13 15H11ZM15 11H9.00002V13H15V11ZM11 9.00002V15H13V9.00002H11ZM20 12C20 16.4183 16.4183 20 12 20V22C17.5228 22 22 17.5228 22 12H20ZM12 20C7.58172 20 4 16.4183 4 12H2C2 17.5228 6.47715 22 12 22V20ZM4 12C4 7.58172 7.58172 4 12 4V2C6.47715 2 2 6.47715 2 12H4ZM12 4C16.4183 4 20 7.58172 20 12H22C22 6.47715 17.5228 2 12 2V4Z" fill="#0B0D12"/>
</svg>
