<svg width="24" height="24" viewBox="0 0 24 24" fill="none" xmlns="http://www.w3.org/2000/svg">
<path d="M8.39995 6.59996C8.39995 4.61176 10.0117 3 11.9999 3C13.9881 3 15.5999 4.61176 15.5999 6.59996C15.5999 7.35006 15.5999 7.72511 15.7909 7.98801C15.8526 8.07283 15.9272 8.14743 16.012 8.20907C16.2749 8.40012 16.6499 8.40012 17.4 8.40012C19.3882 8.40012 21 10.0119 21 12.0001C21 13.9883 19.3882 15.6001 17.4 15.6001C16.65 15.6001 16.275 15.6001 16.0121 15.791C15.9272 15.8527 15.8525 15.9274 15.7909 16.0123C15.5999 16.2751 15.5999 16.6501 15.5999 17.4C15.5999 19.3882 13.9881 21 11.9999 21C10.0117 21 8.39995 19.3882 8.39995 17.4C8.39995 16.6501 8.39995 16.2751 8.20897 16.0123C8.14729 15.9274 8.07262 15.8527 7.98772 15.791C7.72486 15.6001 7.34989 15.6001 6.59996 15.6001C4.61176 15.6001 3 13.9883 3 12.0001C3 10.0119 4.61176 8.40012 6.59996 8.40012C7.34989 8.40012 7.72486 8.40012 7.98772 8.20915C8.07263 8.14746 8.14729 8.0728 8.20897 7.9879C8.39995 7.72504 8.39995 7.35001 8.39995 6.59996Z" stroke="#0B0D12" stroke-width="2" stroke-linecap="round" stroke-linejoin="round"/>
</svg>
