<svg width="24" height="24" viewBox="0 0 24 24" fill="none" xmlns="http://www.w3.org/2000/svg">
<path d="M16.4437 18.6534C15.9848 18.9607 15.8618 19.5818 16.169 20.0407C16.4762 20.4997 17.0973 20.6227 17.5563 20.3155L16.4437 18.6534ZM6.44374 20.3155C6.90269 20.6227 7.52379 20.4997 7.83101 20.0407C8.13822 19.5818 8.01521 18.9607 7.55626 18.6534L6.44374 20.3155ZM15.5141 13.9128C15.2495 14.3976 15.428 15.0051 15.9128 15.2696C16.3976 15.5342 17.0051 15.3557 17.2696 14.8709L15.5141 13.9128ZM6.73036 14.8709C6.99494 15.3557 7.60242 15.5342 8.0872 15.2696C8.57199 15.0051 8.7505 14.3976 8.48592 13.9128L6.73036 14.8709ZM13.6493 19.5074L12.6542 19.4079L13.6493 19.5074ZM13.801 17.9901L14.796 18.0896L13.801 17.9901ZM10.199 17.9901L11.194 17.8906L10.199 17.9901ZM10.3507 19.5074L9.35571 19.6069L10.3507 19.5074ZM4 12C4 7.58172 7.58172 4 12 4V2C6.47715 2 2 6.47715 2 12H4ZM12 4C16.4183 4 20 7.58172 20 12H22C22 6.47715 17.5228 2 12 2V4ZM20 12C20 14.7727 18.5902 17.2166 16.4437 18.6534L17.5563 20.3155C20.2337 18.5232 22 15.4681 22 12H20ZM7.55626 18.6534C5.40977 17.2166 4 14.7727 4 12H2C2 15.4681 3.76629 18.5232 6.44374 20.3155L7.55626 18.6534ZM12 12V14C13.1046 14 14 13.1046 14 12H12ZM12 12H10C10 13.1046 10.8954 14 12 14V12ZM12 12V10C10.8954 10 10 10.8954 10 12H12ZM12 12H14C14 10.8954 13.1046 10 12 10V12ZM8 12C8 9.79086 9.79086 8 12 8V6C8.68629 6 6 8.68629 6 12H8ZM12 8C14.2091 8 16 9.79086 16 12H18C18 8.68629 15.3137 6 12 6V8ZM16 12C16 12.6949 15.8237 13.3456 15.5141 13.9128L17.2696 14.8709C17.7356 14.0172 18 13.038 18 12H16ZM8.48592 13.9128C8.17634 13.3456 8 12.6949 8 12H6C6 13.038 6.26442 14.0172 6.73036 14.8709L8.48592 13.9128ZM14.6443 19.6069L14.796 18.0896L12.806 17.8906L12.6542 19.4079L14.6443 19.6069ZM9.20397 18.0896L9.35571 19.6069L11.3458 19.4079L11.194 17.8906L9.20397 18.0896ZM12 15C10.3376 15 9.03855 16.4354 9.20397 18.0896L11.194 17.8906C11.1464 17.4137 11.5208 17 12 17V15ZM14.796 18.0896C14.9614 16.4354 13.6624 15 12 15V17C12.4792 17 12.8536 17.4138 12.806 17.8906L14.796 18.0896ZM12 22C13.3653 22 14.5084 20.9655 14.6443 19.6069L12.6542 19.4079C12.6206 19.744 12.3378 20 12 20V22ZM12 20C11.6622 20 11.3794 19.744 11.3458 19.4079L9.35571 19.6069C9.49156 20.9655 10.6347 22 12 22V20Z" fill="#0B0D12"/>
</svg>
