<svg width="24" height="24" viewBox="0 0 24 24" fill="none" xmlns="http://www.w3.org/2000/svg">
<path d="M5 6.00004L5 18M19 10.5402V13.4599C19 16.1842 19 17.5463 18.4445 18.2338C17.9615 18.8314 17.2306 19.1737 16.4623 19.1622C15.5785 19.1488 14.5321 18.2768 12.4393 16.5328L10.6875 15.0729C9.42112 14.0176 8.78796 13.49 8.55706 12.8583C8.35448 12.3041 8.35448 11.696 8.55706 11.1418C8.78796 10.5101 9.42113 9.98244 10.6875 8.92716L12.4393 7.46732C14.5321 5.72328 15.5785 4.85126 16.4623 4.83793C17.2306 4.82635 17.9615 5.1687 18.4445 5.76632C19 6.45378 19 7.81592 19 10.5402Z" stroke="#0B0D12" stroke-width="2" stroke-linecap="round" stroke-linejoin="round"/>
</svg>
