<svg width="24" height="24" viewBox="0 0 24 24" fill="none" xmlns="http://www.w3.org/2000/svg">
<path d="M15.9999 18C16 17.9354 16 17.8687 16 17.8V16.2C16 15.0799 16 14.5198 15.782 14.092C15.5903 13.7157 15.2843 13.4097 14.908 13.218C14.4802 13 13.9201 13 12.8 13H11.2C10.0799 13 9.51984 13 9.09202 13.218C8.71569 13.4097 8.40973 13.7157 8.21799 14.092C8 14.5198 8 15.0799 8 16.2V17.8C8 17.8687 8 17.9354 8.00005 18M15.9999 18C15.9992 18.9884 15.9866 19.5064 15.782 19.908C15.5903 20.2843 15.2843 20.5903 14.908 20.782C14.4802 21 13.9201 21 12.8 21H11.2C10.0799 21 9.51984 21 9.09202 20.782C8.71569 20.5903 8.40973 20.2843 8.21799 19.908C8.01338 19.5064 8.00082 18.9884 8.00005 18M15.9999 18C16.5923 18 17.1965 18.0393 17.7804 17.9231C19.3671 17.6075 20.6075 16.3671 20.9231 14.7804C21 14.394 21 13.9293 21 13V11.7143C21 10.1149 21 9.31527 20.7029 8.69835C20.408 8.08603 19.914 7.59197 19.3017 7.29709C18.7843 7.04794 18.1384 7.00773 17 7.00125M8.00005 18C7.40582 18 6.80487 18.0396 6.21964 17.9231C4.63288 17.6075 3.39249 16.3671 3.07686 14.7804C3 14.394 3 13.9293 3 13V11.7143C3 10.1149 3 9.31527 3.29709 8.69835C3.59197 8.08603 4.08603 7.59197 4.69835 7.29709C5.21573 7.04794 5.86165 7.00773 7 7.00125M7 7.00125C7.21901 7 7.45624 7 7.71429 7H16.2857C16.5438 7 16.781 7 17 7.00125M7 7.00125V6.2C7 5.0799 7 4.51984 7.21799 4.09202C7.40973 3.71569 7.71569 3.40973 8.09202 3.21799C8.51984 3 9.0799 3 10.2 3H13.8C14.9201 3 15.4802 3 15.908 3.21799C16.2843 3.40973 16.5903 3.71569 16.782 4.09202C17 4.51984 17 5.0799 17 6.2V7.00125" stroke="#0B0D12" stroke-width="2" stroke-linecap="round" stroke-linejoin="round"/>
</svg>
