<svg width="24" height="24" viewBox="0 0 24 24" fill="none" xmlns="http://www.w3.org/2000/svg">
<path d="M9.5 20C8.94772 20 8.5 20.4477 8.5 21C8.5 21.5523 8.94772 22 9.5 22V20ZM14.5 22C15.0523 22 15.5 21.5523 15.5 21C15.5 20.4477 15.0523 20 14.5 20V22ZM3.32698 15.362L2.43597 15.816L3.32698 15.362ZM4.63803 16.673L4.18404 17.564L4.63803 16.673ZM20.673 15.362L21.564 15.816L20.673 15.362ZM19.362 16.673L19.816 17.564L19.362 16.673ZM19.362 3.32698L19.816 2.43597L19.362 3.32698ZM20.673 4.63803L21.564 4.18404L20.673 4.63803ZM4.63803 3.32698L4.18404 2.43597L4.63803 3.32698ZM3.32698 4.63803L2.43597 4.18404L3.32698 4.63803ZM7 9C6.44772 9 6 9.44772 6 10C6 10.5523 6.44772 11 7 11V9ZM9 10V11C9.35567 11 9.68457 10.8111 9.86378 10.5039L9 10ZM15 10V9C14.6656 9 14.3534 9.1671 14.1679 9.4453L15 10ZM17 11C17.5523 11 18 10.5523 18 10C18 9.44772 17.5523 9 17 9V11ZM10.75 7L11.6863 6.64888C11.5508 6.28739 11.2192 6.03622 10.8346 6.00358C10.4499 5.97094 10.0807 6.16265 9.88622 6.49613L10.75 7ZM13 13L12.0637 13.3511C12.1954 13.7025 12.5128 13.9505 12.8856 13.9934C13.2584 14.0364 13.6239 13.8669 13.8321 13.5547L13 13ZM7.8 4H16.2V2H7.8V4ZM20 7.8V12.2H22V7.8H20ZM4 12.2V7.8H2V12.2H4ZM9.5 22H12V20H9.5V22ZM12 22H14.5V20H12V22ZM16.2 16H12V18H16.2V16ZM12 16H7.8V18H12V16ZM13 21V17H11V21H13ZM2 12.2C2 13.0236 1.99922 13.7014 2.04419 14.2518C2.09012 14.8139 2.18868 15.3306 2.43597 15.816L4.21799 14.908C4.1383 14.7516 4.07337 14.5274 4.03755 14.089C4.00078 13.6389 4 13.0566 4 12.2H2ZM7.8 16C6.94342 16 6.36113 15.9992 5.91104 15.9624C5.47262 15.9266 5.24842 15.8617 5.09202 15.782L4.18404 17.564C4.66937 17.8113 5.18608 17.9099 5.74817 17.9558C6.2986 18.0008 6.97642 18 7.8 18V16ZM2.43597 15.816C2.81947 16.5686 3.43139 17.1805 4.18404 17.564L5.09202 15.782C4.71569 15.5903 4.40973 15.2843 4.21799 14.908L2.43597 15.816ZM20 12.2C20 13.0566 19.9992 13.6389 19.9624 14.089C19.9266 14.5274 19.8617 14.7516 19.782 14.908L21.564 15.816C21.8113 15.3306 21.9099 14.8139 21.9558 14.2518C22.0008 13.7014 22 13.0236 22 12.2H20ZM16.2 18C17.0236 18 17.7014 18.0008 18.2518 17.9558C18.8139 17.9099 19.3306 17.8113 19.816 17.564L18.908 15.782C18.7516 15.8617 18.5274 15.9266 18.089 15.9624C17.6389 15.9992 17.0566 16 16.2 16V18ZM19.782 14.908C19.5903 15.2843 19.2843 15.5903 18.908 15.782L19.816 17.564C20.5686 17.1805 21.1805 16.5686 21.564 15.816L19.782 14.908ZM16.2 4C17.0566 4 17.6389 4.00078 18.089 4.03755C18.5274 4.07337 18.7516 4.1383 18.908 4.21799L19.816 2.43597C19.3306 2.18868 18.8139 2.09012 18.2518 2.04419C17.7014 1.99922 17.0236 2 16.2 2V4ZM22 7.8C22 6.97642 22.0008 6.2986 21.9558 5.74817C21.9099 5.18608 21.8113 4.66937 21.564 4.18404L19.782 5.09202C19.8617 5.24842 19.9266 5.47262 19.9624 5.91104C19.9992 6.36113 20 6.94342 20 7.8H22ZM18.908 4.21799C19.2843 4.40973 19.5903 4.7157 19.782 5.09202L21.564 4.18404C21.1805 3.43139 20.5686 2.81947 19.816 2.43597L18.908 4.21799ZM7.8 2C6.97642 2 6.2986 1.99922 5.74817 2.04419C5.18608 2.09012 4.66937 2.18868 4.18404 2.43597L5.09202 4.21799C5.24842 4.1383 5.47262 4.07337 5.91104 4.03755C6.36113 4.00078 6.94342 4 7.8 4V2ZM4 7.8C4 6.94342 4.00078 6.36113 4.03755 5.91104C4.07337 5.47262 4.1383 5.24842 4.21799 5.09202L2.43597 4.18404C2.18868 4.66937 2.09012 5.18608 2.04419 5.74817C1.99922 6.2986 2 6.97642 2 7.8H4ZM4.18404 2.43597C3.43139 2.81947 2.81947 3.43139 2.43597 4.18404L4.21799 5.09202C4.40973 4.71569 4.71569 4.40973 5.09202 4.21799L4.18404 2.43597ZM7 11H9V9H7V11ZM15 11H17V9H15V11ZM9.86378 10.5039L11.6138 7.50387L9.88622 6.49613L8.13622 9.49613L9.86378 10.5039ZM13.8321 13.5547L15.8321 10.5547L14.1679 9.4453L12.1679 12.4453L13.8321 13.5547ZM9.81367 7.35112L12.0637 13.3511L13.9363 12.6489L11.6863 6.64888L9.81367 7.35112Z" fill="#0B0D12"/>
</svg>
