<svg width="24" height="24" viewBox="0 0 24 24" fill="none" xmlns="http://www.w3.org/2000/svg">
<rect width="24" height="24" fill="white"/>
<path d="M3.35578 19.3353C3.64294 19.8989 4.10113 20.3571 4.6647 20.6442C5.49831 21.069 6.57022 21.008 7.52554 20.9797C7.79902 20.9716 8.02119 20.7451 8.02119 20.4715C8.02119 20.0076 8.02119 19.7756 8.05955 19.5827C8.21711 18.7907 8.8363 18.1715 9.62838 18.0139C9.82127 17.9756 10.0532 17.9756 10.5171 17.9756C10.981 17.9756 11.213 17.9756 11.4058 18.0139C12.1979 18.1715 12.8171 18.7907 12.9747 19.5827C13.013 19.7756 13.013 20.0076 13.013 20.4715C13.013 20.7451 13.2352 20.9716 13.5087 20.9797C14.464 21.008 15.5359 21.069 16.3695 20.6442C16.9331 20.3571 17.3913 19.8989 17.6784 19.3353C18.1032 18.5017 18.0422 17.4298 18.0139 16.4745C18.0059 16.201 18.2305 15.9788 18.5041 15.9788C18.968 15.9788 19.1999 15.9788 19.3928 15.9404C20.1849 15.7829 20.8041 15.1637 20.9616 14.3716C21 14.1787 21 13.9468 21 13.4829C21 13.019 21 12.787 20.9616 12.5942C20.8041 11.8021 20.1849 11.1829 19.3928 11.0253C19.1999 10.987 18.968 10.987 18.5041 10.987C18.2305 10.987 18.0059 10.7648 18.0139 10.4913C18.0422 9.536 18.1032 8.46408 17.6784 7.63047C17.3913 7.0669 16.9331 6.60871 16.3695 6.32156C15.5359 5.89681 14.464 5.95779 13.5087 5.98605C13.2352 5.99414 13.013 5.76952 13.013 5.49593C13.013 5.03203 13.013 4.80008 12.9747 4.6072C12.8171 3.81511 12.1979 3.19592 11.4058 3.03837C11.213 3 10.981 3 10.5171 3C10.0532 3 9.82127 3 9.62838 3.03837C8.8363 3.19592 8.21711 3.81511 8.05955 4.6072C8.02119 4.80008 8.02119 5.03204 8.02119 5.49593C8.02119 5.76952 7.79902 5.99414 7.52554 5.98605C6.57022 5.95779 5.49831 5.89681 4.6647 6.32156C4.10113 6.60871 3.64294 7.0669 3.35578 7.63047C2.93104 8.46408 2.99202 9.536 3.02028 10.4913C3.02837 10.7648 3.25492 10.987 3.52852 10.987C3.99242 10.987 4.22437 10.987 4.41725 11.0253C5.20934 11.1829 5.82852 11.8021 5.98608 12.5942C6.02445 12.787 6.02445 13.019 6.02445 13.4829C6.02445 13.9468 6.02445 14.1787 5.98608 14.3716C5.82852 15.1637 5.20934 15.7829 4.41725 15.9404C4.22437 15.9788 3.99242 15.9788 3.52852 15.9788C3.25492 15.9788 3.02837 16.201 3.02028 16.4745C2.99202 17.4298 2.93104 18.5017 3.35578 19.3353Z" stroke="#0B0D12" stroke-width="2" stroke-linecap="round" stroke-linejoin="round"/>
</svg>
