<svg width="24" height="24" viewBox="0 0 24 24" fill="none" xmlns="http://www.w3.org/2000/svg">
<path d="M5.18404 20.564L5.63803 19.673L5.18404 20.564ZM3.43597 18.816L4.32698 18.362L3.43597 18.816ZM20.564 18.816L19.673 18.362L20.564 18.816ZM18.816 20.564L18.362 19.673L18.816 20.564ZM18.816 3.43597L18.362 4.32698L18.816 3.43597ZM20.564 5.18404L19.673 5.63803L20.564 5.18404ZM5.18404 3.43597L5.63803 4.32698L5.18404 3.43597ZM3.43597 5.18404L4.32698 5.63803L3.43597 5.18404ZM13.0656 11.7285L13.5458 12.6056L13.0656 11.7285ZM8.77783 9.77789C8.77783 10.3302 9.22555 10.7779 9.77783 10.7779C10.3301 10.7779 10.7778 10.3302 10.7778 9.77789H8.77783ZM13.0001 16.4446C13.0001 15.8923 12.5523 15.4446 12.0001 15.4446C11.4478 15.4446 11.0001 15.8923 11.0001 16.4446H13.0001ZM11.0001 16.5557C11.0001 17.1079 11.4478 17.5557 12.0001 17.5557C12.5523 17.5557 13.0001 17.1079 13.0001 16.5557H11.0001ZM11.0001 13.1112C11.0001 13.6635 11.4478 14.1112 12.0001 14.1112C12.5523 14.1112 13.0001 13.6635 13.0001 13.1112H11.0001ZM9.4 4H14.6V2H9.4V4ZM20 9.4V14.6H22V9.4H20ZM14.6 20H9.4V22H14.6V20ZM4 14.6V9.4H2V14.6H4ZM9.4 20C8.26339 20 7.47108 19.9992 6.85424 19.9488C6.24907 19.8994 5.90138 19.8072 5.63803 19.673L4.73005 21.455C5.32234 21.7568 5.96253 21.8826 6.69138 21.9422C7.40855 22.0008 8.2964 22 9.4 22V20ZM2 14.6C2 15.7036 1.99922 16.5914 2.05782 17.3086C2.11737 18.0375 2.24318 18.6777 2.54497 19.27L4.32698 18.362C4.19279 18.0986 4.10062 17.7509 4.05118 17.1458C4.00078 16.5289 4 15.7366 4 14.6H2ZM5.63803 19.673C5.07354 19.3854 4.6146 18.9265 4.32698 18.362L2.54497 19.27C3.02433 20.2108 3.78924 20.9757 4.73005 21.455L5.63803 19.673ZM20 14.6C20 15.7366 19.9992 16.5289 19.9488 17.1458C19.8994 17.7509 19.8072 18.0986 19.673 18.362L21.455 19.27C21.7568 18.6777 21.8826 18.0375 21.9422 17.3086C22.0008 16.5914 22 15.7036 22 14.6H20ZM14.6 22C15.7036 22 16.5914 22.0008 17.3086 21.9422C18.0375 21.8826 18.6777 21.7568 19.27 21.455L18.362 19.673C18.0986 19.8072 17.7509 19.8994 17.1458 19.9488C16.5289 19.9992 15.7366 20 14.6 20V22ZM19.673 18.362C19.3854 18.9265 18.9265 19.3854 18.362 19.673L19.27 21.455C20.2108 20.9757 20.9757 20.2108 21.455 19.27L19.673 18.362ZM14.6 4C15.7366 4 16.5289 4.00078 17.1458 4.05118C17.7509 4.10062 18.0986 4.19279 18.362 4.32698L19.27 2.54497C18.6777 2.24318 18.0375 2.11737 17.3086 2.05782C16.5914 1.99922 15.7036 2 14.6 2V4ZM22 9.4C22 8.2964 22.0008 7.40855 21.9422 6.69138C21.8826 5.96253 21.7568 5.32234 21.455 4.73005L19.673 5.63803C19.8072 5.90138 19.8994 6.24907 19.9488 6.85424C19.9992 7.47108 20 8.26339 20 9.4H22ZM18.362 4.32698C18.9265 4.6146 19.3854 5.07354 19.673 5.63803L21.455 4.73005C20.9757 3.78924 20.2108 3.02433 19.27 2.54497L18.362 4.32698ZM9.4 2C8.2964 2 7.40855 1.99922 6.69138 2.05782C5.96253 2.11737 5.32234 2.24318 4.73005 2.54497L5.63803 4.32698C5.90138 4.19279 6.24907 4.10062 6.85424 4.05118C7.47108 4.00078 8.26339 4 9.4 4V2ZM4 9.4C4 8.26339 4.00078 7.47108 4.05118 6.85424C4.10062 6.24907 4.19279 5.90138 4.32698 5.63803L2.54497 4.73005C2.24318 5.32234 2.11737 5.96253 2.05782 6.69138C1.99922 7.40855 2 8.2964 2 9.4H4ZM4.73005 2.54497C3.78924 3.02433 3.02433 3.78924 2.54497 4.73005L4.32698 5.63803C4.6146 5.07354 5.07354 4.6146 5.63803 4.32698L4.73005 2.54497ZM13.2223 9.77789C13.2223 10.2392 12.9671 10.6424 12.5854 10.8513L13.5458 12.6056C14.5426 12.0599 15.2223 10.999 15.2223 9.77789H13.2223ZM10.7778 9.77789C10.7778 9.10287 11.325 8.55566 12.0001 8.55566V6.55566C10.2205 6.55566 8.77783 7.9983 8.77783 9.77789H10.7778ZM12.0001 8.55566C12.6751 8.55566 13.2223 9.10287 13.2223 9.77789H15.2223C15.2223 7.9983 13.7796 6.55566 12.0001 6.55566V8.55566ZM11.0001 16.4446V16.5557H13.0001V16.4446H11.0001ZM12.5854 10.8513C12.2482 11.0359 11.8734 11.2976 11.5719 11.6492C11.266 12.0059 11.0001 12.5002 11.0001 13.1112H13.0001C13.0001 13.1086 12.9977 13.0589 13.09 12.9512C13.1867 12.8385 13.3447 12.7157 13.5458 12.6056L12.5854 10.8513Z" fill="#0B0D12"/>
</svg>
