<svg width="24" height="24" viewBox="0 0 24 24" fill="none" xmlns="http://www.w3.org/2000/svg">
<path d="M17.0059 19.5941L16.2988 18.887L16.2988 18.887L17.0059 19.5941ZM19.5941 17.0059L18.887 16.2988V16.2988L19.5941 17.0059ZM19.5941 6.99411L18.887 7.70122V7.70122L19.5941 6.99411ZM17.0059 4.40589L16.2988 5.11299L16.2988 5.11299L17.0059 4.40589ZM6.99411 4.40589L6.28701 3.69878L6.28701 3.69878L6.99411 4.40589ZM4.40589 6.99411L5.11299 7.70122L4.40589 6.99411ZM4.40589 17.0059L3.69878 17.713H3.69878L4.40589 17.0059ZM6.99411 19.5941L6.287 20.3012H6.28701L6.99411 19.5941ZM3.08289 15.0577L2.11052 15.2911L3.08289 15.0577ZM3.44208 15.9249L4.29472 15.4024L4.29472 15.4024L3.44208 15.9249ZM3.44208 8.07514L2.58944 7.55265L2.58944 7.55265L3.44208 8.07514ZM3.08289 8.9423L4.05526 9.17575V9.17575L3.08289 8.9423ZM8.9423 3.08289L9.17575 4.05526H9.17575L8.9423 3.08289ZM8.07514 3.44208L7.55265 2.58944L7.55265 2.58944L8.07514 3.44208ZM15.9249 3.44208L15.4024 4.29472L15.4024 4.29472L15.9249 3.44208ZM15.0577 3.08289L15.2911 2.11052L15.0577 3.08289ZM20.9171 8.9423L19.9447 9.17575L19.9447 9.17575L20.9171 8.9423ZM20.5579 8.07514L21.4106 7.55265V7.55265L20.5579 8.07514ZM20.5579 15.9249L19.7053 15.4024L19.7053 15.4024L20.5579 15.9249ZM20.9171 15.0577L19.9447 14.8242L19.9447 14.8243L20.9171 15.0577ZM15.0577 20.9171L14.8243 19.9447L14.8242 19.9447L15.0577 20.9171ZM15.9249 20.5579L16.4474 21.4106H16.4474L15.9249 20.5579ZM8.9423 20.9171L9.17575 19.9447L9.17575 19.9447L8.9423 20.9171ZM8.07514 20.5579L7.55264 21.4106H7.55265L8.07514 20.5579ZM13.0656 11.7285L13.5458 12.6056L13.0656 11.7285ZM8.77783 9.77789C8.77783 10.3302 9.22555 10.7779 9.77783 10.7779C10.3301 10.7779 10.7778 10.3302 10.7778 9.77789H8.77783ZM13.0001 16.4446C13.0001 15.8923 12.5523 15.4446 12.0001 15.4446C11.4478 15.4446 11.0001 15.8923 11.0001 16.4446H13.0001ZM11.0001 16.5557C11.0001 17.1079 11.4478 17.5557 12.0001 17.5557C12.5523 17.5557 13.0001 17.1079 13.0001 16.5557H11.0001ZM11.0001 13.1112C11.0001 13.6635 11.4478 14.1112 12.0001 14.1112C12.5523 14.1112 13.0001 13.6635 13.0001 13.1112H11.0001ZM10.3882 22H13.6118V20H10.3882V22ZM17.713 20.3012L20.3012 17.713L18.887 16.2988L16.2988 18.887L17.713 20.3012ZM22 13.6118V10.3882H20V13.6118H22ZM20.3012 6.28701L17.713 3.69878L16.2988 5.11299L18.887 7.70122L20.3012 6.28701ZM13.6118 2H10.3882V4H13.6118V2ZM6.28701 3.69878L3.69878 6.287L5.11299 7.70122L7.70122 5.11299L6.28701 3.69878ZM2 10.3882V13.6118H4V10.3882H2ZM3.69878 17.713L6.287 20.3012L7.70122 18.887L5.11299 16.2988L3.69878 17.713ZM2 13.6118C2 14.2979 1.99357 14.804 2.11052 15.2911L4.05526 14.8243C4.00643 14.6208 4 14.3931 4 13.6118H2ZM5.11299 16.2988C4.56049 15.7463 4.40402 15.5807 4.29472 15.4024L2.58944 16.4474C2.85119 16.8745 3.21359 17.2278 3.69878 17.713L5.11299 16.2988ZM2.11052 15.2911C2.20851 15.6993 2.37012 16.0895 2.58944 16.4474L4.29472 15.4024C4.18506 15.2234 4.10425 15.0283 4.05526 14.8243L2.11052 15.2911ZM3.69878 6.287C3.21358 6.7722 2.85119 7.12551 2.58944 7.55265L4.29472 8.59764C4.40402 8.41928 4.56048 8.25373 5.11299 7.70122L3.69878 6.287ZM4 10.3882C4 9.60685 4.00643 9.37916 4.05526 9.17575L2.11052 8.70886C1.99357 9.19598 2 9.70205 2 10.3882H4ZM2.58944 7.55265C2.37012 7.91054 2.20851 8.30071 2.11052 8.70886L4.05526 9.17575C4.10425 8.97168 4.18506 8.77659 4.29472 8.59764L2.58944 7.55265ZM10.3882 2C9.70205 2 9.19598 1.99357 8.70886 2.11052L9.17575 4.05526C9.37916 4.00643 9.60685 4 10.3882 4V2ZM7.70122 5.11299C8.25373 4.56048 8.41928 4.40402 8.59764 4.29472L7.55265 2.58944C7.12551 2.85119 6.7722 3.21358 6.28701 3.69878L7.70122 5.11299ZM8.70886 2.11052C8.30071 2.20851 7.91054 2.37012 7.55265 2.58944L8.59764 4.29472C8.77659 4.18506 8.97168 4.10425 9.17575 4.05526L8.70886 2.11052ZM17.713 3.69878C17.2278 3.21359 16.8745 2.85119 16.4474 2.58944L15.4024 4.29472C15.5807 4.40402 15.7463 4.56049 16.2988 5.11299L17.713 3.69878ZM13.6118 4C14.3931 4 14.6208 4.00643 14.8243 4.05526L15.2911 2.11052C14.804 1.99357 14.2979 2 13.6118 2V4ZM16.4474 2.58944C16.0895 2.37012 15.6993 2.20851 15.2911 2.11052L14.8243 4.05526C15.0283 4.10425 15.2234 4.18506 15.4024 4.29472L16.4474 2.58944ZM22 10.3882C22 9.70205 22.0064 9.19598 21.8895 8.70886L19.9447 9.17575C19.9936 9.37916 20 9.60685 20 10.3882H22ZM18.887 7.70122C19.4395 8.25372 19.596 8.41929 19.7053 8.59764L21.4106 7.55265C21.1488 7.12551 20.7864 6.7722 20.3012 6.287L18.887 7.70122ZM21.8895 8.70886C21.7915 8.30072 21.6299 7.91054 21.4106 7.55265L19.7053 8.59764C19.8149 8.77659 19.8957 8.97168 19.9447 9.17575L21.8895 8.70886ZM20.3012 17.713C20.7864 17.2278 21.1488 16.8745 21.4106 16.4474L19.7053 15.4024C19.596 15.5807 19.4395 15.7463 18.887 16.2988L20.3012 17.713ZM20 13.6118C20 14.3931 19.9936 14.6208 19.9447 14.8242L21.8895 15.2911C22.0064 14.804 22 14.2979 22 13.6118H20ZM21.4106 16.4474C21.6299 16.0895 21.7915 15.6993 21.8895 15.2911L19.9447 14.8243C19.8957 15.0283 19.8149 15.2234 19.7053 15.4024L21.4106 16.4474ZM13.6118 22C14.2979 22 14.804 22.0064 15.2911 21.8895L14.8242 19.9447C14.6208 19.9936 14.3931 20 13.6118 20V22ZM16.2988 18.887C15.7463 19.4395 15.5807 19.596 15.4024 19.7053L16.4474 21.4106C16.8745 21.1488 17.2278 20.7864 17.713 20.3012L16.2988 18.887ZM15.2911 21.8895C15.6993 21.7915 16.0895 21.6299 16.4474 21.4106L15.4024 19.7053C15.2234 19.8149 15.0283 19.8957 14.8243 19.9447L15.2911 21.8895ZM10.3882 20C9.60685 20 9.37916 19.9936 9.17575 19.9447L8.70886 21.8895C9.19598 22.0064 9.70205 22 10.3882 22V20ZM6.28701 20.3012C6.7722 20.7864 7.12551 21.1488 7.55264 21.4106L8.59764 19.7053C8.41928 19.596 8.25373 19.4395 7.70122 18.887L6.28701 20.3012ZM9.17575 19.9447C8.97168 19.8957 8.77659 19.8149 8.59764 19.7053L7.55265 21.4106C7.91054 21.6299 8.30072 21.7915 8.70886 21.8895L9.17575 19.9447ZM13.2223 9.77789C13.2223 10.2392 12.9671 10.6424 12.5854 10.8513L13.5458 12.6056C14.5426 12.0599 15.2223 10.999 15.2223 9.77789H13.2223ZM10.7778 9.77789C10.7778 9.10287 11.325 8.55566 12.0001 8.55566V6.55566C10.2205 6.55566 8.77783 7.9983 8.77783 9.77789H10.7778ZM12.0001 8.55566C12.6751 8.55566 13.2223 9.10287 13.2223 9.77789H15.2223C15.2223 7.9983 13.7796 6.55566 12.0001 6.55566V8.55566ZM11.0001 16.4446V16.5557H13.0001V16.4446H11.0001ZM12.5854 10.8513C12.2482 11.0359 11.8734 11.2976 11.5719 11.6492C11.266 12.0059 11.0001 12.5002 11.0001 13.1112H13.0001C13.0001 13.1086 12.9977 13.0589 13.09 12.9512C13.1867 12.8385 13.3447 12.7157 13.5458 12.6056L12.5854 10.8513Z" fill="#0B0D12"/>
</svg>
