<svg width="24" height="24" viewBox="0 0 24 24" fill="none" xmlns="http://www.w3.org/2000/svg">
<path d="M8.63828 4.07512L9.16355 4.92605L8.63828 4.07512ZM5.27871 6.14893L4.75344 5.29799L5.27871 6.14893ZM5.27871 17.851L5.80398 17.0001H5.80398L5.27871 17.851ZM8.63828 19.9248L8.11301 20.7758H8.11301L8.63828 19.9248ZM15.3617 19.9248L14.8365 19.0739V19.0739L15.3617 19.9248ZM18.7213 17.851L18.196 17.0001H18.196L18.7213 17.851ZM18.7213 6.14892L18.196 6.99986L18.196 6.99986L18.7213 6.14892ZM15.3617 4.07511L15.887 3.22418V3.22418L15.3617 4.07511ZM20.8612 8.32739L21.815 8.02678L21.815 8.02678L20.8612 8.32739ZM20.2703 7.26817L21.0271 6.6145V6.6145L20.2703 7.26817ZM20.2703 16.7318L21.0271 17.3855L21.0271 17.3855L20.2703 16.7318ZM20.8612 15.6726L21.815 15.9732L21.815 15.9732L20.8612 15.6726ZM11.1223 21.2018L11.3418 20.2262H11.3418L11.1223 21.2018ZM12.8777 21.2018L12.6582 20.2262H12.6582L12.8777 21.2018ZM3.13876 15.6726L4.0925 15.372L3.13876 15.6726ZM3.72968 16.7318L2.97291 17.3855H2.97291L3.72968 16.7318ZM3.72968 7.26817L2.97291 6.6145L2.97291 6.6145L3.72968 7.26817ZM3.13876 8.32739L2.18501 8.02678H2.18501L3.13876 8.32739ZM11.1223 2.79816L11.3418 3.77379L11.1223 2.79816ZM12.8777 2.79816L12.6582 3.77379L12.8777 2.79816ZM13.0656 11.7285L13.5458 12.6056L13.0656 11.7285ZM8.77783 9.77786C8.77783 10.3301 9.22555 10.7779 9.77783 10.7779C10.3301 10.7779 10.7778 10.3301 10.7778 9.77786H8.77783ZM13.0001 16.4445C13.0001 15.8922 12.5523 15.4445 12.0001 15.4445C11.4478 15.4445 11.0001 15.8922 11.0001 16.4445H13.0001ZM11.0001 16.5556C11.0001 17.1079 11.4478 17.5556 12.0001 17.5556C12.5523 17.5556 13.0001 17.1079 13.0001 16.5556H11.0001ZM11.0001 13.1112C11.0001 13.6635 11.4478 14.1112 12.0001 14.1112C12.5523 14.1112 13.0001 13.6635 13.0001 13.1112H11.0001ZM8.11301 3.22418L4.75344 5.29799L5.80397 6.99986L9.16355 4.92605L8.11301 3.22418ZM2 10.2334V13.7665H4V10.2334H2ZM4.75344 18.702L8.11301 20.7758L9.16355 19.0739L5.80398 17.0001L4.75344 18.702ZM15.887 20.7758L19.2466 18.702L18.196 17.0001L14.8365 19.0739L15.887 20.7758ZM22 13.7665V10.2334H20V13.7665H22ZM19.2466 5.29799L15.887 3.22418L14.8365 4.92605L18.196 6.99986L19.2466 5.29799ZM22 10.2334C22 9.32128 22.011 8.64851 21.815 8.02678L19.9075 8.628C19.989 8.88674 20 9.19117 20 10.2334H22ZM18.196 6.99986C19.0829 7.54732 19.3362 7.71655 19.5135 7.92185L21.0271 6.6145C20.601 6.12117 20.0227 5.7771 19.2466 5.29799L18.196 6.99986ZM21.815 8.02678C21.6513 7.50728 21.3831 7.0267 21.0271 6.6145L19.5135 7.92185C19.6916 8.12796 19.8256 8.36825 19.9075 8.628L21.815 8.02678ZM19.2466 18.702C20.0227 18.2228 20.601 17.8788 21.0271 17.3855L19.5135 16.0781C19.3362 16.2834 19.0829 16.4526 18.196 17.0001L19.2466 18.702ZM20 13.7665C20 14.8088 19.989 15.1132 19.9075 15.372L21.815 15.9732C22.011 15.3514 22 14.6787 22 13.7665H20ZM21.0271 17.3855C21.3831 16.9733 21.6513 16.4927 21.815 15.9732L19.9075 15.372C19.8256 15.6317 19.6916 15.872 19.5135 16.0781L21.0271 17.3855ZM8.11301 20.7758C9.2718 21.4911 10.0471 21.985 10.9029 22.1774L11.3418 20.2262C10.8907 20.1247 10.4456 19.8653 9.16355 19.0739L8.11301 20.7758ZM14.8365 19.0739C13.5544 19.8653 13.1093 20.1247 12.6582 20.2262L13.0971 22.1774C13.9529 21.985 14.7282 21.4911 15.887 20.7758L14.8365 19.0739ZM10.9029 22.1774C11.6253 22.3399 12.3747 22.3399 13.0971 22.1774L12.6582 20.2262C12.2248 20.3236 11.7752 20.3236 11.3418 20.2262L10.9029 22.1774ZM2 13.7665C2 14.6787 1.98905 15.3514 2.18501 15.9732L4.0925 15.372C4.01095 15.1132 4 14.8088 4 13.7665H2ZM5.80398 17.0001C4.91709 16.4526 4.66379 16.2834 4.48646 16.0781L2.97291 17.3855C3.39903 17.8788 3.97727 18.2228 4.75344 18.702L5.80398 17.0001ZM2.18501 15.9732C2.34875 16.4927 2.61686 16.9733 2.97291 17.3855L4.48646 16.0781C4.30843 15.872 4.17437 15.6317 4.0925 15.372L2.18501 15.9732ZM4.75344 5.29799C3.97727 5.77711 3.39903 6.12117 2.97291 6.6145L4.48646 7.92185C4.66379 7.71655 4.91709 7.54732 5.80397 6.99986L4.75344 5.29799ZM4 10.2334C4 9.19117 4.01095 8.88674 4.0925 8.628L2.18501 8.02678C1.98905 8.64851 2 9.32128 2 10.2334H4ZM2.97291 6.6145C2.61686 7.0267 2.34875 7.50728 2.18501 8.02678L4.0925 8.628C4.17437 8.36825 4.30843 8.12796 4.48646 7.92185L2.97291 6.6145ZM9.16355 4.92605C10.4456 4.13469 10.8907 3.87524 11.3418 3.77379L10.9029 1.82252C10.0471 2.01499 9.2718 2.50888 8.11301 3.22418L9.16355 4.92605ZM15.887 3.22418C14.7282 2.50888 13.9529 2.01499 13.0971 1.82252L12.6582 3.77379C13.1093 3.87524 13.5544 4.13469 14.8365 4.92605L15.887 3.22418ZM11.3418 3.77379C11.7752 3.67632 12.2248 3.67632 12.6582 3.77379L13.0971 1.82252C12.3747 1.66007 11.6253 1.66007 10.9029 1.82252L11.3418 3.77379ZM13.2223 9.77786C13.2223 10.2392 12.9671 10.6423 12.5854 10.8513L13.5458 12.6056C14.5426 12.0599 15.2223 10.999 15.2223 9.77786H13.2223ZM10.7778 9.77786C10.7778 9.10285 11.325 8.55564 12.0001 8.55564V6.55564C10.2205 6.55564 8.77783 7.99828 8.77783 9.77786H10.7778ZM12.0001 8.55564C12.6751 8.55564 13.2223 9.10285 13.2223 9.77786H15.2223C15.2223 7.99828 13.7796 6.55564 12.0001 6.55564V8.55564ZM11.0001 16.4445V16.5556H13.0001V16.4445H11.0001ZM12.5854 10.8513C12.2482 11.0359 11.8734 11.2976 11.5719 11.6492C11.266 12.0059 11.0001 12.5001 11.0001 13.1112H13.0001C13.0001 13.1086 12.9977 13.0588 13.09 12.9512C13.1867 12.8385 13.3447 12.7157 13.5458 12.6056L12.5854 10.8513Z" fill="#0B0D12"/>
</svg>
