<svg width="24" height="24" viewBox="0 0 24 24" fill="none" xmlns="http://www.w3.org/2000/svg">
<path d="M8.4 5H6.2C5.0799 5 4.51984 5 4.09202 5.21799C3.71569 5.40973 3.40973 5.71569 3.21799 6.09202C3 6.51984 3 7.0799 3 8.2V19L8.38764 15.9213C8.97488 15.5858 9.2685 15.418 9.48211 15.1822C9.67111 14.9737 9.81395 14.7275 9.90129 14.4599C10 14.1575 10 13.8193 10 13.143V6.6C10 6.03995 10 5.75992 9.89101 5.54601C9.79513 5.35785 9.64215 5.20487 9.45399 5.10899C9.24008 5 8.96005 5 8.4 5Z" stroke="#0B0D12" stroke-width="2" stroke-linecap="round" stroke-linejoin="round"/>
<path d="M19.4 5H17.2C16.0799 5 15.5198 5 15.092 5.21799C14.7157 5.40973 14.4097 5.71569 14.218 6.09202C14 6.51984 14 7.0799 14 8.2V19L19.3876 15.9213C19.9749 15.5858 20.2685 15.418 20.4821 15.1822C20.6711 14.9737 20.8139 14.7275 20.9013 14.4599C21 14.1575 21 13.8193 21 13.143V6.6C21 6.03995 21 5.75992 20.891 5.54601C20.7951 5.35785 20.6422 5.20487 20.454 5.10899C20.2401 5 19.9601 5 19.4 5Z" stroke="#0B0D12" stroke-width="2" stroke-linecap="round" stroke-linejoin="round"/>
</svg>
