<svg width="24" height="24" viewBox="0 0 24 24" fill="none" xmlns="http://www.w3.org/2000/svg">
<path d="M15.5 11.5H17M15.5 15.5H17M8 3L8 6M7.8 21H16.2C17.8802 21 18.7202 21 19.362 20.673C19.9265 20.3854 20.3854 19.9265 20.673 19.362C21 18.7202 21 17.8802 21 16.2V10.8C21 9.11984 21 8.27976 20.673 7.63803C20.3854 7.07354 19.9265 6.6146 19.362 6.32698C18.7202 6 17.8802 6 16.2 6H7.8C6.11984 6 5.27976 6 4.63803 6.32698C4.07354 6.6146 3.6146 7.07354 3.32698 7.63803C3 8.27976 3 9.11984 3 10.8V16.2C3 17.8802 3 18.7202 3.32698 19.362C3.6146 19.9265 4.07354 20.3854 4.63803 20.673C5.27976 21 6.11984 21 7.8 21ZM12 13.5C12 14.8807 10.8807 16 9.5 16C8.11929 16 7 14.8807 7 13.5C7 12.1193 8.11929 11 9.5 11C10.8807 11 12 12.1193 12 13.5Z" stroke="#0B0D12" stroke-width="2" stroke-linecap="round" stroke-linejoin="round"/>
</svg>
