<svg width="24" height="24" viewBox="0 0 24 24" fill="none" xmlns="http://www.w3.org/2000/svg">
<path d="M13.96 8.28L13.16 8.88L13.96 8.28ZM15.04 9.72L15.84 9.12L15.04 9.72ZM20 12C20.5523 12 21 11.5523 21 11C21 10.4477 20.5523 10 20 10V12ZM4.60557 9.55279C4.35858 10.0468 4.55881 10.6474 5.05279 10.8944C5.54676 11.1414 6.14744 10.9412 6.39443 10.4472L4.60557 9.55279ZM15.791 10.5932L15.1866 11.3899L15.791 10.5932ZM16.4508 10.9231L16.7254 9.96155H16.7254L16.4508 10.9231ZM12.5492 7.07689L12.8238 6.11534L12.5492 7.07689ZM13.209 7.40675L12.6045 8.20338V8.20338L13.209 7.40675ZM7.58393 7.10931L7.25785 6.16396H7.25785L7.58393 7.10931ZM6.83663 7.57116L6.13691 6.85675L6.83663 7.57116ZM8.89443 16.4472C9.14142 15.9532 8.94119 15.3526 8.44721 15.1056C7.95324 14.8586 7.35256 15.0588 7.10557 15.5528L8.89443 16.4472ZM4 17C3.44772 17 3 17.4477 3 18C3 18.5523 3.44772 19 4 19V17ZM7.16337 17.4288L7.86309 18.1433L7.86309 18.1433L7.16337 17.4288ZM6.41607 17.8907L6.74215 18.836H6.74215L6.41607 17.8907ZM10.7155 14.4311L11.61 13.9839V13.9839L10.7155 14.4311ZM11 21C11 21.5523 11.4477 22 12 22C12.5523 22 13 21.5523 13 21H11ZM10.7155 11.5689L9.82111 11.1217L10.7155 11.5689ZM11.8956 16.8344L10.9478 17.1532V17.1533L11.8956 16.8344ZM11.9807 17.1948L10.9903 17.3335L11.9807 17.1948ZM10.2704 13.3688L9.28751 13.5532L10.2704 13.3688ZM10.2704 12.6312L9.28751 12.4468L10.2704 12.6312ZM13.16 8.88L14.24 10.32L15.84 9.12L14.76 7.68L13.16 8.88ZM17.6 12H20V10H17.6V12ZM6.39443 10.4472L7.00997 9.21613L5.22111 8.3217L4.60557 9.55279L6.39443 10.4472ZM14.24 10.32C14.5572 10.743 14.8258 11.1161 15.1866 11.3899L16.3955 9.79662C16.3102 9.73189 16.2268 9.6357 15.84 9.12L14.24 10.32ZM17.6 10C16.9554 10 16.8284 9.99096 16.7254 9.96155L16.1762 11.8847C16.6116 12.009 17.0713 12 17.6 12V10ZM15.1866 11.3899C15.4829 11.6147 15.8185 11.7825 16.1762 11.8847L16.7254 9.96155C16.6062 9.9275 16.4943 9.87158 16.3955 9.79662L15.1866 11.3899ZM11.4 8C12.0446 8 12.1716 8.00904 12.2746 8.03845L12.8238 6.11534C12.3884 5.99096 11.9287 6 11.4 6V8ZM14.76 7.68C14.4428 7.25704 14.1742 6.88389 13.8134 6.61013L12.6045 8.20338C12.6898 8.26811 12.7732 8.3643 13.16 8.88L14.76 7.68ZM8.97771 6C8.33229 6 7.77105 5.98695 7.25785 6.16396L7.91 8.05466C8.03062 8.01305 8.1873 8 8.97771 8V6ZM7.00997 9.21613C7.36345 8.50917 7.44519 8.37487 7.53635 8.28558L6.13691 6.85675C5.74908 7.2366 5.50976 7.74442 5.22111 8.3217L7.00997 9.21613ZM7.25785 6.16396C6.83748 6.30896 6.4546 6.5456 6.13691 6.85675L7.53635 8.28558C7.64224 8.18187 7.76987 8.10299 7.91 8.05466L7.25785 6.16396ZM8.77889 16.6783L8.89443 16.4472L7.10557 15.5528L6.99003 15.7839L8.77889 16.6783ZM5.02229 17H4V19H5.02229V17ZM6.99003 15.7839C6.63655 16.4908 6.55481 16.6251 6.46365 16.7144L7.86309 18.1433C8.25092 17.7634 8.49024 17.2556 8.77889 16.6783L6.99003 15.7839ZM5.02229 19C5.66771 19 6.22895 19.013 6.74215 18.836L6.09 16.9453C5.96938 16.987 5.8127 17 5.02229 17V19ZM6.46365 16.7144C6.35776 16.8181 6.23013 16.897 6.09 16.9453L6.74215 18.836C7.16252 18.691 7.5454 18.4544 7.86309 18.1433L6.46365 16.7144ZM9.82111 14.8783L10.7677 16.7715L12.5566 15.8771L11.61 13.9839L9.82111 14.8783ZM11 17.7554V21H13V17.7554H11ZM10.7677 16.7715C10.9057 17.0474 10.9307 17.1023 10.9478 17.1532L12.8434 16.5155C12.7717 16.3023 12.6707 16.1052 12.5566 15.8771L10.7677 16.7715ZM13 17.7554C13 17.5004 13.0022 17.2789 12.971 17.0562L10.9903 17.3335C10.9978 17.3867 11 17.447 11 17.7554H13ZM10.9478 17.1533C10.9675 17.2119 10.9818 17.2722 10.9903 17.3335L12.971 17.0562C12.9453 16.8724 12.9026 16.6914 12.8434 16.5155L10.9478 17.1533ZM11.61 13.9839C11.3217 13.4073 11.273 13.2897 11.2532 13.1844L9.28751 13.5532C9.37103 13.9983 9.58467 14.4054 9.82111 14.8783L11.61 13.9839ZM9.82111 11.1217C9.58467 11.5946 9.37103 12.0017 9.28751 12.4468L11.2532 12.8156C11.273 12.7103 11.3217 12.5927 11.61 12.0161L9.82111 11.1217ZM11.2532 13.1844C11.2304 13.0625 11.2304 12.9375 11.2532 12.8156L9.28751 12.4468C9.21892 12.8124 9.21892 13.1876 9.28751 13.5532L11.2532 13.1844ZM14.5 4V6C15.6046 6 16.5 5.10457 16.5 4H14.5ZM14.5 4H12.5C12.5 5.10457 13.3954 6 14.5 6V4ZM14.5 4V2C13.3954 2 12.5 2.89543 12.5 4H14.5ZM14.5 4H16.5C16.5 2.89543 15.6046 2 14.5 2V4ZM8.97771 8H11.4V6H8.97771V8ZM11.61 12.0161L13.7889 7.65836L12 6.76393L9.82111 11.1217L11.61 12.0161ZM12.2746 8.03845C12.3342 8.05547 12.392 8.07797 12.4472 8.10557L13.3416 6.31672C13.176 6.2339 13.0027 6.16641 12.8238 6.11534L12.2746 8.03845ZM12.4472 8.10557C12.5024 8.13318 12.5551 8.1659 12.6045 8.20338L13.8134 6.61013C13.6653 6.4977 13.5073 6.39954 13.3416 6.31672L12.4472 8.10557Z" fill="#0B0D12"/>
</svg>
