<svg width="24" height="24" viewBox="0 0 24 24" fill="none" xmlns="http://www.w3.org/2000/svg">
<path d="M10.5035 3.40135L10.0018 4.26643C10.3121 4.44632 10.6949 4.44632 11.0051 4.26643L10.5035 3.40135ZM14.8224 5L15.7685 4.67597L15.7655 4.66746L14.8224 5ZM8.66025 20.7963L8.4013 21.7622L8.66025 20.7963ZM3.96866 15.3612L4.90871 15.0202H4.90871L3.96866 15.3612ZM5.30095 18.4377L4.48071 19.0097L5.30095 18.4377ZM20.0311 15.3612L20.9712 15.7023V15.7023L20.0311 15.3612ZM18.6988 18.4377L19.519 19.0097L18.6988 18.4377ZM15.3395 20.7963L15.5985 21.7622L15.3395 20.7963ZM19.9546 10.338L20.4827 9.48886L19.9546 10.338ZM20.2472 14.7655L19.3072 14.4245V14.4245L20.2472 14.7655ZM20.9683 11.7887L19.9894 11.9932L20.9683 11.7887ZM4.04511 10.338L3.51703 9.48886H3.51703L4.04511 10.338ZM3.75254 14.7655L2.81248 15.1065H2.81248L3.75254 14.7655ZM3.03149 11.7887L4.01034 11.9932L3.03149 11.7887ZM13.7143 5.73132L13.2906 4.82553L13.2906 4.82553L13.7143 5.73132ZM17.1933 4.10389L17.617 5.00968L17.1933 4.10389ZM19.9122 6.77962L18.998 6.37429L18.9955 6.38L19.9122 6.77962ZM17.5832 9.61972C17.3625 10.126 17.594 10.7153 18.1003 10.936C18.6065 11.1567 19.1959 10.9252 19.4166 10.419L17.5832 9.61972ZM13.2871 9.29374C12.8971 9.68473 12.8978 10.3179 13.2888 10.708C13.6798 11.098 14.313 11.0973 14.7031 10.7063L13.2871 9.29374ZM16.6983 8.70626C17.0883 8.31527 17.0876 7.6821 16.6966 7.29205C16.3056 6.90199 15.6724 6.90275 15.2824 7.29374L16.6983 8.70626ZM19.4918 4.50981L20.1997 3.80356L20.1997 3.80356L19.4918 4.50981ZM10.0023 10C10.0023 10.5523 10.45 11 11.0023 11C11.5546 11 12.0023 10.5523 12.0023 10H10.0023ZM4.05436 10L3.06438 10.1413C3.06772 10.1646 3.07188 10.1879 3.07687 10.211L4.05436 10ZM9.97694 9.85873C9.89892 10.4055 10.2789 10.912 10.8256 10.99C11.3724 11.068 11.8789 10.688 11.9569 10.1413L9.97694 9.85873ZM14.8853 5.18355L15.309 6.08934H15.309L14.8853 5.18355ZM4.11816 10.2956L4.595 11.1746H4.595L4.11816 10.2956ZM7.01422 6C7.01422 4.89317 7.90869 4 9.00705 4V2C6.79961 2 5.01422 3.79312 5.01422 6H7.01422ZM11.0051 4.26643C11.2971 4.09712 11.6357 4 11.9999 4V2C11.2738 2 10.5903 2.19506 10.0018 2.53626L11.0051 4.26643ZM9.00705 4C9.37122 4 9.70985 4.09712 10.0018 4.26643L11.0051 2.53626C10.4167 2.19506 9.73313 2 9.00705 2V4ZM11.9999 4C12.8645 4 13.6047 4.55357 13.8793 5.33254L15.7655 4.66746C15.2185 3.11604 13.7414 2 11.9999 2V4ZM7.08244 11H16.9173V9H7.08244V11ZM19.3072 14.4245L19.091 15.0202L20.9712 15.7023L21.1873 15.1065L19.3072 14.4245ZM4.90871 15.0202L4.69259 14.4245L2.81248 15.1065L3.0286 15.7023L4.90871 15.0202ZM11.9999 20C10.222 20 9.52113 19.9918 8.91919 19.8304L8.4013 21.7622C9.31915 22.0082 10.3382 22 11.9999 22V20ZM3.0286 15.7023C3.59658 17.268 3.93683 18.2299 4.48071 19.0097L6.12118 17.8657C5.7637 17.3531 5.51621 16.6948 4.90871 15.0202L3.0286 15.7023ZM8.91919 19.8304C7.7853 19.5264 6.7943 18.8309 6.12118 17.8657L4.48071 19.0097C5.42307 20.361 6.81136 21.3359 8.4013 21.7622L8.91919 19.8304ZM19.091 15.0202C18.4835 16.6948 18.2361 17.3531 17.8786 17.8657L19.519 19.0097C20.0629 18.2299 20.4032 17.268 20.9712 15.7023L19.091 15.0202ZM11.9999 22C13.6616 22 14.6806 22.0082 15.5985 21.7622L15.0806 19.8304C14.4786 19.9918 13.7778 20 11.9999 20V22ZM17.8786 17.8657C17.2055 18.8309 16.2145 19.5264 15.0806 19.8304L15.5985 21.7622C17.1884 21.3359 18.5767 20.361 19.519 19.0097L17.8786 17.8657ZM16.9173 11C17.7669 11 18.3387 11.0009 18.7685 11.0385C19.1947 11.0757 19.3527 11.1413 19.4266 11.1872L20.4827 9.48886C20.013 9.19675 19.4836 9.09333 18.9426 9.04605C18.4053 8.9991 17.7302 9 16.9173 9V11ZM21.1873 15.1065C21.4651 14.3406 21.6965 13.7053 21.8361 13.1834C21.9765 12.658 22.0602 12.1251 21.9471 11.5841L19.9894 11.9932C20.0075 12.0798 20.0147 12.2523 19.9039 12.6669C19.7921 13.0849 19.5974 13.6243 19.3072 14.4245L21.1873 15.1065ZM19.4266 11.1872C19.7156 11.367 19.9194 11.6581 19.9894 11.9932L21.9471 11.5841C21.7655 10.7151 21.2367 9.95771 20.4827 9.48886L19.4266 11.1872ZM4.69259 14.4245C4.40231 13.6243 4.20761 13.0849 4.09585 12.6669C3.98501 12.2523 3.99225 12.0798 4.01034 11.9932L2.05264 11.5841C1.93957 12.1251 2.02325 12.658 2.1637 13.1834C2.30322 13.7053 2.53463 14.3406 2.81248 15.1065L4.69259 14.4245ZM3.51703 9.48886C2.76309 9.95771 2.23426 10.7151 2.05264 11.5841L4.01034 11.9932C4.08039 11.6581 4.28413 11.367 4.5732 11.1872L3.51703 9.48886ZM18.9955 6.38L17.5832 9.61972L19.4166 10.419L20.8289 7.17924L18.9955 6.38ZM14.7031 10.7063L16.6983 8.70626L15.2824 7.29374L13.2871 9.29374L14.7031 10.7063ZM18.7838 5.21606C19.0869 5.51991 19.1726 5.98052 18.998 6.37429L20.8264 7.18495C21.3354 6.03687 21.0868 4.69282 20.1997 3.80356L18.7838 5.21606ZM17.617 5.00968C18.0101 4.82579 18.4762 4.90772 18.7838 5.21606L20.1997 3.80356C19.2977 2.89933 17.9266 2.65681 16.7695 3.1981L17.617 5.00968ZM12.0023 10C12.0023 8.55702 12.836 7.24618 14.138 6.63711L13.2906 4.82553C11.2836 5.76441 10.0023 7.78262 10.0023 10H12.0023ZM7.51063 7C8.88447 7 10.0023 8.11703 10.0023 9.5H12.0023C12.0023 7.01698 9.99355 5 7.51063 5V7ZM5.04433 9.85873C5.02768 9.74208 5.019 9.62235 5.019 9.5H3.019C3.019 9.71717 3.03442 9.93131 3.06438 10.1413L5.04433 9.85873ZM10.0023 9.5C10.0023 9.62235 9.99358 9.74208 9.97694 9.85873L11.9569 10.1413C11.9868 9.93131 12.0023 9.71717 12.0023 9.5H10.0023ZM14.138 6.63711L15.309 6.08934L14.4616 4.27776L13.2906 4.82553L14.138 6.63711ZM15.309 6.08934L17.617 5.00968L16.7695 3.1981L14.4616 4.27776L15.309 6.08934ZM13.8764 5.32402L13.9392 5.50757L15.8313 4.85954L15.7685 4.67598L13.8764 5.32402ZM5.019 9.5C5.019 8.50291 5.60048 7.64142 6.44415 7.23968L5.58429 5.43395C4.06866 6.15568 3.019 7.7047 3.019 9.5H5.019ZM6.44415 7.23968C6.76629 7.08628 7.12705 7 7.51063 7V5C6.82318 5 6.16923 5.15541 5.58429 5.43395L6.44415 7.23968ZM5.01422 6V6.33682H7.01422V6H5.01422ZM7.08244 9C6.30349 9 5.65294 8.99929 5.1308 9.03997C4.60886 9.08063 4.09837 9.16865 3.64131 9.4166L4.595 11.1746C4.68282 11.1269 4.85959 11.0672 5.28615 11.0339C5.71249 11.0007 6.27165 11 7.08244 11V9ZM3.64131 9.4166C3.59925 9.43943 3.55781 9.46349 3.51703 9.48886L4.5732 11.1872C4.57997 11.183 4.58721 11.1788 4.595 11.1746L3.64131 9.4166ZM3.07687 10.211L3.14067 10.5066L5.09565 10.0846L5.03184 9.78902L3.07687 10.211Z" fill="#0B0D12"/>
</svg>
