<svg width="24" height="24" viewBox="0 0 24 24" fill="none" xmlns="http://www.w3.org/2000/svg">
<path d="M8.79256 11.1667L16.1225 3.83676C17.2382 2.72108 19.0471 2.72108 20.1628 3.83676C21.2785 4.95244 21.2785 6.76132 20.1628 7.87701L12.833 15.2067M12.9912 15.8563L16.0613 18.9264C16.6529 19.5181 17.6122 19.5181 18.2039 18.9264L20.1015 17.0288C20.6932 16.4371 20.6932 15.4778 20.1015 14.8862L16.6276 11.4122M12.5873 7.37198L9.11338 3.89803C8.5217 3.30635 7.5624 3.30635 6.97072 3.89803L5.07313 5.79562C4.48145 6.3873 4.48146 7.3466 5.07314 7.93828L8.13486 11M5.01186 18.9877L7.03199 16.9676M7.03244 10.9072C10.3795 10.9072 13.0928 13.6205 13.0928 16.9676C13.0928 18.4232 12.5796 19.7589 11.7243 20.8038C11.5123 21.0628 11.1259 21.061 10.8892 20.8244L3.17565 13.1108C2.93898 12.8741 2.93724 12.4877 3.19623 12.2757C4.24108 11.4204 5.57683 10.9072 7.03244 10.9072Z" stroke="#0B0D12" stroke-width="2" stroke-linecap="round" stroke-linejoin="round"/>
</svg>
