<svg width="24" height="24" viewBox="0 0 24 24" fill="none" xmlns="http://www.w3.org/2000/svg">
<path d="M7 22C7.55228 22 8 21.5523 8 21C8 20.4477 7.55228 20 7 20V22ZM5.22354 20.8978L5.48236 19.9319H5.48236L5.22354 20.8978ZM4 17C4 16.4477 3.55228 16 3 16C2.44772 16 2 16.4477 2 17H4ZM3.10222 18.7765L4.06815 18.5176L4.06815 18.5176L3.10222 18.7765ZM22 17C22 16.4477 21.5523 16 21 16C20.4477 16 20 16.4477 20 17H22ZM20.8978 18.7765L19.9319 18.5176L20.8978 18.7765ZM17 20C16.4477 20 16 20.4477 16 21C16 21.5523 16.4477 22 17 22V20ZM18.7765 20.8978L18.5176 19.9319L18.7765 20.8978ZM17 2C16.4477 2 16 2.44772 16 3C16 3.55228 16.4477 4 17 4V2ZM18.7765 3.10222L18.5176 4.06815L18.5176 4.06815L18.7765 3.10222ZM20 7C20 7.55228 20.4477 8 21 8C21.5523 8 22 7.55228 22 7H20ZM20.8978 5.22354L19.9319 5.48236V5.48236L20.8978 5.22354ZM2 7C2 7.55228 2.44772 8 3 8C3.55228 8 4 7.55228 4 7H2ZM3.10222 5.22354L4.06815 5.48236L3.10222 5.22354ZM7 4C7.55228 4 8 3.55228 8 3C8 2.44772 7.55228 2 7 2V4ZM5.22354 3.10222L5.48236 4.06815L5.22354 3.10222ZM7.04601 6.60899L7.5 7.5L7.04601 6.60899ZM6.60899 7.04601L7.5 7.5L6.60899 7.04601ZM10.391 7.04601L9.5 7.5L10.391 7.04601ZM9.95399 6.60899L9.5 7.5L9.95399 6.60899ZM9.95399 10.391L9.5 9.5L9.95399 10.391ZM10.391 9.95399L9.5 9.5L10.391 9.95399ZM7.04601 10.391L7.5 9.5L7.04601 10.391ZM6.60899 9.95399L7.5 9.5L6.60899 9.95399ZM14.046 13.609L14.5 14.5L14.046 13.609ZM13.609 14.046L14.5 14.5L13.609 14.046ZM17.391 14.046L16.5 14.5L17.391 14.046ZM16.954 13.609L16.5 14.5L16.954 13.609ZM16.954 17.391L16.5 16.5L16.954 17.391ZM17.391 16.954L16.5 16.5L17.391 16.954ZM14.046 17.391L14.5 16.5L14.046 17.391ZM13.609 16.954L14.5 16.5L13.609 16.954ZM14 9C13.4477 9 13 9.44772 13 10C13 10.5523 13.4477 11 14 11V9ZM17 11C17.5523 11 18 10.5523 18 10C18 9.44772 17.5523 9 17 9V11ZM17 8C17.5523 8 18 7.55228 18 7C18 6.44772 17.5523 6 17 6V8ZM14 6C13.4477 6 13 6.44772 13 7C13 7.55228 13.4477 8 14 8V6ZM10.7071 14.7071C11.0976 14.3166 11.0976 13.6834 10.7071 13.2929C10.3166 12.9024 9.68342 12.9024 9.29289 13.2929L10.7071 14.7071ZM8.79289 13.7929C8.40237 14.1834 8.40237 14.8166 8.79289 15.2071C9.18342 15.5976 9.81658 15.5976 10.2071 15.2071L8.79289 13.7929ZM10 18.5C10.5523 18.5 11 18.0523 11 17.5C11 16.9477 10.5523 16.5 10 16.5V18.5ZM7.5 14C7.5 13.4477 7.05228 13 6.5 13C5.94772 13 5.5 13.4477 5.5 14H7.5ZM7.04601 17.391L6.59202 18.282L7.04601 17.391ZM6.60899 16.954L5.71799 17.408L6.60899 16.954ZM7 20C6.00565 20 5.70464 19.9914 5.48236 19.9319L4.96472 21.8637C5.50545 22.0086 6.13441 22 7 22V20ZM2 17C2 17.8656 1.99141 18.4946 2.1363 19.0353L4.06815 18.5176C4.00859 18.2954 4 17.9944 4 17H2ZM5.48236 19.9319C4.79218 19.7469 4.25308 19.2078 4.06815 18.5176L2.1363 19.0353C2.50617 20.4156 3.58436 21.4938 4.96472 21.8637L5.48236 19.9319ZM20 17C20 17.9944 19.9914 18.2954 19.9319 18.5176L21.8637 19.0353C22.0086 18.4946 22 17.8656 22 17H20ZM17 22C17.8656 22 18.4946 22.0086 19.0353 21.8637L18.5176 19.9319C18.2954 19.9914 17.9944 20 17 20V22ZM19.9319 18.5176C19.7469 19.2078 19.2078 19.7469 18.5176 19.9319L19.0353 21.8637C20.4156 21.4938 21.4938 20.4156 21.8637 19.0353L19.9319 18.5176ZM17 4C17.9944 4 18.2954 4.00859 18.5176 4.06815L19.0353 2.1363C18.4946 1.99141 17.8656 2 17 2V4ZM22 7C22 6.13441 22.0086 5.50545 21.8637 4.96472L19.9319 5.48236C19.9914 5.70464 20 6.00565 20 7H22ZM18.5176 4.06815C19.2078 4.25308 19.7469 4.79218 19.9319 5.48236L21.8637 4.96472C21.4938 3.58436 20.4156 2.50617 19.0353 2.1363L18.5176 4.06815ZM4 7C4 6.00565 4.00859 5.70464 4.06815 5.48236L2.1363 4.96472C1.99141 5.50545 2 6.13441 2 7H4ZM7 2C6.13441 2 5.50545 1.99141 4.96472 2.1363L5.48236 4.06815C5.70464 4.00859 6.00565 4 7 4V2ZM4.06815 5.48236C4.25308 4.79218 4.79218 4.25308 5.48236 4.06815L4.96472 2.1363C3.58436 2.50617 2.50617 3.58436 2.1363 4.96472L4.06815 5.48236ZM8.1 11.5H8.9V9.5H8.1V11.5ZM11.5 8.9V8.1H9.5V8.9H11.5ZM8.9 5.5H8.1V7.5H8.9V5.5ZM5.5 8.1V8.9H7.5V8.1H5.5ZM8.1 5.5C7.83647 5.5 7.57869 5.49922 7.36177 5.51695C7.13318 5.53562 6.86344 5.57969 6.59202 5.71799L7.5 7.5C7.44249 7.5293 7.41972 7.51887 7.52463 7.5103C7.64122 7.50078 7.80347 7.5 8.1 7.5V5.5ZM7.5 8.1C7.5 7.80347 7.50078 7.64122 7.5103 7.52463C7.51887 7.41972 7.5293 7.44249 7.5 7.5L5.71799 6.59202C5.57969 6.86344 5.53562 7.13318 5.51695 7.36177C5.49922 7.57869 5.5 7.83647 5.5 8.1H7.5ZM6.59202 5.71799C6.21569 5.90973 5.90973 6.21569 5.71799 6.59202L7.5 7.5L6.59202 5.71799ZM11.5 8.1C11.5 7.83647 11.5008 7.57869 11.4831 7.36177C11.4644 7.13318 11.4203 6.86344 11.282 6.59202L9.5 7.5C9.4707 7.44249 9.48113 7.41972 9.4897 7.52463C9.49922 7.64122 9.5 7.80347 9.5 8.1H11.5ZM8.9 7.5C9.19653 7.5 9.35878 7.50078 9.47537 7.5103C9.58028 7.51887 9.55751 7.5293 9.5 7.5L10.408 5.71799C10.1366 5.57969 9.86682 5.53562 9.63823 5.51695C9.42131 5.49922 9.16353 5.5 8.9 5.5V7.5ZM11.282 6.59202C11.0903 6.21569 10.7843 5.90973 10.408 5.71799L9.5 7.5L11.282 6.59202ZM8.9 11.5C9.16353 11.5 9.42131 11.5008 9.63823 11.4831C9.86682 11.4644 10.1366 11.4203 10.408 11.282L9.5 9.5C9.55751 9.4707 9.58028 9.48113 9.47537 9.4897C9.35878 9.49922 9.19653 9.5 8.9 9.5V11.5ZM9.5 8.9C9.5 9.19653 9.49922 9.35878 9.4897 9.47537C9.48113 9.58028 9.4707 9.55751 9.5 9.5L11.282 10.408C11.4203 10.1366 11.4644 9.86682 11.4831 9.63823C11.5008 9.42131 11.5 9.16353 11.5 8.9H9.5ZM10.408 11.282C10.7843 11.0903 11.0903 10.7843 11.282 10.408L9.5 9.5L10.408 11.282ZM8.1 9.5C7.80347 9.5 7.64122 9.49922 7.52463 9.4897C7.41972 9.48113 7.44249 9.4707 7.5 9.5L6.59202 11.282C6.86344 11.4203 7.13318 11.4644 7.36177 11.4831C7.57869 11.5008 7.83647 11.5 8.1 11.5V9.5ZM5.5 8.9C5.5 9.16353 5.49922 9.42131 5.51695 9.63823C5.53562 9.86682 5.57969 10.1366 5.71799 10.408L7.5 9.5C7.5293 9.55751 7.51887 9.58028 7.5103 9.47537C7.50078 9.35878 7.5 9.19653 7.5 8.9H5.5ZM7.5 9.5L5.71799 10.408C5.90973 10.7843 6.21569 11.0903 6.59202 11.282L7.5 9.5ZM15.1 18.5H15.9V16.5H15.1V18.5ZM18.5 15.9V15.1H16.5V15.9H18.5ZM15.9 12.5H15.1V14.5H15.9V12.5ZM12.5 15.1V15.9H14.5V15.1H12.5ZM15.1 12.5C14.8365 12.5 14.5787 12.4992 14.3618 12.5169C14.1332 12.5356 13.8634 12.5797 13.592 12.718L14.5 14.5C14.4425 14.5293 14.4197 14.5189 14.5246 14.5103C14.6412 14.5008 14.8035 14.5 15.1 14.5V12.5ZM14.5 15.1C14.5 14.8035 14.5008 14.6412 14.5103 14.5246C14.5189 14.4197 14.5293 14.4425 14.5 14.5L12.718 13.592C12.5797 13.8634 12.5356 14.1332 12.5169 14.3618C12.4992 14.5787 12.5 14.8365 12.5 15.1H14.5ZM13.592 12.718C13.2157 12.9097 12.9097 13.2157 12.718 13.592L14.5 14.5L13.592 12.718ZM18.5 15.1C18.5 14.8365 18.5008 14.5787 18.4831 14.3618C18.4644 14.1332 18.4203 13.8634 18.282 13.592L16.5 14.5C16.4707 14.4425 16.4811 14.4197 16.4897 14.5246C16.4992 14.6412 16.5 14.8035 16.5 15.1H18.5ZM15.9 14.5C16.1965 14.5 16.3588 14.5008 16.4754 14.5103C16.5803 14.5189 16.5575 14.5293 16.5 14.5L17.408 12.718C17.1366 12.5797 16.8668 12.5356 16.6382 12.5169C16.4213 12.4992 16.1635 12.5 15.9 12.5V14.5ZM18.282 13.592C18.0903 13.2157 17.7843 12.9097 17.408 12.718L16.5 14.5L18.282 13.592ZM15.9 18.5C16.1635 18.5 16.4213 18.5008 16.6382 18.4831C16.8668 18.4644 17.1366 18.4203 17.408 18.282L16.5 16.5C16.5575 16.4707 16.5803 16.4811 16.4754 16.4897C16.3588 16.4992 16.1965 16.5 15.9 16.5V18.5ZM16.5 15.9C16.5 16.1965 16.4992 16.3588 16.4897 16.4754C16.4811 16.5803 16.4707 16.5575 16.5 16.5L18.282 17.408C18.4203 17.1366 18.4644 16.8668 18.4831 16.6382C18.5008 16.4213 18.5 16.1635 18.5 15.9H16.5ZM17.408 18.282C17.7843 18.0903 18.0903 17.7843 18.282 17.408L16.5 16.5L17.408 18.282ZM15.1 16.5C14.8035 16.5 14.6412 16.4992 14.5246 16.4897C14.4197 16.4811 14.4425 16.4707 14.5 16.5L13.592 18.282C13.8634 18.4203 14.1332 18.4644 14.3618 18.4831C14.5787 18.5008 14.8365 18.5 15.1 18.5V16.5ZM12.5 15.9C12.5 16.1635 12.4992 16.4213 12.5169 16.6382C12.5356 16.8668 12.5797 17.1366 12.718 17.408L14.5 16.5C14.5293 16.5575 14.5189 16.5803 14.5103 16.4754C14.5008 16.3588 14.5 16.1965 14.5 15.9H12.5ZM14.5 16.5L12.718 17.408C12.9097 17.7843 13.2157 18.0903 13.592 18.282L14.5 16.5ZM14 11H17V9H14V11ZM17 6H14V8H17V6ZM9.29289 13.2929L8.79289 13.7929L10.2071 15.2071L10.7071 14.7071L9.29289 13.2929ZM8.1 18.5H10V16.5H8.1V18.5ZM5.5 14V15.9H7.5V14H5.5ZM8.1 16.5C7.80347 16.5 7.64122 16.4992 7.52463 16.4897C7.41972 16.4811 7.44249 16.4707 7.5 16.5L6.59202 18.282C6.86344 18.4203 7.13318 18.4644 7.36177 18.4831C7.57869 18.5008 7.83647 18.5 8.1 18.5V16.5ZM5.5 15.9C5.5 16.1635 5.49922 16.4213 5.51695 16.6382C5.53562 16.8668 5.57969 17.1366 5.71799 17.408L7.5 16.5C7.5293 16.5575 7.51887 16.5803 7.5103 16.4754C7.50078 16.3588 7.5 16.1965 7.5 15.9H5.5ZM7.5 16.5L5.71799 17.408C5.90973 17.7843 6.2157 18.0903 6.59202 18.282L7.5 16.5Z" fill="#0B0D12"/>
</svg>
