<svg width="24" height="24" viewBox="0 0 24 24" fill="none" xmlns="http://www.w3.org/2000/svg">
<path d="M7 22C7.55228 22 8 21.5523 8 21C8 20.4477 7.55228 20 7 20V22ZM5.22354 20.8978L5.48236 19.9319H5.48236L5.22354 20.8978ZM4 17C4 16.4477 3.55228 16 3 16C2.44772 16 2 16.4477 2 17H4ZM3.10222 18.7765L4.06815 18.5176L4.06815 18.5176L3.10222 18.7765ZM22 17C22 16.4477 21.5523 16 21 16C20.4477 16 20 16.4477 20 17H22ZM20.8978 18.7765L19.9319 18.5176L20.8978 18.7765ZM17 20C16.4477 20 16 20.4477 16 21C16 21.5523 16.4477 22 17 22V20ZM18.7765 20.8978L18.5176 19.9319L18.7765 20.8978ZM17 2C16.4477 2 16 2.44772 16 3C16 3.55228 16.4477 4 17 4V2ZM18.7765 3.10222L18.5176 4.06815L18.5176 4.06815L18.7765 3.10222ZM20 7C20 7.55228 20.4477 8 21 8C21.5523 8 22 7.55228 22 7H20ZM20.8978 5.22354L19.9319 5.48236V5.48236L20.8978 5.22354ZM2 7C2 7.55228 2.44772 8 3 8C3.55228 8 4 7.55228 4 7H2ZM3.10222 5.22354L4.06815 5.48236L3.10222 5.22354ZM7 4C7.55228 4 8 3.55228 8 3C8 2.44772 7.55228 2 7 2V4ZM5.22354 3.10222L5.48236 4.06815L5.22354 3.10222ZM3 11C2.44772 11 2 11.4477 2 12C2 12.5523 2.44772 13 3 13V11ZM5 13C5.55228 13 6 12.5523 6 12C6 11.4477 5.55228 11 5 11V13ZM19 11C18.4477 11 18 11.4477 18 12C18 12.5523 18.4477 13 19 13V11ZM21 13C21.5523 13 22 12.5523 22 12C22 11.4477 21.5523 11 21 11V13ZM13.5 11C12.9477 11 12.5 11.4477 12.5 12C12.5 12.5523 12.9477 13 13.5 13V11ZM16 13C16.5523 13 17 12.5523 17 12C17 11.4477 16.5523 11 16 11V13ZM8 11C7.44772 11 7 11.4477 7 12C7 12.5523 7.44772 13 8 13V11ZM10.5 13C11.0523 13 11.5 12.5523 11.5 12C11.5 11.4477 11.0523 11 10.5 11V13ZM7 20C6.00565 20 5.70464 19.9914 5.48236 19.9319L4.96472 21.8637C5.50545 22.0086 6.13441 22 7 22V20ZM2 17C2 17.8656 1.99141 18.4946 2.1363 19.0353L4.06815 18.5176C4.00859 18.2954 4 17.9944 4 17H2ZM5.48236 19.9319C4.79218 19.7469 4.25308 19.2078 4.06815 18.5176L2.1363 19.0353C2.50617 20.4156 3.58436 21.4938 4.96472 21.8637L5.48236 19.9319ZM20 17C20 17.9944 19.9914 18.2954 19.9319 18.5176L21.8637 19.0353C22.0086 18.4946 22 17.8656 22 17H20ZM17 22C17.8656 22 18.4946 22.0086 19.0353 21.8637L18.5176 19.9319C18.2954 19.9914 17.9944 20 17 20V22ZM19.9319 18.5176C19.7469 19.2078 19.2078 19.7469 18.5176 19.9319L19.0353 21.8637C20.4156 21.4938 21.4938 20.4156 21.8637 19.0353L19.9319 18.5176ZM17 4C17.9944 4 18.2954 4.00859 18.5176 4.06815L19.0353 2.1363C18.4946 1.99141 17.8656 2 17 2V4ZM22 7C22 6.13441 22.0086 5.50545 21.8637 4.96472L19.9319 5.48236C19.9914 5.70464 20 6.00565 20 7H22ZM18.5176 4.06815C19.2078 4.25308 19.7469 4.79218 19.9319 5.48236L21.8637 4.96472C21.4938 3.58436 20.4156 2.50617 19.0353 2.1363L18.5176 4.06815ZM4 7C4 6.00565 4.00859 5.70464 4.06815 5.48236L2.1363 4.96472C1.99141 5.50545 2 6.13441 2 7H4ZM7 2C6.13441 2 5.50545 1.99141 4.96472 2.1363L5.48236 4.06815C5.70464 4.00859 6.00565 4 7 4V2ZM4.06815 5.48236C4.25308 4.79218 4.79218 4.25308 5.48236 4.06815L4.96472 2.1363C3.58436 2.50617 2.50617 3.58436 2.1363 4.96472L4.06815 5.48236ZM3 13H5V11H3V13ZM19 13H21V11H19V13ZM13.5 13H16V11H13.5V13ZM8 13H10.5V11H8V13Z" fill="#0B0D12"/>
</svg>
