<svg width="24" height="24" viewBox="0 0 24 24" fill="none" xmlns="http://www.w3.org/2000/svg">
<path d="M9.61111 5C10.1634 5 10.6111 4.55228 10.6111 4C10.6111 3.44772 10.1634 3 9.61111 3V5ZM21 14.3889C21 13.8366 20.5523 13.3889 20 13.3889C19.4477 13.3889 19 13.8366 19 14.3889H21ZM5.18404 20.564L5.63803 19.673H5.63803L5.18404 20.564ZM3.43597 18.816L4.32698 18.362L4.32698 18.362L3.43597 18.816ZM17.816 20.564L17.362 19.673H17.362L17.816 20.564ZM19.564 18.816L18.673 18.362V18.362L19.564 18.816ZM3.43597 6.18404L2.54497 5.73005L2.54497 5.73005L3.43597 6.18404ZM5.18404 4.43597L4.73005 3.54497L5.18404 4.43597ZM21 3H22C22 2.44772 21.5523 2 21 2V3ZM16 2C15.4477 2 15 2.44772 15 3C15 3.55228 15.4477 4 16 4V2ZM20 8C20 8.55228 20.4477 9 21 9C21.5523 9 22 8.55228 22 8H20ZM12.2929 10.2929C11.9024 10.6834 11.9024 11.3166 12.2929 11.7071C12.6834 12.0976 13.3166 12.0976 13.7071 11.7071L12.2929 10.2929ZM13.6 20H9.4V22H13.6V20ZM4 14.6V10.4H2V14.6H4ZM9.4 5H9.61111V3H9.4V5ZM19 14.3889V14.6H21V14.3889H19ZM9.4 20C8.26339 20 7.47108 19.9992 6.85424 19.9488C6.24907 19.8994 5.90138 19.8072 5.63803 19.673L4.73005 21.455C5.32234 21.7568 5.96253 21.8826 6.69138 21.9422C7.40855 22.0008 8.2964 22 9.4 22V20ZM2 14.6C2 15.7036 1.99922 16.5914 2.05782 17.3086C2.11737 18.0375 2.24318 18.6777 2.54497 19.27L4.32698 18.362C4.19279 18.0986 4.10062 17.7509 4.05118 17.1458C4.00078 16.5289 4 15.7366 4 14.6H2ZM5.63803 19.673C5.07354 19.3854 4.6146 18.9265 4.32698 18.362L2.54497 19.27C3.02433 20.2108 3.78924 20.9757 4.73005 21.455L5.63803 19.673ZM13.6 22C14.7036 22 15.5914 22.0008 16.3086 21.9422C17.0375 21.8826 17.6777 21.7568 18.27 21.455L17.362 19.673C17.0986 19.8072 16.7509 19.8994 16.1458 19.9488C15.5289 19.9992 14.7366 20 13.6 20V22ZM19 14.6C19 15.7366 18.9992 16.5289 18.9488 17.1458C18.8994 17.7509 18.8072 18.0986 18.673 18.362L20.455 19.27C20.7568 18.6777 20.8826 18.0375 20.9422 17.3086C21.0008 16.5914 21 15.7036 21 14.6H19ZM18.27 21.455C19.2108 20.9757 19.9757 20.2108 20.455 19.27L18.673 18.362C18.3854 18.9265 17.9265 19.3854 17.362 19.673L18.27 21.455ZM4 10.4C4 9.26339 4.00078 8.47108 4.05118 7.85424C4.10062 7.24907 4.19279 6.90138 4.32698 6.63803L2.54497 5.73005C2.24318 6.32234 2.11737 6.96253 2.05782 7.69138C1.99922 8.40855 2 9.2964 2 10.4H4ZM9.4 3C8.29639 3 7.40855 2.99922 6.69138 3.05782C5.96253 3.11737 5.32234 3.24318 4.73005 3.54497L5.63803 5.32698C5.90138 5.19279 6.24907 5.10062 6.85424 5.05118C7.47108 5.00078 8.26339 5 9.4 5V3ZM4.32698 6.63803C4.6146 6.07354 5.07354 5.6146 5.63803 5.32698L4.73005 3.54497C3.78924 4.02433 3.02433 4.78924 2.54497 5.73005L4.32698 6.63803ZM21 2H16V4H21V2ZM20 3V8H22V3H20ZM20.2929 2.29289L12.2929 10.2929L13.7071 11.7071L21.7071 3.70711L20.2929 2.29289Z" fill="#0B0D12"/>
</svg>
