<svg width="24" height="24" viewBox="0 0 24 24" fill="none" xmlns="http://www.w3.org/2000/svg">
<path d="M10 4C10.5523 4 11 3.55228 11 3C11 2.44772 10.5523 2 10 2V4ZM22 12C22 11.4477 21.5523 11 21 11C20.4477 11 20 11.4477 20 12H22ZM5.18404 20.564L5.63803 19.673H5.63803L5.18404 20.564ZM3.43597 18.816L4.32698 18.362L4.32698 18.362L3.43597 18.816ZM18.816 20.564L18.362 19.673H18.362L18.816 20.564ZM20.564 18.816L19.673 18.362V18.362L20.564 18.816ZM3.43597 5.18404L2.54497 4.73005L2.54497 4.73005L3.43597 5.18404ZM5.18404 3.43597L4.73005 2.54497L4.73005 2.54497L5.18404 3.43597ZM19.7071 2.29289C19.3166 1.90237 18.6834 1.90237 18.2929 2.29289C17.9024 2.68342 17.9024 3.31658 18.2929 3.70711L19.7071 2.29289ZM21 5L21.7071 5.70711C22.0976 5.31658 22.0976 4.68342 21.7071 4.29289L21 5ZM18.2929 6.29289C17.9024 6.68342 17.9024 7.31658 18.2929 7.70711C18.6834 8.09763 19.3166 8.09763 19.7071 7.70711L18.2929 6.29289ZM13 10C13 10.5523 13.4477 11 14 11C14.5523 11 15 10.5523 15 10H13ZM14.6 20H9.4V22H14.6V20ZM4 14.6V9.4H2V14.6H4ZM9.4 4H10V2H9.4V4ZM20 12V14.6H22V12H20ZM9.4 20C8.26339 20 7.47108 19.9992 6.85424 19.9488C6.24907 19.8994 5.90138 19.8072 5.63803 19.673L4.73005 21.455C5.32234 21.7568 5.96253 21.8826 6.69138 21.9422C7.40855 22.0008 8.2964 22 9.4 22V20ZM2 14.6C2 15.7036 1.99922 16.5914 2.05782 17.3086C2.11737 18.0375 2.24318 18.6777 2.54497 19.27L4.32698 18.362C4.19279 18.0986 4.10062 17.7509 4.05118 17.1458C4.00078 16.5289 4 15.7366 4 14.6H2ZM5.63803 19.673C5.07354 19.3854 4.6146 18.9265 4.32698 18.362L2.54497 19.27C3.02433 20.2108 3.78924 20.9757 4.73005 21.455L5.63803 19.673ZM14.6 22C15.7036 22 16.5914 22.0008 17.3086 21.9422C18.0375 21.8826 18.6777 21.7568 19.27 21.455L18.362 19.673C18.0986 19.8072 17.7509 19.8994 17.1458 19.9488C16.5289 19.9992 15.7366 20 14.6 20V22ZM20 14.6C20 15.7366 19.9992 16.5289 19.9488 17.1458C19.8994 17.7509 19.8072 18.0986 19.673 18.362L21.455 19.27C21.7568 18.6777 21.8826 18.0375 21.9422 17.3086C22.0008 16.5914 22 15.7036 22 14.6H20ZM19.27 21.455C20.2108 20.9757 20.9757 20.2108 21.455 19.27L19.673 18.362C19.3854 18.9265 18.9265 19.3854 18.362 19.673L19.27 21.455ZM4 9.4C4 8.26339 4.00078 7.47108 4.05118 6.85424C4.10062 6.24907 4.19279 5.90138 4.32698 5.63803L2.54497 4.73005C2.24318 5.32234 2.11737 5.96253 2.05782 6.69138C1.99922 7.40855 2 8.2964 2 9.4H4ZM9.4 2C8.2964 2 7.40855 1.99922 6.69138 2.05782C5.96253 2.11737 5.32234 2.24318 4.73005 2.54497L5.63803 4.32698C5.90138 4.19279 6.24907 4.10062 6.85424 4.05118C7.47108 4.00078 8.26339 4 9.4 4V2ZM4.32698 5.63803C4.6146 5.07354 5.07354 4.6146 5.63803 4.32698L4.73005 2.54497C3.78924 3.02433 3.02433 3.78924 2.54497 4.73005L4.32698 5.63803ZM18.2929 3.70711L20.2929 5.70711L21.7071 4.29289L19.7071 2.29289L18.2929 3.70711ZM20.2929 4.29289L18.2929 6.29289L19.7071 7.70711L21.7071 5.70711L20.2929 4.29289ZM21 4H16V6H21V4ZM13 7V10H15V7H13ZM16 4C14.3431 4 13 5.34315 13 7H15C15 6.44772 15.4477 6 16 6V4Z" fill="#0B0D12"/>
</svg>
