<svg width="24" height="24" viewBox="0 0 24 24" fill="none" xmlns="http://www.w3.org/2000/svg">
<path d="M15.1707 7L8.82929 11M8.82929 13L15.1707 17M9 12C9 11.1716 8.66421 10.4216 8.12132 9.87868C7.57843 9.33579 6.82843 9 6 9C4.34315 9 3 10.3431 3 12C3 13.6569 4.34315 15 6 15C6.82843 15 7.57843 14.6642 8.12132 14.1213C8.66421 13.5784 9 12.8284 9 12ZM21 6C21 7.65685 19.6569 9 18 9C17.1716 9 16.4216 8.66421 15.8787 8.12132C15.3358 7.57843 15 6.82843 15 6C15 4.34315 16.3431 3 18 3C19.6569 3 21 4.34315 21 6ZM21 18C21 19.6569 19.6569 21 18 21C16.3431 21 15 19.6569 15 18C15 17.1716 15.3358 16.4216 15.8787 15.8787C16.4216 15.3358 17.1716 15 18 15C19.6569 15 21 16.3431 21 18Z" stroke="#0B0D12" stroke-width="2" stroke-linecap="round" stroke-linejoin="round"/>
</svg>
