<svg width="24" height="24" viewBox="0 0 24 24" fill="none" xmlns="http://www.w3.org/2000/svg">
<path d="M4.95869 5.53023L4.55804 4.614L4.55804 4.614L4.95869 5.53023ZM8.15214 4.13379L8.55279 5.05002L8.15214 4.13379ZM13.7914 20.4347L13.3013 19.563L13.3013 19.563L13.7914 20.4347ZM13.1702 20.7625L13.5601 21.6834L13.5601 21.6834L13.1702 20.7625ZM10.2086 20.4347L10.6987 19.563L10.6987 19.563L10.2086 20.4347ZM10.8298 20.7625L10.4399 21.6834L10.4399 21.6834L10.8298 20.7625ZM15.8733 19.188L16.4604 19.9974H16.4604L15.8733 19.188ZM19.9335 12.249L18.9402 12.1338V12.1338L19.9335 12.249ZM4.06647 12.249L3.07312 12.3641L4.06647 12.249ZM11.0147 3.08141L10.8506 2.09498V2.09498L11.0147 3.08141ZM15.8479 4.13379L16.2485 3.21756V3.21756L15.8479 4.13379ZM12.9853 3.08141L13.1494 2.09498L13.1494 2.09498L12.9853 3.08141ZM4.31113 5.87862L3.62244 5.15356L3.62244 5.15356L4.31113 5.87862ZM4.05978 6.26275L3.11961 5.92204H3.11961L4.05978 6.26275ZM6.40251 17.5975L7.10962 18.3046L6.40251 17.5975ZM2.29289 20.2929C1.90237 20.6834 1.90237 21.3166 2.29289 21.7071C2.68342 22.0976 3.31658 22.0976 3.70711 21.7071L2.29289 20.2929ZM21.7071 3.70711C22.0976 3.31658 22.0976 2.68342 21.7071 2.29289C21.3166 1.90237 20.6834 1.90237 20.2929 2.29289L21.7071 3.70711ZM18.6437 5.35635L19.3508 6.06345L18.6437 5.35635ZM21 10.0001C21.0001 9.44786 20.5524 9.00008 20.0001 9.00001C19.4478 8.99993 19.0001 9.44759 19 9.99987L21 10.0001ZM10.2881 19.3319C9.80695 19.0607 9.19707 19.2308 8.92585 19.7119C8.65463 20.1931 8.82478 20.8029 9.30588 21.0741L10.2881 19.3319ZM5.35934 6.44646L8.55279 5.05002L7.75149 3.21756L4.55804 4.614L5.35934 6.44646ZM5 9.82413V6.99536H3V9.82413H5ZM13.3013 19.563C12.9699 19.7493 12.871 19.8032 12.7803 19.8416L13.5601 21.6834C13.7781 21.591 13.9906 21.4699 14.2815 21.3063L13.3013 19.563ZM9.71852 21.3063C10.0094 21.4699 10.2219 21.591 10.4399 21.6834L11.2197 19.8416C11.129 19.8032 11.0302 19.7493 10.6987 19.563L9.71852 21.3063ZM12.7803 19.8416C12.2816 20.0528 11.7184 20.0528 11.2197 19.8416L10.4399 21.6834C11.4371 22.1055 12.5629 22.1055 13.5601 21.6834L12.7803 19.8416ZM14.2815 21.3063C15.3366 20.7131 15.9352 20.3784 16.4604 19.9974L15.2861 18.3785C14.8766 18.6755 14.3987 18.946 13.3013 19.563L14.2815 21.3063ZM18.9402 12.1338C18.6502 14.6346 17.325 16.8997 15.2861 18.3785L16.4604 19.9974C18.9523 18.19 20.5724 15.4213 20.9269 12.3641L18.9402 12.1338ZM3 9.82413C3 11.0342 2.99842 11.7198 3.07312 12.3641L5.05982 12.1338C5.00158 11.6315 5 11.0827 5 9.82413H3ZM8.55279 5.05002C10.0166 4.4099 10.594 4.16516 11.1788 4.06785L10.8506 2.09498C9.96332 2.24261 9.12303 2.6178 7.75149 3.21756L8.55279 5.05002ZM16.2485 3.21756C14.877 2.6178 14.0367 2.24261 13.1494 2.09498L12.8212 4.06785C13.406 4.16516 13.9834 4.4099 15.4472 5.05002L16.2485 3.21756ZM11.1788 4.06785C11.7225 3.97738 12.2775 3.97738 12.8212 4.06785L13.1494 2.09498C12.3884 1.96834 11.6116 1.96834 10.8506 2.09498L11.1788 4.06785ZM4.55804 4.614C4.28168 4.73485 3.90746 4.88284 3.62244 5.15356L4.99982 6.60367C4.96982 6.63217 4.9551 6.63359 5.0116 6.60439C5.07884 6.56965 5.17434 6.52736 5.35934 6.44646L4.55804 4.614ZM5 6.99536C5 6.79351 5.00048 6.68916 5.00538 6.61371C5.00949 6.55034 5.01407 6.56449 4.99995 6.60346L3.11961 5.92204C2.98565 6.29171 3 6.69393 3 6.99536H5ZM3.62244 5.15356C3.39749 5.36723 3.22533 5.63032 3.11961 5.92204L4.99995 6.60346L4.99982 6.60367L3.62244 5.15356ZM5.69541 16.8904L2.29289 20.2929L3.70711 21.7071L7.10962 18.3046L5.69541 16.8904ZM3.07312 12.3641C3.3273 14.5565 4.23235 16.6004 5.64291 18.2479L7.16212 16.9471C6.008 15.5992 5.26772 13.9271 5.05982 12.1338L3.07312 12.3641ZM20.2929 2.29289L17.9365 4.64924L19.3508 6.06345L21.7071 3.70711L20.2929 2.29289ZM17.9365 4.64924L5.69541 16.8904L7.10962 18.3046L19.3508 6.06345L17.9365 4.64924ZM15.4472 5.05002L18.243 6.27258L19.0443 4.44012L16.2485 3.21756L15.4472 5.05002ZM19 9.99987C18.9998 11.137 18.9954 11.6579 18.9402 12.1338L20.9269 12.3641C20.9982 11.7491 20.9998 11.0998 21 10.0001L19 9.99987ZM10.6987 19.563C10.552 19.4805 10.4152 19.4036 10.2881 19.3319L9.30588 21.0741C9.43422 21.1465 9.57212 21.224 9.71852 21.3063L10.6987 19.563Z" fill="#0B0D12"/>
</svg>
