<svg width="24" height="24" viewBox="0 0 24 24" fill="none" xmlns="http://www.w3.org/2000/svg">
<g clip-path="url(#clip0_1_536)">
<path d="M12 21C10.4432 20.5962 8.9835 19.8836 7.70756 18.9045C6.43163 17.9254 5.36553 16.6998 4.57261 15.3005C3.7797 13.9013 3.27615 12.3569 3.09189 10.7592C2.90763 9.16147 3.04642 7.54302 3.50002 6C6.61555 6.14257 9.66419 5.06658 12 3C14.3358 5.06658 17.3845 6.14257 20.5 6C20.9764 7.62151 21.1052 9.3253 20.878 11" stroke="#0EA306" stroke-width="1.5" stroke-linecap="round" stroke-linejoin="round"/>
<path d="M18 22L21.35 18.716C21.5554 18.5166 21.7188 18.2782 21.8306 18.0146C21.9423 17.7511 22.0001 17.4678 22.0006 17.1815C22.0011 16.8953 21.9442 16.6118 21.8333 16.3479C21.7224 16.084 21.5598 15.845 21.355 15.645C20.9371 15.2363 20.3762 15.007 19.7917 15.0059C19.2072 15.0048 18.6454 15.2319 18.226 15.639L18.002 15.859L17.779 15.639C17.3612 15.2306 16.8005 15.0015 16.2162 15.0004C15.632 14.9992 15.0704 15.2262 14.651 15.633C14.4455 15.8323 14.282 16.0707 14.1702 16.3342C14.0583 16.5977 14.0004 16.881 13.9999 17.1672C13.9993 17.4535 14.0561 17.7369 14.1669 18.0009C14.2777 18.2648 14.4403 18.5039 14.645 18.704L18 22Z" stroke="#0EA306" stroke-width="1.5" stroke-linecap="round" stroke-linejoin="round"/>
</g>
<defs>
<clipPath id="clip0_1_536">
<rect width="24" height="24" fill="white"/>
</clipPath>
</defs>
</svg>
