<svg width="24" height="24" viewBox="0 0 24 24" fill="none" xmlns="http://www.w3.org/2000/svg">
<path d="M4.95869 5.53023L4.55804 4.614L4.55804 4.614L4.95869 5.53023ZM8.15214 4.13379L8.55279 5.05002L8.15214 4.13379ZM15.8479 4.13379L16.2485 3.21756V3.21756L15.8479 4.13379ZM19.0413 5.53023L18.6407 6.44646V6.44646L19.0413 5.53023ZM13.7914 20.4347L13.3013 19.563L13.3013 19.563L13.7914 20.4347ZM13.1702 20.7625L13.5601 21.6834L13.5601 21.6834L13.1702 20.7625ZM10.2086 20.4347L9.71851 21.3063L9.71852 21.3063L10.2086 20.4347ZM10.8298 20.7625L10.4399 21.6834L10.4399 21.6834L10.8298 20.7625ZM19.9335 12.249L20.9269 12.3641L19.9335 12.249ZM15.8733 19.188L15.2861 18.3785L15.2861 18.3785L15.8733 19.188ZM4.06647 12.249L3.07312 12.3641L4.06647 12.249ZM8.12672 19.188L8.71386 18.3785L8.71386 18.3785L8.12672 19.188ZM11.0147 3.08141L10.8506 2.09498V2.09498L11.0147 3.08141ZM12.9853 3.08141L13.1494 2.09498L13.1494 2.09498L12.9853 3.08141ZM19.6889 5.87862L19.0002 6.60367L19.0002 6.60368L19.6889 5.87862ZM19.9402 6.26275L20.8804 5.92204L20.8804 5.92204L19.9402 6.26275ZM4.31113 5.87862L3.62244 5.15356L3.62244 5.15356L4.31113 5.87862ZM4.05978 6.26275L3.11961 5.92204H3.11961L4.05978 6.26275ZM14.7071 10.7071C15.0976 10.3166 15.0976 9.68342 14.7071 9.29289C14.3166 8.90237 13.6834 8.90237 13.2929 9.29289L14.7071 10.7071ZM9.29289 13.2929C8.90237 13.6834 8.90237 14.3166 9.29289 14.7071C9.68342 15.0976 10.3166 15.0976 10.7071 14.7071L9.29289 13.2929ZM10.7071 9.29289C10.3166 8.90237 9.68342 8.90237 9.29289 9.29289C8.90237 9.68342 8.90237 10.3166 9.29289 10.7071L10.7071 9.29289ZM13.2929 14.7071C13.6834 15.0976 14.3166 15.0976 14.7071 14.7071C15.0976 14.3166 15.0976 13.6834 14.7071 13.2929L13.2929 14.7071ZM5.35934 6.44646L8.55279 5.05002L7.75149 3.21756L4.55804 4.614L5.35934 6.44646ZM15.4472 5.05002L18.6407 6.44646L19.442 4.614L16.2485 3.21756L15.4472 5.05002ZM5 9.82413V6.99536H3V9.82413H5ZM19 6.99536V9.82413H21V6.99536H19ZM13.3013 19.563C12.9699 19.7493 12.871 19.8032 12.7803 19.8416L13.5601 21.6834C13.7781 21.591 13.9906 21.4699 14.2815 21.3063L13.3013 19.563ZM9.71852 21.3063C10.0094 21.4699 10.2219 21.591 10.4399 21.6834L11.2197 19.8416C11.129 19.8032 11.0302 19.7493 10.6987 19.563L9.71852 21.3063ZM12.7803 19.8416C12.2816 20.0528 11.7184 20.0528 11.2197 19.8416L10.4399 21.6834C11.4371 22.1055 12.5629 22.1055 13.5601 21.6834L12.7803 19.8416ZM19 9.82413C19 11.0827 18.9984 11.6315 18.9402 12.1338L20.9269 12.3641C21.0016 11.7198 21 11.0342 21 9.82413H19ZM14.2815 21.3063C15.3366 20.7131 15.9352 20.3784 16.4604 19.9974L15.2861 18.3785C14.8766 18.6755 14.3988 18.946 13.3013 19.563L14.2815 21.3063ZM18.9402 12.1338C18.6503 14.6346 17.325 16.8997 15.2861 18.3785L16.4604 19.9974C18.9523 18.19 20.5724 15.4213 20.9269 12.3641L18.9402 12.1338ZM3 9.82413C3 11.0342 2.99842 11.7198 3.07312 12.3641L5.05982 12.1338C5.00158 11.6315 5 11.0827 5 9.82413H3ZM10.6987 19.563C9.60122 18.946 9.12338 18.6755 8.71386 18.3785L7.53958 19.9974C8.06479 20.3784 8.66335 20.7131 9.71851 21.3063L10.6987 19.563ZM3.07312 12.3641C3.42756 15.4213 5.04768 18.19 7.53958 19.9974L8.71386 18.3785C6.67504 16.8997 5.34975 14.6346 5.05982 12.1338L3.07312 12.3641ZM8.55279 5.05002C10.0166 4.4099 10.594 4.16516 11.1788 4.06785L10.8506 2.09498C9.96332 2.24261 9.12303 2.6178 7.75149 3.21756L8.55279 5.05002ZM16.2485 3.21756C14.877 2.6178 14.0367 2.24261 13.1494 2.09498L12.8212 4.06785C13.406 4.16516 13.9834 4.4099 15.4472 5.05002L16.2485 3.21756ZM11.1788 4.06785C11.7225 3.97738 12.2775 3.97738 12.8212 4.06785L13.1494 2.09498C12.3884 1.96834 11.6116 1.96834 10.8506 2.09498L11.1788 4.06785ZM18.6407 6.44646C18.8257 6.52736 18.9212 6.56965 18.9884 6.60439C19.0449 6.63359 19.0302 6.63217 19.0002 6.60367L20.3776 5.15356C20.0925 4.88284 19.7183 4.73485 19.442 4.614L18.6407 6.44646ZM21 6.99536C21 6.69393 21.0144 6.29171 20.8804 5.92204L19.0001 6.60346C18.9859 6.56449 18.9905 6.55034 18.9946 6.61371C18.9995 6.68916 19 6.79351 19 6.99536H21ZM19.0002 6.60368L19.0001 6.60347L20.8804 5.92204C20.7747 5.63032 20.6025 5.36723 20.3776 5.15356L19.0002 6.60368ZM4.55804 4.614C4.28168 4.73485 3.90746 4.88284 3.62244 5.15356L4.99982 6.60367C4.96982 6.63217 4.9551 6.63359 5.0116 6.60439C5.07884 6.56965 5.17434 6.52736 5.35934 6.44646L4.55804 4.614ZM5 6.99536C5 6.79351 5.00048 6.68916 5.00538 6.61371C5.00949 6.55034 5.01407 6.56449 4.99995 6.60346L3.11961 5.92204C2.98565 6.29171 3 6.69393 3 6.99536H5ZM3.62244 5.15356C3.39749 5.36723 3.22533 5.63032 3.11961 5.92204L4.99995 6.60346L4.99982 6.60367L3.62244 5.15356ZM13.2929 9.29289L11.2929 11.2929L12.7071 12.7071L14.7071 10.7071L13.2929 9.29289ZM11.2929 11.2929L9.29289 13.2929L10.7071 14.7071L12.7071 12.7071L11.2929 11.2929ZM9.29289 10.7071L11.2929 12.7071L12.7071 11.2929L10.7071 9.29289L9.29289 10.7071ZM11.2929 12.7071L13.2929 14.7071L14.7071 13.2929L12.7071 11.2929L11.2929 12.7071Z" fill="#0B0D12"/>
</svg>
