<svg width="24" height="24" viewBox="0 0 24 24" fill="none" xmlns="http://www.w3.org/2000/svg">
<path d="M8.15214 4.13379L4.95869 5.53023C4.61181 5.68192 4.43837 5.75776 4.31113 5.87862C4.19867 5.98544 4.11262 6.11695 4.05978 6.26275C4 6.42771 4 6.61693 4 6.99536V9.82413C4 11.0585 4 11.6756 4.06647 12.249C4.38866 15.028 5.86136 17.5448 8.12672 19.188C8.59408 19.5269 9.13228 19.8295 10.2086 20.4347C10.5198 20.6096 10.6754 20.6971 10.8298 20.7625C11.5778 21.0792 12.4222 21.0792 13.1702 20.7625C13.3246 20.6971 13.4802 20.6096 13.7914 20.4347C14.8677 19.8295 15.4059 19.5269 15.8733 19.188C18.1386 17.5448 19.6113 15.028 19.9335 12.249C20 11.6756 20 11.0585 20 9.82413V6.99536C20 6.61693 20 6.42771 19.9402 6.26275C19.8874 6.11695 19.8013 5.98544 19.6889 5.87862C19.5616 5.75776 19.3882 5.68192 19.0413 5.53023L15.8479 4.13379C14.4302 3.51385 13.7213 3.20388 12.9853 3.08141C12.3329 2.97286 11.6671 2.97286 11.0147 3.08141C10.2787 3.20388 9.56983 3.51385 8.15214 4.13379Z" stroke="#0B0D12" stroke-width="2" stroke-linecap="round"/>
</svg>
