<svg width="24" height="24" viewBox="0 0 24 24" fill="none" xmlns="http://www.w3.org/2000/svg">
<path d="M15.5355 8.46441C16.4404 9.36924 17 10.6192 17 11.9999C17 13.3807 16.4404 14.6307 15.5355 15.5355M18.364 5.63599C19.9926 7.26467 21 9.51467 21 11.9999C21 14.4852 19.9926 16.7352 18.364 18.3639M8.46447 15.5355C7.55964 14.6307 7 13.3807 7 11.9999C7 10.6192 7.55964 9.36924 8.46447 8.46441M5.63604 18.3639C4.00736 16.7352 3 14.4852 3 11.9999C3 9.51467 4.00736 7.26467 5.63604 5.63599M13 11.9999C13 12.5522 12.5523 12.9999 12 12.9999C11.4477 12.9999 11 12.5522 11 11.9999C11 11.4477 11.4477 10.9999 12 10.9999C12.5523 10.9999 13 11.4477 13 11.9999Z" stroke="#0B0D12" stroke-width="2" stroke-linecap="round" stroke-linejoin="round"/>
</svg>
