<svg width="24" height="24" viewBox="0 0 24 24" fill="none" xmlns="http://www.w3.org/2000/svg">
<path d="M13 13H9.8C9.51997 13 9.37996 13 9.273 13.0545C9.17892 13.1024 9.10243 13.1789 9.0545 13.273C9 13.38 9 13.52 9 13.8V16.2C9 16.48 9 16.62 9.0545 16.727C9.10243 16.8211 9.17892 16.8976 9.273 16.9455C9.37996 17 9.51997 17 9.8 17H11M13 13H14.2C14.48 13 14.62 13 14.727 13.0545C14.8211 13.1024 14.8976 13.1789 14.9455 13.273C15 13.38 15 13.52 15 13.8V16.2C15 16.48 15 16.62 14.9455 16.727C14.8976 16.8211 14.8211 16.8976 14.727 16.9455C14.62 17 14.48 17 14.2 17H11M13 13L11 17M19 7.8V16.2C19 17.8802 19 18.7202 18.673 19.362C18.3854 19.9265 17.9265 20.3854 17.362 20.673C16.7202 21 15.8802 21 14.2 21H9.8C8.11984 21 7.27976 21 6.63803 20.673C6.07354 20.3854 5.6146 19.9265 5.32698 19.362C5 18.7202 5 17.8802 5 16.2V9.98822C5 9.25445 5 8.88757 5.08289 8.5423C5.15638 8.2362 5.27759 7.94356 5.44208 7.67515C5.6276 7.3724 5.88703 7.11297 6.40589 6.59411L8.59411 4.40589C9.11297 3.88703 9.3724 3.6276 9.67515 3.44208C9.94356 3.27759 10.2362 3.15638 10.5423 3.08289C10.8876 3 11.2545 3 11.9882 3H14.2C15.8802 3 16.7202 3 17.362 3.32698C17.9265 3.6146 18.3854 4.07354 18.673 4.63803C19 5.27976 19 6.11984 19 7.8Z" stroke="#0B0D12" stroke-width="2" stroke-linecap="round" stroke-linejoin="round"/>
</svg>
