<svg width="24" height="24" viewBox="0 0 24 24" fill="none" xmlns="http://www.w3.org/2000/svg">
<path d="M11.75 13.2901C11.4946 13.5799 11.1238 13.9136 10.6072 14.3785L8.59069 16.1934C6.89875 17.7161 6.05278 18.4775 5.33344 18.5075C4.70859 18.5336 4.1075 18.2659 3.70889 17.784C3.25 17.2292 3.25 16.0911 3.25 13.8148V10.1852C3.25 7.90889 3.25 6.77076 3.70889 6.21598C4.1075 5.73408 4.70859 5.46638 5.33344 5.49247C6.05278 5.5225 6.89875 6.28388 8.59069 7.80662L10.6072 9.62146C11.1238 10.0864 11.4946 10.4201 11.75 10.7099M11.75 13.2901V13.8148C11.75 16.0911 11.75 17.2292 12.2089 17.784C12.6075 18.2659 13.2086 18.5336 13.8334 18.5075C14.5528 18.4775 15.3987 17.7161 17.0907 16.1934L19.1072 14.3785C20.0224 13.5548 20.48 13.143 20.649 12.6579C20.7974 12.2319 20.7974 11.7681 20.649 11.3421C20.48 10.857 20.0224 10.4452 19.1072 9.62146L17.0907 7.80662C15.3988 6.28388 14.5528 5.5225 13.8334 5.49247C13.2086 5.46638 12.6075 5.73408 12.2089 6.21598C11.75 6.77076 11.75 7.90889 11.75 10.1852V10.7099M11.75 13.2901V10.7099" stroke="#0B0D12" stroke-width="2" stroke-linecap="round" stroke-linejoin="round"/>
</svg>
