<svg width="24" height="24" viewBox="0 0 24 24" fill="none" xmlns="http://www.w3.org/2000/svg">
<path d="M19 5C19 3.89543 18.1046 3 17 3C15.8954 3 15 3.89543 15 5C15 6.10457 15.8954 7 17 7C18.1046 7 19 6.10457 19 5ZM19 5L21 5M5 19C5 17.8954 5.89543 17 7 17C8.10457 17 9 17.8954 9 19C9 20.1046 8.10457 21 7 21C5.89543 21 5 20.1046 5 19ZM5 19H3M14 12C14 13.1046 13.1046 14 12 14C10.8954 14 10 13.1046 10 12M14 12C14 10.8954 13.1046 10 12 10C10.8954 10 10 10.8954 10 12M14 12H21M10 12H3M3 5L11 5M21 19H13" stroke="#0B0D12" stroke-width="2" stroke-linecap="round" stroke-linejoin="round"/>
</svg>
