<svg width="24" height="24" viewBox="0 0 24 24" fill="none" xmlns="http://www.w3.org/2000/svg">
<path d="M5 5C3.89543 5 3 5.89543 3 7C3 8.10457 3.89543 9 5 9C6.10457 9 7 8.10457 7 7C7 5.89543 6.10457 5 5 5ZM5 5V3M19 19C17.8954 19 17 18.1046 17 17C17 15.8954 17.8954 15 19 15C20.1046 15 21 15.8954 21 17C21 18.1046 20.1046 19 19 19ZM19 19V21M12 10C13.1046 10 14 10.8954 14 12C14 13.1046 13.1046 14 12 14M12 10C10.8954 10 10 10.8954 10 12C10 13.1046 10.8954 14 12 14M12 10V3M12 14V21M5 21L5 13M19 3V11" stroke="#0B0D12" stroke-width="2" stroke-linecap="round" stroke-linejoin="round"/>
</svg>
