<svg width="24" height="24" viewBox="0 0 24 24" fill="none" xmlns="http://www.w3.org/2000/svg">
<path d="M3 6C2.44772 6 2 6.44772 2 7C2 7.55228 2.44772 8 3 8V6ZM13 8C13.5523 8 14 7.55228 14 7C14 6.44772 13.5523 6 13 6V8ZM21 18C21.5523 18 22 17.5523 22 17C22 16.4477 21.5523 16 21 16V18ZM11 16C10.4477 16 10 16.4477 10 17C10 17.5523 10.4477 18 11 18V16ZM17 6H16H17ZM17 8H18H17ZM21 8H22H21ZM21 6H20H21ZM7 16H6H7ZM7 18H8H7ZM3 18H2H3ZM3 16H4H3ZM3 8H13V6H3V8ZM21 16L11 16V18L21 18V16ZM20 6V8H22V6H20ZM18 8V6H16V8H18ZM18 6C18 5.50033 18.0021 5.22617 18.0277 5.03598C18.0494 4.87455 18.0703 4.92968 18 5L16.5858 3.58579C16.2226 3.949 16.097 4.38628 16.0455 4.76948C15.9979 5.12392 16 5.55686 16 6H18ZM19 3C18.5569 3 18.1239 2.99788 17.7695 3.04553C17.3863 3.09705 16.949 3.22257 16.5858 3.58579L18 5C17.9297 5.07032 17.8746 5.0494 18.036 5.02769C18.2262 5.00212 18.5003 5 19 5V3ZM19 9C18.5003 9 18.2262 8.99788 18.036 8.97231C17.8746 8.9506 17.9297 8.92968 18 9L16.5858 10.4142C16.949 10.7774 17.3863 10.903 17.7695 10.9545C18.1239 11.0021 18.5569 11 19 11V9ZM16 8C16 8.44313 15.9979 8.87608 16.0455 9.23052C16.097 9.61372 16.2226 10.051 16.5858 10.4142L18 9C18.0703 9.07032 18.0494 9.12545 18.0277 8.96402C18.0021 8.77383 18 8.49967 18 8H16ZM20 8C20 8.49967 19.9979 8.77383 19.9723 8.96403C19.9506 9.12545 19.9297 9.07032 20 9L21.4142 10.4142C21.7774 10.051 21.903 9.61372 21.9545 9.23052C22.0021 8.87608 22 8.44313 22 8H20ZM19 11C19.4431 11 19.8761 11.0021 20.2305 10.9545C20.6137 10.903 21.051 10.7774 21.4142 10.4142L20 9C20.0703 8.92968 20.1255 8.9506 19.964 8.97231C19.7738 8.99788 19.4997 9 19 9V11ZM22 6C22 5.55687 22.0021 5.12392 21.9545 4.76948C21.903 4.38628 21.7774 3.949 21.4142 3.58579L20 5C19.9297 4.92968 19.9506 4.87455 19.9723 5.03598C19.9979 5.22617 20 5.50033 20 6H22ZM19 5C19.4997 5 19.7738 5.00212 19.964 5.02769C20.1255 5.0494 20.0703 5.07032 20 5L21.4142 3.58579C21.051 3.22257 20.6137 3.09705 20.2305 3.04553C19.8761 2.99788 19.4431 3 19 3V5ZM2 16L2 18H4L4 16H2ZM8 18V16H6V18H8ZM8 16C8 15.5569 8.00212 15.1239 7.95447 14.7695C7.90295 14.3863 7.77743 13.949 7.41421 13.5858L6 15C5.92968 14.9297 5.9506 14.8746 5.97231 15.036C5.99788 15.2262 6 15.5003 6 16H8ZM5 15C5.49967 15 5.77383 15.0021 5.96402 15.0277C6.12545 15.0494 6.07032 15.0703 6 15L7.41421 13.5858C7.051 13.2226 6.61372 13.097 6.23052 13.0455C5.87608 12.9979 5.44314 13 5 13V15ZM5 21C5.44313 21 5.87608 21.0021 6.23052 20.9545C6.61372 20.903 7.051 20.7774 7.41421 20.4142L6 19C6.07032 18.9297 6.12545 18.9506 5.96402 18.9723C5.77383 18.9979 5.49967 19 5 19V21ZM6 18C6 18.4997 5.99788 18.7738 5.97231 18.964C5.9506 19.1254 5.92968 19.0703 6 19L7.41421 20.4142C7.77743 20.051 7.90295 19.6137 7.95447 19.2305C8.00212 18.8761 8 18.4431 8 18H6ZM2 18C2 18.4431 1.99788 18.8761 2.04553 19.2305C2.09705 19.6137 2.22257 20.051 2.58579 20.4142L4 19C4.07032 19.0703 4.0494 19.1254 4.02769 18.964C4.00212 18.7738 4 18.4997 4 18H2ZM5 19C4.50033 19 4.22617 18.9979 4.03598 18.9723C3.87455 18.9506 3.92968 18.9297 4 19L2.58579 20.4142C2.949 20.7774 3.38628 20.903 3.76948 20.9545C4.12392 21.0021 4.55687 21 5 21V19ZM4 16C4 15.5003 4.00212 15.2262 4.02769 15.036C4.0494 14.8746 4.07032 14.9297 4 15L2.58579 13.5858C2.22257 13.949 2.09705 14.3863 2.04553 14.7695C1.99788 15.1239 2 15.5569 2 16H4ZM5 13C4.55687 13 4.12392 12.9979 3.76948 13.0455C3.38628 13.097 2.949 13.2226 2.58579 13.5858L4 15C3.92968 15.0703 3.87455 15.0494 4.03598 15.0277C4.22617 15.0021 4.50033 15 5 15V13Z" fill="#0B0D12"/>
</svg>
