<svg width="24" height="24" viewBox="0 0 24 24" fill="none" xmlns="http://www.w3.org/2000/svg">
<path d="M6 21C6 21.5523 6.44772 22 7 22C7.55229 22 8 21.5523 8 21H6ZM8 11C8 10.4477 7.55228 10 7 10C6.44772 10 6 10.4477 6 11H8ZM18 3C18 2.44772 17.5523 2 17 2C16.4477 2 16 2.44772 16 3H18ZM16 13C16 13.5523 16.4477 14 17 14C17.5523 14 18 13.5523 18 13H16ZM8 21L8 11H6L6 21H8ZM16 3V13H18V3H16ZM6 4H8V2H6V4ZM8 6H6V8H8V6ZM6 6C5.50033 6 5.22617 5.99788 5.03598 5.97231C4.87455 5.9506 4.92968 5.92968 5 6L3.58579 7.41421C3.949 7.77743 4.38628 7.90295 4.76948 7.95447C5.12392 8.00212 5.55687 8 6 8V6ZM3 5C3 5.44313 2.99788 5.87608 3.04553 6.23052C3.09705 6.61372 3.22257 7.051 3.58579 7.41421L5 6C5.07032 6.07032 5.0494 6.12545 5.02769 5.96402C5.00212 5.77383 5 5.49967 5 5H3ZM9 5C9 5.49967 8.99788 5.77383 8.97231 5.96402C8.9506 6.12545 8.92968 6.07032 9 6L10.4142 7.41421C10.7774 7.051 10.903 6.61372 10.9545 6.23052C11.0021 5.87608 11 5.44313 11 5H9ZM8 8C8.44313 8 8.87608 8.00212 9.23052 7.95447C9.61372 7.90295 10.051 7.77743 10.4142 7.41421L9 6C9.07032 5.92968 9.12545 5.9506 8.96402 5.97231C8.77383 5.99788 8.49967 6 8 6V8ZM8 4C8.49967 4 8.77383 4.00212 8.96402 4.02769C9.12545 4.0494 9.07032 4.07032 9 4L10.4142 2.58579C10.051 2.22257 9.61372 2.09705 9.23052 2.04553C8.87608 1.99788 8.44313 2 8 2V4ZM11 5C11 4.55687 11.0021 4.12392 10.9545 3.76948C10.903 3.38628 10.7774 2.949 10.4142 2.58579L9 4C8.92968 3.92968 8.9506 3.87455 8.97231 4.03598C8.99788 4.22617 9 4.50033 9 5H11ZM6 2C5.55687 2 5.12392 1.99788 4.76948 2.04553C4.38628 2.09705 3.949 2.22257 3.58579 2.58579L5 4C4.92968 4.07032 4.87455 4.0494 5.03598 4.02769C5.22617 4.00212 5.50033 4 6 4V2ZM5 5C5 4.50033 5.00212 4.22617 5.02769 4.03598C5.0494 3.87455 5.07032 3.92968 5 4L3.58579 2.58579C3.22257 2.949 3.09705 3.38628 3.04553 3.76948C2.99788 4.12392 3 4.55687 3 5H5ZM16 22H18V20H16V22ZM18 16H16V18H18V16ZM16 16C15.5569 16 15.1239 15.9979 14.7695 16.0455C14.3863 16.097 13.949 16.2226 13.5858 16.5858L15 18C14.9297 18.0703 14.8746 18.0494 15.036 18.0277C15.2262 18.0021 15.5003 18 16 18V16ZM15 19C15 18.5003 15.0021 18.2262 15.0277 18.036C15.0494 17.8746 15.0703 17.9297 15 18L13.5858 16.5858C13.2226 16.949 13.097 17.3863 13.0455 17.7695C12.9979 18.1239 13 18.5569 13 19H15ZM21 19C21 18.5569 21.0021 18.1239 20.9545 17.7695C20.903 17.3863 20.7774 16.949 20.4142 16.5858L19 18C18.9297 17.9297 18.9506 17.8746 18.9723 18.036C18.9979 18.2262 19 18.5003 19 19H21ZM18 18C18.4997 18 18.7738 18.0021 18.964 18.0277C19.1254 18.0494 19.0703 18.0703 19 18L20.4142 16.5858C20.051 16.2226 19.6137 16.097 19.2305 16.0455C18.8761 15.9979 18.4431 16 18 16V18ZM18 22C18.4431 22 18.8761 22.0021 19.2305 21.9545C19.6137 21.903 20.051 21.7774 20.4142 21.4142L19 20C19.0703 19.9297 19.1255 19.9506 18.964 19.9723C18.7738 19.9979 18.4997 20 18 20V22ZM19 19C19 19.4997 18.9979 19.7738 18.9723 19.964C18.9506 20.1255 18.9297 20.0703 19 20L20.4142 21.4142C20.7774 21.051 20.903 20.6137 20.9545 20.2305C21.0021 19.8761 21 19.4431 21 19H19ZM16 20C15.5003 20 15.2262 19.9979 15.036 19.9723C14.8745 19.9506 14.9297 19.9297 15 20L13.5858 21.4142C13.949 21.7774 14.3863 21.903 14.7695 21.9545C15.1239 22.0021 15.5569 22 16 22V20ZM13 19C13 19.4431 12.9979 19.8761 13.0455 20.2305C13.097 20.6137 13.2226 21.051 13.5858 21.4142L15 20C15.0703 20.0703 15.0494 20.1255 15.0277 19.964C15.0021 19.7738 15 19.4997 15 19H13Z" fill="#0B0D12"/>
</svg>
