<svg width="24" height="24" viewBox="0 0 24 24" fill="none" xmlns="http://www.w3.org/2000/svg">
<path d="M7.18404 18.564L7.63803 17.673L7.18404 18.564ZM5.43597 16.816L6.32698 16.362L5.43597 16.816ZM18.564 16.816L17.673 16.362L18.564 16.816ZM16.816 18.564L16.362 17.673L16.816 18.564ZM16.816 5.43597L16.362 6.32698L16.816 5.43597ZM18.564 7.18404L17.673 7.63803L18.564 7.18404ZM7.18404 5.43597L7.63803 6.32698L7.18404 5.43597ZM5.43597 7.18404L6.32698 7.63803L5.43597 7.18404ZM12 12H11C11 12.2652 11.1054 12.5196 11.2929 12.7071L12 12ZM13 10C13 9.44772 12.5523 9 12 9C11.4477 9 11 9.44772 11 10H13ZM12.7929 14.2071C13.1834 14.5976 13.8166 14.5976 14.2071 14.2071C14.5976 13.8166 14.5976 13.1834 14.2071 12.7929L12.7929 14.2071ZM10 19C10 18.4477 9.55228 18 9 18C8.44772 18 8 18.4477 8 19H10ZM8 21C8 21.5523 8.44772 22 9 22C9.55228 22 10 21.5523 10 21H8ZM10 3C10 2.44772 9.55228 2 9 2C8.44772 2 8 2.44772 8 3H10ZM8 5C8 5.55228 8.44772 6 9 6C9.55228 6 10 5.55228 10 5H8ZM16 19C16 18.4477 15.5523 18 15 18C14.4477 18 14 18.4477 14 19H16ZM14 21C14 21.5523 14.4477 22 15 22C15.5523 22 16 21.5523 16 21H14ZM16 3C16 2.44772 15.5523 2 15 2C14.4477 2 14 2.44772 14 3H16ZM14 5C14 5.55228 14.4477 6 15 6C15.5523 6 16 5.55228 16 5H14ZM11.4 6H12.6V4H11.4V6ZM18 11.4V12.6H20V11.4H18ZM12.6 18H11.4V20H12.6V18ZM6 12.6V11.4H4V12.6H6ZM11.4 18C10.2634 18 9.47108 17.9992 8.85424 17.9488C8.24907 17.8994 7.90138 17.8072 7.63803 17.673L6.73005 19.455C7.32234 19.7568 7.96253 19.8826 8.69138 19.9422C9.40855 20.0008 10.2964 20 11.4 20V18ZM4 12.6C4 13.7036 3.99922 14.5914 4.05782 15.3086C4.11737 16.0375 4.24318 16.6777 4.54497 17.27L6.32698 16.362C6.19279 16.0986 6.10062 15.7509 6.05118 15.1458C6.00078 14.5289 6 13.7366 6 12.6H4ZM7.63803 17.673C7.07354 17.3854 6.6146 16.9265 6.32698 16.362L4.54497 17.27C5.02433 18.2108 5.78924 18.9757 6.73005 19.455L7.63803 17.673ZM18 12.6C18 13.7366 17.9992 14.5289 17.9488 15.1458C17.8994 15.7509 17.8072 16.0986 17.673 16.362L19.455 17.27C19.7568 16.6777 19.8826 16.0375 19.9422 15.3086C20.0008 14.5914 20 13.7036 20 12.6H18ZM12.6 20C13.7036 20 14.5914 20.0008 15.3086 19.9422C16.0375 19.8826 16.6777 19.7568 17.27 19.455L16.362 17.673C16.0986 17.8072 15.7509 17.8994 15.1458 17.9488C14.5289 17.9992 13.7366 18 12.6 18V20ZM17.673 16.362C17.3854 16.9265 16.9265 17.3854 16.362 17.673L17.27 19.455C18.2108 18.9757 18.9757 18.2108 19.455 17.27L17.673 16.362ZM12.6 6C13.7366 6 14.5289 6.00078 15.1458 6.05118C15.7509 6.10062 16.0986 6.19279 16.362 6.32698L17.27 4.54497C16.6777 4.24318 16.0375 4.11737 15.3086 4.05782C14.5914 3.99922 13.7036 4 12.6 4V6ZM20 11.4C20 10.2964 20.0008 9.40855 19.9422 8.69138C19.8826 7.96253 19.7568 7.32234 19.455 6.73005L17.673 7.63803C17.8072 7.90138 17.8994 8.24907 17.9488 8.85424C17.9992 9.47108 18 10.2634 18 11.4H20ZM16.362 6.32698C16.9265 6.6146 17.3854 7.07354 17.673 7.63803L19.455 6.73005C18.9757 5.78924 18.2108 5.02433 17.27 4.54497L16.362 6.32698ZM11.4 4C10.2964 4 9.40855 3.99922 8.69138 4.05782C7.96253 4.11737 7.32234 4.24318 6.73005 4.54497L7.63803 6.32698C7.90138 6.19279 8.24907 6.10062 8.85424 6.05118C9.47108 6.00078 10.2634 6 11.4 6V4ZM6 11.4C6 10.2634 6.00078 9.47108 6.05118 8.85424C6.10062 8.24907 6.19279 7.90138 6.32698 7.63803L4.54497 6.73005C4.24318 7.32234 4.11737 7.96253 4.05782 8.69138C3.99922 9.40855 4 10.2964 4 11.4H6ZM6.73005 4.54497C5.78924 5.02433 5.02433 5.78924 4.54497 6.73005L6.32698 7.63803C6.6146 7.07354 7.07354 6.6146 7.63803 6.32698L6.73005 4.54497ZM13 12V10H11V12H13ZM11.2929 12.7071L12.7929 14.2071L14.2071 12.7929L12.7071 11.2929L11.2929 12.7071ZM8 19V21H10V19H8ZM8 3V5H10V3H8ZM14 19V21H16V19H14ZM14 3V5H16V3H14Z" fill="#0B0D12"/>
</svg>
