<svg width="24" height="24" viewBox="0 0 24 24" fill="none" xmlns="http://www.w3.org/2000/svg">
<path d="M3 12C2.44772 12 2 12.4477 2 13C2 13.5523 2.44772 14 3 14V12ZM11 14C11.5523 14 12 13.5523 12 13C12 12.4477 11.5523 12 11 12V14ZM3 17C2.44772 17 2 17.4477 2 18C2 18.5523 2.44772 19 3 19V17ZM21 19C21.5523 19 22 18.5523 22 18C22 17.4477 21.5523 17 21 17V19ZM3 7C2.44772 7 2 7.44772 2 8C2 8.55228 2.44772 9 3 9V7ZM11 9C11.5523 9 12 8.55228 12 8C12 7.44772 11.5523 7 11 7V9ZM14.2929 8.29289C13.9024 8.68342 13.9024 9.31658 14.2929 9.70711C14.6834 10.0976 15.3166 10.0976 15.7071 9.70711L14.2929 8.29289ZM18 6L18.7071 5.29289C18.3166 4.90237 17.6834 4.90237 17.2929 5.29289L18 6ZM20.2929 9.70711C20.6834 10.0976 21.3166 10.0976 21.7071 9.70711C22.0976 9.31658 22.0976 8.68342 21.7071 8.29289L20.2929 9.70711ZM17 14C17 14.5523 17.4477 15 18 15C18.5523 15 19 14.5523 19 14H17ZM3 14H11V12H3V14ZM3 19H21V17H3V19ZM3 9H11V7H3V9ZM15.7071 9.70711L18.7071 6.70711L17.2929 5.29289L14.2929 8.29289L15.7071 9.70711ZM17.2929 6.70711L20.2929 9.70711L21.7071 8.29289L18.7071 5.29289L17.2929 6.70711ZM17 6V14H19V6H17Z" fill="#0B0D12"/>
</svg>
