<svg width="24" height="24" viewBox="0 0 24 24" fill="none" xmlns="http://www.w3.org/2000/svg">
<path d="M3 10C2.44772 10 2 10.4477 2 11C2 11.5523 2.44772 12 3 12V10ZM11 12C11.5523 12 12 11.5523 12 11C12 10.4477 11.5523 10 11 10V12ZM3 5C2.44772 5 2 5.44772 2 6C2 6.55228 2.44772 7 3 7V5ZM21 7C21.5523 7 22 6.55228 22 6C22 5.44772 21.5523 5 21 5V7ZM3 15C2.44772 15 2 15.4477 2 16C2 16.5523 2.44772 17 3 17V15ZM11 17C11.5523 17 12 16.5523 12 16C12 15.4477 11.5523 15 11 15V17ZM15.7071 14.2929C15.3166 13.9024 14.6834 13.9024 14.2929 14.2929C13.9024 14.6834 13.9024 15.3166 14.2929 15.7071L15.7071 14.2929ZM18 18L17.2929 18.7071C17.6834 19.0976 18.3166 19.0976 18.7071 18.7071L18 18ZM21.7071 15.7071C22.0976 15.3166 22.0976 14.6834 21.7071 14.2929C21.3166 13.9024 20.6834 13.9024 20.2929 14.2929L21.7071 15.7071ZM19 10C19 9.44772 18.5523 9 18 9C17.4477 9 17 9.44772 17 10H19ZM3 12H11V10H3V12ZM3 7H21V5H3V7ZM3 17H11V15H3V17ZM14.2929 15.7071L17.2929 18.7071L18.7071 17.2929L15.7071 14.2929L14.2929 15.7071ZM18.7071 18.7071L21.7071 15.7071L20.2929 14.2929L17.2929 17.2929L18.7071 18.7071ZM19 18V10H17V18H19Z" fill="#0B0D12"/>
</svg>
