<svg width="24" height="24" viewBox="0 0 24 24" fill="none" xmlns="http://www.w3.org/2000/svg">
<path d="M12.7967 5.72548C13.6964 3.97445 14.1462 3.09894 14.8323 3.01074C14.9436 2.99642 15.0564 2.99642 15.1677 3.01074C15.8538 3.09894 16.3036 3.97445 17.2033 5.72548C17.3723 6.05448 17.4568 6.21898 17.5806 6.35202C17.6022 6.3753 17.6247 6.39778 17.648 6.41943C17.781 6.54315 17.9455 6.62768 18.2745 6.79672C20.0255 7.6964 20.9011 8.14624 20.9893 8.83229C21.0036 8.94364 21.0036 9.05636 20.9893 9.16771C20.9011 9.85376 20.0255 10.3036 18.2745 11.2033C17.9455 11.3723 17.781 11.4568 17.648 11.5806C17.6247 11.6022 17.6022 11.6247 17.5806 11.648C17.4568 11.781 17.3723 11.9455 17.2033 12.2745C16.3036 14.0255 15.8538 14.9011 15.1677 14.9893C15.0564 15.0036 14.9436 15.0036 14.8323 14.9893C14.1462 14.9011 13.6964 14.0255 12.7967 12.2745C12.6277 11.9455 12.5432 11.781 12.4194 11.648C12.3978 11.6247 12.3753 11.6022 12.352 11.5806C12.219 11.4568 12.0545 11.3723 11.7255 11.2033C9.97445 10.3036 9.09894 9.85376 9.01074 9.16771C8.99642 9.05636 8.99642 8.94364 9.01074 8.83229C9.09894 8.14624 9.97445 7.6964 11.7255 6.79672C12.0545 6.62768 12.219 6.54315 12.352 6.41943C12.3753 6.39778 12.3978 6.3753 12.4194 6.35202C12.5432 6.21898 12.6277 6.05448 12.7967 5.72548Z" stroke="#0B0D12" stroke-width="2"/>
<path d="M5.53114 14.817C6.13093 13.6496 6.43083 13.066 6.88819 13.0072C6.96242 12.9976 7.03758 12.9976 7.11181 13.0072C7.56917 13.066 7.86907 13.6496 8.46886 14.817C8.58155 15.0363 8.6379 15.146 8.72038 15.2347C8.73481 15.2502 8.7498 15.2652 8.76532 15.2796C8.85401 15.3621 8.96368 15.4184 9.18301 15.5311C10.3504 16.1309 10.934 16.4308 10.9928 16.8882C11.0024 16.9624 11.0024 17.0376 10.9928 17.1118C10.934 17.5692 10.3504 17.8691 9.18301 18.4689C8.96368 18.5815 8.85401 18.6379 8.76532 18.7204C8.7498 18.7348 8.73481 18.7498 8.72038 18.7653C8.6379 18.854 8.58155 18.9637 8.46886 19.183C7.86907 20.3504 7.56917 20.934 7.11181 20.9928C7.03758 21.0024 6.96242 21.0024 6.88819 20.9928C6.43082 20.934 6.13093 20.3504 5.53114 19.183C5.41845 18.9637 5.3621 18.854 5.27962 18.7653C5.26519 18.7498 5.2502 18.7348 5.23468 18.7204C5.14599 18.6379 5.03632 18.5815 4.81699 18.4689C3.64964 17.8691 3.06596 17.5692 3.00716 17.1118C2.99761 17.0376 2.99761 16.9624 3.00716 16.8882C3.06596 16.4308 3.64964 16.1309 4.81699 15.5311C5.03632 15.4185 5.14599 15.3621 5.23468 15.2796C5.2502 15.2652 5.26519 15.2502 5.27962 15.2347C5.3621 15.146 5.41845 15.0363 5.53114 14.817Z" stroke="#0B0D12" stroke-width="2"/>
</svg>
