<svg width="24" height="24" viewBox="0 0 24 24" fill="none" xmlns="http://www.w3.org/2000/svg">
<g clip-path="url(#clip0_110_4221)">
<path d="M12 1.00001C12.163 1.00063 12.3233 1.04137 12.4669 1.11863C12.6104 1.19589 12.7327 1.3073 12.823 1.44301L12.89 1.55901L15.742 7.34001L22.122 8.26501C22.863 8.37301 23.202 9.20501 22.825 9.79101L22.755 9.88601L22.677 9.97201L18.053 14.471L19.143 20.826C19.1714 20.9918 19.1575 21.162 19.1028 21.3211C19.048 21.4801 18.954 21.6227 18.8295 21.7358C18.7051 21.8489 18.5541 21.9289 18.3906 21.9682C18.2271 22.0076 18.0563 22.0051 17.894 21.961L17.793 21.926L17.692 21.88L11.999 18.88L6.29297 21.88C6.18797 21.935 6.08097 21.97 5.97297 21.986L5.86697 21.996C5.7274 22.0011 5.58831 21.977 5.45859 21.9253C5.32888 21.8735 5.2114 21.7952 5.11368 21.6954C5.01597 21.5957 4.94017 21.4766 4.89114 21.3458C4.84212 21.215 4.82094 21.0754 4.82897 20.936L4.84197 20.826L5.93197 14.471L1.30897 9.97101C1.18942 9.85457 1.10089 9.71009 1.05141 9.55071C1.00193 9.39133 0.993093 9.22211 1.02569 9.05844C1.05828 8.89477 1.13128 8.74185 1.23804 8.61358C1.3448 8.48531 1.48193 8.38577 1.63697 8.32401L1.74997 8.28801L1.86397 8.26501L8.24297 7.34001L11.096 1.56001C11.1755 1.38862 11.3035 1.24427 11.4642 1.14476C11.6248 1.04525 11.8111 0.994935 12 1.00001ZM12 4.27401V16.75C12.0805 16.75 12.1608 16.7598 12.239 16.779L12.354 16.815L12.466 16.865L16.829 19.164L15.993 14.291C15.9518 14.0502 16.0001 13.8026 16.129 13.595L16.199 13.496L16.281 13.406L19.827 9.95301L14.936 9.24501C14.6942 9.20992 14.4737 9.08756 14.316 8.90101L14.243 8.80401L14.183 8.69801L12 4.27401Z" fill="#0EA306"/>
</g>
<defs>
<clipPath id="clip0_110_4221">
<rect width="24" height="24" fill="white"/>
</clipPath>
</defs>
</svg>
