<svg width="24" height="24" viewBox="0 0 24 24" fill="none" xmlns="http://www.w3.org/2000/svg">
<path d="M8.69507 7.08822C10.0446 4.46168 10.7194 3.14841 11.7484 3.01611C11.9155 2.99463 12.0845 2.99463 12.2516 3.01611C13.2806 3.14841 13.9554 4.46168 15.3049 7.08822C15.5585 7.58173 15.6853 7.82848 15.8709 8.02803C15.9033 8.06295 15.9371 8.09667 15.972 8.12915C16.1715 8.31473 16.4183 8.44151 16.9118 8.69507C19.5383 10.0446 20.8516 10.7194 20.9839 11.7484C21.0054 11.9155 21.0054 12.0845 20.9839 12.2516C20.8516 13.2806 19.5383 13.9554 16.9118 15.3049C16.4183 15.5585 16.1715 15.6853 15.972 15.8709C15.9371 15.9033 15.9033 15.9371 15.8709 15.972C15.6853 16.1715 15.5585 16.4183 15.3049 16.9118C13.9554 19.5383 13.2806 20.8516 12.2516 20.9839C12.0845 21.0054 11.9155 21.0054 11.7484 20.9839C10.7194 20.8516 10.0446 19.5383 8.69507 16.9118C8.44151 16.4183 8.31473 16.1715 8.12915 15.972C8.09667 15.9371 8.06295 15.9033 8.02803 15.8709C7.82848 15.6853 7.58173 15.5585 7.08822 15.3049C4.46168 13.9554 3.14841 13.2806 3.01611 12.2516C2.99463 12.0845 2.99463 11.9155 3.01611 11.7484C3.14841 10.7194 4.46168 10.0446 7.08822 8.69507C7.58173 8.44151 7.82848 8.31473 8.02803 8.12915C8.06295 8.09667 8.09667 8.06295 8.12915 8.02803C8.31473 7.82848 8.44151 7.58173 8.69507 7.08822Z" stroke="#0B0D12" stroke-width="2"/>
</svg>
