<svg width="24" height="24" viewBox="0 0 24 24" fill="none" xmlns="http://www.w3.org/2000/svg">
<path d="M12 21C16.7376 21 20.6203 17.3394 20.9738 12.6923M12 21C7.26238 21 3.37974 17.3394 3.02623 12.6923M12 21L13.7672 14.8148C13.8612 14.4859 14.0387 14.187 14.2824 13.947M12 21L10.2328 14.8148C10.1388 14.4859 9.96134 14.187 9.7176 13.947M12 9C16.7376 9 20.6203 10.6269 20.9738 12.6923M12 9C7.26238 9 3.37974 10.6269 3.02623 12.6923M12 9C10.3431 9 9 10.3431 9 12C9 12.7431 9.27015 13.423 9.7176 13.947M12 9C13.6569 9 15 10.3431 15 12C15 12.7431 14.7298 13.423 14.2824 13.947M20.9738 12.6923C20.9911 12.4638 21 12.2329 21 12C21 7.02944 16.9706 3 12 3C7.02944 3 3 7.02944 3 12C3 12.2329 3.00885 12.4638 3.02623 12.6923M20.9738 12.6923L14.2824 13.947M3.02623 12.6923L9.7176 13.947" stroke="#0B0D12" stroke-width="2" stroke-linecap="round" stroke-linejoin="round"/>
</svg>
