<svg width="24" height="24" viewBox="0 0 24 24" fill="none" xmlns="http://www.w3.org/2000/svg">
<path d="M21 12C21 16.9706 16.9706 21 12 21C7.02944 21 3 16.9706 3 12C3 7.02944 7.02944 3 12 3C16.9706 3 21 7.02944 21 12Z" stroke="#0B0D12" stroke-width="2" stroke-linecap="round" stroke-linejoin="round"/>
<path d="M8.5 10.9C8.5 10.0599 8.5 9.63988 8.66349 9.31901C8.8073 9.03677 9.03677 8.8073 9.31901 8.66349C9.63988 8.5 10.0599 8.5 10.9 8.5H13.1C13.9401 8.5 14.3601 8.5 14.681 8.66349C14.9632 8.8073 15.1927 9.03677 15.3365 9.31901C15.5 9.63988 15.5 10.0599 15.5 10.9V13.1C15.5 13.9401 15.5 14.3601 15.3365 14.681C15.1927 14.9632 14.9632 15.1927 14.681 15.3365C14.3601 15.5 13.9401 15.5 13.1 15.5H10.9C10.0599 15.5 9.63988 15.5 9.31901 15.3365C9.03677 15.1927 8.8073 14.9632 8.66349 14.681C8.5 14.3601 8.5 13.9401 8.5 13.1V10.9Z" stroke="#0B0D12" stroke-width="2" stroke-linecap="round" stroke-linejoin="round"/>
</svg>
