<svg width="24" height="24" viewBox="0 0 24 24" fill="none" xmlns="http://www.w3.org/2000/svg">
<g clip-path="url(#clip0_249_4259)">
<path d="M5 12H19" stroke="#0EA306" stroke-width="2" stroke-linecap="round" stroke-linejoin="round"/>
<path d="M16 6.5C15.7732 6.05996 15.2536 5.67165 14.5265 5.399C13.7994 5.12635 12.9084 4.98563 12 5H11C10.0717 5 9.1815 5.36875 8.52513 6.02513C7.86875 6.68151 7.5 7.57174 7.5 8.5C7.5 9.42826 7.86875 10.3185 8.52513 10.9749C9.1815 11.6313 10.0717 12 11 12H13C13.9283 12 14.8185 12.3688 15.4749 13.0251C16.1313 13.6815 16.5 14.5717 16.5 15.5C16.5 16.4283 16.1313 17.3185 15.4749 17.9749C14.8185 18.6313 13.9283 19 13 19H11.5C10.5916 19.0144 9.70056 18.8736 8.9735 18.601C8.24644 18.3284 7.72675 17.94 7.5 17.5" stroke="#0EA306" stroke-width="2" stroke-linecap="round" stroke-linejoin="round"/>
</g>
<defs>
<clipPath id="clip0_249_4259">
<rect width="24" height="24" fill="white"/>
</clipPath>
</defs>
</svg>
