<svg width="24" height="24" viewBox="0 0 24 24" fill="none" xmlns="http://www.w3.org/2000/svg">
<path d="M5.82716 15.375C5.82716 11.9232 8.59083 9.125 12 9.125C15.4092 9.125 18.1728 11.9232 18.1728 15.375M5.82716 15.375H18.1728M5.82716 15.375H3M18.1728 15.375H21M18.9838 8.30393L20.8889 6.375M5.01623 8.30393L3.11111 6.375M12 3V5.375M3.11111 21L5.33333 20.1562C6.76495 19.6127 8.34616 19.6127 9.77778 20.1562C11.2094 20.6998 12.7906 20.6998 14.2222 20.1562C15.6538 19.6127 17.235 19.6127 18.6667 20.1562L20.8889 21" stroke="#0B0D12" stroke-width="2" stroke-linecap="round"/>
</svg>
