<svg width="24" height="24" viewBox="0 0 24 24" fill="none" xmlns="http://www.w3.org/2000/svg">
<path d="M9.90798 3.21799L9.45399 4.10899L9.90798 3.21799ZM10.782 4.09202L9.89101 4.54601L10.782 4.09202ZM4.09202 3.21799L4.54601 4.10899L4.09202 3.21799ZM3.21799 4.09202L4.10899 4.54601L3.21799 4.09202ZM19.737 5.7373L19.0299 6.44441L19.0299 6.44441L19.737 5.7373ZM18.7624 4.76272L19.4695 4.05562L19.4695 4.05561L18.7624 4.76272ZM14.237 4.76271L14.9441 5.46982L14.237 4.76271ZM10.2926 7.29282C9.90204 7.68334 9.90203 8.31651 10.2926 8.70703C10.6831 9.09756 11.3162 9.09757 11.7068 8.70705L10.2926 7.29282ZM19.737 10.2628L20.4441 10.9699L19.737 10.2628ZM8.29335 20.2924C7.90282 20.6829 7.90283 21.3161 8.29336 21.7066C8.68389 22.0971 9.31705 22.0971 9.70757 21.7066L8.29335 20.2924ZM17.1177 3.42632L17.4267 2.47526L17.4267 2.47526L17.1177 3.42632ZM15.8817 3.42631L16.1907 4.37737V4.37737L15.8817 3.42631ZM21.0734 7.38199L22.0245 7.07297V7.07297L21.0734 7.38199ZM21.0734 8.61806L22.0245 8.92707V8.92707L21.0734 8.61806ZM21 16.2H20H21ZM21 17.8H22H21ZM17.8 21V20V21ZM17 12C16.4477 12 16 12.4477 16 13C16 13.5523 16.4477 14 17 14V12ZM17.8 13V12V13ZM20.782 19.908L19.891 19.454L20.782 19.908ZM19.908 20.782L19.454 19.891L19.908 20.782ZM20.782 14.092L19.891 14.546V14.546L20.782 14.092ZM19.908 13.218L19.454 14.109L19.908 13.218ZM8 16.99C8 16.4377 7.55228 15.99 7 15.99C6.44772 15.99 6 16.4377 6 16.99H8ZM6 17C6 17.5523 6.44772 18 7 18C7.55228 18 8 17.5523 8 17H6ZM6.2 4H7.8V2H6.2V4ZM10 6.2V17H12V6.2H10ZM4 17V6.2H2V17H4ZM7 20C5.34315 20 4 18.6569 4 17H2C2 19.7614 4.23858 22 7 22V20ZM10 17C10 18.6569 8.65685 20 7 20V22C9.76142 22 12 19.7614 12 17H10ZM7.8 4C8.37655 4 8.74883 4.00078 9.03216 4.02393C9.30383 4.04612 9.40455 4.0838 9.45399 4.10899L10.362 2.32698C9.98359 2.13419 9.59037 2.06287 9.19503 2.03057C8.81136 1.99922 8.34355 2 7.8 2V4ZM12 6.2C12 5.65645 12.0008 5.18864 11.9694 4.80497C11.9371 4.40963 11.8658 4.01641 11.673 3.63803L9.89101 4.54601C9.9162 4.59545 9.95388 4.69617 9.97607 4.96784C9.99922 5.25117 10 5.62345 10 6.2H12ZM9.45399 4.10899C9.64215 4.20487 9.79513 4.35785 9.89101 4.54601L11.673 3.63803C11.3854 3.07354 10.9265 2.6146 10.362 2.32698L9.45399 4.10899ZM6.2 2C5.65645 2 5.18864 1.99922 4.80497 2.03057C4.40963 2.06287 4.01641 2.13419 3.63803 2.32698L4.54601 4.10899C4.59545 4.0838 4.69617 4.04612 4.96784 4.02393C5.25117 4.00078 5.62345 4 6.2 4V2ZM4 6.2C4 5.62345 4.00078 5.25117 4.02393 4.96784C4.04612 4.69617 4.0838 4.59545 4.10899 4.54601L2.32698 3.63803C2.13419 4.01641 2.06287 4.40963 2.03057 4.80497C1.99922 5.18864 2 5.65645 2 6.2H4ZM3.63803 2.32698C3.07354 2.6146 2.6146 3.07354 2.32698 3.63803L4.10899 4.54601C4.20487 4.35785 4.35785 4.20487 4.54601 4.10899L3.63803 2.32698ZM20.4441 5.03019L19.4695 4.05562L18.0553 5.46983L19.0299 6.44441L20.4441 5.03019ZM13.5299 4.05559L10.2926 7.29282L11.7068 8.70705L14.9441 5.46982L13.5299 4.05559ZM19.0299 9.55567L8.29335 20.2924L9.70757 21.7066L20.4441 10.9699L19.0299 9.55567ZM19.4695 4.05561C19.0852 3.67127 18.7549 3.33994 18.4615 3.09081C18.1591 2.8341 17.8306 2.60649 17.4267 2.47526L16.8087 4.37737C16.8615 4.39452 16.9593 4.4391 17.1671 4.61549C17.3838 4.79947 17.6476 5.06215 18.0553 5.46983L19.4695 4.05561ZM14.9441 5.46982C15.3517 5.06215 15.6155 4.79947 15.8323 4.61549C16.04 4.43909 16.1379 4.39452 16.1907 4.37737L15.5727 2.47525C15.1688 2.60648 14.8403 2.83409 14.5379 3.0908C14.2445 3.33992 13.9142 3.67125 13.5299 4.05559L14.9441 5.46982ZM17.4267 2.47526C16.8242 2.27949 16.1752 2.27948 15.5727 2.47525L16.1907 4.37737C16.3915 4.31211 16.6079 4.31211 16.8087 4.37737L17.4267 2.47526ZM19.0299 6.44441C19.4376 6.85209 19.7003 7.11587 19.8842 7.33259C20.0606 7.54038 20.1052 7.63824 20.1224 7.69102L22.0245 7.07297C21.8932 6.66909 21.6656 6.34062 21.4089 6.03823C21.1598 5.74477 20.8284 5.41453 20.4441 5.03019L19.0299 6.44441ZM20.4441 10.9699C20.8285 10.5855 21.1598 10.2553 21.4089 9.96182C21.6656 9.65943 21.8933 9.33095 22.0245 8.92707L20.1224 8.30905C20.1052 8.36182 20.0606 8.45968 19.8843 8.66747C19.7003 8.88419 19.4376 9.14798 19.0299 9.55567L20.4441 10.9699ZM20.1224 7.69101C20.1876 7.89186 20.1876 8.10821 20.1224 8.30905L22.0245 8.92707C22.2203 8.32454 22.2203 7.6755 22.0245 7.07297L20.1224 7.69101ZM20 16.2V17.8H22V16.2H20ZM17.8 20H7V22H17.8V20ZM17 14H17.8V12H17V14ZM20 17.8C20 18.3766 19.9992 18.7488 19.9761 19.0322C19.9539 19.3038 19.9162 19.4045 19.891 19.454L21.673 20.362C21.8658 19.9836 21.9371 19.5904 21.9694 19.195C22.0008 18.8114 22 18.3436 22 17.8H20ZM17.8 22C18.3436 22 18.8114 22.0008 19.195 21.9694C19.5904 21.9371 19.9836 21.8658 20.362 21.673L19.454 19.891C19.4045 19.9162 19.3038 19.9539 19.0322 19.9761C18.7488 19.9992 18.3766 20 17.8 20V22ZM19.891 19.454C19.7951 19.6422 19.6422 19.7951 19.454 19.891L20.362 21.673C20.9265 21.3854 21.3854 20.9265 21.673 20.362L19.891 19.454ZM22 16.2C22 15.6564 22.0008 15.1886 21.9694 14.805C21.9371 14.4096 21.8658 14.0164 21.673 13.638L19.891 14.546C19.9162 14.5955 19.9539 14.6962 19.9761 14.9678C19.9992 15.2512 20 15.6234 20 16.2H22ZM17.8 14C18.3766 14 18.7488 14.0008 19.0322 14.0239C19.3038 14.0461 19.4045 14.0838 19.454 14.109L20.362 12.327C19.9836 12.1342 19.5904 12.0629 19.195 12.0306C18.8114 11.9992 18.3436 12 17.8 12V14ZM21.673 13.638C21.3854 13.0735 20.9265 12.6146 20.362 12.327L19.454 14.109C19.6422 14.2049 19.7951 14.3578 19.891 14.546L21.673 13.638ZM6 16.99V17H8V16.99H6Z" fill="#0B0D12"/>
</svg>
