<svg width="24" height="24" viewBox="0 0 24 24" fill="none" xmlns="http://www.w3.org/2000/svg">
<path d="M11 17.5H13M8.8 21H15.2C16.8802 21 17.7202 21 18.362 20.673C18.9265 20.3854 19.3854 19.9265 19.673 19.362C20 18.7202 20 17.8802 20 16.2V7.8C20 6.11984 20 5.27976 19.673 4.63803C19.3854 4.07354 18.9265 3.6146 18.362 3.32698C17.7202 3 16.8802 3 15.2 3H8.8C7.11984 3 6.27976 3 5.63803 3.32698C5.07354 3.6146 4.6146 4.07354 4.32698 4.63803C4 5.27976 4 6.11984 4 7.8V16.2C4 17.8802 4 18.7202 4.32698 19.362C4.6146 19.9265 5.07354 20.3854 5.63803 20.673C6.27976 21 7.11984 21 8.8 21Z" stroke="#0B0D12" stroke-width="2" stroke-linecap="round" stroke-linejoin="round"/>
</svg>
