<svg width="24" height="24" viewBox="0 0 24 24" fill="none" xmlns="http://www.w3.org/2000/svg">
<path d="M7.97956 11C8.53185 11 8.97956 10.5523 8.97956 10C8.97956 9.44772 8.53185 9 7.97956 9V11ZM3.33638 18.3829L4.22456 17.9234L3.33638 18.3829ZM4.61047 19.6622L5.07293 18.7756L5.07293 18.7756L4.61047 19.6622ZM3.33638 11.6171L4.22456 12.0766H4.22456L3.33638 11.6171ZM4.61047 10.3378L5.07293 11.2244L5.07293 11.2244L4.61047 10.3378ZM14.5594 5.51693L13.6304 5.88701L13.6304 5.88702L14.5594 5.51693ZM10.2672 5.1716L9.40879 4.65865L10.2672 5.1716ZM8.6608 7.85994L7.80238 7.347L8.6608 7.85994ZM20.886 12.8155L21.8511 13.0777L21.8514 13.0764L20.886 12.8155ZM20.5226 14.1535L21.4876 14.4156V14.4156L20.5226 14.1535ZM20.3961 14.8577L19.4002 14.7675V14.7675L20.3961 14.8577ZM20.3257 15.6346L21.3217 15.7247V15.7247L20.3257 15.6346ZM20.4743 14.3371L19.5015 14.1055V14.1055L20.4743 14.3371ZM20.4147 14.6687L21.4073 14.7902V14.7902L20.4147 14.6687ZM18.4856 19.7091L18.9166 20.6114H18.9166L18.4856 19.7091ZM19.7728 18.5288L20.6341 19.0368L19.7728 18.5288ZM8.30521 18.362L7.41345 18.8145L8.30521 18.362ZM9.61089 19.673L10.0664 18.7828H10.0664L9.61089 19.673ZM8.19081 8.72295L9.12062 9.09098L9.12062 9.09098L8.19081 8.72295ZM8.01874 9.3467L7.03175 9.18593L8.01874 9.3467ZM17.9575 8.99997L17.9534 9.99997L17.9563 9.99997L17.9575 8.99997ZM15.2003 7.12559L14.2713 7.49569L14.2728 7.49947L15.2003 7.12559ZM18.0296 9.00006L18.0359 8.00007L18.0308 8.00006L18.0296 9.00006ZM20.898 12.771L21.8634 13.0319L21.8647 13.0271L20.898 12.771ZM4 15.17V14.83H2V15.17H4ZM7.81026 11H7.97956V9H7.81026V11ZM12.7599 19H7.81026V21H12.7599V19ZM2 15.17C2 16.0075 1.9992 16.6966 2.04545 17.2557C2.09268 17.8268 2.19404 18.3511 2.4482 18.8424L4.22456 17.9234C4.14234 17.7645 4.07551 17.5367 4.03864 17.0909C4.0008 16.6333 4 16.041 4 15.17H2ZM7.81026 19C6.94266 19 6.35336 18.9992 5.89824 18.9612C5.45521 18.9243 5.22982 18.8574 5.07293 18.7756L4.148 20.5489C4.63867 20.8048 5.16243 20.9068 5.73204 20.9543C6.28955 21.0008 6.97637 21 7.81026 21V19ZM2.4482 18.8424C2.82599 19.5727 3.41937 20.1688 4.14801 20.5489L5.07293 18.7756C4.71018 18.5864 4.4137 18.289 4.22456 17.9234L2.4482 18.8424ZM4 14.83C4 13.959 4.0008 13.3667 4.03864 12.9091C4.07551 12.4633 4.14234 12.2355 4.22456 12.0766L2.4482 11.1576C2.19404 11.6489 2.09268 12.1732 2.04545 12.7443C1.9992 13.3034 2 13.9925 2 14.83H4ZM7.81026 9C6.97637 9 6.28955 8.99919 5.73204 9.04568C5.16243 9.09318 4.63867 9.1952 4.148 9.45112L5.07293 11.2244C5.22982 11.1426 5.45521 11.0757 5.89824 11.0388C6.35336 11.0008 6.94266 11 7.81026 11V9ZM4.22456 12.0766C4.4137 11.711 4.71018 11.4136 5.07293 11.2244L4.148 9.45112C3.41937 9.83117 2.82599 10.4273 2.4482 11.1576L4.22456 12.0766ZM9.40879 4.65865L7.80238 7.347L9.51922 8.37289L11.1256 5.68454L9.40879 4.65865ZM6.97956 10.3295V15.2H8.97956V10.3295H6.97956ZM15.565 19H12.7599V21H15.565V19ZM19.921 12.5534L19.5576 13.8914L21.4876 14.4156L21.851 13.0777L19.921 12.5534ZM19.4002 14.7675L19.3298 15.5444L21.3217 15.7247L21.392 14.9478L19.4002 14.7675ZM19.5576 13.8914C19.5342 13.9772 19.5169 14.0406 19.5015 14.1055L21.4471 14.5687C21.4536 14.5414 21.4612 14.5128 21.4876 14.4156L19.5576 13.8914ZM21.392 14.9479C21.4011 14.8475 21.4039 14.8181 21.4073 14.7902L19.4221 14.5472C19.414 14.6135 19.4082 14.6789 19.4002 14.7675L21.392 14.9479ZM19.5015 14.1055C19.4668 14.2511 19.4403 14.3986 19.4221 14.5473L21.4073 14.7902C21.4164 14.7157 21.4297 14.6417 21.4471 14.5687L19.5015 14.1055ZM15.565 21C16.3197 21 16.9436 21.0007 17.4533 20.9605C17.9755 20.9194 18.4568 20.8311 18.9166 20.6114L18.0545 18.8067C17.9053 18.878 17.6968 18.9352 17.2962 18.9667C16.8832 18.9993 16.3513 19 15.565 19V21ZM19.3298 15.5444C19.2586 16.3305 19.2097 16.8629 19.14 17.2735C19.0722 17.6721 18.9964 17.8767 18.9114 18.0207L20.6341 19.0368C20.8929 18.5981 21.0237 18.1261 21.1117 17.6085C21.1976 17.103 21.2533 16.4796 21.3217 15.7247L19.3298 15.5444ZM18.9166 20.6114C19.6329 20.2693 20.2306 19.7208 20.6341 19.0368L18.9114 18.0207C18.7096 18.363 18.411 18.6364 18.0545 18.8067L18.9166 20.6114ZM6.97956 15.2C6.97956 16.0236 6.97879 16.7013 7.02356 17.2515C7.06927 17.8133 7.16735 18.3295 7.41345 18.8145L9.19696 17.9095C9.11741 17.7527 9.05267 17.528 9.01697 17.0893C8.98033 16.639 8.97956 16.0565 8.97956 15.2H6.97956ZM12.7599 19C11.9067 19 11.3272 18.9992 10.8794 18.9625C10.4433 18.9267 10.2211 18.8619 10.0664 18.7828L9.15543 20.5633C9.63981 20.8111 10.1555 20.9098 10.7158 20.9558C11.2644 21.0008 11.9399 21 12.7599 21V19ZM7.41345 18.8145C7.79521 19.5668 8.40476 20.1792 9.15543 20.5633L10.0664 18.7828C9.69267 18.5916 9.38809 18.2861 9.19696 17.9095L7.41345 18.8145ZM7.80238 7.347C7.56488 7.74446 7.3873 8.03579 7.26099 8.35492L9.12062 9.09098C9.1736 8.95712 9.2496 8.82411 9.51922 8.37289L7.80238 7.347ZM8.97956 10.3295C8.97956 9.80336 8.98255 9.64982 9.00573 9.50748L7.03175 9.18593C6.97658 9.52464 6.97956 9.86596 6.97956 10.3295H8.97956ZM7.26099 8.35492C7.15494 8.62286 7.07809 8.90148 7.03175 9.18593L9.00573 9.50748C9.02897 9.36484 9.06749 9.2252 9.12062 9.09098L7.26099 8.35492ZM12.328 3C11.1306 3 10.023 3.63084 9.40879 4.65865L11.1256 5.68454C11.3801 5.25865 11.837 5 12.328 5V3ZM15.4884 5.14685C14.9726 3.85212 13.7221 3 12.328 3V5C12.8994 5 13.4162 5.34939 13.6304 5.88701L15.4884 5.14685ZM17.9616 7.99998C17.1572 7.99667 16.4315 7.50531 16.1278 6.75171L14.2728 7.49947C14.8791 9.00344 16.3323 9.99329 17.9534 9.99997L17.9616 7.99998ZM21.8514 13.0764L21.8634 13.0319L19.9327 12.5102L19.9206 12.5547L21.8514 13.0764ZM18.0232 10C19.3185 10.0083 20.2677 11.2452 19.9314 12.515L21.8647 13.0271C22.533 10.5039 20.6493 8.0167 18.0359 8.00008L18.0232 10ZM16.1293 6.7555L15.4884 5.14684L13.6304 5.88702L14.2713 7.49569L16.1293 6.7555ZM18.0308 8.00006L17.9587 7.99998L17.9563 9.99997L18.0284 10.0001L18.0308 8.00006Z" fill="#0B0D12"/>
</svg>
