<svg width="24" height="24" viewBox="0 0 24 24" fill="none" xmlns="http://www.w3.org/2000/svg">
<path d="M7.97956 15C8.53185 15 8.97956 14.5523 8.97956 14C8.97956 13.4477 8.53185 13 7.97956 13V15ZM3.32564 5.63803L2.43389 5.18551L2.43389 5.18551L3.32564 5.63803ZM4.63133 4.32698L5.0868 5.21723L5.0868 5.21723L4.63133 4.32698ZM3.32564 12.362L4.2174 11.9095V11.9095L3.32564 12.362ZM4.63133 13.673L5.0868 12.7828L4.63133 13.673ZM14.5594 18.4831L13.6304 18.113L13.6304 18.113L14.5594 18.4831ZM10.2672 18.8284L11.1256 18.3155L10.2672 18.8284ZM8.6608 16.1401L7.80238 16.653L8.6608 16.1401ZM20.886 11.1845L21.8514 10.9236L21.851 10.9223L20.886 11.1845ZM20.5226 9.8465L21.4876 9.58437V9.58437L20.5226 9.8465ZM20.3961 9.14232L19.4002 9.23249V9.23249L20.3961 9.14232ZM20.3257 8.36543L21.3217 8.27526V8.27526L20.3257 8.36543ZM20.4743 9.66292L19.5015 9.89453V9.89454L20.4743 9.66292ZM20.4147 9.33128L21.4073 9.20981V9.2098L20.4147 9.33128ZM18.4856 4.29093L18.9166 3.38859L18.9166 3.38859L18.4856 4.29093ZM19.7728 5.47125L20.6341 4.96321L19.7728 5.47125ZM8.30521 5.63803L7.41345 5.18551V5.18551L8.30521 5.63803ZM9.61089 4.32698L10.0664 5.21723L10.0664 5.21723L9.61089 4.32698ZM8.19081 15.2771L9.12062 14.909H9.12062L8.19081 15.2771ZM8.01874 14.6533L7.03175 14.8141V14.8141L8.01874 14.6533ZM17.9575 15L17.9563 14L17.9534 14L17.9575 15ZM15.2003 16.8744L14.2728 16.5005L14.2713 16.5043L15.2003 16.8744ZM18.0296 14.9999L18.0308 16L18.0359 15.9999L18.0296 14.9999ZM20.898 11.229L21.8647 10.9729L21.8634 10.9681L20.898 11.229ZM2 8.8V9.2H4V8.8H2ZM7.78038 15H7.97956V13H7.78038V15ZM12.7599 3H7.78038V5H12.7599V3ZM4 8.8C4 7.94349 4.00077 7.361 4.03741 6.91071C4.07311 6.47197 4.13785 6.24731 4.2174 6.09054L2.43389 5.18551C2.18779 5.67049 2.08971 6.18673 2.044 6.7485C1.99923 7.29873 2 7.97636 2 8.8H4ZM7.78038 3C6.9603 3 6.28486 2.99922 5.73628 3.04422C5.1759 3.09019 4.66025 3.18891 4.17586 3.43673L5.0868 5.21723C5.24153 5.13807 5.46376 5.0733 5.8998 5.03752C6.34764 5.00078 6.92717 5 7.78038 5V3ZM4.2174 6.09054C4.40853 5.71389 4.71311 5.40842 5.0868 5.21723L4.17587 3.43673C3.4252 3.82078 2.81564 4.4332 2.43389 5.18551L4.2174 6.09054ZM2 9.2C2 10.0236 1.99923 10.7013 2.044 11.2515C2.08971 11.8133 2.18779 12.3295 2.43389 12.8145L4.2174 11.9095C4.13785 11.7527 4.07311 11.528 4.03741 11.0893C4.00077 10.639 4 10.0565 4 9.2H2ZM7.78038 13C6.92717 13 6.34764 12.9992 5.8998 12.9625C5.46376 12.9267 5.24153 12.8619 5.0868 12.7828L4.17586 14.5633C4.66025 14.8111 5.1759 14.9098 5.73628 14.9558C6.28486 15.0008 6.9603 15 7.78038 15V13ZM2.43389 12.8145C2.81564 13.5668 3.4252 14.1792 4.17586 14.5633L5.0868 12.7828C4.71311 12.5916 4.40853 12.2861 4.2174 11.9095L2.43389 12.8145ZM11.1256 18.3155L9.51922 15.6271L7.80238 16.653L9.40879 19.3414L11.1256 18.3155ZM8.97956 13.6705V8.8H6.97956V13.6705H8.97956ZM15.565 3H12.7599V5H15.565V3ZM21.851 10.9223L21.4876 9.58437L19.5576 10.1086L19.921 11.4466L21.851 10.9223ZM21.392 9.05215L21.3217 8.27526L19.3298 8.4556L19.4002 9.23249L21.392 9.05215ZM21.4876 9.58437C21.4612 9.48716 21.4536 9.4586 21.4471 9.43131L19.5015 9.89454C19.5169 9.95942 19.5342 10.0228 19.5576 10.1086L21.4876 9.58437ZM19.4002 9.23249C19.4082 9.32107 19.414 9.38655 19.4221 9.45275L21.4073 9.2098C21.4039 9.18195 21.4011 9.15251 21.392 9.05215L19.4002 9.23249ZM21.4471 9.43131C21.4297 9.35828 21.4164 9.28433 21.4073 9.20981L19.4221 9.45275C19.4403 9.60139 19.4668 9.74888 19.5015 9.89453L21.4471 9.43131ZM15.565 5C16.3513 5 16.8832 5.00072 17.2962 5.03327C17.6968 5.06485 17.9053 5.12198 18.0545 5.19327L18.9166 3.38859C18.4568 3.16895 17.9755 3.08062 17.4533 3.03946C16.9436 2.99928 16.3197 3 15.565 3V5ZM21.3217 8.27526C21.2533 7.52036 21.1976 6.897 21.1117 6.39146C21.0237 5.87388 20.8929 5.40194 20.6341 4.96321L18.9114 5.97929C18.9964 6.12326 19.0722 6.32792 19.14 6.72651C19.2097 7.13713 19.2586 7.66952 19.3298 8.4556L21.3217 8.27526ZM18.0545 5.19327C18.411 5.36356 18.7096 5.637 18.9114 5.97929L20.6341 4.96321C20.2306 4.27916 19.6329 3.73074 18.9166 3.38859L18.0545 5.19327ZM8.97956 8.8C8.97956 7.94349 8.98033 7.361 9.01697 6.91071C9.05267 6.47197 9.11741 6.24731 9.19696 6.09054L7.41345 5.18551C7.16735 5.67049 7.06927 6.18673 7.02356 6.7485C6.97879 7.29872 6.97956 7.97636 6.97956 8.8H8.97956ZM12.7599 3C11.9399 3 11.2644 2.99922 10.7158 3.04422C10.1555 3.09019 9.63981 3.18891 9.15543 3.43673L10.0664 5.21723C10.2211 5.13807 10.4433 5.0733 10.8794 5.03752C11.3272 5.00078 11.9067 5 12.7599 5V3ZM9.19696 6.09054C9.38809 5.71389 9.69267 5.40842 10.0664 5.21723L9.15543 3.43673C8.40476 3.82078 7.79521 4.4332 7.41345 5.18551L9.19696 6.09054ZM9.51922 15.6271C9.2496 15.1759 9.1736 15.0429 9.12062 14.909L7.26099 15.6451C7.3873 15.9642 7.56488 16.2555 7.80238 16.653L9.51922 15.6271ZM6.97956 13.6705C6.97956 14.134 6.97658 14.4754 7.03175 14.8141L9.00573 14.4925C8.98255 14.3502 8.97956 14.1966 8.97956 13.6705H6.97956ZM9.12062 14.909C9.06749 14.7748 9.02897 14.6352 9.00573 14.4925L7.03175 14.8141C7.07809 15.0985 7.15494 15.3771 7.26099 15.6451L9.12062 14.909ZM12.328 19C11.837 19 11.3801 18.7414 11.1256 18.3155L9.40879 19.3414C10.023 20.3692 11.1306 21 12.328 21V19ZM13.6304 18.113C13.4162 18.6506 12.8994 19 12.328 19V21C13.7221 21 14.9726 20.1479 15.4884 18.8532L13.6304 18.113ZM17.9534 14C16.3323 14.0067 14.8791 14.9966 14.2728 16.5005L16.1278 17.2483C16.4315 16.4947 17.1572 16.0033 17.9616 16L17.9534 14ZM19.9206 11.4453L19.9327 11.4898L21.8634 10.9681L21.8514 10.9236L19.9206 11.4453ZM18.0359 15.9999C20.6493 15.9833 22.533 13.4961 21.8647 10.9729L19.9314 11.485C20.2677 12.7548 19.3185 13.9917 18.0232 14L18.0359 15.9999ZM14.2713 16.5043L13.6304 18.113L15.4884 18.8532L16.1293 17.2445L14.2713 16.5043ZM18.0284 13.9999L17.9563 14L17.9587 16L18.0308 15.9999L18.0284 13.9999Z" fill="#0B0D12"/>
</svg>
