<svg width="24" height="24" viewBox="0 0 24 24" fill="none" xmlns="http://www.w3.org/2000/svg">
<path d="M4 5C4 3.89543 4.89543 3 6 3H18C19.1046 3 20 3.89543 20 5C20 6.10457 19.1046 7 18 7H6C4.89543 7 4 6.10457 4 5Z" stroke="#0B0D12" stroke-width="2" stroke-linecap="round" stroke-linejoin="round"/>
<path d="M4 12C4 10.8954 4.89543 10 6 10H18C19.1046 10 20 10.8954 20 12C20 13.1046 19.1046 14 18 14H6C4.89543 14 4 13.1046 4 12Z" stroke="#0B0D12" stroke-width="2" stroke-linecap="round" stroke-linejoin="round"/>
<path d="M4 19C4 17.8954 4.89543 17 6 17H18C19.1046 17 20 17.8954 20 19C20 20.1046 19.1046 21 18 21H6C4.89543 21 4 20.1046 4 19Z" stroke="#0B0D12" stroke-width="2" stroke-linecap="round" stroke-linejoin="round"/>
</svg>
