<svg width="24" height="24" viewBox="0 0 24 24" fill="none" xmlns="http://www.w3.org/2000/svg">
<path d="M8.11735 7.92556V5.17425C8.11735 5.04361 8.06622 4.91833 7.9752 4.82596L6.31818 3.14427C6.22716 3.05189 6.10372 3 5.975 3H3.74938C3.48134 3 3.26405 3.22052 3.26405 3.49256V5.75131C3.26405 5.88195 3.31518 6.00723 3.4062 6.0996L5.06322 7.7813C5.15424 7.87367 5.27768 7.92556 5.4064 7.92556H8.11735ZM8.11735 7.92556L10.7734 10.6211M12 14.3145L5.91218 20.4929C5.24598 21.169 4.16585 21.169 3.49965 20.4929C2.83345 19.8168 2.83345 18.7206 3.49965 18.0445L10.5629 10.8761C10.6414 10.7964 10.7114 10.7111 10.7734 10.6211M12 14.3145L12.9754 13.3245C13.5467 12.7448 14.4097 12.6242 15.2091 12.7424C15.2349 12.7462 15.2608 12.7498 15.2867 12.7532M12 14.3145L18.0878 20.4929C18.754 21.169 19.8341 21.169 20.5003 20.4929C21.1666 19.8168 21.1666 18.7206 20.5003 18.0445L15.2867 12.7532M15.2867 12.7532C15.491 12.78 15.6994 12.7938 15.9109 12.7938C18.5757 12.7938 20.736 10.6014 20.736 7.8969C20.736 7.42951 20.6714 6.97741 20.5509 6.54928C20.4578 6.21822 20.0532 6.14137 19.8133 6.38483L18.5245 7.69286C17.8583 8.36898 16.7781 8.36898 16.1119 7.69286C15.4457 7.01674 15.4457 5.92053 16.1119 5.24441L17.4008 3.93638C17.6407 3.69292 17.5649 3.28233 17.2387 3.18777C16.8169 3.06548 16.3714 3 15.9109 3C13.2461 3 11.0858 5.19241 11.0858 7.8969C11.0858 8.13879 11.1031 8.37659 11.1365 8.60909C11.237 9.3089 11.1624 10.0567 10.7734 10.6211" stroke="#0B0D12" stroke-width="2" stroke-linecap="round"/>
</svg>
