<svg width="24" height="24" viewBox="0 0 24 24" fill="none" xmlns="http://www.w3.org/2000/svg">
<path d="M15.186 21H8.81397C6.28001 21 5.01302 21 4.24997 20.467C3.58367 20.0016 3.13874 19.2827 3.0199 18.4793C2.88379 17.5594 3.4504 16.4277 4.58362 14.1642L7.76962 7.80052C9.13119 5.08094 9.81197 3.72115 10.7332 3.2848C11.5349 2.90507 12.465 2.90507 13.2667 3.28479C14.188 3.72114 14.8687 5.08093 16.2303 7.8005L19.4164 14.1642C20.5496 16.4276 21.1162 17.5594 20.9801 18.4793C20.8613 19.2826 20.4163 20.0016 19.75 20.467C18.987 21 17.72 21 15.186 21Z" stroke="#0B0D12" stroke-width="2" stroke-linecap="round" stroke-linejoin="round"/>
</svg>
