<svg width="24" height="24" viewBox="0 0 24 24" fill="none" xmlns="http://www.w3.org/2000/svg">
<path d="M11.8 16H6.2C5.07989 16 4.51984 16 4.09202 15.782C3.71569 15.5903 3.40973 15.2843 3.21799 14.908C3 14.4802 3 13.9201 3 12.8V6.2C3 5.07989 3 4.51984 3.21799 4.09202C3.40973 3.71569 3.71569 3.40973 4.09202 3.21799C4.51984 3 5.0799 3 6.2 3H11.8C12.9201 3 13.4802 3 13.908 3.21799C14.2843 3.40973 14.5903 3.71569 14.782 4.09202C15 4.51984 15 5.0799 15 6.2V12.8C15 13.9201 15 14.4802 14.782 14.908C14.5903 15.2843 14.2843 15.5903 13.908 15.782C13.4802 16 12.9201 16 11.8 16ZM11.8 16H17.8C18.9201 16 19.4802 16 19.908 15.782C20.2843 15.5903 20.5903 15.2843 20.782 14.908C21 14.4802 21 13.9201 21 12.8V11M21 11L18.9322 7.55361C18.5922 6.98708 18.4223 6.70382 18.1883 6.49806C17.9812 6.31597 17.7387 6.17868 17.476 6.09479C17.1792 6 16.8489 6 16.1882 6H15M21 11H15M10 18.5C10 19.8807 8.88071 21 7.5 21C6.11929 21 5 19.8807 5 18.5C5 17.1193 6.11929 16 7.5 16C8.88071 16 10 17.1193 10 18.5ZM19 18.5C19 19.8807 17.8807 21 16.5 21C15.1193 21 14 19.8807 14 18.5C14 17.1193 15.1193 16 16.5 16C17.8807 16 19 17.1193 19 18.5Z" stroke="#0B0D12" stroke-width="2" stroke-linecap="round" stroke-linejoin="round"/>
</svg>
