<svg width="24" height="24" viewBox="0 0 24 24" fill="none" xmlns="http://www.w3.org/2000/svg">
<path d="M10 19C9.44772 19 9 19.4477 9 20C9 20.5523 9.44772 21 10 21V19ZM14 21C14.5523 21 15 20.5523 15 20C15 19.4477 14.5523 19 14 19V21ZM17.7654 4.15224L18.1481 3.22836V3.22836L17.7654 4.15224ZM18 7C18 7.55228 18.4477 8 19 8C19.5523 8 20 7.55228 20 7H18ZM18.8478 5.23463L19.7716 4.85195V4.85195L18.8478 5.23463ZM6.23463 4.15224L5.85195 3.22836L5.85195 3.22836L6.23463 4.15224ZM4 7C4 7.55228 4.44772 8 5 8C5.55228 8 6 7.55228 6 7H4ZM5.15224 5.23463L4.22836 4.85195L4.22836 4.85195L5.15224 5.23463ZM11 20C11 20.5523 11.4477 21 12 21C12.5523 21 13 20.5523 13 20H11ZM13 4C13 3.44772 12.5523 3 12 3C11.4477 3 11 3.44772 11 4L13 4ZM10 21H14V19H10V21ZM8 5H16V3H8V5ZM16 5C16.4796 5 16.7893 5.00054 17.0262 5.01671C17.2542 5.03227 17.3411 5.05888 17.3827 5.07612L18.1481 3.22836C17.8221 3.09336 17.4922 3.04385 17.1624 3.02135C16.8415 2.99946 16.4523 3 16 3V5ZM20 7C20 6.54774 20.0005 6.15846 19.9787 5.83762C19.9561 5.50779 19.9066 5.17788 19.7716 4.85195L17.9239 5.61732C17.9411 5.65893 17.9677 5.74576 17.9833 5.97376C17.9995 6.21074 18 6.52038 18 7H20ZM17.3827 5.07612C17.6277 5.17761 17.8224 5.37229 17.9239 5.61732L19.7716 4.85195C19.4672 4.11686 18.8831 3.53284 18.1481 3.22836L17.3827 5.07612ZM8 3C7.54774 3 7.15846 2.99946 6.83762 3.02135C6.50779 3.04385 6.17788 3.09336 5.85195 3.22836L6.61732 5.07612C6.65893 5.05888 6.74576 5.03227 6.97376 5.01671C7.21074 5.00054 7.52038 5 8 5V3ZM6 7C6 6.52038 6.00054 6.21074 6.01671 5.97376C6.03227 5.74576 6.05888 5.65893 6.07612 5.61732L4.22836 4.85195C4.09336 5.17788 4.04385 5.50779 4.02135 5.83762C3.99946 6.15846 4 6.54774 4 7H6ZM5.85195 3.22836C5.11687 3.53284 4.53284 4.11687 4.22836 4.85195L6.07612 5.61732C6.17761 5.37229 6.37229 5.17761 6.61732 5.07612L5.85195 3.22836ZM13 20L13 4L11 4L11 20H13Z" fill="#0B0D12"/>
</svg>
