<svg width="24" height="24" viewBox="0 0 24 24" fill="none" xmlns="http://www.w3.org/2000/svg">
<path d="M6.2 21H11.8C12.9201 21 13.4802 21 13.908 20.782C14.2843 20.5903 14.5903 20.2843 14.782 19.908C15 19.4802 15 18.9201 15 17.8V15H17.8C18.9201 15 19.4802 15 19.908 14.782C20.2843 14.5903 20.5903 14.2843 20.782 13.908C21 13.4802 21 12.9201 21 11.8V6.2C21 5.0799 21 4.51984 20.782 4.09202C20.5903 3.71569 20.2843 3.40973 19.908 3.21799C19.4802 3 18.9201 3 17.8 3H12.2C11.0799 3 10.5198 3 10.092 3.21799C9.71569 3.40973 9.40973 3.71569 9.21799 4.09202C9 4.51984 9 5.0799 9 6.2V9H6.2C5.0799 9 4.51984 9 4.09202 9.21799C3.71569 9.40973 3.40973 9.71569 3.21799 10.092C3 10.5198 3 11.0799 3 12.2V17.8C3 18.9201 3 19.4802 3.21799 19.908C3.40973 20.2843 3.71569 20.5903 4.09202 20.782C4.51984 21 5.0799 21 6.2 21Z" stroke="#0B0D12" stroke-width="2" stroke-linecap="round" stroke-linejoin="round"/>
</svg>
