<svg width="24" height="24" viewBox="0 0 24 24" fill="none" xmlns="http://www.w3.org/2000/svg">
<path d="M6.21964 19.9231L6.41473 18.9424H6.41473L6.21964 19.9231ZM4 15C4 14.4477 3.55228 14 3 14C2.44772 14 2 14.4477 2 15H4ZM3.07686 16.7804L2.09607 16.9755H2.09607L3.07686 16.7804ZM22 15C22 14.4477 21.5523 14 21 14C20.4477 14 20 14.4477 20 15H22ZM20.9231 16.7804L21.9039 16.9755V16.9755L20.9231 16.7804ZM17.7804 19.9231L17.5853 18.9424L17.7804 19.9231ZM12 4L12.7071 3.29289C12.3166 2.90237 11.6834 2.90237 11.2929 3.29289L12 4ZM11 14.5C11 15.0523 11.4477 15.5 12 15.5C12.5523 15.5 13 15.0523 13 14.5H11ZM14.7929 8.20711C15.1834 8.59763 15.8166 8.59763 16.2071 8.20711C16.5976 7.81658 16.5976 7.18342 16.2071 6.79289L14.7929 8.20711ZM7.79289 6.79289C7.40237 7.18342 7.40237 7.81658 7.79289 8.20711C8.18342 8.59763 8.81658 8.59763 9.20711 8.20711L7.79289 6.79289ZM16 19H8V21H16V19ZM8 19C7.02276 19 6.68018 18.9952 6.41473 18.9424L6.02455 20.9039C6.53189 21.0048 7.11862 21 8 21V19ZM2 15C2 15.8814 1.99516 16.4681 2.09607 16.9755L4.05764 16.5853C4.00484 16.3198 4 15.9772 4 15H2ZM6.41473 18.9424C5.22466 18.7056 4.29436 17.7753 4.05764 16.5853L2.09607 16.9755C2.49061 18.9589 4.0411 20.5094 6.02455 20.9039L6.41473 18.9424ZM20 15C20 15.9772 19.9952 16.3198 19.9424 16.5853L21.9039 16.9755C22.0048 16.4681 22 15.8814 22 15H20ZM16 21C16.8814 21 17.4681 21.0048 17.9755 20.9039L17.5853 18.9424C17.3198 18.9952 16.9772 19 16 19V21ZM19.9424 16.5853C19.7056 17.7753 18.7753 18.7056 17.5853 18.9424L17.9755 20.9039C19.9589 20.5094 21.5094 18.9589 21.9039 16.9755L19.9424 16.5853ZM11 4V14.5H13V4H11ZM11.2929 4.70711L14.7929 8.20711L16.2071 6.79289L12.7071 3.29289L11.2929 4.70711ZM11.2929 3.29289L7.79289 6.79289L9.20711 8.20711L12.7071 4.70711L11.2929 3.29289Z" fill="#0B0D12"/>
</svg>
