<svg width="24" height="24" viewBox="0 0 24 24" fill="none" xmlns="http://www.w3.org/2000/svg">
<path d="M15 17C14.4477 17 14 17.4477 14 18C14 18.5523 14.4477 19 15 19V17ZM21 19C21.5523 19 22 18.5523 22 18C22 17.4477 21.5523 17 21 17V19ZM11 17C11.5523 17 12 16.5523 12 16C12 15.4477 11.5523 15 11 15V17ZM4 21C4 21.5523 4.44772 22 5 22C5.55228 22 6 21.5523 6 21H4ZM5.07686 19.2196L6.05764 19.4147L5.07686 19.2196ZM8.21964 16.0769L8.41473 17.0576H8.41473L8.21964 16.0769ZM15.5 7.5C15.5 9.433 13.933 11 12 11V13C15.0376 13 17.5 10.5376 17.5 7.5H15.5ZM12 11C10.067 11 8.5 9.433 8.5 7.5H6.5C6.5 10.5376 8.96243 13 12 13V11ZM8.5 7.5C8.5 5.567 10.067 4 12 4V2C8.96243 2 6.5 4.46243 6.5 7.5H8.5ZM12 4C13.933 4 15.5 5.567 15.5 7.5H17.5C17.5 4.46243 15.0376 2 12 2V4ZM10 17H11V15H10V17ZM6 21C6 20.0228 6.00484 19.6802 6.05764 19.4147L4.09607 19.0245C3.99516 19.5319 4 20.1186 4 21H6ZM10 15C9.11862 15 8.53189 14.9952 8.02455 15.0961L8.41473 17.0576C8.68018 17.0048 9.02276 17 10 17V15ZM6.05764 19.4147C6.29436 18.2247 7.22466 17.2944 8.41473 17.0576L8.02455 15.0961C6.0411 15.4906 4.49061 17.0411 4.09607 19.0245L6.05764 19.4147ZM15 19H21V17H15V19Z" fill="#0B0D12"/>
</svg>
