<svg width="24" height="24" viewBox="0 0 24 24" fill="none" xmlns="http://www.w3.org/2000/svg">
<path d="M11 17C11.5523 17 12 16.5523 12 16C12 15.4477 11.5523 15 11 15V17ZM4 21C4 21.5523 4.44772 22 5 22C5.55228 22 6 21.5523 6 21H4ZM5.07686 19.2196L6.05764 19.4147L5.07686 19.2196ZM8.21964 16.0769L8.41473 17.0576H8.41473L8.21964 16.0769ZM17 16C17 15.4477 17.4477 15 18 15V13C16.3431 13 15 14.3431 15 16H17ZM18 15C18.5523 15 19 15.4477 19 16H21C21 14.3431 19.6569 13 18 13V15ZM21 18.5V20.5H23V18.5H21ZM20.5 21H15.5V23H20.5V21ZM15 20.5V18.5H13V20.5H15ZM15.5 21C15.2239 21 15 20.7761 15 20.5H13C13 21.8807 14.1193 23 15.5 23V21ZM21 20.5C21 20.7761 20.7761 21 20.5 21V23C21.8807 23 23 21.8807 23 20.5H21ZM20.5 18C20.7761 18 21 18.2239 21 18.5H23C23 17.1193 21.8807 16 20.5 16V18ZM15.5 16C14.1193 16 13 17.1193 13 18.5H15C15 18.2239 15.2239 18 15.5 18V16ZM19.7324 18H20.5V16H19.7324V18ZM19 16C19 16.1838 18.9513 16.3532 18.8668 16.4993L20.598 17.5007C20.8539 17.0584 21 16.5448 21 16H19ZM15.5 18H16.2676V16H15.5V18ZM16.2676 18H19.7324V16H16.2676V18ZM17.1332 16.4993C17.0487 16.3532 17 16.1838 17 16H15C15 16.5448 15.1461 17.0584 15.402 17.5007L17.1332 16.4993ZM15.5 7.5C15.5 9.433 13.933 11 12 11V13C15.0376 13 17.5 10.5376 17.5 7.5H15.5ZM12 11C10.067 11 8.5 9.433 8.5 7.5H6.5C6.5 10.5376 8.96243 13 12 13V11ZM8.5 7.5C8.5 5.567 10.067 4 12 4V2C8.96243 2 6.5 4.46243 6.5 7.5H8.5ZM12 4C13.933 4 15.5 5.567 15.5 7.5H17.5C17.5 4.46243 15.0376 2 12 2V4ZM10 17H11V15H10V17ZM6 21C6 20.0228 6.00484 19.6802 6.05764 19.4147L4.09607 19.0245C3.99516 19.5319 4 20.1186 4 21H6ZM10 15C9.11862 15 8.53189 14.9952 8.02455 15.0961L8.41473 17.0576C8.68018 17.0048 9.02276 17 10 17V15ZM6.05764 19.4147C6.29436 18.2247 7.22466 17.2944 8.41473 17.0576L8.02455 15.0961C6.0411 15.4906 4.49061 17.0411 4.09607 19.0245L6.05764 19.4147Z" fill="#0B0D12"/>
</svg>
