<svg width="24" height="24" viewBox="0 0 24 24" fill="none" xmlns="http://www.w3.org/2000/svg">
<path d="M19.2678 19.2678C19.7202 18.8154 20 18.1904 20 17.5C20 16.1193 18.8807 15 17.5 15C16.1193 15 15 16.1193 15 17.5C15 18.8807 16.1193 20 17.5 20C18.1904 20 18.8154 19.7202 19.2678 19.2678ZM19.2678 19.2678L21 21M11 16H10C9.07069 16 8.60603 16 8.21964 16.0769C6.63288 16.3925 5.39249 17.6329 5.07686 19.2196C5 19.606 5 20.0707 5 21M16.5 7.5C16.5 9.98528 14.4853 12 12 12C9.51472 12 7.5 9.98528 7.5 7.5C7.5 5.01472 9.51472 3 12 3C14.4853 3 16.5 5.01472 16.5 7.5Z" stroke="#0B0D12" stroke-width="2" stroke-linecap="round" stroke-linejoin="round"/>
</svg>
