<svg width="24" height="24" viewBox="0 0 24 24" fill="none" xmlns="http://www.w3.org/2000/svg">
<path d="M17.6669 3.40071C17.2554 3.03238 16.6232 3.0674 16.2549 3.47893C15.8865 3.89045 15.9216 4.52265 16.3331 4.89098L17.6669 3.40071ZM17.5 4.67133L16.7226 5.30038L17.5 4.67133ZM17.5 10.3287L16.7226 9.69962L17.5 10.3287ZM16.3331 10.109C15.9216 10.4774 15.8865 11.1095 16.2549 11.5211C16.6232 11.9326 17.2554 11.9676 17.6669 11.5993L16.3331 10.109ZM13.7804 16.0769L13.5853 17.0576L13.7804 16.0769ZM16 21C16 21.5523 16.4477 22 17 22C17.5523 22 18 21.5523 18 21H16ZM16.9231 19.2196L17.9039 19.0245V19.0245L16.9231 19.2196ZM6.21964 16.0769L6.41473 17.0576H6.41473L6.21964 16.0769ZM2 21C2 21.5523 2.44772 22 3 22C3.55228 22 4 21.5523 4 21H2ZM3.07686 19.2196L4.05764 19.4147L3.07686 19.2196ZM20 21C20 21.5523 20.4477 22 21 22C21.5523 22 22 21.5523 22 21H20ZM20.9231 19.2196L21.9039 19.0245V19.0245L20.9231 19.2196ZM20.3073 16.2501C19.8931 15.8847 19.2612 15.9243 18.8959 16.3385C18.5305 16.7526 18.5701 17.3846 18.9842 17.7499L20.3073 16.2501ZM13.5 7.5C13.5 9.433 11.933 11 10 11V13C13.0376 13 15.5 10.5376 15.5 7.5H13.5ZM10 11C8.067 11 6.5 9.433 6.5 7.5H4.5C4.5 10.5376 6.96243 13 10 13V11ZM6.5 7.5C6.5 5.567 8.067 4 10 4V2C6.96243 2 4.5 4.46243 4.5 7.5H6.5ZM10 4C11.933 4 13.5 5.567 13.5 7.5H15.5C15.5 4.46243 13.0376 2 10 2V4ZM16.3331 4.89098C16.4736 5.01675 16.6039 5.1537 16.7226 5.30038L18.2774 4.04229C18.0913 3.81236 17.8871 3.59778 17.6669 3.40071L16.3331 4.89098ZM16.7226 5.30038C17.2092 5.90172 17.5 6.66555 17.5 7.5H19.5C19.5 6.19115 19.0416 4.98667 18.2774 4.04229L16.7226 5.30038ZM17.5 7.5C17.5 8.33445 17.2092 9.09828 16.7226 9.69962L18.2774 10.9577C19.0416 10.0133 19.5 8.80885 19.5 7.5H17.5ZM16.7226 9.69962C16.6039 9.8463 16.4736 9.98324 16.3331 10.109L17.6669 11.5993C17.8871 11.4022 18.0913 11.1876 18.2774 10.9577L16.7226 9.69962ZM8 17H12V15H8V17ZM12 17C12.9772 17 13.3198 17.0048 13.5853 17.0576L13.9755 15.0961C13.4681 14.9952 12.8814 15 12 15V17ZM18 21C18 20.1186 18.0048 19.5319 17.9039 19.0245L15.9424 19.4147C15.9952 19.6802 16 20.0228 16 21H18ZM13.5853 17.0576C14.7753 17.2944 15.7056 18.2247 15.9424 19.4147L17.9039 19.0245C17.5094 17.0411 15.9589 15.4906 13.9755 15.0961L13.5853 17.0576ZM8 15C7.11862 15 6.53189 14.9952 6.02455 15.0961L6.41473 17.0576C6.68018 17.0048 7.02276 17 8 17V15ZM4 21C4 20.0228 4.00484 19.6802 4.05764 19.4147L2.09607 19.0245C1.99516 19.5319 2 20.1186 2 21H4ZM6.02455 15.0961C4.0411 15.4906 2.49061 17.0411 2.09607 19.0245L4.05764 19.4147C4.29436 18.2247 5.22466 17.2944 6.41473 17.0576L6.02455 15.0961ZM22 21C22 20.1186 22.0048 19.5319 21.9039 19.0245L19.9424 19.4147C19.9952 19.6802 20 20.0228 20 21H22ZM18.9842 17.7499C19.4676 18.1763 19.8112 18.7556 19.9424 19.4147L21.9039 19.0245C21.6854 17.9258 21.1119 16.9598 20.3073 16.2501L18.9842 17.7499Z" fill="#0B0D12"/>
</svg>
