<svg width="24" height="24" viewBox="0 0 24 24" fill="none" xmlns="http://www.w3.org/2000/svg">
<path d="M11 17C11.5523 17 12 16.5523 12 16C12 15.4477 11.5523 15 11 15V17ZM2 21C2 21.5523 2.44772 22 3 22C3.55228 22 4 21.5523 4 21H2ZM3.07686 19.2196L4.05764 19.4147L3.07686 19.2196ZM6.21964 16.0769L6.41473 17.0576H6.41473L6.21964 16.0769ZM17.6669 3.40062C17.2554 3.03229 16.6232 3.06731 16.2549 3.47884C15.8865 3.89036 15.9216 4.52256 16.3331 4.89089L17.6669 3.40062ZM17.5 4.67124L16.7226 5.30029L17.5 4.67124ZM17.5 10.3286L16.7226 9.69953L17.5 10.3286ZM16.3331 10.1089C15.9216 10.4773 15.8865 11.1095 16.2549 11.521C16.6232 11.9325 17.2554 11.9675 17.6669 11.5992L16.3331 10.1089ZM17 16C17 15.4477 17.4477 15 18 15V13C16.3431 13 15 14.3431 15 16H17ZM18 15C18.5523 15 19 15.4477 19 16H21C21 14.3431 19.6569 13 18 13V15ZM21 18.5V20.5H23V18.5H21ZM20.5 21H15.5V23H20.5V21ZM15 20.5V18.5H13V20.5H15ZM15.5 21C15.2239 21 15 20.7761 15 20.5H13C13 21.8807 14.1193 23 15.5 23V21ZM21 20.5C21 20.7761 20.7761 21 20.5 21V23C21.8807 23 23 21.8807 23 20.5H21ZM20.5 18C20.7761 18 21 18.2239 21 18.5H23C23 17.1193 21.8807 16 20.5 16V18ZM15.5 16C14.1193 16 13 17.1193 13 18.5H15C15 18.2239 15.2239 18 15.5 18V16ZM19.7324 18H20.5V16H19.7324V18ZM19 16C19 16.1838 18.9513 16.3532 18.8668 16.4993L20.598 17.5007C20.8539 17.0584 21 16.5448 21 16H19ZM15.5 18H16.2676V16H15.5V18ZM16.2676 18H19.7324V16H16.2676V18ZM17.1332 16.4993C17.0487 16.3532 17 16.1838 17 16H15C15 16.5448 15.1461 17.0584 15.402 17.5007L17.1332 16.4993ZM13.5 7.5C13.5 9.433 11.933 11 10 11V13C13.0376 13 15.5 10.5376 15.5 7.5H13.5ZM10 11C8.067 11 6.5 9.433 6.5 7.5H4.5C4.5 10.5376 6.96243 13 10 13V11ZM6.5 7.5C6.5 5.567 8.067 4 10 4V2C6.96243 2 4.5 4.46243 4.5 7.5H6.5ZM10 4C11.933 4 13.5 5.567 13.5 7.5H15.5C15.5 4.46243 13.0376 2 10 2V4ZM8 17H11V15H8V17ZM4 21C4 20.0228 4.00484 19.6802 4.05764 19.4147L2.09607 19.0245C1.99516 19.5319 2 20.1186 2 21H4ZM8 15C7.11862 15 6.53189 14.9952 6.02455 15.0961L6.41473 17.0576C6.68018 17.0048 7.02276 17 8 17V15ZM4.05764 19.4147C4.29436 18.2247 5.22466 17.2944 6.41473 17.0576L6.02455 15.0961C4.0411 15.4906 2.49061 17.0411 2.09607 19.0245L4.05764 19.4147ZM16.3331 4.89089C16.4736 5.01667 16.6039 5.15361 16.7226 5.30029L18.2774 4.0422C18.0913 3.81227 17.8871 3.59769 17.6669 3.40062L16.3331 4.89089ZM16.7226 5.30029C17.2092 5.90164 17.5 6.66546 17.5 7.49991H19.5C19.5 6.19107 19.0416 4.98658 18.2774 4.0422L16.7226 5.30029ZM17.5 7.49991C17.5 8.33436 17.2092 9.09819 16.7226 9.69953L18.2774 10.9576C19.0416 10.0132 19.5 8.80876 19.5 7.49991H17.5ZM16.7226 9.69953C16.6039 9.84621 16.4736 9.98316 16.3331 10.1089L17.6669 11.5992C17.8871 11.4021 18.0913 11.1876 18.2774 10.9576L16.7226 9.69953Z" fill="#0B0D12"/>
</svg>
