<svg width="24" height="24" viewBox="0 0 24 24" fill="none" xmlns="http://www.w3.org/2000/svg">
<path d="M19 21C19 20.0707 19 19.606 18.9231 19.2196C18.6075 17.6329 17.3671 16.3925 15.7804 16.0769C15.394 16 14.9293 16 14 16H10C9.07069 16 8.60603 16 8.21964 16.0769C6.63288 16.3925 5.39249 17.6329 5.07686 19.2196C5 19.606 5 20.0707 5 21M16.5 7.5C16.5 9.98528 14.4853 12 12 12C9.51472 12 7.5 9.98528 7.5 7.5C7.5 5.01472 9.51472 3 12 3C14.4853 3 16.5 5.01472 16.5 7.5Z" stroke="#0B0D12" stroke-width="2" stroke-linecap="round" stroke-linejoin="round"/>
</svg>
