<svg width="24" height="24" viewBox="0 0 24 24" fill="none" xmlns="http://www.w3.org/2000/svg">
<path d="M21.7735 16.4511L22.6388 16.9524L21.7735 16.4511ZM19.4233 20.5076L20.2886 21.0089L19.4233 20.5076ZM19.2883 14.7462L20.1536 15.2475V15.2475L19.2883 14.7462ZM16.0729 18.3014C15.7961 18.7793 15.959 19.3911 16.4369 19.668C16.9148 19.9448 17.5266 19.7819 17.8035 19.304L16.0729 18.3014ZM14.453 17.0977L15.3183 17.599L14.453 17.0977ZM16.8851 14.8947C17.1619 14.4168 16.999 13.805 16.5211 13.5281C16.0432 13.2513 15.4314 13.4142 15.1545 13.8921L16.8851 14.8947ZM21.3143 14.2465L20.7486 15.0711L21.3143 14.2465ZM15.3714 21.507L14.8057 22.3316L15.3714 21.507ZM11 17C11.5523 17 12 16.5523 12 16C12 15.4477 11.5523 15 11 15V17ZM2 21C2 21.5523 2.44772 22 3 22C3.55228 22 4 21.5523 4 21H2ZM3.07686 19.2196L4.05764 19.4147L3.07686 19.2196ZM6.21964 16.0769L6.41473 17.0576H6.41473L6.21964 16.0769ZM17.6669 3.40062C17.2554 3.03229 16.6232 3.06731 16.2549 3.47884C15.8865 3.89036 15.9216 4.52256 16.3331 4.89089L17.6669 3.40062ZM17.5 4.67124L16.7226 5.30029L17.5 4.67124ZM17.5 10.3286L16.7226 9.69953L17.5 10.3286ZM16.3331 10.1089C15.9216 10.4773 15.8865 11.1095 16.2549 11.521C16.6232 11.9325 17.2554 11.9675 17.6669 11.5992L16.3331 10.1089ZM20.9082 15.9498L18.5581 20.0063L20.2886 21.0089L22.6388 16.9524L20.9082 15.9498ZM18.4231 14.2449L16.0729 18.3014L17.8035 19.304L20.1536 15.2475L18.4231 14.2449ZM15.3183 17.599L16.8851 14.8947L15.1545 13.8921L13.5878 16.5964L15.3183 17.599ZM21.88 13.4219C20.6821 12.6001 19.1281 13.0279 18.4231 14.2449L20.1536 15.2475C20.2371 15.1034 20.3492 15.0345 20.4457 15.0107C20.5401 14.9874 20.6447 14.9998 20.7486 15.0711L21.88 13.4219ZM15.9371 20.6824C15.0207 20.0537 14.6996 18.667 15.3183 17.599L13.5878 16.5964C12.4759 18.5156 12.9771 21.0771 14.8057 22.3316L15.9371 20.6824ZM18.5581 20.0063C17.9652 21.0296 16.7981 21.273 15.9371 20.6824L14.8057 22.3316C16.6898 23.6242 19.1509 22.9727 20.2886 21.0089L18.5581 20.0063ZM22.6388 16.9524C23.318 15.7801 23.0223 14.2056 21.88 13.4219L20.7486 15.0711C20.9787 15.229 21.0943 15.6286 20.9082 15.9498L22.6388 16.9524ZM13.5 7.5C13.5 9.433 11.933 11 10 11V13C13.0376 13 15.5 10.5376 15.5 7.5H13.5ZM10 11C8.067 11 6.5 9.433 6.5 7.5H4.5C4.5 10.5376 6.96243 13 10 13V11ZM6.5 7.5C6.5 5.567 8.067 4 10 4V2C6.96243 2 4.5 4.46243 4.5 7.5H6.5ZM10 4C11.933 4 13.5 5.567 13.5 7.5H15.5C15.5 4.46243 13.0376 2 10 2V4ZM8 17H11V15H8V17ZM4 21C4 20.0228 4.00484 19.6802 4.05764 19.4147L2.09607 19.0245C1.99516 19.5319 2 20.1186 2 21H4ZM8 15C7.11862 15 6.53189 14.9952 6.02455 15.0961L6.41473 17.0576C6.68018 17.0048 7.02276 17 8 17V15ZM4.05764 19.4147C4.29436 18.2247 5.22466 17.2944 6.41473 17.0576L6.02455 15.0961C4.0411 15.4906 2.49061 17.0411 2.09607 19.0245L4.05764 19.4147ZM16.3331 4.89089C16.4736 5.01667 16.6039 5.15361 16.7226 5.30029L18.2774 4.0422C18.0913 3.81227 17.8871 3.59769 17.6669 3.40062L16.3331 4.89089ZM16.7226 5.30029C17.2092 5.90164 17.5 6.66546 17.5 7.49991H19.5C19.5 6.19107 19.0416 4.98658 18.2774 4.0422L16.7226 5.30029ZM17.5 7.49991C17.5 8.33436 17.2092 9.09819 16.7226 9.69953L18.2774 10.9576C19.0416 10.0132 19.5 8.80876 19.5 7.49991H17.5ZM16.7226 9.69953C16.6039 9.84621 16.4736 9.98316 16.3331 10.1089L17.6669 11.5992C17.8871 11.4021 18.0913 11.1876 18.2774 10.9576L16.7226 9.69953Z" fill="#0B0D12"/>
</svg>
