<svg width="24" height="24" viewBox="0 0 24 24" fill="none" xmlns="http://www.w3.org/2000/svg">
<path d="M11 17C11.5523 17 12 16.5523 12 16C12 15.4477 11.5523 15 11 15V17ZM4 21C4 21.5523 4.44772 22 5 22C5.55228 22 6 21.5523 6 21H4ZM5.07686 19.2196L6.05764 19.4147L5.07686 19.2196ZM8.21964 16.0769L8.41473 17.0576H8.41473L8.21964 16.0769ZM21 18C21 19.6569 19.6569 21 18 21V23C20.7614 23 23 20.7614 23 18H21ZM18 21C16.3431 21 15 19.6569 15 18H13C13 20.7614 15.2386 23 18 23V21ZM18 15C19.6569 15 21 16.3431 21 18H23C23 15.2386 20.7614 13 18 13V15ZM15 18C15 17.1713 15.3347 16.4227 15.8787 15.8787L14.4645 14.4645C13.5607 15.3682 13 16.6196 13 18H15ZM15.8787 15.8787C16.4227 15.3347 17.1713 15 18 15V13C16.6196 13 15.3682 13.5607 14.4645 14.4645L15.8787 15.8787ZM21.5355 20.1213L15.8787 14.4645L14.4645 15.8787L20.1213 21.5355L21.5355 20.1213ZM15.5 7.5C15.5 9.433 13.933 11 12 11V13C15.0376 13 17.5 10.5376 17.5 7.5H15.5ZM12 11C10.067 11 8.5 9.433 8.5 7.5H6.5C6.5 10.5376 8.96243 13 12 13V11ZM8.5 7.5C8.5 5.567 10.067 4 12 4V2C8.96243 2 6.5 4.46243 6.5 7.5H8.5ZM12 4C13.933 4 15.5 5.567 15.5 7.5H17.5C17.5 4.46243 15.0376 2 12 2V4ZM10 17H11V15H10V17ZM6 21C6 20.0228 6.00484 19.6802 6.05764 19.4147L4.09607 19.0245C3.99516 19.5319 4 20.1186 4 21H6ZM10 15C9.11862 15 8.53189 14.9952 8.02455 15.0961L8.41473 17.0576C8.68018 17.0048 9.02276 17 10 17V15ZM6.05764 19.4147C6.29436 18.2247 7.22466 17.2944 8.41473 17.0576L8.02455 15.0961C6.0411 15.4906 4.49061 17.0411 4.09607 19.0245L6.05764 19.4147Z" fill="#0B0D12"/>
</svg>
