<svg width="24" height="24" viewBox="0 0 24 24" fill="none" xmlns="http://www.w3.org/2000/svg">
<path d="M15 17C14.4477 17 14 17.4477 14 18C14 18.5523 14.4477 19 15 19V17ZM21 19C21.5523 19 22 18.5523 22 18C22 17.4477 21.5523 17 21 17V19ZM11 17C11.5523 17 12 16.5523 12 16C12 15.4477 11.5523 15 11 15V17ZM2 21C2 21.5523 2.44772 22 3 22C3.55228 22 4 21.5523 4 21H2ZM3.07686 19.2196L4.05764 19.4147L3.07686 19.2196ZM6.21964 16.0769L6.41473 17.0576H6.41473L6.21964 16.0769ZM17.6669 3.40062C17.2554 3.03229 16.6232 3.06731 16.2549 3.47884C15.8865 3.89036 15.9216 4.52256 16.3331 4.89089L17.6669 3.40062ZM17.5 4.67124L16.7226 5.30029L17.5 4.67124ZM17.5 10.3286L16.7226 9.69953L17.5 10.3286ZM16.3331 10.1089C15.9216 10.4773 15.8865 11.1095 16.2549 11.521C16.6232 11.9325 17.2554 11.9675 17.6669 11.5992L16.3331 10.1089ZM13.5 7.5C13.5 9.433 11.933 11 10 11V13C13.0376 13 15.5 10.5376 15.5 7.5H13.5ZM10 11C8.067 11 6.5 9.433 6.5 7.5H4.5C4.5 10.5376 6.96243 13 10 13V11ZM6.5 7.5C6.5 5.567 8.067 4 10 4V2C6.96243 2 4.5 4.46243 4.5 7.5H6.5ZM10 4C11.933 4 13.5 5.567 13.5 7.5H15.5C15.5 4.46243 13.0376 2 10 2V4ZM8 17H11V15H8V17ZM4 21C4 20.0228 4.00484 19.6802 4.05764 19.4147L2.09607 19.0245C1.99516 19.5319 2 20.1186 2 21H4ZM8 15C7.11862 15 6.53189 14.9952 6.02455 15.0961L6.41473 17.0576C6.68018 17.0048 7.02276 17 8 17V15ZM4.05764 19.4147C4.29436 18.2247 5.22466 17.2944 6.41473 17.0576L6.02455 15.0961C4.0411 15.4906 2.49061 17.0411 2.09607 19.0245L4.05764 19.4147ZM16.3331 4.89089C16.4736 5.01667 16.6039 5.15361 16.7226 5.30029L18.2774 4.0422C18.0913 3.81227 17.8871 3.59769 17.6669 3.40062L16.3331 4.89089ZM16.7226 5.30029C17.2092 5.90164 17.5 6.66546 17.5 7.49991H19.5C19.5 6.19107 19.0416 4.98658 18.2774 4.0422L16.7226 5.30029ZM17.5 7.49991C17.5 8.33436 17.2092 9.09819 16.7226 9.69953L18.2774 10.9576C19.0416 10.0132 19.5 8.80876 19.5 7.49991H17.5ZM16.7226 9.69953C16.6039 9.84621 16.4736 9.98316 16.3331 10.1089L17.6669 11.5992C17.8871 11.4021 18.0913 11.1876 18.2774 10.9576L16.7226 9.69953ZM15 19H21V17H15V19Z" fill="#0B0D12"/>
</svg>
