<svg width="24" height="24" viewBox="0 0 24 24" fill="none" xmlns="http://www.w3.org/2000/svg">
<path d="M21.7735 16.4511L22.6388 16.9524L21.7735 16.4511ZM19.4233 20.5076L20.2886 21.0089H20.2886L19.4233 20.5076ZM19.2883 14.7462L20.1536 15.2475L20.1536 15.2475L19.2883 14.7462ZM16.0729 18.3014C15.7961 18.7793 15.959 19.3911 16.4369 19.668C16.9148 19.9448 17.5266 19.7819 17.8035 19.304L16.0729 18.3014ZM14.453 17.0977L15.3183 17.599L14.453 17.0977ZM16.8851 14.8947C17.1619 14.4168 16.999 13.805 16.5211 13.5281C16.0432 13.2513 15.4314 13.4142 15.1545 13.8921L16.8851 14.8947ZM21.3143 14.2465L20.7486 15.0711L21.3143 14.2465ZM15.3714 21.507L14.8057 22.3316L15.3714 21.507ZM11 17C11.5523 17 12 16.5523 12 16C12 15.4477 11.5523 15 11 15V17ZM4 21C4 21.5523 4.44772 22 5 22C5.55228 22 6 21.5523 6 21H4ZM5.07686 19.2196L6.05764 19.4147L5.07686 19.2196ZM8.21964 16.0769L8.41473 17.0576H8.41473L8.21964 16.0769ZM20.9082 15.9498L18.5581 20.0063L20.2886 21.0089L22.6388 16.9524L20.9082 15.9498ZM18.4231 14.2449L16.0729 18.3014L17.8035 19.304L20.1536 15.2475L18.4231 14.2449ZM15.3183 17.599L16.8851 14.8947L15.1545 13.8921L13.5878 16.5964L15.3183 17.599ZM21.88 13.4219C20.6821 12.6001 19.1281 13.0279 18.4231 14.2449L20.1536 15.2475C20.2371 15.1034 20.3492 15.0345 20.4457 15.0107C20.5401 14.9874 20.6447 14.9998 20.7486 15.0711L21.88 13.4219ZM15.9371 20.6824C15.0207 20.0537 14.6996 18.667 15.3183 17.599L13.5878 16.5964C12.4759 18.5156 12.9771 21.0771 14.8057 22.3316L15.9371 20.6824ZM18.5581 20.0063C17.9652 21.0296 16.7981 21.273 15.9371 20.6824L14.8057 22.3316C16.6898 23.6242 19.1509 22.9727 20.2886 21.0089L18.5581 20.0063ZM22.6388 16.9524C23.318 15.7801 23.0223 14.2056 21.88 13.4219L20.7486 15.0711C20.9787 15.229 21.0943 15.6286 20.9082 15.9498L22.6388 16.9524ZM15.5 7.5C15.5 9.433 13.933 11 12 11V13C15.0376 13 17.5 10.5376 17.5 7.5H15.5ZM12 11C10.067 11 8.5 9.433 8.5 7.5H6.5C6.5 10.5376 8.96243 13 12 13V11ZM8.5 7.5C8.5 5.567 10.067 4 12 4V2C8.96243 2 6.5 4.46243 6.5 7.5H8.5ZM12 4C13.933 4 15.5 5.567 15.5 7.5H17.5C17.5 4.46243 15.0376 2 12 2V4ZM10 17H11V15H10V17ZM6 21C6 20.0228 6.00484 19.6802 6.05764 19.4147L4.09607 19.0245C3.99516 19.5319 4 20.1186 4 21H6ZM10 15C9.11862 15 8.53189 14.9952 8.02455 15.0961L8.41473 17.0576C8.68018 17.0048 9.02276 17 10 17V15ZM6.05764 19.4147C6.29436 18.2247 7.22466 17.2944 8.41473 17.0576L8.02455 15.0961C6.0411 15.4906 4.49061 17.0411 4.09607 19.0245L6.05764 19.4147Z" fill="#0B0D12"/>
</svg>
