<svg width="24" height="24" viewBox="0 0 24 24" fill="none" xmlns="http://www.w3.org/2000/svg">
<path d="M19 21.9893C19 21.4371 18.5523 20.9893 18 20.9893C17.4477 20.9893 17 21.4371 17 21.9893H19ZM17 22C17 22.5523 17.4477 23 18 23C18.5523 23 19 22.5523 19 22H17ZM18 18.261V17.261C17.4477 17.261 17 17.7087 17 18.261H18ZM15 16.1305C15 16.6828 15.4477 17.1305 16 17.1305C16.5523 17.1305 17 16.6828 17 16.1305H15ZM16.2676 15.0652L15.3888 14.588L16.2676 15.0652ZM17 18.7936C17 19.3459 17.4477 19.7936 18 19.7936C18.5523 19.7936 19 19.3459 19 18.7936H17ZM12 17C12.5523 17 13 16.5523 13 16C13 15.4477 12.5523 15 12 15V17ZM4 21C4 21.5523 4.44772 22 5 22C5.55228 22 6 21.5523 6 21H4ZM5.07686 19.2196L6.05764 19.4147L5.07686 19.2196ZM8.21964 16.0769L8.41473 17.0576H8.41473L8.21964 16.0769ZM17 21.9893V22H19V21.9893H17ZM19 16.1305C19 16.8153 18.4937 17.261 18 17.261V19.261C19.7155 19.261 21 17.7989 21 16.1305H19ZM18 15C18.4937 15 19 15.4457 19 16.1305H21C21 14.4621 19.7155 13 18 13V15ZM17 16.1305C17 15.9109 17.0549 15.7109 17.1464 15.5425L15.3888 14.588C15.1399 15.0463 15 15.574 15 16.1305H17ZM17.1464 15.5425C17.3354 15.1944 17.6629 15 18 15V13C16.8566 13 15.8914 13.6625 15.3888 14.588L17.1464 15.5425ZM17 18.261V18.7936H19V18.261H17ZM15.5 7.5C15.5 9.433 13.933 11 12 11V13C15.0376 13 17.5 10.5376 17.5 7.5H15.5ZM12 11C10.067 11 8.5 9.433 8.5 7.5H6.5C6.5 10.5376 8.96243 13 12 13V11ZM8.5 7.5C8.5 5.567 10.067 4 12 4V2C8.96243 2 6.5 4.46243 6.5 7.5H8.5ZM12 4C13.933 4 15.5 5.567 15.5 7.5H17.5C17.5 4.46243 15.0376 2 12 2V4ZM10 17H12V15H10V17ZM6 21C6 20.0228 6.00484 19.6802 6.05764 19.4147L4.09607 19.0245C3.99516 19.5319 4 20.1186 4 21H6ZM10 15C9.11862 15 8.53189 14.9952 8.02455 15.0961L8.41473 17.0576C8.68018 17.0048 9.02276 17 10 17V15ZM6.05764 19.4147C6.29436 18.2247 7.22466 17.2944 8.41473 17.0576L8.02455 15.0961C6.0411 15.4906 4.49061 17.0411 4.09607 19.0245L6.05764 19.4147Z" fill="#0B0D12"/>
</svg>
