<svg width="24" height="24" viewBox="0 0 24 24" fill="none" xmlns="http://www.w3.org/2000/svg">
<path d="M22.7071 16.7071C23.0976 16.3166 23.0976 15.6834 22.7071 15.2929C22.3166 14.9024 21.6834 14.9024 21.2929 15.2929L22.7071 16.7071ZM18.4142 19.5858L19.1213 20.2929L18.4142 19.5858ZM15.5858 19.5858L16.2929 18.8787L15.5858 19.5858ZM14.7071 17.2929C14.3166 16.9024 13.6834 16.9024 13.2929 17.2929C12.9024 17.6834 12.9024 18.3166 13.2929 18.7071L14.7071 17.2929ZM4 21C4 21.5523 4.44772 22 5 22C5.55228 22 6 21.5523 6 21H4ZM5.07686 19.2196L6.05764 19.4147L5.07686 19.2196ZM10 17C10.5523 17 11 16.5523 11 16C11 15.4477 10.5523 15 10 15V17ZM8.21964 16.0769L8.41473 17.0576H8.41473L8.21964 16.0769ZM21.2929 15.2929L17.7071 18.8787L19.1213 20.2929L22.7071 16.7071L21.2929 15.2929ZM16.2929 18.8787L14.7071 17.2929L13.2929 18.7071L14.8787 20.2929L16.2929 18.8787ZM17.7071 18.8787C17.3538 19.232 17.1584 19.4244 17.0059 19.5408C16.8764 19.6396 16.9005 19.5858 17 19.5858V21.5858C17.5137 21.5858 17.9116 21.3653 18.219 21.1308C18.5033 20.9139 18.808 20.6062 19.1213 20.2929L17.7071 18.8787ZM14.8787 20.2929C15.192 20.6062 15.4967 20.9139 15.781 21.1308C16.0884 21.3653 16.4863 21.5858 17 21.5858V19.5858C17.0995 19.5858 17.1236 19.6396 16.9941 19.5408C16.8416 19.4244 16.6462 19.232 16.2929 18.8787L14.8787 20.2929ZM15.5 7.5C15.5 9.433 13.933 11 12 11V13C15.0376 13 17.5 10.5376 17.5 7.5H15.5ZM12 11C10.067 11 8.5 9.433 8.5 7.5H6.5C6.5 10.5376 8.96243 13 12 13V11ZM8.5 7.5C8.5 5.567 10.067 4 12 4V2C8.96243 2 6.5 4.46243 6.5 7.5H8.5ZM12 4C13.933 4 15.5 5.567 15.5 7.5H17.5C17.5 4.46243 15.0376 2 12 2V4ZM6 21C6 20.0228 6.00484 19.6802 6.05764 19.4147L4.09607 19.0245C3.99516 19.5319 4 20.1186 4 21H6ZM10 15C9.11862 15 8.53189 14.9952 8.02455 15.0961L8.41473 17.0576C8.68018 17.0048 9.02276 17 10 17V15ZM6.05764 19.4147C6.29436 18.2247 7.22466 17.2944 8.41473 17.0576L8.02455 15.0961C6.0411 15.4906 4.49061 17.0411 4.09607 19.0245L6.05764 19.4147Z" fill="#0B0D12"/>
</svg>
