<svg width="24" height="24" viewBox="0 0 24 24" fill="none" xmlns="http://www.w3.org/2000/svg">
<path d="M2.29289 20.2929C1.90237 20.6834 1.90237 21.3166 2.29289 21.7071C2.68342 22.0976 3.31658 22.0976 3.70711 21.7071L2.29289 20.2929ZM19.7071 5.70711C20.0976 5.31658 20.0976 4.68342 19.7071 4.29289C19.3166 3.90237 18.6834 3.90237 18.2929 4.29289L19.7071 5.70711ZM14 6L14.7071 6.70711L14 6ZM17.7071 3.70711C18.0976 3.31658 18.0976 2.68342 17.7071 2.29289C17.3166 1.90237 16.6834 1.90237 16.2929 2.29289L17.7071 3.70711ZM18 10L17.2929 9.29289V9.29289L18 10ZM21.7071 7.70711C22.0976 7.31658 22.0976 6.68342 21.7071 6.29289C21.3166 5.90237 20.6834 5.90237 20.2929 6.29289L21.7071 7.70711ZM15.112 10.9636L14.668 11.8596L14.668 11.8596L15.112 10.9636ZM16.888 10.9636L17.332 11.8596L17.332 11.8596L16.888 10.9636ZM13.0364 8.88803L12.1404 9.33205V9.33205L13.0364 8.88803ZM13.0364 7.11197L12.1404 6.66795V6.66795L13.0364 7.11197ZM5.20051 12.6021C5.53225 13.0437 6.15913 13.1327 6.60067 12.801C7.04222 12.4692 7.13124 11.8423 6.79949 11.4008L5.20051 12.6021ZM3.12254 4.92629L2.13065 5.05344L3.12254 4.92629ZM13.3332 16.2036C12.8125 16.0196 12.2412 16.2925 12.0572 16.8132C11.8731 17.3339 12.146 17.9053 12.6668 18.0893L13.3332 16.2036ZM8.29289 9.70711C8.68342 10.0976 9.31658 10.0976 9.70711 9.70711C10.0976 9.31658 10.0976 8.68342 9.70711 8.29289L8.29289 9.70711ZM20.2929 21.7071C20.6834 22.0976 21.3166 22.0976 21.7071 21.7071C22.0976 21.3166 22.0976 20.6834 21.7071 20.2929L20.2929 21.7071ZM15.7071 14.2929C15.3166 13.9024 14.6834 13.9024 14.2929 14.2929C13.9024 14.6834 13.9024 15.3166 14.2929 15.7071L15.7071 14.2929ZM3.55963 3.74701L3.51935 4.74619L3.55963 3.74701ZM3.13186 3.95706L3.94713 4.53614L3.94713 4.53614L3.13186 3.95706ZM3.70711 21.7071L14.7071 10.7071L13.2929 9.29289L2.29289 20.2929L3.70711 21.7071ZM14.7071 10.7071L19.7071 5.70711L18.2929 4.29289L13.2929 9.29289L14.7071 10.7071ZM14.7071 6.70711L17.7071 3.70711L16.2929 2.29289L13.2929 5.29289L14.7071 6.70711ZM18.7071 10.7071L21.7071 7.70711L20.2929 6.29289L17.2929 9.29289L18.7071 10.7071ZM13.2929 10.7071C13.7811 11.1953 14.1897 11.6227 14.668 11.8596L15.556 10.0676C15.446 10.0131 15.3094 9.89523 14.7071 9.29289L13.2929 10.7071ZM17.2929 9.29289C16.6906 9.89523 16.554 10.0131 16.444 10.0676L17.332 11.8596C17.8103 11.6227 18.2189 11.1953 18.7071 10.7071L17.2929 9.29289ZM14.668 11.8596C15.5073 12.2756 16.4927 12.2756 17.332 11.8596L16.444 10.0676C16.1642 10.2062 15.8358 10.2062 15.556 10.0676L14.668 11.8596ZM14.7071 9.29289C14.1048 8.69055 13.9869 8.554 13.9324 8.44402L12.1404 9.33205C12.3773 9.81025 12.8047 10.2189 13.2929 10.7071L14.7071 9.29289ZM13.2929 5.29289C12.8047 5.78105 12.3773 6.18975 12.1404 6.66795L13.9324 7.55598C13.9869 7.446 14.1048 7.30945 14.7071 6.70711L13.2929 5.29289ZM13.9324 8.44402C13.7938 8.16424 13.7938 7.83576 13.9324 7.55598L12.1404 6.66795C11.7244 7.50728 11.7244 8.49272 12.1404 9.33205L13.9324 8.44402ZM6.79949 11.4008C5.38083 9.51256 4.4293 7.25538 4.11442 4.79913L2.13065 5.05344C2.49086 7.8632 3.57974 10.4449 5.20051 12.6021L6.79949 11.4008ZM18 17C16.3619 17 14.7916 16.7191 13.3332 16.2036L12.6668 18.0893C14.3362 18.6794 16.1317 19 18 19V17ZM21.7071 20.2929L18.7071 17.2929L17.2929 18.7071L20.2929 21.7071L21.7071 20.2929ZM18.7071 17.2929L15.7071 14.2929L14.2929 15.7071L17.2929 18.7071L18.7071 17.2929ZM5.07279 3.65858C4.88512 3.47091 4.69002 3.27402 4.51466 3.13121C4.35063 2.99762 4.03599 2.7654 3.59991 2.74782L3.51935 4.74619C3.39517 4.74119 3.30529 4.70515 3.26207 4.68346C3.22515 4.66493 3.21854 4.65499 3.25169 4.68198C3.28313 4.70759 3.32984 4.74938 3.4017 4.81859C3.47294 4.88721 3.5548 4.96901 3.65858 5.07279L5.07279 3.65858ZM4.11442 4.79913C4.09674 4.66122 4.08301 4.55383 4.07309 4.46201C4.06308 4.36938 4.05931 4.31326 4.0586 4.27853C4.05786 4.2422 4.06135 4.258 4.0523 4.30186C4.04168 4.35331 4.01415 4.44179 3.94713 4.53614L2.31659 3.37797C2.06971 3.72555 2.05459 4.10252 2.05902 4.31933C2.06353 4.54077 2.09902 4.80672 2.13065 5.05344L4.11442 4.79913ZM3.59991 2.74782C3.10212 2.72775 2.60509 2.97181 2.31659 3.37797L3.94713 4.53614C3.88478 4.62391 3.81502 4.67193 3.7613 4.69831C3.70758 4.72468 3.62692 4.75053 3.51935 4.74619L3.59991 2.74782ZM9.70711 8.29289L5.07279 3.65858L3.65858 5.07279L8.29289 9.70711L9.70711 8.29289Z" fill="#0B0D12"/>
</svg>
