<svg width="24" height="24" viewBox="0 0 24 24" fill="none" xmlns="http://www.w3.org/2000/svg">
<path d="M7 21C7 21.5523 7.44772 22 8 22C8.55228 22 9 21.5523 9 21H7ZM9 3C9 2.44772 8.55228 2 8 2C7.44772 2 7 2.44772 7 3H9ZM13 3C13 2.44772 12.5523 2 12 2C11.4477 2 11 2.44772 11 3H13ZM5 3C5 2.44772 4.55228 2 4 2C3.44772 2 3 2.44772 3 3H5ZM5.09202 10.782L5.54601 9.89101H5.54601L5.09202 10.782ZM4.21799 9.90798L5.10899 9.45399L5.10899 9.45399L4.21799 9.90798ZM11.782 9.90798L10.891 9.45399V9.45399L11.782 9.90798ZM10.908 10.782L10.454 9.89101L10.908 10.782ZM15 20.9966C15 21.5489 15.4477 21.9966 16 21.9966C16.5523 21.9966 17 21.5489 17 20.9966H15ZM16 3L16.4767 2.12095C16.1669 1.9529 15.7914 1.96041 15.4885 2.14072C15.1856 2.32103 15 2.6475 15 3H16ZM11 3V7.8H13V3H11ZM5 7.8V3H3V7.8H5ZM7.2 10C6.62345 10 6.25117 9.99922 5.96784 9.97607C5.69617 9.95388 5.59545 9.9162 5.54601 9.89101L4.63803 11.673C5.01641 11.8658 5.40963 11.9371 5.80497 11.9694C6.18864 12.0008 6.65645 12 7.2 12V10ZM3 7.8C3 8.34355 2.99922 8.81136 3.03057 9.19503C3.06287 9.59037 3.13419 9.98359 3.32698 10.362L5.10899 9.45399C5.0838 9.40455 5.04612 9.30383 5.02393 9.03216C5.00078 8.74883 5 8.37655 5 7.8H3ZM5.54601 9.89101C5.35785 9.79513 5.20487 9.64215 5.10899 9.45399L3.32698 10.362C3.6146 10.9265 4.07354 11.3854 4.63803 11.673L5.54601 9.89101ZM11 7.8C11 8.37655 10.9992 8.74883 10.9761 9.03216C10.9539 9.30383 10.9162 9.40455 10.891 9.45399L12.673 10.362C12.8658 9.98359 12.9371 9.59037 12.9694 9.19503C13.0008 8.81136 13 8.34355 13 7.8H11ZM8.8 12C9.34355 12 9.81136 12.0008 10.195 11.9694C10.5904 11.9371 10.9836 11.8658 11.362 11.673L10.454 9.89101C10.4045 9.9162 10.3038 9.95388 10.0322 9.97607C9.74883 9.99922 9.37655 10 8.8 10V12ZM10.891 9.45399C10.7951 9.64215 10.6422 9.79513 10.454 9.89101L11.362 11.673C11.9265 11.3854 12.3854 10.9265 12.673 10.362L10.891 9.45399ZM19 9.49663C19 11.8689 17.6259 13.9739 15.5233 15.1142L16.4767 16.8723C19.1565 15.4191 21 12.6765 21 9.49663H19ZM17 20.9966V15.9933H15V20.9966H17ZM15.5233 3.87905C17.6259 5.01936 19 7.12441 19 9.49663H21C21 6.31674 19.1565 3.57421 16.4767 2.12095L15.5233 3.87905ZM17 15.9933V3H15V15.9933H17ZM8.8 10H8V12H8.8V10ZM8 10H7.2V12H8V10ZM9 21V11H7V21H9ZM9 11V3H7V11H9Z" fill="#0B0D12"/>
</svg>
