<svg width="24" height="24" viewBox="0 0 24 24" fill="none" xmlns="http://www.w3.org/2000/svg">
<path d="M14 5.28988V4.6C14 4.03995 14 3.75992 13.891 3.54601C13.7951 3.35785 13.6422 3.20487 13.454 3.10899C13.2401 3 12.9601 3 12.4 3H11.6C11.0399 3 10.7599 3 10.546 3.10899C10.3578 3.20487 10.2049 3.35785 10.109 3.54601C10 3.75992 10 4.03995 10 4.6V5.28988M14 5.28988V5.4C14 5.96005 14 6.24008 13.891 6.45399C13.7951 6.64215 13.6422 6.79513 13.454 6.89101C13.2401 7 12.9601 7 12.4 7H11.6C11.0399 7 10.7599 7 10.546 6.89101C10.3578 6.79513 10.2049 6.64215 10.109 6.45399C10 6.24008 10 5.96005 10 5.4V5.28988M14 5.28988C16.2578 5.96183 18.0382 7.74222 18.7101 10M10 5.28988C7.74222 5.96183 5.96183 7.74222 5.28988 10M18.7101 10H18.6C18.0399 10 17.7599 10 17.546 10.109C17.3578 10.2049 17.2049 10.3578 17.109 10.546C17 10.7599 17 11.0399 17 11.6V12.4C17 12.9601 17 13.2401 17.109 13.454C17.2049 13.6422 17.3578 13.7951 17.546 13.891C17.7599 14 18.0399 14 18.6 14H18.7101M18.7101 10H19.4C19.9601 10 20.2401 10 20.454 10.109C20.6422 10.2049 20.7951 10.3578 20.891 10.546C21 10.7599 21 11.0399 21 11.6V12.4C21 12.9601 21 13.2401 20.891 13.454C20.7951 13.6422 20.6422 13.7951 20.454 13.891C20.2401 14 19.9601 14 19.4 14H18.7101M18.7101 14C18.0382 16.2578 16.2578 18.0382 14 18.7101M14 18.7101V18.6C14 18.0399 14 17.7599 13.891 17.546C13.7951 17.3578 13.6422 17.2049 13.454 17.109C13.2401 17 12.9601 17 12.4 17H11.6C11.0399 17 10.7599 17 10.546 17.109C10.3578 17.2049 10.2049 17.3578 10.109 17.546C10 17.7599 10 18.0399 10 18.6V18.7101M14 18.7101V19.4C14 19.9601 14 20.2401 13.891 20.454C13.7951 20.6422 13.6422 20.7951 13.454 20.891C13.2401 21 12.9601 21 12.4 21H11.6C11.0399 21 10.7599 21 10.546 20.891C10.3578 20.7951 10.2049 20.6422 10.109 20.454C10 20.2401 10 19.9601 10 19.4V18.7101M10 18.7101C7.74222 18.0382 5.96183 16.2578 5.28988 14M5.28988 14H5.4C5.96005 14 6.24008 14 6.45399 13.891C6.64215 13.7951 6.79513 13.6422 6.89101 13.454C7 13.2401 7 12.9601 7 12.4V11.6C7 11.0399 7 10.7599 6.89101 10.546C6.79513 10.3578 6.64215 10.2049 6.45399 10.109C6.24008 10 5.96005 10 5.4 10H5.28988M5.28988 14H4.6C4.03995 14 3.75992 14 3.54601 13.891C3.35785 13.7951 3.20487 13.6422 3.10899 13.454C3 13.2401 3 12.9601 3 12.4L3 11.6C3 11.0399 3 10.7599 3.10899 10.546C3.20487 10.3578 3.35785 10.2049 3.54601 10.109C3.75992 10 4.03995 10 4.6 10H5.28988" stroke="#0B0D12" stroke-width="2" stroke-linecap="round" stroke-linejoin="round"/>
</svg>
