<svg width="24" height="24" viewBox="0 0 24 24" fill="none" xmlns="http://www.w3.org/2000/svg">
<path d="M17.546 19.891L18 19L17.546 19.891ZM17.109 19.454L18 19L17.109 19.454ZM20.891 19.454L20 19L20.891 19.454ZM20.454 19.891L20 19L20.454 19.891ZM20.454 16.109L20 17L20.454 16.109ZM20.891 16.546L20 17L20.891 16.546ZM17.546 16.109L18 17L17.546 16.109ZM17.109 16.546L18 17L17.109 16.546ZM3 18.6H2H3ZM3.10899 17.546L4 18L3.10899 17.546ZM4.6 17V18V17ZM3.54601 17.109L3.09202 16.218L3.54601 17.109ZM4.6 21V22V21ZM3.54601 20.891L4 20L3.54601 20.891ZM3 19.4H4H3ZM3.10899 20.454L2.21799 20.908L3.10899 20.454ZM7 19.4H8H7ZM6.89101 20.454L6 20L6.89101 20.454ZM5.4 21V20V21ZM6.45399 20.891L6.90798 21.782L6.45399 20.891ZM7 18.6H6H7ZM6.89101 17.546L7.78201 17.092L6.89101 17.546ZM5.4 17V16V17ZM6.45399 17.109L6 18L6.45399 17.109ZM10.8162 4.05132C10.2923 3.87667 9.72596 4.15983 9.55132 4.68377C9.37667 5.20772 9.65983 5.77404 10.1838 5.94868L10.8162 4.05132ZM13.1838 6.94868C13.7077 7.12333 14.274 6.84017 14.4487 6.31623C14.6233 5.79228 14.3402 5.22596 13.8162 5.05132L13.1838 6.94868ZM10.1838 18.0513C9.65983 18.226 9.37667 18.7923 9.55132 19.3162C9.72596 19.8402 10.2923 20.1233 10.8162 19.9487L10.1838 18.0513ZM13.8162 18.9487C14.3402 18.774 14.6233 18.2077 14.4487 17.6838C14.274 17.1598 13.7077 16.8767 13.1838 17.0513L13.8162 18.9487ZM6 10.5C6 9.94772 5.55228 9.5 5 9.5C4.44772 9.5 4 9.94772 4 10.5H6ZM4 13.5C4 14.0523 4.44772 14.5 5 14.5C5.55228 14.5 6 14.0523 6 13.5H4ZM20 11.5C20 10.9477 19.5523 10.5 19 10.5C18.4477 10.5 18 10.9477 18 11.5H20ZM18 12.5C18 13.0523 18.4477 13.5 19 13.5C19.5523 13.5 20 13.0523 20 12.5H18ZM3.54601 6.89101L4 6L3.54601 6.89101ZM3.10899 6.45399L4 6L3.10899 6.45399ZM6.89101 6.45399L6 6L6.89101 6.45399ZM6.45399 6.89101L6 6L6.45399 6.89101ZM6.45399 3.10899L6 4L6.45399 3.10899ZM6.89101 3.54601L6 4L6.89101 3.54601ZM3.54601 3.10899L4 4L3.54601 3.10899ZM3.10899 3.54601L4 4L3.10899 3.54601ZM17 5.6H16H17ZM17.109 4.54601L18 5L17.109 4.54601ZM18.6 4V3V4ZM17.546 4.10899L17.092 3.21799L17.546 4.10899ZM18.6 8V9V8ZM17.546 7.89101L18 7L17.546 7.89101ZM17 6.4H18H17ZM17.109 7.45399L16.218 7.90798L17.109 7.45399ZM21 6.4H22H21ZM20.891 7.45399L20 7L20.891 7.45399ZM19.4 8V7V8ZM20.454 7.89101L20.908 8.78201L20.454 7.89101ZM21 5.6H20H21ZM20.891 4.54601L21.782 4.09202L20.891 4.54601ZM19.4 4V5V4ZM20.454 4.10899L20 5L20.454 4.10899ZM18.6 17H19.4V15H18.6V17ZM20 17.6V18.4H22V17.6H20ZM19.4 19H18.6V21H19.4V19ZM18 18.4V17.6H16V18.4H18ZM18.6 19C18.3035 19 18.1412 18.9992 18.0246 18.9897C17.9197 18.9811 17.9425 18.9707 18 19L17.092 20.782C17.3634 20.9203 17.6332 20.9644 17.8618 20.9831C18.0787 21.0008 18.3365 21 18.6 21V19ZM16 18.4C16 18.6635 15.9992 18.9213 16.0169 19.1382C16.0356 19.3668 16.0797 19.6366 16.218 19.908L18 19C18.0293 19.0575 18.0189 19.0803 18.0103 18.9754C18.0008 18.8588 18 18.6965 18 18.4H16ZM18 19H18L16.218 19.908C16.4097 20.2843 16.7157 20.5903 17.092 20.782L18 19ZM20 18.4C20 18.6965 19.9992 18.8588 19.9897 18.9754C19.9811 19.0803 19.9707 19.0575 20 19L21.782 19.908C21.9203 19.6366 21.9644 19.3668 21.9831 19.1382C22.0008 18.9213 22 18.6635 22 18.4H20ZM19.4 21C19.6635 21 19.9213 21.0008 20.1382 20.9831C20.3668 20.9644 20.6366 20.9203 20.908 20.782L20 19C20.0575 18.9707 20.0803 18.9811 19.9754 18.9897C19.8588 18.9992 19.6965 19 19.4 19V21ZM20 19L20.908 20.782C21.2843 20.5903 21.5903 20.2843 21.782 19.908L20 19ZM19.4 17C19.6965 17 19.8588 17.0008 19.9754 17.0103C20.0803 17.0189 20.0575 17.0293 20 17L20.908 15.218C20.6366 15.0797 20.3668 15.0356 20.1382 15.0169C19.9213 14.9992 19.6635 15 19.4 15V17ZM22 17.6C22 17.3365 22.0008 17.0787 21.9831 16.8618C21.9644 16.6332 21.9203 16.3634 21.782 16.092L20 17C19.9707 16.9425 19.9811 16.9197 19.9897 17.0246C19.9992 17.1412 20 17.3035 20 17.6H22ZM20 17L21.782 16.092C21.5903 15.7157 21.2843 15.4097 20.908 15.218L20 17ZM18.6 15C18.3365 15 18.0787 14.9992 17.8618 15.0169C17.6332 15.0356 17.3634 15.0797 17.092 15.218L18 17C17.9425 17.0293 17.9197 17.0189 18.0246 17.0103C18.1412 17.0008 18.3035 17 18.6 17V15ZM18 17.6C18 17.3035 18.0008 17.1412 18.0103 17.0246C18.0189 16.9197 18.0293 16.9425 18 17L16.218 16.092C16.0797 16.3634 16.0356 16.6332 16.0169 16.8618C15.9992 17.0787 16 17.3365 16 17.6H18ZM17.092 15.218C16.7157 15.4097 16.4097 15.7157 16.218 16.092L18 17H18L17.092 15.218ZM6 18.6V19.4H8V18.6H6ZM5.4 20H4.6V22H5.4V20ZM4 19.4V18.6H2L2 19.4H4ZM4.6 18H5.4V16H4.6V18ZM4 18.6C4 18.3035 4.00078 18.1412 4.0103 18.0246C4.01887 17.9197 4.0293 17.9425 4 18L2.21799 17.092C2.07969 17.3634 2.03562 17.6332 2.01695 17.8618C1.99922 18.0787 2 18.3365 2 18.6H4ZM4.6 16C4.33647 16 4.07869 15.9992 3.86177 16.0169C3.63318 16.0356 3.36344 16.0797 3.09202 16.218L4 18C3.94249 18.0293 3.91972 18.0189 4.02463 18.0103C4.14122 18.0008 4.30347 18 4.6 18V16ZM4 18L3.09202 16.218C2.7157 16.4097 2.40973 16.7157 2.21799 17.092L4 18ZM4.6 20C4.30347 20 4.14122 19.9992 4.02463 19.9897C3.91972 19.9811 3.94249 19.9707 4 20L3.09202 21.782C3.36344 21.9203 3.63318 21.9644 3.86177 21.9831C4.07869 22.0008 4.33647 22 4.6 22V20ZM2 19.4C2 19.6635 1.99922 19.9213 2.01695 20.1382C2.03562 20.3668 2.07969 20.6366 2.21799 20.908L4 20C4.0293 20.0575 4.01887 20.0803 4.0103 19.9754C4.00078 19.8588 4 19.6965 4 19.4H2ZM4 20H4L2.21799 20.908C2.40973 21.2843 2.7157 21.5903 3.09202 21.782L4 20ZM6 19.4C6 19.6965 5.99922 19.8588 5.9897 19.9754C5.98113 20.0803 5.9707 20.0575 6 20L7.78201 20.908C7.92031 20.6366 7.96438 20.3668 7.98305 20.1382C8.00078 19.9213 8 19.6635 8 19.4H6ZM5.4 22C5.66353 22 5.92131 22.0008 6.13823 21.9831C6.36682 21.9644 6.63656 21.9203 6.90798 21.782L6 20C6.05751 19.9707 6.08028 19.9811 5.97537 19.9897C5.85878 19.9992 5.69653 20 5.4 20V22ZM6 20L6.90798 21.782C7.2843 21.5903 7.59027 21.2843 7.78201 20.908L6 20ZM8 18.6C8 18.3365 8.00078 18.0787 7.98305 17.8618C7.96438 17.6332 7.92031 17.3634 7.78201 17.092L6 18C5.9707 17.9425 5.98113 17.9197 5.9897 18.0246C5.99922 18.1412 6 18.3035 6 18.6H8ZM5.4 18C5.69653 18 5.85878 18.0008 5.97537 18.0103C6.08028 18.0189 6.05751 18.0293 6 18L6.90798 16.218C6.63656 16.0797 6.36682 16.0356 6.13823 16.0169C5.92131 15.9992 5.66353 16 5.4 16V18ZM7.78201 17.092C7.59027 16.7157 7.2843 16.4097 6.90798 16.218L6 18L7.78201 17.092ZM10.1838 5.94868L13.1838 6.94868L13.8162 5.05132L10.8162 4.05132L10.1838 5.94868ZM10.8162 19.9487L13.8162 18.9487L13.1838 17.0513L10.1838 18.0513L10.8162 19.9487ZM4 10.5V13.5H6V10.5H4ZM18 11.5V12.5H20V11.5H18ZM4.6 4H5.4V2H4.6V4ZM6 4.6V5.4H8V4.6H6ZM5.4 6H4.6V8H5.4V6ZM4 5.4V4.6H2V5.4H4ZM4.6 6C4.30347 6 4.14122 5.99922 4.02463 5.9897C3.91972 5.98113 3.94249 5.9707 4 6L3.09202 7.78201C3.36344 7.92031 3.63318 7.96438 3.86177 7.98305C4.07869 8.00078 4.33647 8 4.6 8V6ZM2 5.4C2 5.66353 1.99922 5.92131 2.01695 6.13823C2.03562 6.36682 2.07969 6.63656 2.21799 6.90798L4 6C4.0293 6.05751 4.01887 6.08028 4.0103 5.97537C4.00078 5.85878 4 5.69653 4 5.4H2ZM4 6L2.21799 6.90798C2.40973 7.28431 2.71569 7.59027 3.09202 7.78201L4 6ZM6 5.4C6 5.69653 5.99922 5.85878 5.9897 5.97537C5.98113 6.08028 5.9707 6.05751 6 6L7.78201 6.90798C7.92031 6.63656 7.96438 6.36682 7.98305 6.13823C8.00078 5.92131 8 5.66353 8 5.4H6ZM5.4 8C5.66353 8 5.92131 8.00078 6.13823 7.98305C6.36682 7.96438 6.63656 7.92031 6.90798 7.78201L6 6C6.05751 5.9707 6.08028 5.98113 5.97537 5.9897C5.85878 5.99922 5.69653 6 5.4 6V8ZM6 6L6.90798 7.78201C7.28431 7.59027 7.59027 7.28431 7.78201 6.90798L6 6ZM5.4 4C5.69653 4 5.85878 4.00078 5.97537 4.0103C6.08028 4.01887 6.05751 4.0293 6 4L6.90798 2.21799C6.63656 2.07969 6.36682 2.03562 6.13823 2.01695C5.92131 1.99922 5.66353 2 5.4 2V4ZM8 4.6C8 4.33647 8.00078 4.07869 7.98305 3.86177C7.96438 3.63318 7.92031 3.36344 7.78201 3.09202L6 4C5.9707 3.94249 5.98113 3.91972 5.9897 4.02463C5.99922 4.14122 6 4.30347 6 4.6H8ZM6 4L7.78201 3.09202C7.59027 2.71569 7.28431 2.40973 6.90798 2.21799L6 4ZM4.6 2C4.33647 2 4.07869 1.99922 3.86177 2.01695C3.63318 2.03562 3.36344 2.07969 3.09202 2.21799L4 4C3.94249 4.0293 3.91972 4.01887 4.02463 4.0103C4.14122 4.00078 4.30347 4 4.6 4V2ZM4 4.6C4 4.30347 4.00078 4.14122 4.0103 4.02463C4.01887 3.91972 4.0293 3.94249 4 4L2.21799 3.09202C2.07969 3.36344 2.03562 3.63318 2.01695 3.86177C1.99922 4.07869 2 4.33647 2 4.6H4ZM3.09202 2.21799C2.71569 2.40973 2.40973 2.71569 2.21799 3.09202L4 4L3.09202 2.21799ZM20 5.6V6.4H22V5.6H20ZM19.4 7H18.6V9H19.4V7ZM18 6.4V5.6H16V6.4H18ZM18.6 5H19.4V3L18.6 3V5ZM18 5.6C18 5.30347 18.0008 5.14122 18.0103 5.02463C18.0189 4.91972 18.0293 4.94249 18 5L16.218 4.09202C16.0797 4.36344 16.0356 4.63318 16.0169 4.86177C15.9992 5.07869 16 5.33647 16 5.6H18ZM18.6 3C18.3365 3 18.0787 2.99922 17.8618 3.01695C17.6332 3.03562 17.3634 3.07969 17.092 3.21799L18 5C17.9425 5.0293 17.9197 5.01887 18.0246 5.0103C18.1412 5.00078 18.3035 5 18.6 5V3ZM18 5L18 5L17.092 3.21799C16.7157 3.40973 16.4097 3.71569 16.218 4.09202L18 5ZM18.6 7C18.3035 7 18.1412 6.99922 18.0246 6.9897C17.9197 6.98113 17.9425 6.9707 18 7L17.092 8.78201C17.3634 8.92031 17.6332 8.96438 17.8618 8.98305C18.0787 9.00078 18.3365 9 18.6 9V7ZM16 6.4C16 6.66353 15.9992 6.92131 16.0169 7.13823C16.0356 7.36682 16.0797 7.63656 16.218 7.90798L18 7C18.0293 7.05751 18.0189 7.08028 18.0103 6.97537C18.0008 6.85878 18 6.69653 18 6.4H16ZM18 7L16.218 7.90798C16.4097 8.2843 16.7157 8.59027 17.092 8.78201L18 7ZM20 6.4C20 6.69653 19.9992 6.85878 19.9897 6.97537C19.9811 7.08028 19.9707 7.05751 20 7L21.782 7.90798C21.9203 7.63656 21.9644 7.36682 21.9831 7.13823C22.0008 6.92131 22 6.66353 22 6.4H20ZM19.4 9C19.6635 9 19.9213 9.00078 20.1382 8.98305C20.3668 8.96438 20.6366 8.92031 20.908 8.78201L20 7C20.0575 6.9707 20.0803 6.98113 19.9754 6.9897C19.8588 6.99922 19.6965 7 19.4 7V9ZM20 7L20.908 8.78201C21.2843 8.59027 21.5903 8.2843 21.782 7.90798L20 7ZM22 5.6C22 5.33647 22.0008 5.07869 21.9831 4.86177C21.9644 4.63318 21.9203 4.36344 21.782 4.09202L20 5C19.9707 4.94249 19.9811 4.91972 19.9897 5.02463C19.9992 5.14122 20 5.30347 20 5.6H22ZM19.4 5C19.6965 5 19.8588 5.00078 19.9754 5.0103C20.0803 5.01887 20.0575 5.0293 20 5L20.908 3.21799C20.6366 3.07969 20.3668 3.03562 20.1382 3.01695C19.9213 2.99922 19.6635 3 19.4 3V5ZM21.782 4.09202C21.5903 3.7157 21.2843 3.40973 20.908 3.21799L20 5L21.782 4.09202Z" fill="#0B0D12"/>
</svg>
