<svg width="24" height="24" viewBox="0 0 24 24" fill="none" xmlns="http://www.w3.org/2000/svg">
<path d="M3 7C2.44772 7 2 7.44771 2 8C2 8.55228 2.44772 9 3 9V7ZM21 9C21.5523 9 22 8.55228 22 8C22 7.44772 21.5523 7 21 7V9ZM5.18404 20.564L5.63803 19.673H5.63803L5.18404 20.564ZM3.43597 18.816L2.54497 19.27H2.54497L3.43597 18.816ZM18.816 3.43597L19.27 2.54497V2.54497L18.816 3.43597ZM20.564 5.18404L19.673 5.63803V5.63803L20.564 5.18404ZM5.18404 3.43597L4.73005 2.54497V2.54497L5.18404 3.43597ZM3.43597 5.18404L4.32698 5.63803L4.32698 5.63803L3.43597 5.18404ZM20 9.5C20 10.0523 20.4477 10.5 21 10.5C21.5523 10.5 22 10.0523 22 9.5H20ZM9.5 22C10.0523 22 10.5 21.5523 10.5 21C10.5 20.4477 10.0523 20 9.5 20V22ZM21.7735 16.4511L22.6388 16.9524L21.7735 16.4511ZM19.4233 20.5076L20.2886 21.0089L19.4233 20.5076ZM19.2883 14.7462L20.1536 15.2475V15.2475L19.2883 14.7462ZM16.0729 18.3014C15.7961 18.7793 15.959 19.3911 16.4369 19.668C16.9148 19.9448 17.5266 19.7819 17.8035 19.304L16.0729 18.3014ZM14.453 17.0977L15.3183 17.599L14.453 17.0977ZM16.8851 14.8947C17.1619 14.4168 16.999 13.805 16.5211 13.5281C16.0432 13.2513 15.4314 13.4142 15.1545 13.8921L16.8851 14.8947ZM21.3143 14.2465L20.7486 15.0711L21.3143 14.2465ZM15.3714 21.507L14.8057 22.3316L15.3714 21.507ZM8.5 7H3.00559V9H8.5V7ZM3.00559 7H3V9H3.00559V7ZM9.5 8V3.0013H7.5V8H9.5ZM21 7H20.9944V9H21V7ZM20.9944 7L15.5 7V9L20.9944 9V7ZM15.5 7L8.5 7V9L15.5 9V7ZM16.5 8V3.0013H14.5V8H16.5ZM9.4 4H14.6V2H9.4V4ZM4 14.6V9.4H2V14.6H4ZM9.4 20C8.26339 20 7.47108 19.9992 6.85424 19.9488C6.24907 19.8994 5.90138 19.8072 5.63803 19.673L4.73005 21.455C5.32234 21.7568 5.96253 21.8826 6.69138 21.9422C7.40855 22.0008 8.2964 22 9.4 22V20ZM2 14.6C2 15.7036 1.99922 16.5914 2.05782 17.3086C2.11737 18.0375 2.24318 18.6777 2.54497 19.27L4.32698 18.362C4.19279 18.0986 4.10062 17.7509 4.05118 17.1458C4.00078 16.5289 4 15.7366 4 14.6H2ZM5.63803 19.673C5.07354 19.3854 4.6146 18.9265 4.32698 18.362L2.54497 19.27C3.02433 20.2108 3.78924 20.9757 4.73005 21.455L5.63803 19.673ZM14.6 4C14.9229 4 15.2196 4 15.4953 4.00129L15.5047 2.00131C15.2234 2 14.9218 2 14.6 2V4ZM15.4953 4.00129C17.2086 4.00928 17.8798 4.08132 18.362 4.32698L19.27 2.54497C18.287 2.04414 17.1056 2.00878 15.5047 2.00131L15.4953 4.00129ZM22 9.4C22 8.87754 22 8.40721 21.9943 7.98645L19.9945 8.01355C20 8.41801 20 8.8737 20 9.4H22ZM21.9943 7.98645C21.9763 6.65517 21.9083 5.61965 21.455 4.73005L19.673 5.63803C19.8876 6.05915 19.9759 6.64463 19.9945 8.01355L21.9943 7.98645ZM18.362 4.32698C18.9265 4.6146 19.3854 5.07354 19.673 5.63803L21.455 4.73005C20.9757 3.78924 20.2108 3.02433 19.27 2.54497L18.362 4.32698ZM9.4 2C9.07822 2 8.77662 2 8.49534 2.00131L8.50466 4.00129C8.7804 4 9.0771 4 9.4 4V2ZM8.49534 2.00131C6.89443 2.00878 5.71297 2.04414 4.73005 2.54497L5.63803 4.32698C6.12017 4.08132 6.79142 4.00928 8.50466 4.00129L8.49534 2.00131ZM4 9.4C4 8.8737 4.00002 8.41801 4.0055 8.01355L2.00568 7.98645C1.99998 8.40721 2 8.87753 2 9.4H4ZM4.0055 8.01355C4.02405 6.64463 4.11241 6.05915 4.32698 5.63803L2.54497 4.73005C2.09169 5.61965 2.02372 6.65516 2.00568 7.98645L4.0055 8.01355ZM4.73005 2.54497C3.78924 3.02433 3.02433 3.78924 2.54497 4.73005L4.32698 5.63803C4.6146 5.07354 5.07354 4.6146 5.63803 4.32698L4.73005 2.54497ZM20 9.4V9.5H22V9.4H20ZM9.5 20H9.4V22H9.5V20ZM20.9082 15.9498L18.5581 20.0063L20.2886 21.0089L22.6388 16.9524L20.9082 15.9498ZM18.4231 14.2449L16.0729 18.3014L17.8035 19.304L20.1536 15.2475L18.4231 14.2449ZM15.3183 17.599L16.8851 14.8947L15.1545 13.8921L13.5878 16.5964L15.3183 17.599ZM21.88 13.4219C20.6821 12.6001 19.1281 13.0279 18.4231 14.2449L20.1536 15.2475C20.2371 15.1034 20.3492 15.0345 20.4457 15.0107C20.5401 14.9874 20.6447 14.9998 20.7486 15.0711L21.88 13.4219ZM15.9371 20.6824C15.0207 20.0537 14.6996 18.667 15.3183 17.599L13.5878 16.5964C12.4759 18.5156 12.9771 21.0771 14.8057 22.3316L15.9371 20.6824ZM18.5581 20.0063C17.9652 21.0296 16.7981 21.273 15.9371 20.6824L14.8057 22.3316C16.6898 23.6242 19.1509 22.9727 20.2886 21.0089L18.5581 20.0063ZM22.6388 16.9524C23.318 15.7801 23.0223 14.2056 21.88 13.4219L20.7486 15.0711C20.9787 15.229 21.0943 15.6286 20.9082 15.9498L22.6388 16.9524Z" fill="#0B0D12"/>
</svg>
