<svg width="24" height="24" viewBox="0 0 24 24" fill="none" xmlns="http://www.w3.org/2000/svg">
<path d="M3 7C2.44772 7 2 7.44771 2 8C2 8.55228 2.44772 9 3 9V7ZM21 9C21.5523 9 22 8.55228 22 8C22 7.44772 21.5523 7 21 7V9ZM5.18404 20.564L5.63803 19.673H5.63803L5.18404 20.564ZM3.43597 18.816L2.54497 19.27H2.54497L3.43597 18.816ZM18.816 3.43597L19.27 2.54497V2.54497L18.816 3.43597ZM20.564 5.18404L19.673 5.63803V5.63803L20.564 5.18404ZM5.18404 3.43597L4.73005 2.54497V2.54497L5.18404 3.43597ZM3.43597 5.18404L4.32698 5.63803L4.32698 5.63803L3.43597 5.18404ZM9.5 22C10.0523 22 10.5 21.5523 10.5 21C10.5 20.4477 10.0523 20 9.5 20V22ZM20 10.5C20 11.0523 20.4477 11.5 21 11.5C21.5523 11.5 22 11.0523 22 10.5H20ZM8.5 7H3.00559V9H8.5V7ZM3.00559 7H3V9H3.00559V7ZM9.5 8V3.0013H7.5V8H9.5ZM21 7H20.9944V9H21V7ZM20.9944 7L15.5 7V9L20.9944 9V7ZM15.5 7L8.5 7V9L15.5 9V7ZM16.5 8V3.0013H14.5V8H16.5ZM9.4 4H14.6V2H9.4V4ZM4 14.6V9.4H2V14.6H4ZM9.4 20C8.26339 20 7.47108 19.9992 6.85424 19.9488C6.24907 19.8994 5.90138 19.8072 5.63803 19.673L4.73005 21.455C5.32234 21.7568 5.96253 21.8826 6.69138 21.9422C7.40855 22.0008 8.2964 22 9.4 22V20ZM2 14.6C2 15.7036 1.99922 16.5914 2.05782 17.3086C2.11737 18.0375 2.24318 18.6777 2.54497 19.27L4.32698 18.362C4.19279 18.0986 4.10062 17.7509 4.05118 17.1458C4.00078 16.5289 4 15.7366 4 14.6H2ZM5.63803 19.673C5.07354 19.3854 4.6146 18.9265 4.32698 18.362L2.54497 19.27C3.02433 20.2108 3.78924 20.9757 4.73005 21.455L5.63803 19.673ZM14.6 4C14.9229 4 15.2196 4 15.4953 4.00129L15.5047 2.00131C15.2234 2 14.9218 2 14.6 2V4ZM15.4953 4.00129C17.2086 4.00928 17.8798 4.08132 18.362 4.32698L19.27 2.54497C18.287 2.04414 17.1056 2.00878 15.5047 2.00131L15.4953 4.00129ZM22 9.4C22 8.87754 22 8.40721 21.9943 7.98645L19.9945 8.01355C20 8.41801 20 8.8737 20 9.4H22ZM21.9943 7.98645C21.9763 6.65517 21.9083 5.61965 21.455 4.73005L19.673 5.63803C19.8876 6.05915 19.9759 6.64463 19.9945 8.01355L21.9943 7.98645ZM18.362 4.32698C18.9265 4.6146 19.3854 5.07354 19.673 5.63803L21.455 4.73005C20.9757 3.78924 20.2108 3.02433 19.27 2.54497L18.362 4.32698ZM9.4 2C9.07822 2 8.77662 2 8.49534 2.00131L8.50466 4.00129C8.7804 4 9.0771 4 9.4 4V2ZM8.49534 2.00131C6.89443 2.00878 5.71297 2.04414 4.73005 2.54497L5.63803 4.32698C6.12017 4.08132 6.79142 4.00928 8.50466 4.00129L8.49534 2.00131ZM4 9.4C4 8.8737 4.00002 8.41801 4.0055 8.01355L2.00568 7.98645C1.99998 8.40721 2 8.87753 2 9.4H4ZM4.0055 8.01355C4.02405 6.64463 4.11241 6.05915 4.32698 5.63803L2.54497 4.73005C2.09169 5.61965 2.02372 6.65516 2.00568 7.98645L4.0055 8.01355ZM4.73005 2.54497C3.78924 3.02433 3.02433 3.78924 2.54497 4.73005L4.32698 5.63803C4.6146 5.07354 5.07354 4.6146 5.63803 4.32698L4.73005 2.54497ZM9.5 20H9.4V22H9.5V20ZM20 9.4V10.5H22V9.4H20ZM17 16C17 15.4477 17.4477 15 18 15V13C16.3431 13 15 14.3431 15 16H17ZM18 15C18.5523 15 19 15.4477 19 16H21C21 14.3431 19.6569 13 18 13V15ZM21 18.5V20.5H23V18.5H21ZM20.5 21H15.5V23H20.5V21ZM15 20.5V18.5H13V20.5H15ZM15.5 21C15.2239 21 15 20.7761 15 20.5H13C13 21.8807 14.1193 23 15.5 23V21ZM21 20.5C21 20.7761 20.7761 21 20.5 21V23C21.8807 23 23 21.8807 23 20.5H21ZM20.5 18C20.7761 18 21 18.2239 21 18.5H23C23 17.1193 21.8807 16 20.5 16V18ZM15.5 16C14.1193 16 13 17.1193 13 18.5H15C15 18.2239 15.2239 18 15.5 18V16ZM19.7324 18H20.5V16H19.7324V18ZM19 16C19 16.1838 18.9513 16.3532 18.8668 16.4993L20.598 17.5007C20.8539 17.0584 21 16.5448 21 16H19ZM15.5 18H16.2676V16H15.5V18ZM16.2676 18H19.7324V16H16.2676V18ZM17.1332 16.4993C17.0487 16.3532 17 16.1838 17 16H15C15 16.5448 15.1461 17.0584 15.402 17.5007L17.1332 16.4993Z" fill="#0B0D12"/>
</svg>
