<svg width="24" height="24" viewBox="0 0 24 24" fill="none" xmlns="http://www.w3.org/2000/svg">
<path d="M3 9.8C3 8.11984 3 7.27976 3.32698 6.63803C3.6146 6.07354 4.07354 5.6146 4.63803 5.32698C5.27976 5 6.11984 5 7.8 5H11.2C12.8802 5 13.7202 5 14.362 5.32698C14.9265 5.6146 15.3854 6.07354 15.673 6.63803C16 7.27976 16 8.11984 16 9.8V14.2C16 15.8802 16 16.7202 15.673 17.362C15.3854 17.9265 14.9265 18.3854 14.362 18.673C13.7202 19 12.8802 19 11.2 19H7.8C6.11984 19 5.27976 19 4.63803 18.673C4.07354 18.3854 3.6146 17.9265 3.32698 17.362C3 16.7202 3 15.8802 3 14.2V9.8Z" stroke="#0B0D12" stroke-width="2" stroke-linecap="round" stroke-linejoin="round"/>
<path d="M16 10.9059C16 10.5756 16 10.4104 16.0474 10.262C16.0893 10.1306 16.158 10.0094 16.249 9.90586C16.3519 9.78886 16.4935 9.70388 16.7768 9.53392L18.5768 8.45392C19.3699 7.97803 19.7665 7.74009 20.0928 7.77051C20.3773 7.79703 20.6369 7.944 20.806 8.17433C21 8.43848 21 8.90095 21 9.8259V14.1741C21 15.099 21 15.5615 20.806 15.8257C20.6369 16.056 20.3773 16.203 20.0928 16.2295C19.7665 16.2599 19.3699 16.022 18.5768 15.5461L16.7768 14.4661C16.4935 14.2961 16.3519 14.2111 16.249 14.0941C16.158 13.9906 16.0893 13.8694 16.0474 13.738C16 13.5896 16 13.4244 16 13.0941V10.9059Z" stroke="#0B0D12" stroke-width="2" stroke-linecap="round" stroke-linejoin="round"/>
</svg>
