<svg width="24" height="24" viewBox="0 0 24 24" fill="none" xmlns="http://www.w3.org/2000/svg">
<path d="M3 7C2.44772 7 2 7.44771 2 8C2 8.55228 2.44772 9 3 9V7ZM21 9C21.5523 9 22 8.55228 22 8C22 7.44772 21.5523 7 21 7V9ZM5.18404 20.564L5.63803 19.673H5.63803L5.18404 20.564ZM3.43597 18.816L2.54497 19.27H2.54497L3.43597 18.816ZM18.816 3.43597L19.27 2.54497V2.54497L18.816 3.43597ZM20.564 5.18404L19.673 5.63803V5.63803L20.564 5.18404ZM5.18404 3.43597L4.73005 2.54497V2.54497L5.18404 3.43597ZM3.43597 5.18404L4.32698 5.63803L4.32698 5.63803L3.43597 5.18404ZM10.5 22C11.0523 22 11.5 21.5523 11.5 21C11.5 20.4477 11.0523 20 10.5 20V22ZM20 11.5C20 12.0523 20.4477 12.5 21 12.5C21.5523 12.5 22 12.0523 22 11.5H20ZM22.7071 16.7071C23.0976 16.3166 23.0976 15.6834 22.7071 15.2929C22.3166 14.9024 21.6834 14.9024 21.2929 15.2929L22.7071 16.7071ZM18.4142 19.5858L19.1213 20.2929L18.4142 19.5858ZM15.5858 19.5858L16.2929 18.8787L15.5858 19.5858ZM14.7071 17.2929C14.3166 16.9024 13.6834 16.9024 13.2929 17.2929C12.9024 17.6834 12.9024 18.3166 13.2929 18.7071L14.7071 17.2929ZM8.5 7H3.00559V9H8.5V7ZM3.00559 7H3V9H3.00559V7ZM9.5 8V3.0013H7.5V8H9.5ZM21 7H20.9944V9H21V7ZM20.9944 7L15.5 7V9L20.9944 9V7ZM15.5 7L8.5 7V9L15.5 9V7ZM16.5 8V3.0013H14.5V8H16.5ZM9.4 4H14.6V2H9.4V4ZM4 14.6V9.4H2V14.6H4ZM9.4 20C8.26339 20 7.47108 19.9992 6.85424 19.9488C6.24907 19.8994 5.90138 19.8072 5.63803 19.673L4.73005 21.455C5.32234 21.7568 5.96253 21.8826 6.69138 21.9422C7.40855 22.0008 8.2964 22 9.4 22V20ZM2 14.6C2 15.7036 1.99922 16.5914 2.05782 17.3086C2.11737 18.0375 2.24318 18.6777 2.54497 19.27L4.32698 18.362C4.19279 18.0986 4.10062 17.7509 4.05118 17.1458C4.00078 16.5289 4 15.7366 4 14.6H2ZM5.63803 19.673C5.07354 19.3854 4.6146 18.9265 4.32698 18.362L2.54497 19.27C3.02433 20.2108 3.78924 20.9757 4.73005 21.455L5.63803 19.673ZM14.6 4C14.9229 4 15.2196 4 15.4953 4.00129L15.5047 2.00131C15.2234 2 14.9218 2 14.6 2V4ZM15.4953 4.00129C17.2086 4.00928 17.8798 4.08132 18.362 4.32698L19.27 2.54497C18.287 2.04414 17.1056 2.00878 15.5047 2.00131L15.4953 4.00129ZM22 9.4C22 8.87754 22 8.40721 21.9943 7.98645L19.9945 8.01355C20 8.41801 20 8.8737 20 9.4H22ZM21.9943 7.98645C21.9763 6.65517 21.9083 5.61965 21.455 4.73005L19.673 5.63803C19.8876 6.05915 19.9759 6.64463 19.9945 8.01355L21.9943 7.98645ZM18.362 4.32698C18.9265 4.6146 19.3854 5.07354 19.673 5.63803L21.455 4.73005C20.9757 3.78924 20.2108 3.02433 19.27 2.54497L18.362 4.32698ZM9.4 2C9.07822 2 8.77662 2 8.49534 2.00131L8.50466 4.00129C8.7804 4 9.0771 4 9.4 4V2ZM8.49534 2.00131C6.89443 2.00878 5.71297 2.04414 4.73005 2.54497L5.63803 4.32698C6.12017 4.08132 6.79142 4.00928 8.50466 4.00129L8.49534 2.00131ZM4 9.4C4 8.8737 4.00002 8.41801 4.0055 8.01355L2.00568 7.98645C1.99998 8.40721 2 8.87753 2 9.4H4ZM4.0055 8.01355C4.02405 6.64463 4.11241 6.05915 4.32698 5.63803L2.54497 4.73005C2.09169 5.61965 2.02372 6.65516 2.00568 7.98645L4.0055 8.01355ZM4.73005 2.54497C3.78924 3.02433 3.02433 3.78924 2.54497 4.73005L4.32698 5.63803C4.6146 5.07354 5.07354 4.6146 5.63803 4.32698L4.73005 2.54497ZM10.5 20H9.4V22H10.5V20ZM20 9.4V11.5H22V9.4H20ZM21.2929 15.2929L17.7071 18.8787L19.1213 20.2929L22.7071 16.7071L21.2929 15.2929ZM16.2929 18.8787L14.7071 17.2929L13.2929 18.7071L14.8787 20.2929L16.2929 18.8787ZM17.7071 18.8787C17.3538 19.232 17.1584 19.4244 17.0059 19.5408C16.8764 19.6396 16.9005 19.5858 17 19.5858V21.5858C17.5137 21.5858 17.9116 21.3653 18.219 21.1308C18.5033 20.9139 18.808 20.6062 19.1213 20.2929L17.7071 18.8787ZM14.8787 20.2929C15.192 20.6062 15.4967 20.9139 15.781 21.1308C16.0884 21.3653 16.4863 21.5858 17 21.5858V19.5858C17.0995 19.5858 17.1236 19.6396 16.9941 19.5408C16.8416 19.4244 16.6462 19.232 16.2929 18.8787L14.8787 20.2929Z" fill="#0B0D12"/>
</svg>
