<svg width="24" height="24" viewBox="0 0 24 24" fill="none" xmlns="http://www.w3.org/2000/svg">
<path d="M21 3L15.9728 8.02716M3 21L5.14348 18.8565M15.9728 8.02716C15.9377 7.42449 15.8573 6.99975 15.673 6.63803C15.3854 6.07354 14.9265 5.6146 14.362 5.32698C13.7202 5 12.8802 5 11.2 5H7.8C6.11984 5 5.27976 5 4.63803 5.32698C4.07354 5.6146 3.6146 6.07354 3.32698 6.63803C3 7.27976 3 8.11984 3 9.8V14.2C3 15.8802 3 16.7202 3.32698 17.362C3.6146 17.9265 4.07354 18.3854 4.63803 18.673C4.79211 18.7515 4.95764 18.8112 5.14348 18.8565M15.9728 8.02716L5.14348 18.8565M11 19C12.0641 19 13.3788 19.174 14.362 18.673C14.9265 18.3854 15.3854 17.9265 15.673 17.362C16 16.7202 16 15.8802 16 14.2C16 13.9246 18.2589 15.3553 18.5768 15.5461C19.3699 16.022 19.7665 16.2599 20.0928 16.2295C20.3773 16.203 20.6369 16.056 20.806 15.8257C21 15.5615 21 15.099 21 14.1741C21 12.4549 21.0571 10.7268 20.9915 9.0085" stroke="#0B0D12" stroke-width="2" stroke-linecap="round" stroke-linejoin="round"/>
</svg>
