<svg width="24" height="24" viewBox="0 0 24 24" fill="none" xmlns="http://www.w3.org/2000/svg">
<path d="M15.5355 7.05025C15.145 7.44078 15.145 8.07394 15.5355 8.46447C15.9261 8.85499 16.5592 8.85499 16.9497 8.46447L15.5355 7.05025ZM20 5.41421C20.3905 5.02369 20.3905 4.39052 20 4C19.6095 3.60948 18.9763 3.60948 18.5858 4L20 5.41421ZM16.9497 15.5355C16.5592 15.145 15.9261 15.145 15.5355 15.5355C15.145 15.9261 15.145 16.5592 15.5355 16.9497L16.9497 15.5355ZM18.5858 20C18.9763 20.3905 19.6095 20.3905 20 20C20.3905 19.6095 20.3905 18.9763 20 18.5858L18.5858 20ZM8.46447 16.9497C8.85499 16.5592 8.85499 15.9261 8.46447 15.5355C8.07394 15.145 7.44078 15.145 7.05025 15.5355L8.46447 16.9497ZM4 18.5858C3.60948 18.9763 3.60948 19.6095 4 20C4.39052 20.3905 5.02369 20.3905 5.41421 20L4 18.5858ZM7.05025 8.46447C7.44078 8.85499 8.07394 8.85499 8.46447 8.46447C8.85499 8.07394 8.85499 7.44078 8.46447 7.05025L7.05025 8.46447ZM5.41421 4C5.02369 3.60948 4.39052 3.60948 4 4C3.60948 4.39052 3.60948 5.02369 4 5.41421L5.41421 4ZM14.9442 3.32937C15.1261 2.8079 14.8508 2.23771 14.3294 2.0558C13.8079 1.87389 13.2377 2.14916 13.0558 2.67063L14.9442 3.32937ZM11.0714 6.07142L11.2249 7.05957L11.0714 6.07142ZM10.9442 2.67063C10.7623 2.14916 10.1921 1.87389 9.67063 2.0558C9.14916 2.23771 8.87389 2.8079 9.0558 3.32937L10.9442 2.67063ZM13.0558 21.3294C13.2377 21.8508 13.8079 22.1261 14.3294 21.9442C14.8508 21.7623 15.1261 21.1921 14.9442 20.6706L13.0558 21.3294ZM6.07142 11.0714L7.05957 11.2249L6.07142 11.0714ZM3.32937 9.0558C2.8079 8.87389 2.23771 9.14916 2.0558 9.67063C1.87389 10.1921 2.14916 10.7623 2.67063 10.9442L3.32937 9.0558ZM2.67063 13.0558C2.14916 13.2377 1.87389 13.8079 2.0558 14.3294C2.23771 14.8508 2.8079 15.1261 3.32937 14.9442L2.67063 13.0558ZM20.6706 14.9442C21.1921 15.1261 21.7623 14.8508 21.9442 14.3294C22.1261 13.8079 21.8508 13.2377 21.3294 13.0558L20.6706 14.9442ZM21.3294 10.9442C21.8508 10.7623 22.1261 10.1921 21.9442 9.67063C21.7623 9.14916 21.1921 8.87389 20.6706 9.0558L21.3294 10.9442ZM9.0558 20.6706C8.87389 21.1921 9.14916 21.7623 9.67063 21.9442C10.1921 22.1261 10.7623 21.8508 10.9442 21.3294L9.0558 20.6706ZM15.5 12C15.5 11.4477 15.0523 11 14.5 11C13.9477 11 13.5 11.4477 13.5 12H15.5ZM13.5 12.01C13.5 12.5623 13.9477 13.01 14.5 13.01C15.0523 13.01 15.5 12.5623 15.5 12.01H13.5ZM10.5 12C10.5 11.4477 10.0523 11 9.5 11C8.94772 11 8.5 11.4477 8.5 12H10.5ZM8.5 12.01C8.5 12.5623 8.94772 13.01 9.5 13.01C10.0523 13.01 10.5 12.5623 10.5 12.01H8.5ZM13 9.5C13 8.94772 12.5523 8.5 12 8.5C11.4477 8.5 11 8.94772 11 9.5H13ZM11 9.51C11 10.0623 11.4477 10.51 12 10.51C12.5523 10.51 13 10.0623 13 9.51H11ZM13 14.59C13 14.0377 12.5523 13.59 12 13.59C11.4477 13.59 11 14.0377 11 14.59H13ZM11 14.6C11 15.1523 11.4477 15.6 12 15.6C12.5523 15.6 13 15.1523 13 14.6H11ZM16.9497 8.46447L20 5.41421L18.5858 4L15.5355 7.05025L16.9497 8.46447ZM15.5355 16.9497L18.5858 20L20 18.5858L16.9497 15.5355L15.5355 16.9497ZM7.05025 15.5355L4 18.5858L5.41421 20L8.46447 16.9497L7.05025 15.5355ZM8.46447 7.05025L5.41421 4L4 5.41421L7.05025 8.46447L8.46447 7.05025ZM12 7C12.2642 7 12.523 7.02041 12.7751 7.05957L13.0821 5.08327C12.7289 5.02839 12.3674 5 12 5V7ZM13.8728 6.40079L14.9442 3.32937L13.0558 2.67063L11.9844 5.74205L13.8728 6.40079ZM11.2249 7.05957C11.477 7.02041 11.7358 7 12 7V5C11.6326 5 11.2711 5.02839 10.9179 5.08327L11.2249 7.05957ZM12.0156 5.74205L10.9442 2.67063L9.0558 3.32937L10.1272 6.40079L12.0156 5.74205ZM12 17C11.7358 17 11.477 16.9796 11.2249 16.9404L10.9179 18.9167C11.2712 18.9716 11.6326 19 12 19V17ZM12.7751 16.9404C12.523 16.9796 12.2642 17 12 17V19C12.3674 19 12.7288 18.9716 13.0821 18.9167L12.7751 16.9404ZM11.9844 18.258L13.0558 21.3294L14.9442 20.6706L13.8728 17.5992L11.9844 18.258ZM7.05957 12.7751C7.02041 12.523 7 12.2642 7 12H5C5 12.3674 5.02839 12.7289 5.08327 13.0821L7.05957 12.7751ZM7 12C7 11.7358 7.02041 11.477 7.05957 11.2249L5.08327 10.9179C5.02839 11.2711 5 11.6326 5 12H7ZM7.05957 11.2249C7.39203 9.08505 9.08505 7.39203 11.2249 7.05957L10.9179 5.08327C7.91753 5.54942 5.54942 7.91753 5.08327 10.9179L7.05957 11.2249ZM6.40079 10.1272L3.32937 9.0558L2.67063 10.9442L5.74205 12.0156L6.40079 10.1272ZM5.74205 11.9844L2.67063 13.0558L3.32937 14.9442L6.40079 13.8728L5.74205 11.9844ZM17 12C17 12.2642 16.9796 12.523 16.9404 12.7751L18.9167 13.0821C18.9716 12.7288 19 12.3674 19 12H17ZM16.9404 12.7751C16.608 14.915 14.915 16.608 12.7751 16.9404L13.0821 18.9167C16.0825 18.4506 18.4506 16.0825 18.9167 13.0821L16.9404 12.7751ZM17.5992 13.8728L20.6706 14.9442L21.3294 13.0558L18.258 11.9844L17.5992 13.8728ZM12.7751 7.05957C14.915 7.39203 16.608 9.08505 16.9404 11.2249L18.9167 10.9179C18.4506 7.91753 16.0825 5.54942 13.0821 5.08327L12.7751 7.05957ZM16.9404 11.2249C16.9796 11.477 17 11.7358 17 12H19C19 11.6326 18.9716 11.2712 18.9167 10.9179L16.9404 11.2249ZM18.258 12.0156L21.3294 10.9442L20.6706 9.0558L17.5992 10.1272L18.258 12.0156ZM11.2249 16.9404C9.08505 16.608 7.39203 14.915 7.05957 12.7751L5.08327 13.0821C5.54942 16.0825 7.91753 18.4506 10.9179 18.9167L11.2249 16.9404ZM10.1272 17.5992L9.0558 20.6706L10.9442 21.3294L12.0156 18.258L10.1272 17.5992ZM4 4V6C5.10457 6 6 5.10457 6 4H4ZM4 4H2C2 5.10457 2.89543 6 4 6V4ZM4 4V2C2.89543 2 2 2.89543 2 4H4ZM4 4H6C6 2.89543 5.10457 2 4 2V4ZM20 4V6C21.1046 6 22 5.10457 22 4H20ZM20 4H18C18 5.10457 18.8954 6 20 6V4ZM20 4V2C18.8954 2 18 2.89543 18 4H20ZM20 4H22C22 2.89543 21.1046 2 20 2V4ZM13.5 12V12.01H15.5V12H13.5ZM8.5 12V12.01H10.5V12H8.5ZM11 9.5V9.51H13V9.5H11ZM11 14.59V14.6H13V14.59H11ZM20 20V22C21.1046 22 22 21.1046 22 20H20ZM20 20H18C18 21.1046 18.8954 22 20 22V20ZM20 20V18C18.8954 18 18 18.8954 18 20H20ZM20 20H22C22 18.8954 21.1046 18 20 18V20ZM4 20V22C5.10457 22 6 21.1046 6 20H4ZM4 20H2C2 21.1046 2.89543 22 4 22V20ZM4 20V18C2.89543 18 2 18.8954 2 20H4ZM4 20H6C6 18.8954 5.10457 18 4 18V20Z" fill="#0B0D12"/>
</svg>
