<svg width="24" height="24" viewBox="0 0 24 24" fill="none" xmlns="http://www.w3.org/2000/svg">
<path d="M19.0732 8.8179C19.3512 9.83128 19.4997 10.8982 19.4997 11.9999C19.4997 13.1015 19.3512 14.1685 19.0732 15.1819M6.62293 6.53634L7.51752 6.28074C7.68658 6.23244 7.77111 6.20829 7.8537 6.18075C8.27128 6.04152 8.66301 5.83432 9.01311 5.56751C9.08236 5.51473 9.14989 5.45846 9.28496 5.3459L10.4359 4.38679C11.0915 3.84048 11.9938 3.69754 12.7861 4.01447C13.5398 4.31595 14.0799 4.98773 14.1705 5.79442C14.3153 7.08452 14.5 9.26528 14.5 12C14.5 14.7348 14.3153 16.9155 14.1705 18.2056C14.0799 19.0123 13.5398 19.6841 12.7861 19.9856C11.9938 20.3025 11.0915 20.1596 10.4359 19.6133L9.28496 18.6542C9.14992 18.5416 9.08235 18.4853 9.01311 18.4326C8.66301 18.1657 8.27128 17.9585 7.8537 17.8193C7.77112 17.7918 7.68654 17.7676 7.51752 17.7193L6.62293 17.4637C6.08675 17.3105 5.81867 17.2339 5.53234 17.0257C5.32231 16.873 5.04859 16.5536 4.92985 16.3227C4.76797 16.0078 4.74029 15.7867 4.68492 15.3445C4.58501 14.5463 4.5 13.4432 4.5 12C4.5 10.5569 4.58501 9.45375 4.68492 8.6556C4.74029 8.21335 4.76797 7.99222 4.92985 7.67738C5.04859 7.44644 5.32231 7.12704 5.53234 6.97432C5.81867 6.76613 6.08675 6.68953 6.62293 6.53634Z" stroke="#0B0D12" stroke-width="2" stroke-linecap="round" stroke-linejoin="round"/>
</svg>
