<svg width="24" height="24" viewBox="0 0 24 24" fill="none" xmlns="http://www.w3.org/2000/svg">
<path d="M10.0175 6.28074L9.12293 6.53634C8.58675 6.68953 8.31867 6.76613 8.03234 6.97432C7.82231 7.12704 7.54859 7.44644 7.42985 7.67738C7.26797 7.99222 7.24029 8.21335 7.18492 8.6556C7.08501 9.45375 7 10.5569 7 12C7 13.4432 7.08501 14.5463 7.18492 15.3445C7.24029 15.7867 7.26797 16.0078 7.42985 16.3227C7.54859 16.5536 7.82231 16.873 8.03234 17.0257C8.31867 17.2339 8.58675 17.3105 9.12293 17.4637L10.0175 17.7193C10.1865 17.7676 10.2711 17.7918 10.3537 17.8193C10.7713 17.9585 11.163 18.1657 11.5131 18.4326C11.5824 18.4853 11.6499 18.5416 11.785 18.6542L12.9359 19.6133C13.5915 20.1596 14.4938 20.3025 15.2861 19.9856C16.0398 19.6841 16.5799 19.0123 16.6705 18.2056C16.8153 16.9155 17 14.7348 17 12C17 9.26528 16.8153 7.08452 16.6705 5.79442C16.5799 4.98773 16.0398 4.31595 15.2861 4.01447C14.4938 3.69754 13.5915 3.84048 12.9359 4.38679L11.785 5.3459C11.6499 5.45846 11.5824 5.51473 11.5131 5.56751C11.163 5.83432 10.7713 6.04152 10.3537 6.18075C10.2711 6.20829 10.1866 6.23244 10.0175 6.28074Z" stroke="#0B0D12" stroke-width="2" stroke-linecap="round" stroke-linejoin="round"/>
</svg>
