<svg width="24" height="24" viewBox="0 0 24 24" fill="none" xmlns="http://www.w3.org/2000/svg">
<path d="M6.55646 17.4435C5.92054 17.2556 5.55621 17.1118 5.23678 16.7689C5.19962 16.729 5.14123 16.6596 5.10823 16.6162C4.77152 16.1734 4.72984 15.7869 4.64648 15.014C4.56414 14.2506 4.5 13.2536 4.5 12C4.5 10.7464 4.56414 9.74938 4.64648 8.98596C4.72984 8.21307 4.77152 7.82663 5.10823 7.38376C5.14123 7.34036 5.19962 7.27102 5.23678 7.23113C5.61595 6.82401 6.05838 6.69761 6.94322 6.44479L7.51752 6.28071C7.68658 6.23241 7.77111 6.20826 7.8537 6.18072C8.27128 6.04149 8.66301 5.83429 9.01311 5.56748C9.08236 5.5147 9.14989 5.45842 9.28496 5.34586L10.4359 4.38676C11.0915 3.84045 11.9938 3.69751 12.7861 4.01444C13.5398 4.31592 14.0799 4.9877 14.1705 5.79439C14.2688 6.67051 14.3856 7.95741 14.4504 9.54963M6.55646 17.4435L3 21M6.55646 17.4435L14.4504 9.54963M14.4504 9.54963L21 3M10.4091 19.5909L10.4359 19.6132C11.0915 20.1595 11.9938 20.3025 12.7861 19.9856C13.5398 19.6841 14.0799 19.0123 14.1705 18.2056C14.2437 17.5531 14.3272 16.6728 14.3918 15.6082" stroke="#0B0D12" stroke-width="2" stroke-linecap="round" stroke-linejoin="round"/>
</svg>
