<svg width="24" height="24" viewBox="0 0 24 24" fill="none" xmlns="http://www.w3.org/2000/svg">
<path d="M19.1758 18.3639C20.332 16.5192 21.0004 14.3377 21.0004 12C21.0004 9.6623 20.332 7.48074 19.1758 5.63602M16.5732 8.8179C16.8512 9.83128 16.9997 10.8982 16.9997 11.9999C16.9997 13.1015 16.8512 14.1685 16.5732 15.1819M5.12293 6.53634L6.01752 6.28074C6.18658 6.23244 6.27111 6.20829 6.3537 6.18075C6.77128 6.04152 7.16301 5.83432 7.51311 5.56751C7.58236 5.51473 7.64989 5.45846 7.78496 5.3459L8.93589 4.38679C9.59146 3.84048 10.4938 3.69754 11.2861 4.01447C12.0398 4.31595 12.5799 4.98773 12.6705 5.79442C12.8153 7.08452 13 9.26528 13 12C13 14.7348 12.8153 16.9155 12.6705 18.2056C12.5799 19.0123 12.0398 19.6841 11.2861 19.9856C10.4938 20.3025 9.59146 20.1596 8.93589 19.6133L7.78496 18.6542C7.64992 18.5416 7.58235 18.4853 7.51311 18.4326C7.16301 18.1657 6.77128 17.9585 6.3537 17.8193C6.27112 17.7918 6.18654 17.7676 6.01752 17.7193L5.12293 17.4637C4.58675 17.3105 4.31867 17.2339 4.03234 17.0257C3.82231 16.873 3.54859 16.5536 3.42985 16.3227C3.26797 16.0078 3.24029 15.7867 3.18492 15.3445C3.08501 14.5463 3 13.4432 3 12C3 10.5569 3.08501 9.45375 3.18492 8.6556C3.24029 8.21335 3.26797 7.99222 3.42985 7.67738C3.54859 7.44644 3.82231 7.12704 4.03234 6.97432C4.31867 6.76613 4.58675 6.68953 5.12293 6.53634Z" stroke="#0B0D12" stroke-width="2" stroke-linecap="round" stroke-linejoin="round"/>
</svg>
