<svg width="24" height="24" viewBox="0 0 24 24" fill="none" xmlns="http://www.w3.org/2000/svg">
<path d="M18 9C18 9.55228 18.4477 10 19 10C19.5523 10 20 9.55228 20 9H18ZM20 15C20 14.4477 19.5523 14 19 14C18.4477 14 18 14.4477 18 15H20ZM4.63803 20.673L4.18404 21.564H4.18404L4.63803 20.673ZM3.32698 19.362L4.21799 18.908L4.21799 18.908L3.32698 19.362ZM17.362 20.673L17.816 21.564H17.816L17.362 20.673ZM18.673 19.362L19.564 19.816L18.673 19.362ZM17.362 3.32698L17.816 2.43597L17.816 2.43597L17.362 3.32698ZM18.673 4.63803L19.564 4.18404L19.564 4.18404L18.673 4.63803ZM4.63803 3.32698L5.09202 4.21799L4.63803 3.32698ZM3.32698 4.63803L4.21799 5.09202L3.32698 4.63803ZM21 9H22C22 8.44772 21.5523 8 21 8V9ZM21 15V16C21.5523 16 22 15.5523 22 15H21ZM7 6C6.44772 6 6 6.44772 6 7C6 7.55229 6.44772 8 7 8V6ZM9 8C9.55228 8 10 7.55229 10 7C10 6.44772 9.55228 6 9 6V8ZM7.8 4H14.2V2H7.8V4ZM14.2 20H7.8V22H14.2V20ZM4 16.2V7.8H2V16.2H4ZM18 7.8V9H20V7.8H18ZM18 15V16.2H20V15H18ZM7.8 20C6.94342 20 6.36113 19.9992 5.91104 19.9624C5.47262 19.9266 5.24842 19.8617 5.09202 19.782L4.18404 21.564C4.66937 21.8113 5.18608 21.9099 5.74817 21.9558C6.2986 22.0008 6.97642 22 7.8 22V20ZM2 16.2C2 17.0236 1.99922 17.7014 2.04419 18.2518C2.09012 18.8139 2.18868 19.3306 2.43597 19.816L4.21799 18.908C4.1383 18.7516 4.07337 18.5274 4.03755 18.089C4.00078 17.6389 4 17.0566 4 16.2H2ZM5.09202 19.782C4.71569 19.5903 4.40973 19.2843 4.21799 18.908L2.43597 19.816C2.81947 20.5686 3.43139 21.1805 4.18404 21.564L5.09202 19.782ZM14.2 22C15.0236 22 15.7014 22.0008 16.2518 21.9558C16.8139 21.9099 17.3306 21.8113 17.816 21.564L16.908 19.782C16.7516 19.8617 16.5274 19.9266 16.089 19.9624C15.6389 19.9992 15.0566 20 14.2 20V22ZM18 16.2C18 17.0566 17.9992 17.6389 17.9624 18.089C17.9266 18.5274 17.8617 18.7516 17.782 18.908L19.564 19.816C19.8113 19.3306 19.9099 18.8139 19.9558 18.2518C20.0008 17.7014 20 17.0236 20 16.2H18ZM17.816 21.564C18.5686 21.1805 19.1805 20.5686 19.564 19.816L17.782 18.908C17.5903 19.2843 17.2843 19.5903 16.908 19.782L17.816 21.564ZM14.2 4C15.0566 4 15.6389 4.00078 16.089 4.03755C16.5274 4.07337 16.7516 4.1383 16.908 4.21799L17.816 2.43597C17.3306 2.18868 16.8139 2.09012 16.2518 2.04419C15.7014 1.99922 15.0236 2 14.2 2V4ZM20 7.8C20 6.97642 20.0008 6.2986 19.9558 5.74817C19.9099 5.18608 19.8113 4.66937 19.564 4.18404L17.782 5.09202C17.8617 5.24842 17.9266 5.47262 17.9624 5.91104C17.9992 6.36113 18 6.94342 18 7.8H20ZM16.908 4.21799C17.2843 4.40973 17.5903 4.71569 17.782 5.09202L19.564 4.18404C19.1805 3.43139 18.5686 2.81947 17.816 2.43597L16.908 4.21799ZM7.8 2C6.97642 2 6.2986 1.99922 5.74817 2.04419C5.18608 2.09012 4.66937 2.18868 4.18404 2.43597L5.09202 4.21799C5.24842 4.1383 5.47262 4.07337 5.91104 4.03755C6.36113 4.00078 6.94342 4 7.8 4V2ZM4 7.8C4 6.94342 4.00078 6.36113 4.03755 5.91104C4.07337 5.47262 4.1383 5.24842 4.21799 5.09202L2.43597 4.18404C2.18868 4.66937 2.09012 5.18608 2.04419 5.74817C1.99922 6.2986 2 6.97642 2 7.8H4ZM4.18404 2.43597C3.43139 2.81947 2.81947 3.43139 2.43597 4.18404L4.21799 5.09202C4.40973 4.71569 4.71569 4.40973 5.09202 4.21799L4.18404 2.43597ZM16 10H21V8H16V10ZM20 9V15H22V9H20ZM21 14H16V16H21V14ZM16 14C15.5204 14 15.2107 13.9995 14.9738 13.9833C14.7458 13.9677 14.6589 13.9411 14.6173 13.9239L13.8519 15.7716C14.1779 15.9066 14.5078 15.9561 14.8376 15.9787C15.1585 16.0005 15.5477 16 16 16V14ZM12 12C12 12.4523 11.9995 12.8415 12.0213 13.1624C12.0439 13.4922 12.0934 13.8221 12.2284 14.1481L14.0761 13.3827C14.0589 13.3411 14.0323 13.2542 14.0167 13.0262C14.0005 12.7893 14 12.4796 14 12H12ZM14.6173 13.9239C14.3723 13.8224 14.1776 13.6277 14.0761 13.3827L12.2284 14.1481C12.5328 14.8831 13.1169 15.4672 13.8519 15.7716L14.6173 13.9239ZM16 8C15.5477 8 15.1585 7.99946 14.8376 8.02135C14.5078 8.04385 14.1779 8.09336 13.8519 8.22836L14.6173 10.0761C14.6589 10.0589 14.7458 10.0323 14.9738 10.0167C15.2107 10.0005 15.5204 10 16 10V8ZM14 12C14 11.5204 14.0005 11.2107 14.0167 10.9738C14.0323 10.7458 14.0589 10.6589 14.0761 10.6173L12.2284 9.85195C12.0934 10.1779 12.0439 10.5078 12.0213 10.8376C11.9995 11.1585 12 11.5477 12 12H14ZM13.8519 8.22836C13.1169 8.53284 12.5328 9.11686 12.2284 9.85195L14.0761 10.6173C14.1776 10.3723 14.3723 10.1776 14.6173 10.0761L13.8519 8.22836ZM7 8H9V6H7V8Z" fill="#0B0D12"/>
</svg>
