<svg width="24" height="24" viewBox="0 0 24 24" fill="none" xmlns="http://www.w3.org/2000/svg">
<path d="M4.63803 20.673L4.18404 21.564L4.63803 20.673ZM3.32698 19.362L2.43597 19.816L3.32698 19.362ZM20.673 19.362L21.564 19.816L20.673 19.362ZM19.362 20.673L19.816 21.564L19.362 20.673ZM20.673 9.63802L21.564 9.18403L20.673 9.63802ZM19.362 8.32697L19.816 7.43597L19.362 8.32697ZM3.21799 9.09201L4.10899 9.546L3.21799 9.09201ZM4.09202 8.21798L4.54601 9.10898L4.09202 8.21798ZM4.85901 7.14198L4.43996 6.23403L4.85901 7.14198ZM11.459 4.09583L11.04 3.18787V3.18787L11.459 4.09583ZM2 12C2 12.5523 2.44772 13 3 13C3.55228 13 4 12.5523 4 12H2ZM14.3355 3.15415L14.5033 2.16832L14.5033 2.16832L14.3355 3.15415ZM15.6496 3.99494L16.4744 3.4295L16.4744 3.4295L15.6496 3.99494ZM3.60211 7.84931L2.90316 7.13414L2.90316 7.13414L3.60211 7.84931ZM3.1155 8.60982L4.05775 8.94474H4.05775L3.1155 8.60982ZM20 12.8V16.2H22V12.8H20ZM16.2 20H7.8V22H16.2V20ZM4 16.2V11.2H2V16.2H4ZM6.2 8.99999H16V6.99999H6.2V8.99999ZM16 8.99999H16.2V6.99999H16V8.99999ZM7.8 20C6.94342 20 6.36113 19.9992 5.91104 19.9624C5.47262 19.9266 5.24842 19.8617 5.09202 19.782L4.18404 21.564C4.66937 21.8113 5.18608 21.9099 5.74817 21.9558C6.2986 22.0008 6.97642 22 7.8 22V20ZM2 16.2C2 17.0236 1.99922 17.7014 2.04419 18.2518C2.09012 18.8139 2.18868 19.3306 2.43597 19.816L4.21799 18.908C4.1383 18.7516 4.07337 18.5274 4.03755 18.089C4.00078 17.6389 4 17.0566 4 16.2H2ZM5.09202 19.782C4.71569 19.5903 4.40973 19.2843 4.21799 18.908L2.43597 19.816C2.81947 20.5686 3.43139 21.1805 4.18404 21.564L5.09202 19.782ZM20 16.2C20 17.0566 19.9992 17.6389 19.9624 18.089C19.9266 18.5274 19.8617 18.7516 19.782 18.908L21.564 19.816C21.8113 19.3306 21.9099 18.8139 21.9558 18.2518C22.0008 17.7014 22 17.0236 22 16.2H20ZM16.2 22C17.0236 22 17.7014 22.0008 18.2518 21.9558C18.8139 21.9099 19.3306 21.8113 19.816 21.564L18.908 19.782C18.7516 19.8617 18.5274 19.9266 18.089 19.9624C17.6389 19.9992 17.0566 20 16.2 20V22ZM19.782 18.908C19.5903 19.2843 19.2843 19.5903 18.908 19.782L19.816 21.564C20.5686 21.1805 21.1805 20.5686 21.564 19.816L19.782 18.908ZM22 12.8C22 11.9764 22.0008 11.2986 21.9558 10.7482C21.9099 10.1861 21.8113 9.66936 21.564 9.18403L19.782 10.092C19.8617 10.2484 19.9266 10.4726 19.9624 10.911C19.9992 11.3611 20 11.9434 20 12.8H22ZM16.2 8.99999C17.0566 8.99999 17.6389 9.00077 18.089 9.03754C18.5274 9.07336 18.7516 9.13829 18.908 9.21798L19.816 7.43597C19.3306 7.18867 18.8139 7.09011 18.2518 7.04418C17.7014 6.99921 17.0236 6.99999 16.2 6.99999V8.99999ZM21.564 9.18403C21.1805 8.43138 20.5686 7.81946 19.816 7.43597L18.908 9.21798C19.2843 9.40972 19.5903 9.71569 19.782 10.092L21.564 9.18403ZM4 11.2C4 10.6234 4.00078 10.2512 4.02393 9.96783C4.04612 9.69616 4.0838 9.59544 4.10899 9.546L2.32698 8.63802C2.13419 9.0164 2.06287 9.40962 2.03057 9.80496C1.99922 10.1886 2 10.6564 2 11.2H4ZM6.2 6.99999C5.65645 6.99999 5.18864 6.99921 4.80497 7.03056C4.40963 7.06286 4.01641 7.13418 3.63803 7.32697L4.54601 9.10898C4.59545 9.08379 4.69617 9.04611 4.96784 9.02392C5.25117 9.00077 5.62345 8.99999 6.2 8.99999V6.99999ZM4.10899 9.546C4.20487 9.35784 4.35785 9.20486 4.54601 9.10898L3.63803 7.32697C3.07354 7.61459 2.6146 8.07353 2.32698 8.63802L4.10899 9.546ZM5.27807 8.04994L11.8781 5.00379L11.04 3.18787L4.43996 6.23403L5.27807 8.04994ZM15 7.0013V7.99999H17V7.0013H15ZM2 10.0475V12H4V10.0475H2ZM11.8781 5.00379C12.6509 4.64712 13.1685 4.40928 13.5693 4.2669C13.9698 4.1246 14.1157 4.13113 14.1678 4.13998L14.5033 2.16832C13.9443 2.07321 13.4072 2.20204 12.8998 2.3823C12.3926 2.56247 11.7775 2.84745 11.04 3.18787L11.8781 5.00379ZM17 7.0013C17 6.18894 17.001 5.51105 16.9521 4.97507C16.9031 4.43884 16.795 3.89713 16.4744 3.4295L14.8248 4.56037C14.8546 4.60389 14.9217 4.73362 14.9603 5.15692C14.999 5.58047 15 6.15018 15 7.0013H17ZM14.1678 4.13998C14.4346 4.1854 14.6717 4.33708 14.8248 4.56037L16.4744 3.4295C16.0151 2.75963 15.3039 2.30457 14.5033 2.16832L14.1678 4.13998ZM4.43996 6.23403C3.83473 6.51336 3.30266 6.7437 2.90316 7.13414L4.30105 8.56448C4.39485 8.47282 4.53628 8.39231 5.27807 8.04994L4.43996 6.23403ZM4 10.0475C4 9.23047 4.01383 9.06831 4.05775 8.94474L2.17326 8.27491C1.98617 8.80125 2 9.38088 2 10.0475H4ZM2.90316 7.13414C2.57609 7.45379 2.32642 7.84399 2.17326 8.27491L4.05775 8.94474C4.10881 8.8011 4.19203 8.67103 4.30105 8.56448L2.90316 7.13414ZM16 14.5V16.5C17.1046 16.5 18 15.6046 18 14.5H16ZM16 14.5H14C14 15.6046 14.8954 16.5 16 16.5V14.5ZM16 14.5V12.5C14.8954 12.5 14 13.3954 14 14.5H16ZM16 14.5H18C18 13.3954 17.1046 12.5 16 12.5V14.5Z" fill="#0B0D12"/>
</svg>
