<svg width="24" height="24" viewBox="0 0 24 24" fill="none" xmlns="http://www.w3.org/2000/svg">
<path d="M10 20C9.44772 20 9 20.4477 9 21C9 21.5523 9.44772 22 10 22V20ZM14 22C14.5523 22 15 21.5523 15 21C15 20.4477 14.5523 20 14 20V22ZM19.5 8L20.0547 7.16795L19.5 8ZM4.5 8L3.9453 7.16795H3.9453L4.5 8ZM16.5 8L17.0547 8.83205L16.5 8ZM7.5 8L6.9453 8.83205L7.5 8ZM4.85593 3.55611L5.71661 4.06526L5.71661 4.06525L4.85593 3.55611ZM19.1441 3.55611L20.0047 3.04696L20.0047 3.04695L19.1441 3.55611ZM18.9084 3.25191L18.2448 4L18.2448 4L18.9084 3.25191ZM18.5508 3.04797L18.8568 2.09593L18.8568 2.09593L18.5508 3.04797ZM5.09161 3.25191L4.42801 2.50383L4.42801 2.50383L5.09161 3.25191ZM5.44922 3.04797L5.14323 2.09593L5.14323 2.09593L5.44922 3.04797ZM19.9003 8.26684L20.8878 8.42396L19.9003 8.26684ZM4.09974 8.26684L3.11216 8.42396L4.09974 8.26684ZM11 15V21H13V15H11ZM12 20H10V22H12V20ZM12 22H14V20H12V22ZM17.0547 8.83205C17.6271 8.45043 18.3729 8.45043 18.9453 8.83205L20.0547 7.16795C18.8105 6.33847 17.1895 6.33847 15.9453 7.16795L17.0547 8.83205ZM12.9453 8.83205C14.1895 9.66153 15.8105 9.66153 17.0547 8.83205L15.9453 7.16795C15.3729 7.54957 14.6271 7.54957 14.0547 7.16795L12.9453 8.83205ZM11.0547 8.83205C11.6271 8.45043 12.3729 8.45043 12.9453 8.83205L14.0547 7.16795C12.8105 6.33847 11.1895 6.33847 9.9453 7.16795L11.0547 8.83205ZM6.9453 8.83205C8.18953 9.66153 9.81047 9.66153 11.0547 8.83205L9.9453 7.16795C9.37287 7.54957 8.62713 7.54957 8.0547 7.16795L6.9453 8.83205ZM8.0547 7.16795C6.81047 6.33847 5.18953 6.33847 3.9453 7.16795L5.0547 8.83205C5.62713 8.45043 6.37287 8.45043 6.9453 8.83205L8.0547 7.16795ZM5 7C5 5.52175 5.42777 4.55352 5.71661 4.06526L3.99525 3.04696C3.55047 3.79884 3 5.11486 3 7H5ZM18.2834 4.06526C18.5722 4.55352 19 5.52175 19 7H21C21 5.11486 20.4495 3.79884 20.0047 3.04696L18.2834 4.06526ZM5.93586 4H18.0641V2H5.93586V4ZM20.0047 3.04695C19.9141 2.89366 19.8104 2.71527 19.572 2.50383L18.2448 4C18.2552 4.00923 18.2563 4.0109 18.2523 4.00666C18.2476 4.00155 18.242 3.99492 18.2375 3.98876C18.2338 3.9838 18.2345 3.98413 18.2421 3.99645C18.2461 4.00273 18.2511 4.01103 18.2582 4.02281C18.2654 4.03485 18.2732 4.04807 18.2834 4.06527L20.0047 3.04695ZM18.0641 4C18.1227 4 18.1628 4.00003 18.1972 4.00061C18.2305 4.00117 18.2474 4.00212 18.256 4.00281C18.263 4.00336 18.261 4.00348 18.2544 4.00221C18.2475 4.00088 18.2434 3.99956 18.2448 4L18.8568 2.09593C18.535 1.99252 18.2664 2 18.0641 2V4ZM19.572 2.50383C19.4577 2.40246 19.327 2.32027 19.2332 2.2668C19.1395 2.21334 19.0022 2.14268 18.8568 2.09593L18.2448 4C18.2362 3.99725 18.2295 3.99487 18.2249 3.99316C18.2202 3.99142 18.2168 3.99007 18.2148 3.98925C18.211 3.9877 18.2103 3.98732 18.2129 3.98854C18.2153 3.98969 18.2194 3.99167 18.2249 3.99452C18.2303 3.99733 18.2362 4.00058 18.2424 4.00413C18.2486 4.00767 18.2545 4.01115 18.2596 4.01436C18.2649 4.0176 18.2687 4.02008 18.2709 4.02159C18.2732 4.02321 18.2726 4.02286 18.2693 4.02038C18.2676 4.01906 18.2647 4.01682 18.2608 4.01366C18.257 4.01053 18.2515 4.00597 18.2448 4L19.572 2.50383ZM5.71661 4.06525C5.72679 4.04806 5.7346 4.03484 5.74182 4.0228C5.74887 4.01102 5.75394 4.00272 5.75786 3.99644C5.76555 3.98412 5.76622 3.9838 5.76255 3.98876C5.75797 3.99492 5.75244 4.00155 5.74768 4.00666C5.74372 4.0109 5.7448 4.00923 5.75521 4L4.42801 2.50383C4.18965 2.71527 4.08595 2.89365 3.99525 3.04696L5.71661 4.06525ZM5.93586 2C5.73358 2 5.46498 1.99252 5.14323 2.09593L5.75521 4C5.75658 3.99956 5.75252 4.00088 5.74559 4.00221C5.73898 4.00348 5.73705 4.00336 5.74396 4.00281C5.75255 4.00212 5.76947 4.00117 5.80275 4.00061C5.83716 4.00003 5.87732 4 5.93586 4V2ZM5.75521 4C5.74848 4.00597 5.74302 4.01053 5.73918 4.01366C5.73529 4.01682 5.7324 4.01906 5.73067 4.02038C5.7274 4.02286 5.72676 4.02321 5.72913 4.02159C5.73135 4.02008 5.73512 4.0176 5.74035 4.01436C5.74552 4.01115 5.75136 4.00767 5.75757 4.00413C5.76378 4.00058 5.76974 3.99734 5.77514 3.99452C5.78059 3.99167 5.78465 3.98969 5.78708 3.98854C5.78968 3.98732 5.78905 3.9877 5.78525 3.98925C5.78323 3.99007 5.77984 3.99142 5.77513 3.99316C5.77049 3.99487 5.76378 3.99725 5.75521 4L5.14323 2.09593C4.9978 2.14267 4.86051 2.21334 4.76676 2.2668C4.673 2.32027 4.54229 2.40246 4.42801 2.50383L5.75521 4ZM19 7C19 7.37828 18.9701 7.74887 18.9127 8.10972L20.8878 8.42396C20.9617 7.95957 21 7.48391 21 7H19ZM18.9127 8.10972C18.3815 11.4481 15.4878 14 12 14V16C16.4865 16 20.2046 12.7181 20.8878 8.42396L18.9127 8.10972ZM18.9453 8.83205L19.3456 9.09889L20.455 7.43479L20.0547 7.16795L18.9453 8.83205ZM12 14C8.51216 14 5.61846 11.4481 5.08732 8.10972L3.11216 8.42396C3.79535 12.7181 7.51347 16 12 16V14ZM5.08732 8.10972C5.02991 7.74887 5 7.37828 5 7H3C3 7.48391 3.03828 7.95957 3.11216 8.42396L5.08732 8.10972ZM4.65444 9.09889L5.0547 8.83205L3.9453 7.16795L3.54504 7.43479L4.65444 9.09889Z" fill="#0B0D12"/>
</svg>
