<svg width="24" height="24" viewBox="0 0 24 24" fill="none" xmlns="http://www.w3.org/2000/svg">
<path d="M19.2929 20.7071C19.6834 21.0976 20.3166 21.0976 20.7071 20.7071C21.0976 20.3166 21.0976 19.6834 20.7071 19.2929L19.2929 20.7071ZM14 12.5C14.5523 12.5 15 12.0523 15 11.5C15 10.9477 14.5523 10.5 14 10.5V12.5ZM9.00002 10.5C8.44774 10.5 8.00002 10.9477 8.00002 11.5C8.00002 12.0523 8.44774 12.5 9.00002 12.5V10.5ZM12.5 9.00002C12.5 8.44774 12.0523 8.00002 11.5 8.00002C10.9477 8.00002 10.5 8.44774 10.5 9.00002H12.5ZM10.5 14C10.5 14.5523 10.9477 15 11.5 15C12.0523 15 12.5 14.5523 12.5 14H10.5ZM11.5 18C7.91015 18 5 15.0899 5 11.5H3C3 16.1944 6.80558 20 11.5 20V18ZM5 11.5C5 7.91015 7.91015 5 11.5 5V3C6.80558 3 3 6.80558 3 11.5H5ZM11.5 5C15.0899 5 18 7.91015 18 11.5H20C20 6.80558 16.1944 3 11.5 3V5ZM18 11.5C18 13.2952 17.2736 14.9188 16.0962 16.0962L17.5104 17.5104C19.0475 15.9733 20 13.8469 20 11.5H18ZM16.0962 16.0962C14.9188 17.2736 13.2952 18 11.5 18V20C13.8469 20 15.9733 19.0475 17.5104 17.5104L16.0962 16.0962ZM20.7071 19.2929L17.5104 16.0962L16.0962 17.5104L19.2929 20.7071L20.7071 19.2929ZM14 10.5H9.00002V12.5H14V10.5ZM10.5 9.00002V14H12.5V9.00002H10.5Z" fill="#0B0D12"/>
</svg>
